%
M48
M72
T01C0.0700
T02C0.1100
T03C0.1200
%
T01
X7760Y8000
X8760Y8000
X9760Y8000
X10760Y8000
X11760Y8000
X12760Y8000
X13760Y8000
X14760Y8000
X15760Y8000
X16760Y8000
X16760Y20000
X15760Y20000
X14760Y20000
X13760Y20000
X12760Y20000
X11760Y20000
X17760Y20000
T02
X12260Y6250
X12260Y21750
T03
X21510Y20500
X3010Y20500
X3010Y7500
X21510Y7500
M30
