%
M48
M72
T01C0.0118
T02C0.0200
T03C0.0335
T04C0.0400
T05C0.1100
T06C0.1200
T07C0.1300
%
T01
X32913Y36500
X45213Y33410
X46983Y34460
X46023Y36380
X49653Y43610
X54573Y40070
X57153Y39560
X57093Y39080
X58233Y20390
T02
X35063Y19270
X23563Y19270
T03
X29416Y44992
X30203Y45031
X30991Y45031
X31778Y45031
X31778Y45819
X30991Y45819
X30203Y45819
X29416Y45858
X32566Y45819
X33353Y45819
X34140Y45819
X34140Y45031
X33353Y45031
X32566Y45031
X34928Y45031
X35715Y45031
X35715Y45819
X34928Y45819
X36503Y45819
X37290Y45819
X38077Y45819
X38077Y45031
X37290Y45031
X36503Y45031
X38865Y45031
X39652Y45031
X39652Y45819
X38865Y45819
X40440Y45819
X41227Y45819
X42014Y45819
X42014Y45031
X41227Y45031
X40440Y45031
X42802Y45031
X42802Y45819
X43589Y45819
X43589Y45031
X44377Y45031
X45164Y45031
X45951Y45031
X46739Y45031
X46739Y45819
X45951Y45819
X45164Y45819
X44377Y45819
X47526Y45819
X47526Y45031
X48314Y45031
X49101Y45031
X49888Y45031
X50676Y45031
X50676Y45819
X49888Y45819
X49101Y45819
X48314Y45819
X51463Y45819
X51463Y45031
X52251Y44992
X52251Y45858
T04
X45833Y38000
X44833Y38000
X43833Y38000
X42833Y38000
X41833Y38000
X40833Y38000
X39833Y38000
X39833Y26000
X40833Y26000
X38833Y26000
X37833Y26000
X36833Y26000
X35833Y26000
T05
X27583Y45660
X54083Y45660
T06
X49583Y38500
X40333Y39750
X31083Y38500
X31083Y25500
X40333Y24250
X49583Y25500
T07
X16333Y12000
X16333Y46000
X63833Y46000
X63833Y12000
M30
