G75*
%MOIN*%
%OFA0B0*%
%FSLAX25Y25*%
%IPPOS*%
%LPD*%
%AMOC8*
5,1,8,0,0,1.08239X$1,22.5*
%
%ADD10C,0.07400*%
%ADD11R,0.05020X0.05020*%
%ADD12C,0.05020*%
%ADD13C,0.03400*%
%ADD14C,0.00800*%
%ADD15C,0.02600*%
%ADD16C,0.00700*%
%ADD17C,0.02900*%
%ADD18C,0.02000*%
%ADD19C,0.01500*%
D10*
X0303333Y0285000D03*
X0313333Y0285000D03*
X0323333Y0285000D03*
X0333333Y0285000D03*
X0343333Y0285000D03*
X0353333Y0285000D03*
X0363333Y0285000D03*
X0373333Y0285000D03*
X0383333Y0285000D03*
X0393333Y0285000D03*
X0393333Y0405000D03*
X0383333Y0405000D03*
X0373333Y0405000D03*
X0363333Y0405000D03*
X0353333Y0405000D03*
X0343333Y0405000D03*
X0403333Y0405000D03*
D11*
X0239160Y0484921D03*
D12*
X0239160Y0493583D03*
X0247034Y0493189D03*
X0247034Y0485315D03*
X0254908Y0485315D03*
X0254908Y0493189D03*
X0262782Y0493189D03*
X0262782Y0485315D03*
X0270656Y0485315D03*
X0270656Y0493189D03*
X0278530Y0493189D03*
X0278530Y0485315D03*
X0286404Y0485315D03*
X0286404Y0493189D03*
X0294278Y0493189D03*
X0294278Y0485315D03*
X0302152Y0485315D03*
X0302152Y0493189D03*
X0310026Y0493189D03*
X0310026Y0485315D03*
X0317900Y0485315D03*
X0317900Y0493189D03*
X0325774Y0493189D03*
X0325774Y0485315D03*
X0333648Y0485315D03*
X0333648Y0493189D03*
X0341522Y0493189D03*
X0341522Y0485315D03*
X0349396Y0485315D03*
X0349396Y0493189D03*
X0357270Y0493189D03*
X0357270Y0485315D03*
X0365144Y0485315D03*
X0365144Y0493189D03*
X0373018Y0493189D03*
X0373018Y0485315D03*
X0380892Y0485315D03*
X0380892Y0493189D03*
X0388766Y0493189D03*
X0388766Y0485315D03*
X0396640Y0485315D03*
X0396640Y0493189D03*
X0404514Y0493189D03*
X0404514Y0485315D03*
X0412388Y0485315D03*
X0412388Y0493189D03*
X0420262Y0493189D03*
X0420262Y0485315D03*
X0428136Y0485315D03*
X0428136Y0493189D03*
X0436010Y0493189D03*
X0436010Y0485315D03*
X0443885Y0485315D03*
X0451759Y0485315D03*
X0459633Y0485315D03*
X0459633Y0493189D03*
X0451759Y0493189D03*
X0443885Y0493189D03*
X0467507Y0493583D03*
X0467507Y0484921D03*
D13*
X0350633Y0182700D03*
D14*
X0210433Y0124917D02*
X0210433Y0495000D01*
X0210531Y0496236D01*
X0211294Y0498587D01*
X0212747Y0500586D01*
X0214747Y0502039D01*
X0217097Y0502803D01*
X0218333Y0502900D01*
X0488333Y0502900D01*
X0489569Y0502803D01*
X0491920Y0502039D01*
X0493919Y0500586D01*
X0495372Y0498587D01*
X0496136Y0496236D01*
X0496233Y0495000D01*
X0496233Y0124917D01*
X0495567Y0126070D01*
X0493055Y0128178D01*
X0489973Y0129300D01*
X0486693Y0129300D01*
X0483612Y0128178D01*
X0483612Y0128178D01*
X0481099Y0126070D01*
X0479459Y0123230D01*
X0478890Y0120000D01*
X0479459Y0116770D01*
X0481099Y0113930D01*
X0483280Y0112100D01*
X0223387Y0112100D01*
X0225567Y0113930D01*
X0227207Y0116770D01*
X0227207Y0116770D01*
X0227777Y0120000D01*
X0227207Y0123230D01*
X0225567Y0126070D01*
X0223055Y0128178D01*
X0219973Y0129300D01*
X0216693Y0129300D01*
X0213612Y0128178D01*
X0213612Y0128178D01*
X0211099Y0126070D01*
X0210433Y0124917D01*
X0210433Y0125172D02*
X0210581Y0125172D01*
X0210433Y0125970D02*
X0211042Y0125970D01*
X0211099Y0126070D02*
X0211099Y0126070D01*
X0211099Y0126070D01*
X0210433Y0126769D02*
X0211932Y0126769D01*
X0212883Y0127567D02*
X0210433Y0127567D01*
X0210433Y0128366D02*
X0214127Y0128366D01*
X0216321Y0129164D02*
X0210433Y0129164D01*
X0210433Y0129963D02*
X0496233Y0129963D01*
X0496233Y0130761D02*
X0210433Y0130761D01*
X0210433Y0131560D02*
X0496233Y0131560D01*
X0496233Y0132358D02*
X0210433Y0132358D01*
X0210433Y0133157D02*
X0496233Y0133157D01*
X0496233Y0133955D02*
X0210433Y0133955D01*
X0210433Y0134754D02*
X0496233Y0134754D01*
X0496233Y0135552D02*
X0210433Y0135552D01*
X0210433Y0136351D02*
X0496233Y0136351D01*
X0496233Y0137149D02*
X0210433Y0137149D01*
X0210433Y0137948D02*
X0496233Y0137948D01*
X0496233Y0138746D02*
X0210433Y0138746D01*
X0210433Y0139545D02*
X0496233Y0139545D01*
X0496233Y0140343D02*
X0210433Y0140343D01*
X0210433Y0141142D02*
X0496233Y0141142D01*
X0496233Y0141940D02*
X0210433Y0141940D01*
X0210433Y0142739D02*
X0496233Y0142739D01*
X0496233Y0143537D02*
X0210433Y0143537D01*
X0210433Y0144336D02*
X0496233Y0144336D01*
X0496233Y0145134D02*
X0210433Y0145134D01*
X0210433Y0145933D02*
X0496233Y0145933D01*
X0496233Y0146732D02*
X0210433Y0146732D01*
X0210433Y0147530D02*
X0496233Y0147530D01*
X0496233Y0148329D02*
X0210433Y0148329D01*
X0210433Y0149127D02*
X0496233Y0149127D01*
X0496233Y0149926D02*
X0210433Y0149926D01*
X0210433Y0150724D02*
X0496233Y0150724D01*
X0496233Y0151523D02*
X0210433Y0151523D01*
X0210433Y0152321D02*
X0496233Y0152321D01*
X0496233Y0153120D02*
X0210433Y0153120D01*
X0210433Y0153918D02*
X0496233Y0153918D01*
X0496233Y0154717D02*
X0210433Y0154717D01*
X0210433Y0155515D02*
X0496233Y0155515D01*
X0496233Y0156314D02*
X0210433Y0156314D01*
X0210433Y0157112D02*
X0496233Y0157112D01*
X0496233Y0157911D02*
X0210433Y0157911D01*
X0210433Y0158709D02*
X0496233Y0158709D01*
X0496233Y0159508D02*
X0210433Y0159508D01*
X0210433Y0160306D02*
X0496233Y0160306D01*
X0496233Y0161105D02*
X0210433Y0161105D01*
X0210433Y0161903D02*
X0496233Y0161903D01*
X0496233Y0162702D02*
X0210433Y0162702D01*
X0210433Y0163500D02*
X0496233Y0163500D01*
X0496233Y0164299D02*
X0210433Y0164299D01*
X0210433Y0165097D02*
X0496233Y0165097D01*
X0496233Y0165896D02*
X0210433Y0165896D01*
X0210433Y0166694D02*
X0496233Y0166694D01*
X0496233Y0167493D02*
X0210433Y0167493D01*
X0210433Y0168291D02*
X0496233Y0168291D01*
X0496233Y0169090D02*
X0210433Y0169090D01*
X0210433Y0169888D02*
X0496233Y0169888D01*
X0496233Y0170687D02*
X0210433Y0170687D01*
X0210433Y0171485D02*
X0496233Y0171485D01*
X0496233Y0172284D02*
X0210433Y0172284D01*
X0210433Y0173082D02*
X0496233Y0173082D01*
X0496233Y0173881D02*
X0210433Y0173881D01*
X0210433Y0174679D02*
X0496233Y0174679D01*
X0496233Y0175478D02*
X0210433Y0175478D01*
X0210433Y0176276D02*
X0496233Y0176276D01*
X0496233Y0177075D02*
X0210433Y0177075D01*
X0210433Y0177873D02*
X0496233Y0177873D01*
X0496233Y0178672D02*
X0210433Y0178672D01*
X0210433Y0179470D02*
X0349807Y0179470D01*
X0349977Y0179400D02*
X0351290Y0179400D01*
X0352503Y0179902D01*
X0353431Y0180831D01*
X0353933Y0182044D01*
X0353933Y0183356D01*
X0353431Y0184569D01*
X0352503Y0185498D01*
X0351290Y0186000D01*
X0349977Y0186000D01*
X0348764Y0185498D01*
X0347836Y0184569D01*
X0347333Y0183356D01*
X0347333Y0182044D01*
X0347836Y0180831D01*
X0348764Y0179902D01*
X0349977Y0179400D01*
X0351460Y0179470D02*
X0496233Y0179470D01*
X0496233Y0180269D02*
X0352869Y0180269D01*
X0353529Y0181068D02*
X0496233Y0181068D01*
X0496233Y0181866D02*
X0353860Y0181866D01*
X0353933Y0182665D02*
X0496233Y0182665D01*
X0496233Y0183463D02*
X0353889Y0183463D01*
X0353558Y0184262D02*
X0496233Y0184262D01*
X0496233Y0185060D02*
X0352940Y0185060D01*
X0351631Y0185859D02*
X0496233Y0185859D01*
X0496233Y0186657D02*
X0210433Y0186657D01*
X0210433Y0185859D02*
X0349636Y0185859D01*
X0348327Y0185060D02*
X0210433Y0185060D01*
X0210433Y0184262D02*
X0347708Y0184262D01*
X0347378Y0183463D02*
X0210433Y0183463D01*
X0210433Y0182665D02*
X0347333Y0182665D01*
X0347407Y0181866D02*
X0210433Y0181866D01*
X0210433Y0181068D02*
X0347738Y0181068D01*
X0348397Y0180269D02*
X0210433Y0180269D01*
X0210433Y0187456D02*
X0496233Y0187456D01*
X0496233Y0188254D02*
X0210433Y0188254D01*
X0210433Y0189053D02*
X0496233Y0189053D01*
X0496233Y0189851D02*
X0210433Y0189851D01*
X0210433Y0190650D02*
X0496233Y0190650D01*
X0496233Y0191448D02*
X0210433Y0191448D01*
X0210433Y0192247D02*
X0496233Y0192247D01*
X0496233Y0193045D02*
X0210433Y0193045D01*
X0210433Y0193844D02*
X0496233Y0193844D01*
X0496233Y0194642D02*
X0210433Y0194642D01*
X0210433Y0195441D02*
X0496233Y0195441D01*
X0496233Y0196239D02*
X0210433Y0196239D01*
X0210433Y0197038D02*
X0496233Y0197038D01*
X0496233Y0197836D02*
X0210433Y0197836D01*
X0210433Y0198635D02*
X0496233Y0198635D01*
X0496233Y0199433D02*
X0210433Y0199433D01*
X0210433Y0200232D02*
X0496233Y0200232D01*
X0496233Y0201030D02*
X0210433Y0201030D01*
X0210433Y0201829D02*
X0496233Y0201829D01*
X0496233Y0202627D02*
X0210433Y0202627D01*
X0210433Y0203426D02*
X0496233Y0203426D01*
X0496233Y0204224D02*
X0210433Y0204224D01*
X0210433Y0205023D02*
X0496233Y0205023D01*
X0496233Y0205821D02*
X0210433Y0205821D01*
X0210433Y0206620D02*
X0496233Y0206620D01*
X0496233Y0207418D02*
X0210433Y0207418D01*
X0210433Y0208217D02*
X0496233Y0208217D01*
X0496233Y0209015D02*
X0210433Y0209015D01*
X0210433Y0209814D02*
X0496233Y0209814D01*
X0496233Y0210612D02*
X0210433Y0210612D01*
X0210433Y0211411D02*
X0496233Y0211411D01*
X0496233Y0212209D02*
X0210433Y0212209D01*
X0210433Y0213008D02*
X0496233Y0213008D01*
X0496233Y0213806D02*
X0210433Y0213806D01*
X0210433Y0214605D02*
X0496233Y0214605D01*
X0496233Y0215403D02*
X0210433Y0215403D01*
X0210433Y0216202D02*
X0496233Y0216202D01*
X0496233Y0217001D02*
X0210433Y0217001D01*
X0210433Y0217799D02*
X0496233Y0217799D01*
X0496233Y0218598D02*
X0210433Y0218598D01*
X0210433Y0219396D02*
X0496233Y0219396D01*
X0496233Y0220195D02*
X0210433Y0220195D01*
X0210433Y0220993D02*
X0496233Y0220993D01*
X0496233Y0221792D02*
X0210433Y0221792D01*
X0210433Y0222590D02*
X0496233Y0222590D01*
X0496233Y0223389D02*
X0210433Y0223389D01*
X0210433Y0224187D02*
X0496233Y0224187D01*
X0496233Y0224986D02*
X0210433Y0224986D01*
X0210433Y0225784D02*
X0496233Y0225784D01*
X0496233Y0226583D02*
X0210433Y0226583D01*
X0210433Y0227381D02*
X0496233Y0227381D01*
X0496233Y0228180D02*
X0210433Y0228180D01*
X0210433Y0228978D02*
X0496233Y0228978D01*
X0496233Y0229777D02*
X0210433Y0229777D01*
X0210433Y0230575D02*
X0496233Y0230575D01*
X0496233Y0231374D02*
X0210433Y0231374D01*
X0210433Y0232172D02*
X0496233Y0232172D01*
X0496233Y0232971D02*
X0210433Y0232971D01*
X0210433Y0233769D02*
X0496233Y0233769D01*
X0496233Y0234568D02*
X0210433Y0234568D01*
X0210433Y0235366D02*
X0496233Y0235366D01*
X0496233Y0236165D02*
X0210433Y0236165D01*
X0210433Y0236963D02*
X0496233Y0236963D01*
X0496233Y0237762D02*
X0210433Y0237762D01*
X0210433Y0238560D02*
X0496233Y0238560D01*
X0496233Y0239359D02*
X0210433Y0239359D01*
X0210433Y0240157D02*
X0496233Y0240157D01*
X0496233Y0240956D02*
X0210433Y0240956D01*
X0210433Y0241754D02*
X0496233Y0241754D01*
X0496233Y0242553D02*
X0210433Y0242553D01*
X0210433Y0243351D02*
X0496233Y0243351D01*
X0496233Y0244150D02*
X0210433Y0244150D01*
X0210433Y0244948D02*
X0496233Y0244948D01*
X0496233Y0245747D02*
X0210433Y0245747D01*
X0210433Y0246545D02*
X0496233Y0246545D01*
X0496233Y0247344D02*
X0210433Y0247344D01*
X0210433Y0248142D02*
X0496233Y0248142D01*
X0496233Y0248941D02*
X0210433Y0248941D01*
X0210433Y0249739D02*
X0496233Y0249739D01*
X0496233Y0250538D02*
X0210433Y0250538D01*
X0210433Y0251337D02*
X0496233Y0251337D01*
X0496233Y0252135D02*
X0210433Y0252135D01*
X0210433Y0252934D02*
X0496233Y0252934D01*
X0496233Y0253732D02*
X0210433Y0253732D01*
X0210433Y0254531D02*
X0496233Y0254531D01*
X0496233Y0255329D02*
X0210433Y0255329D01*
X0210433Y0256128D02*
X0346372Y0256128D01*
X0346921Y0255900D02*
X0349746Y0255900D01*
X0352355Y0256981D01*
X0354352Y0258978D01*
X0355433Y0261588D01*
X0355433Y0264412D01*
X0354352Y0267022D01*
X0352355Y0269019D01*
X0349746Y0270100D01*
X0346921Y0270100D01*
X0344311Y0269019D01*
X0342314Y0267022D01*
X0341233Y0264412D01*
X0341233Y0261588D01*
X0342314Y0258978D01*
X0344311Y0256981D01*
X0346921Y0255900D01*
X0344444Y0256926D02*
X0210433Y0256926D01*
X0210433Y0257725D02*
X0343568Y0257725D01*
X0342769Y0258523D02*
X0210433Y0258523D01*
X0210433Y0259322D02*
X0342172Y0259322D01*
X0341841Y0260120D02*
X0210433Y0260120D01*
X0210433Y0260919D02*
X0341510Y0260919D01*
X0341233Y0261717D02*
X0210433Y0261717D01*
X0210433Y0262516D02*
X0341233Y0262516D01*
X0341233Y0263314D02*
X0210433Y0263314D01*
X0210433Y0264113D02*
X0341233Y0264113D01*
X0341440Y0264911D02*
X0210433Y0264911D01*
X0210433Y0265710D02*
X0341771Y0265710D01*
X0342102Y0266508D02*
X0210433Y0266508D01*
X0210433Y0267307D02*
X0342599Y0267307D01*
X0343398Y0268105D02*
X0210433Y0268105D01*
X0210433Y0268904D02*
X0344196Y0268904D01*
X0345961Y0269702D02*
X0210433Y0269702D01*
X0210433Y0270501D02*
X0496233Y0270501D01*
X0496233Y0271299D02*
X0444120Y0271299D01*
X0445555Y0271822D02*
X0445555Y0271822D01*
X0448067Y0273930D01*
X0449707Y0276770D01*
X0449707Y0276770D01*
X0450277Y0280000D01*
X0450277Y0280000D01*
X0449707Y0283230D01*
X0448067Y0286070D01*
X0445555Y0288178D01*
X0442473Y0289300D01*
X0439193Y0289300D01*
X0436112Y0288178D01*
X0436112Y0288178D01*
X0433599Y0286070D01*
X0431959Y0283230D01*
X0431390Y0280000D01*
X0431959Y0276770D01*
X0433599Y0273930D01*
X0436112Y0271822D01*
X0439193Y0270700D01*
X0440005Y0270700D01*
X0442473Y0270700D01*
X0445555Y0271822D01*
X0445884Y0272098D02*
X0496233Y0272098D01*
X0496233Y0272896D02*
X0446836Y0272896D01*
X0447787Y0273695D02*
X0496233Y0273695D01*
X0496233Y0274493D02*
X0448393Y0274493D01*
X0448067Y0273930D02*
X0448067Y0273930D01*
X0448067Y0273930D01*
X0448854Y0275292D02*
X0496233Y0275292D01*
X0496233Y0276090D02*
X0449315Y0276090D01*
X0449728Y0276889D02*
X0496233Y0276889D01*
X0496233Y0277687D02*
X0449869Y0277687D01*
X0450010Y0278486D02*
X0496233Y0278486D01*
X0496233Y0279284D02*
X0450151Y0279284D01*
X0450262Y0280083D02*
X0496233Y0280083D01*
X0496233Y0280881D02*
X0450121Y0280881D01*
X0449981Y0281680D02*
X0496233Y0281680D01*
X0496233Y0282478D02*
X0449840Y0282478D01*
X0449680Y0283277D02*
X0496233Y0283277D01*
X0496233Y0284075D02*
X0449219Y0284075D01*
X0448758Y0284874D02*
X0496233Y0284874D01*
X0496233Y0285672D02*
X0448297Y0285672D01*
X0448067Y0286070D02*
X0448067Y0286070D01*
X0447590Y0286471D02*
X0496233Y0286471D01*
X0496233Y0287270D02*
X0446638Y0287270D01*
X0445686Y0288068D02*
X0496233Y0288068D01*
X0496233Y0288867D02*
X0443664Y0288867D01*
X0445555Y0288178D02*
X0445555Y0288178D01*
X0438003Y0288867D02*
X0427577Y0288867D01*
X0427718Y0289665D02*
X0496233Y0289665D01*
X0496233Y0290464D02*
X0427695Y0290464D01*
X0427777Y0290000D02*
X0427207Y0293230D01*
X0425567Y0296070D01*
X0423055Y0298178D01*
X0419973Y0299300D01*
X0416693Y0299300D01*
X0413612Y0298178D01*
X0413612Y0298178D01*
X0411099Y0296070D01*
X0409459Y0293230D01*
X0408890Y0290000D01*
X0409459Y0286770D01*
X0411099Y0283930D01*
X0413612Y0281822D01*
X0416693Y0280700D01*
X0419162Y0280700D01*
X0419973Y0280700D01*
X0419973Y0280700D01*
X0423055Y0281822D01*
X0425567Y0283930D01*
X0427207Y0286770D01*
X0427207Y0286770D01*
X0427777Y0290000D01*
X0427777Y0290000D01*
X0427554Y0291262D02*
X0496233Y0291262D01*
X0496233Y0292061D02*
X0427413Y0292061D01*
X0427273Y0292859D02*
X0496233Y0292859D01*
X0496233Y0293658D02*
X0426960Y0293658D01*
X0427207Y0293230D02*
X0427207Y0293230D01*
X0426499Y0294456D02*
X0496233Y0294456D01*
X0496233Y0295255D02*
X0426038Y0295255D01*
X0425577Y0296053D02*
X0496233Y0296053D01*
X0496233Y0296852D02*
X0424636Y0296852D01*
X0425567Y0296070D02*
X0425567Y0296070D01*
X0423684Y0297650D02*
X0496233Y0297650D01*
X0496233Y0298449D02*
X0422312Y0298449D01*
X0423055Y0298178D02*
X0423055Y0298178D01*
X0420118Y0299247D02*
X0496233Y0299247D01*
X0496233Y0300046D02*
X0210433Y0300046D01*
X0210433Y0300844D02*
X0496233Y0300844D01*
X0496233Y0301643D02*
X0210433Y0301643D01*
X0210433Y0302441D02*
X0496233Y0302441D01*
X0496233Y0303240D02*
X0210433Y0303240D01*
X0210433Y0304038D02*
X0496233Y0304038D01*
X0496233Y0304837D02*
X0210433Y0304837D01*
X0210433Y0305635D02*
X0496233Y0305635D01*
X0496233Y0306434D02*
X0210433Y0306434D01*
X0210433Y0307232D02*
X0404545Y0307232D01*
X0404106Y0307414D02*
X0405227Y0306950D01*
X0406440Y0306950D01*
X0407561Y0307414D01*
X0408419Y0308272D01*
X0408883Y0309393D01*
X0408883Y0310607D01*
X0408419Y0311728D01*
X0407561Y0312586D01*
X0406440Y0313050D01*
X0405541Y0313050D01*
X0235283Y0483308D01*
X0235283Y0498050D01*
X0265026Y0498050D01*
X0267365Y0495710D01*
X0267172Y0495517D01*
X0266719Y0494424D01*
X0266266Y0495517D01*
X0265110Y0496673D01*
X0263600Y0497299D01*
X0261965Y0497299D01*
X0260454Y0496673D01*
X0259298Y0495517D01*
X0258845Y0494424D01*
X0258392Y0495517D01*
X0257236Y0496673D01*
X0255726Y0497299D01*
X0254091Y0497299D01*
X0252580Y0496673D01*
X0251424Y0495517D01*
X0250971Y0494424D01*
X0250518Y0495517D01*
X0249362Y0496673D01*
X0247852Y0497299D01*
X0246217Y0497299D01*
X0244706Y0496673D01*
X0243550Y0495517D01*
X0242924Y0494006D01*
X0242924Y0492371D01*
X0243550Y0490861D01*
X0244706Y0489705D01*
X0245799Y0489252D01*
X0244706Y0488799D01*
X0243550Y0487643D01*
X0242924Y0486132D01*
X0242924Y0484497D01*
X0243550Y0482987D01*
X0244706Y0481831D01*
X0246217Y0481205D01*
X0246305Y0481205D01*
X0252360Y0475150D01*
X0312360Y0475150D01*
X0359860Y0427650D01*
X0478870Y0427650D01*
X0479106Y0427414D01*
X0480227Y0426950D01*
X0481440Y0426950D01*
X0482561Y0427414D01*
X0483419Y0428272D01*
X0483883Y0429393D01*
X0483883Y0430607D01*
X0483419Y0431728D01*
X0482561Y0432586D01*
X0481440Y0433050D01*
X0480227Y0433050D01*
X0479106Y0432586D01*
X0478870Y0432350D01*
X0475941Y0432350D01*
X0490541Y0446950D01*
X0491440Y0446950D01*
X0492561Y0447414D01*
X0493419Y0448272D01*
X0493883Y0449393D01*
X0493883Y0450607D01*
X0493419Y0451728D01*
X0492561Y0452586D01*
X0491440Y0453050D01*
X0490227Y0453050D01*
X0489106Y0452586D01*
X0488248Y0451728D01*
X0487783Y0450607D01*
X0487783Y0449708D01*
X0473824Y0435749D01*
X0473419Y0436728D01*
X0472561Y0437586D01*
X0471440Y0438050D01*
X0470541Y0438050D01*
X0427386Y0481205D01*
X0428954Y0481205D01*
X0430465Y0481831D01*
X0431621Y0482987D01*
X0432073Y0484080D01*
X0432526Y0482987D01*
X0433682Y0481831D01*
X0435193Y0481205D01*
X0436828Y0481205D01*
X0438339Y0481831D01*
X0439495Y0482987D01*
X0439947Y0484080D01*
X0440400Y0482987D01*
X0441556Y0481831D01*
X0443067Y0481205D01*
X0444702Y0481205D01*
X0446213Y0481831D01*
X0447369Y0482987D01*
X0447822Y0484080D01*
X0448274Y0482987D01*
X0449430Y0481831D01*
X0450941Y0481205D01*
X0452576Y0481205D01*
X0454087Y0481831D01*
X0455243Y0482987D01*
X0455696Y0484080D01*
X0456148Y0482987D01*
X0457305Y0481831D01*
X0458815Y0481205D01*
X0460450Y0481205D01*
X0461961Y0481831D01*
X0463117Y0482987D01*
X0463488Y0483883D01*
X0464022Y0482593D01*
X0465179Y0481437D01*
X0466689Y0480811D01*
X0468324Y0480811D01*
X0469835Y0481437D01*
X0470733Y0482336D01*
X0470733Y0476983D01*
X0471129Y0476027D01*
X0471861Y0475296D01*
X0472816Y0474900D01*
X0476640Y0474900D01*
X0477727Y0474450D01*
X0478940Y0474450D01*
X0480061Y0474914D01*
X0480919Y0475772D01*
X0481383Y0476893D01*
X0481383Y0478107D01*
X0480919Y0479228D01*
X0480061Y0480086D01*
X0478940Y0480550D01*
X0477727Y0480550D01*
X0476640Y0480100D01*
X0475933Y0480100D01*
X0475933Y0495517D01*
X0475537Y0496473D01*
X0474806Y0497204D01*
X0469806Y0502204D01*
X0468851Y0502600D01*
X0452816Y0502600D01*
X0451861Y0502204D01*
X0451129Y0501473D01*
X0450733Y0500517D01*
X0450733Y0497213D01*
X0449430Y0496673D01*
X0448274Y0495517D01*
X0447822Y0494424D01*
X0447369Y0495517D01*
X0446213Y0496673D01*
X0444702Y0497299D01*
X0443067Y0497299D01*
X0441556Y0496673D01*
X0440400Y0495517D01*
X0439947Y0494424D01*
X0439495Y0495517D01*
X0438339Y0496673D01*
X0436828Y0497299D01*
X0435193Y0497299D01*
X0433682Y0496673D01*
X0432526Y0495517D01*
X0432073Y0494424D01*
X0431621Y0495517D01*
X0430465Y0496673D01*
X0428954Y0497299D01*
X0427319Y0497299D01*
X0425808Y0496673D01*
X0424652Y0495517D01*
X0424199Y0494424D01*
X0423747Y0495517D01*
X0422590Y0496673D01*
X0421080Y0497299D01*
X0419445Y0497299D01*
X0417934Y0496673D01*
X0416778Y0495517D01*
X0416325Y0494424D01*
X0415873Y0495517D01*
X0414716Y0496673D01*
X0413206Y0497299D01*
X0411571Y0497299D01*
X0410060Y0496673D01*
X0408904Y0495517D01*
X0408451Y0494424D01*
X0407999Y0495517D01*
X0406842Y0496673D01*
X0405332Y0497299D01*
X0403697Y0497299D01*
X0402186Y0496673D01*
X0401030Y0495517D01*
X0400577Y0494424D01*
X0400125Y0495517D01*
X0398968Y0496673D01*
X0397458Y0497299D01*
X0395823Y0497299D01*
X0394312Y0496673D01*
X0393156Y0495517D01*
X0392703Y0494424D01*
X0392251Y0495517D01*
X0391094Y0496673D01*
X0389584Y0497299D01*
X0387949Y0497299D01*
X0386438Y0496673D01*
X0385282Y0495517D01*
X0384829Y0494424D01*
X0384377Y0495517D01*
X0383220Y0496673D01*
X0381710Y0497299D01*
X0380075Y0497299D01*
X0378564Y0496673D01*
X0377408Y0495517D01*
X0376955Y0494424D01*
X0376503Y0495517D01*
X0375346Y0496673D01*
X0373836Y0497299D01*
X0372201Y0497299D01*
X0370690Y0496673D01*
X0369534Y0495517D01*
X0369081Y0494424D01*
X0368628Y0495517D01*
X0367472Y0496673D01*
X0365962Y0497299D01*
X0364327Y0497299D01*
X0362816Y0496673D01*
X0361660Y0495517D01*
X0361207Y0494424D01*
X0360754Y0495517D01*
X0359598Y0496673D01*
X0358088Y0497299D01*
X0356453Y0497299D01*
X0354942Y0496673D01*
X0353786Y0495517D01*
X0353333Y0494424D01*
X0352880Y0495517D01*
X0351724Y0496673D01*
X0350214Y0497299D01*
X0348579Y0497299D01*
X0347068Y0496673D01*
X0345912Y0495517D01*
X0345459Y0494424D01*
X0345006Y0495517D01*
X0343850Y0496673D01*
X0342340Y0497299D01*
X0340705Y0497299D01*
X0339194Y0496673D01*
X0338038Y0495517D01*
X0337585Y0494424D01*
X0337132Y0495517D01*
X0335976Y0496673D01*
X0334466Y0497299D01*
X0332831Y0497299D01*
X0331320Y0496673D01*
X0330164Y0495517D01*
X0329711Y0494424D01*
X0329258Y0495517D01*
X0328102Y0496673D01*
X0326592Y0497299D01*
X0324957Y0497299D01*
X0323446Y0496673D01*
X0322290Y0495517D01*
X0321837Y0494424D01*
X0321384Y0495517D01*
X0320228Y0496673D01*
X0318718Y0497299D01*
X0317083Y0497299D01*
X0315572Y0496673D01*
X0314416Y0495517D01*
X0313963Y0494424D01*
X0313510Y0495517D01*
X0312354Y0496673D01*
X0310844Y0497299D01*
X0309209Y0497299D01*
X0307698Y0496673D01*
X0306542Y0495517D01*
X0306089Y0494424D01*
X0305636Y0495517D01*
X0304480Y0496673D01*
X0302970Y0497299D01*
X0301335Y0497299D01*
X0299824Y0496673D01*
X0298668Y0495517D01*
X0298215Y0494424D01*
X0297762Y0495517D01*
X0296606Y0496673D01*
X0295096Y0497299D01*
X0293461Y0497299D01*
X0291950Y0496673D01*
X0290794Y0495517D01*
X0290341Y0494424D01*
X0289888Y0495517D01*
X0288732Y0496673D01*
X0287222Y0497299D01*
X0285587Y0497299D01*
X0284076Y0496673D01*
X0282920Y0495517D01*
X0282467Y0494424D01*
X0282014Y0495517D01*
X0280858Y0496673D01*
X0279348Y0497299D01*
X0277713Y0497299D01*
X0276202Y0496673D01*
X0275046Y0495517D01*
X0274593Y0494424D01*
X0274140Y0495517D01*
X0272984Y0496673D01*
X0271474Y0497299D01*
X0271292Y0497299D01*
X0266641Y0501950D01*
X0232526Y0501950D01*
X0231383Y0500808D01*
X0231383Y0481692D01*
X0232526Y0480550D01*
X0402783Y0310292D01*
X0402783Y0309393D01*
X0403248Y0308272D01*
X0404106Y0307414D01*
X0403489Y0308031D02*
X0210433Y0308031D01*
X0210433Y0308829D02*
X0403017Y0308829D01*
X0402783Y0309628D02*
X0210433Y0309628D01*
X0210433Y0310426D02*
X0402649Y0310426D01*
X0401851Y0311225D02*
X0210433Y0311225D01*
X0210433Y0312023D02*
X0401052Y0312023D01*
X0400254Y0312822D02*
X0210433Y0312822D01*
X0210433Y0313620D02*
X0399455Y0313620D01*
X0398657Y0314419D02*
X0210433Y0314419D01*
X0210433Y0315217D02*
X0397858Y0315217D01*
X0397060Y0316016D02*
X0210433Y0316016D01*
X0210433Y0316814D02*
X0396261Y0316814D01*
X0395463Y0317613D02*
X0210433Y0317613D01*
X0210433Y0318411D02*
X0394664Y0318411D01*
X0393866Y0319210D02*
X0210433Y0319210D01*
X0210433Y0320008D02*
X0393067Y0320008D01*
X0392269Y0320807D02*
X0210433Y0320807D01*
X0210433Y0321605D02*
X0391470Y0321605D01*
X0390672Y0322404D02*
X0210433Y0322404D01*
X0210433Y0323203D02*
X0389873Y0323203D01*
X0389075Y0324001D02*
X0210433Y0324001D01*
X0210433Y0324800D02*
X0388276Y0324800D01*
X0387478Y0325598D02*
X0210433Y0325598D01*
X0210433Y0326397D02*
X0386679Y0326397D01*
X0385881Y0327195D02*
X0210433Y0327195D01*
X0210433Y0327994D02*
X0385082Y0327994D01*
X0384284Y0328792D02*
X0210433Y0328792D01*
X0210433Y0329591D02*
X0383485Y0329591D01*
X0382686Y0330389D02*
X0210433Y0330389D01*
X0210433Y0331188D02*
X0381888Y0331188D01*
X0381089Y0331986D02*
X0210433Y0331986D01*
X0210433Y0332785D02*
X0380291Y0332785D01*
X0379492Y0333583D02*
X0210433Y0333583D01*
X0210433Y0334382D02*
X0378694Y0334382D01*
X0377895Y0335180D02*
X0210433Y0335180D01*
X0210433Y0335979D02*
X0377097Y0335979D01*
X0376298Y0336777D02*
X0210433Y0336777D01*
X0210433Y0337576D02*
X0375500Y0337576D01*
X0374701Y0338374D02*
X0210433Y0338374D01*
X0210433Y0339173D02*
X0373903Y0339173D01*
X0373104Y0339971D02*
X0210433Y0339971D01*
X0210433Y0340770D02*
X0372306Y0340770D01*
X0371507Y0341568D02*
X0210433Y0341568D01*
X0210433Y0342367D02*
X0370709Y0342367D01*
X0369910Y0343165D02*
X0210433Y0343165D01*
X0210433Y0343964D02*
X0369112Y0343964D01*
X0368313Y0344762D02*
X0210433Y0344762D01*
X0210433Y0345561D02*
X0367515Y0345561D01*
X0366716Y0346359D02*
X0210433Y0346359D01*
X0210433Y0347158D02*
X0365918Y0347158D01*
X0365119Y0347956D02*
X0210433Y0347956D01*
X0210433Y0348755D02*
X0364321Y0348755D01*
X0363522Y0349553D02*
X0210433Y0349553D01*
X0210433Y0350352D02*
X0362724Y0350352D01*
X0361925Y0351150D02*
X0210433Y0351150D01*
X0210433Y0351949D02*
X0361127Y0351949D01*
X0360328Y0352747D02*
X0210433Y0352747D01*
X0210433Y0353546D02*
X0359530Y0353546D01*
X0358731Y0354344D02*
X0210433Y0354344D01*
X0210433Y0355143D02*
X0357933Y0355143D01*
X0357134Y0355941D02*
X0210433Y0355941D01*
X0210433Y0356740D02*
X0356336Y0356740D01*
X0355537Y0357539D02*
X0210433Y0357539D01*
X0210433Y0358337D02*
X0354739Y0358337D01*
X0353940Y0359136D02*
X0210433Y0359136D01*
X0210433Y0359934D02*
X0353142Y0359934D01*
X0352343Y0360733D02*
X0210433Y0360733D01*
X0210433Y0361531D02*
X0351545Y0361531D01*
X0350746Y0362330D02*
X0210433Y0362330D01*
X0210433Y0363128D02*
X0349948Y0363128D01*
X0349149Y0363927D02*
X0210433Y0363927D01*
X0210433Y0364725D02*
X0348350Y0364725D01*
X0347552Y0365524D02*
X0210433Y0365524D01*
X0210433Y0366322D02*
X0346753Y0366322D01*
X0345955Y0367121D02*
X0210433Y0367121D01*
X0210433Y0367919D02*
X0345156Y0367919D01*
X0344358Y0368718D02*
X0210433Y0368718D01*
X0210433Y0369516D02*
X0343559Y0369516D01*
X0342761Y0370315D02*
X0210433Y0370315D01*
X0210433Y0371113D02*
X0341962Y0371113D01*
X0341164Y0371912D02*
X0210433Y0371912D01*
X0210433Y0372710D02*
X0340365Y0372710D01*
X0339567Y0373509D02*
X0210433Y0373509D01*
X0210433Y0374307D02*
X0338768Y0374307D01*
X0337970Y0375106D02*
X0210433Y0375106D01*
X0210433Y0375904D02*
X0337171Y0375904D01*
X0336373Y0376703D02*
X0210433Y0376703D01*
X0210433Y0377501D02*
X0335574Y0377501D01*
X0334776Y0378300D02*
X0210433Y0378300D01*
X0210433Y0379098D02*
X0333977Y0379098D01*
X0333179Y0379897D02*
X0210433Y0379897D01*
X0210433Y0380695D02*
X0332380Y0380695D01*
X0331582Y0381494D02*
X0210433Y0381494D01*
X0210433Y0382292D02*
X0330783Y0382292D01*
X0329985Y0383091D02*
X0210433Y0383091D01*
X0210433Y0383889D02*
X0329186Y0383889D01*
X0328388Y0384688D02*
X0210433Y0384688D01*
X0210433Y0385486D02*
X0327589Y0385486D01*
X0326791Y0386285D02*
X0210433Y0386285D01*
X0210433Y0387083D02*
X0325992Y0387083D01*
X0325194Y0387882D02*
X0210433Y0387882D01*
X0210433Y0388680D02*
X0324395Y0388680D01*
X0323597Y0389479D02*
X0210433Y0389479D01*
X0210433Y0390277D02*
X0322798Y0390277D01*
X0322000Y0391076D02*
X0281006Y0391076D01*
X0279973Y0390700D02*
X0283055Y0391822D01*
X0285567Y0393930D01*
X0287207Y0396770D01*
X0287207Y0396770D01*
X0287777Y0400000D01*
X0287207Y0403230D01*
X0285567Y0406070D01*
X0283055Y0408178D01*
X0279973Y0409300D01*
X0276693Y0409300D01*
X0273612Y0408178D01*
X0273612Y0408178D01*
X0271099Y0406070D01*
X0269459Y0403230D01*
X0268890Y0400000D01*
X0269459Y0396770D01*
X0271099Y0393930D01*
X0273612Y0391822D01*
X0276693Y0390700D01*
X0277505Y0390700D01*
X0279973Y0390700D01*
X0283118Y0391874D02*
X0321201Y0391874D01*
X0320403Y0392673D02*
X0284070Y0392673D01*
X0285021Y0393472D02*
X0319604Y0393472D01*
X0318806Y0394270D02*
X0285764Y0394270D01*
X0285567Y0393930D02*
X0285567Y0393930D01*
X0285567Y0393930D01*
X0286225Y0395069D02*
X0318007Y0395069D01*
X0317209Y0395867D02*
X0286686Y0395867D01*
X0287147Y0396666D02*
X0316410Y0396666D01*
X0315612Y0397464D02*
X0287330Y0397464D01*
X0287470Y0398263D02*
X0314813Y0398263D01*
X0314015Y0399061D02*
X0287611Y0399061D01*
X0287752Y0399860D02*
X0313216Y0399860D01*
X0312417Y0400658D02*
X0287661Y0400658D01*
X0287777Y0400000D02*
X0287777Y0400000D01*
X0287520Y0401457D02*
X0311619Y0401457D01*
X0310820Y0402255D02*
X0287379Y0402255D01*
X0287238Y0403054D02*
X0310022Y0403054D01*
X0309223Y0403852D02*
X0286848Y0403852D01*
X0287207Y0403230D02*
X0287207Y0403230D01*
X0286387Y0404651D02*
X0308425Y0404651D01*
X0307626Y0405449D02*
X0285926Y0405449D01*
X0285567Y0406070D02*
X0285567Y0406070D01*
X0285356Y0406248D02*
X0306828Y0406248D01*
X0306029Y0407046D02*
X0284404Y0407046D01*
X0283453Y0407845D02*
X0305231Y0407845D01*
X0304432Y0408643D02*
X0281778Y0408643D01*
X0283055Y0408178D02*
X0283055Y0408178D01*
X0274889Y0408643D02*
X0265038Y0408643D01*
X0264897Y0407845D02*
X0273214Y0407845D01*
X0272262Y0407046D02*
X0264756Y0407046D01*
X0264707Y0406770D02*
X0265277Y0410000D01*
X0264707Y0413230D01*
X0263067Y0416070D01*
X0260555Y0418178D01*
X0257473Y0419300D01*
X0254193Y0419300D01*
X0251112Y0418178D01*
X0251112Y0418178D01*
X0248599Y0416070D01*
X0246959Y0413230D01*
X0246390Y0410000D01*
X0246959Y0406770D01*
X0248599Y0403930D01*
X0251112Y0401822D01*
X0254193Y0400700D01*
X0256662Y0400700D01*
X0257473Y0400700D01*
X0257473Y0400700D01*
X0260555Y0401822D01*
X0263067Y0403930D01*
X0264707Y0406770D01*
X0264707Y0406770D01*
X0264406Y0406248D02*
X0271311Y0406248D01*
X0271099Y0406070D02*
X0271099Y0406070D01*
X0271099Y0406070D01*
X0270741Y0405449D02*
X0263945Y0405449D01*
X0263484Y0404651D02*
X0270280Y0404651D01*
X0269819Y0403852D02*
X0262975Y0403852D01*
X0263067Y0403930D02*
X0263067Y0403930D01*
X0263067Y0403930D01*
X0262023Y0403054D02*
X0269428Y0403054D01*
X0269459Y0403230D02*
X0269459Y0403230D01*
X0269288Y0402255D02*
X0261072Y0402255D01*
X0260555Y0401822D02*
X0260555Y0401822D01*
X0259552Y0401457D02*
X0269147Y0401457D01*
X0269006Y0400658D02*
X0210433Y0400658D01*
X0210433Y0399860D02*
X0268915Y0399860D01*
X0268890Y0400000D02*
X0268890Y0400000D01*
X0269055Y0399061D02*
X0210433Y0399061D01*
X0210433Y0398263D02*
X0269196Y0398263D01*
X0269337Y0397464D02*
X0210433Y0397464D01*
X0210433Y0396666D02*
X0269520Y0396666D01*
X0269459Y0396770D02*
X0269459Y0396770D01*
X0269981Y0395867D02*
X0210433Y0395867D01*
X0210433Y0395069D02*
X0270442Y0395069D01*
X0270903Y0394270D02*
X0210433Y0394270D01*
X0210433Y0393472D02*
X0271645Y0393472D01*
X0271099Y0393930D02*
X0271099Y0393930D01*
X0272597Y0392673D02*
X0210433Y0392673D01*
X0210433Y0391874D02*
X0273549Y0391874D01*
X0273612Y0391822D02*
X0273612Y0391822D01*
X0275660Y0391076D02*
X0210433Y0391076D01*
X0210433Y0401457D02*
X0252115Y0401457D01*
X0251112Y0401822D02*
X0251112Y0401822D01*
X0250595Y0402255D02*
X0210433Y0402255D01*
X0210433Y0403054D02*
X0249643Y0403054D01*
X0248692Y0403852D02*
X0210433Y0403852D01*
X0210433Y0404651D02*
X0248183Y0404651D01*
X0248599Y0403930D02*
X0248599Y0403930D01*
X0247722Y0405449D02*
X0210433Y0405449D01*
X0210433Y0406248D02*
X0247261Y0406248D01*
X0246959Y0406770D02*
X0246959Y0406770D01*
X0246911Y0407046D02*
X0210433Y0407046D01*
X0210433Y0407845D02*
X0246770Y0407845D01*
X0246629Y0408643D02*
X0210433Y0408643D01*
X0210433Y0409442D02*
X0246488Y0409442D01*
X0246390Y0410000D02*
X0246390Y0410000D01*
X0246432Y0410240D02*
X0210433Y0410240D01*
X0210433Y0411039D02*
X0246573Y0411039D01*
X0246714Y0411837D02*
X0210433Y0411837D01*
X0210433Y0412636D02*
X0246855Y0412636D01*
X0246959Y0413230D02*
X0246959Y0413230D01*
X0247077Y0413434D02*
X0210433Y0413434D01*
X0210433Y0414233D02*
X0247538Y0414233D01*
X0247999Y0415031D02*
X0210433Y0415031D01*
X0210433Y0415830D02*
X0248460Y0415830D01*
X0248599Y0416070D02*
X0248599Y0416070D01*
X0248599Y0416070D01*
X0249264Y0416628D02*
X0210433Y0416628D01*
X0210433Y0417427D02*
X0250216Y0417427D01*
X0251241Y0418225D02*
X0210433Y0418225D01*
X0210433Y0419024D02*
X0253435Y0419024D01*
X0258232Y0419024D02*
X0294052Y0419024D01*
X0294850Y0418225D02*
X0260426Y0418225D01*
X0260555Y0418178D02*
X0260555Y0418178D01*
X0261451Y0417427D02*
X0295649Y0417427D01*
X0296447Y0416628D02*
X0262402Y0416628D01*
X0263067Y0416070D02*
X0263067Y0416070D01*
X0263206Y0415830D02*
X0297246Y0415830D01*
X0298044Y0415031D02*
X0263667Y0415031D01*
X0264128Y0414233D02*
X0298843Y0414233D01*
X0299641Y0413434D02*
X0264589Y0413434D01*
X0264707Y0413230D02*
X0264707Y0413230D01*
X0264812Y0412636D02*
X0300440Y0412636D01*
X0301238Y0411837D02*
X0264953Y0411837D01*
X0265094Y0411039D02*
X0302037Y0411039D01*
X0302835Y0410240D02*
X0265234Y0410240D01*
X0265277Y0410000D02*
X0265277Y0410000D01*
X0265178Y0409442D02*
X0303634Y0409442D01*
X0306754Y0411837D02*
X0431714Y0411837D01*
X0431573Y0411039D02*
X0307552Y0411039D01*
X0308351Y0410240D02*
X0352135Y0410240D01*
X0352279Y0410300D02*
X0350331Y0409493D01*
X0348840Y0408002D01*
X0348213Y0406487D01*
X0348060Y0406958D01*
X0347695Y0407673D01*
X0347223Y0408322D01*
X0346656Y0408890D01*
X0346006Y0409362D01*
X0345291Y0409726D01*
X0344528Y0409974D01*
X0343735Y0410100D01*
X0343733Y0410100D01*
X0343733Y0405400D01*
X0342933Y0405400D01*
X0342933Y0404600D01*
X0338233Y0404600D01*
X0338233Y0404599D01*
X0338359Y0403806D01*
X0338607Y0403042D01*
X0338971Y0402327D01*
X0339443Y0401678D01*
X0340011Y0401110D01*
X0340660Y0400638D01*
X0341376Y0400274D01*
X0342139Y0400026D01*
X0342932Y0399900D01*
X0342933Y0399900D01*
X0342933Y0404600D01*
X0343733Y0404600D01*
X0343733Y0399900D01*
X0343735Y0399900D01*
X0344528Y0400026D01*
X0345291Y0400274D01*
X0346006Y0400638D01*
X0346656Y0401110D01*
X0347223Y0401678D01*
X0347695Y0402327D01*
X0348060Y0403042D01*
X0348213Y0403513D01*
X0348840Y0401998D01*
X0350331Y0400507D01*
X0352279Y0399700D01*
X0354388Y0399700D01*
X0356336Y0400507D01*
X0357826Y0401998D01*
X0358333Y0403222D01*
X0358840Y0401998D01*
X0360331Y0400507D01*
X0362279Y0399700D01*
X0364388Y0399700D01*
X0366336Y0400507D01*
X0367826Y0401998D01*
X0368333Y0403222D01*
X0368840Y0401998D01*
X0370331Y0400507D01*
X0372279Y0399700D01*
X0374388Y0399700D01*
X0376336Y0400507D01*
X0377826Y0401998D01*
X0378333Y0403222D01*
X0378840Y0401998D01*
X0380331Y0400507D01*
X0382279Y0399700D01*
X0384388Y0399700D01*
X0386336Y0400507D01*
X0387826Y0401998D01*
X0388333Y0403222D01*
X0388840Y0401998D01*
X0390331Y0400507D01*
X0392279Y0399700D01*
X0394388Y0399700D01*
X0396336Y0400507D01*
X0397826Y0401998D01*
X0398333Y0403222D01*
X0398840Y0401998D01*
X0400331Y0400507D01*
X0402279Y0399700D01*
X0404388Y0399700D01*
X0406336Y0400507D01*
X0407826Y0401998D01*
X0408633Y0403946D01*
X0408633Y0406054D01*
X0407826Y0408002D01*
X0406336Y0409493D01*
X0404388Y0410300D01*
X0402279Y0410300D01*
X0400331Y0409493D01*
X0398840Y0408002D01*
X0398333Y0406778D01*
X0397826Y0408002D01*
X0396336Y0409493D01*
X0394388Y0410300D01*
X0392279Y0410300D01*
X0390331Y0409493D01*
X0388840Y0408002D01*
X0388333Y0406778D01*
X0387826Y0408002D01*
X0386336Y0409493D01*
X0384388Y0410300D01*
X0382279Y0410300D01*
X0380331Y0409493D01*
X0378840Y0408002D01*
X0378333Y0406778D01*
X0377826Y0408002D01*
X0376336Y0409493D01*
X0374388Y0410300D01*
X0372279Y0410300D01*
X0370331Y0409493D01*
X0368840Y0408002D01*
X0368333Y0406778D01*
X0367826Y0408002D01*
X0366336Y0409493D01*
X0364388Y0410300D01*
X0362279Y0410300D01*
X0360331Y0409493D01*
X0358840Y0408002D01*
X0358333Y0406778D01*
X0357826Y0408002D01*
X0356336Y0409493D01*
X0354388Y0410300D01*
X0352279Y0410300D01*
X0350280Y0409442D02*
X0345850Y0409442D01*
X0346903Y0408643D02*
X0349481Y0408643D01*
X0348775Y0407845D02*
X0347570Y0407845D01*
X0348015Y0407046D02*
X0348444Y0407046D01*
X0348403Y0403054D02*
X0348063Y0403054D01*
X0347643Y0402255D02*
X0348734Y0402255D01*
X0349381Y0401457D02*
X0347002Y0401457D01*
X0346034Y0400658D02*
X0350180Y0400658D01*
X0351894Y0399860D02*
X0318731Y0399860D01*
X0317933Y0400658D02*
X0340633Y0400658D01*
X0339664Y0401457D02*
X0317134Y0401457D01*
X0316336Y0402255D02*
X0339024Y0402255D01*
X0338603Y0403054D02*
X0315537Y0403054D01*
X0314739Y0403852D02*
X0338352Y0403852D01*
X0338233Y0405400D02*
X0342933Y0405400D01*
X0342933Y0410100D01*
X0342932Y0410100D01*
X0342139Y0409974D01*
X0341376Y0409726D01*
X0340660Y0409362D01*
X0340011Y0408890D01*
X0339443Y0408322D01*
X0338971Y0407673D01*
X0338607Y0406958D01*
X0338359Y0406194D01*
X0338233Y0405401D01*
X0338233Y0405400D01*
X0338241Y0405449D02*
X0313142Y0405449D01*
X0313940Y0404651D02*
X0342933Y0404651D01*
X0342933Y0405449D02*
X0343733Y0405449D01*
X0343733Y0406248D02*
X0342933Y0406248D01*
X0342933Y0407046D02*
X0343733Y0407046D01*
X0343733Y0407845D02*
X0342933Y0407845D01*
X0342933Y0408643D02*
X0343733Y0408643D01*
X0343733Y0409442D02*
X0342933Y0409442D01*
X0340817Y0409442D02*
X0309149Y0409442D01*
X0309948Y0408643D02*
X0339764Y0408643D01*
X0339096Y0407845D02*
X0310746Y0407845D01*
X0311545Y0407046D02*
X0338652Y0407046D01*
X0338376Y0406248D02*
X0312343Y0406248D01*
X0305955Y0412636D02*
X0431855Y0412636D01*
X0431959Y0413230D02*
X0431390Y0410000D01*
X0431959Y0406770D01*
X0433599Y0403930D01*
X0436112Y0401822D01*
X0439193Y0400700D01*
X0440005Y0400700D01*
X0442473Y0400700D01*
X0445555Y0401822D01*
X0448067Y0403930D01*
X0449707Y0406770D01*
X0449707Y0406770D01*
X0450277Y0410000D01*
X0449707Y0413230D01*
X0448067Y0416070D01*
X0445555Y0418178D01*
X0442473Y0419300D01*
X0439193Y0419300D01*
X0436112Y0418178D01*
X0436112Y0418178D01*
X0433599Y0416070D01*
X0431959Y0413230D01*
X0432077Y0413434D02*
X0305157Y0413434D01*
X0304358Y0414233D02*
X0432538Y0414233D01*
X0432999Y0415031D02*
X0303560Y0415031D01*
X0302761Y0415830D02*
X0433460Y0415830D01*
X0433599Y0416070D02*
X0433599Y0416070D01*
X0433599Y0416070D01*
X0434264Y0416628D02*
X0301963Y0416628D01*
X0301164Y0417427D02*
X0435216Y0417427D01*
X0436241Y0418225D02*
X0300366Y0418225D01*
X0299567Y0419024D02*
X0438435Y0419024D01*
X0443232Y0419024D02*
X0496233Y0419024D01*
X0496233Y0419822D02*
X0298769Y0419822D01*
X0297970Y0420621D02*
X0345181Y0420621D01*
X0344311Y0420981D02*
X0346921Y0419900D01*
X0349746Y0419900D01*
X0352355Y0420981D01*
X0354352Y0422978D01*
X0355433Y0425588D01*
X0355433Y0428412D01*
X0354352Y0431022D01*
X0352355Y0433019D01*
X0349746Y0434100D01*
X0346921Y0434100D01*
X0344311Y0433019D01*
X0342314Y0431022D01*
X0341233Y0428412D01*
X0341233Y0425588D01*
X0342314Y0422978D01*
X0344311Y0420981D01*
X0343873Y0421419D02*
X0297172Y0421419D01*
X0296373Y0422218D02*
X0343074Y0422218D01*
X0342298Y0423016D02*
X0295575Y0423016D01*
X0294776Y0423815D02*
X0341968Y0423815D01*
X0341637Y0424613D02*
X0293978Y0424613D01*
X0293179Y0425412D02*
X0341306Y0425412D01*
X0341233Y0426210D02*
X0292381Y0426210D01*
X0291582Y0427009D02*
X0341233Y0427009D01*
X0341233Y0427808D02*
X0290784Y0427808D01*
X0289985Y0428606D02*
X0341314Y0428606D01*
X0341644Y0429405D02*
X0289187Y0429405D01*
X0288388Y0430203D02*
X0341975Y0430203D01*
X0342306Y0431002D02*
X0287589Y0431002D01*
X0286791Y0431800D02*
X0343092Y0431800D01*
X0343891Y0432599D02*
X0285992Y0432599D01*
X0285194Y0433397D02*
X0345224Y0433397D01*
X0351443Y0433397D02*
X0354113Y0433397D01*
X0354911Y0432599D02*
X0352776Y0432599D01*
X0353574Y0431800D02*
X0355710Y0431800D01*
X0356508Y0431002D02*
X0354361Y0431002D01*
X0354692Y0430203D02*
X0357307Y0430203D01*
X0358105Y0429405D02*
X0355022Y0429405D01*
X0355353Y0428606D02*
X0358904Y0428606D01*
X0359702Y0427808D02*
X0355433Y0427808D01*
X0355433Y0427009D02*
X0480084Y0427009D01*
X0481582Y0427009D02*
X0496233Y0427009D01*
X0496233Y0427808D02*
X0482954Y0427808D01*
X0483557Y0428606D02*
X0496233Y0428606D01*
X0496233Y0429405D02*
X0483883Y0429405D01*
X0483883Y0430203D02*
X0496233Y0430203D01*
X0496233Y0431002D02*
X0483720Y0431002D01*
X0483347Y0431800D02*
X0496233Y0431800D01*
X0496233Y0432599D02*
X0482530Y0432599D01*
X0479137Y0432599D02*
X0476190Y0432599D01*
X0476988Y0433397D02*
X0496233Y0433397D01*
X0496233Y0434196D02*
X0477787Y0434196D01*
X0478585Y0434994D02*
X0496233Y0434994D01*
X0496233Y0435793D02*
X0479384Y0435793D01*
X0480182Y0436591D02*
X0496233Y0436591D01*
X0496233Y0437390D02*
X0480981Y0437390D01*
X0481779Y0438188D02*
X0496233Y0438188D01*
X0496233Y0438987D02*
X0482578Y0438987D01*
X0483376Y0439785D02*
X0496233Y0439785D01*
X0496233Y0440584D02*
X0484175Y0440584D01*
X0484973Y0441382D02*
X0496233Y0441382D01*
X0496233Y0442181D02*
X0485772Y0442181D01*
X0486570Y0442979D02*
X0496233Y0442979D01*
X0496233Y0443778D02*
X0487369Y0443778D01*
X0488167Y0444576D02*
X0496233Y0444576D01*
X0496233Y0445375D02*
X0488966Y0445375D01*
X0489764Y0446173D02*
X0496233Y0446173D01*
X0496233Y0446972D02*
X0491493Y0446972D01*
X0492917Y0447770D02*
X0496233Y0447770D01*
X0496233Y0448569D02*
X0493542Y0448569D01*
X0493873Y0449367D02*
X0496233Y0449367D01*
X0496233Y0450166D02*
X0493883Y0450166D01*
X0493735Y0450964D02*
X0496233Y0450964D01*
X0496233Y0451763D02*
X0493384Y0451763D01*
X0492585Y0452561D02*
X0496233Y0452561D01*
X0496233Y0453360D02*
X0455231Y0453360D01*
X0454433Y0454158D02*
X0496233Y0454158D01*
X0496233Y0454957D02*
X0453634Y0454957D01*
X0452836Y0455755D02*
X0496233Y0455755D01*
X0496233Y0456554D02*
X0452037Y0456554D01*
X0451239Y0457352D02*
X0496233Y0457352D01*
X0496233Y0458151D02*
X0450440Y0458151D01*
X0449642Y0458949D02*
X0496233Y0458949D01*
X0496233Y0459748D02*
X0448843Y0459748D01*
X0448045Y0460546D02*
X0496233Y0460546D01*
X0496233Y0461345D02*
X0447246Y0461345D01*
X0446448Y0462143D02*
X0496233Y0462143D01*
X0496233Y0462942D02*
X0445649Y0462942D01*
X0444851Y0463741D02*
X0496233Y0463741D01*
X0496233Y0464539D02*
X0444052Y0464539D01*
X0443253Y0465338D02*
X0496233Y0465338D01*
X0496233Y0466136D02*
X0442455Y0466136D01*
X0441656Y0466935D02*
X0496233Y0466935D01*
X0496233Y0467733D02*
X0440858Y0467733D01*
X0440059Y0468532D02*
X0496233Y0468532D01*
X0496233Y0469330D02*
X0439261Y0469330D01*
X0438462Y0470129D02*
X0496233Y0470129D01*
X0496233Y0470927D02*
X0437664Y0470927D01*
X0436865Y0471726D02*
X0496233Y0471726D01*
X0496233Y0472524D02*
X0436067Y0472524D01*
X0435268Y0473323D02*
X0496233Y0473323D01*
X0496233Y0474121D02*
X0434470Y0474121D01*
X0433671Y0474920D02*
X0472769Y0474920D01*
X0471438Y0475718D02*
X0432873Y0475718D01*
X0432074Y0476517D02*
X0470926Y0476517D01*
X0470733Y0477315D02*
X0431276Y0477315D01*
X0430477Y0478114D02*
X0470733Y0478114D01*
X0470733Y0478912D02*
X0429679Y0478912D01*
X0428880Y0479711D02*
X0470733Y0479711D01*
X0470733Y0480509D02*
X0428082Y0480509D01*
X0429202Y0481308D02*
X0434945Y0481308D01*
X0433407Y0482106D02*
X0430740Y0482106D01*
X0431538Y0482905D02*
X0432608Y0482905D01*
X0432230Y0483703D02*
X0431917Y0483703D01*
X0437076Y0481308D02*
X0442819Y0481308D01*
X0441281Y0482106D02*
X0438614Y0482106D01*
X0439412Y0482905D02*
X0440482Y0482905D01*
X0440104Y0483703D02*
X0439791Y0483703D01*
X0444950Y0481308D02*
X0450693Y0481308D01*
X0449155Y0482106D02*
X0446488Y0482106D01*
X0447287Y0482905D02*
X0448357Y0482905D01*
X0447978Y0483703D02*
X0447665Y0483703D01*
X0452824Y0481308D02*
X0458567Y0481308D01*
X0457029Y0482106D02*
X0454362Y0482106D01*
X0455161Y0482905D02*
X0456231Y0482905D01*
X0455852Y0483703D02*
X0455539Y0483703D01*
X0460698Y0481308D02*
X0465491Y0481308D01*
X0464509Y0482106D02*
X0462236Y0482106D01*
X0463035Y0482905D02*
X0463893Y0482905D01*
X0463563Y0483703D02*
X0463413Y0483703D01*
X0469522Y0481308D02*
X0470733Y0481308D01*
X0470733Y0482106D02*
X0470504Y0482106D01*
X0475933Y0482106D02*
X0496233Y0482106D01*
X0496233Y0481308D02*
X0475933Y0481308D01*
X0475933Y0480509D02*
X0477628Y0480509D01*
X0479038Y0480509D02*
X0496233Y0480509D01*
X0496233Y0479711D02*
X0480436Y0479711D01*
X0481050Y0478912D02*
X0496233Y0478912D01*
X0496233Y0478114D02*
X0481380Y0478114D01*
X0481383Y0477315D02*
X0496233Y0477315D01*
X0496233Y0476517D02*
X0481227Y0476517D01*
X0480865Y0475718D02*
X0496233Y0475718D01*
X0496233Y0474920D02*
X0480066Y0474920D01*
X0482532Y0482905D02*
X0475933Y0482905D01*
X0475933Y0483703D02*
X0480776Y0483703D01*
X0481112Y0483422D02*
X0481112Y0483422D01*
X0484193Y0482300D01*
X0486662Y0482300D01*
X0487473Y0482300D01*
X0487473Y0482300D01*
X0490555Y0483422D01*
X0493067Y0485530D01*
X0494707Y0488370D01*
X0494707Y0488370D01*
X0495277Y0491600D01*
X0494707Y0494830D01*
X0493067Y0497670D01*
X0490555Y0499778D01*
X0487473Y0500900D01*
X0484193Y0500900D01*
X0481112Y0499778D01*
X0481112Y0499778D01*
X0478599Y0497670D01*
X0476959Y0494830D01*
X0476390Y0491600D01*
X0476959Y0488370D01*
X0478599Y0485530D01*
X0481112Y0483422D01*
X0479824Y0484502D02*
X0475933Y0484502D01*
X0475933Y0485300D02*
X0478873Y0485300D01*
X0478599Y0485530D02*
X0478599Y0485530D01*
X0478271Y0486099D02*
X0475933Y0486099D01*
X0475933Y0486897D02*
X0477810Y0486897D01*
X0477349Y0487696D02*
X0475933Y0487696D01*
X0475933Y0488494D02*
X0476937Y0488494D01*
X0476959Y0488370D02*
X0476959Y0488370D01*
X0476797Y0489293D02*
X0475933Y0489293D01*
X0475933Y0490091D02*
X0476656Y0490091D01*
X0476515Y0490890D02*
X0475933Y0490890D01*
X0475933Y0491688D02*
X0476405Y0491688D01*
X0476390Y0491600D02*
X0476390Y0491600D01*
X0476546Y0492487D02*
X0475933Y0492487D01*
X0475933Y0493285D02*
X0476687Y0493285D01*
X0476828Y0494084D02*
X0475933Y0494084D01*
X0475933Y0494882D02*
X0476990Y0494882D01*
X0476959Y0494830D02*
X0476959Y0494830D01*
X0477451Y0495681D02*
X0475865Y0495681D01*
X0475531Y0496479D02*
X0477912Y0496479D01*
X0478373Y0497278D02*
X0474732Y0497278D01*
X0473934Y0498077D02*
X0479084Y0498077D01*
X0478599Y0497670D02*
X0478599Y0497670D01*
X0478599Y0497670D01*
X0480035Y0498875D02*
X0473135Y0498875D01*
X0472337Y0499674D02*
X0480987Y0499674D01*
X0483018Y0500472D02*
X0471538Y0500472D01*
X0470740Y0501271D02*
X0492977Y0501271D01*
X0494002Y0500472D02*
X0488649Y0500472D01*
X0490555Y0499778D02*
X0490555Y0499778D01*
X0490680Y0499674D02*
X0494583Y0499674D01*
X0495163Y0498875D02*
X0491632Y0498875D01*
X0492583Y0498077D02*
X0495538Y0498077D01*
X0495797Y0497278D02*
X0493294Y0497278D01*
X0493067Y0497670D02*
X0493067Y0497670D01*
X0493755Y0496479D02*
X0496057Y0496479D01*
X0496180Y0495681D02*
X0494216Y0495681D01*
X0494677Y0494882D02*
X0496233Y0494882D01*
X0496233Y0494084D02*
X0494839Y0494084D01*
X0494707Y0494830D02*
X0494707Y0494830D01*
X0494980Y0493285D02*
X0496233Y0493285D01*
X0496233Y0492487D02*
X0495120Y0492487D01*
X0495261Y0491688D02*
X0496233Y0491688D01*
X0496233Y0490890D02*
X0495152Y0490890D01*
X0495277Y0491600D02*
X0495277Y0491600D01*
X0495011Y0490091D02*
X0496233Y0490091D01*
X0496233Y0489293D02*
X0494870Y0489293D01*
X0494729Y0488494D02*
X0496233Y0488494D01*
X0496233Y0487696D02*
X0494318Y0487696D01*
X0493857Y0486897D02*
X0496233Y0486897D01*
X0496233Y0486099D02*
X0493396Y0486099D01*
X0493067Y0485530D02*
X0493067Y0485530D01*
X0493067Y0485530D01*
X0492794Y0485300D02*
X0496233Y0485300D01*
X0496233Y0484502D02*
X0491842Y0484502D01*
X0490891Y0483703D02*
X0496233Y0483703D01*
X0496233Y0482905D02*
X0489135Y0482905D01*
X0490555Y0483422D02*
X0490555Y0483422D01*
X0491827Y0502069D02*
X0469941Y0502069D01*
X0451725Y0502069D02*
X0214839Y0502069D01*
X0213689Y0501271D02*
X0231846Y0501271D01*
X0231383Y0500472D02*
X0223649Y0500472D01*
X0222473Y0500900D02*
X0219193Y0500900D01*
X0216112Y0499778D01*
X0216112Y0499778D01*
X0213599Y0497670D01*
X0211959Y0494830D01*
X0211390Y0491600D01*
X0211959Y0488370D01*
X0213599Y0485530D01*
X0216112Y0483422D01*
X0219193Y0482300D01*
X0220005Y0482300D01*
X0222473Y0482300D01*
X0225555Y0483422D01*
X0228067Y0485530D01*
X0228067Y0485530D01*
X0229707Y0488370D01*
X0229707Y0488370D01*
X0230277Y0491600D01*
X0229707Y0494830D01*
X0228067Y0497670D01*
X0225555Y0499778D01*
X0222473Y0500900D01*
X0225555Y0499778D02*
X0225555Y0499778D01*
X0225680Y0499674D02*
X0231383Y0499674D01*
X0231383Y0498875D02*
X0226632Y0498875D01*
X0227583Y0498077D02*
X0231383Y0498077D01*
X0231383Y0497278D02*
X0228294Y0497278D01*
X0228067Y0497670D02*
X0228067Y0497670D01*
X0228755Y0496479D02*
X0231383Y0496479D01*
X0231383Y0495681D02*
X0229216Y0495681D01*
X0229677Y0494882D02*
X0231383Y0494882D01*
X0231383Y0494084D02*
X0229839Y0494084D01*
X0229707Y0494830D02*
X0229707Y0494830D01*
X0229980Y0493285D02*
X0231383Y0493285D01*
X0231383Y0492487D02*
X0230120Y0492487D01*
X0230261Y0491688D02*
X0231383Y0491688D01*
X0231383Y0490890D02*
X0230152Y0490890D01*
X0230277Y0491600D02*
X0230277Y0491600D01*
X0230011Y0490091D02*
X0231383Y0490091D01*
X0231383Y0489293D02*
X0229870Y0489293D01*
X0229729Y0488494D02*
X0231383Y0488494D01*
X0231383Y0487696D02*
X0229318Y0487696D01*
X0228857Y0486897D02*
X0231383Y0486897D01*
X0231383Y0486099D02*
X0228396Y0486099D01*
X0227794Y0485300D02*
X0231383Y0485300D01*
X0231383Y0484502D02*
X0226842Y0484502D01*
X0225891Y0483703D02*
X0231383Y0483703D01*
X0231383Y0482905D02*
X0224135Y0482905D01*
X0222473Y0482300D02*
X0222473Y0482300D01*
X0217532Y0482905D02*
X0210433Y0482905D01*
X0210433Y0483703D02*
X0215776Y0483703D01*
X0216112Y0483422D02*
X0216112Y0483422D01*
X0214824Y0484502D02*
X0210433Y0484502D01*
X0210433Y0485300D02*
X0213873Y0485300D01*
X0213599Y0485530D02*
X0213599Y0485530D01*
X0213271Y0486099D02*
X0210433Y0486099D01*
X0210433Y0486897D02*
X0212810Y0486897D01*
X0212349Y0487696D02*
X0210433Y0487696D01*
X0210433Y0488494D02*
X0211937Y0488494D01*
X0211959Y0488370D02*
X0211959Y0488370D01*
X0211797Y0489293D02*
X0210433Y0489293D01*
X0210433Y0490091D02*
X0211656Y0490091D01*
X0211515Y0490890D02*
X0210433Y0490890D01*
X0210433Y0491688D02*
X0211405Y0491688D01*
X0211390Y0491600D02*
X0211390Y0491600D01*
X0211546Y0492487D02*
X0210433Y0492487D01*
X0210433Y0493285D02*
X0211687Y0493285D01*
X0211828Y0494084D02*
X0210433Y0494084D01*
X0210433Y0494882D02*
X0211990Y0494882D01*
X0211959Y0494830D02*
X0211959Y0494830D01*
X0212451Y0495681D02*
X0210487Y0495681D01*
X0210610Y0496479D02*
X0212912Y0496479D01*
X0213373Y0497278D02*
X0210869Y0497278D01*
X0211129Y0498077D02*
X0214084Y0498077D01*
X0213599Y0497670D02*
X0213599Y0497670D01*
X0213599Y0497670D01*
X0215035Y0498875D02*
X0211504Y0498875D01*
X0212084Y0499674D02*
X0215987Y0499674D01*
X0218018Y0500472D02*
X0212664Y0500472D01*
X0217921Y0502868D02*
X0488745Y0502868D01*
X0489081Y0452561D02*
X0456030Y0452561D01*
X0456828Y0451763D02*
X0488283Y0451763D01*
X0487931Y0450964D02*
X0457627Y0450964D01*
X0458425Y0450166D02*
X0487783Y0450166D01*
X0487443Y0449367D02*
X0459224Y0449367D01*
X0460022Y0448569D02*
X0486644Y0448569D01*
X0485846Y0447770D02*
X0460821Y0447770D01*
X0461619Y0446972D02*
X0485047Y0446972D01*
X0484249Y0446173D02*
X0462418Y0446173D01*
X0463216Y0445375D02*
X0483450Y0445375D01*
X0482652Y0444576D02*
X0464015Y0444576D01*
X0464813Y0443778D02*
X0481853Y0443778D01*
X0481055Y0442979D02*
X0465612Y0442979D01*
X0466410Y0442181D02*
X0480256Y0442181D01*
X0479458Y0441382D02*
X0467209Y0441382D01*
X0468007Y0440584D02*
X0478659Y0440584D01*
X0477861Y0439785D02*
X0468806Y0439785D01*
X0469604Y0438987D02*
X0477062Y0438987D01*
X0476264Y0438188D02*
X0470403Y0438188D01*
X0472757Y0437390D02*
X0475465Y0437390D01*
X0474667Y0436591D02*
X0473476Y0436591D01*
X0473806Y0435793D02*
X0473868Y0435793D01*
X0496233Y0426210D02*
X0355433Y0426210D01*
X0355361Y0425412D02*
X0496233Y0425412D01*
X0496233Y0424613D02*
X0355030Y0424613D01*
X0354699Y0423815D02*
X0496233Y0423815D01*
X0496233Y0423016D02*
X0354368Y0423016D01*
X0353592Y0422218D02*
X0496233Y0422218D01*
X0496233Y0421419D02*
X0352794Y0421419D01*
X0351486Y0420621D02*
X0496233Y0420621D01*
X0496233Y0418225D02*
X0445426Y0418225D01*
X0445555Y0418178D02*
X0445555Y0418178D01*
X0446451Y0417427D02*
X0496233Y0417427D01*
X0496233Y0416628D02*
X0447402Y0416628D01*
X0448067Y0416070D02*
X0448067Y0416070D01*
X0448206Y0415830D02*
X0496233Y0415830D01*
X0496233Y0415031D02*
X0448667Y0415031D01*
X0449128Y0414233D02*
X0496233Y0414233D01*
X0496233Y0413434D02*
X0449589Y0413434D01*
X0449707Y0413230D02*
X0449707Y0413230D01*
X0449812Y0412636D02*
X0496233Y0412636D01*
X0496233Y0411837D02*
X0449953Y0411837D01*
X0450094Y0411039D02*
X0496233Y0411039D01*
X0496233Y0410240D02*
X0450234Y0410240D01*
X0450277Y0410000D02*
X0450277Y0410000D01*
X0450178Y0409442D02*
X0496233Y0409442D01*
X0496233Y0408643D02*
X0450038Y0408643D01*
X0449897Y0407845D02*
X0496233Y0407845D01*
X0496233Y0407046D02*
X0449756Y0407046D01*
X0449406Y0406248D02*
X0496233Y0406248D01*
X0496233Y0405449D02*
X0448945Y0405449D01*
X0448484Y0404651D02*
X0496233Y0404651D01*
X0496233Y0403852D02*
X0447975Y0403852D01*
X0448067Y0403930D02*
X0448067Y0403930D01*
X0448067Y0403930D01*
X0447023Y0403054D02*
X0496233Y0403054D01*
X0496233Y0402255D02*
X0446072Y0402255D01*
X0445555Y0401822D02*
X0445555Y0401822D01*
X0444552Y0401457D02*
X0496233Y0401457D01*
X0496233Y0400658D02*
X0427661Y0400658D01*
X0427777Y0400000D02*
X0427207Y0403230D01*
X0425567Y0406070D01*
X0423055Y0408178D01*
X0419973Y0409300D01*
X0416693Y0409300D01*
X0413612Y0408178D01*
X0413612Y0408178D01*
X0411099Y0406070D01*
X0409459Y0403230D01*
X0408890Y0400000D01*
X0409459Y0396770D01*
X0411099Y0393930D01*
X0413612Y0391822D01*
X0416693Y0390700D01*
X0417505Y0390700D01*
X0419973Y0390700D01*
X0423055Y0391822D01*
X0425567Y0393930D01*
X0427207Y0396770D01*
X0427207Y0396770D01*
X0427777Y0400000D01*
X0427777Y0400000D01*
X0427752Y0399860D02*
X0496233Y0399860D01*
X0496233Y0399061D02*
X0427611Y0399061D01*
X0427470Y0398263D02*
X0496233Y0398263D01*
X0496233Y0397464D02*
X0427330Y0397464D01*
X0427147Y0396666D02*
X0496233Y0396666D01*
X0496233Y0395867D02*
X0426686Y0395867D01*
X0426225Y0395069D02*
X0496233Y0395069D01*
X0496233Y0394270D02*
X0425764Y0394270D01*
X0425567Y0393930D02*
X0425567Y0393930D01*
X0425567Y0393930D01*
X0425021Y0393472D02*
X0496233Y0393472D01*
X0496233Y0392673D02*
X0424070Y0392673D01*
X0423118Y0391874D02*
X0496233Y0391874D01*
X0496233Y0391076D02*
X0421006Y0391076D01*
X0423055Y0391822D02*
X0423055Y0391822D01*
X0415660Y0391076D02*
X0327515Y0391076D01*
X0326717Y0391874D02*
X0413549Y0391874D01*
X0413612Y0391822D02*
X0413612Y0391822D01*
X0412597Y0392673D02*
X0325918Y0392673D01*
X0325120Y0393472D02*
X0411645Y0393472D01*
X0411099Y0393930D02*
X0411099Y0393930D01*
X0410903Y0394270D02*
X0324321Y0394270D01*
X0323522Y0395069D02*
X0410442Y0395069D01*
X0409981Y0395867D02*
X0322724Y0395867D01*
X0321925Y0396666D02*
X0409520Y0396666D01*
X0409459Y0396770D02*
X0409459Y0396770D01*
X0409337Y0397464D02*
X0321127Y0397464D01*
X0320328Y0398263D02*
X0409196Y0398263D01*
X0409055Y0399061D02*
X0319530Y0399061D01*
X0328314Y0390277D02*
X0496233Y0390277D01*
X0496233Y0389479D02*
X0329112Y0389479D01*
X0329911Y0388680D02*
X0496233Y0388680D01*
X0496233Y0387882D02*
X0330709Y0387882D01*
X0331508Y0387083D02*
X0496233Y0387083D01*
X0496233Y0386285D02*
X0332306Y0386285D01*
X0333105Y0385486D02*
X0496233Y0385486D01*
X0496233Y0384688D02*
X0333903Y0384688D01*
X0334702Y0383889D02*
X0496233Y0383889D01*
X0496233Y0383091D02*
X0335500Y0383091D01*
X0336299Y0382292D02*
X0496233Y0382292D01*
X0496233Y0381494D02*
X0337097Y0381494D01*
X0337896Y0380695D02*
X0496233Y0380695D01*
X0496233Y0379897D02*
X0338694Y0379897D01*
X0339493Y0379098D02*
X0496233Y0379098D01*
X0496233Y0378300D02*
X0340291Y0378300D01*
X0341090Y0377501D02*
X0496233Y0377501D01*
X0496233Y0376703D02*
X0341888Y0376703D01*
X0342687Y0375904D02*
X0496233Y0375904D01*
X0496233Y0375106D02*
X0343485Y0375106D01*
X0344284Y0374307D02*
X0496233Y0374307D01*
X0496233Y0373509D02*
X0345082Y0373509D01*
X0345881Y0372710D02*
X0496233Y0372710D01*
X0496233Y0371912D02*
X0346679Y0371912D01*
X0347478Y0371113D02*
X0496233Y0371113D01*
X0496233Y0370315D02*
X0348276Y0370315D01*
X0349075Y0369516D02*
X0496233Y0369516D01*
X0496233Y0368718D02*
X0349873Y0368718D01*
X0350672Y0367919D02*
X0496233Y0367919D01*
X0496233Y0367121D02*
X0351470Y0367121D01*
X0352269Y0366322D02*
X0496233Y0366322D01*
X0496233Y0365524D02*
X0353067Y0365524D01*
X0353866Y0364725D02*
X0496233Y0364725D01*
X0496233Y0363927D02*
X0354664Y0363927D01*
X0355463Y0363128D02*
X0496233Y0363128D01*
X0496233Y0362330D02*
X0356261Y0362330D01*
X0357060Y0361531D02*
X0496233Y0361531D01*
X0496233Y0360733D02*
X0357858Y0360733D01*
X0358657Y0359934D02*
X0496233Y0359934D01*
X0496233Y0359136D02*
X0359455Y0359136D01*
X0360254Y0358337D02*
X0496233Y0358337D01*
X0496233Y0357539D02*
X0361053Y0357539D01*
X0361851Y0356740D02*
X0496233Y0356740D01*
X0496233Y0355941D02*
X0362650Y0355941D01*
X0363448Y0355143D02*
X0496233Y0355143D01*
X0496233Y0354344D02*
X0364247Y0354344D01*
X0365045Y0353546D02*
X0496233Y0353546D01*
X0496233Y0352747D02*
X0365844Y0352747D01*
X0366642Y0351949D02*
X0496233Y0351949D01*
X0496233Y0351150D02*
X0367441Y0351150D01*
X0368239Y0350352D02*
X0496233Y0350352D01*
X0496233Y0349553D02*
X0369038Y0349553D01*
X0369836Y0348755D02*
X0496233Y0348755D01*
X0496233Y0347956D02*
X0370635Y0347956D01*
X0371433Y0347158D02*
X0496233Y0347158D01*
X0496233Y0346359D02*
X0372232Y0346359D01*
X0373030Y0345561D02*
X0496233Y0345561D01*
X0496233Y0344762D02*
X0373829Y0344762D01*
X0374627Y0343964D02*
X0496233Y0343964D01*
X0496233Y0343165D02*
X0375426Y0343165D01*
X0376224Y0342367D02*
X0496233Y0342367D01*
X0496233Y0341568D02*
X0377023Y0341568D01*
X0377821Y0340770D02*
X0496233Y0340770D01*
X0496233Y0339971D02*
X0378620Y0339971D01*
X0379418Y0339173D02*
X0496233Y0339173D01*
X0496233Y0338374D02*
X0380217Y0338374D01*
X0381015Y0337576D02*
X0496233Y0337576D01*
X0496233Y0336777D02*
X0381814Y0336777D01*
X0382612Y0335979D02*
X0496233Y0335979D01*
X0496233Y0335180D02*
X0383411Y0335180D01*
X0384209Y0334382D02*
X0496233Y0334382D01*
X0496233Y0333583D02*
X0385008Y0333583D01*
X0385806Y0332785D02*
X0496233Y0332785D01*
X0496233Y0331986D02*
X0386605Y0331986D01*
X0387403Y0331188D02*
X0496233Y0331188D01*
X0496233Y0330389D02*
X0388202Y0330389D01*
X0389000Y0329591D02*
X0496233Y0329591D01*
X0496233Y0328792D02*
X0389799Y0328792D01*
X0390597Y0327994D02*
X0496233Y0327994D01*
X0496233Y0327195D02*
X0391396Y0327195D01*
X0392194Y0326397D02*
X0496233Y0326397D01*
X0496233Y0325598D02*
X0392993Y0325598D01*
X0393791Y0324800D02*
X0496233Y0324800D01*
X0496233Y0324001D02*
X0394590Y0324001D01*
X0395389Y0323203D02*
X0496233Y0323203D01*
X0496233Y0322404D02*
X0396187Y0322404D01*
X0396986Y0321605D02*
X0496233Y0321605D01*
X0496233Y0320807D02*
X0397784Y0320807D01*
X0398583Y0320008D02*
X0496233Y0320008D01*
X0496233Y0319210D02*
X0399381Y0319210D01*
X0400180Y0318411D02*
X0496233Y0318411D01*
X0496233Y0317613D02*
X0400978Y0317613D01*
X0401777Y0316814D02*
X0496233Y0316814D01*
X0496233Y0316016D02*
X0402575Y0316016D01*
X0403374Y0315217D02*
X0496233Y0315217D01*
X0496233Y0314419D02*
X0404172Y0314419D01*
X0404971Y0313620D02*
X0496233Y0313620D01*
X0496233Y0312822D02*
X0406991Y0312822D01*
X0408123Y0312023D02*
X0496233Y0312023D01*
X0496233Y0311225D02*
X0408627Y0311225D01*
X0408883Y0310426D02*
X0496233Y0310426D01*
X0496233Y0309628D02*
X0408883Y0309628D01*
X0408650Y0308829D02*
X0496233Y0308829D01*
X0496233Y0308031D02*
X0408177Y0308031D01*
X0407122Y0307232D02*
X0496233Y0307232D01*
X0496233Y0269702D02*
X0350706Y0269702D01*
X0352470Y0268904D02*
X0496233Y0268904D01*
X0496233Y0268105D02*
X0353269Y0268105D01*
X0354068Y0267307D02*
X0496233Y0267307D01*
X0496233Y0266508D02*
X0354565Y0266508D01*
X0354896Y0265710D02*
X0496233Y0265710D01*
X0496233Y0264911D02*
X0355227Y0264911D01*
X0355433Y0264113D02*
X0496233Y0264113D01*
X0496233Y0263314D02*
X0355433Y0263314D01*
X0355433Y0262516D02*
X0496233Y0262516D01*
X0496233Y0261717D02*
X0355433Y0261717D01*
X0355156Y0260919D02*
X0496233Y0260919D01*
X0496233Y0260120D02*
X0354825Y0260120D01*
X0354495Y0259322D02*
X0496233Y0259322D01*
X0496233Y0258523D02*
X0353897Y0258523D01*
X0353099Y0257725D02*
X0496233Y0257725D01*
X0496233Y0256926D02*
X0352223Y0256926D01*
X0350295Y0256128D02*
X0496233Y0256128D01*
X0437547Y0271299D02*
X0259120Y0271299D01*
X0260555Y0271822D02*
X0260555Y0271822D01*
X0263067Y0273930D01*
X0264707Y0276770D01*
X0264707Y0276770D01*
X0265277Y0280000D01*
X0264707Y0283230D01*
X0263067Y0286070D01*
X0260555Y0288178D01*
X0257473Y0289300D01*
X0254193Y0289300D01*
X0251112Y0288178D01*
X0251112Y0288178D01*
X0248599Y0286070D01*
X0246959Y0283230D01*
X0246390Y0280000D01*
X0246959Y0276770D01*
X0248599Y0273930D01*
X0248599Y0273930D01*
X0251112Y0271822D01*
X0251112Y0271822D01*
X0254193Y0270700D01*
X0255005Y0270700D01*
X0257473Y0270700D01*
X0260555Y0271822D01*
X0260884Y0272098D02*
X0435783Y0272098D01*
X0436112Y0271822D02*
X0436112Y0271822D01*
X0434831Y0272896D02*
X0261836Y0272896D01*
X0262787Y0273695D02*
X0433879Y0273695D01*
X0433599Y0273930D02*
X0433599Y0273930D01*
X0433274Y0274493D02*
X0263393Y0274493D01*
X0263067Y0273930D02*
X0263067Y0273930D01*
X0263067Y0273930D01*
X0263854Y0275292D02*
X0432813Y0275292D01*
X0432352Y0276090D02*
X0264315Y0276090D01*
X0264728Y0276889D02*
X0431938Y0276889D01*
X0431959Y0276770D02*
X0431959Y0276770D01*
X0431798Y0277687D02*
X0264869Y0277687D01*
X0265010Y0278486D02*
X0431657Y0278486D01*
X0431516Y0279284D02*
X0265151Y0279284D01*
X0265277Y0280000D02*
X0265277Y0280000D01*
X0265262Y0280083D02*
X0301355Y0280083D01*
X0302279Y0279700D02*
X0304388Y0279700D01*
X0306336Y0280507D01*
X0307826Y0281998D01*
X0308333Y0283222D01*
X0308840Y0281998D01*
X0310331Y0280507D01*
X0312279Y0279700D01*
X0314388Y0279700D01*
X0316336Y0280507D01*
X0317826Y0281998D01*
X0318333Y0283222D01*
X0318840Y0281998D01*
X0320331Y0280507D01*
X0322279Y0279700D01*
X0324388Y0279700D01*
X0326336Y0280507D01*
X0327826Y0281998D01*
X0328333Y0283222D01*
X0328840Y0281998D01*
X0330331Y0280507D01*
X0332279Y0279700D01*
X0334388Y0279700D01*
X0336336Y0280507D01*
X0337826Y0281998D01*
X0338333Y0283222D01*
X0338840Y0281998D01*
X0340331Y0280507D01*
X0342279Y0279700D01*
X0344388Y0279700D01*
X0346336Y0280507D01*
X0347826Y0281998D01*
X0348333Y0283222D01*
X0348840Y0281998D01*
X0350331Y0280507D01*
X0352279Y0279700D01*
X0354388Y0279700D01*
X0356336Y0280507D01*
X0357826Y0281998D01*
X0358454Y0283513D01*
X0358607Y0283042D01*
X0358971Y0282327D01*
X0359443Y0281678D01*
X0360011Y0281110D01*
X0360660Y0280638D01*
X0361376Y0280274D01*
X0362139Y0280026D01*
X0362932Y0279900D01*
X0362933Y0279900D01*
X0362933Y0284600D01*
X0363733Y0284600D01*
X0363733Y0279900D01*
X0363735Y0279900D01*
X0364528Y0280026D01*
X0365291Y0280274D01*
X0366006Y0280638D01*
X0366656Y0281110D01*
X0367223Y0281678D01*
X0367695Y0282327D01*
X0368060Y0283042D01*
X0368213Y0283513D01*
X0368840Y0281998D01*
X0370331Y0280507D01*
X0372279Y0279700D01*
X0374388Y0279700D01*
X0376336Y0280507D01*
X0377826Y0281998D01*
X0378333Y0283222D01*
X0378840Y0281998D01*
X0380331Y0280507D01*
X0382279Y0279700D01*
X0384388Y0279700D01*
X0386336Y0280507D01*
X0387826Y0281998D01*
X0388333Y0283222D01*
X0388840Y0281998D01*
X0390331Y0280507D01*
X0392279Y0279700D01*
X0394388Y0279700D01*
X0396336Y0280507D01*
X0397826Y0281998D01*
X0398633Y0283946D01*
X0398633Y0286054D01*
X0397826Y0288002D01*
X0396336Y0289493D01*
X0394388Y0290300D01*
X0392279Y0290300D01*
X0390331Y0289493D01*
X0388840Y0288002D01*
X0388333Y0286778D01*
X0387826Y0288002D01*
X0386336Y0289493D01*
X0384388Y0290300D01*
X0382279Y0290300D01*
X0380331Y0289493D01*
X0378840Y0288002D01*
X0378333Y0286778D01*
X0377826Y0288002D01*
X0376336Y0289493D01*
X0374388Y0290300D01*
X0372279Y0290300D01*
X0370331Y0289493D01*
X0368840Y0288002D01*
X0368213Y0286487D01*
X0368060Y0286958D01*
X0367695Y0287673D01*
X0367223Y0288322D01*
X0366656Y0288890D01*
X0366006Y0289362D01*
X0365291Y0289726D01*
X0364528Y0289974D01*
X0363735Y0290100D01*
X0363733Y0290100D01*
X0363733Y0285400D01*
X0362933Y0285400D01*
X0362933Y0290100D01*
X0362932Y0290100D01*
X0362139Y0289974D01*
X0361376Y0289726D01*
X0360660Y0289362D01*
X0360011Y0288890D01*
X0359443Y0288322D01*
X0358971Y0287673D01*
X0358607Y0286958D01*
X0358454Y0286487D01*
X0357826Y0288002D01*
X0356336Y0289493D01*
X0354388Y0290300D01*
X0352279Y0290300D01*
X0350331Y0289493D01*
X0348840Y0288002D01*
X0348333Y0286778D01*
X0347826Y0288002D01*
X0346336Y0289493D01*
X0344388Y0290300D01*
X0342279Y0290300D01*
X0340331Y0289493D01*
X0338840Y0288002D01*
X0338333Y0286778D01*
X0337826Y0288002D01*
X0336336Y0289493D01*
X0334388Y0290300D01*
X0332279Y0290300D01*
X0330331Y0289493D01*
X0328840Y0288002D01*
X0328333Y0286778D01*
X0327826Y0288002D01*
X0326336Y0289493D01*
X0324388Y0290300D01*
X0322279Y0290300D01*
X0320331Y0289493D01*
X0318840Y0288002D01*
X0318333Y0286778D01*
X0317826Y0288002D01*
X0316336Y0289493D01*
X0314388Y0290300D01*
X0312279Y0290300D01*
X0310331Y0289493D01*
X0308840Y0288002D01*
X0308333Y0286778D01*
X0307826Y0288002D01*
X0306336Y0289493D01*
X0304388Y0290300D01*
X0302279Y0290300D01*
X0300331Y0289493D01*
X0298840Y0288002D01*
X0298033Y0286054D01*
X0298033Y0283946D01*
X0298840Y0281998D01*
X0300331Y0280507D01*
X0302279Y0279700D01*
X0299957Y0280881D02*
X0280472Y0280881D01*
X0279973Y0280700D02*
X0283055Y0281822D01*
X0285567Y0283930D01*
X0287207Y0286770D01*
X0287207Y0286770D01*
X0287777Y0290000D01*
X0287207Y0293230D01*
X0285567Y0296070D01*
X0283055Y0298178D01*
X0279973Y0299300D01*
X0276693Y0299300D01*
X0273612Y0298178D01*
X0271099Y0296070D01*
X0269459Y0293230D01*
X0268890Y0290000D01*
X0269459Y0286770D01*
X0271099Y0283930D01*
X0273612Y0281822D01*
X0276693Y0280700D01*
X0277505Y0280700D01*
X0279973Y0280700D01*
X0282666Y0281680D02*
X0299158Y0281680D01*
X0298641Y0282478D02*
X0283838Y0282478D01*
X0283055Y0281822D02*
X0283055Y0281822D01*
X0284789Y0283277D02*
X0298310Y0283277D01*
X0298033Y0284075D02*
X0285651Y0284075D01*
X0285567Y0283930D02*
X0285567Y0283930D01*
X0285567Y0283930D01*
X0286113Y0284874D02*
X0298033Y0284874D01*
X0298033Y0285672D02*
X0286574Y0285672D01*
X0287035Y0286471D02*
X0298206Y0286471D01*
X0298537Y0287270D02*
X0287295Y0287270D01*
X0287436Y0288068D02*
X0298906Y0288068D01*
X0299705Y0288867D02*
X0287577Y0288867D01*
X0287718Y0289665D02*
X0300746Y0289665D01*
X0305920Y0289665D02*
X0310746Y0289665D01*
X0309705Y0288867D02*
X0306962Y0288867D01*
X0307761Y0288068D02*
X0308906Y0288068D01*
X0308537Y0287270D02*
X0308130Y0287270D01*
X0308026Y0282478D02*
X0308641Y0282478D01*
X0309158Y0281680D02*
X0307509Y0281680D01*
X0306710Y0280881D02*
X0309957Y0280881D01*
X0311355Y0280083D02*
X0305312Y0280083D01*
X0315312Y0280083D02*
X0321355Y0280083D01*
X0319957Y0280881D02*
X0316710Y0280881D01*
X0317509Y0281680D02*
X0319158Y0281680D01*
X0318641Y0282478D02*
X0318026Y0282478D01*
X0318130Y0287270D02*
X0318537Y0287270D01*
X0318906Y0288068D02*
X0317761Y0288068D01*
X0316962Y0288867D02*
X0319705Y0288867D01*
X0320746Y0289665D02*
X0315920Y0289665D01*
X0325920Y0289665D02*
X0330746Y0289665D01*
X0329705Y0288867D02*
X0326962Y0288867D01*
X0327761Y0288068D02*
X0328906Y0288068D01*
X0328537Y0287270D02*
X0328130Y0287270D01*
X0328026Y0282478D02*
X0328641Y0282478D01*
X0329158Y0281680D02*
X0327509Y0281680D01*
X0326710Y0280881D02*
X0329957Y0280881D01*
X0331355Y0280083D02*
X0325312Y0280083D01*
X0335312Y0280083D02*
X0341355Y0280083D01*
X0339957Y0280881D02*
X0336710Y0280881D01*
X0337509Y0281680D02*
X0339158Y0281680D01*
X0338641Y0282478D02*
X0338026Y0282478D01*
X0338130Y0287270D02*
X0338537Y0287270D01*
X0338906Y0288068D02*
X0337761Y0288068D01*
X0336962Y0288867D02*
X0339705Y0288867D01*
X0340746Y0289665D02*
X0335920Y0289665D01*
X0345920Y0289665D02*
X0350746Y0289665D01*
X0349705Y0288867D02*
X0346962Y0288867D01*
X0347761Y0288068D02*
X0348906Y0288068D01*
X0348537Y0287270D02*
X0348130Y0287270D01*
X0348026Y0282478D02*
X0348641Y0282478D01*
X0349158Y0281680D02*
X0347509Y0281680D01*
X0346710Y0280881D02*
X0349957Y0280881D01*
X0351355Y0280083D02*
X0345312Y0280083D01*
X0355312Y0280083D02*
X0361963Y0280083D01*
X0362933Y0280083D02*
X0363733Y0280083D01*
X0363733Y0280881D02*
X0362933Y0280881D01*
X0362933Y0281680D02*
X0363733Y0281680D01*
X0363733Y0282478D02*
X0362933Y0282478D01*
X0362933Y0283277D02*
X0363733Y0283277D01*
X0363733Y0284075D02*
X0362933Y0284075D01*
X0362933Y0285672D02*
X0363733Y0285672D01*
X0363733Y0286471D02*
X0362933Y0286471D01*
X0362933Y0287270D02*
X0363733Y0287270D01*
X0363733Y0288068D02*
X0362933Y0288068D01*
X0362933Y0288867D02*
X0363733Y0288867D01*
X0363733Y0289665D02*
X0362933Y0289665D01*
X0361255Y0289665D02*
X0355920Y0289665D01*
X0356962Y0288867D02*
X0359987Y0288867D01*
X0359258Y0288068D02*
X0357761Y0288068D01*
X0358130Y0287270D02*
X0358766Y0287270D01*
X0358531Y0283277D02*
X0358356Y0283277D01*
X0358026Y0282478D02*
X0358894Y0282478D01*
X0359442Y0281680D02*
X0357509Y0281680D01*
X0356710Y0280881D02*
X0360325Y0280881D01*
X0364704Y0280083D02*
X0371355Y0280083D01*
X0369957Y0280881D02*
X0366341Y0280881D01*
X0367225Y0281680D02*
X0369158Y0281680D01*
X0368641Y0282478D02*
X0367772Y0282478D01*
X0368136Y0283277D02*
X0368310Y0283277D01*
X0368537Y0287270D02*
X0367901Y0287270D01*
X0367408Y0288068D02*
X0368906Y0288068D01*
X0369705Y0288867D02*
X0366679Y0288867D01*
X0365411Y0289665D02*
X0370746Y0289665D01*
X0375920Y0289665D02*
X0380746Y0289665D01*
X0379705Y0288867D02*
X0376962Y0288867D01*
X0377761Y0288068D02*
X0378906Y0288068D01*
X0378537Y0287270D02*
X0378130Y0287270D01*
X0378026Y0282478D02*
X0378641Y0282478D01*
X0379158Y0281680D02*
X0377509Y0281680D01*
X0376710Y0280881D02*
X0379957Y0280881D01*
X0381355Y0280083D02*
X0375312Y0280083D01*
X0385312Y0280083D02*
X0391355Y0280083D01*
X0389957Y0280881D02*
X0386710Y0280881D01*
X0387509Y0281680D02*
X0389158Y0281680D01*
X0388641Y0282478D02*
X0388026Y0282478D01*
X0388130Y0287270D02*
X0388537Y0287270D01*
X0388906Y0288068D02*
X0387761Y0288068D01*
X0386962Y0288867D02*
X0389705Y0288867D01*
X0390746Y0289665D02*
X0385920Y0289665D01*
X0395920Y0289665D02*
X0408949Y0289665D01*
X0408890Y0290000D02*
X0408890Y0290000D01*
X0408972Y0290464D02*
X0287695Y0290464D01*
X0287777Y0290000D02*
X0287777Y0290000D01*
X0287554Y0291262D02*
X0409112Y0291262D01*
X0409253Y0292061D02*
X0287413Y0292061D01*
X0287273Y0292859D02*
X0409394Y0292859D01*
X0409459Y0293230D02*
X0409459Y0293230D01*
X0409706Y0293658D02*
X0286960Y0293658D01*
X0287207Y0293230D02*
X0287207Y0293230D01*
X0286499Y0294456D02*
X0410167Y0294456D01*
X0410628Y0295255D02*
X0286038Y0295255D01*
X0285577Y0296053D02*
X0411089Y0296053D01*
X0411099Y0296070D02*
X0411099Y0296070D01*
X0411099Y0296070D01*
X0412031Y0296852D02*
X0284636Y0296852D01*
X0285567Y0296070D02*
X0285567Y0296070D01*
X0283684Y0297650D02*
X0412982Y0297650D01*
X0414355Y0298449D02*
X0282312Y0298449D01*
X0283055Y0298178D02*
X0283055Y0298178D01*
X0280118Y0299247D02*
X0416548Y0299247D01*
X0409090Y0288867D02*
X0396962Y0288867D01*
X0397761Y0288068D02*
X0409231Y0288068D01*
X0409371Y0287270D02*
X0398130Y0287270D01*
X0398461Y0286471D02*
X0409632Y0286471D01*
X0409459Y0286770D02*
X0409459Y0286770D01*
X0410093Y0285672D02*
X0398633Y0285672D01*
X0398633Y0284874D02*
X0410554Y0284874D01*
X0411015Y0284075D02*
X0398633Y0284075D01*
X0398356Y0283277D02*
X0411877Y0283277D01*
X0411099Y0283930D02*
X0411099Y0283930D01*
X0412829Y0282478D02*
X0398026Y0282478D01*
X0397509Y0281680D02*
X0414001Y0281680D01*
X0413612Y0281822D02*
X0413612Y0281822D01*
X0416195Y0280881D02*
X0396710Y0280881D01*
X0395312Y0280083D02*
X0431404Y0280083D01*
X0431390Y0280000D02*
X0431390Y0280000D01*
X0431545Y0280881D02*
X0420472Y0280881D01*
X0422666Y0281680D02*
X0431686Y0281680D01*
X0431827Y0282478D02*
X0423838Y0282478D01*
X0423055Y0281822D02*
X0423055Y0281822D01*
X0424789Y0283277D02*
X0431987Y0283277D01*
X0431959Y0283230D02*
X0431959Y0283230D01*
X0432448Y0284075D02*
X0425651Y0284075D01*
X0425567Y0283930D02*
X0425567Y0283930D01*
X0425567Y0283930D01*
X0426113Y0284874D02*
X0432909Y0284874D01*
X0433370Y0285672D02*
X0426574Y0285672D01*
X0427035Y0286471D02*
X0434077Y0286471D01*
X0433599Y0286070D02*
X0433599Y0286070D01*
X0433599Y0286070D01*
X0435029Y0287270D02*
X0427295Y0287270D01*
X0427436Y0288068D02*
X0435980Y0288068D01*
X0408915Y0399860D02*
X0404773Y0399860D01*
X0406487Y0400658D02*
X0409006Y0400658D01*
X0408890Y0400000D02*
X0408890Y0400000D01*
X0409147Y0401457D02*
X0407285Y0401457D01*
X0407933Y0402255D02*
X0409288Y0402255D01*
X0409428Y0403054D02*
X0408264Y0403054D01*
X0408595Y0403852D02*
X0409819Y0403852D01*
X0409459Y0403230D02*
X0409459Y0403230D01*
X0410280Y0404651D02*
X0408633Y0404651D01*
X0408633Y0405449D02*
X0410741Y0405449D01*
X0411099Y0406070D02*
X0411099Y0406070D01*
X0411099Y0406070D01*
X0411311Y0406248D02*
X0408553Y0406248D01*
X0408222Y0407046D02*
X0412262Y0407046D01*
X0413214Y0407845D02*
X0407892Y0407845D01*
X0407185Y0408643D02*
X0414889Y0408643D01*
X0421778Y0408643D02*
X0431629Y0408643D01*
X0431770Y0407845D02*
X0423453Y0407845D01*
X0423055Y0408178D02*
X0423055Y0408178D01*
X0424404Y0407046D02*
X0431911Y0407046D01*
X0432261Y0406248D02*
X0425356Y0406248D01*
X0425567Y0406070D02*
X0425567Y0406070D01*
X0425926Y0405449D02*
X0432722Y0405449D01*
X0433183Y0404651D02*
X0426387Y0404651D01*
X0426848Y0403852D02*
X0433692Y0403852D01*
X0433599Y0403930D02*
X0433599Y0403930D01*
X0434643Y0403054D02*
X0427238Y0403054D01*
X0427207Y0403230D02*
X0427207Y0403230D01*
X0427379Y0402255D02*
X0435595Y0402255D01*
X0436112Y0401822D02*
X0436112Y0401822D01*
X0437115Y0401457D02*
X0427520Y0401457D01*
X0431488Y0409442D02*
X0406387Y0409442D01*
X0404532Y0410240D02*
X0431432Y0410240D01*
X0402135Y0410240D02*
X0394532Y0410240D01*
X0396387Y0409442D02*
X0400280Y0409442D01*
X0399481Y0408643D02*
X0397185Y0408643D01*
X0397892Y0407845D02*
X0398775Y0407845D01*
X0398444Y0407046D02*
X0398222Y0407046D01*
X0398264Y0403054D02*
X0398403Y0403054D01*
X0398734Y0402255D02*
X0397933Y0402255D01*
X0397285Y0401457D02*
X0399381Y0401457D01*
X0400180Y0400658D02*
X0396487Y0400658D01*
X0394773Y0399860D02*
X0401894Y0399860D01*
X0391894Y0399860D02*
X0384773Y0399860D01*
X0386487Y0400658D02*
X0390180Y0400658D01*
X0389381Y0401457D02*
X0387285Y0401457D01*
X0387933Y0402255D02*
X0388734Y0402255D01*
X0388403Y0403054D02*
X0388264Y0403054D01*
X0388222Y0407046D02*
X0388444Y0407046D01*
X0388775Y0407845D02*
X0387892Y0407845D01*
X0387185Y0408643D02*
X0389481Y0408643D01*
X0390280Y0409442D02*
X0386387Y0409442D01*
X0384532Y0410240D02*
X0392135Y0410240D01*
X0382135Y0410240D02*
X0374532Y0410240D01*
X0376387Y0409442D02*
X0380280Y0409442D01*
X0379481Y0408643D02*
X0377185Y0408643D01*
X0377892Y0407845D02*
X0378775Y0407845D01*
X0378444Y0407046D02*
X0378222Y0407046D01*
X0378264Y0403054D02*
X0378403Y0403054D01*
X0378734Y0402255D02*
X0377933Y0402255D01*
X0377285Y0401457D02*
X0379381Y0401457D01*
X0380180Y0400658D02*
X0376487Y0400658D01*
X0374773Y0399860D02*
X0381894Y0399860D01*
X0371894Y0399860D02*
X0364773Y0399860D01*
X0366487Y0400658D02*
X0370180Y0400658D01*
X0369381Y0401457D02*
X0367285Y0401457D01*
X0367933Y0402255D02*
X0368734Y0402255D01*
X0368403Y0403054D02*
X0368264Y0403054D01*
X0368222Y0407046D02*
X0368444Y0407046D01*
X0368775Y0407845D02*
X0367892Y0407845D01*
X0367185Y0408643D02*
X0369481Y0408643D01*
X0370280Y0409442D02*
X0366387Y0409442D01*
X0364532Y0410240D02*
X0372135Y0410240D01*
X0362135Y0410240D02*
X0354532Y0410240D01*
X0356387Y0409442D02*
X0360280Y0409442D01*
X0359481Y0408643D02*
X0357185Y0408643D01*
X0357892Y0407845D02*
X0358775Y0407845D01*
X0358444Y0407046D02*
X0358222Y0407046D01*
X0358264Y0403054D02*
X0358403Y0403054D01*
X0358734Y0402255D02*
X0357933Y0402255D01*
X0357285Y0401457D02*
X0359381Y0401457D01*
X0360180Y0400658D02*
X0356487Y0400658D01*
X0354773Y0399860D02*
X0361894Y0399860D01*
X0343733Y0400658D02*
X0342933Y0400658D01*
X0342933Y0401457D02*
X0343733Y0401457D01*
X0343733Y0402255D02*
X0342933Y0402255D01*
X0342933Y0403054D02*
X0343733Y0403054D01*
X0343733Y0403852D02*
X0342933Y0403852D01*
X0353314Y0434196D02*
X0284395Y0434196D01*
X0283597Y0434994D02*
X0352516Y0434994D01*
X0351717Y0435793D02*
X0282798Y0435793D01*
X0282000Y0436591D02*
X0350919Y0436591D01*
X0350120Y0437390D02*
X0281201Y0437390D01*
X0280403Y0438188D02*
X0349322Y0438188D01*
X0348523Y0438987D02*
X0279604Y0438987D01*
X0278806Y0439785D02*
X0347725Y0439785D01*
X0346926Y0440584D02*
X0278007Y0440584D01*
X0277209Y0441382D02*
X0346128Y0441382D01*
X0345329Y0442181D02*
X0276410Y0442181D01*
X0275612Y0442979D02*
X0344531Y0442979D01*
X0343732Y0443778D02*
X0274813Y0443778D01*
X0274015Y0444576D02*
X0342934Y0444576D01*
X0342135Y0445375D02*
X0273216Y0445375D01*
X0272418Y0446173D02*
X0341337Y0446173D01*
X0340538Y0446972D02*
X0271619Y0446972D01*
X0270821Y0447770D02*
X0339740Y0447770D01*
X0338941Y0448569D02*
X0270022Y0448569D01*
X0269224Y0449367D02*
X0338143Y0449367D01*
X0337344Y0450166D02*
X0268425Y0450166D01*
X0267627Y0450964D02*
X0336546Y0450964D01*
X0335747Y0451763D02*
X0266828Y0451763D01*
X0266030Y0452561D02*
X0334949Y0452561D01*
X0334150Y0453360D02*
X0265231Y0453360D01*
X0264433Y0454158D02*
X0333352Y0454158D01*
X0332553Y0454957D02*
X0263634Y0454957D01*
X0262836Y0455755D02*
X0331755Y0455755D01*
X0330956Y0456554D02*
X0262037Y0456554D01*
X0261239Y0457352D02*
X0330157Y0457352D01*
X0329359Y0458151D02*
X0260440Y0458151D01*
X0259642Y0458949D02*
X0328560Y0458949D01*
X0327762Y0459748D02*
X0258843Y0459748D01*
X0258045Y0460546D02*
X0326963Y0460546D01*
X0326165Y0461345D02*
X0257246Y0461345D01*
X0256448Y0462143D02*
X0325366Y0462143D01*
X0324568Y0462942D02*
X0255649Y0462942D01*
X0254851Y0463741D02*
X0323769Y0463741D01*
X0322971Y0464539D02*
X0254052Y0464539D01*
X0253253Y0465338D02*
X0322172Y0465338D01*
X0321374Y0466136D02*
X0252455Y0466136D01*
X0251656Y0466935D02*
X0320575Y0466935D01*
X0319777Y0467733D02*
X0250858Y0467733D01*
X0250059Y0468532D02*
X0318978Y0468532D01*
X0318180Y0469330D02*
X0249261Y0469330D01*
X0248462Y0470129D02*
X0317381Y0470129D01*
X0316583Y0470927D02*
X0247664Y0470927D01*
X0246865Y0471726D02*
X0315784Y0471726D01*
X0314986Y0472524D02*
X0246067Y0472524D01*
X0245268Y0473323D02*
X0314187Y0473323D01*
X0313389Y0474121D02*
X0244470Y0474121D01*
X0243671Y0474920D02*
X0312590Y0474920D01*
X0313773Y0494882D02*
X0314153Y0494882D01*
X0314580Y0495681D02*
X0313346Y0495681D01*
X0312548Y0496479D02*
X0315379Y0496479D01*
X0317033Y0497278D02*
X0310894Y0497278D01*
X0309158Y0497278D02*
X0303020Y0497278D01*
X0301284Y0497278D02*
X0295146Y0497278D01*
X0293410Y0497278D02*
X0287272Y0497278D01*
X0285536Y0497278D02*
X0279398Y0497278D01*
X0277662Y0497278D02*
X0271524Y0497278D01*
X0270515Y0498077D02*
X0450733Y0498077D01*
X0450733Y0498875D02*
X0269716Y0498875D01*
X0268918Y0499674D02*
X0450733Y0499674D01*
X0450733Y0500472D02*
X0268119Y0500472D01*
X0267320Y0501271D02*
X0451045Y0501271D01*
X0450733Y0497278D02*
X0444752Y0497278D01*
X0443017Y0497278D02*
X0436878Y0497278D01*
X0435143Y0497278D02*
X0429004Y0497278D01*
X0427269Y0497278D02*
X0421130Y0497278D01*
X0419395Y0497278D02*
X0413256Y0497278D01*
X0411521Y0497278D02*
X0405382Y0497278D01*
X0403647Y0497278D02*
X0397508Y0497278D01*
X0395773Y0497278D02*
X0389634Y0497278D01*
X0387899Y0497278D02*
X0381760Y0497278D01*
X0380025Y0497278D02*
X0373886Y0497278D01*
X0372151Y0497278D02*
X0366012Y0497278D01*
X0364277Y0497278D02*
X0358138Y0497278D01*
X0356403Y0497278D02*
X0350264Y0497278D01*
X0348529Y0497278D02*
X0342390Y0497278D01*
X0340655Y0497278D02*
X0334516Y0497278D01*
X0332781Y0497278D02*
X0326642Y0497278D01*
X0324907Y0497278D02*
X0318768Y0497278D01*
X0320422Y0496479D02*
X0323253Y0496479D01*
X0322454Y0495681D02*
X0321220Y0495681D01*
X0321647Y0494882D02*
X0322027Y0494882D01*
X0328296Y0496479D02*
X0331127Y0496479D01*
X0330328Y0495681D02*
X0329094Y0495681D01*
X0329521Y0494882D02*
X0329901Y0494882D01*
X0336170Y0496479D02*
X0339001Y0496479D01*
X0338202Y0495681D02*
X0336968Y0495681D01*
X0337395Y0494882D02*
X0337775Y0494882D01*
X0344044Y0496479D02*
X0346875Y0496479D01*
X0346076Y0495681D02*
X0344842Y0495681D01*
X0345269Y0494882D02*
X0345649Y0494882D01*
X0351918Y0496479D02*
X0354749Y0496479D01*
X0353950Y0495681D02*
X0352716Y0495681D01*
X0353143Y0494882D02*
X0353523Y0494882D01*
X0359792Y0496479D02*
X0362623Y0496479D01*
X0361824Y0495681D02*
X0360591Y0495681D01*
X0361017Y0494882D02*
X0361397Y0494882D01*
X0367666Y0496479D02*
X0370497Y0496479D01*
X0369698Y0495681D02*
X0368465Y0495681D01*
X0368891Y0494882D02*
X0369271Y0494882D01*
X0375540Y0496479D02*
X0378371Y0496479D01*
X0377572Y0495681D02*
X0376339Y0495681D01*
X0376765Y0494882D02*
X0377145Y0494882D01*
X0383414Y0496479D02*
X0386245Y0496479D01*
X0385446Y0495681D02*
X0384213Y0495681D01*
X0384639Y0494882D02*
X0385019Y0494882D01*
X0391288Y0496479D02*
X0394119Y0496479D01*
X0393320Y0495681D02*
X0392087Y0495681D01*
X0392513Y0494882D02*
X0392893Y0494882D01*
X0399162Y0496479D02*
X0401993Y0496479D01*
X0401194Y0495681D02*
X0399961Y0495681D01*
X0400387Y0494882D02*
X0400767Y0494882D01*
X0407036Y0496479D02*
X0409867Y0496479D01*
X0409068Y0495681D02*
X0407835Y0495681D01*
X0408261Y0494882D02*
X0408641Y0494882D01*
X0414910Y0496479D02*
X0417741Y0496479D01*
X0416942Y0495681D02*
X0415709Y0495681D01*
X0416135Y0494882D02*
X0416515Y0494882D01*
X0422784Y0496479D02*
X0425615Y0496479D01*
X0424816Y0495681D02*
X0423583Y0495681D01*
X0424009Y0494882D02*
X0424389Y0494882D01*
X0430658Y0496479D02*
X0433489Y0496479D01*
X0432690Y0495681D02*
X0431457Y0495681D01*
X0431883Y0494882D02*
X0432264Y0494882D01*
X0438532Y0496479D02*
X0441363Y0496479D01*
X0440564Y0495681D02*
X0439331Y0495681D01*
X0439757Y0494882D02*
X0440138Y0494882D01*
X0446406Y0496479D02*
X0449237Y0496479D01*
X0448438Y0495681D02*
X0447205Y0495681D01*
X0447631Y0494882D02*
X0448012Y0494882D01*
X0307505Y0496479D02*
X0304674Y0496479D01*
X0305472Y0495681D02*
X0306706Y0495681D01*
X0306279Y0494882D02*
X0305899Y0494882D01*
X0299631Y0496479D02*
X0296800Y0496479D01*
X0297598Y0495681D02*
X0298832Y0495681D01*
X0298405Y0494882D02*
X0298025Y0494882D01*
X0291757Y0496479D02*
X0288926Y0496479D01*
X0289724Y0495681D02*
X0290958Y0495681D01*
X0290531Y0494882D02*
X0290151Y0494882D01*
X0283883Y0496479D02*
X0281052Y0496479D01*
X0281850Y0495681D02*
X0283084Y0495681D01*
X0282657Y0494882D02*
X0282277Y0494882D01*
X0276009Y0496479D02*
X0273178Y0496479D01*
X0273976Y0495681D02*
X0275210Y0495681D01*
X0274783Y0494882D02*
X0274403Y0494882D01*
X0267336Y0495681D02*
X0266102Y0495681D01*
X0266529Y0494882D02*
X0266909Y0494882D01*
X0266596Y0496479D02*
X0265304Y0496479D01*
X0265798Y0497278D02*
X0263650Y0497278D01*
X0261914Y0497278D02*
X0255776Y0497278D01*
X0254040Y0497278D02*
X0247902Y0497278D01*
X0246166Y0497278D02*
X0235283Y0497278D01*
X0235283Y0496479D02*
X0244512Y0496479D01*
X0243714Y0495681D02*
X0235283Y0495681D01*
X0235283Y0494882D02*
X0243287Y0494882D01*
X0242956Y0494084D02*
X0235283Y0494084D01*
X0235283Y0493285D02*
X0242924Y0493285D01*
X0242924Y0492487D02*
X0235283Y0492487D01*
X0235283Y0491688D02*
X0243207Y0491688D01*
X0243538Y0490890D02*
X0235283Y0490890D01*
X0235283Y0490091D02*
X0244320Y0490091D01*
X0245701Y0489293D02*
X0235283Y0489293D01*
X0235283Y0488494D02*
X0244401Y0488494D01*
X0243603Y0487696D02*
X0235283Y0487696D01*
X0235283Y0486897D02*
X0243241Y0486897D01*
X0242924Y0486099D02*
X0235283Y0486099D01*
X0235283Y0485300D02*
X0242924Y0485300D01*
X0242924Y0484502D02*
X0235283Y0484502D01*
X0235283Y0483703D02*
X0243253Y0483703D01*
X0243632Y0482905D02*
X0235686Y0482905D01*
X0236485Y0482106D02*
X0244431Y0482106D01*
X0245969Y0481308D02*
X0237283Y0481308D01*
X0238082Y0480509D02*
X0247001Y0480509D01*
X0247799Y0479711D02*
X0238880Y0479711D01*
X0239679Y0478912D02*
X0248598Y0478912D01*
X0249396Y0478114D02*
X0240477Y0478114D01*
X0241276Y0477315D02*
X0250195Y0477315D01*
X0250993Y0476517D02*
X0242074Y0476517D01*
X0242873Y0475718D02*
X0251792Y0475718D01*
X0246141Y0466935D02*
X0210433Y0466935D01*
X0210433Y0467733D02*
X0245343Y0467733D01*
X0244544Y0468532D02*
X0210433Y0468532D01*
X0210433Y0469330D02*
X0243746Y0469330D01*
X0242947Y0470129D02*
X0210433Y0470129D01*
X0210433Y0470927D02*
X0242148Y0470927D01*
X0241350Y0471726D02*
X0210433Y0471726D01*
X0210433Y0472524D02*
X0240551Y0472524D01*
X0239753Y0473323D02*
X0210433Y0473323D01*
X0210433Y0474121D02*
X0238954Y0474121D01*
X0238156Y0474920D02*
X0210433Y0474920D01*
X0210433Y0475718D02*
X0237357Y0475718D01*
X0236559Y0476517D02*
X0210433Y0476517D01*
X0210433Y0477315D02*
X0235760Y0477315D01*
X0234962Y0478114D02*
X0210433Y0478114D01*
X0210433Y0478912D02*
X0234163Y0478912D01*
X0233365Y0479711D02*
X0210433Y0479711D01*
X0210433Y0480509D02*
X0232566Y0480509D01*
X0231768Y0481308D02*
X0210433Y0481308D01*
X0210433Y0482106D02*
X0231383Y0482106D01*
X0246940Y0466136D02*
X0210433Y0466136D01*
X0210433Y0465338D02*
X0247738Y0465338D01*
X0248537Y0464539D02*
X0210433Y0464539D01*
X0210433Y0463741D02*
X0249335Y0463741D01*
X0250134Y0462942D02*
X0210433Y0462942D01*
X0210433Y0462143D02*
X0250932Y0462143D01*
X0251731Y0461345D02*
X0210433Y0461345D01*
X0210433Y0460546D02*
X0252529Y0460546D01*
X0253328Y0459748D02*
X0210433Y0459748D01*
X0210433Y0458949D02*
X0254126Y0458949D01*
X0254925Y0458151D02*
X0210433Y0458151D01*
X0210433Y0457352D02*
X0255723Y0457352D01*
X0256522Y0456554D02*
X0210433Y0456554D01*
X0210433Y0455755D02*
X0257320Y0455755D01*
X0258119Y0454957D02*
X0210433Y0454957D01*
X0210433Y0454158D02*
X0258917Y0454158D01*
X0259716Y0453360D02*
X0210433Y0453360D01*
X0210433Y0452561D02*
X0260514Y0452561D01*
X0261313Y0451763D02*
X0210433Y0451763D01*
X0210433Y0450964D02*
X0262111Y0450964D01*
X0262910Y0450166D02*
X0210433Y0450166D01*
X0210433Y0449367D02*
X0263708Y0449367D01*
X0264507Y0448569D02*
X0210433Y0448569D01*
X0210433Y0447770D02*
X0265305Y0447770D01*
X0266104Y0446972D02*
X0210433Y0446972D01*
X0210433Y0446173D02*
X0266902Y0446173D01*
X0267701Y0445375D02*
X0210433Y0445375D01*
X0210433Y0444576D02*
X0268499Y0444576D01*
X0269298Y0443778D02*
X0210433Y0443778D01*
X0210433Y0442979D02*
X0270096Y0442979D01*
X0270895Y0442181D02*
X0210433Y0442181D01*
X0210433Y0441382D02*
X0271693Y0441382D01*
X0272492Y0440584D02*
X0210433Y0440584D01*
X0210433Y0439785D02*
X0273290Y0439785D01*
X0274089Y0438987D02*
X0210433Y0438987D01*
X0210433Y0438188D02*
X0274887Y0438188D01*
X0275686Y0437390D02*
X0210433Y0437390D01*
X0210433Y0436591D02*
X0276484Y0436591D01*
X0277283Y0435793D02*
X0210433Y0435793D01*
X0210433Y0434994D02*
X0278081Y0434994D01*
X0278880Y0434196D02*
X0210433Y0434196D01*
X0210433Y0433397D02*
X0279679Y0433397D01*
X0280477Y0432599D02*
X0210433Y0432599D01*
X0210433Y0431800D02*
X0281276Y0431800D01*
X0282074Y0431002D02*
X0210433Y0431002D01*
X0210433Y0430203D02*
X0282873Y0430203D01*
X0283671Y0429405D02*
X0210433Y0429405D01*
X0210433Y0428606D02*
X0284470Y0428606D01*
X0285268Y0427808D02*
X0210433Y0427808D01*
X0210433Y0427009D02*
X0286067Y0427009D01*
X0286865Y0426210D02*
X0210433Y0426210D01*
X0210433Y0425412D02*
X0287664Y0425412D01*
X0288462Y0424613D02*
X0210433Y0424613D01*
X0210433Y0423815D02*
X0289261Y0423815D01*
X0290059Y0423016D02*
X0210433Y0423016D01*
X0210433Y0422218D02*
X0290858Y0422218D01*
X0291656Y0421419D02*
X0210433Y0421419D01*
X0210433Y0420621D02*
X0292455Y0420621D01*
X0293253Y0419822D02*
X0210433Y0419822D01*
X0250781Y0494882D02*
X0251161Y0494882D01*
X0251588Y0495681D02*
X0250354Y0495681D01*
X0249556Y0496479D02*
X0252386Y0496479D01*
X0257430Y0496479D02*
X0260260Y0496479D01*
X0259462Y0495681D02*
X0258228Y0495681D01*
X0258655Y0494882D02*
X0259035Y0494882D01*
X0276548Y0299247D02*
X0210433Y0299247D01*
X0210433Y0298449D02*
X0274355Y0298449D01*
X0273612Y0298178D02*
X0273612Y0298178D01*
X0272982Y0297650D02*
X0210433Y0297650D01*
X0210433Y0296852D02*
X0272031Y0296852D01*
X0271099Y0296070D02*
X0271099Y0296070D01*
X0271089Y0296053D02*
X0210433Y0296053D01*
X0210433Y0295255D02*
X0270628Y0295255D01*
X0270167Y0294456D02*
X0210433Y0294456D01*
X0210433Y0293658D02*
X0269706Y0293658D01*
X0269394Y0292859D02*
X0210433Y0292859D01*
X0210433Y0292061D02*
X0269253Y0292061D01*
X0269112Y0291262D02*
X0210433Y0291262D01*
X0210433Y0290464D02*
X0268972Y0290464D01*
X0268890Y0290000D02*
X0268890Y0290000D01*
X0268949Y0289665D02*
X0210433Y0289665D01*
X0210433Y0288867D02*
X0253003Y0288867D01*
X0250980Y0288068D02*
X0210433Y0288068D01*
X0210433Y0287270D02*
X0250029Y0287270D01*
X0249077Y0286471D02*
X0210433Y0286471D01*
X0210433Y0285672D02*
X0248370Y0285672D01*
X0248599Y0286070D02*
X0248599Y0286070D01*
X0248599Y0286070D01*
X0247909Y0284874D02*
X0210433Y0284874D01*
X0210433Y0284075D02*
X0247448Y0284075D01*
X0246987Y0283277D02*
X0210433Y0283277D01*
X0210433Y0282478D02*
X0246827Y0282478D01*
X0246959Y0283230D02*
X0246959Y0283230D01*
X0246686Y0281680D02*
X0210433Y0281680D01*
X0210433Y0280881D02*
X0246545Y0280881D01*
X0246404Y0280083D02*
X0210433Y0280083D01*
X0210433Y0279284D02*
X0246516Y0279284D01*
X0246390Y0280000D02*
X0246390Y0280000D01*
X0246657Y0278486D02*
X0210433Y0278486D01*
X0210433Y0277687D02*
X0246798Y0277687D01*
X0246938Y0276889D02*
X0210433Y0276889D01*
X0210433Y0276090D02*
X0247352Y0276090D01*
X0246959Y0276770D02*
X0246959Y0276770D01*
X0247813Y0275292D02*
X0210433Y0275292D01*
X0210433Y0274493D02*
X0248274Y0274493D01*
X0248879Y0273695D02*
X0210433Y0273695D01*
X0210433Y0272896D02*
X0249831Y0272896D01*
X0250783Y0272098D02*
X0210433Y0272098D01*
X0210433Y0271299D02*
X0252547Y0271299D01*
X0265121Y0280881D02*
X0276195Y0280881D01*
X0274001Y0281680D02*
X0264981Y0281680D01*
X0264840Y0282478D02*
X0272829Y0282478D01*
X0273612Y0281822D02*
X0273612Y0281822D01*
X0271877Y0283277D02*
X0264680Y0283277D01*
X0264707Y0283230D02*
X0264707Y0283230D01*
X0264219Y0284075D02*
X0271015Y0284075D01*
X0271099Y0283930D02*
X0271099Y0283930D01*
X0270554Y0284874D02*
X0263758Y0284874D01*
X0263297Y0285672D02*
X0270093Y0285672D01*
X0269632Y0286471D02*
X0262590Y0286471D01*
X0263067Y0286070D02*
X0263067Y0286070D01*
X0261638Y0287270D02*
X0269371Y0287270D01*
X0269459Y0286770D02*
X0269459Y0286770D01*
X0269231Y0288068D02*
X0260686Y0288068D01*
X0260555Y0288178D02*
X0260555Y0288178D01*
X0258664Y0288867D02*
X0269090Y0288867D01*
X0220346Y0129164D02*
X0486321Y0129164D01*
X0484127Y0128366D02*
X0222540Y0128366D01*
X0223055Y0128178D02*
X0223055Y0128178D01*
X0223783Y0127567D02*
X0482883Y0127567D01*
X0481932Y0126769D02*
X0224735Y0126769D01*
X0225567Y0126070D02*
X0225567Y0126070D01*
X0225625Y0125970D02*
X0481042Y0125970D01*
X0481099Y0126070D02*
X0481099Y0126070D01*
X0481099Y0126070D01*
X0480581Y0125172D02*
X0226086Y0125172D01*
X0226547Y0124373D02*
X0480120Y0124373D01*
X0479658Y0123575D02*
X0227008Y0123575D01*
X0227207Y0123230D02*
X0227207Y0123230D01*
X0227287Y0122776D02*
X0479379Y0122776D01*
X0479459Y0123230D02*
X0479459Y0123230D01*
X0479239Y0121978D02*
X0227428Y0121978D01*
X0227569Y0121179D02*
X0479098Y0121179D01*
X0478957Y0120381D02*
X0227710Y0120381D01*
X0227777Y0120000D02*
X0227777Y0120000D01*
X0227703Y0119582D02*
X0478964Y0119582D01*
X0478890Y0120000D02*
X0478890Y0120000D01*
X0479104Y0118784D02*
X0227562Y0118784D01*
X0227421Y0117985D02*
X0479245Y0117985D01*
X0479386Y0117187D02*
X0227281Y0117187D01*
X0226987Y0116388D02*
X0479680Y0116388D01*
X0479459Y0116770D02*
X0479459Y0116770D01*
X0480141Y0115590D02*
X0226526Y0115590D01*
X0226065Y0114791D02*
X0480602Y0114791D01*
X0481063Y0113993D02*
X0225604Y0113993D01*
X0225567Y0113930D02*
X0225567Y0113930D01*
X0225567Y0113930D01*
X0224691Y0113194D02*
X0481976Y0113194D01*
X0481099Y0113930D02*
X0481099Y0113930D01*
X0482928Y0112396D02*
X0223739Y0112396D01*
X0490346Y0129164D02*
X0496233Y0129164D01*
X0496233Y0128366D02*
X0492540Y0128366D01*
X0493055Y0128178D02*
X0493055Y0128178D01*
X0493783Y0127567D02*
X0496233Y0127567D01*
X0496233Y0126769D02*
X0494735Y0126769D01*
X0495567Y0126070D02*
X0495567Y0126070D01*
X0495625Y0125970D02*
X0496233Y0125970D01*
X0496233Y0125172D02*
X0496086Y0125172D01*
D15*
X0448333Y0470000D03*
D16*
X0420833Y0485000D02*
X0470833Y0435000D01*
X0473333Y0432500D02*
X0463333Y0432500D01*
X0410833Y0485000D01*
X0412388Y0485315D01*
X0420262Y0485315D02*
X0420833Y0485000D01*
X0473333Y0432500D02*
X0490833Y0450000D01*
X0405833Y0310000D02*
X0233333Y0482500D01*
X0233333Y0500000D01*
X0265833Y0500000D01*
X0270833Y0495000D01*
X0270656Y0493189D01*
D17*
X0405833Y0310000D03*
X0480833Y0430000D03*
X0470833Y0435000D03*
X0490833Y0450000D03*
X0478333Y0477500D03*
D18*
X0473333Y0477500D01*
X0473333Y0495000D01*
X0468333Y0500000D01*
X0453333Y0500000D01*
X0453333Y0495000D01*
X0451759Y0493189D01*
D19*
X0480833Y0430000D02*
X0360833Y0430000D01*
X0313333Y0477500D01*
X0253333Y0477500D01*
X0245833Y0485000D01*
X0247034Y0485315D01*
M02*
