G75*
%MOIN*%
%OFA0B0*%
%FSLAX25Y25*%
%IPPOS*%
%LPD*%
%AMOC8*
5,1,8,0,0,1.08239X$1,22.5*
%
%ADD10C,0.02300*%
%ADD11C,0.00900*%
%ADD12C,0.02000*%
%ADD13C,0.01500*%
%ADD14C,0.01200*%
%ADD15C,0.01000*%
%ADD16C,0.00800*%
%ADD17C,0.00600*%
%ADD18R,0.00157X0.13858*%
%ADD19R,0.00157X0.14331*%
%ADD20R,0.00157X0.14646*%
%ADD21R,0.00157X0.14961*%
%ADD22R,0.00157X0.15118*%
%ADD23R,0.00157X0.15276*%
%ADD24R,0.00157X0.15433*%
%ADD25R,0.00157X0.02835*%
%ADD26R,0.00157X0.11969*%
%ADD27R,0.00157X0.02520*%
%ADD28R,0.00157X0.01102*%
%ADD29R,0.00157X0.03150*%
%ADD30R,0.00157X0.04567*%
%ADD31R,0.00157X0.02205*%
%ADD32R,0.00157X0.00787*%
%ADD33R,0.00157X0.02677*%
%ADD34R,0.00157X0.04409*%
%ADD35R,0.00157X0.02047*%
%ADD36R,0.00157X0.00630*%
%ADD37R,0.00157X0.01890*%
%ADD38R,0.00157X0.01732*%
%ADD39R,0.00157X0.01575*%
%ADD40R,0.00157X0.00945*%
%ADD41R,0.00157X0.02362*%
%ADD42R,0.00157X0.01260*%
%ADD43R,0.00157X0.01417*%
%ADD44R,0.00157X0.04252*%
%ADD45R,0.00157X0.00315*%
%ADD46R,0.00157X0.04094*%
%ADD47R,0.00157X0.00472*%
%ADD48R,0.00157X0.03937*%
%ADD49R,0.00157X0.03307*%
%ADD50R,0.00157X0.03780*%
%ADD51R,0.00157X0.03465*%
%ADD52R,0.00157X0.02992*%
%ADD53R,0.00157X0.12913*%
%ADD54R,0.00157X0.13386*%
%ADD55R,0.00157X0.13701*%
%ADD56R,0.00157X0.14016*%
%ADD57R,0.00157X0.14173*%
%ADD58R,0.00157X0.14488*%
%ADD59R,0.00157X0.07087*%
%ADD60R,0.00157X0.04882*%
%ADD61R,0.00157X0.05039*%
%ADD62R,0.00157X0.05197*%
%ADD63R,0.00157X0.03622*%
%ADD64R,0.00157X0.00157*%
%ADD65R,0.00157X0.11024*%
%ADD66R,0.07205X0.00118*%
%ADD67R,0.07913X0.00118*%
%ADD68R,0.08386X0.00079*%
%ADD69R,0.08858X0.00157*%
%ADD70R,0.09094X0.00118*%
%ADD71R,0.09331X0.00118*%
%ADD72R,0.09567X0.00079*%
%ADD73R,0.03661X0.00118*%
%ADD74R,0.02126X0.00118*%
%ADD75R,0.02953X0.00118*%
%ADD76R,0.02244X0.00157*%
%ADD77R,0.00591X0.00157*%
%ADD78R,0.01535X0.00157*%
%ADD79R,0.02598X0.00157*%
%ADD80R,0.02244X0.00118*%
%ADD81R,0.00472X0.00118*%
%ADD82R,0.01181X0.00118*%
%ADD83R,0.02362X0.00118*%
%ADD84R,0.00945X0.00118*%
%ADD85R,0.00354X0.00118*%
%ADD86R,0.00827X0.00118*%
%ADD87R,0.02480X0.00157*%
%ADD88R,0.00354X0.00157*%
%ADD89R,0.00236X0.00157*%
%ADD90R,0.02480X0.00118*%
%ADD91R,0.02598X0.00118*%
%ADD92R,0.01063X0.00118*%
%ADD93R,0.02835X0.00118*%
%ADD94R,0.00472X0.00157*%
%ADD95R,0.04252X0.00157*%
%ADD96R,0.04370X0.00118*%
%ADD97R,0.00591X0.00118*%
%ADD98R,0.04488X0.00118*%
%ADD99R,0.00709X0.00157*%
%ADD100R,0.04488X0.00157*%
%ADD101R,0.00236X0.00118*%
%ADD102R,0.00118X0.00118*%
%ADD103R,0.00118X0.00157*%
%ADD104R,0.04370X0.00157*%
%ADD105R,0.04252X0.00118*%
%ADD106R,0.02717X0.00118*%
%ADD107R,0.03071X0.00157*%
%ADD108R,0.03425X0.00118*%
%ADD109R,0.09567X0.00118*%
%ADD110R,0.08858X0.00118*%
%ADD111R,0.08386X0.00118*%
%ADD112R,0.00157X0.12756*%
%ADD113R,0.00157X0.11181*%
%ADD114R,0.00157X0.11496*%
%ADD115R,0.00157X0.11654*%
%ADD116R,0.00157X0.13071*%
%ADD117R,0.00157X0.13228*%
%ADD118R,0.00157X0.11811*%
%ADD119R,0.00157X0.14803*%
%ADD120R,0.00157X0.15906*%
%ADD121R,0.00157X0.16063*%
%ADD122R,0.00157X0.16220*%
%ADD123R,0.00157X0.16378*%
%ADD124R,0.00157X0.09921*%
%ADD125R,0.09803X0.00118*%
%ADD126R,0.10276X0.00079*%
%ADD127R,0.10748X0.00157*%
%ADD128R,0.10984X0.00118*%
%ADD129R,0.11220X0.00118*%
%ADD130R,0.11457X0.00079*%
%ADD131R,0.08150X0.00118*%
%ADD132R,0.01063X0.00157*%
%ADD133R,0.01417X0.00157*%
%ADD134R,0.00709X0.00118*%
%ADD135R,0.04016X0.00118*%
%ADD136R,0.00945X0.00157*%
%ADD137R,0.03898X0.00157*%
%ADD138R,0.03189X0.00118*%
%ADD139R,0.02717X0.00157*%
%ADD140R,0.01654X0.00118*%
%ADD141R,0.02126X0.00157*%
%ADD142R,0.01299X0.00118*%
%ADD143R,0.02008X0.00118*%
%ADD144R,0.01890X0.00118*%
%ADD145R,0.02008X0.00157*%
%ADD146R,0.01890X0.00157*%
%ADD147R,0.11457X0.00118*%
%ADD148R,0.10748X0.00118*%
%ADD149R,0.10276X0.00118*%
%ADD150R,0.15236X0.00118*%
%ADD151R,0.15945X0.00118*%
%ADD152R,0.16417X0.00079*%
%ADD153R,0.16890X0.00157*%
%ADD154R,0.17126X0.00118*%
%ADD155R,0.17362X0.00118*%
%ADD156R,0.17598X0.00079*%
%ADD157R,0.11929X0.00118*%
%ADD158R,0.05551X0.00118*%
%ADD159R,0.01299X0.00157*%
%ADD160R,0.02362X0.00157*%
%ADD161R,0.04134X0.00118*%
%ADD162R,0.04134X0.00157*%
%ADD163R,0.02953X0.00157*%
%ADD164R,0.03071X0.00118*%
%ADD165R,0.00827X0.00157*%
%ADD166R,0.01181X0.00157*%
%ADD167R,0.01417X0.00118*%
%ADD168R,0.01535X0.00118*%
%ADD169R,0.17598X0.00118*%
%ADD170R,0.16890X0.00118*%
%ADD171R,0.16417X0.00118*%
%ADD172R,0.10748X0.00079*%
%ADD173R,0.11220X0.00157*%
%ADD174R,0.11693X0.00118*%
%ADD175R,0.11929X0.00079*%
%ADD176R,0.03307X0.00118*%
%ADD177R,0.03543X0.00157*%
%ADD178R,0.03543X0.00118*%
%ADD179R,0.03189X0.00157*%
%ADD180R,0.00118X0.17598*%
%ADD181R,0.00118X0.17480*%
%ADD182R,0.00079X0.17362*%
%ADD183R,0.00157X0.17244*%
%ADD184R,0.00118X0.17126*%
%ADD185R,0.00118X0.17008*%
%ADD186R,0.00079X0.16890*%
%ADD187R,0.00118X0.11220*%
%ADD188R,0.00118X0.05197*%
%ADD189R,0.00157X0.00354*%
%ADD190R,0.00157X0.01299*%
%ADD191R,0.00157X0.00709*%
%ADD192R,0.00157X0.01535*%
%ADD193R,0.00118X0.01417*%
%ADD194R,0.00118X0.00236*%
%ADD195R,0.00118X0.01181*%
%ADD196R,0.00118X0.01063*%
%ADD197R,0.00118X0.00591*%
%ADD198R,0.00118X0.00945*%
%ADD199R,0.00118X0.00354*%
%ADD200R,0.00118X0.01299*%
%ADD201R,0.00118X0.00709*%
%ADD202R,0.00157X0.00236*%
%ADD203R,0.00157X0.01063*%
%ADD204R,0.00118X0.00827*%
%ADD205R,0.00118X0.01890*%
%ADD206R,0.00118X0.00472*%
%ADD207R,0.00118X0.02480*%
%ADD208R,0.00118X0.02362*%
%ADD209R,0.00157X0.00591*%
%ADD210R,0.00157X0.02126*%
%ADD211R,0.00157X0.02244*%
%ADD212R,0.00118X0.02126*%
%ADD213R,0.00118X0.02244*%
%ADD214R,0.00157X0.00118*%
%ADD215R,0.00118X0.02008*%
%ADD216R,0.00118X0.02598*%
%ADD217R,0.00157X0.00827*%
%ADD218R,0.00157X0.02008*%
%ADD219R,0.00157X0.01181*%
%ADD220R,0.00118X0.01535*%
%ADD221R,0.00118X0.01772*%
%ADD222R,0.00118X0.16890*%
%ADD223R,0.00118X0.17244*%
%ADD224R,0.00118X0.17362*%
%ADD225R,0.00157X0.15748*%
%ADD226R,0.00157X0.15591*%
%ADD227R,0.00157X0.02953*%
%ADD228R,0.00118X0.03071*%
%ADD229R,0.00118X0.02953*%
%ADD230R,0.00118X0.01654*%
%ADD231R,0.00157X0.02480*%
%ADD232R,0.00118X0.02717*%
%ADD233R,0.00118X0.02835*%
%ADD234R,0.12402X0.00157*%
%ADD235R,0.12638X0.00118*%
%ADD236R,0.12874X0.00118*%
%ADD237R,0.13110X0.00079*%
%ADD238R,0.04961X0.00118*%
%ADD239R,0.05079X0.00118*%
%ADD240R,0.02835X0.00157*%
%ADD241R,0.13110X0.00118*%
%ADD242R,0.12402X0.00118*%
%ADD243R,0.00157X0.10551*%
%ADD244R,0.00157X0.07874*%
%ADD245R,0.00157X0.08031*%
%ADD246R,0.00157X0.08346*%
%ADD247R,0.00157X0.08504*%
%ADD248R,0.00157X0.09606*%
%ADD249R,0.00157X0.09764*%
%ADD250R,0.00157X0.10079*%
%ADD251R,0.00157X0.08661*%
%ADD252C,0.00300*%
%ADD253R,0.00118X0.20079*%
%ADD254R,0.00118X0.20197*%
%ADD255R,0.00079X0.20433*%
%ADD256R,0.00157X0.20551*%
%ADD257R,0.00118X0.20669*%
%ADD258R,0.00118X0.20787*%
%ADD259R,0.00079X0.08504*%
%ADD260R,0.00079X0.11929*%
%ADD261R,0.00118X0.04252*%
%ADD262R,0.00118X0.03189*%
%ADD263R,0.00157X0.01654*%
%ADD264R,0.00157X0.01772*%
%ADD265R,0.00118X0.07087*%
%ADD266R,0.00118X0.13228*%
%ADD267R,0.00118X0.07205*%
%ADD268R,0.00118X0.20551*%
%ADD269R,0.00118X0.20433*%
%ADD270R,0.00118X0.22559*%
%ADD271R,0.00118X0.22441*%
%ADD272R,0.00079X0.22323*%
%ADD273R,0.00157X0.22205*%
%ADD274R,0.00118X0.22087*%
%ADD275R,0.00118X0.21969*%
%ADD276R,0.00079X0.09449*%
%ADD277R,0.00079X0.12047*%
%ADD278R,0.00118X0.04961*%
%ADD279R,0.00118X0.05787*%
%ADD280R,0.00157X0.02598*%
%ADD281R,0.00118X0.08031*%
%ADD282R,0.00118X0.08386*%
%ADD283R,0.00118X0.13346*%
%ADD284R,0.00118X0.22205*%
%ADD285R,0.00118X0.22323*%
%ADD286C,0.00500*%
%ADD287C,0.01600*%
D10*
X0232728Y0201150D02*
X0232728Y0213861D01*
X0236965Y0213861D02*
X0236965Y0201150D01*
X0239084Y0205387D02*
X0230610Y0205387D01*
X0230610Y0209624D02*
X0236965Y0209624D01*
X0239084Y0209624D01*
X0244422Y0207505D02*
X0250777Y0207505D01*
X0252895Y0205387D01*
X0252895Y0203268D01*
X0250777Y0201150D01*
X0246540Y0201150D01*
X0244422Y0203268D01*
X0244422Y0207505D01*
X0248658Y0211742D01*
X0252895Y0213861D01*
X0258233Y0213861D02*
X0266707Y0213861D01*
X0266707Y0211742D01*
X0258233Y0203268D01*
X0258233Y0201150D01*
X0272045Y0207505D02*
X0280519Y0207505D01*
X0278401Y0201150D02*
X0278401Y0213861D01*
X0272045Y0207505D01*
D11*
X0216978Y0164825D02*
X0216086Y0165717D01*
X0216978Y0164825D02*
X0218763Y0164825D01*
X0219655Y0165717D01*
X0219655Y0166610D01*
X0218763Y0167502D01*
X0216978Y0167502D01*
X0216086Y0168395D01*
X0216086Y0169287D01*
X0216978Y0170180D01*
X0218763Y0170180D01*
X0219655Y0169287D01*
X0221840Y0168395D02*
X0224518Y0168395D01*
X0225410Y0167502D01*
X0225410Y0165717D01*
X0224518Y0164825D01*
X0221840Y0164825D01*
X0221840Y0163040D02*
X0221840Y0168395D01*
X0227595Y0167502D02*
X0228488Y0168395D01*
X0230273Y0168395D01*
X0231165Y0167502D01*
X0231165Y0166610D01*
X0227595Y0166610D01*
X0227595Y0167502D02*
X0227595Y0165717D01*
X0228488Y0164825D01*
X0230273Y0164825D01*
X0233350Y0165717D02*
X0234243Y0164825D01*
X0236920Y0164825D01*
X0239998Y0165717D02*
X0240890Y0164825D01*
X0239998Y0165717D02*
X0239998Y0169287D01*
X0240890Y0168395D02*
X0239105Y0168395D01*
X0236920Y0168395D02*
X0234243Y0168395D01*
X0233350Y0167502D01*
X0233350Y0165717D01*
X0231813Y0174825D02*
X0230029Y0174825D01*
X0229136Y0175717D01*
X0230029Y0177502D02*
X0229136Y0178395D01*
X0229136Y0179287D01*
X0230029Y0180180D01*
X0231813Y0180180D01*
X0232706Y0179287D01*
X0231813Y0177502D02*
X0232706Y0176610D01*
X0232706Y0175717D01*
X0231813Y0174825D01*
X0231813Y0177502D02*
X0230029Y0177502D01*
X0234891Y0177502D02*
X0236676Y0177502D01*
X0234891Y0174825D02*
X0238461Y0174825D01*
X0240646Y0174825D02*
X0240646Y0180180D01*
X0244216Y0174825D01*
X0244216Y0180180D01*
X0246401Y0177502D02*
X0249971Y0177502D01*
X0252156Y0178395D02*
X0253941Y0180180D01*
X0253941Y0174825D01*
X0252156Y0174825D02*
X0255726Y0174825D01*
X0257911Y0175717D02*
X0258803Y0174825D01*
X0260588Y0174825D01*
X0261480Y0175717D01*
X0261480Y0177502D01*
X0260588Y0178395D01*
X0259696Y0178395D01*
X0257911Y0177502D01*
X0257911Y0180180D01*
X0261480Y0180180D01*
X0263666Y0179287D02*
X0263666Y0175717D01*
X0267235Y0179287D01*
X0267235Y0175717D01*
X0266343Y0174825D01*
X0264558Y0174825D01*
X0263666Y0175717D01*
X0263666Y0179287D02*
X0264558Y0180180D01*
X0266343Y0180180D01*
X0267235Y0179287D01*
X0269421Y0180180D02*
X0269421Y0177502D01*
X0271205Y0178395D01*
X0272098Y0178395D01*
X0272990Y0177502D01*
X0272990Y0175717D01*
X0272098Y0174825D01*
X0270313Y0174825D01*
X0269421Y0175717D01*
X0269421Y0180180D02*
X0272990Y0180180D01*
X0275175Y0179287D02*
X0276068Y0180180D01*
X0277853Y0180180D01*
X0278745Y0179287D01*
X0275175Y0175717D01*
X0276068Y0174825D01*
X0277853Y0174825D01*
X0278745Y0175717D01*
X0278745Y0179287D01*
X0275175Y0179287D02*
X0275175Y0175717D01*
X0274527Y0171072D02*
X0274527Y0170180D01*
X0274527Y0168395D02*
X0274527Y0164825D01*
X0273635Y0164825D02*
X0275419Y0164825D01*
X0277471Y0165717D02*
X0278364Y0166610D01*
X0281041Y0166610D01*
X0281041Y0167502D02*
X0281041Y0164825D01*
X0278364Y0164825D01*
X0277471Y0165717D01*
X0278364Y0168395D02*
X0280148Y0168395D01*
X0281041Y0167502D01*
X0283226Y0167502D02*
X0284119Y0168395D01*
X0286796Y0168395D01*
X0286796Y0170180D02*
X0286796Y0164825D01*
X0284119Y0164825D01*
X0283226Y0165717D01*
X0283226Y0167502D01*
X0274527Y0168395D02*
X0273635Y0168395D01*
X0271516Y0168395D02*
X0270624Y0168395D01*
X0268839Y0166610D01*
X0268839Y0164825D02*
X0268839Y0168395D01*
X0266654Y0170180D02*
X0263084Y0170180D01*
X0264869Y0170180D02*
X0264869Y0164825D01*
X0255277Y0164825D02*
X0253492Y0164825D01*
X0254385Y0164825D02*
X0254385Y0170180D01*
X0253492Y0170180D01*
X0251307Y0167502D02*
X0251307Y0164825D01*
X0248630Y0164825D01*
X0247738Y0165717D01*
X0248630Y0166610D01*
X0251307Y0166610D01*
X0251307Y0167502D02*
X0250415Y0168395D01*
X0248630Y0168395D01*
X0245619Y0168395D02*
X0244727Y0168395D01*
X0242942Y0166610D01*
X0242942Y0164825D02*
X0242942Y0168395D01*
X0238461Y0180180D02*
X0234891Y0180180D01*
X0234891Y0174825D01*
D12*
X0322418Y0167759D02*
X0329757Y0167759D01*
X0326087Y0167759D02*
X0326087Y0156750D01*
X0334388Y0158585D02*
X0336223Y0160420D01*
X0341728Y0160420D01*
X0341728Y0162255D02*
X0341728Y0156750D01*
X0336223Y0156750D01*
X0334388Y0158585D01*
X0336223Y0164090D02*
X0339893Y0164090D01*
X0341728Y0162255D01*
X0346358Y0164090D02*
X0346358Y0153080D01*
X0346358Y0156750D02*
X0351863Y0156750D01*
X0353698Y0158585D01*
X0353698Y0162255D01*
X0351863Y0164090D01*
X0346358Y0164090D01*
X0344363Y0148259D02*
X0344363Y0137250D01*
X0351703Y0137250D01*
X0356333Y0139085D02*
X0358168Y0137250D01*
X0361838Y0137250D01*
X0363673Y0139085D01*
X0363673Y0140920D01*
X0361838Y0142755D01*
X0358168Y0142755D01*
X0356333Y0144590D01*
X0356333Y0146425D01*
X0358168Y0148259D01*
X0361838Y0148259D01*
X0363673Y0146425D01*
X0368304Y0148259D02*
X0375643Y0148259D01*
X0371973Y0148259D02*
X0371973Y0137250D01*
X0373968Y0156750D02*
X0372133Y0158585D01*
X0372133Y0165925D01*
X0370299Y0164090D02*
X0373968Y0164090D01*
X0378279Y0162255D02*
X0378279Y0158585D01*
X0380114Y0156750D01*
X0383783Y0156750D01*
X0385618Y0158585D01*
X0385618Y0162255D01*
X0383783Y0164090D01*
X0380114Y0164090D01*
X0378279Y0162255D01*
X0351703Y0148259D02*
X0344363Y0148259D01*
X0339732Y0148259D02*
X0332393Y0148259D01*
X0336063Y0148259D02*
X0336063Y0137250D01*
X0344363Y0142755D02*
X0348033Y0142755D01*
D13*
X0344988Y0195750D02*
X0344988Y0204257D01*
X0342153Y0204257D02*
X0347824Y0204257D01*
X0351360Y0204257D02*
X0351360Y0195750D01*
X0357032Y0195750D01*
X0360568Y0197168D02*
X0361986Y0195750D01*
X0364822Y0195750D01*
X0366240Y0197168D01*
X0366240Y0198586D01*
X0364822Y0200004D01*
X0361986Y0200004D01*
X0360568Y0201422D01*
X0360568Y0202839D01*
X0361986Y0204257D01*
X0364822Y0204257D01*
X0366240Y0202839D01*
X0369776Y0204257D02*
X0375448Y0204257D01*
X0372612Y0204257D02*
X0372612Y0195750D01*
X0357032Y0204257D02*
X0351360Y0204257D01*
X0351360Y0200004D02*
X0354196Y0200004D01*
X0357439Y0215750D02*
X0357439Y0224257D01*
X0360274Y0224257D02*
X0354603Y0224257D01*
X0351067Y0222839D02*
X0349649Y0224257D01*
X0346813Y0224257D01*
X0345395Y0222839D01*
X0345395Y0221422D01*
X0346813Y0220004D01*
X0349649Y0220004D01*
X0351067Y0218586D01*
X0351067Y0217168D01*
X0349649Y0215750D01*
X0346813Y0215750D01*
X0345395Y0217168D01*
X0341859Y0215750D02*
X0336187Y0215750D01*
X0336187Y0224257D01*
X0341859Y0224257D01*
X0339023Y0220004D02*
X0336187Y0220004D01*
X0332651Y0224257D02*
X0326979Y0224257D01*
X0329815Y0224257D02*
X0329815Y0215750D01*
X0323443Y0215750D02*
X0317772Y0215750D01*
X0317772Y0224257D01*
X0323443Y0224257D01*
X0320607Y0220004D02*
X0317772Y0220004D01*
X0314235Y0220004D02*
X0312817Y0218586D01*
X0308564Y0218586D01*
X0311399Y0218586D02*
X0314235Y0215750D01*
X0314235Y0220004D02*
X0314235Y0222839D01*
X0312817Y0224257D01*
X0308564Y0224257D01*
X0308564Y0215750D01*
X0305027Y0220004D02*
X0303609Y0218586D01*
X0299356Y0218586D01*
X0299356Y0215750D02*
X0299356Y0224257D01*
X0303609Y0224257D01*
X0305027Y0222839D01*
X0305027Y0220004D01*
X0304854Y0204257D02*
X0302018Y0201422D01*
X0299183Y0204257D01*
X0299183Y0195750D01*
X0304854Y0195750D02*
X0304854Y0204257D01*
X0308390Y0201422D02*
X0311226Y0204257D01*
X0314062Y0201422D01*
X0314062Y0195750D01*
X0317598Y0195750D02*
X0320434Y0195750D01*
X0319016Y0195750D02*
X0319016Y0204257D01*
X0317598Y0204257D02*
X0320434Y0204257D01*
X0323737Y0204257D02*
X0323737Y0195750D01*
X0329408Y0195750D02*
X0323737Y0204257D01*
X0329408Y0204257D02*
X0329408Y0195750D01*
X0314062Y0200004D02*
X0308390Y0200004D01*
X0308390Y0201422D02*
X0308390Y0195750D01*
X0450272Y0121422D02*
X0453107Y0115750D01*
X0455943Y0121422D01*
X0459479Y0121422D02*
X0462315Y0124257D01*
X0462315Y0115750D01*
X0459479Y0115750D02*
X0465151Y0115750D01*
X0468687Y0117168D02*
X0474359Y0122839D01*
X0474359Y0117168D01*
X0472941Y0115750D01*
X0470105Y0115750D01*
X0468687Y0117168D01*
X0468687Y0122839D01*
X0470105Y0124257D01*
X0472941Y0124257D01*
X0474359Y0122839D01*
D14*
X0440609Y0226600D02*
X0436072Y0226600D01*
X0436072Y0233406D01*
X0433430Y0233406D02*
X0431161Y0233406D01*
X0432295Y0233406D02*
X0432295Y0226600D01*
X0431161Y0226600D02*
X0433430Y0226600D01*
X0428332Y0226600D02*
X0428332Y0231137D01*
X0426063Y0233406D01*
X0423795Y0231137D01*
X0423795Y0226600D01*
X0423795Y0230003D02*
X0428332Y0230003D01*
X0420966Y0233406D02*
X0416428Y0233406D01*
X0416428Y0226600D01*
X0416428Y0230003D02*
X0418697Y0230003D01*
X0401337Y0228869D02*
X0401337Y0227734D01*
X0400203Y0226600D01*
X0397934Y0226600D01*
X0396800Y0227734D01*
X0397934Y0230003D02*
X0400203Y0230003D01*
X0401337Y0228869D01*
X0401337Y0232272D02*
X0400203Y0233406D01*
X0397934Y0233406D01*
X0396800Y0232272D01*
X0396800Y0231137D01*
X0397934Y0230003D01*
X0393971Y0228869D02*
X0393971Y0227734D01*
X0392836Y0226600D01*
X0390568Y0226600D01*
X0389433Y0227734D01*
X0390568Y0230003D02*
X0389433Y0231137D01*
X0389433Y0232272D01*
X0390568Y0233406D01*
X0392836Y0233406D01*
X0393971Y0232272D01*
X0392836Y0230003D02*
X0393971Y0228869D01*
X0392836Y0230003D02*
X0390568Y0230003D01*
X0386604Y0230003D02*
X0382067Y0230003D01*
X0382067Y0231137D02*
X0384336Y0233406D01*
X0386604Y0231137D01*
X0386604Y0226600D01*
X0382067Y0226600D02*
X0382067Y0231137D01*
X0379238Y0230003D02*
X0378104Y0228869D01*
X0374701Y0228869D01*
X0374701Y0226600D02*
X0374701Y0233406D01*
X0378104Y0233406D01*
X0379238Y0232272D01*
X0379238Y0230003D01*
D15*
X0438333Y0210000D02*
X0298333Y0210000D01*
D16*
X0378885Y0203937D02*
X0378885Y0196063D01*
X0384396Y0196063D01*
X0387152Y0197638D02*
X0387152Y0202362D01*
X0389514Y0200000D01*
X0387152Y0197638D01*
X0389514Y0197244D02*
X0389514Y0200000D01*
X0389514Y0202756D01*
X0392270Y0203937D02*
X0397782Y0203937D01*
X0397782Y0196063D01*
X0392270Y0196063D01*
X0384396Y0203937D02*
X0378885Y0203937D01*
X0378885Y0216063D02*
X0384396Y0216063D01*
X0387152Y0217638D02*
X0389514Y0220000D01*
X0387152Y0222362D01*
X0387152Y0217638D01*
X0389514Y0217244D02*
X0389514Y0220000D01*
X0389514Y0222756D01*
X0392270Y0223937D02*
X0397782Y0223937D01*
X0397782Y0216063D01*
X0392270Y0216063D01*
X0384396Y0223937D02*
X0378885Y0223937D01*
X0378885Y0216063D01*
X0408333Y0214469D02*
X0408333Y0218688D01*
X0408333Y0222625D02*
X0408333Y0226844D01*
X0408333Y0230781D02*
X0408333Y0235000D01*
X0418885Y0223937D02*
X0418885Y0216063D01*
X0424396Y0216063D01*
X0427152Y0217638D02*
X0429514Y0220000D01*
X0427152Y0222362D01*
X0427152Y0217638D01*
X0429514Y0217244D02*
X0429514Y0220000D01*
X0429514Y0222756D01*
X0432270Y0223937D02*
X0437782Y0223937D01*
X0437782Y0216063D01*
X0432270Y0216063D01*
X0424396Y0223937D02*
X0418885Y0223937D01*
X0408333Y0210531D02*
X0408333Y0206312D01*
X0408333Y0202375D02*
X0408333Y0198156D01*
X0408333Y0194219D02*
X0408333Y0190000D01*
X0418885Y0196063D02*
X0418885Y0203937D01*
X0424396Y0203937D01*
X0427152Y0202362D02*
X0427152Y0197638D01*
X0429514Y0200000D01*
X0427152Y0202362D01*
X0429514Y0202756D02*
X0429514Y0200000D01*
X0429514Y0197244D01*
X0432270Y0196063D02*
X0437782Y0196063D01*
X0437782Y0203937D01*
X0432270Y0203937D01*
X0424396Y0196063D02*
X0418885Y0196063D01*
X0459833Y0422300D02*
X0491833Y0422300D01*
X0491909Y0422302D01*
X0491985Y0422308D01*
X0492060Y0422317D01*
X0492135Y0422331D01*
X0492209Y0422348D01*
X0492282Y0422369D01*
X0492354Y0422393D01*
X0492425Y0422422D01*
X0492494Y0422453D01*
X0492561Y0422488D01*
X0492626Y0422527D01*
X0492690Y0422569D01*
X0492751Y0422614D01*
X0492810Y0422662D01*
X0492866Y0422713D01*
X0492920Y0422767D01*
X0492971Y0422823D01*
X0493019Y0422882D01*
X0493064Y0422943D01*
X0493106Y0423007D01*
X0493145Y0423072D01*
X0493180Y0423139D01*
X0493211Y0423208D01*
X0493240Y0423279D01*
X0493264Y0423351D01*
X0493285Y0423424D01*
X0493302Y0423498D01*
X0493316Y0423573D01*
X0493325Y0423648D01*
X0493331Y0423724D01*
X0493333Y0423800D01*
X0493333Y0428000D01*
X0493333Y0432000D01*
X0493333Y0436200D01*
X0493333Y0436300D02*
X0458333Y0436300D01*
X0458333Y0436200D02*
X0458333Y0423800D01*
X0458335Y0423724D01*
X0458341Y0423648D01*
X0458350Y0423573D01*
X0458364Y0423498D01*
X0458381Y0423424D01*
X0458402Y0423351D01*
X0458426Y0423279D01*
X0458455Y0423208D01*
X0458486Y0423139D01*
X0458521Y0423072D01*
X0458560Y0423007D01*
X0458602Y0422943D01*
X0458647Y0422882D01*
X0458695Y0422823D01*
X0458746Y0422767D01*
X0458800Y0422713D01*
X0458856Y0422662D01*
X0458915Y0422614D01*
X0458976Y0422569D01*
X0459040Y0422527D01*
X0459105Y0422488D01*
X0459172Y0422453D01*
X0459241Y0422422D01*
X0459312Y0422393D01*
X0459384Y0422369D01*
X0459457Y0422348D01*
X0459531Y0422331D01*
X0459606Y0422317D01*
X0459681Y0422308D01*
X0459757Y0422302D01*
X0459833Y0422300D01*
X0458333Y0436200D02*
X0458335Y0436276D01*
X0458341Y0436352D01*
X0458350Y0436427D01*
X0458364Y0436502D01*
X0458381Y0436576D01*
X0458402Y0436649D01*
X0458426Y0436721D01*
X0458455Y0436792D01*
X0458486Y0436861D01*
X0458521Y0436928D01*
X0458560Y0436993D01*
X0458602Y0437057D01*
X0458647Y0437118D01*
X0458695Y0437177D01*
X0458746Y0437233D01*
X0458800Y0437287D01*
X0458856Y0437338D01*
X0458915Y0437386D01*
X0458976Y0437431D01*
X0459040Y0437473D01*
X0459105Y0437512D01*
X0459172Y0437547D01*
X0459241Y0437578D01*
X0459312Y0437607D01*
X0459384Y0437631D01*
X0459457Y0437652D01*
X0459531Y0437669D01*
X0459606Y0437683D01*
X0459681Y0437692D01*
X0459757Y0437698D01*
X0459833Y0437700D01*
X0491833Y0437700D01*
X0491909Y0437698D01*
X0491985Y0437692D01*
X0492060Y0437683D01*
X0492135Y0437669D01*
X0492209Y0437652D01*
X0492282Y0437631D01*
X0492354Y0437607D01*
X0492425Y0437578D01*
X0492494Y0437547D01*
X0492561Y0437512D01*
X0492626Y0437473D01*
X0492690Y0437431D01*
X0492751Y0437386D01*
X0492810Y0437338D01*
X0492866Y0437287D01*
X0492920Y0437233D01*
X0492971Y0437177D01*
X0493019Y0437118D01*
X0493064Y0437057D01*
X0493106Y0436993D01*
X0493145Y0436928D01*
X0493180Y0436861D01*
X0493211Y0436792D01*
X0493240Y0436721D01*
X0493264Y0436649D01*
X0493285Y0436576D01*
X0493302Y0436502D01*
X0493316Y0436427D01*
X0493325Y0436352D01*
X0493331Y0436276D01*
X0493333Y0436200D01*
X0493333Y0432000D02*
X0493245Y0431998D01*
X0493156Y0431992D01*
X0493068Y0431982D01*
X0492981Y0431969D01*
X0492894Y0431951D01*
X0492808Y0431930D01*
X0492723Y0431905D01*
X0492640Y0431876D01*
X0492557Y0431843D01*
X0492477Y0431807D01*
X0492398Y0431768D01*
X0492320Y0431725D01*
X0492245Y0431678D01*
X0492172Y0431628D01*
X0492101Y0431575D01*
X0492032Y0431519D01*
X0491966Y0431460D01*
X0491903Y0431398D01*
X0491843Y0431334D01*
X0491785Y0431267D01*
X0491731Y0431197D01*
X0491679Y0431125D01*
X0491631Y0431051D01*
X0491586Y0430974D01*
X0491545Y0430896D01*
X0491507Y0430816D01*
X0491473Y0430735D01*
X0491442Y0430652D01*
X0491415Y0430567D01*
X0491392Y0430482D01*
X0491373Y0430396D01*
X0491357Y0430308D01*
X0491345Y0430221D01*
X0491337Y0430133D01*
X0491333Y0430044D01*
X0491333Y0429956D01*
X0491337Y0429867D01*
X0491345Y0429779D01*
X0491357Y0429692D01*
X0491373Y0429604D01*
X0491392Y0429518D01*
X0491415Y0429433D01*
X0491442Y0429348D01*
X0491473Y0429265D01*
X0491507Y0429184D01*
X0491545Y0429104D01*
X0491586Y0429026D01*
X0491631Y0428949D01*
X0491679Y0428875D01*
X0491731Y0428803D01*
X0491785Y0428733D01*
X0491843Y0428666D01*
X0491903Y0428602D01*
X0491966Y0428540D01*
X0492032Y0428481D01*
X0492101Y0428425D01*
X0492172Y0428372D01*
X0492245Y0428322D01*
X0492320Y0428275D01*
X0492398Y0428232D01*
X0492477Y0428193D01*
X0492557Y0428157D01*
X0492640Y0428124D01*
X0492723Y0428095D01*
X0492808Y0428070D01*
X0492894Y0428049D01*
X0492981Y0428031D01*
X0493068Y0428018D01*
X0493156Y0428008D01*
X0493245Y0428002D01*
X0493333Y0428000D01*
D17*
X0486562Y0459800D02*
X0485428Y0459800D01*
X0484861Y0460367D01*
X0484861Y0462636D01*
X0485428Y0463203D01*
X0486562Y0463203D01*
X0487130Y0462636D01*
X0487130Y0460367D02*
X0486562Y0459800D01*
X0483446Y0459800D02*
X0481178Y0459800D01*
X0483446Y0462069D01*
X0483446Y0462636D01*
X0482879Y0463203D01*
X0481745Y0463203D01*
X0481178Y0462636D01*
X0479857Y0463203D02*
X0478722Y0463203D01*
X0479290Y0463203D02*
X0479290Y0459800D01*
X0479857Y0459800D02*
X0478722Y0459800D01*
X0470121Y0400770D02*
X0470121Y0400203D01*
X0470121Y0399069D02*
X0470121Y0396800D01*
X0469554Y0396800D02*
X0470688Y0396800D01*
X0472010Y0397367D02*
X0472577Y0397934D01*
X0474278Y0397934D01*
X0474278Y0398501D02*
X0474278Y0396800D01*
X0472577Y0396800D01*
X0472010Y0397367D01*
X0472577Y0399069D02*
X0473711Y0399069D01*
X0474278Y0398501D01*
X0475693Y0396800D02*
X0476827Y0396800D01*
X0476260Y0396800D02*
X0476260Y0400203D01*
X0475693Y0400203D01*
X0470121Y0399069D02*
X0469554Y0399069D01*
X0468186Y0399069D02*
X0467619Y0399069D01*
X0466485Y0397934D01*
X0466485Y0396800D02*
X0466485Y0399069D01*
X0465070Y0398501D02*
X0465070Y0397934D01*
X0462802Y0397934D01*
X0462802Y0397367D02*
X0462802Y0398501D01*
X0463369Y0399069D01*
X0464503Y0399069D01*
X0465070Y0398501D01*
X0464503Y0396800D02*
X0463369Y0396800D01*
X0462802Y0397367D01*
X0461387Y0397367D02*
X0460820Y0396800D01*
X0459686Y0396800D01*
X0459119Y0397367D01*
X0459686Y0398501D02*
X0460820Y0398501D01*
X0461387Y0397934D01*
X0461387Y0397367D01*
X0459686Y0398501D02*
X0459119Y0399069D01*
X0459119Y0399636D01*
X0459686Y0400203D01*
X0460820Y0400203D01*
X0461387Y0399636D01*
D18*
X0386483Y0295319D03*
X0380184Y0295319D03*
D19*
X0380341Y0295555D03*
X0376483Y0295713D03*
X0376325Y0295713D03*
X0376168Y0295713D03*
X0376010Y0295713D03*
X0375853Y0295713D03*
X0375696Y0295713D03*
X0375538Y0295713D03*
X0371129Y0295713D03*
X0370971Y0295713D03*
X0370814Y0295713D03*
X0370656Y0295713D03*
X0370499Y0295713D03*
X0370341Y0295713D03*
X0370184Y0295713D03*
X0386325Y0295555D03*
X0390971Y0295555D03*
X0395696Y0295555D03*
X0346325Y0295343D03*
X0340341Y0295343D03*
X0325538Y0295555D03*
X0321129Y0295555D03*
X0360184Y0394213D03*
X0360341Y0394213D03*
X0360499Y0394213D03*
X0360656Y0394213D03*
X0360814Y0394213D03*
X0360971Y0394213D03*
X0361129Y0394213D03*
X0365538Y0394213D03*
X0365696Y0394213D03*
X0365853Y0394213D03*
X0366010Y0394213D03*
X0366168Y0394213D03*
X0366325Y0394213D03*
X0366483Y0394213D03*
X0400656Y0394740D03*
X0406010Y0394740D03*
D20*
X0405696Y0394583D03*
X0400971Y0394583D03*
X0386168Y0295713D03*
X0380499Y0295713D03*
X0346168Y0295500D03*
X0340499Y0295500D03*
X0325853Y0295713D03*
X0320814Y0295713D03*
D21*
X0320499Y0295870D03*
X0315538Y0295370D03*
X0311129Y0295370D03*
X0326168Y0295870D03*
X0345853Y0295657D03*
X0380656Y0295870D03*
X0386010Y0295870D03*
D22*
X0385853Y0295949D03*
X0380814Y0295949D03*
X0326325Y0295949D03*
X0320341Y0295949D03*
X0315696Y0295449D03*
X0310971Y0295449D03*
D23*
X0310814Y0295528D03*
X0315853Y0295528D03*
X0320184Y0296028D03*
X0326483Y0296028D03*
X0360184Y0296028D03*
X0360341Y0296028D03*
X0360499Y0296028D03*
X0360656Y0296028D03*
X0360814Y0296028D03*
X0360971Y0296028D03*
X0361129Y0296028D03*
X0365538Y0296028D03*
X0365696Y0296028D03*
X0365853Y0296028D03*
X0366010Y0296028D03*
X0366168Y0296028D03*
X0366325Y0296028D03*
X0366483Y0296028D03*
X0380971Y0296028D03*
X0385696Y0296028D03*
X0346483Y0394028D03*
X0346325Y0394028D03*
X0346168Y0394028D03*
X0346010Y0394028D03*
X0345853Y0394028D03*
X0345696Y0394028D03*
X0345538Y0394028D03*
X0341129Y0394028D03*
X0340971Y0394028D03*
X0340814Y0394028D03*
X0340656Y0394028D03*
X0340499Y0394028D03*
X0340341Y0394028D03*
X0340184Y0394028D03*
D24*
X0316010Y0295606D03*
X0310656Y0295606D03*
X0381129Y0296106D03*
X0385538Y0296106D03*
D25*
X0383648Y0289807D03*
X0381286Y0289807D03*
X0385066Y0302720D03*
X0385223Y0302720D03*
X0395066Y0301776D03*
X0395223Y0301776D03*
X0395381Y0301618D03*
X0393963Y0295949D03*
X0393806Y0295949D03*
X0393648Y0295949D03*
X0393491Y0295949D03*
X0393333Y0295949D03*
X0393176Y0295949D03*
X0393018Y0295949D03*
X0392861Y0295949D03*
X0391286Y0289807D03*
X0373648Y0289965D03*
X0373491Y0289965D03*
X0373333Y0289965D03*
X0373176Y0289965D03*
X0373018Y0289965D03*
X0372861Y0289965D03*
X0371286Y0289965D03*
X0365223Y0289807D03*
X0362546Y0292799D03*
X0365223Y0302248D03*
X0371286Y0301461D03*
X0335696Y0298571D03*
X0333333Y0294949D03*
X0325066Y0296264D03*
X0323963Y0297839D03*
X0345223Y0387807D03*
X0342546Y0390799D03*
X0345223Y0400248D03*
X0351286Y0397819D03*
X0354121Y0400181D03*
X0354278Y0400181D03*
X0355381Y0396087D03*
X0361286Y0399961D03*
X0361286Y0388465D03*
X0362861Y0388465D03*
X0363018Y0388465D03*
X0363176Y0388465D03*
X0363333Y0388465D03*
X0363491Y0388465D03*
X0363648Y0388465D03*
X0374121Y0392835D03*
X0374278Y0392835D03*
X0374436Y0392992D03*
X0373963Y0396457D03*
X0402861Y0395449D03*
X0403018Y0395449D03*
X0403176Y0395449D03*
X0403333Y0395449D03*
X0403491Y0395449D03*
X0403648Y0395449D03*
X0403806Y0395449D03*
X0403963Y0395449D03*
X0403806Y0400488D03*
X0403018Y0400488D03*
X0421759Y0378083D03*
X0423963Y0378083D03*
X0423806Y0368791D03*
X0421759Y0368791D03*
X0421759Y0365327D03*
X0401888Y0371012D03*
D26*
X0381286Y0297996D03*
D27*
X0375223Y0297366D03*
X0375223Y0294059D03*
X0375381Y0289807D03*
X0381444Y0289650D03*
X0375381Y0301618D03*
X0365066Y0302406D03*
X0361759Y0302406D03*
X0361759Y0289650D03*
X0365066Y0289650D03*
X0344278Y0289437D03*
X0324751Y0296106D03*
X0324593Y0296106D03*
X0324436Y0296106D03*
X0315381Y0301433D03*
X0341759Y0387650D03*
X0345066Y0387650D03*
X0351444Y0397819D03*
X0353491Y0400339D03*
X0353648Y0400339D03*
X0345066Y0400406D03*
X0341759Y0400406D03*
X0365381Y0400118D03*
X0365223Y0395866D03*
X0365223Y0392559D03*
X0365381Y0388307D03*
X0373648Y0396457D03*
X0373806Y0396457D03*
X0375538Y0393937D03*
X0374908Y0393307D03*
X0374751Y0393150D03*
X0402703Y0400646D03*
X0404121Y0400646D03*
X0405381Y0393087D03*
X0421759Y0372413D03*
X0424121Y0368634D03*
X0421601Y0365327D03*
X0395381Y0293587D03*
X0395381Y0289650D03*
D28*
X0394278Y0291618D03*
X0393018Y0292878D03*
X0392388Y0293193D03*
X0392073Y0293350D03*
X0391916Y0293508D03*
X0392388Y0295555D03*
X0391444Y0296972D03*
X0394908Y0293508D03*
X0385223Y0296657D03*
X0384278Y0291618D03*
X0381444Y0293035D03*
X0374278Y0291776D03*
X0374121Y0291776D03*
X0372703Y0291618D03*
X0372546Y0291776D03*
X0371444Y0293193D03*
X0373018Y0293665D03*
X0373018Y0295713D03*
X0372861Y0295713D03*
X0371444Y0298232D03*
X0372703Y0299492D03*
X0372546Y0299650D03*
X0374121Y0299650D03*
X0374278Y0299650D03*
X0364278Y0299965D03*
X0362546Y0299965D03*
X0362231Y0296343D03*
X0364593Y0295870D03*
X0362388Y0292248D03*
X0363018Y0291618D03*
X0354593Y0293350D03*
X0352231Y0293823D03*
X0343648Y0295500D03*
X0343491Y0295500D03*
X0335696Y0292823D03*
X0335538Y0291248D03*
X0332546Y0292508D03*
X0323176Y0291776D03*
X0321601Y0293350D03*
X0322546Y0295398D03*
X0323018Y0295398D03*
X0323176Y0295398D03*
X0323491Y0297445D03*
X0324278Y0298862D03*
X0323176Y0300437D03*
X0324278Y0300909D03*
X0321759Y0297130D03*
X0314751Y0291276D03*
X0314593Y0291276D03*
X0313176Y0291276D03*
X0343018Y0389618D03*
X0342388Y0390248D03*
X0342231Y0394343D03*
X0344593Y0393870D03*
X0344278Y0397965D03*
X0342546Y0397965D03*
X0354278Y0393961D03*
X0361444Y0391693D03*
X0363018Y0392165D03*
X0362546Y0390276D03*
X0362703Y0390118D03*
X0364121Y0390276D03*
X0364278Y0390276D03*
X0363018Y0394213D03*
X0362861Y0394213D03*
X0361444Y0396732D03*
X0362703Y0397992D03*
X0362546Y0398150D03*
X0364121Y0398150D03*
X0364278Y0398150D03*
X0401444Y0396472D03*
X0402388Y0395055D03*
X0401916Y0393008D03*
X0402073Y0392850D03*
X0402388Y0392693D03*
X0403018Y0392378D03*
X0404278Y0391118D03*
X0404908Y0393008D03*
X0421601Y0386823D03*
X0425066Y0386823D03*
X0424908Y0381941D03*
X0424751Y0381941D03*
X0424593Y0381941D03*
X0424436Y0381941D03*
X0424278Y0381941D03*
X0424121Y0381941D03*
X0423963Y0381941D03*
X0423806Y0381941D03*
X0423648Y0381941D03*
X0423491Y0381941D03*
X0423333Y0381941D03*
X0423176Y0381941D03*
X0423018Y0381941D03*
X0422861Y0381941D03*
X0422703Y0381941D03*
X0422546Y0381941D03*
X0422388Y0381941D03*
X0422231Y0381941D03*
X0422546Y0379421D03*
X0422703Y0379421D03*
X0422861Y0379421D03*
X0423018Y0379421D03*
X0424593Y0379264D03*
X0424908Y0379421D03*
X0425066Y0379421D03*
X0425066Y0377217D03*
X0425223Y0377217D03*
X0424908Y0377217D03*
X0424751Y0377217D03*
X0424593Y0377217D03*
X0424436Y0377217D03*
X0423176Y0377217D03*
X0423018Y0377217D03*
X0422861Y0377217D03*
X0422703Y0377217D03*
X0422546Y0377217D03*
X0422388Y0377217D03*
X0424121Y0373437D03*
X0424278Y0373437D03*
X0424436Y0373280D03*
X0422703Y0371547D03*
X0422546Y0371390D03*
X0422231Y0371547D03*
X0421286Y0372335D03*
X0422703Y0370130D03*
X0422861Y0370130D03*
X0423176Y0369972D03*
X0422546Y0369972D03*
X0422546Y0367925D03*
X0422703Y0367925D03*
X0422861Y0367925D03*
X0423018Y0367925D03*
X0423176Y0367925D03*
X0422388Y0367925D03*
X0424436Y0367925D03*
X0424593Y0367925D03*
X0424751Y0367925D03*
X0424908Y0367925D03*
X0425066Y0367925D03*
X0424436Y0366350D03*
X0424278Y0366350D03*
X0424121Y0366350D03*
X0423963Y0366350D03*
X0423963Y0363831D03*
X0423806Y0363831D03*
X0423648Y0363831D03*
X0423333Y0363673D03*
X0423018Y0363831D03*
X0422861Y0363831D03*
X0421286Y0365406D03*
D29*
X0422073Y0365169D03*
X0424751Y0365327D03*
X0423491Y0368949D03*
X0423333Y0368949D03*
X0422231Y0368949D03*
X0422231Y0378240D03*
X0422073Y0378240D03*
X0423333Y0378240D03*
X0423491Y0378240D03*
X0405066Y0388362D03*
X0404908Y0388205D03*
X0404751Y0388205D03*
X0404593Y0388047D03*
X0403491Y0400331D03*
X0403333Y0400331D03*
X0374278Y0396772D03*
X0373491Y0400079D03*
X0373806Y0392677D03*
X0354908Y0400024D03*
X0354751Y0400024D03*
X0345381Y0387965D03*
X0342703Y0303295D03*
X0352231Y0299728D03*
X0352388Y0299728D03*
X0352546Y0299728D03*
X0352703Y0299728D03*
X0352861Y0299728D03*
X0353018Y0299728D03*
X0353176Y0299728D03*
X0353333Y0299728D03*
X0353491Y0299728D03*
X0353648Y0299728D03*
X0353806Y0299728D03*
X0353963Y0299728D03*
X0354121Y0299728D03*
X0354278Y0299728D03*
X0354436Y0299728D03*
X0354593Y0299728D03*
X0354751Y0299728D03*
X0354908Y0299728D03*
X0355066Y0299728D03*
X0355223Y0299728D03*
X0365381Y0289965D03*
X0381444Y0297366D03*
X0384751Y0302720D03*
X0344436Y0289752D03*
X0335381Y0298728D03*
X0332703Y0299988D03*
X0325381Y0300988D03*
D30*
X0333176Y0299437D03*
X0333333Y0299437D03*
X0333491Y0299437D03*
X0333648Y0299437D03*
X0333806Y0299437D03*
X0344593Y0302114D03*
X0381444Y0301854D03*
X0381759Y0302012D03*
X0382073Y0302169D03*
X0382546Y0302327D03*
D31*
X0385223Y0299256D03*
X0381759Y0297524D03*
X0382703Y0292484D03*
X0383333Y0289492D03*
X0381601Y0289492D03*
X0375223Y0289650D03*
X0372703Y0289650D03*
X0371601Y0289650D03*
X0375066Y0294059D03*
X0375066Y0297366D03*
X0373491Y0298154D03*
X0373333Y0298154D03*
X0373333Y0301776D03*
X0371601Y0301776D03*
X0375223Y0301776D03*
X0364751Y0302563D03*
X0362073Y0302563D03*
X0355381Y0296264D03*
X0361916Y0289492D03*
X0362073Y0289492D03*
X0364751Y0289492D03*
X0344121Y0289280D03*
X0344593Y0297941D03*
X0344751Y0297941D03*
X0344908Y0297941D03*
X0345066Y0297941D03*
X0345223Y0297941D03*
X0345381Y0297941D03*
X0345538Y0297941D03*
X0343491Y0297941D03*
X0343333Y0297941D03*
X0345066Y0302823D03*
X0325066Y0301146D03*
X0322861Y0299886D03*
X0323806Y0297681D03*
X0315223Y0301433D03*
X0341916Y0387492D03*
X0342073Y0387492D03*
X0344751Y0387492D03*
X0352546Y0394984D03*
X0352703Y0394984D03*
X0355066Y0396244D03*
X0351759Y0397819D03*
X0351601Y0397819D03*
X0351286Y0400496D03*
X0352861Y0400496D03*
X0353018Y0400496D03*
X0361601Y0400276D03*
X0363333Y0400276D03*
X0365223Y0400276D03*
X0363491Y0396654D03*
X0363333Y0396654D03*
X0365066Y0395866D03*
X0365066Y0392559D03*
X0365223Y0388150D03*
X0362703Y0388150D03*
X0361601Y0388150D03*
X0355381Y0392150D03*
X0344751Y0400563D03*
X0342073Y0400563D03*
X0372388Y0400551D03*
X0373806Y0400551D03*
X0373491Y0396457D03*
X0401286Y0400803D03*
X0402388Y0400803D03*
X0404436Y0400803D03*
X0402703Y0391984D03*
X0421444Y0377925D03*
X0423963Y0375248D03*
X0424121Y0375248D03*
X0424278Y0375248D03*
X0424436Y0375248D03*
X0421601Y0372413D03*
X0423018Y0385327D03*
X0423806Y0385327D03*
X0392703Y0292484D03*
X0393333Y0289492D03*
X0391601Y0289492D03*
D32*
X0393176Y0293035D03*
X0394593Y0293508D03*
X0394751Y0293508D03*
X0394436Y0295555D03*
X0392546Y0296972D03*
X0385066Y0293193D03*
X0383176Y0293193D03*
X0382231Y0293193D03*
X0381601Y0293193D03*
X0383176Y0297602D03*
X0383333Y0297602D03*
X0374436Y0299650D03*
X0372388Y0299650D03*
X0371601Y0298232D03*
X0372388Y0297917D03*
X0372546Y0297917D03*
X0373176Y0295713D03*
X0373333Y0295713D03*
X0372703Y0293665D03*
X0371601Y0293193D03*
X0372388Y0291776D03*
X0374436Y0291776D03*
X0364436Y0292248D03*
X0362388Y0293823D03*
X0361601Y0293823D03*
X0362703Y0296500D03*
X0364121Y0295713D03*
X0364278Y0295713D03*
X0365381Y0298075D03*
X0354121Y0293193D03*
X0352703Y0293980D03*
X0352546Y0293980D03*
X0344908Y0291091D03*
X0343176Y0291091D03*
X0344121Y0295657D03*
X0344278Y0295657D03*
X0344278Y0298650D03*
X0344121Y0298650D03*
X0343963Y0298650D03*
X0343806Y0298650D03*
X0334908Y0293925D03*
X0334121Y0292823D03*
X0333176Y0293925D03*
X0332703Y0292508D03*
X0333176Y0291091D03*
X0333963Y0291091D03*
X0334908Y0291091D03*
X0335066Y0291091D03*
X0323806Y0293508D03*
X0321916Y0293508D03*
X0321916Y0297130D03*
X0323333Y0297287D03*
X0322388Y0298862D03*
X0324436Y0298862D03*
X0323648Y0300594D03*
X0323491Y0300594D03*
X0323963Y0300752D03*
X0314751Y0298677D03*
X0311916Y0298677D03*
X0311444Y0292535D03*
X0344436Y0390248D03*
X0342388Y0391823D03*
X0341601Y0391823D03*
X0342703Y0394500D03*
X0344121Y0393713D03*
X0344278Y0393713D03*
X0345381Y0396075D03*
X0352231Y0395535D03*
X0354436Y0393961D03*
X0361601Y0391693D03*
X0362703Y0392165D03*
X0362388Y0390276D03*
X0364436Y0390276D03*
X0363333Y0394213D03*
X0363176Y0394213D03*
X0362546Y0396417D03*
X0362388Y0396417D03*
X0361601Y0396732D03*
X0362388Y0398150D03*
X0364436Y0398150D03*
X0373176Y0396063D03*
X0374908Y0396063D03*
X0374751Y0397323D03*
X0375538Y0397480D03*
X0374908Y0398740D03*
X0401916Y0398362D03*
X0402546Y0396472D03*
X0404436Y0395055D03*
X0404593Y0393008D03*
X0404751Y0393008D03*
X0403176Y0392535D03*
X0404751Y0398362D03*
X0421444Y0386823D03*
X0425381Y0384618D03*
X0425381Y0381941D03*
X0425381Y0379421D03*
X0425381Y0377217D03*
X0424278Y0371390D03*
X0425381Y0367925D03*
X0422388Y0366193D03*
D33*
X0421601Y0368713D03*
X0423963Y0368713D03*
X0425066Y0365406D03*
X0424908Y0372335D03*
X0422073Y0372335D03*
X0421916Y0372335D03*
X0421601Y0378004D03*
X0404121Y0395528D03*
X0402703Y0395528D03*
X0402861Y0400567D03*
X0403963Y0400567D03*
X0375696Y0394173D03*
X0374593Y0393071D03*
X0373648Y0400315D03*
X0353963Y0400260D03*
X0353806Y0400260D03*
X0341601Y0400327D03*
X0341601Y0387728D03*
X0361601Y0302327D03*
X0361601Y0289728D03*
X0343333Y0292035D03*
X0333491Y0295028D03*
X0325223Y0292563D03*
X0325066Y0292563D03*
X0324908Y0292563D03*
X0324751Y0292563D03*
X0324593Y0292563D03*
X0324436Y0292563D03*
X0324908Y0296185D03*
X0322703Y0299807D03*
X0321444Y0301067D03*
X0325223Y0301067D03*
X0311286Y0301354D03*
X0381601Y0297445D03*
X0385381Y0289728D03*
X0393648Y0289728D03*
X0394121Y0296028D03*
X0392703Y0296028D03*
D34*
X0382861Y0302406D03*
X0382703Y0302406D03*
X0382388Y0302248D03*
X0382231Y0302248D03*
X0381916Y0302091D03*
X0381601Y0301933D03*
X0344751Y0302035D03*
X0333963Y0299358D03*
X0333018Y0299516D03*
D35*
X0331444Y0299437D03*
X0335696Y0295500D03*
X0334593Y0293295D03*
X0334436Y0293138D03*
X0342388Y0292823D03*
X0343648Y0292193D03*
X0345696Y0294083D03*
X0343176Y0298020D03*
X0345223Y0302744D03*
X0345538Y0289201D03*
X0343963Y0289201D03*
X0342546Y0289201D03*
X0362231Y0289413D03*
X0364436Y0289413D03*
X0364593Y0289413D03*
X0371759Y0289571D03*
X0375066Y0289571D03*
X0374908Y0294138D03*
X0374908Y0297287D03*
X0373176Y0298232D03*
X0373018Y0298232D03*
X0371916Y0295713D03*
X0371759Y0295713D03*
X0371759Y0301854D03*
X0373176Y0301854D03*
X0375066Y0301854D03*
X0381916Y0297602D03*
X0385066Y0299177D03*
X0385066Y0289413D03*
X0384908Y0289413D03*
X0384121Y0289413D03*
X0383176Y0289413D03*
X0383018Y0289413D03*
X0381916Y0289413D03*
X0381759Y0289413D03*
X0391759Y0289413D03*
X0391916Y0289413D03*
X0393176Y0289413D03*
X0394121Y0289413D03*
X0395066Y0289413D03*
X0364593Y0302642D03*
X0364436Y0302642D03*
X0362231Y0302642D03*
X0324908Y0301067D03*
X0321759Y0301067D03*
X0325381Y0289413D03*
X0315381Y0288913D03*
X0315381Y0296315D03*
X0313491Y0300094D03*
X0313333Y0300094D03*
X0311601Y0301354D03*
X0315066Y0301354D03*
X0342231Y0387413D03*
X0344436Y0387413D03*
X0344593Y0387413D03*
X0351444Y0392071D03*
X0351601Y0392071D03*
X0353806Y0392071D03*
X0354278Y0392071D03*
X0355223Y0392071D03*
X0352388Y0394906D03*
X0354908Y0396165D03*
X0352703Y0400575D03*
X0352546Y0400575D03*
X0344593Y0400642D03*
X0344436Y0400642D03*
X0342231Y0400642D03*
X0361759Y0400354D03*
X0363176Y0400354D03*
X0365066Y0400354D03*
X0363176Y0396732D03*
X0363018Y0396732D03*
X0364908Y0395787D03*
X0364908Y0392638D03*
X0361916Y0394213D03*
X0361759Y0394213D03*
X0361759Y0388071D03*
X0365066Y0388071D03*
X0371601Y0393228D03*
X0372546Y0400630D03*
X0373176Y0400630D03*
X0375538Y0400630D03*
X0401444Y0400882D03*
X0402231Y0400882D03*
X0404593Y0400882D03*
X0405381Y0400882D03*
X0423176Y0385248D03*
X0423648Y0385248D03*
X0424593Y0375327D03*
X0423648Y0372807D03*
X0423018Y0372020D03*
X0425223Y0372335D03*
X0424278Y0368398D03*
D36*
X0425381Y0386744D03*
X0404436Y0392929D03*
X0404278Y0392929D03*
X0402231Y0391197D03*
X0402388Y0396551D03*
X0401601Y0396551D03*
X0402073Y0398283D03*
X0404593Y0398283D03*
X0404278Y0396551D03*
X0373333Y0397244D03*
X0373176Y0398819D03*
X0362231Y0396496D03*
X0362073Y0396496D03*
X0361759Y0396654D03*
X0362388Y0392087D03*
X0362546Y0392087D03*
X0362073Y0391929D03*
X0361759Y0391772D03*
X0353806Y0394039D03*
X0351444Y0395614D03*
X0353333Y0397819D03*
X0353491Y0397819D03*
X0345223Y0396154D03*
X0344436Y0397728D03*
X0341444Y0396154D03*
X0342861Y0394579D03*
X0343963Y0393634D03*
X0343018Y0391902D03*
X0342231Y0391902D03*
X0342073Y0391902D03*
X0341916Y0391902D03*
X0341759Y0391902D03*
X0345066Y0391902D03*
X0323806Y0300673D03*
X0322231Y0298783D03*
X0322073Y0297209D03*
X0323176Y0297366D03*
X0323491Y0293587D03*
X0323648Y0293587D03*
X0322231Y0293587D03*
X0322073Y0293587D03*
X0314593Y0298598D03*
X0312073Y0298598D03*
X0311601Y0292614D03*
X0332388Y0294949D03*
X0332861Y0292587D03*
X0333963Y0292744D03*
X0334751Y0292587D03*
X0344121Y0292587D03*
X0344278Y0292587D03*
X0344436Y0295736D03*
X0344593Y0295736D03*
X0345696Y0295894D03*
X0352073Y0295634D03*
X0352861Y0294059D03*
X0353963Y0293114D03*
X0355223Y0291539D03*
X0355381Y0291539D03*
X0351601Y0291539D03*
X0351444Y0291539D03*
X0361759Y0293902D03*
X0361916Y0293902D03*
X0362073Y0293902D03*
X0362231Y0293902D03*
X0363018Y0293902D03*
X0363963Y0295634D03*
X0362861Y0296579D03*
X0361444Y0298154D03*
X0364436Y0299728D03*
X0365223Y0298154D03*
X0365066Y0293902D03*
X0371759Y0293272D03*
X0372073Y0293429D03*
X0372388Y0293587D03*
X0372546Y0293587D03*
X0372231Y0297996D03*
X0372073Y0297996D03*
X0371759Y0298154D03*
X0381759Y0293272D03*
X0381916Y0293272D03*
X0382073Y0293272D03*
X0383333Y0293272D03*
X0384908Y0293272D03*
X0384436Y0295004D03*
X0384751Y0296894D03*
X0384908Y0296894D03*
X0384593Y0297051D03*
X0383963Y0297366D03*
X0383648Y0297524D03*
X0383491Y0297524D03*
X0383648Y0299256D03*
X0382231Y0291697D03*
X0392231Y0291697D03*
X0394278Y0293429D03*
X0394436Y0293429D03*
X0394278Y0297051D03*
X0392388Y0297051D03*
X0391601Y0297051D03*
D37*
X0392861Y0292642D03*
X0395223Y0293587D03*
X0394908Y0289335D03*
X0394751Y0289335D03*
X0394436Y0289335D03*
X0394278Y0289335D03*
X0393018Y0289335D03*
X0392861Y0289335D03*
X0392703Y0289335D03*
X0392546Y0289335D03*
X0392388Y0289335D03*
X0392231Y0289335D03*
X0392073Y0289335D03*
X0384908Y0299256D03*
X0382861Y0292642D03*
X0382861Y0289335D03*
X0382703Y0289335D03*
X0382546Y0289335D03*
X0382388Y0289335D03*
X0382231Y0289335D03*
X0382073Y0289335D03*
X0384278Y0289335D03*
X0384436Y0289335D03*
X0384593Y0289335D03*
X0384751Y0289335D03*
X0374908Y0289492D03*
X0373963Y0289492D03*
X0372546Y0289492D03*
X0372388Y0289492D03*
X0372231Y0289492D03*
X0372073Y0289492D03*
X0371916Y0289492D03*
X0372073Y0295791D03*
X0372861Y0298311D03*
X0372861Y0301933D03*
X0373018Y0301933D03*
X0373491Y0301933D03*
X0373648Y0301933D03*
X0374908Y0301933D03*
X0372073Y0301933D03*
X0371916Y0301933D03*
X0364278Y0302720D03*
X0364121Y0302720D03*
X0362546Y0302720D03*
X0362388Y0302720D03*
X0361444Y0296106D03*
X0365381Y0296106D03*
X0364278Y0289335D03*
X0364121Y0289335D03*
X0363963Y0289335D03*
X0362703Y0289335D03*
X0362546Y0289335D03*
X0362388Y0289335D03*
X0355381Y0289492D03*
X0355223Y0289492D03*
X0351444Y0289492D03*
X0351444Y0293587D03*
X0352231Y0296264D03*
X0352388Y0296264D03*
X0352546Y0296264D03*
X0352703Y0296264D03*
X0352861Y0296264D03*
X0353018Y0296264D03*
X0353176Y0296264D03*
X0353333Y0296264D03*
X0353491Y0296264D03*
X0353648Y0296264D03*
X0353806Y0296264D03*
X0353963Y0296264D03*
X0354121Y0296264D03*
X0354278Y0296264D03*
X0354436Y0296264D03*
X0354593Y0296264D03*
X0354751Y0296264D03*
X0354908Y0296264D03*
X0355066Y0296264D03*
X0355223Y0296264D03*
X0355381Y0293587D03*
X0345381Y0289122D03*
X0344751Y0289122D03*
X0343806Y0289122D03*
X0342861Y0289122D03*
X0342703Y0289122D03*
X0342388Y0295264D03*
X0341444Y0302823D03*
X0345381Y0302665D03*
X0335696Y0288965D03*
X0335538Y0288965D03*
X0335381Y0288965D03*
X0335223Y0288965D03*
X0335066Y0288965D03*
X0334908Y0288965D03*
X0334751Y0288965D03*
X0334593Y0288965D03*
X0334436Y0288965D03*
X0334278Y0288965D03*
X0334121Y0288965D03*
X0333963Y0288965D03*
X0333806Y0288965D03*
X0333648Y0288965D03*
X0333491Y0288965D03*
X0333333Y0288965D03*
X0333176Y0288965D03*
X0333018Y0288965D03*
X0332861Y0288965D03*
X0332703Y0288965D03*
X0332546Y0288965D03*
X0332388Y0288965D03*
X0331286Y0299358D03*
X0321916Y0300988D03*
X0321444Y0297051D03*
X0321444Y0289335D03*
X0321601Y0289335D03*
X0321759Y0289335D03*
X0321916Y0289335D03*
X0322073Y0289335D03*
X0322231Y0289335D03*
X0322388Y0289335D03*
X0322546Y0289335D03*
X0322703Y0289335D03*
X0322861Y0289335D03*
X0323018Y0289335D03*
X0323176Y0289335D03*
X0323333Y0289335D03*
X0323491Y0289335D03*
X0323648Y0289335D03*
X0323806Y0289335D03*
X0323963Y0289335D03*
X0324121Y0289335D03*
X0324278Y0289335D03*
X0324436Y0289335D03*
X0324593Y0289335D03*
X0324751Y0289335D03*
X0324908Y0289335D03*
X0325066Y0289335D03*
X0325223Y0289335D03*
X0315223Y0288835D03*
X0315066Y0288835D03*
X0314908Y0288835D03*
X0314751Y0288835D03*
X0314593Y0288835D03*
X0314436Y0288835D03*
X0314278Y0288835D03*
X0314121Y0288835D03*
X0313963Y0288835D03*
X0313806Y0288835D03*
X0313648Y0288835D03*
X0313491Y0288835D03*
X0313333Y0288835D03*
X0313176Y0288835D03*
X0313018Y0288835D03*
X0312861Y0288835D03*
X0312703Y0288835D03*
X0312546Y0288835D03*
X0312388Y0288835D03*
X0312231Y0288835D03*
X0312073Y0288835D03*
X0311916Y0288835D03*
X0311759Y0288835D03*
X0311601Y0288835D03*
X0311444Y0288835D03*
X0313806Y0293559D03*
X0313963Y0293559D03*
X0314121Y0293559D03*
X0315381Y0293717D03*
X0315223Y0296394D03*
X0313648Y0300173D03*
X0313176Y0300173D03*
X0311759Y0301276D03*
X0314908Y0301276D03*
X0303806Y0294323D03*
X0302861Y0294323D03*
X0302861Y0291606D03*
X0303806Y0291606D03*
X0304278Y0291606D03*
X0342388Y0387335D03*
X0342546Y0387335D03*
X0342703Y0387335D03*
X0343963Y0387335D03*
X0344121Y0387335D03*
X0344278Y0387335D03*
X0345381Y0394106D03*
X0341444Y0394106D03*
X0342388Y0400720D03*
X0342546Y0400720D03*
X0344121Y0400720D03*
X0344278Y0400720D03*
X0351444Y0400654D03*
X0352231Y0400654D03*
X0352388Y0400654D03*
X0352073Y0397819D03*
X0351916Y0397819D03*
X0354751Y0396244D03*
X0354436Y0391992D03*
X0352703Y0391992D03*
X0352546Y0391992D03*
X0352388Y0391992D03*
X0352231Y0391992D03*
X0352073Y0391992D03*
X0351916Y0391992D03*
X0351759Y0391992D03*
X0362073Y0394291D03*
X0362861Y0396811D03*
X0362861Y0400433D03*
X0363018Y0400433D03*
X0363491Y0400433D03*
X0363648Y0400433D03*
X0364908Y0400433D03*
X0362073Y0400433D03*
X0361916Y0400433D03*
X0361916Y0387992D03*
X0362073Y0387992D03*
X0362231Y0387992D03*
X0362388Y0387992D03*
X0362546Y0387992D03*
X0363963Y0387992D03*
X0364908Y0387992D03*
X0371444Y0393307D03*
X0372703Y0400709D03*
X0372861Y0400709D03*
X0373018Y0400709D03*
X0373963Y0400709D03*
X0375381Y0400709D03*
X0384278Y0391638D03*
X0384751Y0391638D03*
X0393806Y0384051D03*
X0402861Y0392142D03*
X0405223Y0393087D03*
X0405223Y0400961D03*
X0405066Y0400961D03*
X0404908Y0400961D03*
X0404751Y0400961D03*
X0402073Y0400961D03*
X0401916Y0400961D03*
X0401759Y0400961D03*
X0401601Y0400961D03*
X0423333Y0385169D03*
X0423491Y0385169D03*
X0423806Y0375248D03*
X0421444Y0372413D03*
X0423176Y0365957D03*
X0423333Y0365957D03*
X0423491Y0365957D03*
X0421444Y0365327D03*
D38*
X0423648Y0366035D03*
X0425381Y0365406D03*
X0401601Y0393165D03*
X0375223Y0400787D03*
X0375066Y0400787D03*
X0374278Y0400787D03*
X0374121Y0400787D03*
X0371601Y0400787D03*
X0370814Y0400787D03*
X0364751Y0400512D03*
X0364593Y0400512D03*
X0364436Y0400512D03*
X0364278Y0400512D03*
X0364121Y0400512D03*
X0363963Y0400512D03*
X0363806Y0400512D03*
X0362703Y0400512D03*
X0362546Y0400512D03*
X0362388Y0400512D03*
X0362231Y0400512D03*
X0364593Y0395787D03*
X0364751Y0395787D03*
X0362231Y0394213D03*
X0364593Y0392638D03*
X0364751Y0392638D03*
X0364751Y0387913D03*
X0364593Y0387913D03*
X0364436Y0387913D03*
X0364278Y0387913D03*
X0364121Y0387913D03*
X0371286Y0393386D03*
X0355066Y0391913D03*
X0354908Y0391913D03*
X0354593Y0391913D03*
X0353648Y0391913D03*
X0353491Y0391913D03*
X0353333Y0391913D03*
X0353176Y0391913D03*
X0353018Y0391913D03*
X0352861Y0391913D03*
X0354593Y0396165D03*
X0352231Y0397898D03*
X0352073Y0400732D03*
X0351916Y0400732D03*
X0351601Y0400732D03*
X0343963Y0400799D03*
X0343806Y0400799D03*
X0343648Y0400799D03*
X0343491Y0400799D03*
X0343333Y0400799D03*
X0343176Y0400799D03*
X0343018Y0400799D03*
X0342861Y0400799D03*
X0342703Y0400799D03*
X0345223Y0394028D03*
X0343806Y0387256D03*
X0343648Y0387256D03*
X0343491Y0387256D03*
X0343333Y0387256D03*
X0343176Y0387256D03*
X0343018Y0387256D03*
X0342861Y0387256D03*
X0341286Y0302744D03*
X0345538Y0302587D03*
X0351444Y0300437D03*
X0352073Y0300437D03*
X0345538Y0294083D03*
X0345381Y0294083D03*
X0342546Y0292823D03*
X0343018Y0289043D03*
X0343176Y0289043D03*
X0343333Y0289043D03*
X0343491Y0289043D03*
X0343648Y0289043D03*
X0344908Y0289043D03*
X0345066Y0289043D03*
X0345223Y0289043D03*
X0341601Y0289043D03*
X0340814Y0289043D03*
X0332388Y0292508D03*
X0333806Y0295500D03*
X0331129Y0299280D03*
X0324751Y0301067D03*
X0322388Y0300594D03*
X0322231Y0300752D03*
X0322073Y0300909D03*
X0324278Y0296657D03*
X0324278Y0293035D03*
X0330814Y0288886D03*
X0331601Y0288886D03*
X0351601Y0289413D03*
X0351759Y0289413D03*
X0351916Y0289413D03*
X0352073Y0289413D03*
X0352231Y0289413D03*
X0352388Y0289413D03*
X0352546Y0289413D03*
X0352703Y0289413D03*
X0352861Y0289413D03*
X0353018Y0289413D03*
X0353176Y0289413D03*
X0353333Y0289413D03*
X0353491Y0289413D03*
X0353648Y0289413D03*
X0353806Y0289413D03*
X0353963Y0289413D03*
X0354121Y0289413D03*
X0354278Y0289413D03*
X0354436Y0289413D03*
X0354593Y0289413D03*
X0354751Y0289413D03*
X0354908Y0289413D03*
X0355066Y0289413D03*
X0362861Y0289256D03*
X0363018Y0289256D03*
X0363176Y0289256D03*
X0363333Y0289256D03*
X0363491Y0289256D03*
X0363648Y0289256D03*
X0363806Y0289256D03*
X0365223Y0296028D03*
X0363963Y0302799D03*
X0363806Y0302799D03*
X0363648Y0302799D03*
X0363491Y0302799D03*
X0363333Y0302799D03*
X0363176Y0302799D03*
X0363018Y0302799D03*
X0362861Y0302799D03*
X0362703Y0302799D03*
X0372231Y0302012D03*
X0372388Y0302012D03*
X0372546Y0302012D03*
X0372703Y0302012D03*
X0373806Y0302012D03*
X0373963Y0302012D03*
X0374121Y0302012D03*
X0374278Y0302012D03*
X0374436Y0302012D03*
X0374593Y0302012D03*
X0374751Y0302012D03*
X0374751Y0297287D03*
X0374593Y0297287D03*
X0372231Y0295713D03*
X0374593Y0294138D03*
X0374751Y0294138D03*
X0374751Y0289413D03*
X0374593Y0289413D03*
X0374436Y0289413D03*
X0374278Y0289413D03*
X0374121Y0289413D03*
X0383176Y0295398D03*
X0383333Y0295398D03*
X0383491Y0295398D03*
X0385381Y0296500D03*
X0384751Y0299177D03*
X0382073Y0297602D03*
X0391601Y0293665D03*
X0394593Y0289256D03*
X0315066Y0296315D03*
X0314908Y0296315D03*
X0314751Y0296315D03*
X0314593Y0296315D03*
X0314436Y0296315D03*
X0314278Y0296315D03*
X0314121Y0296315D03*
X0313963Y0296315D03*
X0313806Y0296315D03*
X0313648Y0296315D03*
X0313491Y0296315D03*
X0313333Y0296315D03*
X0313176Y0296315D03*
X0313018Y0296315D03*
X0312861Y0296315D03*
X0312703Y0296315D03*
X0312546Y0296315D03*
X0312388Y0296315D03*
X0312231Y0296315D03*
X0312231Y0293638D03*
X0313491Y0293638D03*
X0313648Y0293638D03*
X0314278Y0293638D03*
X0314436Y0293638D03*
X0314593Y0293638D03*
X0313806Y0300252D03*
X0313963Y0300409D03*
X0314121Y0300567D03*
X0314278Y0300724D03*
X0314436Y0300882D03*
X0314593Y0301039D03*
X0314751Y0301197D03*
X0313018Y0300252D03*
X0311916Y0301197D03*
D39*
X0312073Y0301118D03*
X0312231Y0300961D03*
X0312388Y0300803D03*
X0312546Y0300646D03*
X0312703Y0300488D03*
X0312861Y0300331D03*
X0312861Y0293717D03*
X0313018Y0293717D03*
X0313176Y0293717D03*
X0313333Y0293717D03*
X0312703Y0293717D03*
X0312546Y0293717D03*
X0312388Y0293717D03*
X0314751Y0293717D03*
X0314908Y0293717D03*
X0315066Y0293717D03*
X0315223Y0293717D03*
X0315381Y0291354D03*
X0323648Y0297524D03*
X0323018Y0300201D03*
X0324593Y0300988D03*
X0330814Y0299043D03*
X0330971Y0299201D03*
X0333176Y0295579D03*
X0335538Y0295579D03*
X0331444Y0288807D03*
X0331286Y0288807D03*
X0331129Y0288807D03*
X0330971Y0288807D03*
X0340971Y0288965D03*
X0341129Y0288965D03*
X0341286Y0288965D03*
X0341444Y0288965D03*
X0342703Y0292902D03*
X0342703Y0295264D03*
X0342546Y0295264D03*
X0340814Y0302350D03*
X0341129Y0302665D03*
X0345696Y0302508D03*
X0351601Y0300516D03*
X0351759Y0300516D03*
X0351916Y0300516D03*
X0351601Y0293587D03*
X0355223Y0293587D03*
X0361601Y0296106D03*
X0363018Y0300201D03*
X0363176Y0300201D03*
X0363333Y0300201D03*
X0363491Y0300201D03*
X0363648Y0300201D03*
X0363806Y0292012D03*
X0363963Y0292012D03*
X0372388Y0295791D03*
X0373963Y0297524D03*
X0374278Y0297366D03*
X0374436Y0297366D03*
X0374436Y0294059D03*
X0374278Y0294059D03*
X0373333Y0293587D03*
X0382861Y0295319D03*
X0383018Y0295319D03*
X0383648Y0295319D03*
X0383806Y0295319D03*
X0383963Y0295319D03*
X0382388Y0297681D03*
X0382231Y0297681D03*
X0384593Y0299256D03*
X0392546Y0295634D03*
X0395066Y0293587D03*
X0424436Y0364224D03*
X0423806Y0366114D03*
X0423018Y0365957D03*
X0421286Y0368476D03*
X0423806Y0373043D03*
X0405066Y0393087D03*
X0402546Y0395134D03*
X0375696Y0397402D03*
X0372388Y0397402D03*
X0371444Y0400866D03*
X0371286Y0400866D03*
X0371129Y0400866D03*
X0370971Y0400866D03*
X0374436Y0400866D03*
X0374593Y0400866D03*
X0374751Y0400866D03*
X0374908Y0400866D03*
X0371129Y0393465D03*
X0364436Y0392559D03*
X0364278Y0392559D03*
X0363333Y0392087D03*
X0362388Y0394291D03*
X0363963Y0396024D03*
X0364278Y0395866D03*
X0364436Y0395866D03*
X0354436Y0396244D03*
X0352861Y0395457D03*
X0352388Y0397819D03*
X0351759Y0400811D03*
X0343648Y0398201D03*
X0343491Y0398201D03*
X0343333Y0398201D03*
X0343176Y0398201D03*
X0343018Y0398201D03*
X0341601Y0394106D03*
X0343806Y0390012D03*
X0343963Y0390012D03*
X0354751Y0391835D03*
D40*
X0353176Y0397819D03*
X0353018Y0397819D03*
X0362861Y0392087D03*
X0372546Y0397402D03*
X0374751Y0398661D03*
X0383333Y0389512D03*
X0381916Y0384079D03*
X0382861Y0383016D03*
X0402388Y0391197D03*
X0402231Y0392772D03*
X0404436Y0391197D03*
X0405223Y0396551D03*
X0405066Y0398441D03*
X0404908Y0398441D03*
X0401759Y0398441D03*
X0421444Y0384697D03*
X0421601Y0384697D03*
X0421759Y0384697D03*
X0421916Y0384697D03*
X0422073Y0384697D03*
X0422231Y0384697D03*
X0422388Y0384697D03*
X0422546Y0384697D03*
X0422703Y0384697D03*
X0424121Y0384697D03*
X0424278Y0384697D03*
X0424436Y0384697D03*
X0424593Y0384697D03*
X0424751Y0384697D03*
X0424908Y0384697D03*
X0425066Y0384697D03*
X0425223Y0384697D03*
X0425223Y0386902D03*
X0425223Y0381862D03*
X0425066Y0381862D03*
X0425223Y0379500D03*
X0422231Y0373043D03*
X0422388Y0371469D03*
X0423018Y0370051D03*
X0425223Y0367846D03*
X0423491Y0363752D03*
X0423176Y0363752D03*
X0402833Y0365343D03*
X0402833Y0367941D03*
X0395223Y0297051D03*
X0392231Y0293272D03*
X0392388Y0291697D03*
X0394436Y0291697D03*
X0385223Y0293114D03*
X0384436Y0291697D03*
X0382388Y0291697D03*
X0382388Y0293114D03*
X0382388Y0295004D03*
X0382861Y0297681D03*
X0383018Y0297681D03*
X0385066Y0296736D03*
X0372861Y0293587D03*
X0365223Y0293902D03*
X0364436Y0295791D03*
X0362546Y0296421D03*
X0362388Y0296421D03*
X0362388Y0299886D03*
X0363176Y0291539D03*
X0363333Y0291539D03*
X0363491Y0291539D03*
X0363648Y0291539D03*
X0354436Y0293272D03*
X0354278Y0293272D03*
X0352388Y0293902D03*
X0345696Y0292114D03*
X0344751Y0291012D03*
X0343963Y0292587D03*
X0343963Y0295579D03*
X0343806Y0295579D03*
X0343648Y0298571D03*
X0344436Y0298571D03*
X0334751Y0293846D03*
X0335223Y0291169D03*
X0335381Y0291169D03*
X0333806Y0291169D03*
X0333648Y0291169D03*
X0333491Y0291169D03*
X0333333Y0291169D03*
X0323963Y0293429D03*
X0321759Y0293429D03*
X0322388Y0291697D03*
X0322388Y0295319D03*
X0323333Y0300516D03*
X0324121Y0300831D03*
X0315066Y0298756D03*
X0314908Y0298756D03*
X0311759Y0298756D03*
X0312388Y0291197D03*
X0314436Y0291197D03*
X0302388Y0296803D03*
X0303333Y0303654D03*
X0343176Y0389539D03*
X0343333Y0389539D03*
X0343491Y0389539D03*
X0343648Y0389539D03*
X0345223Y0391902D03*
X0344436Y0393791D03*
X0342546Y0394421D03*
X0342388Y0394421D03*
X0342388Y0397886D03*
D41*
X0341916Y0400484D03*
X0344908Y0400484D03*
X0344908Y0387571D03*
X0355223Y0396165D03*
X0353333Y0400417D03*
X0353176Y0400417D03*
X0361444Y0400197D03*
X0363648Y0396575D03*
X0361601Y0394213D03*
X0361444Y0394213D03*
X0361444Y0388228D03*
X0375066Y0393386D03*
X0375223Y0393543D03*
X0375381Y0393701D03*
X0375696Y0400472D03*
X0382861Y0380654D03*
X0383806Y0380654D03*
X0401444Y0393165D03*
X0402546Y0391906D03*
X0402546Y0400724D03*
X0404278Y0400724D03*
X0422861Y0385406D03*
X0423963Y0385406D03*
X0423491Y0372650D03*
X0423333Y0372492D03*
X0423176Y0372335D03*
X0425066Y0372335D03*
X0421444Y0368555D03*
X0425223Y0365406D03*
X0385381Y0299177D03*
X0382546Y0292406D03*
X0383491Y0289571D03*
X0385223Y0289571D03*
X0391444Y0289571D03*
X0393491Y0289571D03*
X0395223Y0289571D03*
X0392546Y0292406D03*
X0391444Y0293665D03*
X0373648Y0298075D03*
X0371601Y0295713D03*
X0371444Y0295713D03*
X0371444Y0301697D03*
X0364908Y0302484D03*
X0361916Y0302484D03*
X0364908Y0289571D03*
X0371444Y0289728D03*
X0345696Y0289358D03*
X0342388Y0289358D03*
X0343491Y0292035D03*
X0345696Y0298020D03*
X0341601Y0302744D03*
X0331601Y0299437D03*
X0333648Y0295185D03*
X0321601Y0301067D03*
X0311444Y0301354D03*
D42*
X0311601Y0298756D03*
X0315223Y0298756D03*
X0315223Y0291354D03*
X0315066Y0291354D03*
X0314908Y0291354D03*
X0313018Y0291354D03*
X0312861Y0291354D03*
X0312703Y0291354D03*
X0312546Y0291354D03*
X0322546Y0291854D03*
X0322703Y0291854D03*
X0322861Y0291854D03*
X0323018Y0291854D03*
X0324121Y0293272D03*
X0322861Y0295476D03*
X0322703Y0295476D03*
X0324436Y0300988D03*
X0334121Y0295736D03*
X0334278Y0295736D03*
X0334436Y0295736D03*
X0334593Y0295736D03*
X0334751Y0295736D03*
X0334908Y0295736D03*
X0335066Y0295736D03*
X0335223Y0295736D03*
X0334278Y0292902D03*
X0335696Y0291169D03*
X0343806Y0292429D03*
X0343333Y0295421D03*
X0343176Y0295421D03*
X0351916Y0293744D03*
X0352073Y0293744D03*
X0354751Y0293429D03*
X0361444Y0293744D03*
X0362073Y0296264D03*
X0364751Y0295949D03*
X0364908Y0295949D03*
X0365381Y0293744D03*
X0364278Y0292169D03*
X0364121Y0300043D03*
X0362703Y0300043D03*
X0372703Y0297996D03*
X0373963Y0299571D03*
X0372703Y0295791D03*
X0373806Y0293902D03*
X0373491Y0293744D03*
X0373176Y0293587D03*
X0373963Y0291697D03*
X0383018Y0292957D03*
X0384121Y0291539D03*
X0384278Y0295161D03*
X0382546Y0295161D03*
X0382546Y0297681D03*
X0382703Y0297681D03*
X0391759Y0293587D03*
X0394121Y0291539D03*
X0395381Y0296894D03*
X0422546Y0363909D03*
X0422703Y0363909D03*
X0424121Y0363909D03*
X0424278Y0364067D03*
X0422388Y0369894D03*
X0424436Y0371469D03*
X0423963Y0373358D03*
X0424436Y0379185D03*
X0424751Y0379343D03*
X0423176Y0379343D03*
X0422388Y0379343D03*
X0421759Y0386744D03*
X0424908Y0386744D03*
X0404121Y0391039D03*
X0401759Y0393087D03*
X0405381Y0396394D03*
X0405223Y0398441D03*
X0401601Y0398441D03*
X0373333Y0396142D03*
X0370814Y0393622D03*
X0363806Y0392402D03*
X0363491Y0392244D03*
X0363176Y0392087D03*
X0363963Y0390197D03*
X0362703Y0394291D03*
X0362703Y0396496D03*
X0363963Y0398071D03*
X0353963Y0396087D03*
X0353806Y0396087D03*
X0353648Y0395929D03*
X0353491Y0395929D03*
X0353333Y0395772D03*
X0353176Y0395772D03*
X0352861Y0397819D03*
X0352703Y0397819D03*
X0344121Y0398043D03*
X0342703Y0398043D03*
X0342073Y0394264D03*
X0341444Y0391744D03*
X0344278Y0390169D03*
X0345381Y0391744D03*
X0344908Y0393949D03*
X0344751Y0393949D03*
D43*
X0345066Y0394028D03*
X0341916Y0394185D03*
X0341759Y0394185D03*
X0342861Y0398122D03*
X0343806Y0398122D03*
X0343963Y0398122D03*
X0344121Y0390091D03*
X0352546Y0397898D03*
X0354121Y0396165D03*
X0354278Y0396165D03*
X0353018Y0395535D03*
X0362546Y0394213D03*
X0363648Y0392323D03*
X0363963Y0392480D03*
X0364121Y0392480D03*
X0364121Y0395945D03*
X0370971Y0393543D03*
X0374751Y0396063D03*
X0383806Y0395063D03*
X0384751Y0396598D03*
X0384278Y0389276D03*
X0382388Y0387976D03*
X0392388Y0387949D03*
X0394278Y0383815D03*
X0394751Y0397161D03*
X0393806Y0398579D03*
X0401444Y0398520D03*
X0405381Y0398520D03*
X0404278Y0395055D03*
X0421916Y0386665D03*
X0422073Y0386508D03*
X0422231Y0386508D03*
X0422388Y0386350D03*
X0422546Y0386193D03*
X0422703Y0386035D03*
X0424121Y0386035D03*
X0424278Y0386193D03*
X0424436Y0386350D03*
X0424593Y0386508D03*
X0424751Y0386665D03*
X0421286Y0377846D03*
X0422861Y0371705D03*
X0425381Y0372335D03*
X0422388Y0364146D03*
X0402361Y0367350D03*
X0374121Y0297445D03*
X0372546Y0295713D03*
X0373648Y0293823D03*
X0373963Y0293980D03*
X0374121Y0293980D03*
X0365066Y0296028D03*
X0361916Y0296185D03*
X0361759Y0296185D03*
X0362861Y0300122D03*
X0363806Y0300122D03*
X0363963Y0300122D03*
X0364121Y0292091D03*
X0355066Y0293508D03*
X0354908Y0293508D03*
X0351759Y0293665D03*
X0345223Y0294083D03*
X0345066Y0294083D03*
X0343176Y0292665D03*
X0343018Y0292823D03*
X0342861Y0292823D03*
X0342861Y0295343D03*
X0343018Y0295343D03*
X0340971Y0302587D03*
X0335381Y0295657D03*
X0333963Y0295657D03*
X0333018Y0295657D03*
X0324121Y0296972D03*
X0324121Y0298705D03*
X0321601Y0297130D03*
X0321444Y0293193D03*
X0315381Y0298835D03*
X0311444Y0298835D03*
X0304751Y0289244D03*
X0304278Y0289244D03*
X0303806Y0289244D03*
X0303333Y0289244D03*
X0302861Y0289244D03*
X0302388Y0289244D03*
X0301916Y0289244D03*
X0301916Y0296685D03*
X0382703Y0295240D03*
X0384121Y0295240D03*
X0385381Y0293035D03*
X0394278Y0295555D03*
D44*
X0383176Y0302484D03*
X0383018Y0302484D03*
X0334278Y0299280D03*
X0334121Y0299280D03*
X0403648Y0388441D03*
D45*
X0403648Y0392772D03*
X0404751Y0396709D03*
X0404908Y0396709D03*
X0404278Y0398126D03*
X0402546Y0398126D03*
X0402073Y0396709D03*
X0401916Y0396709D03*
X0421286Y0384697D03*
X0425538Y0372413D03*
X0425538Y0365327D03*
X0394908Y0297209D03*
X0394751Y0297209D03*
X0392073Y0297209D03*
X0391916Y0297209D03*
X0393648Y0293272D03*
X0384121Y0293429D03*
X0383333Y0299256D03*
X0383176Y0299256D03*
X0372231Y0299728D03*
X0372231Y0291854D03*
X0363648Y0295476D03*
X0363491Y0295476D03*
X0363333Y0296736D03*
X0353333Y0294217D03*
X0353176Y0294217D03*
X0353491Y0292957D03*
X0345381Y0292272D03*
X0344908Y0292429D03*
X0344751Y0292429D03*
X0345066Y0295894D03*
X0345223Y0295894D03*
X0345381Y0295894D03*
X0345538Y0295894D03*
X0343018Y0298886D03*
X0342861Y0298886D03*
X0342703Y0298886D03*
X0342546Y0298886D03*
X0335381Y0292744D03*
X0335223Y0292587D03*
X0335066Y0292587D03*
X0334908Y0292587D03*
X0333648Y0292587D03*
X0333491Y0292587D03*
X0333333Y0292587D03*
X0333176Y0292587D03*
X0333018Y0292587D03*
X0332546Y0294949D03*
X0332861Y0295106D03*
X0322703Y0297209D03*
X0322546Y0297209D03*
X0314278Y0298441D03*
X0312546Y0298441D03*
X0311916Y0297024D03*
X0311759Y0297024D03*
X0311601Y0297024D03*
X0312073Y0292929D03*
X0311916Y0292772D03*
X0362231Y0390354D03*
X0362231Y0398228D03*
X0353806Y0397819D03*
X0353648Y0397819D03*
X0343333Y0394736D03*
X0343491Y0393476D03*
X0343648Y0393476D03*
X0373018Y0397402D03*
X0375066Y0397402D03*
X0375223Y0397402D03*
D46*
X0372388Y0393465D03*
X0421601Y0381862D03*
X0421759Y0381862D03*
X0383491Y0302563D03*
X0383333Y0302563D03*
X0344908Y0302035D03*
X0334436Y0299201D03*
D47*
X0335538Y0292823D03*
X0333806Y0292665D03*
X0344121Y0294083D03*
X0344278Y0294083D03*
X0344436Y0292508D03*
X0344593Y0292508D03*
X0345538Y0292193D03*
X0344908Y0295815D03*
X0344751Y0295815D03*
X0342388Y0298965D03*
X0351444Y0295555D03*
X0351601Y0295555D03*
X0351759Y0295555D03*
X0351916Y0295555D03*
X0353018Y0294138D03*
X0353648Y0293035D03*
X0353806Y0293035D03*
X0353806Y0291618D03*
X0353963Y0291618D03*
X0354121Y0291618D03*
X0354278Y0291618D03*
X0354436Y0291618D03*
X0354593Y0291618D03*
X0354751Y0291618D03*
X0354908Y0291618D03*
X0355066Y0291618D03*
X0353648Y0291618D03*
X0353491Y0291618D03*
X0353333Y0291618D03*
X0353176Y0291618D03*
X0353018Y0291618D03*
X0352861Y0291618D03*
X0352703Y0291618D03*
X0352546Y0291618D03*
X0352388Y0291618D03*
X0352231Y0291618D03*
X0352073Y0291618D03*
X0351916Y0291618D03*
X0351759Y0291618D03*
X0363176Y0293980D03*
X0363333Y0293980D03*
X0363491Y0293980D03*
X0363648Y0293980D03*
X0363806Y0293980D03*
X0363963Y0293980D03*
X0364121Y0293980D03*
X0364278Y0293980D03*
X0364436Y0293980D03*
X0364593Y0293980D03*
X0364751Y0293980D03*
X0364908Y0293980D03*
X0363806Y0295555D03*
X0363176Y0296657D03*
X0363018Y0296657D03*
X0363018Y0298075D03*
X0362861Y0298075D03*
X0362703Y0298075D03*
X0362546Y0298075D03*
X0362388Y0298075D03*
X0362231Y0298075D03*
X0362073Y0298075D03*
X0361916Y0298075D03*
X0361759Y0298075D03*
X0361601Y0298075D03*
X0363176Y0298075D03*
X0363333Y0298075D03*
X0363491Y0298075D03*
X0363648Y0298075D03*
X0363806Y0298075D03*
X0363963Y0298075D03*
X0364121Y0298075D03*
X0364278Y0298075D03*
X0364436Y0298075D03*
X0364593Y0298075D03*
X0364751Y0298075D03*
X0364908Y0298075D03*
X0365066Y0298075D03*
X0371916Y0298075D03*
X0373491Y0295713D03*
X0373648Y0295713D03*
X0372231Y0293508D03*
X0371916Y0293350D03*
X0383491Y0293350D03*
X0383648Y0293350D03*
X0383806Y0293350D03*
X0383963Y0293350D03*
X0384278Y0293350D03*
X0384436Y0293350D03*
X0384593Y0293350D03*
X0384751Y0293350D03*
X0384436Y0297130D03*
X0384278Y0297287D03*
X0384121Y0297287D03*
X0383806Y0297445D03*
X0383491Y0299177D03*
X0391759Y0297130D03*
X0392231Y0297130D03*
X0394436Y0297130D03*
X0394593Y0297130D03*
X0395066Y0297130D03*
X0394121Y0293350D03*
X0393963Y0293350D03*
X0393806Y0293350D03*
X0393491Y0293193D03*
X0393333Y0293193D03*
X0424121Y0371390D03*
X0422388Y0373122D03*
X0421286Y0386823D03*
X0404121Y0392850D03*
X0403963Y0392850D03*
X0403806Y0392850D03*
X0403491Y0392693D03*
X0403333Y0392693D03*
X0402231Y0396630D03*
X0401759Y0396630D03*
X0402231Y0398205D03*
X0402388Y0398205D03*
X0404436Y0398205D03*
X0404436Y0396630D03*
X0404593Y0396630D03*
X0405066Y0396630D03*
X0394751Y0393382D03*
X0393806Y0392201D03*
X0393806Y0390902D03*
X0391916Y0393382D03*
X0394278Y0387476D03*
X0383806Y0390929D03*
X0382388Y0389748D03*
X0382388Y0384315D03*
X0384278Y0396598D03*
X0383333Y0399197D03*
X0375381Y0397480D03*
X0374908Y0397323D03*
X0373176Y0397323D03*
X0372861Y0397480D03*
X0372703Y0397480D03*
X0363648Y0394213D03*
X0363491Y0394213D03*
X0362231Y0392008D03*
X0361916Y0391850D03*
X0361916Y0396575D03*
X0352073Y0395535D03*
X0351916Y0395535D03*
X0351759Y0395535D03*
X0351601Y0395535D03*
X0345066Y0396075D03*
X0344908Y0396075D03*
X0344751Y0396075D03*
X0344593Y0396075D03*
X0344436Y0396075D03*
X0344278Y0396075D03*
X0344121Y0396075D03*
X0343963Y0396075D03*
X0343806Y0396075D03*
X0343648Y0396075D03*
X0343491Y0396075D03*
X0343333Y0396075D03*
X0343176Y0396075D03*
X0343018Y0396075D03*
X0342861Y0396075D03*
X0342703Y0396075D03*
X0342546Y0396075D03*
X0342388Y0396075D03*
X0342231Y0396075D03*
X0342073Y0396075D03*
X0341916Y0396075D03*
X0341759Y0396075D03*
X0341601Y0396075D03*
X0343018Y0394657D03*
X0343176Y0394657D03*
X0343806Y0393555D03*
X0343806Y0391980D03*
X0343963Y0391980D03*
X0344121Y0391980D03*
X0344278Y0391980D03*
X0344436Y0391980D03*
X0344593Y0391980D03*
X0344751Y0391980D03*
X0344908Y0391980D03*
X0343648Y0391980D03*
X0343491Y0391980D03*
X0343333Y0391980D03*
X0343176Y0391980D03*
X0323018Y0297287D03*
X0322861Y0297287D03*
X0322388Y0297130D03*
X0322231Y0297130D03*
X0322388Y0293665D03*
X0322546Y0293665D03*
X0322703Y0293665D03*
X0322861Y0293665D03*
X0323018Y0293665D03*
X0323176Y0293665D03*
X0323333Y0293665D03*
X0314436Y0298520D03*
X0312388Y0298520D03*
X0312231Y0298520D03*
X0312073Y0296945D03*
X0311444Y0297102D03*
X0311759Y0292693D03*
X0303806Y0296331D03*
X0301916Y0295150D03*
D48*
X0334593Y0299122D03*
X0343648Y0303059D03*
X0383648Y0302642D03*
X0383806Y0302642D03*
X0421444Y0381941D03*
X0421916Y0381941D03*
X0403491Y0388283D03*
X0401286Y0397417D03*
D49*
X0401286Y0393165D03*
X0401601Y0388441D03*
X0401759Y0388283D03*
X0401916Y0388283D03*
X0402073Y0388126D03*
X0402231Y0388126D03*
X0402388Y0388126D03*
X0404278Y0388126D03*
X0404436Y0388126D03*
X0422231Y0365091D03*
X0424593Y0365248D03*
X0384593Y0302799D03*
X0383806Y0290043D03*
X0391286Y0293665D03*
X0393806Y0290043D03*
X0365381Y0302012D03*
X0361286Y0290043D03*
X0355381Y0299650D03*
X0343018Y0303374D03*
X0342861Y0303374D03*
X0344593Y0289831D03*
X0335223Y0298807D03*
X0332861Y0300067D03*
X0321286Y0300909D03*
X0341286Y0388043D03*
X0345381Y0400012D03*
X0355066Y0399945D03*
X0355223Y0399945D03*
X0353963Y0392701D03*
X0373333Y0392756D03*
X0373491Y0392756D03*
X0373648Y0392756D03*
X0373333Y0400000D03*
D50*
X0374593Y0397244D03*
X0374436Y0397087D03*
X0372546Y0393307D03*
X0401286Y0388835D03*
X0403333Y0388205D03*
X0422073Y0381862D03*
X0384121Y0302720D03*
X0383963Y0302720D03*
X0383963Y0290280D03*
X0343806Y0303138D03*
X0334751Y0299043D03*
D51*
X0335066Y0298886D03*
X0344121Y0302980D03*
X0344278Y0302980D03*
X0344436Y0302823D03*
X0325381Y0296421D03*
X0373806Y0290280D03*
X0384278Y0302720D03*
X0384436Y0302720D03*
X0421286Y0381862D03*
X0405381Y0388677D03*
X0405223Y0388520D03*
X0403018Y0388047D03*
X0402861Y0388047D03*
X0402703Y0388047D03*
X0402546Y0388047D03*
X0401444Y0388520D03*
X0373176Y0392835D03*
X0373018Y0392835D03*
X0363806Y0388780D03*
X0354121Y0392780D03*
X0355381Y0399866D03*
D52*
X0354593Y0400102D03*
X0354436Y0400102D03*
X0363806Y0396890D03*
X0365381Y0395945D03*
X0365381Y0392480D03*
X0373963Y0392756D03*
X0374121Y0396535D03*
X0342861Y0390720D03*
X0342703Y0390720D03*
X0341444Y0387886D03*
X0341444Y0400169D03*
X0403176Y0400409D03*
X0403648Y0400409D03*
X0421916Y0378161D03*
X0423648Y0378161D03*
X0423806Y0378161D03*
X0424121Y0378161D03*
X0424278Y0378161D03*
X0424593Y0372335D03*
X0424751Y0372335D03*
X0423648Y0368870D03*
X0422073Y0368870D03*
X0421916Y0368870D03*
X0421916Y0365248D03*
X0424908Y0365406D03*
X0394908Y0301854D03*
X0394751Y0301854D03*
X0385381Y0302484D03*
X0384908Y0302799D03*
X0375381Y0297445D03*
X0373806Y0298390D03*
X0375381Y0293980D03*
X0362861Y0292720D03*
X0362703Y0292720D03*
X0361444Y0289886D03*
X0361444Y0302169D03*
X0342546Y0303217D03*
X0342388Y0303217D03*
X0335538Y0298650D03*
X0332546Y0299909D03*
X0332388Y0299909D03*
X0325223Y0296343D03*
X0325381Y0292563D03*
X0322546Y0299807D03*
D53*
X0331916Y0294476D03*
X0390184Y0294846D03*
X0396483Y0294846D03*
D54*
X0396325Y0295083D03*
X0390341Y0295083D03*
D55*
X0390499Y0295240D03*
X0396168Y0295240D03*
X0400341Y0395055D03*
X0406325Y0395055D03*
D56*
X0406168Y0394898D03*
X0400499Y0394898D03*
X0396010Y0295398D03*
X0390656Y0295398D03*
D57*
X0390814Y0295476D03*
X0395853Y0295476D03*
X0346483Y0295264D03*
X0340184Y0295264D03*
D58*
X0325696Y0295634D03*
X0320971Y0295634D03*
X0391129Y0295634D03*
X0395538Y0295634D03*
X0400814Y0394661D03*
X0405853Y0394661D03*
D59*
X0361286Y0394213D03*
X0391286Y0299492D03*
X0371286Y0295713D03*
D60*
X0391444Y0300752D03*
X0391601Y0300752D03*
X0391759Y0300909D03*
X0391916Y0300909D03*
X0403806Y0388756D03*
D61*
X0394593Y0300988D03*
X0394436Y0300988D03*
X0394278Y0300988D03*
X0392388Y0300988D03*
X0392231Y0300988D03*
X0392073Y0300988D03*
X0343176Y0302508D03*
D62*
X0343333Y0302429D03*
X0343491Y0302429D03*
X0392546Y0301067D03*
X0392703Y0301067D03*
X0392861Y0301067D03*
X0393018Y0301067D03*
X0393176Y0301067D03*
X0393333Y0301067D03*
X0393491Y0301067D03*
X0393648Y0301067D03*
X0393806Y0301067D03*
X0393963Y0301067D03*
X0394121Y0301067D03*
X0403963Y0388913D03*
X0351286Y0393646D03*
D63*
X0372703Y0393071D03*
X0372861Y0392913D03*
X0403176Y0388126D03*
X0404121Y0388126D03*
X0343963Y0303059D03*
X0334908Y0298965D03*
X0393963Y0290201D03*
D64*
X0373963Y0295713D03*
X0373806Y0295713D03*
X0363491Y0296815D03*
X0363333Y0295398D03*
X0353491Y0294295D03*
X0353333Y0292878D03*
X0345223Y0292350D03*
X0345066Y0292350D03*
X0343963Y0294083D03*
X0343806Y0294083D03*
X0332703Y0295028D03*
X0314121Y0298362D03*
X0312703Y0298362D03*
X0343333Y0393398D03*
X0343491Y0394815D03*
X0363806Y0394213D03*
X0363963Y0394213D03*
X0402703Y0398047D03*
X0404121Y0398047D03*
X0422546Y0366193D03*
D65*
X0361286Y0298154D03*
X0336483Y0293531D03*
X0330184Y0293531D03*
X0341286Y0396154D03*
D66*
X0288444Y0379343D03*
X0288444Y0374657D03*
D67*
X0288444Y0374776D03*
X0288444Y0379224D03*
D68*
X0288444Y0379126D03*
D69*
X0288444Y0379008D03*
D70*
X0288444Y0378870D03*
X0288444Y0375091D03*
X0389888Y0324843D03*
X0389888Y0320157D03*
D71*
X0288444Y0375209D03*
X0288444Y0378752D03*
D72*
X0288444Y0378654D03*
D73*
X0285373Y0378555D03*
X0394377Y0322835D03*
D74*
X0390656Y0321220D03*
X0394944Y0328720D03*
X0395050Y0308780D03*
X0395050Y0306220D03*
X0394932Y0305945D03*
X0390562Y0307835D03*
X0381940Y0305945D03*
X0379223Y0305945D03*
X0288975Y0378555D03*
D75*
X0291869Y0378555D03*
X0394703Y0315610D03*
X0394991Y0307717D03*
X0394991Y0307638D03*
X0394991Y0307362D03*
X0394991Y0307283D03*
D76*
X0390503Y0307500D03*
X0394703Y0313583D03*
X0390715Y0321083D03*
X0385046Y0321083D03*
X0385046Y0323917D03*
X0383546Y0328583D03*
X0383546Y0331417D03*
X0384546Y0316417D03*
X0384546Y0313583D03*
X0379164Y0308917D03*
X0379164Y0306083D03*
X0284546Y0375583D03*
X0284546Y0378417D03*
D77*
X0286672Y0378417D03*
X0288680Y0377945D03*
X0387735Y0316417D03*
X0391424Y0322500D03*
X0391223Y0330472D03*
X0387314Y0307972D03*
X0388613Y0306555D03*
X0391329Y0306083D03*
D78*
X0288798Y0378417D03*
D79*
X0292164Y0378417D03*
X0284369Y0377472D03*
X0284369Y0377000D03*
X0284369Y0376528D03*
X0378987Y0307972D03*
X0378987Y0307500D03*
X0378987Y0307028D03*
X0384369Y0314528D03*
X0384369Y0315000D03*
X0384369Y0315472D03*
X0384869Y0322028D03*
X0384869Y0322500D03*
X0384869Y0322972D03*
X0386676Y0328583D03*
X0383369Y0329528D03*
X0383369Y0330000D03*
X0383369Y0330472D03*
X0395062Y0330000D03*
X0394554Y0323917D03*
X0394790Y0323445D03*
X0394554Y0321083D03*
X0394762Y0314055D03*
D80*
X0394703Y0313720D03*
X0394585Y0313445D03*
X0394703Y0316280D03*
X0395109Y0308701D03*
X0395109Y0308583D03*
X0395109Y0306417D03*
X0395109Y0306339D03*
X0390503Y0307165D03*
X0390503Y0307283D03*
X0390503Y0307362D03*
X0390503Y0307638D03*
X0390503Y0307717D03*
X0384664Y0313445D03*
X0384546Y0313720D03*
X0384546Y0316280D03*
X0385164Y0320945D03*
X0385046Y0321220D03*
X0385046Y0323780D03*
X0387881Y0320945D03*
X0383664Y0328445D03*
X0383546Y0328720D03*
X0383546Y0331280D03*
X0394766Y0328445D03*
X0395003Y0328839D03*
X0395003Y0328917D03*
X0379164Y0308780D03*
X0379164Y0306220D03*
X0292341Y0375720D03*
X0284664Y0375445D03*
X0284546Y0375720D03*
X0284546Y0378280D03*
D81*
X0286613Y0378280D03*
X0286613Y0378201D03*
X0287558Y0377807D03*
X0287558Y0377728D03*
X0288385Y0377217D03*
X0288621Y0377807D03*
X0286613Y0376390D03*
X0386912Y0331201D03*
X0387266Y0330138D03*
X0388329Y0330610D03*
X0389156Y0329390D03*
X0389156Y0329272D03*
X0389983Y0330335D03*
X0389983Y0330610D03*
X0391282Y0330610D03*
X0391282Y0330728D03*
X0391282Y0330807D03*
X0392546Y0323307D03*
X0391483Y0322638D03*
X0388648Y0322362D03*
X0388648Y0322283D03*
X0388648Y0323307D03*
X0387794Y0316280D03*
X0388554Y0308228D03*
X0388554Y0308110D03*
X0387373Y0307835D03*
X0388554Y0306890D03*
X0388554Y0306772D03*
X0391388Y0306693D03*
X0391388Y0306220D03*
X0391388Y0308228D03*
X0385483Y0305945D03*
D82*
X0387018Y0308780D03*
X0390207Y0308110D03*
X0388621Y0313720D03*
X0388621Y0313839D03*
X0388621Y0313917D03*
X0388621Y0315138D03*
X0388621Y0315217D03*
X0388621Y0315335D03*
X0388621Y0315610D03*
X0388621Y0315728D03*
X0386849Y0313445D03*
X0391601Y0322283D03*
X0392699Y0328445D03*
X0390928Y0328720D03*
X0390928Y0328839D03*
X0288739Y0378280D03*
D83*
X0287558Y0376272D03*
X0284487Y0375917D03*
X0284487Y0375839D03*
X0284487Y0378083D03*
X0284487Y0378201D03*
X0292282Y0378280D03*
X0292400Y0378201D03*
X0292400Y0378083D03*
X0292400Y0375917D03*
X0292400Y0375839D03*
X0379105Y0308701D03*
X0379105Y0308583D03*
X0379105Y0306417D03*
X0379105Y0306339D03*
X0384487Y0313839D03*
X0384487Y0313917D03*
X0384487Y0316083D03*
X0384487Y0316201D03*
X0384987Y0321339D03*
X0384987Y0321417D03*
X0384987Y0323583D03*
X0384987Y0323701D03*
X0383487Y0328839D03*
X0383487Y0328917D03*
X0383487Y0331083D03*
X0383487Y0331201D03*
X0386558Y0329193D03*
X0394908Y0321772D03*
X0394908Y0321693D03*
X0394790Y0321417D03*
X0394672Y0321220D03*
X0394526Y0316555D03*
X0394762Y0316201D03*
X0394762Y0316083D03*
X0394762Y0313917D03*
X0394762Y0313839D03*
D84*
X0392400Y0316280D03*
X0386849Y0315610D03*
X0386849Y0315335D03*
X0386849Y0315217D03*
X0386849Y0313839D03*
X0386849Y0313720D03*
X0388790Y0308701D03*
X0388790Y0306220D03*
X0386900Y0306339D03*
X0386900Y0306417D03*
X0391270Y0305945D03*
X0388412Y0321890D03*
X0387349Y0322717D03*
X0387349Y0322835D03*
X0387349Y0323110D03*
X0390066Y0322835D03*
X0389156Y0328720D03*
X0389156Y0328839D03*
X0391046Y0329272D03*
X0391046Y0329390D03*
X0392699Y0328720D03*
X0392699Y0330335D03*
X0389983Y0331201D03*
X0389983Y0331280D03*
X0388329Y0331280D03*
X0388329Y0331201D03*
X0385849Y0330610D03*
X0385849Y0330335D03*
X0385849Y0330217D03*
X0288739Y0378201D03*
D85*
X0288562Y0377728D03*
X0288562Y0377610D03*
X0288444Y0377335D03*
X0288562Y0376390D03*
X0287499Y0377610D03*
X0286554Y0377610D03*
X0286554Y0377728D03*
X0286554Y0377807D03*
X0286554Y0378083D03*
X0286554Y0376862D03*
X0286554Y0376783D03*
X0286554Y0376665D03*
X0382707Y0308307D03*
X0385424Y0308307D03*
X0386605Y0307165D03*
X0387432Y0307638D03*
X0387432Y0307717D03*
X0388495Y0307717D03*
X0388495Y0307638D03*
X0388495Y0307835D03*
X0388495Y0307362D03*
X0388495Y0307283D03*
X0388495Y0307165D03*
X0391448Y0306417D03*
X0391448Y0306339D03*
X0391448Y0308307D03*
X0391448Y0308583D03*
X0391448Y0308701D03*
X0392223Y0314193D03*
X0392223Y0315728D03*
X0392223Y0315807D03*
X0387853Y0316201D03*
X0388707Y0322638D03*
X0388707Y0322717D03*
X0388707Y0322835D03*
X0388707Y0323110D03*
X0388707Y0323228D03*
X0391306Y0323228D03*
X0391306Y0323307D03*
X0391424Y0322835D03*
X0391424Y0322717D03*
X0388270Y0330335D03*
X0387207Y0330335D03*
X0387207Y0330217D03*
X0387089Y0330807D03*
X0386971Y0331083D03*
X0391341Y0331083D03*
X0391341Y0331201D03*
X0391341Y0331280D03*
D86*
X0389924Y0331083D03*
X0388270Y0331083D03*
X0387207Y0329665D03*
X0385790Y0330138D03*
X0391105Y0329783D03*
X0391105Y0329665D03*
X0392640Y0330138D03*
X0392640Y0330217D03*
X0392640Y0330610D03*
X0392640Y0328917D03*
X0392640Y0328839D03*
X0391306Y0323701D03*
X0391542Y0322362D03*
X0392605Y0321772D03*
X0390007Y0322638D03*
X0390007Y0322717D03*
X0390007Y0323110D03*
X0388471Y0323780D03*
X0387290Y0322638D03*
X0386790Y0315138D03*
X0386790Y0313917D03*
X0387196Y0308307D03*
X0385188Y0307717D03*
X0385188Y0307165D03*
X0382471Y0307165D03*
X0388731Y0306339D03*
X0390266Y0308228D03*
X0290215Y0377728D03*
X0288680Y0378083D03*
X0286790Y0377217D03*
D87*
X0287617Y0376055D03*
X0284428Y0376055D03*
X0284428Y0377945D03*
X0292459Y0377945D03*
X0292459Y0376055D03*
X0292223Y0375583D03*
X0379046Y0308445D03*
X0379046Y0306555D03*
X0384428Y0314055D03*
X0384428Y0315945D03*
X0384928Y0321555D03*
X0384928Y0323445D03*
X0383428Y0329055D03*
X0383428Y0330945D03*
X0386617Y0329055D03*
X0395003Y0329055D03*
X0395121Y0330472D03*
X0395003Y0330945D03*
X0394967Y0322028D03*
X0394849Y0321555D03*
X0394822Y0315945D03*
D88*
X0391160Y0316417D03*
X0391042Y0315945D03*
X0388707Y0322500D03*
X0388707Y0322972D03*
X0387207Y0330472D03*
X0391341Y0330945D03*
X0391448Y0308445D03*
X0391448Y0306555D03*
X0388495Y0307028D03*
X0388495Y0307500D03*
X0388495Y0307972D03*
X0385424Y0306555D03*
X0385542Y0306083D03*
X0382825Y0308917D03*
X0286554Y0376528D03*
X0286554Y0377945D03*
D89*
X0287558Y0377945D03*
X0382766Y0308445D03*
X0385483Y0308445D03*
X0387491Y0307500D03*
X0388030Y0315945D03*
X0391365Y0322972D03*
X0389983Y0330000D03*
X0387030Y0330945D03*
D90*
X0386617Y0328917D03*
X0383428Y0329193D03*
X0383428Y0329272D03*
X0383428Y0330728D03*
X0383428Y0330807D03*
X0384928Y0323307D03*
X0384928Y0323228D03*
X0384928Y0321772D03*
X0384928Y0321693D03*
X0384428Y0315807D03*
X0384428Y0315728D03*
X0384428Y0314272D03*
X0384428Y0314193D03*
X0379046Y0308307D03*
X0379046Y0308228D03*
X0379046Y0306772D03*
X0379046Y0306693D03*
X0395109Y0308307D03*
X0394731Y0321339D03*
X0394967Y0321890D03*
X0394967Y0322165D03*
X0394731Y0323583D03*
X0394731Y0323701D03*
X0394613Y0323780D03*
X0395003Y0329193D03*
X0395121Y0330138D03*
X0395121Y0330217D03*
X0395121Y0330335D03*
X0395121Y0330610D03*
X0395003Y0330728D03*
X0395003Y0330807D03*
X0394885Y0331083D03*
X0292459Y0377807D03*
X0287617Y0376193D03*
X0284428Y0376193D03*
X0284428Y0376272D03*
X0284428Y0377728D03*
X0284428Y0377807D03*
D91*
X0284369Y0377610D03*
X0284369Y0377335D03*
X0284369Y0377217D03*
X0284369Y0377138D03*
X0284369Y0376862D03*
X0284369Y0376783D03*
X0284369Y0376665D03*
X0284369Y0376390D03*
X0287676Y0375917D03*
X0292046Y0375445D03*
X0292400Y0376193D03*
X0292400Y0377728D03*
X0378987Y0308110D03*
X0378987Y0307835D03*
X0378987Y0307717D03*
X0378987Y0307638D03*
X0378987Y0307362D03*
X0378987Y0307283D03*
X0378987Y0307165D03*
X0378987Y0306890D03*
X0384369Y0314390D03*
X0384369Y0314665D03*
X0384369Y0314783D03*
X0384369Y0314862D03*
X0384369Y0315138D03*
X0384369Y0315217D03*
X0384369Y0315335D03*
X0384369Y0315610D03*
X0384869Y0321890D03*
X0384869Y0322165D03*
X0384869Y0322283D03*
X0384869Y0322362D03*
X0384869Y0322638D03*
X0384869Y0322717D03*
X0384869Y0322835D03*
X0384869Y0323110D03*
X0386676Y0328720D03*
X0386676Y0328839D03*
X0383369Y0329390D03*
X0383369Y0329665D03*
X0383369Y0329783D03*
X0383369Y0329862D03*
X0383369Y0330138D03*
X0383369Y0330217D03*
X0383369Y0330335D03*
X0383369Y0330610D03*
X0394707Y0331280D03*
X0394825Y0331201D03*
X0395062Y0329862D03*
X0394944Y0329272D03*
X0394908Y0322362D03*
X0394908Y0322283D03*
X0390774Y0320945D03*
X0394762Y0315807D03*
D92*
X0392459Y0313445D03*
X0388849Y0308780D03*
X0387077Y0308701D03*
X0387077Y0308583D03*
X0386959Y0306220D03*
X0390266Y0306772D03*
X0391188Y0321890D03*
X0392487Y0321890D03*
X0391306Y0323780D03*
X0390987Y0328917D03*
X0390987Y0329193D03*
X0290215Y0376272D03*
X0290215Y0377610D03*
X0286908Y0377335D03*
D93*
X0287794Y0375720D03*
X0292400Y0377610D03*
X0386676Y0328445D03*
X0394944Y0329665D03*
X0394318Y0324055D03*
X0394672Y0323228D03*
X0394790Y0322638D03*
X0394644Y0314272D03*
D94*
X0392282Y0314055D03*
X0392282Y0315945D03*
X0391365Y0323445D03*
X0388648Y0323445D03*
X0389156Y0329528D03*
X0388329Y0330472D03*
X0387266Y0330000D03*
X0389983Y0330472D03*
X0391282Y0331417D03*
X0385483Y0308917D03*
X0386664Y0307028D03*
X0288503Y0377472D03*
X0287322Y0377472D03*
X0286613Y0377472D03*
X0286613Y0377000D03*
D95*
X0291692Y0377472D03*
D96*
X0291633Y0377335D03*
X0291633Y0377217D03*
X0291633Y0376665D03*
D97*
X0290215Y0376193D03*
X0288325Y0377138D03*
X0286672Y0377138D03*
X0386853Y0331280D03*
X0387207Y0329862D03*
X0388270Y0330728D03*
X0391223Y0330335D03*
X0391223Y0330217D03*
X0391306Y0323583D03*
X0392605Y0323228D03*
X0392605Y0321693D03*
X0388589Y0322165D03*
X0388589Y0323583D03*
X0392341Y0316083D03*
X0392341Y0313917D03*
X0391329Y0308780D03*
X0391329Y0308110D03*
X0391329Y0306772D03*
X0390266Y0306693D03*
X0388613Y0306693D03*
X0388613Y0308307D03*
X0386723Y0306890D03*
X0386723Y0306772D03*
D98*
X0291573Y0376783D03*
X0291573Y0376862D03*
X0291573Y0377138D03*
D99*
X0288266Y0377000D03*
X0382530Y0307500D03*
X0385247Y0307500D03*
X0388672Y0308445D03*
X0391270Y0308917D03*
X0388530Y0322028D03*
X0389156Y0329055D03*
X0388329Y0330945D03*
X0389983Y0330945D03*
X0391164Y0330000D03*
X0392581Y0329055D03*
D100*
X0291573Y0377000D03*
D101*
X0288503Y0376862D03*
X0382766Y0308780D03*
X0382766Y0308701D03*
X0382766Y0308583D03*
X0385483Y0308583D03*
X0385483Y0308701D03*
X0385483Y0308780D03*
X0386546Y0307362D03*
X0386546Y0307283D03*
X0385483Y0306417D03*
X0385483Y0306339D03*
X0385483Y0306220D03*
X0387912Y0316083D03*
X0391101Y0316083D03*
X0391101Y0316201D03*
X0391101Y0316280D03*
X0392164Y0315610D03*
X0392164Y0314272D03*
X0391365Y0323110D03*
X0389156Y0329665D03*
X0389156Y0329783D03*
X0389156Y0329862D03*
X0388329Y0330138D03*
X0388329Y0330217D03*
X0387148Y0330610D03*
X0387148Y0330728D03*
X0389983Y0330217D03*
X0389983Y0330138D03*
D102*
X0392105Y0314390D03*
X0387550Y0307362D03*
X0401278Y0364811D03*
X0401278Y0368945D03*
X0392133Y0384346D03*
X0392054Y0384346D03*
X0392723Y0385882D03*
X0393944Y0385882D03*
X0393117Y0391551D03*
X0383117Y0391579D03*
X0382723Y0385909D03*
X0383944Y0385909D03*
X0384613Y0384374D03*
X0303471Y0297217D03*
X0288562Y0376665D03*
X0288562Y0376783D03*
D103*
X0288562Y0376528D03*
X0388270Y0330000D03*
X0392105Y0315472D03*
X0386487Y0307500D03*
D104*
X0291633Y0376528D03*
D105*
X0291692Y0376390D03*
D106*
X0292341Y0376272D03*
X0287735Y0375839D03*
X0395003Y0329783D03*
X0395003Y0329390D03*
X0394731Y0323307D03*
X0394377Y0320945D03*
X0394703Y0315728D03*
X0394703Y0314193D03*
D107*
X0394644Y0315472D03*
X0287912Y0375583D03*
D108*
X0287971Y0375445D03*
X0394467Y0315138D03*
X0394467Y0314783D03*
D109*
X0389625Y0312657D03*
X0388325Y0316555D03*
X0389625Y0317343D03*
X0288444Y0375327D03*
D110*
X0288444Y0375012D03*
D111*
X0288444Y0374894D03*
D112*
X0331759Y0294398D03*
X0350184Y0294925D03*
X0350341Y0294925D03*
X0350499Y0294925D03*
X0350656Y0294925D03*
X0350814Y0294925D03*
X0350971Y0294925D03*
X0351129Y0294925D03*
X0351286Y0294925D03*
X0355538Y0294925D03*
X0355696Y0294925D03*
X0355853Y0294925D03*
X0356010Y0294925D03*
X0356168Y0294925D03*
X0356325Y0294925D03*
X0356483Y0294925D03*
D113*
X0336325Y0293610D03*
X0330341Y0293610D03*
D114*
X0330499Y0293768D03*
X0336168Y0293768D03*
D115*
X0336010Y0293846D03*
X0330656Y0293846D03*
D116*
X0332073Y0294555D03*
D117*
X0332231Y0294634D03*
X0400184Y0395291D03*
X0406483Y0395291D03*
D118*
X0335853Y0293925D03*
X0311286Y0293795D03*
D119*
X0320656Y0295791D03*
X0326010Y0295791D03*
X0340656Y0295579D03*
X0346010Y0295579D03*
X0401129Y0394504D03*
X0405538Y0394504D03*
D120*
X0341759Y0296130D03*
X0316483Y0295843D03*
X0310184Y0295843D03*
D121*
X0341916Y0296209D03*
D122*
X0342073Y0296287D03*
D123*
X0342231Y0296366D03*
D124*
X0321286Y0293350D03*
X0372073Y0396693D03*
D125*
X0389888Y0324724D03*
X0389888Y0320276D03*
D126*
X0389888Y0324626D03*
D127*
X0389888Y0324508D03*
D128*
X0389888Y0324370D03*
X0389888Y0320591D03*
D129*
X0389888Y0320709D03*
X0389888Y0324252D03*
X0389625Y0313012D03*
D130*
X0389888Y0324154D03*
D131*
X0388117Y0324055D03*
D132*
X0388353Y0323917D03*
X0389097Y0328583D03*
X0390987Y0329055D03*
X0392459Y0316417D03*
D133*
X0390629Y0313583D03*
X0388503Y0314528D03*
X0387018Y0308917D03*
X0391247Y0323917D03*
D134*
X0389948Y0323228D03*
X0388530Y0323701D03*
X0387231Y0323228D03*
X0389156Y0328917D03*
X0389156Y0329193D03*
X0389983Y0330728D03*
X0389983Y0330807D03*
X0391164Y0330138D03*
X0391164Y0329862D03*
X0392581Y0329193D03*
X0392581Y0330728D03*
X0388329Y0330807D03*
X0387266Y0329783D03*
X0385731Y0330728D03*
X0386731Y0315728D03*
X0386731Y0314193D03*
X0392400Y0313839D03*
X0392400Y0313720D03*
X0392400Y0316201D03*
X0388672Y0308583D03*
X0387255Y0308228D03*
X0387255Y0308110D03*
X0386782Y0306693D03*
X0385247Y0307283D03*
X0385247Y0307362D03*
X0385247Y0307638D03*
X0382530Y0307638D03*
X0382530Y0307717D03*
X0382530Y0307362D03*
X0382530Y0307283D03*
X0388672Y0306417D03*
D135*
X0394341Y0306693D03*
X0394341Y0306772D03*
X0394341Y0308228D03*
X0394199Y0323110D03*
D136*
X0390066Y0322972D03*
X0387349Y0322972D03*
X0387148Y0329528D03*
X0385849Y0330472D03*
X0386794Y0331417D03*
X0392699Y0330472D03*
X0392699Y0328583D03*
X0386849Y0315472D03*
X0386849Y0313583D03*
X0387136Y0308445D03*
X0392400Y0313583D03*
D137*
X0394259Y0322972D03*
D138*
X0394613Y0322717D03*
X0394585Y0315335D03*
D139*
X0394849Y0322500D03*
D140*
X0391719Y0322165D03*
X0386912Y0329272D03*
D141*
X0394944Y0328583D03*
X0391837Y0322028D03*
X0395050Y0308917D03*
X0395050Y0306083D03*
X0390562Y0307028D03*
X0390562Y0307972D03*
D142*
X0390570Y0313720D03*
X0390570Y0313839D03*
X0390570Y0313917D03*
X0390570Y0314193D03*
X0390570Y0314272D03*
X0390570Y0314390D03*
X0390570Y0314665D03*
X0390570Y0314783D03*
X0390570Y0314862D03*
X0390570Y0315138D03*
X0390570Y0315217D03*
X0390570Y0315335D03*
X0390570Y0315610D03*
X0390570Y0315728D03*
X0390570Y0315807D03*
X0388562Y0315807D03*
X0388562Y0314862D03*
X0388562Y0314783D03*
X0388562Y0314272D03*
X0388562Y0314193D03*
X0388235Y0321772D03*
X0390951Y0321772D03*
X0389097Y0328445D03*
X0387089Y0329390D03*
D143*
X0387881Y0321693D03*
X0387881Y0321417D03*
X0387881Y0321339D03*
X0387881Y0321220D03*
X0390597Y0321339D03*
X0390621Y0306890D03*
D144*
X0384656Y0306890D03*
X0384656Y0306772D03*
X0384656Y0306693D03*
X0384656Y0307835D03*
X0384656Y0308110D03*
X0384656Y0308228D03*
X0381940Y0308228D03*
X0381940Y0308110D03*
X0381940Y0307835D03*
X0381940Y0306890D03*
X0381940Y0306772D03*
X0381940Y0306693D03*
X0381940Y0306417D03*
X0381940Y0306339D03*
X0381940Y0306220D03*
X0390538Y0321417D03*
X0390538Y0321693D03*
D145*
X0387881Y0321555D03*
X0387881Y0321083D03*
X0381999Y0306083D03*
D146*
X0381940Y0306555D03*
X0381940Y0307028D03*
X0381940Y0307972D03*
X0384656Y0307972D03*
X0384656Y0307028D03*
X0390538Y0321555D03*
D147*
X0389888Y0320827D03*
X0389625Y0316870D03*
X0389625Y0313091D03*
X0389215Y0327776D03*
X0389215Y0332224D03*
D148*
X0389215Y0332343D03*
X0389215Y0327657D03*
X0389888Y0320512D03*
X0389625Y0312894D03*
D149*
X0389625Y0312776D03*
X0389625Y0317224D03*
X0389888Y0320394D03*
D150*
X0387077Y0309843D03*
X0387077Y0305157D03*
D151*
X0387077Y0305276D03*
X0387077Y0309724D03*
D152*
X0387077Y0309626D03*
D153*
X0387077Y0309508D03*
D154*
X0387077Y0309370D03*
X0387077Y0305591D03*
D155*
X0387077Y0305709D03*
X0387077Y0309252D03*
D156*
X0387077Y0309154D03*
D157*
X0384125Y0309055D03*
X0389625Y0313327D03*
X0389215Y0327894D03*
D158*
X0393219Y0309055D03*
D159*
X0388967Y0308917D03*
X0386959Y0306083D03*
X0388562Y0314055D03*
X0390570Y0314055D03*
X0390570Y0314528D03*
X0390570Y0315000D03*
X0390570Y0315472D03*
D160*
X0394644Y0316417D03*
X0395168Y0308445D03*
X0395168Y0306555D03*
D161*
X0394400Y0306890D03*
X0394400Y0307835D03*
X0394400Y0308110D03*
D162*
X0394400Y0307972D03*
X0394400Y0307028D03*
D163*
X0394991Y0307500D03*
D164*
X0394932Y0307165D03*
X0394644Y0314390D03*
X0389156Y0331555D03*
D165*
X0391105Y0329528D03*
X0386790Y0314055D03*
X0386841Y0306555D03*
D166*
X0388908Y0306083D03*
X0388621Y0313583D03*
X0388621Y0315000D03*
X0388621Y0315472D03*
X0390928Y0328583D03*
X0389983Y0331417D03*
X0388329Y0331417D03*
D167*
X0390928Y0328445D03*
X0388503Y0314665D03*
X0388503Y0314390D03*
X0388621Y0313445D03*
X0387018Y0305945D03*
D168*
X0388967Y0305945D03*
X0390570Y0313445D03*
D169*
X0387077Y0305827D03*
D170*
X0387077Y0305512D03*
D171*
X0387077Y0305394D03*
D172*
X0389625Y0317126D03*
D173*
X0389625Y0317008D03*
D174*
X0389625Y0316752D03*
X0389625Y0313209D03*
D175*
X0389625Y0316654D03*
X0389215Y0332126D03*
D176*
X0394526Y0315217D03*
X0394526Y0314665D03*
D177*
X0394408Y0315000D03*
D178*
X0394408Y0314862D03*
D179*
X0394585Y0314528D03*
D180*
X0305676Y0297335D03*
X0300991Y0297335D03*
D181*
X0301109Y0297276D03*
X0305558Y0297276D03*
D182*
X0301207Y0297217D03*
D183*
X0301325Y0297157D03*
D184*
X0301463Y0297098D03*
X0305243Y0297098D03*
D185*
X0305125Y0297039D03*
X0301581Y0297039D03*
D186*
X0301680Y0296980D03*
D187*
X0301778Y0294146D03*
D188*
X0301778Y0302709D03*
X0381778Y0392228D03*
D189*
X0382861Y0393469D03*
X0383806Y0393469D03*
X0382861Y0396776D03*
X0383806Y0399256D03*
X0384278Y0399256D03*
X0381916Y0389807D03*
X0384278Y0384374D03*
X0384751Y0384374D03*
X0391916Y0384346D03*
X0392388Y0384346D03*
X0394751Y0387417D03*
X0392388Y0389661D03*
X0391916Y0389780D03*
X0392388Y0393441D03*
X0392861Y0393441D03*
X0393333Y0393441D03*
X0393806Y0393441D03*
X0394278Y0393441D03*
X0392861Y0394504D03*
X0392388Y0394504D03*
X0393333Y0396866D03*
X0393806Y0396984D03*
X0304751Y0295209D03*
X0304278Y0295091D03*
X0303806Y0298161D03*
X0303333Y0298161D03*
X0302861Y0298161D03*
X0302388Y0301114D03*
X0304278Y0301114D03*
X0301916Y0292492D03*
D190*
X0304751Y0296626D03*
X0301916Y0298634D03*
X0383806Y0387445D03*
X0382388Y0391579D03*
X0381916Y0393823D03*
X0382861Y0395122D03*
X0382861Y0400791D03*
X0383333Y0400791D03*
X0383806Y0400791D03*
X0384278Y0400791D03*
X0384751Y0400791D03*
X0382388Y0400791D03*
X0381916Y0400791D03*
X0392861Y0400764D03*
X0393333Y0400764D03*
X0393806Y0400764D03*
X0392861Y0398638D03*
X0392388Y0391551D03*
X0394278Y0389189D03*
X0394751Y0383756D03*
D191*
X0394278Y0385823D03*
X0394751Y0394681D03*
X0384751Y0399079D03*
X0382861Y0389630D03*
X0384278Y0385969D03*
X0401416Y0369004D03*
X0401416Y0366996D03*
X0402833Y0366996D03*
X0403306Y0366996D03*
X0403778Y0366996D03*
X0404251Y0366996D03*
X0404251Y0365933D03*
X0404251Y0363571D03*
X0404251Y0371012D03*
X0301916Y0300937D03*
X0302388Y0298339D03*
X0303333Y0294913D03*
X0303333Y0292197D03*
D192*
X0301916Y0304421D03*
X0304751Y0304421D03*
X0381916Y0381067D03*
X0384751Y0381067D03*
X0384751Y0385909D03*
X0382861Y0387681D03*
X0383333Y0395122D03*
X0381916Y0396539D03*
X0392388Y0400646D03*
X0394278Y0400646D03*
X0393333Y0398638D03*
X0391916Y0385882D03*
X0394751Y0385882D03*
X0393333Y0381630D03*
X0391916Y0380567D03*
X0403306Y0368591D03*
X0402361Y0364811D03*
D193*
X0402223Y0364752D03*
X0403444Y0368650D03*
X0392054Y0385823D03*
X0393668Y0387358D03*
X0392251Y0388067D03*
X0392133Y0388067D03*
X0394416Y0389130D03*
X0394495Y0389130D03*
X0392251Y0391492D03*
X0393668Y0395035D03*
X0392999Y0396453D03*
X0392999Y0398579D03*
X0392723Y0400705D03*
X0392605Y0400705D03*
X0393944Y0400705D03*
X0394062Y0400705D03*
X0394140Y0400705D03*
X0384888Y0400732D03*
X0382999Y0398724D03*
X0383668Y0397307D03*
X0382999Y0395063D03*
X0384888Y0393882D03*
X0382251Y0391638D03*
X0384416Y0389276D03*
X0382605Y0387858D03*
X0382251Y0388094D03*
X0382133Y0388094D03*
X0382054Y0385969D03*
X0304888Y0296685D03*
X0304888Y0289244D03*
X0304613Y0289244D03*
X0304495Y0289244D03*
X0304416Y0289244D03*
X0304140Y0289244D03*
X0304062Y0289244D03*
X0303944Y0289244D03*
X0303668Y0289244D03*
X0303550Y0289244D03*
X0303471Y0289244D03*
X0303196Y0289244D03*
X0303117Y0289244D03*
X0302999Y0289244D03*
X0302723Y0289244D03*
X0302605Y0289244D03*
X0302526Y0289244D03*
X0302251Y0289244D03*
X0302133Y0289244D03*
X0302054Y0289244D03*
X0302054Y0304362D03*
X0304613Y0304362D03*
D194*
X0303550Y0296213D03*
X0303471Y0296213D03*
X0304416Y0295150D03*
X0304495Y0295150D03*
X0304613Y0295150D03*
X0302251Y0295150D03*
X0302133Y0295150D03*
X0302054Y0295150D03*
X0302054Y0292433D03*
X0302133Y0292433D03*
X0302251Y0292433D03*
X0384495Y0384315D03*
X0384613Y0387504D03*
X0383471Y0390811D03*
X0383471Y0393409D03*
X0383550Y0393409D03*
X0383196Y0393409D03*
X0392054Y0389720D03*
X0392133Y0389720D03*
X0393471Y0390783D03*
X0393550Y0390783D03*
X0393471Y0392319D03*
X0393550Y0396925D03*
X0394613Y0387476D03*
X0392251Y0384287D03*
X0401278Y0366996D03*
D195*
X0402026Y0367232D03*
X0402105Y0367232D03*
X0402026Y0364752D03*
X0392133Y0380626D03*
X0392251Y0380744D03*
X0392133Y0385823D03*
X0393944Y0389248D03*
X0394062Y0389248D03*
X0392054Y0397161D03*
X0383668Y0389394D03*
X0384495Y0385969D03*
X0383550Y0384669D03*
X0383668Y0384551D03*
X0384888Y0383016D03*
X0382133Y0385969D03*
X0304416Y0304244D03*
X0302251Y0304244D03*
X0302723Y0299874D03*
X0302054Y0296685D03*
D196*
X0302133Y0296744D03*
X0302251Y0296744D03*
X0302054Y0298516D03*
X0304062Y0299933D03*
X0304613Y0296626D03*
X0303668Y0303594D03*
X0302526Y0304067D03*
X0383117Y0384728D03*
X0383196Y0384728D03*
X0382251Y0385909D03*
X0383944Y0387445D03*
X0383550Y0389453D03*
X0383471Y0389453D03*
X0382526Y0391579D03*
X0382723Y0395122D03*
X0384062Y0395122D03*
X0384613Y0396539D03*
X0384888Y0399020D03*
X0392723Y0398638D03*
X0394062Y0398638D03*
X0394613Y0397102D03*
X0392526Y0391551D03*
X0393668Y0389307D03*
X0393944Y0387417D03*
X0394495Y0385882D03*
X0392251Y0385882D03*
X0403916Y0368827D03*
D197*
X0404388Y0368945D03*
X0404388Y0366937D03*
X0404388Y0363630D03*
X0404388Y0371071D03*
X0394140Y0385882D03*
X0392526Y0385882D03*
X0392723Y0389543D03*
X0393944Y0390961D03*
X0393944Y0392142D03*
X0392054Y0394622D03*
X0393196Y0396748D03*
X0394416Y0397102D03*
X0394140Y0398638D03*
X0384613Y0399138D03*
X0382526Y0399138D03*
X0382054Y0399138D03*
X0382526Y0396657D03*
X0383944Y0396776D03*
X0384140Y0395122D03*
X0384416Y0393587D03*
X0383944Y0390988D03*
X0382605Y0389689D03*
X0382526Y0389689D03*
X0382526Y0385909D03*
X0382605Y0384492D03*
X0384140Y0384374D03*
X0384888Y0384374D03*
X0384140Y0385909D03*
X0304062Y0300996D03*
X0304140Y0299933D03*
X0304140Y0298280D03*
X0302526Y0298280D03*
X0303944Y0296390D03*
X0304062Y0296390D03*
X0302723Y0300996D03*
X0302054Y0300996D03*
D198*
X0302133Y0298457D03*
X0304613Y0298457D03*
X0304495Y0296567D03*
X0304416Y0296567D03*
X0304888Y0300937D03*
X0303550Y0303654D03*
X0303471Y0303654D03*
X0303196Y0303654D03*
X0303117Y0303654D03*
X0382723Y0383016D03*
X0382999Y0383016D03*
X0383117Y0383016D03*
X0384495Y0383016D03*
X0384613Y0383016D03*
X0383944Y0384433D03*
X0382999Y0384669D03*
X0384416Y0385969D03*
X0384062Y0387504D03*
X0383196Y0389512D03*
X0382054Y0393764D03*
X0382133Y0396598D03*
X0383550Y0397071D03*
X0383944Y0397898D03*
X0383117Y0398961D03*
X0392133Y0397161D03*
X0393117Y0396689D03*
X0393944Y0395626D03*
X0393550Y0394799D03*
X0394888Y0394681D03*
X0393550Y0389366D03*
X0393471Y0389366D03*
X0394416Y0385823D03*
X0403995Y0368886D03*
X0404113Y0368886D03*
X0401751Y0367114D03*
X0403050Y0365461D03*
X0402696Y0364280D03*
X0402971Y0364161D03*
X0401751Y0364752D03*
D199*
X0394062Y0385882D03*
X0392605Y0385882D03*
X0394416Y0387535D03*
X0394495Y0387535D03*
X0394888Y0387299D03*
X0392251Y0389661D03*
X0393668Y0390843D03*
X0392999Y0391551D03*
X0393550Y0392260D03*
X0393668Y0392260D03*
X0393668Y0393441D03*
X0393550Y0393441D03*
X0393471Y0393441D03*
X0393196Y0393441D03*
X0393117Y0393441D03*
X0392999Y0393441D03*
X0392723Y0393441D03*
X0392605Y0393441D03*
X0392526Y0393441D03*
X0392251Y0393441D03*
X0392133Y0393441D03*
X0392054Y0393441D03*
X0392526Y0394504D03*
X0392605Y0394504D03*
X0392723Y0394504D03*
X0392999Y0394504D03*
X0393117Y0394504D03*
X0394062Y0394504D03*
X0394140Y0394504D03*
X0394416Y0394504D03*
X0394495Y0394504D03*
X0394495Y0393441D03*
X0394416Y0393441D03*
X0394613Y0393441D03*
X0394140Y0393441D03*
X0394062Y0393441D03*
X0393944Y0393441D03*
X0393471Y0396866D03*
X0393668Y0396984D03*
X0393944Y0396984D03*
X0394062Y0396984D03*
X0384416Y0399256D03*
X0384140Y0399256D03*
X0384062Y0399256D03*
X0383944Y0399256D03*
X0383668Y0399256D03*
X0383550Y0399256D03*
X0383117Y0396776D03*
X0382999Y0396776D03*
X0382999Y0393469D03*
X0383117Y0393469D03*
X0382723Y0393469D03*
X0383668Y0393469D03*
X0383944Y0393469D03*
X0384062Y0393469D03*
X0383550Y0392406D03*
X0383471Y0392406D03*
X0382999Y0391579D03*
X0383550Y0390870D03*
X0383668Y0390870D03*
X0382133Y0389807D03*
X0382054Y0389807D03*
X0384416Y0387563D03*
X0384495Y0387563D03*
X0384888Y0387445D03*
X0384062Y0385909D03*
X0382605Y0385909D03*
X0382251Y0384256D03*
X0384416Y0384374D03*
X0304495Y0301114D03*
X0304416Y0301114D03*
X0302526Y0301114D03*
X0302251Y0301114D03*
X0302133Y0301114D03*
X0302999Y0298161D03*
X0303117Y0298161D03*
X0303196Y0298161D03*
X0303471Y0298161D03*
X0303550Y0298161D03*
X0303668Y0298161D03*
X0303196Y0297098D03*
X0303117Y0297098D03*
X0303668Y0296272D03*
X0302526Y0295091D03*
X0302526Y0292374D03*
D200*
X0302133Y0304303D03*
X0304495Y0304303D03*
X0383471Y0384728D03*
X0384613Y0385909D03*
X0383668Y0387445D03*
X0383944Y0389335D03*
X0384062Y0389335D03*
X0384140Y0389335D03*
X0383944Y0395122D03*
X0382054Y0396539D03*
X0382054Y0400791D03*
X0382133Y0400791D03*
X0382251Y0400791D03*
X0382526Y0400791D03*
X0382605Y0400791D03*
X0382723Y0400791D03*
X0382999Y0400791D03*
X0383117Y0400791D03*
X0383196Y0400791D03*
X0383471Y0400791D03*
X0383550Y0400791D03*
X0383668Y0400791D03*
X0383944Y0400791D03*
X0384062Y0400791D03*
X0384140Y0400791D03*
X0384416Y0400791D03*
X0384495Y0400791D03*
X0384613Y0400791D03*
X0392999Y0400764D03*
X0393117Y0400764D03*
X0393196Y0400764D03*
X0393471Y0400764D03*
X0393550Y0400764D03*
X0393668Y0400764D03*
X0393944Y0398638D03*
X0394140Y0389189D03*
X0394613Y0385882D03*
X0394613Y0383756D03*
X0394495Y0383756D03*
X0394416Y0383756D03*
X0392054Y0380567D03*
X0403562Y0368709D03*
X0403640Y0368709D03*
X0402223Y0367291D03*
X0402105Y0364811D03*
D201*
X0401554Y0364752D03*
X0402971Y0366996D03*
X0403050Y0366996D03*
X0403168Y0366996D03*
X0403444Y0366996D03*
X0403562Y0366996D03*
X0403640Y0366996D03*
X0403916Y0366996D03*
X0403995Y0366996D03*
X0404113Y0366996D03*
X0404113Y0371012D03*
X0394140Y0387476D03*
X0393117Y0389484D03*
X0392999Y0389484D03*
X0394062Y0391020D03*
X0394062Y0392083D03*
X0392723Y0391492D03*
X0393471Y0394681D03*
X0394140Y0395744D03*
X0392605Y0395744D03*
X0392526Y0396925D03*
X0392605Y0398579D03*
X0384416Y0396598D03*
X0383471Y0396953D03*
X0384140Y0398016D03*
X0383196Y0399079D03*
X0382605Y0399079D03*
X0382605Y0398016D03*
X0382605Y0395063D03*
X0382251Y0393646D03*
X0382723Y0391638D03*
X0383944Y0392228D03*
X0384062Y0392228D03*
X0384062Y0391047D03*
X0382723Y0389630D03*
X0384140Y0387504D03*
X0384062Y0384433D03*
X0382723Y0384551D03*
X0382054Y0384079D03*
X0384140Y0382898D03*
X0384495Y0393646D03*
X0304416Y0298339D03*
X0304140Y0296449D03*
X0302723Y0296921D03*
X0302605Y0296921D03*
X0302251Y0298339D03*
X0303196Y0294913D03*
X0303471Y0294913D03*
X0303550Y0294913D03*
X0303550Y0292197D03*
X0303471Y0292197D03*
X0303196Y0292197D03*
X0303117Y0292197D03*
D202*
X0302388Y0292433D03*
X0302388Y0295150D03*
X0303333Y0297157D03*
X0384751Y0387504D03*
X0383333Y0392465D03*
X0383333Y0393409D03*
X0394278Y0394445D03*
D203*
X0393806Y0389307D03*
X0392388Y0380803D03*
X0384751Y0383075D03*
X0383806Y0384492D03*
X0384751Y0393823D03*
X0401888Y0367173D03*
X0401888Y0364811D03*
X0304278Y0304185D03*
X0302388Y0304185D03*
D204*
X0302605Y0299933D03*
X0304495Y0298398D03*
X0302526Y0296862D03*
X0303117Y0294854D03*
X0303668Y0294854D03*
X0303668Y0292138D03*
X0382605Y0382957D03*
X0383196Y0382957D03*
X0384416Y0382957D03*
X0383117Y0389571D03*
X0382999Y0389571D03*
X0382605Y0391579D03*
X0382133Y0393705D03*
X0384613Y0393705D03*
X0384495Y0396539D03*
X0384062Y0397957D03*
X0382251Y0396657D03*
X0392251Y0397102D03*
X0392605Y0396866D03*
X0394062Y0395685D03*
X0394495Y0397102D03*
X0392605Y0391551D03*
X0393196Y0389425D03*
X0394062Y0387417D03*
X0402026Y0371071D03*
X0402105Y0371071D03*
X0402223Y0371071D03*
X0402499Y0371071D03*
X0402617Y0371071D03*
X0402696Y0371071D03*
X0402971Y0371071D03*
X0403050Y0371071D03*
X0403168Y0371071D03*
X0403444Y0371071D03*
X0403562Y0371071D03*
X0403640Y0371071D03*
X0403916Y0371071D03*
X0403995Y0371071D03*
X0402696Y0368945D03*
X0402617Y0368945D03*
X0402499Y0368945D03*
X0402223Y0368945D03*
X0402105Y0368945D03*
X0402026Y0368945D03*
X0401751Y0368945D03*
X0401633Y0368945D03*
X0401554Y0368945D03*
X0401554Y0367055D03*
X0401633Y0367055D03*
X0402696Y0365283D03*
X0402971Y0365402D03*
X0403916Y0365874D03*
X0403995Y0365874D03*
X0404113Y0365992D03*
X0403050Y0364102D03*
X0403916Y0363748D03*
X0403995Y0363630D03*
X0404113Y0363630D03*
X0401633Y0364811D03*
D205*
X0394062Y0381453D03*
X0392605Y0381453D03*
X0392999Y0384051D03*
X0391778Y0388067D03*
X0394888Y0397161D03*
X0394613Y0400469D03*
X0384613Y0391638D03*
X0384495Y0391638D03*
X0384416Y0391638D03*
X0384140Y0391638D03*
X0381778Y0388094D03*
X0381778Y0385969D03*
X0382251Y0380890D03*
X0384416Y0380890D03*
X0304140Y0294323D03*
X0304062Y0294323D03*
X0303944Y0294323D03*
X0302999Y0294323D03*
X0302723Y0294323D03*
X0302605Y0294323D03*
X0302605Y0291606D03*
X0302723Y0291606D03*
X0302999Y0291606D03*
X0303944Y0291606D03*
X0304062Y0291606D03*
X0304140Y0291606D03*
X0304416Y0291606D03*
X0304495Y0291606D03*
X0304613Y0291606D03*
D206*
X0304888Y0295150D03*
X0302999Y0297039D03*
X0302723Y0298220D03*
X0302605Y0298220D03*
X0303944Y0298220D03*
X0304062Y0298220D03*
X0304140Y0301055D03*
X0304613Y0301055D03*
X0302605Y0301055D03*
X0382133Y0384197D03*
X0382526Y0384433D03*
X0382251Y0389748D03*
X0383668Y0392346D03*
X0384140Y0393528D03*
X0382605Y0393528D03*
X0382526Y0393528D03*
X0382605Y0396717D03*
X0382723Y0396717D03*
X0383196Y0396835D03*
X0384062Y0396717D03*
X0384140Y0396717D03*
X0382526Y0398016D03*
X0382251Y0399197D03*
X0382133Y0399197D03*
X0383471Y0399197D03*
X0384495Y0399197D03*
X0392526Y0395744D03*
X0392251Y0394563D03*
X0392133Y0394563D03*
X0393196Y0394563D03*
X0393944Y0394563D03*
X0394613Y0394563D03*
X0394888Y0393382D03*
X0394140Y0397043D03*
X0392605Y0389602D03*
X0392526Y0389602D03*
X0404388Y0365933D03*
D207*
X0394613Y0381157D03*
X0383668Y0380594D03*
X0383550Y0380594D03*
X0383471Y0380594D03*
X0383196Y0380594D03*
X0383117Y0380594D03*
X0382999Y0380594D03*
X0304062Y0303240D03*
X0302605Y0303240D03*
D208*
X0302723Y0303181D03*
X0303944Y0303181D03*
X0381778Y0396480D03*
X0391778Y0397161D03*
X0394495Y0381217D03*
X0403168Y0364752D03*
D209*
X0401416Y0364811D03*
X0392861Y0389543D03*
X0392861Y0391551D03*
X0393333Y0394622D03*
X0394278Y0397102D03*
X0384278Y0393587D03*
X0383806Y0392287D03*
X0382861Y0391579D03*
X0382388Y0393587D03*
X0382388Y0396657D03*
X0383333Y0396894D03*
X0382388Y0399138D03*
X0384278Y0387563D03*
X0304751Y0300996D03*
X0304278Y0298280D03*
X0302861Y0296980D03*
D210*
X0302861Y0300228D03*
X0303806Y0300228D03*
X0394278Y0381335D03*
X0391916Y0400350D03*
D211*
X0393333Y0384228D03*
X0303806Y0303122D03*
X0302861Y0303122D03*
X0303333Y0300169D03*
D212*
X0302999Y0300228D03*
X0302999Y0303063D03*
X0304888Y0291606D03*
X0382526Y0380772D03*
X0384140Y0380772D03*
X0384888Y0391638D03*
X0393196Y0384169D03*
X0393471Y0384169D03*
D213*
X0394416Y0381276D03*
X0384062Y0380713D03*
X0383944Y0380713D03*
X0382723Y0380713D03*
X0382605Y0380713D03*
X0394888Y0400291D03*
X0303668Y0300169D03*
X0303550Y0300169D03*
X0303471Y0300169D03*
X0303196Y0300169D03*
X0303117Y0300169D03*
D214*
X0303333Y0296154D03*
X0383333Y0390752D03*
X0393333Y0390724D03*
X0393333Y0392378D03*
D215*
X0394888Y0391551D03*
X0393668Y0384110D03*
X0393550Y0384110D03*
X0393117Y0384110D03*
X0392526Y0381394D03*
X0394140Y0381394D03*
X0392054Y0400409D03*
X0303944Y0300287D03*
D216*
X0304140Y0303299D03*
X0391778Y0400114D03*
X0401278Y0371012D03*
X0403444Y0364752D03*
D217*
X0402833Y0364220D03*
X0402833Y0368945D03*
X0402361Y0368945D03*
X0401888Y0368945D03*
X0402361Y0371071D03*
X0402833Y0371071D03*
X0403306Y0371071D03*
X0403778Y0371071D03*
X0404251Y0368945D03*
X0392388Y0385882D03*
X0393333Y0389425D03*
X0391916Y0394622D03*
X0392388Y0396984D03*
X0381916Y0399020D03*
X0382388Y0385909D03*
X0382861Y0384610D03*
X0384278Y0382957D03*
X0304278Y0296508D03*
D218*
X0304751Y0291665D03*
X0382388Y0380831D03*
X0384278Y0380831D03*
X0381916Y0391579D03*
X0391916Y0391551D03*
X0394751Y0391551D03*
X0394751Y0400409D03*
D219*
X0393806Y0387358D03*
X0383806Y0389394D03*
X0383333Y0384787D03*
X0403778Y0368768D03*
X0304751Y0298575D03*
D220*
X0304888Y0298634D03*
X0384888Y0381185D03*
X0383550Y0387445D03*
X0382723Y0387799D03*
X0382526Y0387917D03*
X0382054Y0388154D03*
X0384495Y0389217D03*
X0384613Y0389217D03*
X0382133Y0391579D03*
X0383117Y0395122D03*
X0383196Y0395122D03*
X0383471Y0395122D03*
X0383550Y0395122D03*
X0383668Y0395122D03*
X0392133Y0391551D03*
X0392054Y0388126D03*
X0392526Y0387890D03*
X0392605Y0387772D03*
X0393550Y0387299D03*
X0394613Y0389071D03*
X0394140Y0383874D03*
X0392526Y0383874D03*
X0392999Y0381630D03*
X0393117Y0381630D03*
X0393196Y0381630D03*
X0393471Y0381630D03*
X0393550Y0381630D03*
X0393668Y0381630D03*
X0402499Y0367409D03*
X0402617Y0367409D03*
X0393668Y0398638D03*
X0393550Y0398638D03*
X0393471Y0398638D03*
X0393196Y0398638D03*
X0393117Y0398638D03*
X0392526Y0400646D03*
D221*
X0392133Y0400528D03*
X0394495Y0400528D03*
X0392723Y0396276D03*
X0392054Y0391551D03*
X0394140Y0391551D03*
X0394416Y0391551D03*
X0394495Y0391551D03*
X0394613Y0391551D03*
X0394888Y0389071D03*
X0393471Y0387299D03*
X0393196Y0387417D03*
X0392999Y0387535D03*
X0391778Y0385882D03*
X0393944Y0383992D03*
X0394888Y0385882D03*
X0393944Y0381512D03*
X0392723Y0381512D03*
X0384495Y0380949D03*
X0382133Y0380949D03*
X0384888Y0385909D03*
X0383196Y0387445D03*
X0382054Y0391579D03*
X0384888Y0396539D03*
X0382723Y0398547D03*
X0402971Y0368472D03*
X0402617Y0364811D03*
X0304888Y0304421D03*
D222*
X0305007Y0296980D03*
D223*
X0305322Y0297157D03*
D224*
X0305440Y0297217D03*
D225*
X0310341Y0295764D03*
X0316325Y0295764D03*
D226*
X0316168Y0295685D03*
X0310499Y0295685D03*
D227*
X0403778Y0364811D03*
X0401416Y0371071D03*
D228*
X0401554Y0371012D03*
X0401633Y0371012D03*
D229*
X0401751Y0371071D03*
D230*
X0403050Y0368531D03*
X0403168Y0368531D03*
X0402696Y0367469D03*
X0402499Y0364752D03*
X0394888Y0383815D03*
X0394062Y0383933D03*
X0392723Y0383933D03*
X0392605Y0383933D03*
X0393117Y0387476D03*
X0392723Y0387713D03*
X0384888Y0389157D03*
X0383471Y0387386D03*
X0383117Y0387504D03*
X0382999Y0387622D03*
X0382054Y0381008D03*
X0384613Y0381008D03*
X0392251Y0400587D03*
X0394416Y0400587D03*
D231*
X0383333Y0380594D03*
X0403306Y0364811D03*
D232*
X0403562Y0364811D03*
D233*
X0403640Y0364752D03*
X0394888Y0381098D03*
D234*
X0389215Y0332008D03*
D235*
X0389215Y0331870D03*
X0389215Y0328091D03*
D236*
X0389215Y0328209D03*
X0389215Y0331752D03*
D237*
X0389215Y0331654D03*
D238*
X0385022Y0331555D03*
D239*
X0393349Y0331555D03*
D240*
X0394589Y0331417D03*
X0394944Y0329528D03*
D241*
X0389215Y0328327D03*
D242*
X0389215Y0328012D03*
D243*
X0356483Y0396323D03*
X0356325Y0396323D03*
X0356168Y0396323D03*
X0356010Y0396323D03*
X0355853Y0396323D03*
X0355696Y0396323D03*
X0355538Y0396323D03*
X0351129Y0396323D03*
X0350971Y0396323D03*
X0350814Y0396323D03*
X0350656Y0396323D03*
X0350499Y0396323D03*
X0350341Y0396323D03*
X0350184Y0396323D03*
D244*
X0370184Y0397717D03*
X0376483Y0397717D03*
D245*
X0376325Y0397638D03*
X0370341Y0397638D03*
D246*
X0370499Y0397480D03*
X0376168Y0397480D03*
D247*
X0376010Y0397402D03*
X0370656Y0397402D03*
D248*
X0371759Y0396850D03*
D249*
X0371916Y0396772D03*
D250*
X0372231Y0396614D03*
D251*
X0375853Y0397323D03*
D252*
X0408310Y0379063D02*
X0408034Y0378512D01*
X0407955Y0378157D01*
X0407955Y0377764D01*
X0408034Y0377331D01*
X0408270Y0376898D01*
X0408546Y0376543D01*
X0408861Y0376346D01*
X0409215Y0376228D01*
X0409530Y0376228D01*
X0409885Y0376307D01*
X0410239Y0376504D01*
X0410554Y0376780D01*
X0410908Y0377094D01*
X0411184Y0377370D01*
X0411499Y0377488D01*
X0411774Y0377488D01*
X0412010Y0377409D01*
X0412207Y0377252D01*
X0412365Y0377016D01*
X0412444Y0376701D01*
X0412444Y0376386D01*
X0412404Y0376189D01*
X0412325Y0375992D01*
X0412089Y0375756D01*
X0411971Y0375677D01*
X0411853Y0375638D01*
X0411696Y0375638D01*
X0411577Y0375677D01*
X0411341Y0375913D01*
X0411302Y0376031D01*
X0411223Y0376189D01*
X0411184Y0376228D01*
X0411105Y0376071D01*
X0411105Y0375598D01*
X0411144Y0375362D01*
X0411184Y0375165D01*
X0411262Y0374969D01*
X0411381Y0374811D01*
X0411538Y0374614D01*
X0411932Y0374378D01*
X0412207Y0374299D01*
X0412522Y0374260D01*
X0417916Y0374260D01*
X0417719Y0374457D01*
X0417522Y0374575D01*
X0417325Y0374772D01*
X0417089Y0374969D01*
X0416617Y0375441D01*
X0416066Y0375913D01*
X0415672Y0376307D01*
X0415436Y0376701D01*
X0415396Y0376937D01*
X0415396Y0377685D01*
X0415318Y0378157D01*
X0415199Y0378591D01*
X0415042Y0378984D01*
X0414806Y0379378D01*
X0414530Y0379693D01*
X0414215Y0380008D01*
X0413861Y0380283D01*
X0413152Y0380677D01*
X0412404Y0380874D01*
X0411735Y0380913D01*
X0411105Y0380795D01*
X0410514Y0380598D01*
X0410081Y0380323D01*
X0409727Y0380008D01*
X0409530Y0379693D01*
X0409885Y0379693D01*
X0410003Y0379654D01*
X0410081Y0379614D01*
X0410199Y0379496D01*
X0410239Y0379378D01*
X0410239Y0379260D01*
X0410160Y0378945D01*
X0410081Y0378787D01*
X0410003Y0378669D01*
X0409885Y0378512D01*
X0409648Y0378276D01*
X0409412Y0378118D01*
X0409255Y0378079D01*
X0409018Y0378079D01*
X0408900Y0378118D01*
X0408822Y0378157D01*
X0408703Y0378236D01*
X0408585Y0378394D01*
X0408507Y0378551D01*
X0408467Y0378748D01*
X0408428Y0378906D01*
X0408428Y0379142D01*
X0408467Y0379220D01*
X0408467Y0379260D01*
X0408428Y0379220D01*
X0408310Y0379063D01*
X0408258Y0378959D02*
X0408428Y0378959D01*
X0408465Y0379257D02*
X0408467Y0379257D01*
X0408485Y0378660D02*
X0408108Y0378660D01*
X0408001Y0378362D02*
X0408609Y0378362D01*
X0407955Y0378063D02*
X0415333Y0378063D01*
X0415383Y0377765D02*
X0407955Y0377765D01*
X0408009Y0377466D02*
X0411440Y0377466D01*
X0411840Y0377466D02*
X0415396Y0377466D01*
X0415396Y0377168D02*
X0412264Y0377168D01*
X0412401Y0376869D02*
X0415408Y0376869D01*
X0415514Y0376571D02*
X0412444Y0376571D01*
X0412421Y0376272D02*
X0415707Y0376272D01*
X0416005Y0375974D02*
X0412307Y0375974D01*
X0411965Y0375675D02*
X0416344Y0375675D01*
X0416681Y0375377D02*
X0411142Y0375377D01*
X0411105Y0375675D02*
X0411584Y0375675D01*
X0411321Y0375974D02*
X0411105Y0375974D01*
X0411219Y0375078D02*
X0416980Y0375078D01*
X0417316Y0374780D02*
X0411406Y0374780D01*
X0411760Y0374481D02*
X0417679Y0374481D01*
X0415262Y0378362D02*
X0409734Y0378362D01*
X0409996Y0378660D02*
X0415172Y0378660D01*
X0415052Y0378959D02*
X0410164Y0378959D01*
X0410238Y0379257D02*
X0414878Y0379257D01*
X0414650Y0379556D02*
X0410140Y0379556D01*
X0409631Y0379854D02*
X0414369Y0379854D01*
X0414029Y0380153D02*
X0409890Y0380153D01*
X0410283Y0380451D02*
X0413559Y0380451D01*
X0412876Y0380750D02*
X0410968Y0380750D01*
X0410981Y0377168D02*
X0408123Y0377168D01*
X0408293Y0376869D02*
X0410655Y0376869D01*
X0410315Y0376571D02*
X0408525Y0376571D01*
X0409084Y0376272D02*
X0409727Y0376272D01*
D253*
X0385676Y0391402D03*
X0380991Y0391402D03*
D254*
X0381109Y0391343D03*
X0385558Y0391343D03*
D255*
X0381207Y0391224D03*
D256*
X0381325Y0391165D03*
D257*
X0381463Y0391106D03*
X0385243Y0391106D03*
D258*
X0381581Y0391047D03*
D259*
X0381680Y0384787D03*
D260*
X0381680Y0395476D03*
D261*
X0381778Y0382543D03*
D262*
X0381778Y0399846D03*
D263*
X0382861Y0398606D03*
X0383806Y0397425D03*
X0384751Y0389157D03*
X0381916Y0388094D03*
X0381916Y0385969D03*
X0391916Y0388067D03*
X0392861Y0387594D03*
X0394751Y0389130D03*
X0393806Y0395154D03*
X0392861Y0396335D03*
X0391916Y0397161D03*
X0392861Y0381571D03*
X0393806Y0381571D03*
D264*
X0392861Y0383992D03*
X0393333Y0387299D03*
X0394278Y0391551D03*
X0383333Y0387327D03*
D265*
X0385007Y0384079D03*
D266*
X0385007Y0394827D03*
X0385125Y0394827D03*
X0395007Y0394799D03*
D267*
X0385125Y0384256D03*
D268*
X0385322Y0391165D03*
D269*
X0385440Y0391224D03*
D270*
X0390991Y0390134D03*
X0395676Y0390134D03*
D271*
X0395558Y0390193D03*
X0391109Y0390193D03*
D272*
X0391207Y0390252D03*
D273*
X0391325Y0390311D03*
D274*
X0391463Y0390370D03*
X0395243Y0390370D03*
D275*
X0391581Y0390429D03*
D276*
X0391680Y0384287D03*
D277*
X0391680Y0395390D03*
D278*
X0391778Y0382161D03*
D279*
X0391778Y0392496D03*
D280*
X0394751Y0381098D03*
D281*
X0395007Y0383579D03*
D282*
X0395125Y0383638D03*
D283*
X0395125Y0394740D03*
D284*
X0395322Y0390311D03*
D285*
X0395440Y0390252D03*
D286*
X0392900Y0487441D02*
X0392900Y0490689D01*
X0460324Y0431352D02*
X0462126Y0431352D01*
X0462126Y0430902D01*
X0460324Y0429100D01*
X0460324Y0428650D01*
X0463271Y0430001D02*
X0465072Y0430001D01*
X0464622Y0428650D02*
X0464622Y0431352D01*
X0463271Y0430001D01*
X0466217Y0428650D02*
X0468019Y0428650D01*
X0469164Y0429551D02*
X0470064Y0428650D01*
X0470965Y0429551D01*
X0470965Y0431352D01*
X0472110Y0430902D02*
X0472110Y0429100D01*
X0472560Y0428650D01*
X0473461Y0428650D01*
X0473912Y0429100D01*
X0475057Y0430001D02*
X0476858Y0430001D01*
X0476408Y0428650D02*
X0476408Y0431352D01*
X0475057Y0430001D01*
X0473912Y0430902D02*
X0473461Y0431352D01*
X0472560Y0431352D01*
X0472110Y0430902D01*
X0469164Y0431352D02*
X0469164Y0429551D01*
X0466217Y0428650D02*
X0466217Y0431352D01*
X0478003Y0430902D02*
X0478453Y0431352D01*
X0479354Y0431352D01*
X0479805Y0430902D01*
X0478003Y0429100D01*
X0478453Y0428650D01*
X0479354Y0428650D01*
X0479805Y0429100D01*
X0479805Y0430902D01*
X0480950Y0430001D02*
X0482301Y0430001D01*
X0482751Y0429551D01*
X0482751Y0429100D01*
X0482301Y0428650D01*
X0481400Y0428650D01*
X0480950Y0429100D01*
X0480950Y0430001D01*
X0481850Y0430902D01*
X0482751Y0431352D01*
X0483896Y0430001D02*
X0485247Y0430001D01*
X0485698Y0429551D01*
X0485698Y0429100D01*
X0485247Y0428650D01*
X0484347Y0428650D01*
X0483896Y0429100D01*
X0483896Y0430001D01*
X0484797Y0430902D01*
X0485698Y0431352D01*
X0478003Y0430902D02*
X0478003Y0429100D01*
X0471640Y0487441D02*
X0471640Y0490689D01*
X0314160Y0490689D02*
X0314160Y0487441D01*
X0235420Y0487441D02*
X0235420Y0490689D01*
D287*
X0308333Y0185000D02*
X0312936Y0185000D01*
X0316873Y0185000D02*
X0321476Y0185000D01*
X0325413Y0185000D02*
X0330016Y0185000D01*
X0333953Y0185000D02*
X0338555Y0185000D01*
X0342492Y0185000D02*
X0347095Y0185000D01*
X0351032Y0185000D02*
X0355635Y0185000D01*
X0359572Y0185000D02*
X0364174Y0185000D01*
X0368111Y0185000D02*
X0372714Y0185000D01*
X0376651Y0185000D02*
X0381254Y0185000D01*
X0385191Y0185000D02*
X0389794Y0185000D01*
X0393731Y0185000D02*
X0398333Y0185000D01*
X0398473Y0184998D01*
X0398613Y0184992D01*
X0398753Y0184982D01*
X0398893Y0184969D01*
X0399032Y0184951D01*
X0399171Y0184929D01*
X0399308Y0184904D01*
X0399446Y0184875D01*
X0399582Y0184842D01*
X0399717Y0184805D01*
X0399851Y0184764D01*
X0399984Y0184719D01*
X0400116Y0184671D01*
X0400246Y0184619D01*
X0400375Y0184564D01*
X0400502Y0184505D01*
X0400628Y0184442D01*
X0400752Y0184376D01*
X0400873Y0184307D01*
X0400993Y0184234D01*
X0401111Y0184157D01*
X0401226Y0184078D01*
X0401340Y0183995D01*
X0401450Y0183909D01*
X0401559Y0183820D01*
X0401665Y0183728D01*
X0401768Y0183633D01*
X0401869Y0183536D01*
X0401966Y0183435D01*
X0402061Y0183332D01*
X0402153Y0183226D01*
X0402242Y0183117D01*
X0402328Y0183007D01*
X0402411Y0182893D01*
X0402490Y0182778D01*
X0402567Y0182660D01*
X0402640Y0182540D01*
X0402709Y0182419D01*
X0402775Y0182295D01*
X0402838Y0182169D01*
X0402897Y0182042D01*
X0402952Y0181913D01*
X0403004Y0181783D01*
X0403052Y0181651D01*
X0403097Y0181518D01*
X0403138Y0181384D01*
X0403175Y0181249D01*
X0403208Y0181113D01*
X0403237Y0180975D01*
X0403262Y0180838D01*
X0403284Y0180699D01*
X0403302Y0180560D01*
X0403315Y0180420D01*
X0403325Y0180280D01*
X0403331Y0180140D01*
X0403333Y0180000D01*
X0403333Y0175517D01*
X0403333Y0171580D02*
X0403333Y0167098D01*
X0403333Y0163161D02*
X0403333Y0158678D01*
X0403333Y0154741D02*
X0403333Y0150259D01*
X0403333Y0146322D02*
X0403333Y0141839D01*
X0403333Y0137902D02*
X0403333Y0133420D01*
X0403333Y0129483D02*
X0403333Y0125000D01*
X0403331Y0124860D01*
X0403325Y0124720D01*
X0403315Y0124580D01*
X0403302Y0124440D01*
X0403284Y0124301D01*
X0403262Y0124162D01*
X0403237Y0124025D01*
X0403208Y0123887D01*
X0403175Y0123751D01*
X0403138Y0123616D01*
X0403097Y0123482D01*
X0403052Y0123349D01*
X0403004Y0123217D01*
X0402952Y0123087D01*
X0402897Y0122958D01*
X0402838Y0122831D01*
X0402775Y0122705D01*
X0402709Y0122581D01*
X0402640Y0122460D01*
X0402567Y0122340D01*
X0402490Y0122222D01*
X0402411Y0122107D01*
X0402328Y0121993D01*
X0402242Y0121883D01*
X0402153Y0121774D01*
X0402061Y0121668D01*
X0401966Y0121565D01*
X0401869Y0121464D01*
X0401768Y0121367D01*
X0401665Y0121272D01*
X0401559Y0121180D01*
X0401450Y0121091D01*
X0401340Y0121005D01*
X0401226Y0120922D01*
X0401111Y0120843D01*
X0400993Y0120766D01*
X0400873Y0120693D01*
X0400752Y0120624D01*
X0400628Y0120558D01*
X0400502Y0120495D01*
X0400375Y0120436D01*
X0400246Y0120381D01*
X0400116Y0120329D01*
X0399984Y0120281D01*
X0399851Y0120236D01*
X0399717Y0120195D01*
X0399582Y0120158D01*
X0399446Y0120125D01*
X0399308Y0120096D01*
X0399171Y0120071D01*
X0399032Y0120049D01*
X0398893Y0120031D01*
X0398753Y0120018D01*
X0398613Y0120008D01*
X0398473Y0120002D01*
X0398333Y0120000D01*
X0393731Y0120000D01*
X0389794Y0120000D02*
X0385191Y0120000D01*
X0381254Y0120000D02*
X0376651Y0120000D01*
X0372714Y0120000D02*
X0368111Y0120000D01*
X0364174Y0120000D02*
X0359572Y0120000D01*
X0355635Y0120000D02*
X0351032Y0120000D01*
X0347095Y0120000D02*
X0342492Y0120000D01*
X0338555Y0120000D02*
X0333953Y0120000D01*
X0330016Y0120000D02*
X0325413Y0120000D01*
X0321476Y0120000D02*
X0316873Y0120000D01*
X0312936Y0120000D02*
X0308333Y0120000D01*
X0308193Y0120002D01*
X0308053Y0120008D01*
X0307913Y0120018D01*
X0307773Y0120031D01*
X0307634Y0120049D01*
X0307495Y0120071D01*
X0307358Y0120096D01*
X0307220Y0120125D01*
X0307084Y0120158D01*
X0306949Y0120195D01*
X0306815Y0120236D01*
X0306682Y0120281D01*
X0306550Y0120329D01*
X0306420Y0120381D01*
X0306291Y0120436D01*
X0306164Y0120495D01*
X0306038Y0120558D01*
X0305914Y0120624D01*
X0305793Y0120693D01*
X0305673Y0120766D01*
X0305555Y0120843D01*
X0305440Y0120922D01*
X0305326Y0121005D01*
X0305216Y0121091D01*
X0305107Y0121180D01*
X0305001Y0121272D01*
X0304898Y0121367D01*
X0304797Y0121464D01*
X0304700Y0121565D01*
X0304605Y0121668D01*
X0304513Y0121774D01*
X0304424Y0121883D01*
X0304338Y0121993D01*
X0304255Y0122107D01*
X0304176Y0122222D01*
X0304099Y0122340D01*
X0304026Y0122460D01*
X0303957Y0122581D01*
X0303891Y0122705D01*
X0303828Y0122831D01*
X0303769Y0122958D01*
X0303714Y0123087D01*
X0303662Y0123217D01*
X0303614Y0123349D01*
X0303569Y0123482D01*
X0303528Y0123616D01*
X0303491Y0123751D01*
X0303458Y0123887D01*
X0303429Y0124025D01*
X0303404Y0124162D01*
X0303382Y0124301D01*
X0303364Y0124440D01*
X0303351Y0124580D01*
X0303341Y0124720D01*
X0303335Y0124860D01*
X0303333Y0125000D01*
X0303333Y0129483D01*
X0303333Y0133420D02*
X0303333Y0137902D01*
X0303333Y0141839D02*
X0303333Y0146322D01*
X0303333Y0150259D02*
X0303333Y0154741D01*
X0303333Y0158678D02*
X0303333Y0163161D01*
X0303333Y0167098D02*
X0303333Y0171580D01*
X0303333Y0175517D02*
X0303333Y0180000D01*
X0303335Y0180140D01*
X0303341Y0180280D01*
X0303351Y0180420D01*
X0303364Y0180560D01*
X0303382Y0180699D01*
X0303404Y0180838D01*
X0303429Y0180975D01*
X0303458Y0181113D01*
X0303491Y0181249D01*
X0303528Y0181384D01*
X0303569Y0181518D01*
X0303614Y0181651D01*
X0303662Y0181783D01*
X0303714Y0181913D01*
X0303769Y0182042D01*
X0303828Y0182169D01*
X0303891Y0182295D01*
X0303957Y0182419D01*
X0304026Y0182540D01*
X0304099Y0182660D01*
X0304176Y0182778D01*
X0304255Y0182893D01*
X0304338Y0183007D01*
X0304424Y0183117D01*
X0304513Y0183226D01*
X0304605Y0183332D01*
X0304700Y0183435D01*
X0304797Y0183536D01*
X0304898Y0183633D01*
X0305001Y0183728D01*
X0305107Y0183820D01*
X0305216Y0183909D01*
X0305326Y0183995D01*
X0305440Y0184078D01*
X0305555Y0184157D01*
X0305673Y0184234D01*
X0305793Y0184307D01*
X0305914Y0184376D01*
X0306038Y0184442D01*
X0306164Y0184505D01*
X0306291Y0184564D01*
X0306420Y0184619D01*
X0306550Y0184671D01*
X0306682Y0184719D01*
X0306815Y0184764D01*
X0306949Y0184805D01*
X0307084Y0184842D01*
X0307220Y0184875D01*
X0307358Y0184904D01*
X0307495Y0184929D01*
X0307634Y0184951D01*
X0307773Y0184969D01*
X0307913Y0184982D01*
X0308053Y0184992D01*
X0308193Y0184998D01*
X0308333Y0185000D01*
M02*
