G75*
%MOIN*%
%OFA0B0*%
%FSLAX25Y25*%
%IPPOS*%
%LPD*%
%AMOC8*
5,1,8,0,0,1.08239X$1,22.5*
%
%ADD10C,0.07400*%
%ADD11R,0.05020X0.05020*%
%ADD12C,0.05020*%
%ADD13R,0.04724X0.05512*%
%ADD14C,0.03200*%
%ADD15C,0.01200*%
%ADD16R,0.02362X0.04724*%
%ADD17R,0.02500X0.05000*%
%ADD18C,0.00600*%
%ADD19C,0.02381*%
%ADD20C,0.01500*%
%ADD21C,0.02400*%
D10*
X0358333Y0260000D03*
X0368333Y0260000D03*
X0378333Y0260000D03*
X0388333Y0260000D03*
X0398333Y0260000D03*
X0408333Y0260000D03*
X0408333Y0380000D03*
X0398333Y0380000D03*
X0418333Y0380000D03*
X0428333Y0380000D03*
X0438333Y0380000D03*
X0448333Y0380000D03*
X0458333Y0380000D03*
D11*
X0294160Y0449921D03*
D12*
X0302034Y0450315D03*
X0302034Y0458189D03*
X0309908Y0458189D03*
X0309908Y0450315D03*
X0317782Y0450315D03*
X0317782Y0458189D03*
X0325656Y0458189D03*
X0325656Y0450315D03*
X0333530Y0450315D03*
X0333530Y0458189D03*
X0341404Y0458189D03*
X0341404Y0450315D03*
X0349278Y0450315D03*
X0349278Y0458189D03*
X0357152Y0458189D03*
X0357152Y0450315D03*
X0365026Y0450315D03*
X0365026Y0458189D03*
X0372900Y0458189D03*
X0372900Y0450315D03*
X0380774Y0450315D03*
X0380774Y0458189D03*
X0388648Y0458189D03*
X0388648Y0450315D03*
X0396522Y0450315D03*
X0396522Y0458189D03*
X0404396Y0458189D03*
X0404396Y0450315D03*
X0412270Y0450315D03*
X0412270Y0458189D03*
X0420144Y0458189D03*
X0420144Y0450315D03*
X0428018Y0450315D03*
X0428018Y0458189D03*
X0435892Y0458189D03*
X0435892Y0450315D03*
X0443766Y0450315D03*
X0443766Y0458189D03*
X0451640Y0458189D03*
X0451640Y0450315D03*
X0459514Y0450315D03*
X0459514Y0458189D03*
X0467388Y0458189D03*
X0467388Y0450315D03*
X0475262Y0450315D03*
X0475262Y0458189D03*
X0483136Y0458189D03*
X0483136Y0450315D03*
X0491010Y0450315D03*
X0491010Y0458189D03*
X0498885Y0458189D03*
X0506759Y0458189D03*
X0506759Y0450315D03*
X0498885Y0450315D03*
X0514633Y0450315D03*
X0514633Y0458189D03*
X0522507Y0458583D03*
X0522507Y0449921D03*
X0294160Y0458583D03*
D13*
X0542428Y0195000D03*
X0554239Y0195000D03*
X0582428Y0195000D03*
X0594239Y0195000D03*
X0594239Y0160000D03*
X0582428Y0160000D03*
X0554239Y0160000D03*
X0542428Y0160000D03*
D14*
X0350633Y0192700D03*
X0235633Y0192700D03*
D15*
X0188533Y0133200D02*
X0188833Y0132600D01*
X0189033Y0132300D01*
X0285833Y0193000D01*
X0285833Y0187000D01*
X0195733Y0130000D01*
X0200733Y0130000D01*
X0285833Y0183000D01*
X0285833Y0177000D01*
X0210733Y0130000D01*
X0215233Y0130000D01*
X0285833Y0173000D01*
X0285833Y0167000D01*
X0225733Y0130000D01*
X0230233Y0130000D01*
X0285833Y0163000D01*
X0285833Y0157000D01*
X0240733Y0130000D01*
X0245233Y0130000D01*
X0285833Y0153000D01*
X0285833Y0147000D01*
X0255833Y0130000D01*
X0259733Y0130000D01*
X0285833Y0143000D01*
X0285833Y0137000D01*
X0272033Y0130000D01*
X0283333Y0130000D01*
X0284202Y0130076D01*
X0285043Y0130302D01*
X0285833Y0130670D01*
X0286547Y0131170D01*
X0287164Y0131786D01*
X0287663Y0132500D01*
X0288032Y0133290D01*
X0288257Y0134132D01*
X0288333Y0135000D01*
X0288333Y0190000D01*
X0288257Y0190868D01*
X0288032Y0191710D01*
X0287663Y0192500D01*
X0287164Y0193214D01*
X0286547Y0193830D01*
X0285833Y0194330D01*
X0285043Y0194698D01*
X0284202Y0194924D01*
X0283333Y0195000D01*
X0193333Y0195000D01*
X0192465Y0194924D01*
X0191623Y0194698D01*
X0190833Y0194330D01*
X0190119Y0193830D01*
X0189503Y0193214D01*
X0189003Y0192500D01*
X0188635Y0191710D01*
X0188409Y0190868D01*
X0188333Y0190000D01*
X0194333Y0192500D01*
X0206133Y0192500D01*
X0188633Y0184600D01*
X0188633Y0182400D01*
X0210333Y0192500D01*
X0219733Y0192500D01*
X0188333Y0174900D01*
X0188633Y0172100D01*
X0225333Y0192500D01*
X0234733Y0192500D01*
X0188333Y0164900D01*
X0188633Y0162100D01*
X0240333Y0192500D01*
X0249733Y0192500D01*
X0188333Y0154900D01*
X0188633Y0152100D01*
X0255333Y0192500D01*
X0265233Y0192500D01*
X0188333Y0144900D01*
X0188633Y0142100D01*
X0270333Y0192500D01*
X0279733Y0192500D01*
X0188333Y0134900D01*
X0188133Y0134800D01*
X0188133Y0134200D01*
X0188533Y0133200D01*
X0188747Y0132772D02*
X0189786Y0132772D01*
X0188225Y0133970D02*
X0191697Y0133970D01*
X0193608Y0135169D02*
X0188760Y0135169D01*
X0190662Y0136367D02*
X0195519Y0136367D01*
X0197431Y0137566D02*
X0192563Y0137566D01*
X0194465Y0138764D02*
X0199342Y0138764D01*
X0201253Y0139963D02*
X0196367Y0139963D01*
X0198269Y0141161D02*
X0203165Y0141161D01*
X0205076Y0142360D02*
X0200171Y0142360D01*
X0202072Y0143558D02*
X0206987Y0143558D01*
X0208899Y0144757D02*
X0203974Y0144757D01*
X0205876Y0145955D02*
X0210810Y0145955D01*
X0212721Y0147154D02*
X0207778Y0147154D01*
X0209680Y0148352D02*
X0214632Y0148352D01*
X0216544Y0149551D02*
X0211581Y0149551D01*
X0213483Y0150749D02*
X0218455Y0150749D01*
X0220366Y0151948D02*
X0215385Y0151948D01*
X0217287Y0153146D02*
X0222278Y0153146D01*
X0224189Y0154345D02*
X0219189Y0154345D01*
X0221090Y0155543D02*
X0226100Y0155543D01*
X0228012Y0156742D02*
X0222992Y0156742D01*
X0224894Y0157940D02*
X0229923Y0157940D01*
X0231834Y0159139D02*
X0226796Y0159139D01*
X0228698Y0160337D02*
X0233745Y0160337D01*
X0235657Y0161536D02*
X0230599Y0161536D01*
X0232501Y0162734D02*
X0237568Y0162734D01*
X0239479Y0163933D02*
X0234403Y0163933D01*
X0236305Y0165132D02*
X0241391Y0165132D01*
X0243302Y0166330D02*
X0238207Y0166330D01*
X0240108Y0167529D02*
X0245213Y0167529D01*
X0247125Y0168727D02*
X0242010Y0168727D01*
X0243912Y0169926D02*
X0249036Y0169926D01*
X0250947Y0171124D02*
X0245814Y0171124D01*
X0247716Y0172323D02*
X0252858Y0172323D01*
X0254770Y0173521D02*
X0249618Y0173521D01*
X0251519Y0174720D02*
X0256681Y0174720D01*
X0258592Y0175918D02*
X0253421Y0175918D01*
X0255323Y0177117D02*
X0260504Y0177117D01*
X0262415Y0178315D02*
X0257225Y0178315D01*
X0259127Y0179514D02*
X0264326Y0179514D01*
X0266238Y0180712D02*
X0261028Y0180712D01*
X0262930Y0181911D02*
X0268149Y0181911D01*
X0270060Y0183109D02*
X0264832Y0183109D01*
X0266734Y0184308D02*
X0271971Y0184308D01*
X0273883Y0185506D02*
X0268636Y0185506D01*
X0270537Y0186705D02*
X0275794Y0186705D01*
X0277705Y0187903D02*
X0272439Y0187903D01*
X0274341Y0189102D02*
X0279617Y0189102D01*
X0281528Y0190300D02*
X0276243Y0190300D01*
X0278145Y0191499D02*
X0283439Y0191499D01*
X0285351Y0192697D02*
X0189141Y0192697D01*
X0188578Y0191499D02*
X0191930Y0191499D01*
X0190213Y0193896D02*
X0286454Y0193896D01*
X0285833Y0192697D02*
X0287525Y0192697D01*
X0288088Y0191499D02*
X0285833Y0191499D01*
X0285833Y0190300D02*
X0288307Y0190300D01*
X0288333Y0189102D02*
X0285833Y0189102D01*
X0285833Y0187903D02*
X0288333Y0187903D01*
X0288333Y0186705D02*
X0285367Y0186705D01*
X0283472Y0185506D02*
X0288333Y0185506D01*
X0288333Y0184308D02*
X0281578Y0184308D01*
X0279683Y0183109D02*
X0288333Y0183109D01*
X0288333Y0181911D02*
X0285833Y0181911D01*
X0285833Y0180712D02*
X0288333Y0180712D01*
X0288333Y0179514D02*
X0285833Y0179514D01*
X0285833Y0178315D02*
X0288333Y0178315D01*
X0288333Y0177117D02*
X0285833Y0177117D01*
X0284105Y0175918D02*
X0288333Y0175918D01*
X0288333Y0174720D02*
X0282190Y0174720D01*
X0280274Y0173521D02*
X0288333Y0173521D01*
X0288333Y0172323D02*
X0285833Y0172323D01*
X0284721Y0172323D02*
X0278359Y0172323D01*
X0276444Y0171124D02*
X0282753Y0171124D01*
X0280786Y0169926D02*
X0274529Y0169926D01*
X0272614Y0168727D02*
X0278818Y0168727D01*
X0276850Y0167529D02*
X0270699Y0167529D01*
X0268784Y0166330D02*
X0274882Y0166330D01*
X0272914Y0165132D02*
X0266869Y0165132D01*
X0264954Y0163933D02*
X0270947Y0163933D01*
X0268979Y0162734D02*
X0263039Y0162734D01*
X0261124Y0161536D02*
X0267011Y0161536D01*
X0265043Y0160337D02*
X0259209Y0160337D01*
X0257294Y0159139D02*
X0263075Y0159139D01*
X0261108Y0157940D02*
X0255379Y0157940D01*
X0253464Y0156742D02*
X0259140Y0156742D01*
X0257172Y0155543D02*
X0251548Y0155543D01*
X0249633Y0154345D02*
X0255204Y0154345D01*
X0253236Y0153146D02*
X0247718Y0153146D01*
X0245803Y0151948D02*
X0251269Y0151948D01*
X0249301Y0150749D02*
X0243888Y0150749D01*
X0241973Y0149551D02*
X0247333Y0149551D01*
X0245365Y0148352D02*
X0240058Y0148352D01*
X0238143Y0147154D02*
X0243398Y0147154D01*
X0241430Y0145955D02*
X0236228Y0145955D01*
X0234313Y0144757D02*
X0239462Y0144757D01*
X0237494Y0143558D02*
X0232398Y0143558D01*
X0230483Y0142360D02*
X0235526Y0142360D01*
X0233559Y0141161D02*
X0228568Y0141161D01*
X0226653Y0139963D02*
X0231591Y0139963D01*
X0229623Y0138764D02*
X0224738Y0138764D01*
X0222822Y0137566D02*
X0227655Y0137566D01*
X0225687Y0136367D02*
X0220907Y0136367D01*
X0218992Y0135169D02*
X0223720Y0135169D01*
X0221752Y0133970D02*
X0217077Y0133970D01*
X0215162Y0132772D02*
X0219784Y0132772D01*
X0217816Y0131573D02*
X0213247Y0131573D01*
X0211332Y0130375D02*
X0215849Y0130375D01*
X0210957Y0136367D02*
X0205798Y0136367D01*
X0203904Y0135169D02*
X0209033Y0135169D01*
X0207108Y0133970D02*
X0202009Y0133970D01*
X0200115Y0132772D02*
X0205184Y0132772D01*
X0203259Y0131573D02*
X0198220Y0131573D01*
X0196326Y0130375D02*
X0201335Y0130375D01*
X0207693Y0137566D02*
X0212881Y0137566D01*
X0214806Y0138764D02*
X0209587Y0138764D01*
X0211482Y0139963D02*
X0216730Y0139963D01*
X0218655Y0141161D02*
X0213376Y0141161D01*
X0215270Y0142360D02*
X0220579Y0142360D01*
X0222503Y0143558D02*
X0217165Y0143558D01*
X0219059Y0144757D02*
X0224428Y0144757D01*
X0226352Y0145955D02*
X0220954Y0145955D01*
X0222848Y0147154D02*
X0228277Y0147154D01*
X0230201Y0148352D02*
X0224743Y0148352D01*
X0226637Y0149551D02*
X0232125Y0149551D01*
X0234050Y0150749D02*
X0228532Y0150749D01*
X0230426Y0151948D02*
X0235974Y0151948D01*
X0237899Y0153146D02*
X0232321Y0153146D01*
X0234215Y0154345D02*
X0239823Y0154345D01*
X0241747Y0155543D02*
X0236110Y0155543D01*
X0238004Y0156742D02*
X0243672Y0156742D01*
X0245596Y0157940D02*
X0239899Y0157940D01*
X0241793Y0159139D02*
X0247521Y0159139D01*
X0249445Y0160337D02*
X0243688Y0160337D01*
X0245582Y0161536D02*
X0251369Y0161536D01*
X0253294Y0162734D02*
X0247477Y0162734D01*
X0249371Y0163933D02*
X0255218Y0163933D01*
X0257143Y0165132D02*
X0251266Y0165132D01*
X0253160Y0166330D02*
X0259067Y0166330D01*
X0260991Y0167529D02*
X0255055Y0167529D01*
X0256949Y0168727D02*
X0262916Y0168727D01*
X0264840Y0169926D02*
X0258844Y0169926D01*
X0260738Y0171124D02*
X0266765Y0171124D01*
X0268689Y0172323D02*
X0262633Y0172323D01*
X0264527Y0173521D02*
X0270613Y0173521D01*
X0272538Y0174720D02*
X0266422Y0174720D01*
X0268316Y0175918D02*
X0274462Y0175918D01*
X0276387Y0177117D02*
X0270211Y0177117D01*
X0272105Y0178315D02*
X0278311Y0178315D01*
X0280235Y0179514D02*
X0274000Y0179514D01*
X0275894Y0180712D02*
X0282160Y0180712D01*
X0284084Y0181911D02*
X0277789Y0181911D01*
X0268710Y0191499D02*
X0263616Y0191499D01*
X0261680Y0190300D02*
X0266767Y0190300D01*
X0264825Y0189102D02*
X0259743Y0189102D01*
X0257807Y0187903D02*
X0262882Y0187903D01*
X0260939Y0186705D02*
X0255871Y0186705D01*
X0253935Y0185506D02*
X0258996Y0185506D01*
X0257053Y0184308D02*
X0251998Y0184308D01*
X0250062Y0183109D02*
X0255111Y0183109D01*
X0253168Y0181911D02*
X0248126Y0181911D01*
X0246190Y0180712D02*
X0251225Y0180712D01*
X0249282Y0179514D02*
X0244253Y0179514D01*
X0242317Y0178315D02*
X0247339Y0178315D01*
X0245396Y0177117D02*
X0240381Y0177117D01*
X0238445Y0175918D02*
X0243454Y0175918D01*
X0241511Y0174720D02*
X0236508Y0174720D01*
X0234572Y0173521D02*
X0239568Y0173521D01*
X0237625Y0172323D02*
X0232636Y0172323D01*
X0230700Y0171124D02*
X0235682Y0171124D01*
X0233739Y0169926D02*
X0228763Y0169926D01*
X0226827Y0168727D02*
X0231797Y0168727D01*
X0229854Y0167529D02*
X0224891Y0167529D01*
X0222955Y0166330D02*
X0227911Y0166330D01*
X0225968Y0165132D02*
X0221018Y0165132D01*
X0219082Y0163933D02*
X0224025Y0163933D01*
X0222083Y0162734D02*
X0217146Y0162734D01*
X0215210Y0161536D02*
X0220140Y0161536D01*
X0218197Y0160337D02*
X0213273Y0160337D01*
X0211337Y0159139D02*
X0216254Y0159139D01*
X0214311Y0157940D02*
X0209401Y0157940D01*
X0207465Y0156742D02*
X0212368Y0156742D01*
X0210426Y0155543D02*
X0205528Y0155543D01*
X0203592Y0154345D02*
X0208483Y0154345D01*
X0206540Y0153146D02*
X0201656Y0153146D01*
X0199720Y0151948D02*
X0204597Y0151948D01*
X0202654Y0150749D02*
X0197783Y0150749D01*
X0195847Y0149551D02*
X0200711Y0149551D01*
X0198769Y0148352D02*
X0193911Y0148352D01*
X0191975Y0147154D02*
X0196826Y0147154D01*
X0194883Y0145955D02*
X0190038Y0145955D01*
X0188349Y0144757D02*
X0192940Y0144757D01*
X0190997Y0143558D02*
X0188477Y0143558D01*
X0188605Y0142360D02*
X0189054Y0142360D01*
X0188521Y0153146D02*
X0190361Y0153146D01*
X0188393Y0154345D02*
X0192340Y0154345D01*
X0194318Y0155543D02*
X0189384Y0155543D01*
X0191341Y0156742D02*
X0196297Y0156742D01*
X0198276Y0157940D02*
X0193298Y0157940D01*
X0195255Y0159139D02*
X0200255Y0159139D01*
X0202233Y0160337D02*
X0197213Y0160337D01*
X0199170Y0161536D02*
X0204212Y0161536D01*
X0206191Y0162734D02*
X0201127Y0162734D01*
X0203084Y0163933D02*
X0208170Y0163933D01*
X0210148Y0165132D02*
X0205041Y0165132D01*
X0206998Y0166330D02*
X0212127Y0166330D01*
X0214106Y0167529D02*
X0208955Y0167529D01*
X0210913Y0168727D02*
X0216084Y0168727D01*
X0218063Y0169926D02*
X0212870Y0169926D01*
X0214827Y0171124D02*
X0220042Y0171124D01*
X0222021Y0172323D02*
X0216784Y0172323D01*
X0218741Y0173521D02*
X0223999Y0173521D01*
X0225978Y0174720D02*
X0220698Y0174720D01*
X0222655Y0175918D02*
X0227957Y0175918D01*
X0229936Y0177117D02*
X0224613Y0177117D01*
X0226570Y0178315D02*
X0231914Y0178315D01*
X0233893Y0179514D02*
X0228527Y0179514D01*
X0230484Y0180712D02*
X0235872Y0180712D01*
X0237850Y0181911D02*
X0232441Y0181911D01*
X0234398Y0183109D02*
X0239829Y0183109D01*
X0241808Y0184308D02*
X0236355Y0184308D01*
X0238313Y0185506D02*
X0243787Y0185506D01*
X0245765Y0186705D02*
X0240270Y0186705D01*
X0242227Y0187903D02*
X0247744Y0187903D01*
X0249723Y0189102D02*
X0244184Y0189102D01*
X0246141Y0190300D02*
X0251702Y0190300D01*
X0253680Y0191499D02*
X0248098Y0191499D01*
X0238631Y0191499D02*
X0233050Y0191499D01*
X0231035Y0190300D02*
X0236592Y0190300D01*
X0234554Y0189102D02*
X0229020Y0189102D01*
X0227005Y0187903D02*
X0232516Y0187903D01*
X0230478Y0186705D02*
X0224991Y0186705D01*
X0222976Y0185506D02*
X0228439Y0185506D01*
X0226401Y0184308D02*
X0220961Y0184308D01*
X0218946Y0183109D02*
X0224363Y0183109D01*
X0222325Y0181911D02*
X0216931Y0181911D01*
X0214916Y0180712D02*
X0220286Y0180712D01*
X0218248Y0179514D02*
X0212901Y0179514D01*
X0210886Y0178315D02*
X0216210Y0178315D01*
X0214171Y0177117D02*
X0208871Y0177117D01*
X0206857Y0175918D02*
X0212133Y0175918D01*
X0210095Y0174720D02*
X0204842Y0174720D01*
X0202827Y0173521D02*
X0208057Y0173521D01*
X0206018Y0172323D02*
X0200812Y0172323D01*
X0198797Y0171124D02*
X0203980Y0171124D01*
X0201942Y0169926D02*
X0196782Y0169926D01*
X0194767Y0168727D02*
X0199904Y0168727D01*
X0197865Y0167529D02*
X0192752Y0167529D01*
X0190737Y0166330D02*
X0195827Y0166330D01*
X0193789Y0165132D02*
X0188723Y0165132D01*
X0188437Y0163933D02*
X0191751Y0163933D01*
X0189712Y0162734D02*
X0188565Y0162734D01*
X0188609Y0172323D02*
X0189034Y0172323D01*
X0188481Y0173521D02*
X0191190Y0173521D01*
X0193346Y0174720D02*
X0188353Y0174720D01*
X0190150Y0175918D02*
X0195502Y0175918D01*
X0197658Y0177117D02*
X0192288Y0177117D01*
X0194426Y0178315D02*
X0199814Y0178315D01*
X0201971Y0179514D02*
X0196565Y0179514D01*
X0198703Y0180712D02*
X0204127Y0180712D01*
X0206283Y0181911D02*
X0200841Y0181911D01*
X0202979Y0183109D02*
X0208439Y0183109D01*
X0210595Y0184308D02*
X0205118Y0184308D01*
X0207256Y0185506D02*
X0212751Y0185506D01*
X0214908Y0186705D02*
X0209394Y0186705D01*
X0211532Y0187903D02*
X0217064Y0187903D01*
X0219220Y0189102D02*
X0213671Y0189102D01*
X0215809Y0190300D02*
X0221376Y0190300D01*
X0223532Y0191499D02*
X0217947Y0191499D01*
X0208182Y0191499D02*
X0203915Y0191499D01*
X0205607Y0190300D02*
X0201260Y0190300D01*
X0203032Y0189102D02*
X0198606Y0189102D01*
X0200457Y0187903D02*
X0195951Y0187903D01*
X0197882Y0186705D02*
X0193296Y0186705D01*
X0195307Y0185506D02*
X0190641Y0185506D01*
X0188633Y0184308D02*
X0192732Y0184308D01*
X0190157Y0183109D02*
X0188633Y0183109D01*
X0188360Y0190300D02*
X0189054Y0190300D01*
X0226342Y0130375D02*
X0230865Y0130375D01*
X0232884Y0131573D02*
X0228289Y0131573D01*
X0230235Y0132772D02*
X0234903Y0132772D01*
X0236923Y0133970D02*
X0232182Y0133970D01*
X0234129Y0135169D02*
X0238942Y0135169D01*
X0240961Y0136367D02*
X0236076Y0136367D01*
X0238023Y0137566D02*
X0242980Y0137566D01*
X0245000Y0138764D02*
X0239969Y0138764D01*
X0241916Y0139963D02*
X0247019Y0139963D01*
X0249038Y0141161D02*
X0243863Y0141161D01*
X0245810Y0142360D02*
X0251058Y0142360D01*
X0253077Y0143558D02*
X0247756Y0143558D01*
X0249703Y0144757D02*
X0255096Y0144757D01*
X0257116Y0145955D02*
X0251650Y0145955D01*
X0253597Y0147154D02*
X0259135Y0147154D01*
X0261154Y0148352D02*
X0255544Y0148352D01*
X0257490Y0149551D02*
X0263174Y0149551D01*
X0265193Y0150749D02*
X0259437Y0150749D01*
X0261384Y0151948D02*
X0267212Y0151948D01*
X0269232Y0153146D02*
X0263331Y0153146D01*
X0265277Y0154345D02*
X0271251Y0154345D01*
X0273270Y0155543D02*
X0267224Y0155543D01*
X0269171Y0156742D02*
X0275289Y0156742D01*
X0277309Y0157940D02*
X0271118Y0157940D01*
X0273064Y0159139D02*
X0279328Y0159139D01*
X0281347Y0160337D02*
X0275011Y0160337D01*
X0276958Y0161536D02*
X0283367Y0161536D01*
X0285386Y0162734D02*
X0278905Y0162734D01*
X0280852Y0163933D02*
X0288333Y0163933D01*
X0288333Y0162734D02*
X0285833Y0162734D01*
X0285833Y0161536D02*
X0288333Y0161536D01*
X0288333Y0160337D02*
X0285833Y0160337D01*
X0285833Y0159139D02*
X0288333Y0159139D01*
X0288333Y0157940D02*
X0285833Y0157940D01*
X0285402Y0156742D02*
X0288333Y0156742D01*
X0288333Y0155543D02*
X0283400Y0155543D01*
X0281398Y0154345D02*
X0288333Y0154345D01*
X0288333Y0153146D02*
X0279396Y0153146D01*
X0277394Y0151948D02*
X0283976Y0151948D01*
X0285833Y0151948D02*
X0288333Y0151948D01*
X0288333Y0150749D02*
X0285833Y0150749D01*
X0285833Y0149551D02*
X0288333Y0149551D01*
X0288333Y0148352D02*
X0285833Y0148352D01*
X0285833Y0147154D02*
X0288333Y0147154D01*
X0288333Y0145955D02*
X0283990Y0145955D01*
X0281875Y0144757D02*
X0288333Y0144757D01*
X0288333Y0143558D02*
X0279760Y0143558D01*
X0277645Y0142360D02*
X0284548Y0142360D01*
X0285833Y0142360D02*
X0288333Y0142360D01*
X0288333Y0141161D02*
X0285833Y0141161D01*
X0285833Y0139963D02*
X0288333Y0139963D01*
X0288333Y0138764D02*
X0285833Y0138764D01*
X0285833Y0137566D02*
X0288333Y0137566D01*
X0288333Y0136367D02*
X0284586Y0136367D01*
X0282223Y0135169D02*
X0288333Y0135169D01*
X0288214Y0133970D02*
X0279860Y0133970D01*
X0277498Y0132772D02*
X0287790Y0132772D01*
X0286951Y0131573D02*
X0275135Y0131573D01*
X0272772Y0130375D02*
X0285200Y0130375D01*
X0279736Y0139963D02*
X0273415Y0139963D01*
X0275530Y0141161D02*
X0282142Y0141161D01*
X0277329Y0138764D02*
X0271300Y0138764D01*
X0269185Y0137566D02*
X0274923Y0137566D01*
X0272517Y0136367D02*
X0267070Y0136367D01*
X0264955Y0135169D02*
X0270111Y0135169D01*
X0267704Y0133970D02*
X0262840Y0133970D01*
X0262892Y0131573D02*
X0258610Y0131573D01*
X0260486Y0130375D02*
X0256495Y0130375D01*
X0260725Y0132772D02*
X0265298Y0132772D01*
X0260704Y0138764D02*
X0255373Y0138764D01*
X0253371Y0137566D02*
X0258589Y0137566D01*
X0256473Y0136367D02*
X0251369Y0136367D01*
X0249367Y0135169D02*
X0254357Y0135169D01*
X0252242Y0133970D02*
X0247365Y0133970D01*
X0245363Y0132772D02*
X0250126Y0132772D01*
X0248010Y0131573D02*
X0243361Y0131573D01*
X0241359Y0130375D02*
X0245895Y0130375D01*
X0257375Y0139963D02*
X0262820Y0139963D01*
X0264935Y0141161D02*
X0259377Y0141161D01*
X0261379Y0142360D02*
X0267051Y0142360D01*
X0269167Y0143558D02*
X0263381Y0143558D01*
X0265383Y0144757D02*
X0271282Y0144757D01*
X0273398Y0145955D02*
X0267385Y0145955D01*
X0269387Y0147154D02*
X0275514Y0147154D01*
X0277629Y0148352D02*
X0271389Y0148352D01*
X0273391Y0149551D02*
X0279745Y0149551D01*
X0281860Y0150749D02*
X0275392Y0150749D01*
X0282798Y0165132D02*
X0288333Y0165132D01*
X0288333Y0166330D02*
X0284745Y0166330D01*
X0285833Y0167529D02*
X0288333Y0167529D01*
X0288333Y0168727D02*
X0285833Y0168727D01*
X0285833Y0169926D02*
X0288333Y0169926D01*
X0288333Y0171124D02*
X0285833Y0171124D01*
X0303481Y0173521D02*
X0306190Y0173521D01*
X0308346Y0174720D02*
X0303353Y0174720D01*
X0303333Y0174900D02*
X0303633Y0172100D01*
X0340333Y0192500D01*
X0349733Y0192500D01*
X0303333Y0164900D01*
X0303633Y0162100D01*
X0355333Y0192500D01*
X0364733Y0192500D01*
X0303333Y0154900D01*
X0303633Y0152100D01*
X0370333Y0192500D01*
X0380233Y0192500D01*
X0303333Y0144900D01*
X0303633Y0142100D01*
X0385333Y0192500D01*
X0394733Y0192500D01*
X0303333Y0134900D01*
X0303133Y0134800D01*
X0303133Y0134200D01*
X0303533Y0133200D01*
X0303833Y0132600D01*
X0304033Y0132300D01*
X0400833Y0193000D01*
X0400833Y0187000D01*
X0310733Y0130000D01*
X0315733Y0130000D01*
X0400833Y0183000D01*
X0400833Y0177000D01*
X0325733Y0130000D01*
X0330233Y0130000D01*
X0400833Y0173000D01*
X0400833Y0167000D01*
X0340733Y0130000D01*
X0345233Y0130000D01*
X0400833Y0163000D01*
X0400833Y0157000D01*
X0355733Y0130000D01*
X0360233Y0130000D01*
X0400833Y0153000D01*
X0400833Y0147000D01*
X0370833Y0130000D01*
X0374733Y0130000D01*
X0400833Y0143000D01*
X0400833Y0137000D01*
X0387033Y0130000D01*
X0398333Y0130000D01*
X0399202Y0130076D01*
X0400043Y0130302D01*
X0400833Y0130670D01*
X0401547Y0131170D01*
X0402164Y0131786D01*
X0402663Y0132500D01*
X0403032Y0133290D01*
X0403257Y0134132D01*
X0403333Y0135000D01*
X0403333Y0190000D01*
X0403257Y0190868D01*
X0403032Y0191710D01*
X0402663Y0192500D01*
X0402164Y0193214D01*
X0401547Y0193830D01*
X0400833Y0194330D01*
X0400043Y0194698D01*
X0399202Y0194924D01*
X0398333Y0195000D01*
X0308333Y0195000D01*
X0307465Y0194924D01*
X0306623Y0194698D01*
X0305833Y0194330D01*
X0305119Y0193830D01*
X0304503Y0193214D01*
X0304003Y0192500D01*
X0303635Y0191710D01*
X0303409Y0190868D01*
X0303333Y0190000D01*
X0309333Y0192500D01*
X0321133Y0192500D01*
X0303633Y0184600D01*
X0303633Y0182400D01*
X0325333Y0192500D01*
X0334733Y0192500D01*
X0303333Y0174900D01*
X0305150Y0175918D02*
X0310502Y0175918D01*
X0312658Y0177117D02*
X0307288Y0177117D01*
X0309426Y0178315D02*
X0314814Y0178315D01*
X0316971Y0179514D02*
X0311565Y0179514D01*
X0313703Y0180712D02*
X0319127Y0180712D01*
X0321283Y0181911D02*
X0315841Y0181911D01*
X0317979Y0183109D02*
X0323439Y0183109D01*
X0325595Y0184308D02*
X0320118Y0184308D01*
X0322256Y0185506D02*
X0327751Y0185506D01*
X0329908Y0186705D02*
X0324394Y0186705D01*
X0326532Y0187903D02*
X0332064Y0187903D01*
X0334220Y0189102D02*
X0328671Y0189102D01*
X0330809Y0190300D02*
X0336376Y0190300D01*
X0338532Y0191499D02*
X0332947Y0191499D01*
X0335961Y0184308D02*
X0341401Y0184308D01*
X0343439Y0185506D02*
X0337976Y0185506D01*
X0339991Y0186705D02*
X0345478Y0186705D01*
X0347516Y0187903D02*
X0342005Y0187903D01*
X0344020Y0189102D02*
X0349554Y0189102D01*
X0351592Y0190300D02*
X0346035Y0190300D01*
X0348050Y0191499D02*
X0353631Y0191499D01*
X0355270Y0186705D02*
X0360765Y0186705D01*
X0358787Y0185506D02*
X0353313Y0185506D01*
X0351355Y0184308D02*
X0356808Y0184308D01*
X0354829Y0183109D02*
X0349398Y0183109D01*
X0347441Y0181911D02*
X0352850Y0181911D01*
X0350872Y0180712D02*
X0345484Y0180712D01*
X0343527Y0179514D02*
X0348893Y0179514D01*
X0346914Y0178315D02*
X0341570Y0178315D01*
X0339613Y0177117D02*
X0344936Y0177117D01*
X0342957Y0175918D02*
X0337655Y0175918D01*
X0335698Y0174720D02*
X0340978Y0174720D01*
X0338999Y0173521D02*
X0333741Y0173521D01*
X0331784Y0172323D02*
X0337021Y0172323D01*
X0335042Y0171124D02*
X0329827Y0171124D01*
X0327870Y0169926D02*
X0333063Y0169926D01*
X0331084Y0168727D02*
X0325913Y0168727D01*
X0323955Y0167529D02*
X0329106Y0167529D01*
X0327127Y0166330D02*
X0321998Y0166330D01*
X0320041Y0165132D02*
X0325148Y0165132D01*
X0323170Y0163933D02*
X0318084Y0163933D01*
X0316127Y0162734D02*
X0321191Y0162734D01*
X0319212Y0161536D02*
X0314170Y0161536D01*
X0312213Y0160337D02*
X0317233Y0160337D01*
X0315255Y0159139D02*
X0310255Y0159139D01*
X0308298Y0157940D02*
X0313276Y0157940D01*
X0311297Y0156742D02*
X0306341Y0156742D01*
X0304384Y0155543D02*
X0309318Y0155543D01*
X0307340Y0154345D02*
X0303393Y0154345D01*
X0303521Y0153146D02*
X0305361Y0153146D01*
X0308911Y0148352D02*
X0313769Y0148352D01*
X0315711Y0149551D02*
X0310847Y0149551D01*
X0312783Y0150749D02*
X0317654Y0150749D01*
X0319597Y0151948D02*
X0314720Y0151948D01*
X0316656Y0153146D02*
X0321540Y0153146D01*
X0323483Y0154345D02*
X0318592Y0154345D01*
X0320528Y0155543D02*
X0325426Y0155543D01*
X0327368Y0156742D02*
X0322465Y0156742D01*
X0324401Y0157940D02*
X0329311Y0157940D01*
X0331254Y0159139D02*
X0326337Y0159139D01*
X0328273Y0160337D02*
X0333197Y0160337D01*
X0335140Y0161536D02*
X0330210Y0161536D01*
X0332146Y0162734D02*
X0337083Y0162734D01*
X0339025Y0163933D02*
X0334082Y0163933D01*
X0336018Y0165132D02*
X0340968Y0165132D01*
X0342911Y0166330D02*
X0337955Y0166330D01*
X0339891Y0167529D02*
X0344854Y0167529D01*
X0346797Y0168727D02*
X0341827Y0168727D01*
X0343763Y0169926D02*
X0348739Y0169926D01*
X0350682Y0171124D02*
X0345700Y0171124D01*
X0347636Y0172323D02*
X0352625Y0172323D01*
X0354568Y0173521D02*
X0349572Y0173521D01*
X0351508Y0174720D02*
X0356511Y0174720D01*
X0358454Y0175918D02*
X0353445Y0175918D01*
X0355381Y0177117D02*
X0360396Y0177117D01*
X0362339Y0178315D02*
X0357317Y0178315D01*
X0359253Y0179514D02*
X0364282Y0179514D01*
X0366225Y0180712D02*
X0361190Y0180712D01*
X0363126Y0181911D02*
X0368168Y0181911D01*
X0370111Y0183109D02*
X0365062Y0183109D01*
X0366998Y0184308D02*
X0372053Y0184308D01*
X0373996Y0185506D02*
X0368935Y0185506D01*
X0370871Y0186705D02*
X0375939Y0186705D01*
X0377882Y0187903D02*
X0372807Y0187903D01*
X0374743Y0189102D02*
X0379825Y0189102D01*
X0381767Y0190300D02*
X0376680Y0190300D01*
X0378616Y0191499D02*
X0383710Y0191499D01*
X0385537Y0186705D02*
X0390794Y0186705D01*
X0392705Y0187903D02*
X0387439Y0187903D01*
X0389341Y0189102D02*
X0394617Y0189102D01*
X0396528Y0190300D02*
X0391243Y0190300D01*
X0393145Y0191499D02*
X0398439Y0191499D01*
X0400351Y0192697D02*
X0304141Y0192697D01*
X0303578Y0191499D02*
X0306930Y0191499D01*
X0305213Y0193896D02*
X0401454Y0193896D01*
X0400833Y0192697D02*
X0402525Y0192697D01*
X0403088Y0191499D02*
X0400833Y0191499D01*
X0400833Y0190300D02*
X0403307Y0190300D01*
X0403333Y0189102D02*
X0400833Y0189102D01*
X0400833Y0187903D02*
X0403333Y0187903D01*
X0403333Y0186705D02*
X0400367Y0186705D01*
X0398472Y0185506D02*
X0403333Y0185506D01*
X0403333Y0184308D02*
X0396578Y0184308D01*
X0394683Y0183109D02*
X0403333Y0183109D01*
X0403333Y0181911D02*
X0400833Y0181911D01*
X0400833Y0180712D02*
X0403333Y0180712D01*
X0403333Y0179514D02*
X0400833Y0179514D01*
X0400833Y0178315D02*
X0403333Y0178315D01*
X0403333Y0177117D02*
X0400833Y0177117D01*
X0399105Y0175918D02*
X0403333Y0175918D01*
X0403333Y0174720D02*
X0397190Y0174720D01*
X0395274Y0173521D02*
X0403333Y0173521D01*
X0403333Y0172323D02*
X0400833Y0172323D01*
X0399721Y0172323D02*
X0393359Y0172323D01*
X0391444Y0171124D02*
X0397753Y0171124D01*
X0395786Y0169926D02*
X0389529Y0169926D01*
X0387614Y0168727D02*
X0393818Y0168727D01*
X0391850Y0167529D02*
X0385699Y0167529D01*
X0383784Y0166330D02*
X0389882Y0166330D01*
X0387914Y0165132D02*
X0381869Y0165132D01*
X0379954Y0163933D02*
X0385947Y0163933D01*
X0383979Y0162734D02*
X0378039Y0162734D01*
X0376124Y0161536D02*
X0382011Y0161536D01*
X0380043Y0160337D02*
X0374209Y0160337D01*
X0372294Y0159139D02*
X0378075Y0159139D01*
X0376108Y0157940D02*
X0370379Y0157940D01*
X0368464Y0156742D02*
X0374140Y0156742D01*
X0372172Y0155543D02*
X0366548Y0155543D01*
X0364633Y0154345D02*
X0370204Y0154345D01*
X0368236Y0153146D02*
X0362718Y0153146D01*
X0360803Y0151948D02*
X0366269Y0151948D01*
X0364301Y0150749D02*
X0358888Y0150749D01*
X0356973Y0149551D02*
X0362333Y0149551D01*
X0360365Y0148352D02*
X0355058Y0148352D01*
X0353143Y0147154D02*
X0358398Y0147154D01*
X0356430Y0145955D02*
X0351228Y0145955D01*
X0349313Y0144757D02*
X0354462Y0144757D01*
X0352494Y0143558D02*
X0347398Y0143558D01*
X0345483Y0142360D02*
X0350526Y0142360D01*
X0348559Y0141161D02*
X0343568Y0141161D01*
X0341653Y0139963D02*
X0346591Y0139963D01*
X0344623Y0138764D02*
X0339738Y0138764D01*
X0337822Y0137566D02*
X0342655Y0137566D01*
X0340687Y0136367D02*
X0335907Y0136367D01*
X0333992Y0135169D02*
X0338720Y0135169D01*
X0336752Y0133970D02*
X0332077Y0133970D01*
X0330162Y0132772D02*
X0334784Y0132772D01*
X0332816Y0131573D02*
X0328247Y0131573D01*
X0326332Y0130375D02*
X0330849Y0130375D01*
X0325957Y0136367D02*
X0320798Y0136367D01*
X0318904Y0135169D02*
X0324033Y0135169D01*
X0322108Y0133970D02*
X0317009Y0133970D01*
X0315115Y0132772D02*
X0320184Y0132772D01*
X0318259Y0131573D02*
X0313220Y0131573D01*
X0311326Y0130375D02*
X0316335Y0130375D01*
X0312431Y0137566D02*
X0307563Y0137566D01*
X0305662Y0136367D02*
X0310519Y0136367D01*
X0308608Y0135169D02*
X0303760Y0135169D01*
X0303225Y0133970D02*
X0306697Y0133970D01*
X0304786Y0132772D02*
X0303747Y0132772D01*
X0309465Y0138764D02*
X0314342Y0138764D01*
X0316253Y0139963D02*
X0311367Y0139963D01*
X0313269Y0141161D02*
X0318165Y0141161D01*
X0320076Y0142360D02*
X0315171Y0142360D01*
X0317072Y0143558D02*
X0321987Y0143558D01*
X0323899Y0144757D02*
X0318974Y0144757D01*
X0320876Y0145955D02*
X0325810Y0145955D01*
X0327721Y0147154D02*
X0322778Y0147154D01*
X0324680Y0148352D02*
X0329632Y0148352D01*
X0331544Y0149551D02*
X0326581Y0149551D01*
X0328483Y0150749D02*
X0333455Y0150749D01*
X0335366Y0151948D02*
X0330385Y0151948D01*
X0332287Y0153146D02*
X0337278Y0153146D01*
X0339189Y0154345D02*
X0334189Y0154345D01*
X0336090Y0155543D02*
X0341100Y0155543D01*
X0343012Y0156742D02*
X0337992Y0156742D01*
X0339894Y0157940D02*
X0344923Y0157940D01*
X0346834Y0159139D02*
X0341796Y0159139D01*
X0343698Y0160337D02*
X0348745Y0160337D01*
X0350657Y0161536D02*
X0345599Y0161536D01*
X0347501Y0162734D02*
X0352568Y0162734D01*
X0354479Y0163933D02*
X0349403Y0163933D01*
X0351305Y0165132D02*
X0356391Y0165132D01*
X0358302Y0166330D02*
X0353207Y0166330D01*
X0355108Y0167529D02*
X0360213Y0167529D01*
X0362125Y0168727D02*
X0357010Y0168727D01*
X0358912Y0169926D02*
X0364036Y0169926D01*
X0365947Y0171124D02*
X0360814Y0171124D01*
X0362716Y0172323D02*
X0367858Y0172323D01*
X0369770Y0173521D02*
X0364618Y0173521D01*
X0366519Y0174720D02*
X0371681Y0174720D01*
X0373592Y0175918D02*
X0368421Y0175918D01*
X0370323Y0177117D02*
X0375504Y0177117D01*
X0377415Y0178315D02*
X0372225Y0178315D01*
X0374127Y0179514D02*
X0379326Y0179514D01*
X0381238Y0180712D02*
X0376028Y0180712D01*
X0377930Y0181911D02*
X0383149Y0181911D01*
X0385060Y0183109D02*
X0379832Y0183109D01*
X0381734Y0184308D02*
X0386971Y0184308D01*
X0388883Y0185506D02*
X0383636Y0185506D01*
X0387105Y0178315D02*
X0393311Y0178315D01*
X0391387Y0177117D02*
X0385211Y0177117D01*
X0383316Y0175918D02*
X0389462Y0175918D01*
X0387538Y0174720D02*
X0381422Y0174720D01*
X0379527Y0173521D02*
X0385613Y0173521D01*
X0383689Y0172323D02*
X0377633Y0172323D01*
X0375738Y0171124D02*
X0381765Y0171124D01*
X0379840Y0169926D02*
X0373844Y0169926D01*
X0371949Y0168727D02*
X0377916Y0168727D01*
X0375991Y0167529D02*
X0370055Y0167529D01*
X0368160Y0166330D02*
X0374067Y0166330D01*
X0372143Y0165132D02*
X0366266Y0165132D01*
X0364371Y0163933D02*
X0370218Y0163933D01*
X0368294Y0162734D02*
X0362477Y0162734D01*
X0360582Y0161536D02*
X0366369Y0161536D01*
X0364445Y0160337D02*
X0358688Y0160337D01*
X0356793Y0159139D02*
X0362521Y0159139D01*
X0360596Y0157940D02*
X0354899Y0157940D01*
X0353004Y0156742D02*
X0358672Y0156742D01*
X0356747Y0155543D02*
X0351110Y0155543D01*
X0349215Y0154345D02*
X0354823Y0154345D01*
X0352899Y0153146D02*
X0347321Y0153146D01*
X0345426Y0151948D02*
X0350974Y0151948D01*
X0349050Y0150749D02*
X0343532Y0150749D01*
X0341637Y0149551D02*
X0347125Y0149551D01*
X0345201Y0148352D02*
X0339743Y0148352D01*
X0337848Y0147154D02*
X0343277Y0147154D01*
X0341352Y0145955D02*
X0335954Y0145955D01*
X0334059Y0144757D02*
X0339428Y0144757D01*
X0337503Y0143558D02*
X0332165Y0143558D01*
X0330270Y0142360D02*
X0335579Y0142360D01*
X0333655Y0141161D02*
X0328376Y0141161D01*
X0326482Y0139963D02*
X0331730Y0139963D01*
X0329806Y0138764D02*
X0324587Y0138764D01*
X0322693Y0137566D02*
X0327881Y0137566D01*
X0341342Y0130375D02*
X0345865Y0130375D01*
X0347884Y0131573D02*
X0343289Y0131573D01*
X0345235Y0132772D02*
X0349903Y0132772D01*
X0351923Y0133970D02*
X0347182Y0133970D01*
X0349129Y0135169D02*
X0353942Y0135169D01*
X0355961Y0136367D02*
X0351076Y0136367D01*
X0353023Y0137566D02*
X0357980Y0137566D01*
X0360000Y0138764D02*
X0354969Y0138764D01*
X0356916Y0139963D02*
X0362019Y0139963D01*
X0364038Y0141161D02*
X0358863Y0141161D01*
X0360810Y0142360D02*
X0366058Y0142360D01*
X0368077Y0143558D02*
X0362756Y0143558D01*
X0364703Y0144757D02*
X0370096Y0144757D01*
X0372116Y0145955D02*
X0366650Y0145955D01*
X0368597Y0147154D02*
X0374135Y0147154D01*
X0376154Y0148352D02*
X0370544Y0148352D01*
X0372490Y0149551D02*
X0378174Y0149551D01*
X0380193Y0150749D02*
X0374437Y0150749D01*
X0376384Y0151948D02*
X0382212Y0151948D01*
X0384232Y0153146D02*
X0378331Y0153146D01*
X0380277Y0154345D02*
X0386251Y0154345D01*
X0388270Y0155543D02*
X0382224Y0155543D01*
X0384171Y0156742D02*
X0390289Y0156742D01*
X0392309Y0157940D02*
X0386118Y0157940D01*
X0388064Y0159139D02*
X0394328Y0159139D01*
X0396347Y0160337D02*
X0390011Y0160337D01*
X0391958Y0161536D02*
X0398367Y0161536D01*
X0400386Y0162734D02*
X0393905Y0162734D01*
X0395852Y0163933D02*
X0403333Y0163933D01*
X0403333Y0162734D02*
X0400833Y0162734D01*
X0400833Y0161536D02*
X0403333Y0161536D01*
X0403333Y0160337D02*
X0400833Y0160337D01*
X0400833Y0159139D02*
X0403333Y0159139D01*
X0403333Y0157940D02*
X0400833Y0157940D01*
X0400402Y0156742D02*
X0403333Y0156742D01*
X0403333Y0155543D02*
X0398400Y0155543D01*
X0396398Y0154345D02*
X0403333Y0154345D01*
X0403333Y0153146D02*
X0394396Y0153146D01*
X0392394Y0151948D02*
X0398976Y0151948D01*
X0400833Y0151948D02*
X0403333Y0151948D01*
X0403333Y0150749D02*
X0400833Y0150749D01*
X0400833Y0149551D02*
X0403333Y0149551D01*
X0403333Y0148352D02*
X0400833Y0148352D01*
X0400833Y0147154D02*
X0403333Y0147154D01*
X0403333Y0145955D02*
X0398990Y0145955D01*
X0396875Y0144757D02*
X0403333Y0144757D01*
X0403333Y0143558D02*
X0394760Y0143558D01*
X0392645Y0142360D02*
X0399548Y0142360D01*
X0400833Y0142360D02*
X0403333Y0142360D01*
X0403333Y0141161D02*
X0400833Y0141161D01*
X0400833Y0139963D02*
X0403333Y0139963D01*
X0403333Y0138764D02*
X0400833Y0138764D01*
X0400833Y0137566D02*
X0403333Y0137566D01*
X0403333Y0136367D02*
X0399586Y0136367D01*
X0397223Y0135169D02*
X0403333Y0135169D01*
X0403214Y0133970D02*
X0394860Y0133970D01*
X0392498Y0132772D02*
X0402790Y0132772D01*
X0401951Y0131573D02*
X0390135Y0131573D01*
X0387772Y0130375D02*
X0400200Y0130375D01*
X0394736Y0139963D02*
X0388415Y0139963D01*
X0390530Y0141161D02*
X0397142Y0141161D01*
X0392329Y0138764D02*
X0386300Y0138764D01*
X0384185Y0137566D02*
X0389923Y0137566D01*
X0387517Y0136367D02*
X0382070Y0136367D01*
X0379955Y0135169D02*
X0385111Y0135169D01*
X0382704Y0133970D02*
X0377840Y0133970D01*
X0377892Y0131573D02*
X0373610Y0131573D01*
X0375486Y0130375D02*
X0371495Y0130375D01*
X0375725Y0132772D02*
X0380298Y0132772D01*
X0375704Y0138764D02*
X0370373Y0138764D01*
X0368371Y0137566D02*
X0373589Y0137566D01*
X0371473Y0136367D02*
X0366369Y0136367D01*
X0364367Y0135169D02*
X0369357Y0135169D01*
X0367242Y0133970D02*
X0362365Y0133970D01*
X0360363Y0132772D02*
X0365126Y0132772D01*
X0363010Y0131573D02*
X0358361Y0131573D01*
X0356359Y0130375D02*
X0360895Y0130375D01*
X0372375Y0139963D02*
X0377820Y0139963D01*
X0379935Y0141161D02*
X0374377Y0141161D01*
X0376379Y0142360D02*
X0382051Y0142360D01*
X0384167Y0143558D02*
X0378381Y0143558D01*
X0380383Y0144757D02*
X0386282Y0144757D01*
X0388398Y0145955D02*
X0382385Y0145955D01*
X0384387Y0147154D02*
X0390514Y0147154D01*
X0392629Y0148352D02*
X0386389Y0148352D01*
X0388391Y0149551D02*
X0394745Y0149551D01*
X0396860Y0150749D02*
X0390392Y0150749D01*
X0397798Y0165132D02*
X0403333Y0165132D01*
X0403333Y0166330D02*
X0399745Y0166330D01*
X0400833Y0167529D02*
X0403333Y0167529D01*
X0403333Y0168727D02*
X0400833Y0168727D01*
X0400833Y0169926D02*
X0403333Y0169926D01*
X0403333Y0171124D02*
X0400833Y0171124D01*
X0395235Y0179514D02*
X0389000Y0179514D01*
X0390894Y0180712D02*
X0397160Y0180712D01*
X0399084Y0181911D02*
X0392789Y0181911D01*
X0368680Y0191499D02*
X0363098Y0191499D01*
X0361141Y0190300D02*
X0366702Y0190300D01*
X0364723Y0189102D02*
X0359184Y0189102D01*
X0357227Y0187903D02*
X0362744Y0187903D01*
X0339363Y0183109D02*
X0333946Y0183109D01*
X0331931Y0181911D02*
X0337325Y0181911D01*
X0335286Y0180712D02*
X0329916Y0180712D01*
X0327901Y0179514D02*
X0333248Y0179514D01*
X0331210Y0178315D02*
X0325886Y0178315D01*
X0323871Y0177117D02*
X0329171Y0177117D01*
X0327133Y0175918D02*
X0321857Y0175918D01*
X0319842Y0174720D02*
X0325095Y0174720D01*
X0323057Y0173521D02*
X0317827Y0173521D01*
X0315812Y0172323D02*
X0321018Y0172323D01*
X0318980Y0171124D02*
X0313797Y0171124D01*
X0311782Y0169926D02*
X0316942Y0169926D01*
X0314904Y0168727D02*
X0309767Y0168727D01*
X0307752Y0167529D02*
X0312865Y0167529D01*
X0310827Y0166330D02*
X0305737Y0166330D01*
X0303723Y0165132D02*
X0308789Y0165132D01*
X0306751Y0163933D02*
X0303437Y0163933D01*
X0303565Y0162734D02*
X0304712Y0162734D01*
X0304034Y0172323D02*
X0303609Y0172323D01*
X0303633Y0183109D02*
X0305157Y0183109D01*
X0303633Y0184308D02*
X0307732Y0184308D01*
X0305641Y0185506D02*
X0310307Y0185506D01*
X0308296Y0186705D02*
X0312882Y0186705D01*
X0310951Y0187903D02*
X0315457Y0187903D01*
X0313606Y0189102D02*
X0318032Y0189102D01*
X0316260Y0190300D02*
X0320607Y0190300D01*
X0318915Y0191499D02*
X0323182Y0191499D01*
X0304054Y0190300D02*
X0303360Y0190300D01*
X0306975Y0147154D02*
X0311826Y0147154D01*
X0309883Y0145955D02*
X0305038Y0145955D01*
X0303349Y0144757D02*
X0307940Y0144757D01*
X0305997Y0143558D02*
X0303477Y0143558D01*
X0303605Y0142360D02*
X0304054Y0142360D01*
D16*
X0545833Y0363976D03*
X0550833Y0363976D03*
X0555833Y0363976D03*
X0560833Y0363976D03*
X0565833Y0363976D03*
X0570833Y0363976D03*
X0575833Y0363976D03*
X0575833Y0386024D03*
X0570833Y0386024D03*
X0565833Y0386024D03*
X0560833Y0386024D03*
X0555833Y0386024D03*
X0550833Y0386024D03*
X0545833Y0386024D03*
D17*
X0561733Y0400000D03*
X0564933Y0400000D03*
X0571733Y0400000D03*
X0574933Y0400000D03*
X0559933Y0350000D03*
X0556733Y0350000D03*
X0549933Y0350000D03*
X0546733Y0350000D03*
D18*
X0546633Y0350000D01*
X0546033Y0350600D01*
X0546033Y0363800D01*
X0545833Y0363976D01*
X0545733Y0364100D01*
X0545733Y0371900D01*
X0467433Y0450200D01*
X0467388Y0450315D01*
X0462933Y0454700D02*
X0459633Y0458000D01*
X0459514Y0458189D01*
X0456033Y0459800D02*
X0456033Y0453800D01*
X0459333Y0450500D01*
X0459514Y0450315D01*
X0462933Y0454700D02*
X0475833Y0454700D01*
X0478833Y0451700D01*
X0478833Y0449600D01*
X0480033Y0448400D01*
X0480033Y0447200D01*
X0493233Y0434000D01*
X0515433Y0434000D01*
X0549933Y0399500D01*
X0561033Y0399500D01*
X0561733Y0400000D01*
X0561633Y0399800D01*
X0561033Y0399200D01*
X0561033Y0386300D01*
X0560833Y0386024D01*
X0555933Y0386000D02*
X0555933Y0378800D01*
X0559683Y0375050D01*
X0567933Y0383300D01*
X0567933Y0389000D01*
X0567633Y0389300D01*
X0567633Y0402500D01*
X0564633Y0405500D01*
X0561933Y0405500D01*
X0519033Y0448400D01*
X0519033Y0450800D01*
X0516033Y0453800D01*
X0482433Y0453800D01*
X0478233Y0458000D01*
X0475533Y0458000D01*
X0475262Y0458189D01*
X0470733Y0461600D02*
X0467433Y0458300D01*
X0467388Y0458189D01*
X0470733Y0461600D02*
X0516333Y0461600D01*
X0518133Y0459800D01*
X0518133Y0458000D01*
X0521133Y0455000D01*
X0522333Y0455000D01*
X0568833Y0408500D01*
X0568833Y0395300D01*
X0570633Y0393500D01*
X0571233Y0393500D01*
X0573033Y0391700D01*
X0573033Y0361100D01*
X0572433Y0360500D01*
X0560733Y0360500D01*
X0560733Y0363800D01*
X0560833Y0363976D01*
X0560733Y0360500D02*
X0560733Y0350600D01*
X0560133Y0350000D01*
X0559933Y0350000D01*
X0556733Y0350000D02*
X0555933Y0350300D01*
X0555333Y0350300D01*
X0550233Y0345200D01*
X0475833Y0345200D01*
X0458133Y0362900D01*
X0458133Y0380000D01*
X0458333Y0380000D01*
X0453033Y0378500D02*
X0456933Y0374600D01*
X0456933Y0362300D01*
X0545733Y0273500D01*
X0545733Y0191900D01*
X0542433Y0188600D01*
X0542433Y0160100D01*
X0542428Y0160000D01*
X0539733Y0156200D02*
X0550533Y0156200D01*
X0554133Y0159800D01*
X0554239Y0160000D01*
X0554433Y0160100D01*
X0554433Y0194900D01*
X0554239Y0195000D01*
X0554733Y0194900D01*
X0558033Y0194900D01*
X0576183Y0213050D01*
X0576033Y0213200D01*
X0576033Y0363800D01*
X0575833Y0363976D01*
X0570833Y0363976D02*
X0570633Y0364100D01*
X0559683Y0375050D01*
X0565833Y0367100D02*
X0550833Y0382100D01*
X0550833Y0382700D01*
X0542733Y0382700D01*
X0478833Y0446600D01*
X0478833Y0446900D01*
X0475533Y0450200D01*
X0475262Y0450315D01*
X0459033Y0462800D02*
X0456033Y0459800D01*
X0459033Y0462800D02*
X0523233Y0462800D01*
X0574833Y0411200D01*
X0574833Y0400100D01*
X0574933Y0400000D01*
X0575733Y0399200D01*
X0575733Y0386300D01*
X0575833Y0386024D01*
X0570933Y0386300D02*
X0570933Y0390800D01*
X0570933Y0386300D02*
X0570833Y0386024D01*
X0565833Y0386024D02*
X0565833Y0398900D01*
X0564933Y0399800D01*
X0564933Y0400000D01*
X0564933Y0401900D01*
X0562533Y0404300D01*
X0546933Y0404300D01*
X0515133Y0436100D01*
X0496533Y0436100D01*
X0453033Y0382100D02*
X0388233Y0446900D01*
X0387033Y0446900D01*
X0384333Y0449600D01*
X0384333Y0451700D01*
X0382233Y0453800D01*
X0336933Y0453800D01*
X0333633Y0450500D01*
X0333530Y0450315D01*
X0330033Y0448700D02*
X0333033Y0445700D01*
X0369333Y0445700D01*
X0432933Y0382100D01*
X0432933Y0378800D01*
X0452133Y0359600D01*
X0452133Y0334100D01*
X0469833Y0344600D02*
X0469833Y0345800D01*
X0438333Y0377300D01*
X0438333Y0380000D01*
X0443133Y0378500D02*
X0443133Y0381800D01*
X0378033Y0446900D01*
X0344733Y0446900D01*
X0341433Y0450200D01*
X0341404Y0450315D01*
X0333530Y0458189D02*
X0333333Y0458000D01*
X0330033Y0454700D01*
X0330033Y0448700D01*
X0297033Y0450200D02*
X0367233Y0380000D01*
X0398333Y0380000D01*
X0401733Y0380000D01*
X0406533Y0375200D01*
X0410133Y0375200D01*
X0413733Y0378800D01*
X0413733Y0382100D01*
X0416433Y0384800D01*
X0420333Y0384800D01*
X0423633Y0381500D01*
X0423633Y0272300D01*
X0539733Y0156200D01*
X0539133Y0155000D02*
X0329133Y0365000D01*
X0297033Y0450200D02*
X0294633Y0450200D01*
X0294160Y0449921D01*
X0294333Y0450200D01*
X0294333Y0458300D01*
X0294160Y0458583D01*
X0443133Y0378500D02*
X0455733Y0365900D01*
X0455733Y0361700D01*
X0542133Y0275300D01*
X0542133Y0195200D01*
X0542428Y0195000D01*
X0576183Y0213050D02*
X0594033Y0195200D01*
X0594239Y0195000D01*
X0594333Y0194900D01*
X0594333Y0160100D01*
X0594239Y0160000D01*
X0582428Y0160000D02*
X0582333Y0159800D01*
X0560433Y0159800D01*
X0555633Y0155000D01*
X0539133Y0155000D01*
X0582428Y0195000D02*
X0582333Y0195200D01*
X0582333Y0203900D01*
X0548433Y0346400D02*
X0477633Y0346400D01*
X0460233Y0363800D01*
X0453033Y0378500D02*
X0453033Y0382100D01*
X0550833Y0382700D02*
X0550833Y0386024D01*
X0555833Y0386024D02*
X0555933Y0386000D01*
X0571533Y0395600D02*
X0571533Y0399800D01*
X0571733Y0400000D01*
X0565833Y0367100D02*
X0565833Y0363976D01*
X0555933Y0363800D02*
X0555833Y0363976D01*
X0555933Y0363800D02*
X0555933Y0350600D01*
X0556533Y0350000D01*
X0556733Y0350000D01*
X0550833Y0350900D02*
X0549933Y0350000D01*
X0549933Y0347900D01*
X0548433Y0346400D01*
X0550833Y0350900D02*
X0550833Y0363976D01*
D19*
X0570933Y0390800D03*
X0571533Y0395600D03*
X0545733Y0400700D03*
X0496533Y0436100D03*
X0460233Y0363800D03*
X0469833Y0344600D03*
X0452133Y0334100D03*
X0329133Y0365000D03*
X0582333Y0203900D03*
D20*
X0545833Y0386024D02*
X0545733Y0386300D01*
X0545733Y0400700D01*
D21*
X0418333Y0380000D02*
X0418233Y0380000D01*
X0411333Y0373100D01*
X0363333Y0373100D01*
X0289833Y0446600D01*
X0289833Y0460400D01*
X0292533Y0463100D01*
X0334833Y0463100D01*
X0339633Y0458300D01*
X0341133Y0458300D01*
X0341404Y0458189D01*
X0312333Y0449600D02*
X0376233Y0385700D01*
X0402633Y0385700D01*
X0408333Y0380000D01*
X0312333Y0449600D02*
X0310833Y0449600D01*
X0309908Y0450315D01*
X0309933Y0450500D01*
X0309933Y0458000D01*
X0309908Y0458189D01*
M02*
