G75*
%MOIN*%
%OFA0B0*%
%FSLAX25Y25*%
%IPPOS*%
%LPD*%
%AMOC8*
5,1,8,0,0,1.08239X$1,22.5*
%
%ADD10C,0.00800*%
%ADD11C,0.00000*%
D10*
X0128333Y0060000D02*
X0128333Y0085000D01*
X0128299Y0085342D01*
X0128274Y0085684D01*
X0128257Y0086027D01*
X0128249Y0086371D01*
X0128249Y0086714D01*
X0128258Y0087058D01*
X0128274Y0087401D01*
X0128300Y0087743D01*
X0128333Y0088085D01*
X0128375Y0088426D01*
X0128426Y0088766D01*
X0128484Y0089104D01*
X0128551Y0089441D01*
X0128626Y0089776D01*
X0128710Y0090110D01*
X0128801Y0090441D01*
X0128901Y0090769D01*
X0129008Y0091096D01*
X0129124Y0091419D01*
X0129247Y0091740D01*
X0129378Y0092057D01*
X0129517Y0092371D01*
X0129664Y0092682D01*
X0129818Y0092989D01*
X0129980Y0093292D01*
X0130149Y0093591D01*
X0130325Y0093886D01*
X0130509Y0094176D01*
X0130699Y0094462D01*
X0130897Y0094743D01*
X0131101Y0095019D01*
X0131312Y0095290D01*
X0131530Y0095556D01*
X0131754Y0095816D01*
X0131984Y0096071D01*
X0132221Y0096320D01*
X0132463Y0096563D01*
X0132712Y0096801D01*
X0132966Y0097032D01*
X0133225Y0097257D01*
X0133491Y0097475D01*
X0133761Y0097687D01*
X0134037Y0097892D01*
X0134317Y0098090D01*
X0134602Y0098281D01*
X0134892Y0098466D01*
X0135186Y0098643D01*
X0135485Y0098813D01*
X0135788Y0098975D01*
X0136094Y0099130D01*
X0136404Y0099278D01*
X0136718Y0099418D01*
X0137035Y0099550D01*
X0137355Y0099674D01*
X0137679Y0099791D01*
X0138004Y0099899D01*
X0138333Y0100000D01*
X0141333Y0100000D01*
X0141557Y0100017D01*
X0141780Y0100028D01*
X0142004Y0100034D01*
X0142228Y0100035D01*
X0142451Y0100030D01*
X0142675Y0100019D01*
X0142898Y0100004D01*
X0143121Y0099983D01*
X0143343Y0099956D01*
X0143564Y0099924D01*
X0143785Y0099887D01*
X0144005Y0099844D01*
X0144223Y0099796D01*
X0144441Y0099743D01*
X0144657Y0099685D01*
X0144871Y0099621D01*
X0145084Y0099552D01*
X0145295Y0099478D01*
X0145505Y0099399D01*
X0145712Y0099315D01*
X0145917Y0099226D01*
X0146120Y0099132D01*
X0146321Y0099033D01*
X0146519Y0098929D01*
X0146715Y0098821D01*
X0146908Y0098707D01*
X0147098Y0098589D01*
X0147285Y0098467D01*
X0147469Y0098340D01*
X0147650Y0098208D01*
X0147828Y0098073D01*
X0148003Y0097933D01*
X0148174Y0097788D01*
X0148341Y0097640D01*
X0148505Y0097488D01*
X0148665Y0097331D01*
X0148822Y0097171D01*
X0148974Y0097007D01*
X0149122Y0096840D01*
X0149267Y0096669D01*
X0149407Y0096494D01*
X0149542Y0096316D01*
X0149674Y0096135D01*
X0149801Y0095951D01*
X0149923Y0095764D01*
X0150041Y0095574D01*
X0150155Y0095381D01*
X0150263Y0095185D01*
X0150367Y0094987D01*
X0150466Y0094786D01*
X0150560Y0094583D01*
X0150649Y0094378D01*
X0150733Y0094171D01*
X0150812Y0093961D01*
X0150886Y0093750D01*
X0150955Y0093537D01*
X0151019Y0093323D01*
X0151077Y0093107D01*
X0151130Y0092889D01*
X0151178Y0092671D01*
X0151221Y0092451D01*
X0151258Y0092230D01*
X0151290Y0092009D01*
X0151317Y0091787D01*
X0151338Y0091564D01*
X0151353Y0091341D01*
X0151364Y0091117D01*
X0151369Y0090894D01*
X0151368Y0090670D01*
X0151362Y0090446D01*
X0151351Y0090223D01*
X0151334Y0089999D01*
X0151333Y0090000D02*
X0151333Y0080000D01*
X0151236Y0079901D01*
X0151142Y0079798D01*
X0151051Y0079694D01*
X0150963Y0079586D01*
X0150878Y0079477D01*
X0150796Y0079364D01*
X0150717Y0079250D01*
X0150642Y0079134D01*
X0150570Y0079015D01*
X0150501Y0078894D01*
X0150435Y0078772D01*
X0150373Y0078648D01*
X0150315Y0078522D01*
X0150260Y0078394D01*
X0150208Y0078265D01*
X0150161Y0078135D01*
X0150117Y0078003D01*
X0150076Y0077870D01*
X0150040Y0077736D01*
X0150007Y0077601D01*
X0149978Y0077466D01*
X0149953Y0077329D01*
X0149932Y0077192D01*
X0149914Y0077054D01*
X0149901Y0076916D01*
X0149891Y0076778D01*
X0149885Y0076639D01*
X0149883Y0076500D01*
X0149885Y0076361D01*
X0149891Y0076222D01*
X0149901Y0076084D01*
X0149914Y0075946D01*
X0149932Y0075808D01*
X0149953Y0075671D01*
X0149978Y0075534D01*
X0150007Y0075399D01*
X0150040Y0075264D01*
X0150076Y0075130D01*
X0150117Y0074997D01*
X0150161Y0074865D01*
X0150208Y0074735D01*
X0150260Y0074606D01*
X0150315Y0074478D01*
X0150373Y0074352D01*
X0150435Y0074228D01*
X0150501Y0074106D01*
X0150570Y0073985D01*
X0150642Y0073866D01*
X0150717Y0073750D01*
X0150796Y0073636D01*
X0150878Y0073523D01*
X0150963Y0073414D01*
X0151051Y0073306D01*
X0151142Y0073202D01*
X0151236Y0073099D01*
X0151333Y0073000D01*
X0151432Y0072903D01*
X0151535Y0072809D01*
X0151639Y0072718D01*
X0151747Y0072630D01*
X0151856Y0072545D01*
X0151969Y0072463D01*
X0152083Y0072384D01*
X0152199Y0072309D01*
X0152318Y0072237D01*
X0152439Y0072168D01*
X0152561Y0072102D01*
X0152685Y0072040D01*
X0152811Y0071982D01*
X0152939Y0071927D01*
X0153068Y0071875D01*
X0153198Y0071828D01*
X0153330Y0071784D01*
X0153463Y0071743D01*
X0153597Y0071707D01*
X0153732Y0071674D01*
X0153867Y0071645D01*
X0154004Y0071620D01*
X0154141Y0071599D01*
X0154279Y0071581D01*
X0154417Y0071568D01*
X0154555Y0071558D01*
X0154694Y0071552D01*
X0154833Y0071550D01*
X0154972Y0071552D01*
X0155111Y0071558D01*
X0155249Y0071568D01*
X0155387Y0071581D01*
X0155525Y0071599D01*
X0155662Y0071620D01*
X0155799Y0071645D01*
X0155934Y0071674D01*
X0156069Y0071707D01*
X0156203Y0071743D01*
X0156336Y0071784D01*
X0156468Y0071828D01*
X0156598Y0071875D01*
X0156727Y0071927D01*
X0156855Y0071982D01*
X0156981Y0072040D01*
X0157105Y0072102D01*
X0157227Y0072168D01*
X0157348Y0072237D01*
X0157467Y0072309D01*
X0157583Y0072384D01*
X0157697Y0072463D01*
X0157810Y0072545D01*
X0157919Y0072630D01*
X0158027Y0072718D01*
X0158131Y0072809D01*
X0158234Y0072903D01*
X0158333Y0073000D01*
X0308333Y0073000D01*
X0308432Y0072903D01*
X0308535Y0072809D01*
X0308639Y0072718D01*
X0308747Y0072630D01*
X0308856Y0072545D01*
X0308969Y0072463D01*
X0309083Y0072384D01*
X0309199Y0072309D01*
X0309318Y0072237D01*
X0309439Y0072168D01*
X0309561Y0072102D01*
X0309685Y0072040D01*
X0309811Y0071982D01*
X0309939Y0071927D01*
X0310068Y0071875D01*
X0310198Y0071828D01*
X0310330Y0071784D01*
X0310463Y0071743D01*
X0310597Y0071707D01*
X0310732Y0071674D01*
X0310867Y0071645D01*
X0311004Y0071620D01*
X0311141Y0071599D01*
X0311279Y0071581D01*
X0311417Y0071568D01*
X0311555Y0071558D01*
X0311694Y0071552D01*
X0311833Y0071550D01*
X0311972Y0071552D01*
X0312111Y0071558D01*
X0312249Y0071568D01*
X0312387Y0071581D01*
X0312525Y0071599D01*
X0312662Y0071620D01*
X0312799Y0071645D01*
X0312934Y0071674D01*
X0313069Y0071707D01*
X0313203Y0071743D01*
X0313336Y0071784D01*
X0313468Y0071828D01*
X0313598Y0071875D01*
X0313727Y0071927D01*
X0313855Y0071982D01*
X0313981Y0072040D01*
X0314105Y0072102D01*
X0314227Y0072168D01*
X0314348Y0072237D01*
X0314467Y0072309D01*
X0314583Y0072384D01*
X0314697Y0072463D01*
X0314810Y0072545D01*
X0314919Y0072630D01*
X0315027Y0072718D01*
X0315131Y0072809D01*
X0315234Y0072903D01*
X0315333Y0073000D01*
X0315430Y0073099D01*
X0315524Y0073202D01*
X0315615Y0073306D01*
X0315703Y0073414D01*
X0315788Y0073523D01*
X0315870Y0073636D01*
X0315949Y0073750D01*
X0316024Y0073866D01*
X0316096Y0073985D01*
X0316165Y0074106D01*
X0316231Y0074228D01*
X0316293Y0074352D01*
X0316351Y0074478D01*
X0316406Y0074606D01*
X0316458Y0074735D01*
X0316505Y0074865D01*
X0316549Y0074997D01*
X0316590Y0075130D01*
X0316626Y0075264D01*
X0316659Y0075399D01*
X0316688Y0075534D01*
X0316713Y0075671D01*
X0316734Y0075808D01*
X0316752Y0075946D01*
X0316765Y0076084D01*
X0316775Y0076222D01*
X0316781Y0076361D01*
X0316783Y0076500D01*
X0316781Y0076639D01*
X0316775Y0076778D01*
X0316765Y0076916D01*
X0316752Y0077054D01*
X0316734Y0077192D01*
X0316713Y0077329D01*
X0316688Y0077466D01*
X0316659Y0077601D01*
X0316626Y0077736D01*
X0316590Y0077870D01*
X0316549Y0078003D01*
X0316505Y0078135D01*
X0316458Y0078265D01*
X0316406Y0078394D01*
X0316351Y0078522D01*
X0316293Y0078648D01*
X0316231Y0078772D01*
X0316165Y0078894D01*
X0316096Y0079015D01*
X0316024Y0079134D01*
X0315949Y0079250D01*
X0315870Y0079364D01*
X0315788Y0079477D01*
X0315703Y0079586D01*
X0315615Y0079694D01*
X0315524Y0079798D01*
X0315430Y0079901D01*
X0315333Y0080000D01*
X0315333Y0200000D01*
X0315431Y0200100D01*
X0315526Y0200203D01*
X0315617Y0200309D01*
X0315706Y0200418D01*
X0315792Y0200528D01*
X0315874Y0200642D01*
X0315954Y0200757D01*
X0316030Y0200875D01*
X0316102Y0200995D01*
X0316171Y0201117D01*
X0316237Y0201240D01*
X0316299Y0201366D01*
X0316358Y0201493D01*
X0316413Y0201622D01*
X0316464Y0201752D01*
X0316512Y0201884D01*
X0316556Y0202017D01*
X0316596Y0202151D01*
X0316632Y0202287D01*
X0316664Y0202423D01*
X0316693Y0202560D01*
X0316718Y0202698D01*
X0316738Y0202837D01*
X0316755Y0202976D01*
X0316768Y0203115D01*
X0316777Y0203255D01*
X0316782Y0203395D01*
X0316783Y0203535D01*
X0316780Y0203675D01*
X0316773Y0203815D01*
X0316762Y0203955D01*
X0316747Y0204094D01*
X0316728Y0204233D01*
X0316706Y0204371D01*
X0316679Y0204509D01*
X0316649Y0204645D01*
X0316614Y0204781D01*
X0316576Y0204916D01*
X0316534Y0205050D01*
X0316488Y0205182D01*
X0316439Y0205313D01*
X0316386Y0205443D01*
X0316329Y0205571D01*
X0316269Y0205697D01*
X0316205Y0205822D01*
X0316137Y0205945D01*
X0316066Y0206065D01*
X0315992Y0206184D01*
X0315914Y0206301D01*
X0315834Y0206415D01*
X0315749Y0206527D01*
X0315662Y0206637D01*
X0315572Y0206744D01*
X0315479Y0206848D01*
X0315382Y0206950D01*
X0315283Y0207049D01*
X0315181Y0207146D01*
X0315077Y0207239D01*
X0314970Y0207329D01*
X0314860Y0207416D01*
X0314748Y0207501D01*
X0314634Y0207581D01*
X0314517Y0207659D01*
X0314398Y0207733D01*
X0314278Y0207804D01*
X0314155Y0207872D01*
X0314030Y0207936D01*
X0313904Y0207996D01*
X0313776Y0208053D01*
X0313646Y0208106D01*
X0313515Y0208155D01*
X0313383Y0208201D01*
X0313249Y0208243D01*
X0313114Y0208281D01*
X0312978Y0208316D01*
X0312842Y0208346D01*
X0312704Y0208373D01*
X0312566Y0208395D01*
X0312427Y0208414D01*
X0312288Y0208429D01*
X0312148Y0208440D01*
X0312008Y0208447D01*
X0311868Y0208450D01*
X0311728Y0208449D01*
X0311588Y0208444D01*
X0311448Y0208435D01*
X0311309Y0208422D01*
X0311170Y0208405D01*
X0311031Y0208385D01*
X0310893Y0208360D01*
X0310756Y0208331D01*
X0310620Y0208299D01*
X0310484Y0208263D01*
X0310350Y0208223D01*
X0310217Y0208179D01*
X0310085Y0208131D01*
X0309955Y0208080D01*
X0309826Y0208025D01*
X0309699Y0207966D01*
X0309573Y0207904D01*
X0309450Y0207838D01*
X0309328Y0207769D01*
X0309208Y0207697D01*
X0309090Y0207621D01*
X0308975Y0207541D01*
X0308861Y0207459D01*
X0308751Y0207373D01*
X0308642Y0207284D01*
X0308536Y0207193D01*
X0308433Y0207098D01*
X0308333Y0207000D01*
X0215160Y0207000D01*
X0215160Y0213224D01*
X0171507Y0213224D01*
X0171507Y0207000D01*
X0158333Y0207000D01*
X0158234Y0207097D01*
X0158131Y0207191D01*
X0158027Y0207282D01*
X0157919Y0207370D01*
X0157810Y0207455D01*
X0157697Y0207537D01*
X0157583Y0207616D01*
X0157467Y0207691D01*
X0157348Y0207763D01*
X0157227Y0207832D01*
X0157105Y0207898D01*
X0156981Y0207960D01*
X0156855Y0208018D01*
X0156727Y0208073D01*
X0156598Y0208125D01*
X0156468Y0208172D01*
X0156336Y0208216D01*
X0156203Y0208257D01*
X0156069Y0208293D01*
X0155934Y0208326D01*
X0155799Y0208355D01*
X0155662Y0208380D01*
X0155525Y0208401D01*
X0155387Y0208419D01*
X0155249Y0208432D01*
X0155111Y0208442D01*
X0154972Y0208448D01*
X0154833Y0208450D01*
X0154694Y0208448D01*
X0154555Y0208442D01*
X0154417Y0208432D01*
X0154279Y0208419D01*
X0154141Y0208401D01*
X0154004Y0208380D01*
X0153867Y0208355D01*
X0153732Y0208326D01*
X0153597Y0208293D01*
X0153463Y0208257D01*
X0153330Y0208216D01*
X0153198Y0208172D01*
X0153068Y0208125D01*
X0152939Y0208073D01*
X0152811Y0208018D01*
X0152685Y0207960D01*
X0152561Y0207898D01*
X0152439Y0207832D01*
X0152318Y0207763D01*
X0152199Y0207691D01*
X0152083Y0207616D01*
X0151969Y0207537D01*
X0151856Y0207455D01*
X0151747Y0207370D01*
X0151639Y0207282D01*
X0151535Y0207191D01*
X0151432Y0207097D01*
X0151333Y0207000D01*
X0151236Y0206901D01*
X0151142Y0206798D01*
X0151051Y0206694D01*
X0150963Y0206586D01*
X0150878Y0206477D01*
X0150796Y0206364D01*
X0150717Y0206250D01*
X0150642Y0206134D01*
X0150570Y0206015D01*
X0150501Y0205894D01*
X0150435Y0205772D01*
X0150373Y0205648D01*
X0150315Y0205522D01*
X0150260Y0205394D01*
X0150208Y0205265D01*
X0150161Y0205135D01*
X0150117Y0205003D01*
X0150076Y0204870D01*
X0150040Y0204736D01*
X0150007Y0204601D01*
X0149978Y0204466D01*
X0149953Y0204329D01*
X0149932Y0204192D01*
X0149914Y0204054D01*
X0149901Y0203916D01*
X0149891Y0203778D01*
X0149885Y0203639D01*
X0149883Y0203500D01*
X0149885Y0203361D01*
X0149891Y0203222D01*
X0149901Y0203084D01*
X0149914Y0202946D01*
X0149932Y0202808D01*
X0149953Y0202671D01*
X0149978Y0202534D01*
X0150007Y0202399D01*
X0150040Y0202264D01*
X0150076Y0202130D01*
X0150117Y0201997D01*
X0150161Y0201865D01*
X0150208Y0201735D01*
X0150260Y0201606D01*
X0150315Y0201478D01*
X0150373Y0201352D01*
X0150435Y0201228D01*
X0150501Y0201106D01*
X0150570Y0200985D01*
X0150642Y0200866D01*
X0150717Y0200750D01*
X0150796Y0200636D01*
X0150878Y0200523D01*
X0150963Y0200414D01*
X0151051Y0200306D01*
X0151142Y0200202D01*
X0151236Y0200099D01*
X0151333Y0200000D01*
X0151333Y0190000D01*
X0151334Y0190000D02*
X0151351Y0189776D01*
X0151362Y0189553D01*
X0151368Y0189329D01*
X0151369Y0189105D01*
X0151364Y0188882D01*
X0151353Y0188658D01*
X0151338Y0188435D01*
X0151317Y0188212D01*
X0151290Y0187990D01*
X0151258Y0187769D01*
X0151221Y0187548D01*
X0151178Y0187328D01*
X0151130Y0187110D01*
X0151077Y0186892D01*
X0151019Y0186676D01*
X0150955Y0186462D01*
X0150886Y0186249D01*
X0150812Y0186038D01*
X0150733Y0185828D01*
X0150649Y0185621D01*
X0150560Y0185416D01*
X0150466Y0185213D01*
X0150367Y0185012D01*
X0150263Y0184814D01*
X0150155Y0184618D01*
X0150041Y0184425D01*
X0149923Y0184235D01*
X0149801Y0184048D01*
X0149674Y0183864D01*
X0149542Y0183683D01*
X0149407Y0183505D01*
X0149267Y0183330D01*
X0149122Y0183159D01*
X0148974Y0182992D01*
X0148822Y0182828D01*
X0148665Y0182668D01*
X0148505Y0182511D01*
X0148341Y0182359D01*
X0148174Y0182211D01*
X0148003Y0182066D01*
X0147828Y0181926D01*
X0147650Y0181791D01*
X0147469Y0181659D01*
X0147285Y0181532D01*
X0147098Y0181410D01*
X0146908Y0181292D01*
X0146715Y0181178D01*
X0146519Y0181070D01*
X0146321Y0180966D01*
X0146120Y0180867D01*
X0145917Y0180773D01*
X0145712Y0180684D01*
X0145505Y0180600D01*
X0145295Y0180521D01*
X0145084Y0180447D01*
X0144871Y0180378D01*
X0144657Y0180314D01*
X0144441Y0180256D01*
X0144223Y0180203D01*
X0144005Y0180155D01*
X0143785Y0180112D01*
X0143564Y0180075D01*
X0143343Y0180043D01*
X0143121Y0180016D01*
X0142898Y0179995D01*
X0142675Y0179980D01*
X0142451Y0179969D01*
X0142228Y0179964D01*
X0142004Y0179965D01*
X0141780Y0179971D01*
X0141557Y0179982D01*
X0141333Y0179999D01*
X0141333Y0180000D02*
X0138333Y0180000D01*
X0138065Y0180027D01*
X0137798Y0180060D01*
X0137531Y0180100D01*
X0137266Y0180146D01*
X0137001Y0180199D01*
X0136739Y0180258D01*
X0136477Y0180324D01*
X0136218Y0180396D01*
X0135960Y0180475D01*
X0135704Y0180560D01*
X0135450Y0180651D01*
X0135199Y0180748D01*
X0134950Y0180851D01*
X0134704Y0180960D01*
X0134460Y0181076D01*
X0134220Y0181197D01*
X0133982Y0181324D01*
X0133748Y0181457D01*
X0133517Y0181596D01*
X0133289Y0181740D01*
X0133065Y0181890D01*
X0132845Y0182045D01*
X0132628Y0182206D01*
X0132416Y0182372D01*
X0132208Y0182543D01*
X0132004Y0182719D01*
X0131804Y0182900D01*
X0131609Y0183085D01*
X0131418Y0183276D01*
X0131233Y0183471D01*
X0131052Y0183671D01*
X0130876Y0183875D01*
X0130705Y0184083D01*
X0130539Y0184295D01*
X0130378Y0184512D01*
X0130223Y0184732D01*
X0130073Y0184956D01*
X0129929Y0185184D01*
X0129790Y0185415D01*
X0129657Y0185649D01*
X0129530Y0185887D01*
X0129409Y0186127D01*
X0129293Y0186371D01*
X0129184Y0186617D01*
X0129081Y0186866D01*
X0128984Y0187117D01*
X0128893Y0187371D01*
X0128808Y0187627D01*
X0128729Y0187885D01*
X0128657Y0188144D01*
X0128591Y0188406D01*
X0128532Y0188668D01*
X0128479Y0188933D01*
X0128433Y0189198D01*
X0128393Y0189465D01*
X0128360Y0189732D01*
X0128333Y0190000D01*
X0128333Y0220000D01*
X0128360Y0220268D01*
X0128393Y0220535D01*
X0128433Y0220802D01*
X0128479Y0221067D01*
X0128532Y0221332D01*
X0128591Y0221594D01*
X0128657Y0221856D01*
X0128729Y0222115D01*
X0128808Y0222373D01*
X0128893Y0222629D01*
X0128984Y0222883D01*
X0129081Y0223134D01*
X0129184Y0223383D01*
X0129293Y0223629D01*
X0129409Y0223873D01*
X0129530Y0224113D01*
X0129657Y0224351D01*
X0129790Y0224585D01*
X0129929Y0224816D01*
X0130073Y0225044D01*
X0130223Y0225268D01*
X0130378Y0225488D01*
X0130539Y0225705D01*
X0130705Y0225917D01*
X0130876Y0226125D01*
X0131052Y0226329D01*
X0131233Y0226529D01*
X0131418Y0226724D01*
X0131609Y0226915D01*
X0131804Y0227100D01*
X0132004Y0227281D01*
X0132208Y0227457D01*
X0132416Y0227628D01*
X0132628Y0227794D01*
X0132845Y0227955D01*
X0133065Y0228110D01*
X0133289Y0228260D01*
X0133517Y0228404D01*
X0133748Y0228543D01*
X0133982Y0228676D01*
X0134220Y0228803D01*
X0134460Y0228924D01*
X0134704Y0229040D01*
X0134950Y0229149D01*
X0135199Y0229252D01*
X0135450Y0229349D01*
X0135704Y0229440D01*
X0135960Y0229525D01*
X0136218Y0229604D01*
X0136477Y0229676D01*
X0136739Y0229742D01*
X0137001Y0229801D01*
X0137266Y0229854D01*
X0137531Y0229900D01*
X0137798Y0229940D01*
X0138065Y0229973D01*
X0138333Y0230000D01*
X0328333Y0230000D01*
X0338333Y0220000D02*
X0338333Y0060000D01*
X0338334Y0060000D02*
X0338307Y0059732D01*
X0338274Y0059465D01*
X0338234Y0059198D01*
X0338188Y0058933D01*
X0338135Y0058668D01*
X0338076Y0058406D01*
X0338010Y0058144D01*
X0337938Y0057885D01*
X0337859Y0057627D01*
X0337774Y0057371D01*
X0337683Y0057117D01*
X0337586Y0056866D01*
X0337483Y0056617D01*
X0337374Y0056371D01*
X0337258Y0056127D01*
X0337137Y0055887D01*
X0337010Y0055649D01*
X0336877Y0055415D01*
X0336738Y0055184D01*
X0336594Y0054956D01*
X0336444Y0054732D01*
X0336289Y0054512D01*
X0336128Y0054295D01*
X0335962Y0054083D01*
X0335791Y0053875D01*
X0335615Y0053671D01*
X0335434Y0053471D01*
X0335249Y0053276D01*
X0335058Y0053085D01*
X0334863Y0052900D01*
X0334663Y0052719D01*
X0334459Y0052543D01*
X0334251Y0052372D01*
X0334039Y0052206D01*
X0333822Y0052045D01*
X0333602Y0051890D01*
X0333378Y0051740D01*
X0333150Y0051596D01*
X0332919Y0051457D01*
X0332685Y0051324D01*
X0332447Y0051197D01*
X0332207Y0051076D01*
X0331963Y0050960D01*
X0331717Y0050851D01*
X0331468Y0050748D01*
X0331217Y0050651D01*
X0330963Y0050560D01*
X0330707Y0050475D01*
X0330449Y0050396D01*
X0330190Y0050324D01*
X0329928Y0050258D01*
X0329666Y0050199D01*
X0329401Y0050146D01*
X0329136Y0050100D01*
X0328869Y0050060D01*
X0328602Y0050027D01*
X0328334Y0050000D01*
X0328333Y0050000D02*
X0138333Y0050000D01*
X0138065Y0050027D01*
X0137798Y0050060D01*
X0137531Y0050100D01*
X0137266Y0050146D01*
X0137001Y0050199D01*
X0136739Y0050258D01*
X0136477Y0050324D01*
X0136218Y0050396D01*
X0135960Y0050475D01*
X0135704Y0050560D01*
X0135450Y0050651D01*
X0135199Y0050748D01*
X0134950Y0050851D01*
X0134704Y0050960D01*
X0134460Y0051076D01*
X0134220Y0051197D01*
X0133982Y0051324D01*
X0133748Y0051457D01*
X0133517Y0051596D01*
X0133289Y0051740D01*
X0133065Y0051890D01*
X0132845Y0052045D01*
X0132628Y0052206D01*
X0132416Y0052372D01*
X0132208Y0052543D01*
X0132004Y0052719D01*
X0131804Y0052900D01*
X0131609Y0053085D01*
X0131418Y0053276D01*
X0131233Y0053471D01*
X0131052Y0053671D01*
X0130876Y0053875D01*
X0130705Y0054083D01*
X0130539Y0054295D01*
X0130378Y0054512D01*
X0130223Y0054732D01*
X0130073Y0054956D01*
X0129929Y0055184D01*
X0129790Y0055415D01*
X0129657Y0055649D01*
X0129530Y0055887D01*
X0129409Y0056127D01*
X0129293Y0056371D01*
X0129184Y0056617D01*
X0129081Y0056866D01*
X0128984Y0057117D01*
X0128893Y0057371D01*
X0128808Y0057627D01*
X0128729Y0057885D01*
X0128657Y0058144D01*
X0128591Y0058406D01*
X0128532Y0058668D01*
X0128479Y0058933D01*
X0128433Y0059198D01*
X0128393Y0059465D01*
X0128360Y0059732D01*
X0128333Y0060000D01*
X0328334Y0230000D02*
X0328602Y0229973D01*
X0328869Y0229940D01*
X0329136Y0229900D01*
X0329401Y0229854D01*
X0329666Y0229801D01*
X0329928Y0229742D01*
X0330190Y0229676D01*
X0330449Y0229604D01*
X0330707Y0229525D01*
X0330963Y0229440D01*
X0331217Y0229349D01*
X0331468Y0229252D01*
X0331717Y0229149D01*
X0331963Y0229040D01*
X0332207Y0228924D01*
X0332447Y0228803D01*
X0332685Y0228676D01*
X0332919Y0228543D01*
X0333150Y0228404D01*
X0333378Y0228260D01*
X0333602Y0228110D01*
X0333822Y0227955D01*
X0334039Y0227794D01*
X0334251Y0227628D01*
X0334459Y0227457D01*
X0334663Y0227281D01*
X0334863Y0227100D01*
X0335058Y0226915D01*
X0335249Y0226724D01*
X0335434Y0226529D01*
X0335615Y0226329D01*
X0335791Y0226125D01*
X0335962Y0225917D01*
X0336128Y0225705D01*
X0336289Y0225488D01*
X0336444Y0225268D01*
X0336594Y0225044D01*
X0336738Y0224816D01*
X0336877Y0224585D01*
X0337010Y0224351D01*
X0337137Y0224113D01*
X0337258Y0223873D01*
X0337374Y0223629D01*
X0337483Y0223383D01*
X0337586Y0223134D01*
X0337683Y0222883D01*
X0337774Y0222629D01*
X0337859Y0222373D01*
X0337938Y0222115D01*
X0338010Y0221856D01*
X0338076Y0221594D01*
X0338135Y0221332D01*
X0338188Y0221067D01*
X0338234Y0220802D01*
X0338274Y0220535D01*
X0338307Y0220268D01*
X0338334Y0220000D01*
D11*
X0319833Y0205000D02*
X0319835Y0205154D01*
X0319841Y0205309D01*
X0319851Y0205463D01*
X0319865Y0205617D01*
X0319883Y0205770D01*
X0319904Y0205923D01*
X0319930Y0206076D01*
X0319960Y0206227D01*
X0319993Y0206378D01*
X0320031Y0206528D01*
X0320072Y0206677D01*
X0320117Y0206825D01*
X0320166Y0206971D01*
X0320219Y0207117D01*
X0320275Y0207260D01*
X0320335Y0207403D01*
X0320399Y0207543D01*
X0320466Y0207683D01*
X0320537Y0207820D01*
X0320611Y0207955D01*
X0320689Y0208089D01*
X0320770Y0208220D01*
X0320855Y0208349D01*
X0320943Y0208477D01*
X0321034Y0208601D01*
X0321128Y0208724D01*
X0321226Y0208844D01*
X0321326Y0208961D01*
X0321430Y0209076D01*
X0321536Y0209188D01*
X0321645Y0209297D01*
X0321757Y0209403D01*
X0321872Y0209507D01*
X0321989Y0209607D01*
X0322109Y0209705D01*
X0322232Y0209799D01*
X0322356Y0209890D01*
X0322484Y0209978D01*
X0322613Y0210063D01*
X0322744Y0210144D01*
X0322878Y0210222D01*
X0323013Y0210296D01*
X0323150Y0210367D01*
X0323290Y0210434D01*
X0323430Y0210498D01*
X0323573Y0210558D01*
X0323716Y0210614D01*
X0323862Y0210667D01*
X0324008Y0210716D01*
X0324156Y0210761D01*
X0324305Y0210802D01*
X0324455Y0210840D01*
X0324606Y0210873D01*
X0324757Y0210903D01*
X0324910Y0210929D01*
X0325063Y0210950D01*
X0325216Y0210968D01*
X0325370Y0210982D01*
X0325524Y0210992D01*
X0325679Y0210998D01*
X0325833Y0211000D01*
X0325987Y0210998D01*
X0326142Y0210992D01*
X0326296Y0210982D01*
X0326450Y0210968D01*
X0326603Y0210950D01*
X0326756Y0210929D01*
X0326909Y0210903D01*
X0327060Y0210873D01*
X0327211Y0210840D01*
X0327361Y0210802D01*
X0327510Y0210761D01*
X0327658Y0210716D01*
X0327804Y0210667D01*
X0327950Y0210614D01*
X0328093Y0210558D01*
X0328236Y0210498D01*
X0328376Y0210434D01*
X0328516Y0210367D01*
X0328653Y0210296D01*
X0328788Y0210222D01*
X0328922Y0210144D01*
X0329053Y0210063D01*
X0329182Y0209978D01*
X0329310Y0209890D01*
X0329434Y0209799D01*
X0329557Y0209705D01*
X0329677Y0209607D01*
X0329794Y0209507D01*
X0329909Y0209403D01*
X0330021Y0209297D01*
X0330130Y0209188D01*
X0330236Y0209076D01*
X0330340Y0208961D01*
X0330440Y0208844D01*
X0330538Y0208724D01*
X0330632Y0208601D01*
X0330723Y0208477D01*
X0330811Y0208349D01*
X0330896Y0208220D01*
X0330977Y0208089D01*
X0331055Y0207955D01*
X0331129Y0207820D01*
X0331200Y0207683D01*
X0331267Y0207543D01*
X0331331Y0207403D01*
X0331391Y0207260D01*
X0331447Y0207117D01*
X0331500Y0206971D01*
X0331549Y0206825D01*
X0331594Y0206677D01*
X0331635Y0206528D01*
X0331673Y0206378D01*
X0331706Y0206227D01*
X0331736Y0206076D01*
X0331762Y0205923D01*
X0331783Y0205770D01*
X0331801Y0205617D01*
X0331815Y0205463D01*
X0331825Y0205309D01*
X0331831Y0205154D01*
X0331833Y0205000D01*
X0331831Y0204846D01*
X0331825Y0204691D01*
X0331815Y0204537D01*
X0331801Y0204383D01*
X0331783Y0204230D01*
X0331762Y0204077D01*
X0331736Y0203924D01*
X0331706Y0203773D01*
X0331673Y0203622D01*
X0331635Y0203472D01*
X0331594Y0203323D01*
X0331549Y0203175D01*
X0331500Y0203029D01*
X0331447Y0202883D01*
X0331391Y0202740D01*
X0331331Y0202597D01*
X0331267Y0202457D01*
X0331200Y0202317D01*
X0331129Y0202180D01*
X0331055Y0202045D01*
X0330977Y0201911D01*
X0330896Y0201780D01*
X0330811Y0201651D01*
X0330723Y0201523D01*
X0330632Y0201399D01*
X0330538Y0201276D01*
X0330440Y0201156D01*
X0330340Y0201039D01*
X0330236Y0200924D01*
X0330130Y0200812D01*
X0330021Y0200703D01*
X0329909Y0200597D01*
X0329794Y0200493D01*
X0329677Y0200393D01*
X0329557Y0200295D01*
X0329434Y0200201D01*
X0329310Y0200110D01*
X0329182Y0200022D01*
X0329053Y0199937D01*
X0328922Y0199856D01*
X0328788Y0199778D01*
X0328653Y0199704D01*
X0328516Y0199633D01*
X0328376Y0199566D01*
X0328236Y0199502D01*
X0328093Y0199442D01*
X0327950Y0199386D01*
X0327804Y0199333D01*
X0327658Y0199284D01*
X0327510Y0199239D01*
X0327361Y0199198D01*
X0327211Y0199160D01*
X0327060Y0199127D01*
X0326909Y0199097D01*
X0326756Y0199071D01*
X0326603Y0199050D01*
X0326450Y0199032D01*
X0326296Y0199018D01*
X0326142Y0199008D01*
X0325987Y0199002D01*
X0325833Y0199000D01*
X0325679Y0199002D01*
X0325524Y0199008D01*
X0325370Y0199018D01*
X0325216Y0199032D01*
X0325063Y0199050D01*
X0324910Y0199071D01*
X0324757Y0199097D01*
X0324606Y0199127D01*
X0324455Y0199160D01*
X0324305Y0199198D01*
X0324156Y0199239D01*
X0324008Y0199284D01*
X0323862Y0199333D01*
X0323716Y0199386D01*
X0323573Y0199442D01*
X0323430Y0199502D01*
X0323290Y0199566D01*
X0323150Y0199633D01*
X0323013Y0199704D01*
X0322878Y0199778D01*
X0322744Y0199856D01*
X0322613Y0199937D01*
X0322484Y0200022D01*
X0322356Y0200110D01*
X0322232Y0200201D01*
X0322109Y0200295D01*
X0321989Y0200393D01*
X0321872Y0200493D01*
X0321757Y0200597D01*
X0321645Y0200703D01*
X0321536Y0200812D01*
X0321430Y0200924D01*
X0321326Y0201039D01*
X0321226Y0201156D01*
X0321128Y0201276D01*
X0321034Y0201399D01*
X0320943Y0201523D01*
X0320855Y0201651D01*
X0320770Y0201780D01*
X0320689Y0201911D01*
X0320611Y0202045D01*
X0320537Y0202180D01*
X0320466Y0202317D01*
X0320399Y0202457D01*
X0320335Y0202597D01*
X0320275Y0202740D01*
X0320219Y0202883D01*
X0320166Y0203029D01*
X0320117Y0203175D01*
X0320072Y0203323D01*
X0320031Y0203472D01*
X0319993Y0203622D01*
X0319960Y0203773D01*
X0319930Y0203924D01*
X0319904Y0204077D01*
X0319883Y0204230D01*
X0319865Y0204383D01*
X0319851Y0204537D01*
X0319841Y0204691D01*
X0319835Y0204846D01*
X0319833Y0205000D01*
X0227833Y0217500D02*
X0227835Y0217648D01*
X0227841Y0217796D01*
X0227851Y0217944D01*
X0227865Y0218092D01*
X0227883Y0218239D01*
X0227905Y0218386D01*
X0227931Y0218532D01*
X0227960Y0218677D01*
X0227994Y0218822D01*
X0228032Y0218965D01*
X0228073Y0219108D01*
X0228118Y0219249D01*
X0228168Y0219389D01*
X0228220Y0219527D01*
X0228277Y0219665D01*
X0228337Y0219800D01*
X0228401Y0219934D01*
X0228468Y0220066D01*
X0228539Y0220196D01*
X0228614Y0220325D01*
X0228692Y0220451D01*
X0228773Y0220575D01*
X0228857Y0220697D01*
X0228945Y0220816D01*
X0229036Y0220933D01*
X0229130Y0221048D01*
X0229228Y0221160D01*
X0229328Y0221269D01*
X0229431Y0221376D01*
X0229537Y0221480D01*
X0229645Y0221581D01*
X0229757Y0221679D01*
X0229871Y0221774D01*
X0229987Y0221865D01*
X0230106Y0221954D01*
X0230227Y0222039D01*
X0230351Y0222121D01*
X0230477Y0222200D01*
X0230604Y0222275D01*
X0230734Y0222347D01*
X0230866Y0222416D01*
X0230999Y0222480D01*
X0231134Y0222541D01*
X0231271Y0222599D01*
X0231409Y0222653D01*
X0231549Y0222703D01*
X0231690Y0222749D01*
X0231832Y0222791D01*
X0231975Y0222830D01*
X0232119Y0222864D01*
X0232265Y0222895D01*
X0232410Y0222922D01*
X0232557Y0222945D01*
X0232704Y0222964D01*
X0232852Y0222979D01*
X0232999Y0222990D01*
X0233148Y0222997D01*
X0233296Y0223000D01*
X0233444Y0222999D01*
X0233592Y0222994D01*
X0233740Y0222985D01*
X0233888Y0222972D01*
X0234036Y0222955D01*
X0234182Y0222934D01*
X0234329Y0222909D01*
X0234474Y0222880D01*
X0234619Y0222848D01*
X0234762Y0222811D01*
X0234905Y0222771D01*
X0235047Y0222726D01*
X0235187Y0222678D01*
X0235326Y0222626D01*
X0235463Y0222571D01*
X0235599Y0222511D01*
X0235734Y0222448D01*
X0235866Y0222382D01*
X0235997Y0222312D01*
X0236126Y0222238D01*
X0236252Y0222161D01*
X0236377Y0222081D01*
X0236499Y0221997D01*
X0236620Y0221910D01*
X0236737Y0221820D01*
X0236853Y0221726D01*
X0236965Y0221630D01*
X0237075Y0221531D01*
X0237183Y0221428D01*
X0237287Y0221323D01*
X0237389Y0221215D01*
X0237487Y0221104D01*
X0237583Y0220991D01*
X0237676Y0220875D01*
X0237765Y0220757D01*
X0237851Y0220636D01*
X0237934Y0220513D01*
X0238014Y0220388D01*
X0238090Y0220261D01*
X0238163Y0220131D01*
X0238232Y0220000D01*
X0238297Y0219867D01*
X0238360Y0219733D01*
X0238418Y0219596D01*
X0238473Y0219458D01*
X0238523Y0219319D01*
X0238571Y0219178D01*
X0238614Y0219037D01*
X0238654Y0218894D01*
X0238689Y0218750D01*
X0238721Y0218605D01*
X0238749Y0218459D01*
X0238773Y0218313D01*
X0238793Y0218166D01*
X0238809Y0218018D01*
X0238821Y0217871D01*
X0238829Y0217722D01*
X0238833Y0217574D01*
X0238833Y0217426D01*
X0238829Y0217278D01*
X0238821Y0217129D01*
X0238809Y0216982D01*
X0238793Y0216834D01*
X0238773Y0216687D01*
X0238749Y0216541D01*
X0238721Y0216395D01*
X0238689Y0216250D01*
X0238654Y0216106D01*
X0238614Y0215963D01*
X0238571Y0215822D01*
X0238523Y0215681D01*
X0238473Y0215542D01*
X0238418Y0215404D01*
X0238360Y0215267D01*
X0238297Y0215133D01*
X0238232Y0215000D01*
X0238163Y0214869D01*
X0238090Y0214739D01*
X0238014Y0214612D01*
X0237934Y0214487D01*
X0237851Y0214364D01*
X0237765Y0214243D01*
X0237676Y0214125D01*
X0237583Y0214009D01*
X0237487Y0213896D01*
X0237389Y0213785D01*
X0237287Y0213677D01*
X0237183Y0213572D01*
X0237075Y0213469D01*
X0236965Y0213370D01*
X0236853Y0213274D01*
X0236737Y0213180D01*
X0236620Y0213090D01*
X0236499Y0213003D01*
X0236377Y0212919D01*
X0236252Y0212839D01*
X0236126Y0212762D01*
X0235997Y0212688D01*
X0235866Y0212618D01*
X0235734Y0212552D01*
X0235599Y0212489D01*
X0235463Y0212429D01*
X0235326Y0212374D01*
X0235187Y0212322D01*
X0235047Y0212274D01*
X0234905Y0212229D01*
X0234762Y0212189D01*
X0234619Y0212152D01*
X0234474Y0212120D01*
X0234329Y0212091D01*
X0234182Y0212066D01*
X0234036Y0212045D01*
X0233888Y0212028D01*
X0233740Y0212015D01*
X0233592Y0212006D01*
X0233444Y0212001D01*
X0233296Y0212000D01*
X0233148Y0212003D01*
X0232999Y0212010D01*
X0232852Y0212021D01*
X0232704Y0212036D01*
X0232557Y0212055D01*
X0232410Y0212078D01*
X0232265Y0212105D01*
X0232119Y0212136D01*
X0231975Y0212170D01*
X0231832Y0212209D01*
X0231690Y0212251D01*
X0231549Y0212297D01*
X0231409Y0212347D01*
X0231271Y0212401D01*
X0231134Y0212459D01*
X0230999Y0212520D01*
X0230866Y0212584D01*
X0230734Y0212653D01*
X0230604Y0212725D01*
X0230477Y0212800D01*
X0230351Y0212879D01*
X0230227Y0212961D01*
X0230106Y0213046D01*
X0229987Y0213135D01*
X0229871Y0213226D01*
X0229757Y0213321D01*
X0229645Y0213419D01*
X0229537Y0213520D01*
X0229431Y0213624D01*
X0229328Y0213731D01*
X0229228Y0213840D01*
X0229130Y0213952D01*
X0229036Y0214067D01*
X0228945Y0214184D01*
X0228857Y0214303D01*
X0228773Y0214425D01*
X0228692Y0214549D01*
X0228614Y0214675D01*
X0228539Y0214804D01*
X0228468Y0214934D01*
X0228401Y0215066D01*
X0228337Y0215200D01*
X0228277Y0215335D01*
X0228220Y0215473D01*
X0228168Y0215611D01*
X0228118Y0215751D01*
X0228073Y0215892D01*
X0228032Y0216035D01*
X0227994Y0216178D01*
X0227960Y0216323D01*
X0227931Y0216468D01*
X0227905Y0216614D01*
X0227883Y0216761D01*
X0227865Y0216908D01*
X0227851Y0217056D01*
X0227841Y0217204D01*
X0227835Y0217352D01*
X0227833Y0217500D01*
X0134833Y0205000D02*
X0134835Y0205154D01*
X0134841Y0205309D01*
X0134851Y0205463D01*
X0134865Y0205617D01*
X0134883Y0205770D01*
X0134904Y0205923D01*
X0134930Y0206076D01*
X0134960Y0206227D01*
X0134993Y0206378D01*
X0135031Y0206528D01*
X0135072Y0206677D01*
X0135117Y0206825D01*
X0135166Y0206971D01*
X0135219Y0207117D01*
X0135275Y0207260D01*
X0135335Y0207403D01*
X0135399Y0207543D01*
X0135466Y0207683D01*
X0135537Y0207820D01*
X0135611Y0207955D01*
X0135689Y0208089D01*
X0135770Y0208220D01*
X0135855Y0208349D01*
X0135943Y0208477D01*
X0136034Y0208601D01*
X0136128Y0208724D01*
X0136226Y0208844D01*
X0136326Y0208961D01*
X0136430Y0209076D01*
X0136536Y0209188D01*
X0136645Y0209297D01*
X0136757Y0209403D01*
X0136872Y0209507D01*
X0136989Y0209607D01*
X0137109Y0209705D01*
X0137232Y0209799D01*
X0137356Y0209890D01*
X0137484Y0209978D01*
X0137613Y0210063D01*
X0137744Y0210144D01*
X0137878Y0210222D01*
X0138013Y0210296D01*
X0138150Y0210367D01*
X0138290Y0210434D01*
X0138430Y0210498D01*
X0138573Y0210558D01*
X0138716Y0210614D01*
X0138862Y0210667D01*
X0139008Y0210716D01*
X0139156Y0210761D01*
X0139305Y0210802D01*
X0139455Y0210840D01*
X0139606Y0210873D01*
X0139757Y0210903D01*
X0139910Y0210929D01*
X0140063Y0210950D01*
X0140216Y0210968D01*
X0140370Y0210982D01*
X0140524Y0210992D01*
X0140679Y0210998D01*
X0140833Y0211000D01*
X0140987Y0210998D01*
X0141142Y0210992D01*
X0141296Y0210982D01*
X0141450Y0210968D01*
X0141603Y0210950D01*
X0141756Y0210929D01*
X0141909Y0210903D01*
X0142060Y0210873D01*
X0142211Y0210840D01*
X0142361Y0210802D01*
X0142510Y0210761D01*
X0142658Y0210716D01*
X0142804Y0210667D01*
X0142950Y0210614D01*
X0143093Y0210558D01*
X0143236Y0210498D01*
X0143376Y0210434D01*
X0143516Y0210367D01*
X0143653Y0210296D01*
X0143788Y0210222D01*
X0143922Y0210144D01*
X0144053Y0210063D01*
X0144182Y0209978D01*
X0144310Y0209890D01*
X0144434Y0209799D01*
X0144557Y0209705D01*
X0144677Y0209607D01*
X0144794Y0209507D01*
X0144909Y0209403D01*
X0145021Y0209297D01*
X0145130Y0209188D01*
X0145236Y0209076D01*
X0145340Y0208961D01*
X0145440Y0208844D01*
X0145538Y0208724D01*
X0145632Y0208601D01*
X0145723Y0208477D01*
X0145811Y0208349D01*
X0145896Y0208220D01*
X0145977Y0208089D01*
X0146055Y0207955D01*
X0146129Y0207820D01*
X0146200Y0207683D01*
X0146267Y0207543D01*
X0146331Y0207403D01*
X0146391Y0207260D01*
X0146447Y0207117D01*
X0146500Y0206971D01*
X0146549Y0206825D01*
X0146594Y0206677D01*
X0146635Y0206528D01*
X0146673Y0206378D01*
X0146706Y0206227D01*
X0146736Y0206076D01*
X0146762Y0205923D01*
X0146783Y0205770D01*
X0146801Y0205617D01*
X0146815Y0205463D01*
X0146825Y0205309D01*
X0146831Y0205154D01*
X0146833Y0205000D01*
X0146831Y0204846D01*
X0146825Y0204691D01*
X0146815Y0204537D01*
X0146801Y0204383D01*
X0146783Y0204230D01*
X0146762Y0204077D01*
X0146736Y0203924D01*
X0146706Y0203773D01*
X0146673Y0203622D01*
X0146635Y0203472D01*
X0146594Y0203323D01*
X0146549Y0203175D01*
X0146500Y0203029D01*
X0146447Y0202883D01*
X0146391Y0202740D01*
X0146331Y0202597D01*
X0146267Y0202457D01*
X0146200Y0202317D01*
X0146129Y0202180D01*
X0146055Y0202045D01*
X0145977Y0201911D01*
X0145896Y0201780D01*
X0145811Y0201651D01*
X0145723Y0201523D01*
X0145632Y0201399D01*
X0145538Y0201276D01*
X0145440Y0201156D01*
X0145340Y0201039D01*
X0145236Y0200924D01*
X0145130Y0200812D01*
X0145021Y0200703D01*
X0144909Y0200597D01*
X0144794Y0200493D01*
X0144677Y0200393D01*
X0144557Y0200295D01*
X0144434Y0200201D01*
X0144310Y0200110D01*
X0144182Y0200022D01*
X0144053Y0199937D01*
X0143922Y0199856D01*
X0143788Y0199778D01*
X0143653Y0199704D01*
X0143516Y0199633D01*
X0143376Y0199566D01*
X0143236Y0199502D01*
X0143093Y0199442D01*
X0142950Y0199386D01*
X0142804Y0199333D01*
X0142658Y0199284D01*
X0142510Y0199239D01*
X0142361Y0199198D01*
X0142211Y0199160D01*
X0142060Y0199127D01*
X0141909Y0199097D01*
X0141756Y0199071D01*
X0141603Y0199050D01*
X0141450Y0199032D01*
X0141296Y0199018D01*
X0141142Y0199008D01*
X0140987Y0199002D01*
X0140833Y0199000D01*
X0140679Y0199002D01*
X0140524Y0199008D01*
X0140370Y0199018D01*
X0140216Y0199032D01*
X0140063Y0199050D01*
X0139910Y0199071D01*
X0139757Y0199097D01*
X0139606Y0199127D01*
X0139455Y0199160D01*
X0139305Y0199198D01*
X0139156Y0199239D01*
X0139008Y0199284D01*
X0138862Y0199333D01*
X0138716Y0199386D01*
X0138573Y0199442D01*
X0138430Y0199502D01*
X0138290Y0199566D01*
X0138150Y0199633D01*
X0138013Y0199704D01*
X0137878Y0199778D01*
X0137744Y0199856D01*
X0137613Y0199937D01*
X0137484Y0200022D01*
X0137356Y0200110D01*
X0137232Y0200201D01*
X0137109Y0200295D01*
X0136989Y0200393D01*
X0136872Y0200493D01*
X0136757Y0200597D01*
X0136645Y0200703D01*
X0136536Y0200812D01*
X0136430Y0200924D01*
X0136326Y0201039D01*
X0136226Y0201156D01*
X0136128Y0201276D01*
X0136034Y0201399D01*
X0135943Y0201523D01*
X0135855Y0201651D01*
X0135770Y0201780D01*
X0135689Y0201911D01*
X0135611Y0202045D01*
X0135537Y0202180D01*
X0135466Y0202317D01*
X0135399Y0202457D01*
X0135335Y0202597D01*
X0135275Y0202740D01*
X0135219Y0202883D01*
X0135166Y0203029D01*
X0135117Y0203175D01*
X0135072Y0203323D01*
X0135031Y0203472D01*
X0134993Y0203622D01*
X0134960Y0203773D01*
X0134930Y0203924D01*
X0134904Y0204077D01*
X0134883Y0204230D01*
X0134865Y0204383D01*
X0134851Y0204537D01*
X0134841Y0204691D01*
X0134835Y0204846D01*
X0134833Y0205000D01*
X0134833Y0075000D02*
X0134835Y0075154D01*
X0134841Y0075309D01*
X0134851Y0075463D01*
X0134865Y0075617D01*
X0134883Y0075770D01*
X0134904Y0075923D01*
X0134930Y0076076D01*
X0134960Y0076227D01*
X0134993Y0076378D01*
X0135031Y0076528D01*
X0135072Y0076677D01*
X0135117Y0076825D01*
X0135166Y0076971D01*
X0135219Y0077117D01*
X0135275Y0077260D01*
X0135335Y0077403D01*
X0135399Y0077543D01*
X0135466Y0077683D01*
X0135537Y0077820D01*
X0135611Y0077955D01*
X0135689Y0078089D01*
X0135770Y0078220D01*
X0135855Y0078349D01*
X0135943Y0078477D01*
X0136034Y0078601D01*
X0136128Y0078724D01*
X0136226Y0078844D01*
X0136326Y0078961D01*
X0136430Y0079076D01*
X0136536Y0079188D01*
X0136645Y0079297D01*
X0136757Y0079403D01*
X0136872Y0079507D01*
X0136989Y0079607D01*
X0137109Y0079705D01*
X0137232Y0079799D01*
X0137356Y0079890D01*
X0137484Y0079978D01*
X0137613Y0080063D01*
X0137744Y0080144D01*
X0137878Y0080222D01*
X0138013Y0080296D01*
X0138150Y0080367D01*
X0138290Y0080434D01*
X0138430Y0080498D01*
X0138573Y0080558D01*
X0138716Y0080614D01*
X0138862Y0080667D01*
X0139008Y0080716D01*
X0139156Y0080761D01*
X0139305Y0080802D01*
X0139455Y0080840D01*
X0139606Y0080873D01*
X0139757Y0080903D01*
X0139910Y0080929D01*
X0140063Y0080950D01*
X0140216Y0080968D01*
X0140370Y0080982D01*
X0140524Y0080992D01*
X0140679Y0080998D01*
X0140833Y0081000D01*
X0140987Y0080998D01*
X0141142Y0080992D01*
X0141296Y0080982D01*
X0141450Y0080968D01*
X0141603Y0080950D01*
X0141756Y0080929D01*
X0141909Y0080903D01*
X0142060Y0080873D01*
X0142211Y0080840D01*
X0142361Y0080802D01*
X0142510Y0080761D01*
X0142658Y0080716D01*
X0142804Y0080667D01*
X0142950Y0080614D01*
X0143093Y0080558D01*
X0143236Y0080498D01*
X0143376Y0080434D01*
X0143516Y0080367D01*
X0143653Y0080296D01*
X0143788Y0080222D01*
X0143922Y0080144D01*
X0144053Y0080063D01*
X0144182Y0079978D01*
X0144310Y0079890D01*
X0144434Y0079799D01*
X0144557Y0079705D01*
X0144677Y0079607D01*
X0144794Y0079507D01*
X0144909Y0079403D01*
X0145021Y0079297D01*
X0145130Y0079188D01*
X0145236Y0079076D01*
X0145340Y0078961D01*
X0145440Y0078844D01*
X0145538Y0078724D01*
X0145632Y0078601D01*
X0145723Y0078477D01*
X0145811Y0078349D01*
X0145896Y0078220D01*
X0145977Y0078089D01*
X0146055Y0077955D01*
X0146129Y0077820D01*
X0146200Y0077683D01*
X0146267Y0077543D01*
X0146331Y0077403D01*
X0146391Y0077260D01*
X0146447Y0077117D01*
X0146500Y0076971D01*
X0146549Y0076825D01*
X0146594Y0076677D01*
X0146635Y0076528D01*
X0146673Y0076378D01*
X0146706Y0076227D01*
X0146736Y0076076D01*
X0146762Y0075923D01*
X0146783Y0075770D01*
X0146801Y0075617D01*
X0146815Y0075463D01*
X0146825Y0075309D01*
X0146831Y0075154D01*
X0146833Y0075000D01*
X0146831Y0074846D01*
X0146825Y0074691D01*
X0146815Y0074537D01*
X0146801Y0074383D01*
X0146783Y0074230D01*
X0146762Y0074077D01*
X0146736Y0073924D01*
X0146706Y0073773D01*
X0146673Y0073622D01*
X0146635Y0073472D01*
X0146594Y0073323D01*
X0146549Y0073175D01*
X0146500Y0073029D01*
X0146447Y0072883D01*
X0146391Y0072740D01*
X0146331Y0072597D01*
X0146267Y0072457D01*
X0146200Y0072317D01*
X0146129Y0072180D01*
X0146055Y0072045D01*
X0145977Y0071911D01*
X0145896Y0071780D01*
X0145811Y0071651D01*
X0145723Y0071523D01*
X0145632Y0071399D01*
X0145538Y0071276D01*
X0145440Y0071156D01*
X0145340Y0071039D01*
X0145236Y0070924D01*
X0145130Y0070812D01*
X0145021Y0070703D01*
X0144909Y0070597D01*
X0144794Y0070493D01*
X0144677Y0070393D01*
X0144557Y0070295D01*
X0144434Y0070201D01*
X0144310Y0070110D01*
X0144182Y0070022D01*
X0144053Y0069937D01*
X0143922Y0069856D01*
X0143788Y0069778D01*
X0143653Y0069704D01*
X0143516Y0069633D01*
X0143376Y0069566D01*
X0143236Y0069502D01*
X0143093Y0069442D01*
X0142950Y0069386D01*
X0142804Y0069333D01*
X0142658Y0069284D01*
X0142510Y0069239D01*
X0142361Y0069198D01*
X0142211Y0069160D01*
X0142060Y0069127D01*
X0141909Y0069097D01*
X0141756Y0069071D01*
X0141603Y0069050D01*
X0141450Y0069032D01*
X0141296Y0069018D01*
X0141142Y0069008D01*
X0140987Y0069002D01*
X0140833Y0069000D01*
X0140679Y0069002D01*
X0140524Y0069008D01*
X0140370Y0069018D01*
X0140216Y0069032D01*
X0140063Y0069050D01*
X0139910Y0069071D01*
X0139757Y0069097D01*
X0139606Y0069127D01*
X0139455Y0069160D01*
X0139305Y0069198D01*
X0139156Y0069239D01*
X0139008Y0069284D01*
X0138862Y0069333D01*
X0138716Y0069386D01*
X0138573Y0069442D01*
X0138430Y0069502D01*
X0138290Y0069566D01*
X0138150Y0069633D01*
X0138013Y0069704D01*
X0137878Y0069778D01*
X0137744Y0069856D01*
X0137613Y0069937D01*
X0137484Y0070022D01*
X0137356Y0070110D01*
X0137232Y0070201D01*
X0137109Y0070295D01*
X0136989Y0070393D01*
X0136872Y0070493D01*
X0136757Y0070597D01*
X0136645Y0070703D01*
X0136536Y0070812D01*
X0136430Y0070924D01*
X0136326Y0071039D01*
X0136226Y0071156D01*
X0136128Y0071276D01*
X0136034Y0071399D01*
X0135943Y0071523D01*
X0135855Y0071651D01*
X0135770Y0071780D01*
X0135689Y0071911D01*
X0135611Y0072045D01*
X0135537Y0072180D01*
X0135466Y0072317D01*
X0135399Y0072457D01*
X0135335Y0072597D01*
X0135275Y0072740D01*
X0135219Y0072883D01*
X0135166Y0073029D01*
X0135117Y0073175D01*
X0135072Y0073323D01*
X0135031Y0073472D01*
X0134993Y0073622D01*
X0134960Y0073773D01*
X0134930Y0073924D01*
X0134904Y0074077D01*
X0134883Y0074230D01*
X0134865Y0074383D01*
X0134851Y0074537D01*
X0134841Y0074691D01*
X0134835Y0074846D01*
X0134833Y0075000D01*
X0227833Y0062500D02*
X0227835Y0062648D01*
X0227841Y0062796D01*
X0227851Y0062944D01*
X0227865Y0063092D01*
X0227883Y0063239D01*
X0227905Y0063386D01*
X0227931Y0063532D01*
X0227960Y0063677D01*
X0227994Y0063822D01*
X0228032Y0063965D01*
X0228073Y0064108D01*
X0228118Y0064249D01*
X0228168Y0064389D01*
X0228220Y0064527D01*
X0228277Y0064665D01*
X0228337Y0064800D01*
X0228401Y0064934D01*
X0228468Y0065066D01*
X0228539Y0065196D01*
X0228614Y0065325D01*
X0228692Y0065451D01*
X0228773Y0065575D01*
X0228857Y0065697D01*
X0228945Y0065816D01*
X0229036Y0065933D01*
X0229130Y0066048D01*
X0229228Y0066160D01*
X0229328Y0066269D01*
X0229431Y0066376D01*
X0229537Y0066480D01*
X0229645Y0066581D01*
X0229757Y0066679D01*
X0229871Y0066774D01*
X0229987Y0066865D01*
X0230106Y0066954D01*
X0230227Y0067039D01*
X0230351Y0067121D01*
X0230477Y0067200D01*
X0230604Y0067275D01*
X0230734Y0067347D01*
X0230866Y0067416D01*
X0230999Y0067480D01*
X0231134Y0067541D01*
X0231271Y0067599D01*
X0231409Y0067653D01*
X0231549Y0067703D01*
X0231690Y0067749D01*
X0231832Y0067791D01*
X0231975Y0067830D01*
X0232119Y0067864D01*
X0232265Y0067895D01*
X0232410Y0067922D01*
X0232557Y0067945D01*
X0232704Y0067964D01*
X0232852Y0067979D01*
X0232999Y0067990D01*
X0233148Y0067997D01*
X0233296Y0068000D01*
X0233444Y0067999D01*
X0233592Y0067994D01*
X0233740Y0067985D01*
X0233888Y0067972D01*
X0234036Y0067955D01*
X0234182Y0067934D01*
X0234329Y0067909D01*
X0234474Y0067880D01*
X0234619Y0067848D01*
X0234762Y0067811D01*
X0234905Y0067771D01*
X0235047Y0067726D01*
X0235187Y0067678D01*
X0235326Y0067626D01*
X0235463Y0067571D01*
X0235599Y0067511D01*
X0235734Y0067448D01*
X0235866Y0067382D01*
X0235997Y0067312D01*
X0236126Y0067238D01*
X0236252Y0067161D01*
X0236377Y0067081D01*
X0236499Y0066997D01*
X0236620Y0066910D01*
X0236737Y0066820D01*
X0236853Y0066726D01*
X0236965Y0066630D01*
X0237075Y0066531D01*
X0237183Y0066428D01*
X0237287Y0066323D01*
X0237389Y0066215D01*
X0237487Y0066104D01*
X0237583Y0065991D01*
X0237676Y0065875D01*
X0237765Y0065757D01*
X0237851Y0065636D01*
X0237934Y0065513D01*
X0238014Y0065388D01*
X0238090Y0065261D01*
X0238163Y0065131D01*
X0238232Y0065000D01*
X0238297Y0064867D01*
X0238360Y0064733D01*
X0238418Y0064596D01*
X0238473Y0064458D01*
X0238523Y0064319D01*
X0238571Y0064178D01*
X0238614Y0064037D01*
X0238654Y0063894D01*
X0238689Y0063750D01*
X0238721Y0063605D01*
X0238749Y0063459D01*
X0238773Y0063313D01*
X0238793Y0063166D01*
X0238809Y0063018D01*
X0238821Y0062871D01*
X0238829Y0062722D01*
X0238833Y0062574D01*
X0238833Y0062426D01*
X0238829Y0062278D01*
X0238821Y0062129D01*
X0238809Y0061982D01*
X0238793Y0061834D01*
X0238773Y0061687D01*
X0238749Y0061541D01*
X0238721Y0061395D01*
X0238689Y0061250D01*
X0238654Y0061106D01*
X0238614Y0060963D01*
X0238571Y0060822D01*
X0238523Y0060681D01*
X0238473Y0060542D01*
X0238418Y0060404D01*
X0238360Y0060267D01*
X0238297Y0060133D01*
X0238232Y0060000D01*
X0238163Y0059869D01*
X0238090Y0059739D01*
X0238014Y0059612D01*
X0237934Y0059487D01*
X0237851Y0059364D01*
X0237765Y0059243D01*
X0237676Y0059125D01*
X0237583Y0059009D01*
X0237487Y0058896D01*
X0237389Y0058785D01*
X0237287Y0058677D01*
X0237183Y0058572D01*
X0237075Y0058469D01*
X0236965Y0058370D01*
X0236853Y0058274D01*
X0236737Y0058180D01*
X0236620Y0058090D01*
X0236499Y0058003D01*
X0236377Y0057919D01*
X0236252Y0057839D01*
X0236126Y0057762D01*
X0235997Y0057688D01*
X0235866Y0057618D01*
X0235734Y0057552D01*
X0235599Y0057489D01*
X0235463Y0057429D01*
X0235326Y0057374D01*
X0235187Y0057322D01*
X0235047Y0057274D01*
X0234905Y0057229D01*
X0234762Y0057189D01*
X0234619Y0057152D01*
X0234474Y0057120D01*
X0234329Y0057091D01*
X0234182Y0057066D01*
X0234036Y0057045D01*
X0233888Y0057028D01*
X0233740Y0057015D01*
X0233592Y0057006D01*
X0233444Y0057001D01*
X0233296Y0057000D01*
X0233148Y0057003D01*
X0232999Y0057010D01*
X0232852Y0057021D01*
X0232704Y0057036D01*
X0232557Y0057055D01*
X0232410Y0057078D01*
X0232265Y0057105D01*
X0232119Y0057136D01*
X0231975Y0057170D01*
X0231832Y0057209D01*
X0231690Y0057251D01*
X0231549Y0057297D01*
X0231409Y0057347D01*
X0231271Y0057401D01*
X0231134Y0057459D01*
X0230999Y0057520D01*
X0230866Y0057584D01*
X0230734Y0057653D01*
X0230604Y0057725D01*
X0230477Y0057800D01*
X0230351Y0057879D01*
X0230227Y0057961D01*
X0230106Y0058046D01*
X0229987Y0058135D01*
X0229871Y0058226D01*
X0229757Y0058321D01*
X0229645Y0058419D01*
X0229537Y0058520D01*
X0229431Y0058624D01*
X0229328Y0058731D01*
X0229228Y0058840D01*
X0229130Y0058952D01*
X0229036Y0059067D01*
X0228945Y0059184D01*
X0228857Y0059303D01*
X0228773Y0059425D01*
X0228692Y0059549D01*
X0228614Y0059675D01*
X0228539Y0059804D01*
X0228468Y0059934D01*
X0228401Y0060066D01*
X0228337Y0060200D01*
X0228277Y0060335D01*
X0228220Y0060473D01*
X0228168Y0060611D01*
X0228118Y0060751D01*
X0228073Y0060892D01*
X0228032Y0061035D01*
X0227994Y0061178D01*
X0227960Y0061323D01*
X0227931Y0061468D01*
X0227905Y0061614D01*
X0227883Y0061761D01*
X0227865Y0061908D01*
X0227851Y0062056D01*
X0227841Y0062204D01*
X0227835Y0062352D01*
X0227833Y0062500D01*
X0319833Y0075000D02*
X0319835Y0075154D01*
X0319841Y0075309D01*
X0319851Y0075463D01*
X0319865Y0075617D01*
X0319883Y0075770D01*
X0319904Y0075923D01*
X0319930Y0076076D01*
X0319960Y0076227D01*
X0319993Y0076378D01*
X0320031Y0076528D01*
X0320072Y0076677D01*
X0320117Y0076825D01*
X0320166Y0076971D01*
X0320219Y0077117D01*
X0320275Y0077260D01*
X0320335Y0077403D01*
X0320399Y0077543D01*
X0320466Y0077683D01*
X0320537Y0077820D01*
X0320611Y0077955D01*
X0320689Y0078089D01*
X0320770Y0078220D01*
X0320855Y0078349D01*
X0320943Y0078477D01*
X0321034Y0078601D01*
X0321128Y0078724D01*
X0321226Y0078844D01*
X0321326Y0078961D01*
X0321430Y0079076D01*
X0321536Y0079188D01*
X0321645Y0079297D01*
X0321757Y0079403D01*
X0321872Y0079507D01*
X0321989Y0079607D01*
X0322109Y0079705D01*
X0322232Y0079799D01*
X0322356Y0079890D01*
X0322484Y0079978D01*
X0322613Y0080063D01*
X0322744Y0080144D01*
X0322878Y0080222D01*
X0323013Y0080296D01*
X0323150Y0080367D01*
X0323290Y0080434D01*
X0323430Y0080498D01*
X0323573Y0080558D01*
X0323716Y0080614D01*
X0323862Y0080667D01*
X0324008Y0080716D01*
X0324156Y0080761D01*
X0324305Y0080802D01*
X0324455Y0080840D01*
X0324606Y0080873D01*
X0324757Y0080903D01*
X0324910Y0080929D01*
X0325063Y0080950D01*
X0325216Y0080968D01*
X0325370Y0080982D01*
X0325524Y0080992D01*
X0325679Y0080998D01*
X0325833Y0081000D01*
X0325987Y0080998D01*
X0326142Y0080992D01*
X0326296Y0080982D01*
X0326450Y0080968D01*
X0326603Y0080950D01*
X0326756Y0080929D01*
X0326909Y0080903D01*
X0327060Y0080873D01*
X0327211Y0080840D01*
X0327361Y0080802D01*
X0327510Y0080761D01*
X0327658Y0080716D01*
X0327804Y0080667D01*
X0327950Y0080614D01*
X0328093Y0080558D01*
X0328236Y0080498D01*
X0328376Y0080434D01*
X0328516Y0080367D01*
X0328653Y0080296D01*
X0328788Y0080222D01*
X0328922Y0080144D01*
X0329053Y0080063D01*
X0329182Y0079978D01*
X0329310Y0079890D01*
X0329434Y0079799D01*
X0329557Y0079705D01*
X0329677Y0079607D01*
X0329794Y0079507D01*
X0329909Y0079403D01*
X0330021Y0079297D01*
X0330130Y0079188D01*
X0330236Y0079076D01*
X0330340Y0078961D01*
X0330440Y0078844D01*
X0330538Y0078724D01*
X0330632Y0078601D01*
X0330723Y0078477D01*
X0330811Y0078349D01*
X0330896Y0078220D01*
X0330977Y0078089D01*
X0331055Y0077955D01*
X0331129Y0077820D01*
X0331200Y0077683D01*
X0331267Y0077543D01*
X0331331Y0077403D01*
X0331391Y0077260D01*
X0331447Y0077117D01*
X0331500Y0076971D01*
X0331549Y0076825D01*
X0331594Y0076677D01*
X0331635Y0076528D01*
X0331673Y0076378D01*
X0331706Y0076227D01*
X0331736Y0076076D01*
X0331762Y0075923D01*
X0331783Y0075770D01*
X0331801Y0075617D01*
X0331815Y0075463D01*
X0331825Y0075309D01*
X0331831Y0075154D01*
X0331833Y0075000D01*
X0331831Y0074846D01*
X0331825Y0074691D01*
X0331815Y0074537D01*
X0331801Y0074383D01*
X0331783Y0074230D01*
X0331762Y0074077D01*
X0331736Y0073924D01*
X0331706Y0073773D01*
X0331673Y0073622D01*
X0331635Y0073472D01*
X0331594Y0073323D01*
X0331549Y0073175D01*
X0331500Y0073029D01*
X0331447Y0072883D01*
X0331391Y0072740D01*
X0331331Y0072597D01*
X0331267Y0072457D01*
X0331200Y0072317D01*
X0331129Y0072180D01*
X0331055Y0072045D01*
X0330977Y0071911D01*
X0330896Y0071780D01*
X0330811Y0071651D01*
X0330723Y0071523D01*
X0330632Y0071399D01*
X0330538Y0071276D01*
X0330440Y0071156D01*
X0330340Y0071039D01*
X0330236Y0070924D01*
X0330130Y0070812D01*
X0330021Y0070703D01*
X0329909Y0070597D01*
X0329794Y0070493D01*
X0329677Y0070393D01*
X0329557Y0070295D01*
X0329434Y0070201D01*
X0329310Y0070110D01*
X0329182Y0070022D01*
X0329053Y0069937D01*
X0328922Y0069856D01*
X0328788Y0069778D01*
X0328653Y0069704D01*
X0328516Y0069633D01*
X0328376Y0069566D01*
X0328236Y0069502D01*
X0328093Y0069442D01*
X0327950Y0069386D01*
X0327804Y0069333D01*
X0327658Y0069284D01*
X0327510Y0069239D01*
X0327361Y0069198D01*
X0327211Y0069160D01*
X0327060Y0069127D01*
X0326909Y0069097D01*
X0326756Y0069071D01*
X0326603Y0069050D01*
X0326450Y0069032D01*
X0326296Y0069018D01*
X0326142Y0069008D01*
X0325987Y0069002D01*
X0325833Y0069000D01*
X0325679Y0069002D01*
X0325524Y0069008D01*
X0325370Y0069018D01*
X0325216Y0069032D01*
X0325063Y0069050D01*
X0324910Y0069071D01*
X0324757Y0069097D01*
X0324606Y0069127D01*
X0324455Y0069160D01*
X0324305Y0069198D01*
X0324156Y0069239D01*
X0324008Y0069284D01*
X0323862Y0069333D01*
X0323716Y0069386D01*
X0323573Y0069442D01*
X0323430Y0069502D01*
X0323290Y0069566D01*
X0323150Y0069633D01*
X0323013Y0069704D01*
X0322878Y0069778D01*
X0322744Y0069856D01*
X0322613Y0069937D01*
X0322484Y0070022D01*
X0322356Y0070110D01*
X0322232Y0070201D01*
X0322109Y0070295D01*
X0321989Y0070393D01*
X0321872Y0070493D01*
X0321757Y0070597D01*
X0321645Y0070703D01*
X0321536Y0070812D01*
X0321430Y0070924D01*
X0321326Y0071039D01*
X0321226Y0071156D01*
X0321128Y0071276D01*
X0321034Y0071399D01*
X0320943Y0071523D01*
X0320855Y0071651D01*
X0320770Y0071780D01*
X0320689Y0071911D01*
X0320611Y0072045D01*
X0320537Y0072180D01*
X0320466Y0072317D01*
X0320399Y0072457D01*
X0320335Y0072597D01*
X0320275Y0072740D01*
X0320219Y0072883D01*
X0320166Y0073029D01*
X0320117Y0073175D01*
X0320072Y0073323D01*
X0320031Y0073472D01*
X0319993Y0073622D01*
X0319960Y0073773D01*
X0319930Y0073924D01*
X0319904Y0074077D01*
X0319883Y0074230D01*
X0319865Y0074383D01*
X0319851Y0074537D01*
X0319841Y0074691D01*
X0319835Y0074846D01*
X0319833Y0075000D01*
M02*
