G75*
%MOIN*%
%OFA0B0*%
%FSLAX25Y25*%
%IPPOS*%
%LPD*%
%AMOC8*
5,1,8,0,0,1.08239X$1,22.5*
%
%ADD10C,0.01900*%
%ADD11C,0.01400*%
%ADD12C,0.02000*%
%ADD13C,0.01500*%
%ADD14C,0.01200*%
%ADD15C,0.01000*%
%ADD16C,0.00800*%
%ADD17R,0.07205X0.00118*%
%ADD18R,0.07913X0.00118*%
%ADD19R,0.08386X0.00079*%
%ADD20R,0.08858X0.00157*%
%ADD21R,0.09094X0.00118*%
%ADD22R,0.09331X0.00118*%
%ADD23R,0.09567X0.00079*%
%ADD24R,0.03661X0.00118*%
%ADD25R,0.02126X0.00118*%
%ADD26R,0.02953X0.00118*%
%ADD27R,0.02244X0.00157*%
%ADD28R,0.00591X0.00157*%
%ADD29R,0.01535X0.00157*%
%ADD30R,0.02598X0.00157*%
%ADD31R,0.02244X0.00118*%
%ADD32R,0.00472X0.00118*%
%ADD33R,0.01181X0.00118*%
%ADD34R,0.02362X0.00118*%
%ADD35R,0.00945X0.00118*%
%ADD36R,0.00354X0.00118*%
%ADD37R,0.00827X0.00118*%
%ADD38R,0.02480X0.00157*%
%ADD39R,0.00354X0.00157*%
%ADD40R,0.00236X0.00157*%
%ADD41R,0.02480X0.00118*%
%ADD42R,0.02598X0.00118*%
%ADD43R,0.01063X0.00118*%
%ADD44R,0.02835X0.00118*%
%ADD45R,0.00472X0.00157*%
%ADD46R,0.04252X0.00157*%
%ADD47R,0.04370X0.00118*%
%ADD48R,0.00591X0.00118*%
%ADD49R,0.04488X0.00118*%
%ADD50R,0.00709X0.00157*%
%ADD51R,0.04488X0.00157*%
%ADD52R,0.00236X0.00118*%
%ADD53R,0.00118X0.00118*%
%ADD54R,0.00118X0.00157*%
%ADD55R,0.04370X0.00157*%
%ADD56R,0.04252X0.00118*%
%ADD57R,0.02717X0.00118*%
%ADD58R,0.03071X0.00157*%
%ADD59R,0.03425X0.00118*%
%ADD60R,0.09567X0.00118*%
%ADD61R,0.08858X0.00118*%
%ADD62R,0.08386X0.00118*%
%ADD63R,0.00157X0.12756*%
%ADD64R,0.00157X0.01890*%
%ADD65R,0.00157X0.00630*%
%ADD66R,0.00157X0.00472*%
%ADD67R,0.00157X0.01732*%
%ADD68R,0.00157X0.01575*%
%ADD69R,0.00157X0.01417*%
%ADD70R,0.00157X0.01260*%
%ADD71R,0.00157X0.01102*%
%ADD72R,0.00157X0.03150*%
%ADD73R,0.00157X0.00945*%
%ADD74R,0.00157X0.00787*%
%ADD75R,0.00157X0.00315*%
%ADD76R,0.00157X0.00157*%
%ADD77R,0.00157X0.02205*%
%ADD78R,0.00157X0.03307*%
%ADD79R,0.00157X0.11024*%
%ADD80R,0.00157X0.11181*%
%ADD81R,0.00157X0.11496*%
%ADD82R,0.00157X0.11654*%
%ADD83R,0.00157X0.02047*%
%ADD84R,0.00157X0.02362*%
%ADD85R,0.00157X0.12913*%
%ADD86R,0.00157X0.13071*%
%ADD87R,0.00157X0.13228*%
%ADD88R,0.00157X0.02992*%
%ADD89R,0.00157X0.04409*%
%ADD90R,0.00157X0.04567*%
%ADD91R,0.00157X0.02835*%
%ADD92R,0.00157X0.02677*%
%ADD93R,0.00157X0.04252*%
%ADD94R,0.00157X0.04094*%
%ADD95R,0.00157X0.03937*%
%ADD96R,0.00157X0.03780*%
%ADD97R,0.00157X0.03622*%
%ADD98R,0.00157X0.03465*%
%ADD99R,0.00157X0.11811*%
%ADD100R,0.00157X0.14173*%
%ADD101R,0.00157X0.14331*%
%ADD102R,0.00157X0.14646*%
%ADD103R,0.00157X0.14803*%
%ADD104R,0.00157X0.15906*%
%ADD105R,0.00157X0.16063*%
%ADD106R,0.00157X0.16220*%
%ADD107R,0.00157X0.16378*%
%ADD108R,0.00157X0.05039*%
%ADD109R,0.00157X0.05197*%
%ADD110R,0.00157X0.02520*%
%ADD111R,0.00157X0.14961*%
%ADD112R,0.00157X0.15276*%
%ADD113R,0.00157X0.15118*%
%ADD114R,0.00157X0.14488*%
%ADD115R,0.00157X0.09921*%
%ADD116R,0.09803X0.00118*%
%ADD117R,0.10276X0.00079*%
%ADD118R,0.10748X0.00157*%
%ADD119R,0.10984X0.00118*%
%ADD120R,0.11220X0.00118*%
%ADD121R,0.11457X0.00079*%
%ADD122R,0.08150X0.00118*%
%ADD123R,0.01063X0.00157*%
%ADD124R,0.01417X0.00157*%
%ADD125R,0.00709X0.00118*%
%ADD126R,0.04016X0.00118*%
%ADD127R,0.00945X0.00157*%
%ADD128R,0.03898X0.00157*%
%ADD129R,0.03189X0.00118*%
%ADD130R,0.02717X0.00157*%
%ADD131R,0.01654X0.00118*%
%ADD132R,0.02126X0.00157*%
%ADD133R,0.01299X0.00118*%
%ADD134R,0.02008X0.00118*%
%ADD135R,0.01890X0.00118*%
%ADD136R,0.02008X0.00157*%
%ADD137R,0.01890X0.00157*%
%ADD138R,0.11457X0.00118*%
%ADD139R,0.10748X0.00118*%
%ADD140R,0.10276X0.00118*%
%ADD141R,0.15236X0.00118*%
%ADD142R,0.15945X0.00118*%
%ADD143R,0.16417X0.00079*%
%ADD144R,0.16890X0.00157*%
%ADD145R,0.17126X0.00118*%
%ADD146R,0.17362X0.00118*%
%ADD147R,0.17598X0.00079*%
%ADD148R,0.11929X0.00118*%
%ADD149R,0.05551X0.00118*%
%ADD150R,0.01299X0.00157*%
%ADD151R,0.02362X0.00157*%
%ADD152R,0.04134X0.00118*%
%ADD153R,0.04134X0.00157*%
%ADD154R,0.02953X0.00157*%
%ADD155R,0.03071X0.00118*%
%ADD156R,0.00827X0.00157*%
%ADD157R,0.01181X0.00157*%
%ADD158R,0.01417X0.00118*%
%ADD159R,0.01535X0.00118*%
%ADD160R,0.17598X0.00118*%
%ADD161R,0.16890X0.00118*%
%ADD162R,0.16417X0.00118*%
%ADD163R,0.10748X0.00079*%
%ADD164R,0.11220X0.00157*%
%ADD165R,0.11693X0.00118*%
%ADD166R,0.11929X0.00079*%
%ADD167R,0.03307X0.00118*%
%ADD168R,0.03543X0.00157*%
%ADD169R,0.03543X0.00118*%
%ADD170R,0.03189X0.00157*%
%ADD171R,0.00118X0.17598*%
%ADD172R,0.00118X0.17480*%
%ADD173R,0.00079X0.17362*%
%ADD174R,0.00157X0.17244*%
%ADD175R,0.00118X0.17126*%
%ADD176R,0.00118X0.17008*%
%ADD177R,0.00079X0.16890*%
%ADD178R,0.00118X0.11220*%
%ADD179R,0.00118X0.05197*%
%ADD180R,0.00157X0.00354*%
%ADD181R,0.00157X0.01299*%
%ADD182R,0.00157X0.00709*%
%ADD183R,0.00157X0.01535*%
%ADD184R,0.00118X0.01417*%
%ADD185R,0.00118X0.00236*%
%ADD186R,0.00118X0.01181*%
%ADD187R,0.00118X0.01063*%
%ADD188R,0.00118X0.00591*%
%ADD189R,0.00118X0.00945*%
%ADD190R,0.00118X0.00354*%
%ADD191R,0.00118X0.01299*%
%ADD192R,0.00118X0.00709*%
%ADD193R,0.00157X0.00236*%
%ADD194R,0.00157X0.01063*%
%ADD195R,0.00118X0.00827*%
%ADD196R,0.00118X0.01890*%
%ADD197R,0.00118X0.00472*%
%ADD198R,0.00118X0.02480*%
%ADD199R,0.00118X0.02362*%
%ADD200R,0.00157X0.00591*%
%ADD201R,0.00157X0.02126*%
%ADD202R,0.00157X0.02244*%
%ADD203R,0.00118X0.02126*%
%ADD204R,0.00118X0.02244*%
%ADD205R,0.00157X0.00118*%
%ADD206R,0.00118X0.02008*%
%ADD207R,0.00118X0.02598*%
%ADD208R,0.00157X0.00827*%
%ADD209R,0.00157X0.02008*%
%ADD210R,0.00157X0.01181*%
%ADD211R,0.00118X0.01535*%
%ADD212R,0.00118X0.01772*%
%ADD213R,0.00118X0.16890*%
%ADD214R,0.00118X0.17244*%
%ADD215R,0.00118X0.17362*%
%ADD216R,0.00157X0.15748*%
%ADD217R,0.00157X0.15591*%
%ADD218R,0.00157X0.15433*%
%ADD219R,0.00157X0.07087*%
%ADD220R,0.00157X0.02953*%
%ADD221R,0.00118X0.03071*%
%ADD222R,0.00118X0.02953*%
%ADD223R,0.00118X0.01654*%
%ADD224R,0.00157X0.02480*%
%ADD225R,0.00118X0.02717*%
%ADD226R,0.00118X0.02835*%
%ADD227R,0.12402X0.00157*%
%ADD228R,0.12638X0.00118*%
%ADD229R,0.12874X0.00118*%
%ADD230R,0.13110X0.00079*%
%ADD231R,0.04961X0.00118*%
%ADD232R,0.05079X0.00118*%
%ADD233R,0.02835X0.00157*%
%ADD234R,0.13110X0.00118*%
%ADD235R,0.12402X0.00118*%
%ADD236R,0.00157X0.10551*%
%ADD237R,0.00157X0.07874*%
%ADD238R,0.00157X0.08031*%
%ADD239R,0.00157X0.08346*%
%ADD240R,0.00157X0.08504*%
%ADD241R,0.00157X0.09606*%
%ADD242R,0.00157X0.09764*%
%ADD243R,0.00157X0.10079*%
%ADD244R,0.00157X0.08661*%
%ADD245R,0.00157X0.13701*%
%ADD246R,0.00157X0.14016*%
%ADD247R,0.00157X0.04882*%
%ADD248C,0.00300*%
%ADD249R,0.00118X0.20079*%
%ADD250R,0.00118X0.20197*%
%ADD251R,0.00079X0.20433*%
%ADD252R,0.00157X0.20551*%
%ADD253R,0.00118X0.20669*%
%ADD254R,0.00118X0.20787*%
%ADD255R,0.00079X0.08504*%
%ADD256R,0.00079X0.11929*%
%ADD257R,0.00118X0.04252*%
%ADD258R,0.00118X0.03189*%
%ADD259R,0.00157X0.01654*%
%ADD260R,0.00157X0.01772*%
%ADD261R,0.00118X0.07087*%
%ADD262R,0.00118X0.13228*%
%ADD263R,0.00118X0.07205*%
%ADD264R,0.00118X0.20551*%
%ADD265R,0.00118X0.20433*%
%ADD266R,0.00118X0.22559*%
%ADD267R,0.00118X0.22441*%
%ADD268R,0.00079X0.22323*%
%ADD269R,0.00157X0.22205*%
%ADD270R,0.00118X0.22087*%
%ADD271R,0.00118X0.21969*%
%ADD272R,0.00079X0.09449*%
%ADD273R,0.00079X0.12047*%
%ADD274R,0.00118X0.04961*%
%ADD275R,0.00118X0.05787*%
%ADD276R,0.00157X0.02598*%
%ADD277R,0.00118X0.08031*%
%ADD278R,0.00118X0.08386*%
%ADD279R,0.00118X0.13346*%
%ADD280R,0.00118X0.22205*%
%ADD281R,0.00118X0.22323*%
%ADD282C,0.00500*%
%ADD283C,0.01600*%
D10*
X0174989Y0302200D02*
X0180294Y0302200D01*
X0182062Y0303968D01*
X0182062Y0311041D01*
X0180294Y0312809D01*
X0174989Y0312809D01*
X0174989Y0302200D01*
X0186499Y0302200D02*
X0193572Y0302200D01*
X0198009Y0305736D02*
X0198009Y0312809D01*
X0193572Y0312809D02*
X0186499Y0312809D01*
X0186499Y0302200D01*
X0186499Y0307505D02*
X0190035Y0307505D01*
X0198009Y0305736D02*
X0201545Y0302200D01*
X0205081Y0305736D01*
X0205081Y0312809D01*
X0209519Y0307505D02*
X0216591Y0307505D01*
X0221028Y0309273D02*
X0224565Y0312809D01*
X0224565Y0302200D01*
X0228101Y0302200D02*
X0221028Y0302200D01*
X0232538Y0303968D02*
X0234306Y0302200D01*
X0237843Y0302200D01*
X0239611Y0303968D01*
X0239611Y0307505D01*
X0237843Y0309273D01*
X0236075Y0309273D01*
X0232538Y0307505D01*
X0232538Y0312809D01*
X0239611Y0312809D01*
X0244048Y0311041D02*
X0244048Y0303968D01*
X0251121Y0311041D01*
X0251121Y0303968D01*
X0249353Y0302200D01*
X0245816Y0302200D01*
X0244048Y0303968D01*
X0244048Y0311041D02*
X0245816Y0312809D01*
X0249353Y0312809D01*
X0251121Y0311041D01*
X0255558Y0311041D02*
X0255558Y0303968D01*
X0262631Y0311041D01*
X0262631Y0303968D01*
X0260862Y0302200D01*
X0257326Y0302200D01*
X0255558Y0303968D01*
X0255558Y0311041D02*
X0257326Y0312809D01*
X0260862Y0312809D01*
X0262631Y0311041D01*
X0267068Y0312809D02*
X0267068Y0307505D01*
X0270604Y0309273D01*
X0272372Y0309273D01*
X0274140Y0307505D01*
X0274140Y0303968D01*
X0272372Y0302200D01*
X0268836Y0302200D01*
X0267068Y0303968D01*
X0267068Y0312809D02*
X0274140Y0312809D01*
X0262631Y0322200D02*
X0257326Y0327505D01*
X0255558Y0325736D02*
X0262631Y0332809D01*
X0255558Y0332809D02*
X0255558Y0322200D01*
X0247584Y0322200D02*
X0247584Y0332809D01*
X0244048Y0332809D02*
X0251121Y0332809D01*
X0245366Y0342200D02*
X0238293Y0342200D01*
X0241830Y0342200D02*
X0241830Y0352809D01*
X0238293Y0349273D01*
X0233856Y0351041D02*
X0233856Y0352809D01*
X0226783Y0352809D01*
X0222346Y0352809D02*
X0218810Y0351041D01*
X0215273Y0347505D01*
X0220578Y0347505D01*
X0222346Y0345736D01*
X0222346Y0343968D01*
X0220578Y0342200D01*
X0217042Y0342200D01*
X0215273Y0343968D01*
X0215273Y0347505D01*
X0210836Y0349273D02*
X0209068Y0349273D01*
X0203764Y0349273D01*
X0203764Y0345736D02*
X0210836Y0345736D01*
X0209068Y0342200D02*
X0209068Y0352809D01*
X0205532Y0352809D02*
X0205532Y0342200D01*
X0203313Y0332809D02*
X0198009Y0332809D01*
X0198009Y0322200D01*
X0198009Y0325736D02*
X0203313Y0325736D01*
X0205081Y0327505D01*
X0205081Y0331041D01*
X0203313Y0332809D01*
X0209519Y0331041D02*
X0209519Y0329273D01*
X0211287Y0327505D01*
X0214823Y0327505D01*
X0216591Y0325736D01*
X0216591Y0323968D01*
X0214823Y0322200D01*
X0211287Y0322200D01*
X0209519Y0323968D01*
X0209519Y0331041D02*
X0211287Y0332809D01*
X0214823Y0332809D01*
X0216591Y0331041D01*
X0221028Y0327505D02*
X0228101Y0327505D01*
X0232538Y0325736D02*
X0237843Y0325736D01*
X0239611Y0327505D01*
X0239611Y0331041D01*
X0237843Y0332809D01*
X0232538Y0332809D01*
X0232538Y0322200D01*
X0236075Y0325736D02*
X0239611Y0322200D01*
X0226783Y0342200D02*
X0226783Y0343968D01*
X0233856Y0351041D01*
X0193572Y0331041D02*
X0191803Y0332809D01*
X0188267Y0332809D01*
X0186499Y0331041D01*
X0186499Y0323968D01*
X0188267Y0322200D01*
X0191803Y0322200D01*
X0193572Y0323968D01*
X0193572Y0327505D01*
X0190035Y0327505D01*
D11*
X0195333Y0179706D02*
X0199137Y0179706D01*
X0200404Y0178439D01*
X0200404Y0177171D01*
X0199137Y0175903D01*
X0195333Y0175903D01*
X0195333Y0172100D02*
X0199137Y0172100D01*
X0200404Y0173368D01*
X0200404Y0174635D01*
X0199137Y0175903D01*
X0203620Y0175903D02*
X0204888Y0177171D01*
X0207424Y0177171D01*
X0208691Y0175903D01*
X0208691Y0173368D01*
X0207424Y0172100D01*
X0204888Y0172100D01*
X0203620Y0173368D01*
X0203620Y0175903D01*
X0211907Y0173368D02*
X0213175Y0174635D01*
X0216978Y0174635D01*
X0216978Y0175903D02*
X0216978Y0172100D01*
X0213175Y0172100D01*
X0211907Y0173368D01*
X0213175Y0177171D02*
X0215711Y0177171D01*
X0216978Y0175903D01*
X0220195Y0174635D02*
X0222730Y0177171D01*
X0223998Y0177171D01*
X0227100Y0175903D02*
X0228368Y0177171D01*
X0232171Y0177171D01*
X0232171Y0179706D02*
X0232171Y0172100D01*
X0228368Y0172100D01*
X0227100Y0173368D01*
X0227100Y0175903D01*
X0220195Y0177171D02*
X0220195Y0172100D01*
X0229749Y0163671D02*
X0232285Y0163671D01*
X0233553Y0162403D01*
X0233553Y0158600D01*
X0229749Y0158600D01*
X0228482Y0159868D01*
X0229749Y0161135D01*
X0233553Y0161135D01*
X0236769Y0158600D02*
X0236769Y0163671D01*
X0240572Y0163671D01*
X0241840Y0162403D01*
X0241840Y0158600D01*
X0245056Y0159868D02*
X0245056Y0162403D01*
X0246324Y0163671D01*
X0250127Y0163671D01*
X0250127Y0166206D02*
X0250127Y0158600D01*
X0246324Y0158600D01*
X0245056Y0159868D01*
X0244716Y0150171D02*
X0245983Y0148903D01*
X0245983Y0147635D01*
X0240912Y0147635D01*
X0240912Y0146368D02*
X0240912Y0148903D01*
X0242180Y0150171D01*
X0244716Y0150171D01*
X0249199Y0148903D02*
X0250467Y0150171D01*
X0254270Y0150171D01*
X0253003Y0147635D02*
X0254270Y0146368D01*
X0253003Y0145100D01*
X0249199Y0145100D01*
X0250467Y0147635D02*
X0249199Y0148903D01*
X0250467Y0147635D02*
X0253003Y0147635D01*
X0257486Y0150171D02*
X0260022Y0150171D01*
X0258754Y0151439D02*
X0258754Y0146368D01*
X0260022Y0145100D01*
X0244716Y0145100D02*
X0242180Y0145100D01*
X0240912Y0146368D01*
X0237923Y0145100D02*
X0236655Y0146368D01*
X0236655Y0151439D01*
X0235388Y0150171D02*
X0237923Y0150171D01*
X0232171Y0148903D02*
X0232171Y0147635D01*
X0227100Y0147635D01*
X0227100Y0146368D02*
X0227100Y0148903D01*
X0228368Y0150171D01*
X0230904Y0150171D01*
X0232171Y0148903D01*
X0230904Y0145100D02*
X0228368Y0145100D01*
X0227100Y0146368D01*
X0223998Y0150171D02*
X0222730Y0150171D01*
X0220195Y0147635D01*
X0220195Y0145100D02*
X0220195Y0150171D01*
X0216978Y0148903D02*
X0215711Y0147635D01*
X0211907Y0147635D01*
X0211907Y0145100D02*
X0211907Y0152706D01*
X0215711Y0152706D01*
X0216978Y0151439D01*
X0216978Y0148903D01*
X0195333Y0172100D02*
X0195333Y0179706D01*
X0243675Y0179706D02*
X0243675Y0172100D01*
X0243675Y0174635D02*
X0247478Y0174635D01*
X0248746Y0175903D01*
X0248746Y0178439D01*
X0247478Y0179706D01*
X0243675Y0179706D01*
X0251962Y0175903D02*
X0251962Y0173368D01*
X0253229Y0172100D01*
X0255765Y0172100D01*
X0257033Y0173368D01*
X0257033Y0175903D01*
X0255765Y0177171D01*
X0253229Y0177171D01*
X0251962Y0175903D01*
X0260249Y0177171D02*
X0260249Y0173368D01*
X0261517Y0172100D01*
X0262784Y0173368D01*
X0264052Y0172100D01*
X0265320Y0173368D01*
X0265320Y0177171D01*
X0268536Y0175903D02*
X0269804Y0177171D01*
X0272339Y0177171D01*
X0273607Y0175903D01*
X0273607Y0174635D01*
X0268536Y0174635D01*
X0268536Y0173368D02*
X0268536Y0175903D01*
X0268536Y0173368D02*
X0269804Y0172100D01*
X0272339Y0172100D01*
X0276823Y0172100D02*
X0276823Y0177171D01*
X0279358Y0177171D02*
X0280626Y0177171D01*
X0279358Y0177171D02*
X0276823Y0174635D01*
D12*
X0319633Y0177709D02*
X0326973Y0177709D01*
X0323303Y0177709D02*
X0323303Y0166700D01*
X0331604Y0168535D02*
X0333438Y0170370D01*
X0338943Y0170370D01*
X0338943Y0172205D02*
X0338943Y0166700D01*
X0333438Y0166700D01*
X0331604Y0168535D01*
X0333438Y0174040D02*
X0337108Y0174040D01*
X0338943Y0172205D01*
X0343574Y0174040D02*
X0349078Y0174040D01*
X0350913Y0172205D01*
X0350913Y0168535D01*
X0349078Y0166700D01*
X0343574Y0166700D01*
X0343574Y0163030D02*
X0343574Y0174040D01*
X0343574Y0158209D02*
X0343574Y0147200D01*
X0350913Y0147200D01*
X0355544Y0149035D02*
X0357379Y0147200D01*
X0361049Y0147200D01*
X0362884Y0149035D01*
X0362884Y0150870D01*
X0361049Y0152705D01*
X0357379Y0152705D01*
X0355544Y0154540D01*
X0355544Y0156375D01*
X0357379Y0158209D01*
X0361049Y0158209D01*
X0362884Y0156375D01*
X0367514Y0158209D02*
X0374854Y0158209D01*
X0371184Y0158209D02*
X0371184Y0147200D01*
X0371184Y0166700D02*
X0369349Y0168535D01*
X0369349Y0175875D01*
X0367514Y0174040D02*
X0371184Y0174040D01*
X0375494Y0172205D02*
X0375494Y0168535D01*
X0377329Y0166700D01*
X0380999Y0166700D01*
X0382834Y0168535D01*
X0382834Y0172205D01*
X0380999Y0174040D01*
X0377329Y0174040D01*
X0375494Y0172205D01*
X0350913Y0158209D02*
X0343574Y0158209D01*
X0338943Y0158209D02*
X0331604Y0158209D01*
X0335273Y0158209D02*
X0335273Y0147200D01*
X0343574Y0152705D02*
X0347244Y0152705D01*
D13*
X0429083Y0155750D02*
X0429083Y0164257D01*
X0431919Y0161422D01*
X0434755Y0164257D01*
X0434755Y0155750D01*
X0438291Y0155750D02*
X0438291Y0161422D01*
X0441127Y0164257D01*
X0443963Y0161422D01*
X0443963Y0155750D01*
X0447499Y0155750D02*
X0450335Y0155750D01*
X0448917Y0155750D02*
X0448917Y0164257D01*
X0447499Y0164257D02*
X0450335Y0164257D01*
X0453638Y0164257D02*
X0459309Y0155750D01*
X0459309Y0164257D01*
X0453638Y0164257D02*
X0453638Y0155750D01*
X0443963Y0160004D02*
X0438291Y0160004D01*
X0438291Y0190750D02*
X0438291Y0199257D01*
X0442545Y0199257D01*
X0443963Y0197839D01*
X0443963Y0195004D01*
X0442545Y0193586D01*
X0438291Y0193586D01*
X0441127Y0193586D02*
X0443963Y0190750D01*
X0447499Y0190750D02*
X0453171Y0190750D01*
X0450335Y0195004D02*
X0447499Y0195004D01*
X0447499Y0199257D02*
X0447499Y0190750D01*
X0447499Y0199257D02*
X0453171Y0199257D01*
X0456707Y0199257D02*
X0462378Y0199257D01*
X0459543Y0199257D02*
X0459543Y0190750D01*
X0465915Y0190750D02*
X0471586Y0190750D01*
X0475123Y0192168D02*
X0476541Y0190750D01*
X0479376Y0190750D01*
X0480794Y0192168D01*
X0480794Y0193586D01*
X0479376Y0195004D01*
X0476541Y0195004D01*
X0475123Y0196422D01*
X0475123Y0197839D01*
X0476541Y0199257D01*
X0479376Y0199257D01*
X0480794Y0197839D01*
X0484330Y0199257D02*
X0490002Y0199257D01*
X0487166Y0199257D02*
X0487166Y0190750D01*
X0471586Y0199257D02*
X0465915Y0199257D01*
X0465915Y0190750D01*
X0465915Y0195004D02*
X0468751Y0195004D01*
X0472053Y0164257D02*
X0477725Y0164257D01*
X0474889Y0164257D02*
X0474889Y0155750D01*
X0481261Y0155750D02*
X0481261Y0164257D01*
X0486933Y0164257D01*
X0490469Y0162839D02*
X0490469Y0161422D01*
X0491887Y0160004D01*
X0494723Y0160004D01*
X0496141Y0158586D01*
X0496141Y0157168D01*
X0494723Y0155750D01*
X0491887Y0155750D01*
X0490469Y0157168D01*
X0486933Y0155750D02*
X0481261Y0155750D01*
X0481261Y0160004D02*
X0484097Y0160004D01*
X0490469Y0162839D02*
X0491887Y0164257D01*
X0494723Y0164257D01*
X0496141Y0162839D01*
X0499677Y0164257D02*
X0505348Y0164257D01*
X0502513Y0164257D02*
X0502513Y0155750D01*
X0434755Y0195004D02*
X0433337Y0193586D01*
X0429083Y0193586D01*
X0429083Y0190750D02*
X0429083Y0199257D01*
X0433337Y0199257D01*
X0434755Y0197839D01*
X0434755Y0195004D01*
X0599083Y0121422D02*
X0601919Y0115750D01*
X0604755Y0121422D01*
X0608291Y0121422D02*
X0611127Y0124257D01*
X0611127Y0115750D01*
X0608291Y0115750D02*
X0613963Y0115750D01*
X0617499Y0117168D02*
X0623171Y0122839D01*
X0623171Y0117168D01*
X0621753Y0115750D01*
X0618917Y0115750D01*
X0617499Y0117168D01*
X0617499Y0122839D01*
X0618917Y0124257D01*
X0621753Y0124257D01*
X0623171Y0122839D01*
D14*
X0608114Y0205600D02*
X0603577Y0205600D01*
X0603577Y0212406D01*
X0600935Y0212406D02*
X0598666Y0212406D01*
X0599800Y0212406D02*
X0599800Y0205600D01*
X0598666Y0205600D02*
X0600935Y0205600D01*
X0595837Y0205600D02*
X0595837Y0210137D01*
X0593568Y0212406D01*
X0591300Y0210137D01*
X0591300Y0205600D01*
X0591300Y0209003D02*
X0595837Y0209003D01*
X0588471Y0212406D02*
X0583933Y0212406D01*
X0583933Y0205600D01*
X0583933Y0209003D02*
X0586202Y0209003D01*
X0560569Y0207869D02*
X0560569Y0206734D01*
X0559435Y0205600D01*
X0557166Y0205600D01*
X0556032Y0206734D01*
X0557166Y0209003D02*
X0559435Y0209003D01*
X0560569Y0207869D01*
X0560569Y0211272D02*
X0559435Y0212406D01*
X0557166Y0212406D01*
X0556032Y0211272D01*
X0556032Y0210137D01*
X0557166Y0209003D01*
X0553203Y0207869D02*
X0553203Y0206734D01*
X0552069Y0205600D01*
X0549800Y0205600D01*
X0548666Y0206734D01*
X0549800Y0209003D02*
X0552069Y0209003D01*
X0553203Y0207869D01*
X0553203Y0211272D02*
X0552069Y0212406D01*
X0549800Y0212406D01*
X0548666Y0211272D01*
X0548666Y0210137D01*
X0549800Y0209003D01*
X0545837Y0209003D02*
X0541300Y0209003D01*
X0541300Y0210137D02*
X0543568Y0212406D01*
X0545837Y0210137D01*
X0545837Y0205600D01*
X0541300Y0205600D02*
X0541300Y0210137D01*
X0538471Y0209003D02*
X0537336Y0207869D01*
X0533933Y0207869D01*
X0533933Y0205600D02*
X0533933Y0212406D01*
X0537336Y0212406D01*
X0538471Y0211272D01*
X0538471Y0209003D01*
D15*
X0628333Y0180000D02*
X0428333Y0180000D01*
D16*
X0538885Y0191063D02*
X0544396Y0191063D01*
X0547152Y0192638D02*
X0549514Y0195000D01*
X0547152Y0197362D01*
X0547152Y0192638D01*
X0549514Y0192244D02*
X0549514Y0195000D01*
X0549514Y0197756D01*
X0552270Y0198937D02*
X0557782Y0198937D01*
X0557782Y0191063D01*
X0552270Y0191063D01*
X0544396Y0198937D02*
X0538885Y0198937D01*
X0538885Y0191063D01*
X0538885Y0163937D02*
X0538885Y0156063D01*
X0544396Y0156063D01*
X0547152Y0157638D02*
X0547152Y0162362D01*
X0549514Y0160000D01*
X0547152Y0157638D01*
X0549514Y0157244D02*
X0549514Y0160000D01*
X0549514Y0162756D01*
X0552270Y0163937D02*
X0557782Y0163937D01*
X0557782Y0156063D01*
X0552270Y0156063D01*
X0544396Y0163937D02*
X0538885Y0163937D01*
X0568333Y0164291D02*
X0568333Y0170000D01*
X0578885Y0163937D02*
X0578885Y0156063D01*
X0584396Y0156063D01*
X0587152Y0157638D02*
X0587152Y0162362D01*
X0589514Y0160000D01*
X0587152Y0157638D01*
X0589514Y0157244D02*
X0589514Y0160000D01*
X0589514Y0162756D01*
X0592270Y0163937D02*
X0597782Y0163937D01*
X0597782Y0156063D01*
X0592270Y0156063D01*
X0584396Y0163937D02*
X0578885Y0163937D01*
X0568333Y0160354D02*
X0568333Y0154646D01*
X0568333Y0150709D02*
X0568333Y0145000D01*
X0568333Y0185000D02*
X0568333Y0189042D01*
X0568333Y0192979D02*
X0568333Y0197021D01*
X0568333Y0200958D02*
X0568333Y0205000D01*
X0578885Y0198937D02*
X0578885Y0191063D01*
X0584396Y0191063D01*
X0587152Y0192638D02*
X0589514Y0195000D01*
X0587152Y0197362D01*
X0587152Y0192638D01*
X0589514Y0192244D02*
X0589514Y0195000D01*
X0589514Y0197756D01*
X0592270Y0198937D02*
X0597782Y0198937D01*
X0597782Y0191063D01*
X0592270Y0191063D01*
X0584396Y0198937D02*
X0578885Y0198937D01*
X0576833Y0367300D02*
X0544833Y0367300D01*
X0544757Y0367302D01*
X0544681Y0367308D01*
X0544606Y0367317D01*
X0544531Y0367331D01*
X0544457Y0367348D01*
X0544384Y0367369D01*
X0544312Y0367393D01*
X0544241Y0367422D01*
X0544172Y0367453D01*
X0544105Y0367488D01*
X0544040Y0367527D01*
X0543976Y0367569D01*
X0543915Y0367614D01*
X0543856Y0367662D01*
X0543800Y0367713D01*
X0543746Y0367767D01*
X0543695Y0367823D01*
X0543647Y0367882D01*
X0543602Y0367943D01*
X0543560Y0368007D01*
X0543521Y0368072D01*
X0543486Y0368139D01*
X0543455Y0368208D01*
X0543426Y0368279D01*
X0543402Y0368351D01*
X0543381Y0368424D01*
X0543364Y0368498D01*
X0543350Y0368573D01*
X0543341Y0368648D01*
X0543335Y0368724D01*
X0543333Y0368800D01*
X0543333Y0373000D01*
X0543333Y0377000D01*
X0543333Y0381200D01*
X0543335Y0381276D01*
X0543341Y0381352D01*
X0543350Y0381427D01*
X0543364Y0381502D01*
X0543381Y0381576D01*
X0543402Y0381649D01*
X0543426Y0381721D01*
X0543455Y0381792D01*
X0543486Y0381861D01*
X0543521Y0381928D01*
X0543560Y0381993D01*
X0543602Y0382057D01*
X0543647Y0382118D01*
X0543695Y0382177D01*
X0543746Y0382233D01*
X0543800Y0382287D01*
X0543856Y0382338D01*
X0543915Y0382386D01*
X0543976Y0382431D01*
X0544040Y0382473D01*
X0544105Y0382512D01*
X0544172Y0382547D01*
X0544241Y0382578D01*
X0544312Y0382607D01*
X0544384Y0382631D01*
X0544457Y0382652D01*
X0544531Y0382669D01*
X0544606Y0382683D01*
X0544681Y0382692D01*
X0544757Y0382698D01*
X0544833Y0382700D01*
X0576833Y0382700D01*
X0576909Y0382698D01*
X0576985Y0382692D01*
X0577060Y0382683D01*
X0577135Y0382669D01*
X0577209Y0382652D01*
X0577282Y0382631D01*
X0577354Y0382607D01*
X0577425Y0382578D01*
X0577494Y0382547D01*
X0577561Y0382512D01*
X0577626Y0382473D01*
X0577690Y0382431D01*
X0577751Y0382386D01*
X0577810Y0382338D01*
X0577866Y0382287D01*
X0577920Y0382233D01*
X0577971Y0382177D01*
X0578019Y0382118D01*
X0578064Y0382057D01*
X0578106Y0381993D01*
X0578145Y0381928D01*
X0578180Y0381861D01*
X0578211Y0381792D01*
X0578240Y0381721D01*
X0578264Y0381649D01*
X0578285Y0381576D01*
X0578302Y0381502D01*
X0578316Y0381427D01*
X0578325Y0381352D01*
X0578331Y0381276D01*
X0578333Y0381200D01*
X0578333Y0368800D01*
X0578333Y0368700D02*
X0543333Y0368700D01*
X0543333Y0373000D02*
X0543421Y0373002D01*
X0543510Y0373008D01*
X0543598Y0373018D01*
X0543685Y0373031D01*
X0543772Y0373049D01*
X0543858Y0373070D01*
X0543943Y0373095D01*
X0544026Y0373124D01*
X0544109Y0373157D01*
X0544189Y0373193D01*
X0544268Y0373232D01*
X0544346Y0373275D01*
X0544421Y0373322D01*
X0544494Y0373372D01*
X0544565Y0373425D01*
X0544634Y0373481D01*
X0544700Y0373540D01*
X0544763Y0373602D01*
X0544823Y0373666D01*
X0544881Y0373733D01*
X0544935Y0373803D01*
X0544987Y0373875D01*
X0545035Y0373949D01*
X0545080Y0374026D01*
X0545121Y0374104D01*
X0545159Y0374184D01*
X0545193Y0374265D01*
X0545224Y0374348D01*
X0545251Y0374433D01*
X0545274Y0374518D01*
X0545293Y0374604D01*
X0545309Y0374692D01*
X0545321Y0374779D01*
X0545329Y0374867D01*
X0545333Y0374956D01*
X0545333Y0375044D01*
X0545329Y0375133D01*
X0545321Y0375221D01*
X0545309Y0375308D01*
X0545293Y0375396D01*
X0545274Y0375482D01*
X0545251Y0375567D01*
X0545224Y0375652D01*
X0545193Y0375735D01*
X0545159Y0375816D01*
X0545121Y0375896D01*
X0545080Y0375974D01*
X0545035Y0376051D01*
X0544987Y0376125D01*
X0544935Y0376197D01*
X0544881Y0376267D01*
X0544823Y0376334D01*
X0544763Y0376398D01*
X0544700Y0376460D01*
X0544634Y0376519D01*
X0544565Y0376575D01*
X0544494Y0376628D01*
X0544421Y0376678D01*
X0544346Y0376725D01*
X0544268Y0376768D01*
X0544189Y0376807D01*
X0544109Y0376843D01*
X0544026Y0376876D01*
X0543943Y0376905D01*
X0543858Y0376930D01*
X0543772Y0376951D01*
X0543685Y0376969D01*
X0543598Y0376982D01*
X0543510Y0376992D01*
X0543421Y0376998D01*
X0543333Y0377000D01*
X0576833Y0367300D02*
X0576909Y0367302D01*
X0576985Y0367308D01*
X0577060Y0367317D01*
X0577135Y0367331D01*
X0577209Y0367348D01*
X0577282Y0367369D01*
X0577354Y0367393D01*
X0577425Y0367422D01*
X0577494Y0367453D01*
X0577561Y0367488D01*
X0577626Y0367527D01*
X0577690Y0367569D01*
X0577751Y0367614D01*
X0577810Y0367662D01*
X0577866Y0367713D01*
X0577920Y0367767D01*
X0577971Y0367823D01*
X0578019Y0367882D01*
X0578064Y0367943D01*
X0578106Y0368007D01*
X0578145Y0368072D01*
X0578180Y0368139D01*
X0578211Y0368208D01*
X0578240Y0368279D01*
X0578264Y0368351D01*
X0578285Y0368424D01*
X0578302Y0368498D01*
X0578316Y0368573D01*
X0578325Y0368648D01*
X0578331Y0368724D01*
X0578333Y0368800D01*
D17*
X0343444Y0354343D03*
X0343444Y0349657D03*
D18*
X0343444Y0349776D03*
X0343444Y0354224D03*
D19*
X0343444Y0354126D03*
D20*
X0343444Y0354008D03*
D21*
X0343444Y0353870D03*
X0343444Y0350091D03*
X0444888Y0299843D03*
X0444888Y0295157D03*
D22*
X0343444Y0350209D03*
X0343444Y0353752D03*
D23*
X0343444Y0353654D03*
D24*
X0340373Y0353555D03*
X0449377Y0297835D03*
D25*
X0445656Y0296220D03*
X0449944Y0303720D03*
X0450050Y0283780D03*
X0450050Y0281220D03*
X0449932Y0280945D03*
X0445562Y0282835D03*
X0436940Y0280945D03*
X0434223Y0280945D03*
X0343975Y0353555D03*
D26*
X0346869Y0353555D03*
X0449703Y0290610D03*
X0449991Y0282717D03*
X0449991Y0282638D03*
X0449991Y0282362D03*
X0449991Y0282283D03*
D27*
X0445503Y0282500D03*
X0449703Y0288583D03*
X0445715Y0296083D03*
X0440046Y0296083D03*
X0440046Y0298917D03*
X0438546Y0303583D03*
X0438546Y0306417D03*
X0439546Y0291417D03*
X0439546Y0288583D03*
X0434164Y0283917D03*
X0434164Y0281083D03*
X0339546Y0350583D03*
X0339546Y0353417D03*
D28*
X0341672Y0353417D03*
X0343680Y0352945D03*
X0442314Y0282972D03*
X0443613Y0281555D03*
X0446329Y0281083D03*
X0442735Y0291417D03*
X0446424Y0297500D03*
X0446223Y0305472D03*
D29*
X0343798Y0353417D03*
D30*
X0347164Y0353417D03*
X0339369Y0352472D03*
X0339369Y0352000D03*
X0339369Y0351528D03*
X0433987Y0282972D03*
X0433987Y0282500D03*
X0433987Y0282028D03*
X0439369Y0289528D03*
X0439369Y0290000D03*
X0439369Y0290472D03*
X0439869Y0297028D03*
X0439869Y0297500D03*
X0439869Y0297972D03*
X0441676Y0303583D03*
X0438369Y0304528D03*
X0438369Y0305000D03*
X0438369Y0305472D03*
X0450062Y0305000D03*
X0449554Y0298917D03*
X0449790Y0298445D03*
X0449554Y0296083D03*
X0449762Y0289055D03*
D31*
X0449703Y0288720D03*
X0449585Y0288445D03*
X0449703Y0291280D03*
X0450109Y0283701D03*
X0450109Y0283583D03*
X0450109Y0281417D03*
X0450109Y0281339D03*
X0445503Y0282165D03*
X0445503Y0282283D03*
X0445503Y0282362D03*
X0445503Y0282638D03*
X0445503Y0282717D03*
X0439664Y0288445D03*
X0439546Y0288720D03*
X0439546Y0291280D03*
X0440164Y0295945D03*
X0440046Y0296220D03*
X0440046Y0298780D03*
X0442881Y0295945D03*
X0438664Y0303445D03*
X0438546Y0303720D03*
X0438546Y0306280D03*
X0449766Y0303445D03*
X0450003Y0303839D03*
X0450003Y0303917D03*
X0434164Y0283780D03*
X0434164Y0281220D03*
X0347341Y0350720D03*
X0339664Y0350445D03*
X0339546Y0350720D03*
X0339546Y0353280D03*
D32*
X0341613Y0353280D03*
X0341613Y0353201D03*
X0342558Y0352807D03*
X0342558Y0352728D03*
X0343385Y0352217D03*
X0343621Y0352807D03*
X0341613Y0351390D03*
X0441912Y0306201D03*
X0442266Y0305138D03*
X0443329Y0305610D03*
X0444156Y0304390D03*
X0444156Y0304272D03*
X0444983Y0305335D03*
X0444983Y0305610D03*
X0446282Y0305610D03*
X0446282Y0305728D03*
X0446282Y0305807D03*
X0447546Y0298307D03*
X0446483Y0297638D03*
X0443648Y0297362D03*
X0443648Y0297283D03*
X0443648Y0298307D03*
X0442794Y0291280D03*
X0443554Y0283228D03*
X0443554Y0283110D03*
X0442373Y0282835D03*
X0443554Y0281890D03*
X0443554Y0281772D03*
X0446388Y0281693D03*
X0446388Y0281220D03*
X0446388Y0283228D03*
X0440483Y0280945D03*
D33*
X0442018Y0283780D03*
X0445207Y0283110D03*
X0443621Y0288720D03*
X0443621Y0288839D03*
X0443621Y0288917D03*
X0443621Y0290138D03*
X0443621Y0290217D03*
X0443621Y0290335D03*
X0443621Y0290610D03*
X0443621Y0290728D03*
X0441849Y0288445D03*
X0446601Y0297283D03*
X0447699Y0303445D03*
X0445928Y0303720D03*
X0445928Y0303839D03*
X0343739Y0353280D03*
D34*
X0342558Y0351272D03*
X0339487Y0350917D03*
X0339487Y0350839D03*
X0339487Y0353083D03*
X0339487Y0353201D03*
X0347282Y0353280D03*
X0347400Y0353201D03*
X0347400Y0353083D03*
X0347400Y0350917D03*
X0347400Y0350839D03*
X0434105Y0283701D03*
X0434105Y0283583D03*
X0434105Y0281417D03*
X0434105Y0281339D03*
X0439487Y0288839D03*
X0439487Y0288917D03*
X0439487Y0291083D03*
X0439487Y0291201D03*
X0439987Y0296339D03*
X0439987Y0296417D03*
X0439987Y0298583D03*
X0439987Y0298701D03*
X0438487Y0303839D03*
X0438487Y0303917D03*
X0438487Y0306083D03*
X0438487Y0306201D03*
X0441558Y0304193D03*
X0449908Y0296772D03*
X0449908Y0296693D03*
X0449790Y0296417D03*
X0449672Y0296220D03*
X0449526Y0291555D03*
X0449762Y0291201D03*
X0449762Y0291083D03*
X0449762Y0288917D03*
X0449762Y0288839D03*
D35*
X0447400Y0291280D03*
X0441849Y0290610D03*
X0441849Y0290335D03*
X0441849Y0290217D03*
X0441849Y0288839D03*
X0441849Y0288720D03*
X0443790Y0283701D03*
X0443790Y0281220D03*
X0441900Y0281339D03*
X0441900Y0281417D03*
X0446270Y0280945D03*
X0443412Y0296890D03*
X0442349Y0297717D03*
X0442349Y0297835D03*
X0442349Y0298110D03*
X0445066Y0297835D03*
X0444156Y0303720D03*
X0444156Y0303839D03*
X0446046Y0304272D03*
X0446046Y0304390D03*
X0447699Y0303720D03*
X0447699Y0305335D03*
X0444983Y0306201D03*
X0444983Y0306280D03*
X0443329Y0306280D03*
X0443329Y0306201D03*
X0440849Y0305610D03*
X0440849Y0305335D03*
X0440849Y0305217D03*
X0343739Y0353201D03*
D36*
X0343562Y0352728D03*
X0343562Y0352610D03*
X0343444Y0352335D03*
X0343562Y0351390D03*
X0342499Y0352610D03*
X0341554Y0352610D03*
X0341554Y0352728D03*
X0341554Y0352807D03*
X0341554Y0353083D03*
X0341554Y0351862D03*
X0341554Y0351783D03*
X0341554Y0351665D03*
X0441971Y0306083D03*
X0442089Y0305807D03*
X0442207Y0305335D03*
X0442207Y0305217D03*
X0443270Y0305335D03*
X0446341Y0306083D03*
X0446341Y0306201D03*
X0446341Y0306280D03*
X0446306Y0298307D03*
X0446306Y0298228D03*
X0446424Y0297835D03*
X0446424Y0297717D03*
X0443707Y0297717D03*
X0443707Y0297638D03*
X0443707Y0297835D03*
X0443707Y0298110D03*
X0443707Y0298228D03*
X0442853Y0291201D03*
X0447223Y0290807D03*
X0447223Y0290728D03*
X0447223Y0289193D03*
X0446448Y0283701D03*
X0446448Y0283583D03*
X0446448Y0283307D03*
X0446448Y0281417D03*
X0446448Y0281339D03*
X0443495Y0282165D03*
X0443495Y0282283D03*
X0443495Y0282362D03*
X0443495Y0282638D03*
X0443495Y0282717D03*
X0443495Y0282835D03*
X0442432Y0282717D03*
X0442432Y0282638D03*
X0441605Y0282165D03*
X0440424Y0283307D03*
X0437707Y0283307D03*
D37*
X0437471Y0282165D03*
X0440188Y0282165D03*
X0440188Y0282717D03*
X0442196Y0283307D03*
X0443731Y0281339D03*
X0445266Y0283228D03*
X0441790Y0288917D03*
X0441790Y0290138D03*
X0442290Y0297638D03*
X0443471Y0298780D03*
X0445007Y0298110D03*
X0445007Y0297717D03*
X0445007Y0297638D03*
X0446542Y0297362D03*
X0447605Y0296772D03*
X0446306Y0298701D03*
X0447640Y0303839D03*
X0447640Y0303917D03*
X0447640Y0305138D03*
X0447640Y0305217D03*
X0447640Y0305610D03*
X0446105Y0304783D03*
X0446105Y0304665D03*
X0444924Y0306083D03*
X0443270Y0306083D03*
X0442207Y0304665D03*
X0440790Y0305138D03*
X0345215Y0352728D03*
X0343680Y0353083D03*
X0341790Y0352217D03*
D38*
X0342617Y0351055D03*
X0339428Y0351055D03*
X0339428Y0352945D03*
X0347459Y0352945D03*
X0347459Y0351055D03*
X0347223Y0350583D03*
X0434046Y0283445D03*
X0434046Y0281555D03*
X0439428Y0289055D03*
X0439428Y0290945D03*
X0439928Y0296555D03*
X0439928Y0298445D03*
X0438428Y0304055D03*
X0438428Y0305945D03*
X0441617Y0304055D03*
X0450003Y0304055D03*
X0450121Y0305472D03*
X0450003Y0305945D03*
X0449967Y0297028D03*
X0449849Y0296555D03*
X0449822Y0290945D03*
D39*
X0446160Y0291417D03*
X0446042Y0290945D03*
X0443707Y0297500D03*
X0443707Y0297972D03*
X0442207Y0305472D03*
X0446341Y0305945D03*
X0446448Y0283445D03*
X0446448Y0281555D03*
X0443495Y0282028D03*
X0443495Y0282500D03*
X0443495Y0282972D03*
X0440424Y0281555D03*
X0440542Y0281083D03*
X0437825Y0283917D03*
X0341554Y0351528D03*
X0341554Y0352945D03*
D40*
X0342558Y0352945D03*
X0442030Y0305945D03*
X0444983Y0305000D03*
X0446365Y0297972D03*
X0443030Y0290945D03*
X0440483Y0283445D03*
X0442491Y0282500D03*
X0437766Y0283445D03*
D41*
X0434046Y0283307D03*
X0434046Y0283228D03*
X0434046Y0281772D03*
X0434046Y0281693D03*
X0439428Y0289193D03*
X0439428Y0289272D03*
X0439428Y0290728D03*
X0439428Y0290807D03*
X0439928Y0296693D03*
X0439928Y0296772D03*
X0439928Y0298228D03*
X0439928Y0298307D03*
X0441617Y0303917D03*
X0438428Y0304193D03*
X0438428Y0304272D03*
X0438428Y0305728D03*
X0438428Y0305807D03*
X0449885Y0306083D03*
X0450003Y0305807D03*
X0450003Y0305728D03*
X0450121Y0305610D03*
X0450121Y0305335D03*
X0450121Y0305217D03*
X0450121Y0305138D03*
X0450003Y0304193D03*
X0449613Y0298780D03*
X0449731Y0298701D03*
X0449731Y0298583D03*
X0449967Y0297165D03*
X0449967Y0296890D03*
X0449731Y0296339D03*
X0450109Y0283307D03*
X0347459Y0352807D03*
X0342617Y0351193D03*
X0339428Y0351193D03*
X0339428Y0351272D03*
X0339428Y0352728D03*
X0339428Y0352807D03*
D42*
X0339369Y0352610D03*
X0339369Y0352335D03*
X0339369Y0352217D03*
X0339369Y0352138D03*
X0339369Y0351862D03*
X0339369Y0351783D03*
X0339369Y0351665D03*
X0339369Y0351390D03*
X0342676Y0350917D03*
X0347046Y0350445D03*
X0347400Y0351193D03*
X0347400Y0352728D03*
X0433987Y0283110D03*
X0433987Y0282835D03*
X0433987Y0282717D03*
X0433987Y0282638D03*
X0433987Y0282362D03*
X0433987Y0282283D03*
X0433987Y0282165D03*
X0433987Y0281890D03*
X0439369Y0289390D03*
X0439369Y0289665D03*
X0439369Y0289783D03*
X0439369Y0289862D03*
X0439369Y0290138D03*
X0439369Y0290217D03*
X0439369Y0290335D03*
X0439369Y0290610D03*
X0439869Y0296890D03*
X0439869Y0297165D03*
X0439869Y0297283D03*
X0439869Y0297362D03*
X0439869Y0297638D03*
X0439869Y0297717D03*
X0439869Y0297835D03*
X0439869Y0298110D03*
X0441676Y0303720D03*
X0441676Y0303839D03*
X0438369Y0304390D03*
X0438369Y0304665D03*
X0438369Y0304783D03*
X0438369Y0304862D03*
X0438369Y0305138D03*
X0438369Y0305217D03*
X0438369Y0305335D03*
X0438369Y0305610D03*
X0445774Y0295945D03*
X0449908Y0297283D03*
X0449908Y0297362D03*
X0449762Y0290807D03*
X0449944Y0304272D03*
X0450062Y0304862D03*
X0449825Y0306201D03*
X0449707Y0306280D03*
D43*
X0445987Y0304193D03*
X0445987Y0303917D03*
X0446306Y0298780D03*
X0446188Y0296890D03*
X0447487Y0296890D03*
X0447459Y0288445D03*
X0443849Y0283780D03*
X0442077Y0283701D03*
X0442077Y0283583D03*
X0441959Y0281220D03*
X0445266Y0281772D03*
X0345215Y0351272D03*
X0345215Y0352610D03*
X0341908Y0352335D03*
D44*
X0342794Y0350720D03*
X0347400Y0352610D03*
X0441676Y0303445D03*
X0449944Y0304665D03*
X0449318Y0299055D03*
X0449672Y0298228D03*
X0449790Y0297638D03*
X0449644Y0289272D03*
D45*
X0447282Y0289055D03*
X0447282Y0290945D03*
X0446365Y0298445D03*
X0443648Y0298445D03*
X0444156Y0304528D03*
X0443329Y0305472D03*
X0442266Y0305000D03*
X0444983Y0305472D03*
X0446282Y0306417D03*
X0440483Y0283917D03*
X0441664Y0282028D03*
X0343503Y0352472D03*
X0342322Y0352472D03*
X0341613Y0352472D03*
X0341613Y0352000D03*
D46*
X0346692Y0352472D03*
D47*
X0346633Y0352335D03*
X0346633Y0352217D03*
X0346633Y0351665D03*
D48*
X0345215Y0351193D03*
X0343325Y0352138D03*
X0341672Y0352138D03*
X0441853Y0306280D03*
X0442207Y0304862D03*
X0443270Y0305728D03*
X0446223Y0305335D03*
X0446223Y0305217D03*
X0446306Y0298583D03*
X0447605Y0298228D03*
X0447605Y0296693D03*
X0443589Y0297165D03*
X0443589Y0298583D03*
X0447341Y0291083D03*
X0447341Y0288917D03*
X0446329Y0283780D03*
X0446329Y0283110D03*
X0446329Y0281772D03*
X0445266Y0281693D03*
X0443613Y0281693D03*
X0443613Y0283307D03*
X0441723Y0281890D03*
X0441723Y0281772D03*
D49*
X0346573Y0351783D03*
X0346573Y0351862D03*
X0346573Y0352138D03*
D50*
X0343266Y0352000D03*
X0437530Y0282500D03*
X0440247Y0282500D03*
X0443672Y0283445D03*
X0446270Y0283917D03*
X0443530Y0297028D03*
X0444156Y0304055D03*
X0443329Y0305945D03*
X0444983Y0305945D03*
X0446164Y0305000D03*
X0447581Y0304055D03*
D51*
X0346573Y0352000D03*
D52*
X0343503Y0351862D03*
X0442148Y0305728D03*
X0442148Y0305610D03*
X0443329Y0305217D03*
X0443329Y0305138D03*
X0444156Y0304862D03*
X0444156Y0304783D03*
X0444156Y0304665D03*
X0444983Y0305138D03*
X0444983Y0305217D03*
X0446365Y0298110D03*
X0446101Y0291280D03*
X0446101Y0291201D03*
X0446101Y0291083D03*
X0447164Y0290610D03*
X0447164Y0289272D03*
X0442912Y0291083D03*
X0440483Y0283780D03*
X0440483Y0283701D03*
X0440483Y0283583D03*
X0441546Y0282362D03*
X0441546Y0282283D03*
X0440483Y0281417D03*
X0440483Y0281339D03*
X0440483Y0281220D03*
X0437766Y0283583D03*
X0437766Y0283701D03*
X0437766Y0283780D03*
D53*
X0442550Y0282362D03*
X0447105Y0289390D03*
X0456278Y0339811D03*
X0456278Y0343945D03*
X0447133Y0359346D03*
X0447054Y0359346D03*
X0447723Y0360882D03*
X0448944Y0360882D03*
X0448117Y0366551D03*
X0438117Y0366579D03*
X0437723Y0360909D03*
X0438944Y0360909D03*
X0439613Y0359374D03*
X0358471Y0272217D03*
X0343562Y0351665D03*
X0343562Y0351783D03*
D54*
X0343562Y0351528D03*
X0441487Y0282500D03*
X0447105Y0290472D03*
X0443270Y0305000D03*
D55*
X0346633Y0351528D03*
D56*
X0346692Y0351390D03*
D57*
X0347341Y0351272D03*
X0342735Y0350839D03*
X0450003Y0304783D03*
X0450003Y0304390D03*
X0449731Y0298307D03*
X0449377Y0295945D03*
X0449703Y0290728D03*
X0449703Y0289193D03*
D58*
X0449644Y0290472D03*
X0342912Y0350583D03*
D59*
X0342971Y0350445D03*
X0449467Y0290138D03*
X0449467Y0289783D03*
D60*
X0444625Y0287657D03*
X0443325Y0291555D03*
X0444625Y0292343D03*
X0343444Y0350327D03*
D61*
X0343444Y0350012D03*
D62*
X0343444Y0349894D03*
D63*
X0386759Y0269398D03*
X0405184Y0269925D03*
X0405341Y0269925D03*
X0405499Y0269925D03*
X0405656Y0269925D03*
X0405814Y0269925D03*
X0405971Y0269925D03*
X0406129Y0269925D03*
X0406286Y0269925D03*
X0410538Y0269925D03*
X0410696Y0269925D03*
X0410853Y0269925D03*
X0411010Y0269925D03*
X0411168Y0269925D03*
X0411325Y0269925D03*
X0411483Y0269925D03*
D64*
X0410381Y0268587D03*
X0410223Y0271264D03*
X0410066Y0271264D03*
X0409908Y0271264D03*
X0409751Y0271264D03*
X0409593Y0271264D03*
X0409436Y0271264D03*
X0409278Y0271264D03*
X0409121Y0271264D03*
X0408963Y0271264D03*
X0408806Y0271264D03*
X0408648Y0271264D03*
X0408491Y0271264D03*
X0408333Y0271264D03*
X0408176Y0271264D03*
X0408018Y0271264D03*
X0407861Y0271264D03*
X0407703Y0271264D03*
X0407546Y0271264D03*
X0407388Y0271264D03*
X0407231Y0271264D03*
X0406444Y0268587D03*
X0406444Y0264492D03*
X0410223Y0264492D03*
X0410381Y0264492D03*
X0400381Y0264122D03*
X0399751Y0264122D03*
X0398806Y0264122D03*
X0397861Y0264122D03*
X0397703Y0264122D03*
X0397388Y0270264D03*
X0396444Y0277823D03*
X0400381Y0277665D03*
X0386286Y0274358D03*
X0387388Y0263965D03*
X0387546Y0263965D03*
X0387703Y0263965D03*
X0387861Y0263965D03*
X0388018Y0263965D03*
X0388176Y0263965D03*
X0388333Y0263965D03*
X0388491Y0263965D03*
X0388648Y0263965D03*
X0388806Y0263965D03*
X0388963Y0263965D03*
X0389121Y0263965D03*
X0389278Y0263965D03*
X0389436Y0263965D03*
X0389593Y0263965D03*
X0389751Y0263965D03*
X0389908Y0263965D03*
X0390066Y0263965D03*
X0390223Y0263965D03*
X0390381Y0263965D03*
X0390538Y0263965D03*
X0390696Y0263965D03*
X0380223Y0264335D03*
X0380066Y0264335D03*
X0379908Y0264335D03*
X0379751Y0264335D03*
X0379593Y0264335D03*
X0379436Y0264335D03*
X0379278Y0264335D03*
X0379121Y0264335D03*
X0378963Y0264335D03*
X0378806Y0264335D03*
X0378648Y0264335D03*
X0378491Y0264335D03*
X0378333Y0264335D03*
X0378176Y0264335D03*
X0378018Y0264335D03*
X0377861Y0264335D03*
X0377703Y0264335D03*
X0377546Y0264335D03*
X0377388Y0264335D03*
X0377231Y0264335D03*
X0377073Y0264335D03*
X0376916Y0264335D03*
X0376759Y0264335D03*
X0376601Y0264335D03*
X0376444Y0264335D03*
X0370223Y0263835D03*
X0370066Y0263835D03*
X0369908Y0263835D03*
X0369751Y0263835D03*
X0369593Y0263835D03*
X0369436Y0263835D03*
X0369278Y0263835D03*
X0369121Y0263835D03*
X0368963Y0263835D03*
X0368806Y0263835D03*
X0368648Y0263835D03*
X0368491Y0263835D03*
X0368333Y0263835D03*
X0368176Y0263835D03*
X0368018Y0263835D03*
X0367861Y0263835D03*
X0367703Y0263835D03*
X0367546Y0263835D03*
X0367388Y0263835D03*
X0367231Y0263835D03*
X0367073Y0263835D03*
X0366916Y0263835D03*
X0366759Y0263835D03*
X0366601Y0263835D03*
X0366444Y0263835D03*
X0368806Y0268559D03*
X0368963Y0268559D03*
X0369121Y0268559D03*
X0370381Y0268717D03*
X0370223Y0271394D03*
X0368648Y0275173D03*
X0368176Y0275173D03*
X0366759Y0276276D03*
X0369908Y0276276D03*
X0376916Y0275988D03*
X0376444Y0272051D03*
X0358806Y0269323D03*
X0357861Y0269323D03*
X0357861Y0266606D03*
X0358806Y0266606D03*
X0359278Y0266606D03*
X0397388Y0362335D03*
X0397546Y0362335D03*
X0397703Y0362335D03*
X0398963Y0362335D03*
X0399121Y0362335D03*
X0399278Y0362335D03*
X0400381Y0369106D03*
X0396444Y0369106D03*
X0397388Y0375720D03*
X0397546Y0375720D03*
X0399121Y0375720D03*
X0399278Y0375720D03*
X0406444Y0375654D03*
X0407231Y0375654D03*
X0407388Y0375654D03*
X0407073Y0372819D03*
X0406916Y0372819D03*
X0409751Y0371244D03*
X0409436Y0366992D03*
X0407703Y0366992D03*
X0407546Y0366992D03*
X0407388Y0366992D03*
X0407231Y0366992D03*
X0407073Y0366992D03*
X0406916Y0366992D03*
X0406759Y0366992D03*
X0417073Y0369291D03*
X0417861Y0371811D03*
X0417861Y0375433D03*
X0418018Y0375433D03*
X0418491Y0375433D03*
X0418648Y0375433D03*
X0419908Y0375433D03*
X0417073Y0375433D03*
X0416916Y0375433D03*
X0427703Y0375709D03*
X0427861Y0375709D03*
X0428018Y0375709D03*
X0428963Y0375709D03*
X0430381Y0375709D03*
X0426444Y0368307D03*
X0419908Y0362992D03*
X0418963Y0362992D03*
X0417546Y0362992D03*
X0417388Y0362992D03*
X0417231Y0362992D03*
X0417073Y0362992D03*
X0416916Y0362992D03*
X0439278Y0366638D03*
X0439751Y0366638D03*
X0448806Y0359051D03*
X0457861Y0367142D03*
X0460223Y0368087D03*
X0460223Y0375961D03*
X0460066Y0375961D03*
X0459908Y0375961D03*
X0459751Y0375961D03*
X0457073Y0375961D03*
X0456916Y0375961D03*
X0456759Y0375961D03*
X0456601Y0375961D03*
X0478333Y0360169D03*
X0478491Y0360169D03*
X0478806Y0350248D03*
X0476444Y0347413D03*
X0478176Y0340957D03*
X0478333Y0340957D03*
X0478491Y0340957D03*
X0476444Y0340327D03*
D65*
X0480381Y0361744D03*
X0459436Y0367929D03*
X0459278Y0367929D03*
X0457231Y0366197D03*
X0457388Y0371551D03*
X0456601Y0371551D03*
X0457073Y0373283D03*
X0459593Y0373283D03*
X0459278Y0371551D03*
X0428333Y0372244D03*
X0428176Y0373819D03*
X0417231Y0371496D03*
X0417073Y0371496D03*
X0416759Y0371654D03*
X0417388Y0367087D03*
X0417546Y0367087D03*
X0417073Y0366929D03*
X0416759Y0366772D03*
X0408806Y0369039D03*
X0406444Y0370614D03*
X0408333Y0372819D03*
X0408491Y0372819D03*
X0400223Y0371154D03*
X0399436Y0372728D03*
X0396444Y0371154D03*
X0397861Y0369579D03*
X0398963Y0368634D03*
X0398018Y0366902D03*
X0397231Y0366902D03*
X0397073Y0366902D03*
X0396916Y0366902D03*
X0396759Y0366902D03*
X0400066Y0366902D03*
X0378806Y0275673D03*
X0377231Y0273783D03*
X0377073Y0272209D03*
X0378176Y0272366D03*
X0378491Y0268587D03*
X0378648Y0268587D03*
X0377231Y0268587D03*
X0377073Y0268587D03*
X0369593Y0273598D03*
X0367073Y0273598D03*
X0366601Y0267614D03*
X0387388Y0269949D03*
X0387861Y0267587D03*
X0388963Y0267744D03*
X0389751Y0267587D03*
X0399121Y0267587D03*
X0399278Y0267587D03*
X0399436Y0270736D03*
X0399593Y0270736D03*
X0400696Y0270894D03*
X0407073Y0270634D03*
X0407861Y0269059D03*
X0408963Y0268114D03*
X0410223Y0266539D03*
X0410381Y0266539D03*
X0406601Y0266539D03*
X0406444Y0266539D03*
D66*
X0406759Y0266618D03*
X0406916Y0266618D03*
X0407073Y0266618D03*
X0407231Y0266618D03*
X0407388Y0266618D03*
X0407546Y0266618D03*
X0407703Y0266618D03*
X0407861Y0266618D03*
X0408018Y0266618D03*
X0408176Y0266618D03*
X0408333Y0266618D03*
X0408491Y0266618D03*
X0408648Y0266618D03*
X0408806Y0266618D03*
X0408963Y0266618D03*
X0409121Y0266618D03*
X0409278Y0266618D03*
X0409436Y0266618D03*
X0409593Y0266618D03*
X0409751Y0266618D03*
X0409908Y0266618D03*
X0410066Y0266618D03*
X0408806Y0268035D03*
X0408648Y0268035D03*
X0408018Y0269138D03*
X0406916Y0270555D03*
X0406759Y0270555D03*
X0406601Y0270555D03*
X0406444Y0270555D03*
X0399908Y0270815D03*
X0399751Y0270815D03*
X0399278Y0269083D03*
X0399121Y0269083D03*
X0399436Y0267508D03*
X0399593Y0267508D03*
X0400538Y0267193D03*
X0397388Y0273965D03*
X0390538Y0267823D03*
X0388806Y0267665D03*
X0378333Y0268665D03*
X0378176Y0268665D03*
X0378018Y0268665D03*
X0377861Y0268665D03*
X0377703Y0268665D03*
X0377546Y0268665D03*
X0377388Y0268665D03*
X0377388Y0272130D03*
X0377231Y0272130D03*
X0377861Y0272287D03*
X0378018Y0272287D03*
X0369436Y0273520D03*
X0367388Y0273520D03*
X0367231Y0273520D03*
X0367073Y0271945D03*
X0366444Y0272102D03*
X0366759Y0267693D03*
X0358806Y0271331D03*
X0356916Y0270150D03*
X0398176Y0366980D03*
X0398333Y0366980D03*
X0398491Y0366980D03*
X0398648Y0366980D03*
X0398806Y0366980D03*
X0398963Y0366980D03*
X0399121Y0366980D03*
X0399278Y0366980D03*
X0399436Y0366980D03*
X0399593Y0366980D03*
X0399751Y0366980D03*
X0399908Y0366980D03*
X0398806Y0368555D03*
X0398176Y0369657D03*
X0398018Y0369657D03*
X0398018Y0371075D03*
X0397861Y0371075D03*
X0397703Y0371075D03*
X0397546Y0371075D03*
X0397388Y0371075D03*
X0397231Y0371075D03*
X0397073Y0371075D03*
X0396916Y0371075D03*
X0396759Y0371075D03*
X0396601Y0371075D03*
X0398176Y0371075D03*
X0398333Y0371075D03*
X0398491Y0371075D03*
X0398648Y0371075D03*
X0398806Y0371075D03*
X0398963Y0371075D03*
X0399121Y0371075D03*
X0399278Y0371075D03*
X0399436Y0371075D03*
X0399593Y0371075D03*
X0399751Y0371075D03*
X0399908Y0371075D03*
X0400066Y0371075D03*
X0406601Y0370535D03*
X0406759Y0370535D03*
X0406916Y0370535D03*
X0407073Y0370535D03*
X0416916Y0371575D03*
X0418491Y0369213D03*
X0418648Y0369213D03*
X0417231Y0367008D03*
X0416916Y0366850D03*
X0427703Y0372480D03*
X0427861Y0372480D03*
X0428176Y0372323D03*
X0429908Y0372323D03*
X0430381Y0372480D03*
X0438333Y0374197D03*
X0439278Y0371598D03*
X0438806Y0365929D03*
X0437388Y0364748D03*
X0437388Y0359315D03*
X0448806Y0365902D03*
X0448806Y0367201D03*
X0449751Y0368382D03*
X0446916Y0368382D03*
X0449278Y0362476D03*
X0458333Y0367693D03*
X0458491Y0367693D03*
X0458806Y0367850D03*
X0458963Y0367850D03*
X0459121Y0367850D03*
X0459436Y0371630D03*
X0459593Y0371630D03*
X0460066Y0371630D03*
X0459436Y0373205D03*
X0457388Y0373205D03*
X0457231Y0373205D03*
X0457231Y0371630D03*
X0456759Y0371630D03*
X0476286Y0361823D03*
X0477388Y0348122D03*
X0479121Y0346390D03*
D67*
X0478648Y0341035D03*
X0480381Y0340406D03*
X0456601Y0368165D03*
X0430223Y0375787D03*
X0430066Y0375787D03*
X0429278Y0375787D03*
X0429121Y0375787D03*
X0426601Y0375787D03*
X0425814Y0375787D03*
X0419751Y0375512D03*
X0419593Y0375512D03*
X0419436Y0375512D03*
X0419278Y0375512D03*
X0419121Y0375512D03*
X0418963Y0375512D03*
X0418806Y0375512D03*
X0417703Y0375512D03*
X0417546Y0375512D03*
X0417388Y0375512D03*
X0417231Y0375512D03*
X0419593Y0370787D03*
X0419751Y0370787D03*
X0417231Y0369213D03*
X0419593Y0367638D03*
X0419751Y0367638D03*
X0419751Y0362913D03*
X0419593Y0362913D03*
X0419436Y0362913D03*
X0419278Y0362913D03*
X0419121Y0362913D03*
X0426286Y0368386D03*
X0410066Y0366913D03*
X0409908Y0366913D03*
X0409593Y0366913D03*
X0408648Y0366913D03*
X0408491Y0366913D03*
X0408333Y0366913D03*
X0408176Y0366913D03*
X0408018Y0366913D03*
X0407861Y0366913D03*
X0409593Y0371165D03*
X0407231Y0372898D03*
X0407073Y0375732D03*
X0406916Y0375732D03*
X0406601Y0375732D03*
X0398963Y0375799D03*
X0398806Y0375799D03*
X0398648Y0375799D03*
X0398491Y0375799D03*
X0398333Y0375799D03*
X0398176Y0375799D03*
X0398018Y0375799D03*
X0397861Y0375799D03*
X0397703Y0375799D03*
X0400223Y0369028D03*
X0398806Y0362256D03*
X0398648Y0362256D03*
X0398491Y0362256D03*
X0398333Y0362256D03*
X0398176Y0362256D03*
X0398018Y0362256D03*
X0397861Y0362256D03*
X0396286Y0277744D03*
X0400538Y0277587D03*
X0406444Y0275437D03*
X0407073Y0275437D03*
X0400538Y0269083D03*
X0400381Y0269083D03*
X0397546Y0267823D03*
X0398018Y0264043D03*
X0398176Y0264043D03*
X0398333Y0264043D03*
X0398491Y0264043D03*
X0398648Y0264043D03*
X0399908Y0264043D03*
X0400066Y0264043D03*
X0400223Y0264043D03*
X0396601Y0264043D03*
X0395814Y0264043D03*
X0387388Y0267508D03*
X0388806Y0270500D03*
X0386129Y0274280D03*
X0379751Y0276067D03*
X0377388Y0275594D03*
X0377231Y0275752D03*
X0377073Y0275909D03*
X0379278Y0271657D03*
X0379278Y0268035D03*
X0385814Y0263886D03*
X0386601Y0263886D03*
X0369593Y0268638D03*
X0369436Y0268638D03*
X0369278Y0268638D03*
X0368648Y0268638D03*
X0368491Y0268638D03*
X0367231Y0268638D03*
X0367231Y0271315D03*
X0367388Y0271315D03*
X0367546Y0271315D03*
X0367703Y0271315D03*
X0367861Y0271315D03*
X0368018Y0271315D03*
X0368176Y0271315D03*
X0368333Y0271315D03*
X0368491Y0271315D03*
X0368648Y0271315D03*
X0368806Y0271315D03*
X0368963Y0271315D03*
X0369121Y0271315D03*
X0369278Y0271315D03*
X0369436Y0271315D03*
X0369593Y0271315D03*
X0369751Y0271315D03*
X0369908Y0271315D03*
X0370066Y0271315D03*
X0368806Y0275252D03*
X0368963Y0275409D03*
X0369121Y0275567D03*
X0369278Y0275724D03*
X0369436Y0275882D03*
X0369593Y0276039D03*
X0369751Y0276197D03*
X0368018Y0275252D03*
X0366916Y0276197D03*
X0406601Y0264413D03*
X0406759Y0264413D03*
X0406916Y0264413D03*
X0407073Y0264413D03*
X0407231Y0264413D03*
X0407388Y0264413D03*
X0407546Y0264413D03*
X0407703Y0264413D03*
X0407861Y0264413D03*
X0408018Y0264413D03*
X0408176Y0264413D03*
X0408333Y0264413D03*
X0408491Y0264413D03*
X0408648Y0264413D03*
X0408806Y0264413D03*
X0408963Y0264413D03*
X0409121Y0264413D03*
X0409278Y0264413D03*
X0409436Y0264413D03*
X0409593Y0264413D03*
X0409751Y0264413D03*
X0409908Y0264413D03*
X0410066Y0264413D03*
D68*
X0410223Y0268587D03*
X0406601Y0268587D03*
X0406601Y0275516D03*
X0406759Y0275516D03*
X0406916Y0275516D03*
X0400696Y0277508D03*
X0396129Y0277665D03*
X0395814Y0277350D03*
X0397546Y0270264D03*
X0397703Y0270264D03*
X0397703Y0267902D03*
X0396444Y0263965D03*
X0396286Y0263965D03*
X0396129Y0263965D03*
X0395971Y0263965D03*
X0390538Y0270579D03*
X0388176Y0270579D03*
X0385814Y0274043D03*
X0385971Y0274201D03*
X0379593Y0275988D03*
X0378018Y0275201D03*
X0378648Y0272524D03*
X0385971Y0263807D03*
X0386129Y0263807D03*
X0386286Y0263807D03*
X0386444Y0263807D03*
X0370381Y0266354D03*
X0370223Y0268717D03*
X0370066Y0268717D03*
X0369908Y0268717D03*
X0369751Y0268717D03*
X0368333Y0268717D03*
X0368176Y0268717D03*
X0368018Y0268717D03*
X0367861Y0268717D03*
X0367703Y0268717D03*
X0367546Y0268717D03*
X0367388Y0268717D03*
X0367861Y0275331D03*
X0367703Y0275488D03*
X0367546Y0275646D03*
X0367388Y0275803D03*
X0367231Y0275961D03*
X0367073Y0276118D03*
X0398806Y0365012D03*
X0398963Y0365012D03*
X0396601Y0369106D03*
X0398018Y0373201D03*
X0398176Y0373201D03*
X0398333Y0373201D03*
X0398491Y0373201D03*
X0398648Y0373201D03*
X0406759Y0375811D03*
X0407388Y0372819D03*
X0407861Y0370457D03*
X0409436Y0371244D03*
X0409751Y0366835D03*
X0417388Y0369291D03*
X0418963Y0371024D03*
X0419278Y0370866D03*
X0419436Y0370866D03*
X0419436Y0367559D03*
X0419278Y0367559D03*
X0418333Y0367087D03*
X0426129Y0368465D03*
X0427388Y0372402D03*
X0430696Y0372402D03*
X0429908Y0375866D03*
X0429751Y0375866D03*
X0429593Y0375866D03*
X0429436Y0375866D03*
X0426444Y0375866D03*
X0426286Y0375866D03*
X0426129Y0375866D03*
X0425971Y0375866D03*
X0457546Y0370134D03*
X0460066Y0368087D03*
X0478806Y0348043D03*
X0476286Y0343476D03*
X0478018Y0340957D03*
X0478806Y0341114D03*
X0479436Y0339224D03*
D69*
X0477388Y0339146D03*
X0477861Y0346705D03*
X0480381Y0347335D03*
X0476286Y0352846D03*
X0477703Y0361035D03*
X0477546Y0361193D03*
X0477388Y0361350D03*
X0477231Y0361508D03*
X0477073Y0361508D03*
X0476916Y0361665D03*
X0479121Y0361035D03*
X0479278Y0361193D03*
X0479436Y0361350D03*
X0479593Y0361508D03*
X0479751Y0361665D03*
X0459278Y0370055D03*
X0460381Y0373520D03*
X0456444Y0373520D03*
X0449751Y0372161D03*
X0448806Y0373579D03*
X0439751Y0371598D03*
X0438806Y0370063D03*
X0439278Y0364276D03*
X0437388Y0362976D03*
X0447388Y0362949D03*
X0449278Y0358815D03*
X0457361Y0342350D03*
X0429751Y0371063D03*
X0425971Y0368543D03*
X0419121Y0367480D03*
X0418963Y0367480D03*
X0418648Y0367323D03*
X0417546Y0369213D03*
X0419121Y0370945D03*
X0409278Y0371165D03*
X0409121Y0371165D03*
X0408018Y0370535D03*
X0407546Y0372898D03*
X0400066Y0369028D03*
X0396916Y0369185D03*
X0396759Y0369185D03*
X0397861Y0373122D03*
X0398806Y0373122D03*
X0398963Y0373122D03*
X0399121Y0365091D03*
X0395971Y0277587D03*
X0397861Y0270343D03*
X0398018Y0270343D03*
X0400066Y0269083D03*
X0400223Y0269083D03*
X0398176Y0267665D03*
X0398018Y0267823D03*
X0397861Y0267823D03*
X0390381Y0270657D03*
X0388963Y0270657D03*
X0388018Y0270657D03*
X0379121Y0271972D03*
X0379121Y0273705D03*
X0376601Y0272130D03*
X0376444Y0268193D03*
X0370381Y0273835D03*
X0366444Y0273835D03*
X0359751Y0264244D03*
X0359278Y0264244D03*
X0358806Y0264244D03*
X0358333Y0264244D03*
X0357861Y0264244D03*
X0357388Y0264244D03*
X0356916Y0264244D03*
X0356916Y0271685D03*
X0406759Y0268665D03*
X0409908Y0268508D03*
X0410066Y0268508D03*
D70*
X0409751Y0268429D03*
X0407073Y0268744D03*
X0406916Y0268744D03*
X0398806Y0267429D03*
X0398333Y0270421D03*
X0398176Y0270421D03*
X0390696Y0266169D03*
X0389278Y0267902D03*
X0389278Y0270736D03*
X0389121Y0270736D03*
X0389436Y0270736D03*
X0389593Y0270736D03*
X0389751Y0270736D03*
X0389908Y0270736D03*
X0390066Y0270736D03*
X0390223Y0270736D03*
X0379121Y0268272D03*
X0378018Y0266854D03*
X0377861Y0266854D03*
X0377703Y0266854D03*
X0377546Y0266854D03*
X0377703Y0270476D03*
X0377861Y0270476D03*
X0379436Y0275988D03*
X0370223Y0273756D03*
X0366601Y0273756D03*
X0367546Y0266354D03*
X0367703Y0266354D03*
X0367861Y0266354D03*
X0368018Y0266354D03*
X0369908Y0266354D03*
X0370066Y0266354D03*
X0370223Y0266354D03*
X0399278Y0365169D03*
X0400381Y0366744D03*
X0399908Y0368949D03*
X0399751Y0368949D03*
X0397073Y0369264D03*
X0396444Y0366744D03*
X0397703Y0373043D03*
X0399121Y0373043D03*
X0407703Y0372819D03*
X0407861Y0372819D03*
X0408806Y0371087D03*
X0408963Y0371087D03*
X0408648Y0370929D03*
X0408491Y0370929D03*
X0408333Y0370772D03*
X0408176Y0370772D03*
X0417703Y0371496D03*
X0418963Y0373071D03*
X0417703Y0369291D03*
X0418806Y0367402D03*
X0418491Y0367244D03*
X0418176Y0367087D03*
X0418963Y0365197D03*
X0425814Y0368622D03*
X0428333Y0371142D03*
X0456601Y0373441D03*
X0460223Y0373441D03*
X0460381Y0371394D03*
X0456759Y0368087D03*
X0459121Y0366039D03*
X0476759Y0361744D03*
X0479908Y0361744D03*
X0479751Y0354343D03*
X0479436Y0354185D03*
X0478176Y0354343D03*
X0477388Y0354343D03*
X0478963Y0348358D03*
X0479436Y0346469D03*
X0477388Y0344894D03*
X0477546Y0338909D03*
X0477703Y0338909D03*
X0479121Y0338909D03*
X0479278Y0339067D03*
D71*
X0478963Y0338831D03*
X0478806Y0338831D03*
X0478648Y0338831D03*
X0478333Y0338673D03*
X0478018Y0338831D03*
X0477861Y0338831D03*
X0476286Y0340406D03*
X0477388Y0342925D03*
X0477546Y0342925D03*
X0477703Y0342925D03*
X0477861Y0342925D03*
X0478018Y0342925D03*
X0478176Y0342925D03*
X0479436Y0342925D03*
X0479593Y0342925D03*
X0479751Y0342925D03*
X0479908Y0342925D03*
X0480066Y0342925D03*
X0479436Y0341350D03*
X0479278Y0341350D03*
X0479121Y0341350D03*
X0478963Y0341350D03*
X0478176Y0344972D03*
X0477861Y0345130D03*
X0477703Y0345130D03*
X0477546Y0344972D03*
X0477546Y0346390D03*
X0477703Y0346547D03*
X0477231Y0346547D03*
X0476286Y0347335D03*
X0479121Y0348437D03*
X0479278Y0348437D03*
X0479436Y0348280D03*
X0479436Y0352217D03*
X0479593Y0352217D03*
X0479751Y0352217D03*
X0479908Y0352217D03*
X0480066Y0352217D03*
X0480223Y0352217D03*
X0478176Y0352217D03*
X0478018Y0352217D03*
X0477861Y0352217D03*
X0477703Y0352217D03*
X0477546Y0352217D03*
X0477388Y0352217D03*
X0477546Y0354421D03*
X0477703Y0354421D03*
X0477861Y0354421D03*
X0478018Y0354421D03*
X0479593Y0354264D03*
X0479908Y0354421D03*
X0480066Y0354421D03*
X0479908Y0356941D03*
X0479751Y0356941D03*
X0479593Y0356941D03*
X0479436Y0356941D03*
X0479278Y0356941D03*
X0479121Y0356941D03*
X0478963Y0356941D03*
X0478806Y0356941D03*
X0478648Y0356941D03*
X0478491Y0356941D03*
X0478333Y0356941D03*
X0478176Y0356941D03*
X0478018Y0356941D03*
X0477861Y0356941D03*
X0477703Y0356941D03*
X0477546Y0356941D03*
X0477388Y0356941D03*
X0477231Y0356941D03*
X0476601Y0361823D03*
X0480066Y0361823D03*
X0459908Y0368008D03*
X0458018Y0367378D03*
X0457388Y0367693D03*
X0457073Y0367850D03*
X0456916Y0368008D03*
X0457388Y0370055D03*
X0456444Y0371472D03*
X0459278Y0366118D03*
X0419278Y0365276D03*
X0419121Y0365276D03*
X0417703Y0365118D03*
X0417546Y0365276D03*
X0416444Y0366693D03*
X0418018Y0367165D03*
X0418018Y0369213D03*
X0417861Y0369213D03*
X0416444Y0371732D03*
X0417703Y0372992D03*
X0417546Y0373150D03*
X0419121Y0373150D03*
X0419278Y0373150D03*
X0409278Y0368961D03*
X0399593Y0368870D03*
X0397231Y0369343D03*
X0397546Y0372965D03*
X0399278Y0372965D03*
X0397388Y0365248D03*
X0398018Y0364618D03*
X0379278Y0275909D03*
X0378176Y0275437D03*
X0379278Y0273862D03*
X0378491Y0272445D03*
X0376759Y0272130D03*
X0377546Y0270398D03*
X0378018Y0270398D03*
X0378176Y0270398D03*
X0376601Y0268350D03*
X0378176Y0266776D03*
X0387546Y0267508D03*
X0390696Y0267823D03*
X0390538Y0266248D03*
X0398491Y0270500D03*
X0398648Y0270500D03*
X0407231Y0268823D03*
X0409593Y0268350D03*
X0369751Y0266276D03*
X0369593Y0266276D03*
X0368176Y0266276D03*
D72*
X0380381Y0275988D03*
X0387703Y0274988D03*
X0390381Y0273728D03*
X0397703Y0278295D03*
X0407231Y0274728D03*
X0407388Y0274728D03*
X0407546Y0274728D03*
X0407703Y0274728D03*
X0407861Y0274728D03*
X0408018Y0274728D03*
X0408176Y0274728D03*
X0408333Y0274728D03*
X0408491Y0274728D03*
X0408648Y0274728D03*
X0408806Y0274728D03*
X0408963Y0274728D03*
X0409121Y0274728D03*
X0409278Y0274728D03*
X0409436Y0274728D03*
X0409593Y0274728D03*
X0409751Y0274728D03*
X0409908Y0274728D03*
X0410066Y0274728D03*
X0410223Y0274728D03*
X0399436Y0264752D03*
X0477073Y0340169D03*
X0479751Y0340327D03*
X0478491Y0343949D03*
X0478333Y0343949D03*
X0477231Y0343949D03*
X0477231Y0353240D03*
X0477073Y0353240D03*
X0478333Y0353240D03*
X0478491Y0353240D03*
X0460066Y0363362D03*
X0459908Y0363205D03*
X0459751Y0363205D03*
X0459593Y0363047D03*
X0458491Y0375331D03*
X0458333Y0375331D03*
X0429278Y0371772D03*
X0428491Y0375079D03*
X0428806Y0367677D03*
X0409908Y0375024D03*
X0409751Y0375024D03*
X0400381Y0362965D03*
D73*
X0398648Y0364539D03*
X0398491Y0364539D03*
X0398333Y0364539D03*
X0398176Y0364539D03*
X0400223Y0366902D03*
X0399436Y0368791D03*
X0397546Y0369421D03*
X0397388Y0369421D03*
X0397388Y0372886D03*
X0408018Y0372819D03*
X0408176Y0372819D03*
X0417861Y0367087D03*
X0427546Y0372402D03*
X0429751Y0373661D03*
X0438333Y0364512D03*
X0436916Y0359079D03*
X0437861Y0358016D03*
X0457388Y0366197D03*
X0457231Y0367772D03*
X0459436Y0366197D03*
X0460223Y0371551D03*
X0460066Y0373441D03*
X0459908Y0373441D03*
X0456759Y0373441D03*
X0476444Y0359697D03*
X0476601Y0359697D03*
X0476759Y0359697D03*
X0476916Y0359697D03*
X0477073Y0359697D03*
X0477231Y0359697D03*
X0477388Y0359697D03*
X0477546Y0359697D03*
X0477703Y0359697D03*
X0479121Y0359697D03*
X0479278Y0359697D03*
X0479436Y0359697D03*
X0479593Y0359697D03*
X0479751Y0359697D03*
X0479908Y0359697D03*
X0480066Y0359697D03*
X0480223Y0359697D03*
X0480223Y0361902D03*
X0480223Y0356862D03*
X0480066Y0356862D03*
X0480223Y0354500D03*
X0477231Y0348043D03*
X0477388Y0346469D03*
X0478018Y0345051D03*
X0480223Y0342846D03*
X0478491Y0338752D03*
X0478176Y0338752D03*
X0457833Y0340343D03*
X0457833Y0342941D03*
X0409436Y0268272D03*
X0409278Y0268272D03*
X0407388Y0268902D03*
X0400696Y0267114D03*
X0399751Y0266012D03*
X0398963Y0267587D03*
X0398963Y0270579D03*
X0398806Y0270579D03*
X0398648Y0273571D03*
X0399436Y0273571D03*
X0390381Y0266169D03*
X0390223Y0266169D03*
X0388806Y0266169D03*
X0388648Y0266169D03*
X0388491Y0266169D03*
X0388333Y0266169D03*
X0389751Y0268846D03*
X0378963Y0268429D03*
X0376759Y0268429D03*
X0377388Y0266697D03*
X0377388Y0270319D03*
X0378333Y0275516D03*
X0379121Y0275831D03*
X0370066Y0273756D03*
X0369908Y0273756D03*
X0366759Y0273756D03*
X0367388Y0266197D03*
X0369436Y0266197D03*
X0357388Y0271803D03*
X0358333Y0278654D03*
D74*
X0366916Y0273677D03*
X0369751Y0273677D03*
X0366444Y0267535D03*
X0376916Y0268508D03*
X0378806Y0268508D03*
X0378333Y0272287D03*
X0376916Y0272130D03*
X0377388Y0273862D03*
X0379436Y0273862D03*
X0378648Y0275594D03*
X0378491Y0275594D03*
X0378963Y0275752D03*
X0388176Y0268925D03*
X0389121Y0267823D03*
X0389908Y0268925D03*
X0387703Y0267508D03*
X0388176Y0266091D03*
X0388963Y0266091D03*
X0389908Y0266091D03*
X0390066Y0266091D03*
X0398176Y0266091D03*
X0399908Y0266091D03*
X0399278Y0270657D03*
X0399121Y0270657D03*
X0399121Y0273650D03*
X0399278Y0273650D03*
X0398963Y0273650D03*
X0398806Y0273650D03*
X0407546Y0268980D03*
X0407703Y0268980D03*
X0409121Y0268193D03*
X0477388Y0341193D03*
X0480381Y0342925D03*
X0479278Y0346390D03*
X0480381Y0352217D03*
X0480381Y0354421D03*
X0480381Y0356941D03*
X0480381Y0359618D03*
X0476444Y0361823D03*
X0459751Y0368008D03*
X0459593Y0368008D03*
X0458176Y0367535D03*
X0459436Y0370055D03*
X0457546Y0371472D03*
X0456916Y0373362D03*
X0459751Y0373362D03*
X0430538Y0372480D03*
X0429751Y0372323D03*
X0429908Y0371063D03*
X0428176Y0371063D03*
X0429908Y0373740D03*
X0419436Y0373150D03*
X0417388Y0373150D03*
X0416601Y0371732D03*
X0417388Y0371417D03*
X0417546Y0371417D03*
X0418176Y0369213D03*
X0418333Y0369213D03*
X0417703Y0367165D03*
X0416601Y0366693D03*
X0417388Y0365276D03*
X0419436Y0365276D03*
X0409436Y0368961D03*
X0407231Y0370535D03*
X0400381Y0371075D03*
X0399278Y0368713D03*
X0399121Y0368713D03*
X0397703Y0369500D03*
X0397388Y0366823D03*
X0396601Y0366823D03*
X0399436Y0365248D03*
D75*
X0398648Y0368476D03*
X0398491Y0368476D03*
X0398333Y0369736D03*
X0408648Y0372819D03*
X0408806Y0372819D03*
X0417231Y0373228D03*
X0417231Y0365354D03*
X0428018Y0372402D03*
X0430066Y0372402D03*
X0430223Y0372402D03*
X0456916Y0371709D03*
X0457073Y0371709D03*
X0457546Y0373126D03*
X0459278Y0373126D03*
X0459751Y0371709D03*
X0459908Y0371709D03*
X0458648Y0367772D03*
X0476286Y0359697D03*
X0480538Y0347413D03*
X0480538Y0340327D03*
X0408333Y0269217D03*
X0408176Y0269217D03*
X0408491Y0267957D03*
X0400381Y0267272D03*
X0399908Y0267429D03*
X0399751Y0267429D03*
X0400066Y0270894D03*
X0400223Y0270894D03*
X0400381Y0270894D03*
X0400538Y0270894D03*
X0398018Y0273886D03*
X0397861Y0273886D03*
X0397703Y0273886D03*
X0397546Y0273886D03*
X0390381Y0267744D03*
X0390223Y0267587D03*
X0390066Y0267587D03*
X0389908Y0267587D03*
X0388648Y0267587D03*
X0388491Y0267587D03*
X0388333Y0267587D03*
X0388176Y0267587D03*
X0388018Y0267587D03*
X0387546Y0269949D03*
X0387861Y0270106D03*
X0377703Y0272209D03*
X0377546Y0272209D03*
X0369278Y0273441D03*
X0367546Y0273441D03*
X0366916Y0272024D03*
X0366759Y0272024D03*
X0366601Y0272024D03*
X0367073Y0267929D03*
X0366916Y0267772D03*
D76*
X0367703Y0273362D03*
X0369121Y0273362D03*
X0387703Y0270028D03*
X0398806Y0269083D03*
X0398963Y0269083D03*
X0400066Y0267350D03*
X0400223Y0267350D03*
X0408333Y0267878D03*
X0408491Y0269295D03*
X0477546Y0341193D03*
X0459121Y0373047D03*
X0457703Y0373047D03*
X0418963Y0369213D03*
X0418806Y0369213D03*
X0398491Y0369815D03*
X0398333Y0368398D03*
D77*
X0397073Y0362492D03*
X0396916Y0362492D03*
X0399751Y0362492D03*
X0407546Y0369984D03*
X0407703Y0369984D03*
X0410066Y0371244D03*
X0406759Y0372819D03*
X0406601Y0372819D03*
X0406286Y0375496D03*
X0407861Y0375496D03*
X0408018Y0375496D03*
X0399751Y0375563D03*
X0397073Y0375563D03*
X0410381Y0367150D03*
X0416601Y0363150D03*
X0417703Y0363150D03*
X0420223Y0363150D03*
X0420066Y0367559D03*
X0420066Y0370866D03*
X0418491Y0371654D03*
X0418333Y0371654D03*
X0418333Y0375276D03*
X0416601Y0375276D03*
X0420223Y0375276D03*
X0427388Y0375551D03*
X0428806Y0375551D03*
X0428491Y0371457D03*
X0456286Y0375803D03*
X0457388Y0375803D03*
X0459436Y0375803D03*
X0457703Y0366984D03*
X0478018Y0360327D03*
X0478806Y0360327D03*
X0476444Y0352925D03*
X0478963Y0350248D03*
X0479121Y0350248D03*
X0479278Y0350248D03*
X0479436Y0350248D03*
X0476601Y0347413D03*
X0410381Y0271264D03*
X0400538Y0272941D03*
X0400381Y0272941D03*
X0400223Y0272941D03*
X0400066Y0272941D03*
X0399908Y0272941D03*
X0399751Y0272941D03*
X0399593Y0272941D03*
X0398491Y0272941D03*
X0398333Y0272941D03*
X0400066Y0277823D03*
X0399121Y0264280D03*
X0378806Y0272681D03*
X0377861Y0274886D03*
X0380066Y0276146D03*
X0370223Y0276433D03*
D78*
X0376286Y0275909D03*
X0387861Y0275067D03*
X0390223Y0273807D03*
X0397861Y0278374D03*
X0398018Y0278374D03*
X0410381Y0274650D03*
X0399593Y0264831D03*
X0477231Y0340091D03*
X0479593Y0340248D03*
X0459436Y0363126D03*
X0459278Y0363126D03*
X0457388Y0363126D03*
X0457231Y0363126D03*
X0457073Y0363126D03*
X0456916Y0363283D03*
X0456759Y0363283D03*
X0456601Y0363441D03*
X0456286Y0368165D03*
X0428648Y0367756D03*
X0428491Y0367756D03*
X0428333Y0367756D03*
X0428333Y0375000D03*
X0410223Y0374945D03*
X0410066Y0374945D03*
X0408963Y0367701D03*
X0400381Y0375012D03*
X0396286Y0363043D03*
D79*
X0396286Y0371154D03*
X0391483Y0268531D03*
X0385184Y0268531D03*
D80*
X0385341Y0268610D03*
X0391325Y0268610D03*
D81*
X0391168Y0268768D03*
X0385499Y0268768D03*
D82*
X0385656Y0268846D03*
X0391010Y0268846D03*
D83*
X0389593Y0268295D03*
X0389436Y0268138D03*
X0390696Y0270500D03*
X0386444Y0274437D03*
X0379908Y0276067D03*
X0376759Y0276067D03*
X0370066Y0276354D03*
X0368491Y0275094D03*
X0368333Y0275094D03*
X0366601Y0276354D03*
X0370381Y0271315D03*
X0370381Y0263913D03*
X0380381Y0264413D03*
X0397546Y0264201D03*
X0398963Y0264201D03*
X0400538Y0264201D03*
X0398648Y0267193D03*
X0397388Y0267823D03*
X0400696Y0269083D03*
X0398176Y0273020D03*
X0400223Y0277744D03*
X0399593Y0362413D03*
X0399436Y0362413D03*
X0397231Y0362413D03*
X0406444Y0367071D03*
X0406601Y0367071D03*
X0408806Y0367071D03*
X0409278Y0367071D03*
X0410223Y0367071D03*
X0407388Y0369906D03*
X0409908Y0371165D03*
X0407703Y0375575D03*
X0407546Y0375575D03*
X0399593Y0375642D03*
X0399436Y0375642D03*
X0397231Y0375642D03*
X0416759Y0375354D03*
X0418176Y0375354D03*
X0420066Y0375354D03*
X0418176Y0371732D03*
X0418018Y0371732D03*
X0419908Y0370787D03*
X0419908Y0367638D03*
X0416916Y0369213D03*
X0416759Y0369213D03*
X0416759Y0363071D03*
X0420066Y0363071D03*
X0426601Y0368228D03*
X0427546Y0375630D03*
X0428176Y0375630D03*
X0430538Y0375630D03*
X0456444Y0375882D03*
X0457231Y0375882D03*
X0459593Y0375882D03*
X0460381Y0375882D03*
X0478176Y0360248D03*
X0478648Y0360248D03*
X0479593Y0350327D03*
X0478648Y0347807D03*
X0478018Y0347020D03*
X0480223Y0347335D03*
X0479278Y0343398D03*
D84*
X0476444Y0343555D03*
X0478176Y0347335D03*
X0478333Y0347492D03*
X0478491Y0347650D03*
X0480066Y0347335D03*
X0480223Y0340406D03*
X0478963Y0360406D03*
X0477861Y0360406D03*
X0457546Y0366906D03*
X0456444Y0368165D03*
X0457546Y0375724D03*
X0459278Y0375724D03*
X0438806Y0355654D03*
X0437861Y0355654D03*
X0430066Y0368386D03*
X0430223Y0368543D03*
X0430381Y0368701D03*
X0430696Y0375472D03*
X0418648Y0371575D03*
X0416601Y0369213D03*
X0416444Y0369213D03*
X0416444Y0375197D03*
X0410223Y0371165D03*
X0408333Y0375417D03*
X0408176Y0375417D03*
X0399908Y0375484D03*
X0396916Y0375484D03*
X0399908Y0362571D03*
X0416444Y0363228D03*
X0396601Y0277744D03*
X0400696Y0273020D03*
X0398491Y0267035D03*
X0397388Y0264358D03*
X0400696Y0264358D03*
X0388648Y0270185D03*
X0386601Y0274437D03*
X0376601Y0276067D03*
X0366444Y0276354D03*
D85*
X0386916Y0269476D03*
D86*
X0387073Y0269555D03*
D87*
X0387231Y0269634D03*
X0455184Y0370291D03*
X0461483Y0370291D03*
D88*
X0458648Y0375409D03*
X0458176Y0375409D03*
X0476916Y0353161D03*
X0478648Y0353161D03*
X0478806Y0353161D03*
X0479121Y0353161D03*
X0479278Y0353161D03*
X0479593Y0347335D03*
X0479751Y0347335D03*
X0478648Y0343870D03*
X0477073Y0343870D03*
X0476916Y0343870D03*
X0476916Y0340248D03*
X0479908Y0340406D03*
X0428963Y0367756D03*
X0429121Y0371535D03*
X0420381Y0370945D03*
X0418806Y0371890D03*
X0420381Y0367480D03*
X0409593Y0375102D03*
X0409436Y0375102D03*
X0397861Y0365720D03*
X0397703Y0365720D03*
X0396444Y0362886D03*
X0396444Y0375169D03*
X0397388Y0278217D03*
X0397546Y0278217D03*
X0390538Y0273650D03*
X0387546Y0274909D03*
X0387388Y0274909D03*
X0380223Y0271343D03*
X0380381Y0267563D03*
X0377546Y0274807D03*
D89*
X0388018Y0274516D03*
X0388963Y0274358D03*
X0399751Y0277035D03*
D90*
X0399593Y0277114D03*
X0388806Y0274437D03*
X0388648Y0274437D03*
X0388491Y0274437D03*
X0388333Y0274437D03*
X0388176Y0274437D03*
D91*
X0390696Y0273571D03*
X0388333Y0269949D03*
X0380066Y0271264D03*
X0378963Y0272839D03*
X0400223Y0362807D03*
X0397546Y0365799D03*
X0400223Y0375248D03*
X0406286Y0372819D03*
X0409121Y0375181D03*
X0409278Y0375181D03*
X0410381Y0371087D03*
X0416286Y0374961D03*
X0416286Y0363465D03*
X0417861Y0363465D03*
X0418018Y0363465D03*
X0418176Y0363465D03*
X0418333Y0363465D03*
X0418491Y0363465D03*
X0418648Y0363465D03*
X0429121Y0367835D03*
X0429278Y0367835D03*
X0429436Y0367992D03*
X0428963Y0371457D03*
X0457861Y0370449D03*
X0458018Y0370449D03*
X0458176Y0370449D03*
X0458333Y0370449D03*
X0458491Y0370449D03*
X0458648Y0370449D03*
X0458806Y0370449D03*
X0458963Y0370449D03*
X0458806Y0375488D03*
X0458018Y0375488D03*
X0476759Y0353083D03*
X0478963Y0353083D03*
X0478806Y0343791D03*
X0476759Y0343791D03*
X0476759Y0340327D03*
X0456888Y0346012D03*
D92*
X0476601Y0343713D03*
X0478963Y0343713D03*
X0480066Y0340406D03*
X0479908Y0347335D03*
X0477073Y0347335D03*
X0476916Y0347335D03*
X0476601Y0353004D03*
X0459121Y0370528D03*
X0457703Y0370528D03*
X0457861Y0375567D03*
X0458963Y0375567D03*
X0430696Y0369173D03*
X0429593Y0368071D03*
X0428648Y0375315D03*
X0408963Y0375260D03*
X0408806Y0375260D03*
X0396601Y0375327D03*
X0396601Y0362728D03*
X0380223Y0276067D03*
X0377703Y0274807D03*
X0376444Y0276067D03*
X0379908Y0271185D03*
X0379908Y0267563D03*
X0379751Y0267563D03*
X0379593Y0267563D03*
X0379436Y0267563D03*
X0380066Y0267563D03*
X0380223Y0267563D03*
X0388491Y0270028D03*
X0398333Y0267035D03*
X0366286Y0276354D03*
D93*
X0389121Y0274280D03*
X0389278Y0274280D03*
X0458648Y0363441D03*
D94*
X0476601Y0356862D03*
X0476759Y0356862D03*
X0427388Y0368465D03*
X0399908Y0277035D03*
X0389436Y0274201D03*
D95*
X0389593Y0274122D03*
X0398648Y0278059D03*
X0458491Y0363283D03*
X0456286Y0372417D03*
X0476444Y0356941D03*
X0476916Y0356941D03*
D96*
X0477073Y0356862D03*
X0458333Y0363205D03*
X0456286Y0363835D03*
X0429593Y0372244D03*
X0429436Y0372087D03*
X0427546Y0368307D03*
X0398806Y0278138D03*
X0389751Y0274043D03*
D97*
X0389908Y0273965D03*
X0398963Y0278059D03*
X0458176Y0363126D03*
X0459121Y0363126D03*
X0427861Y0367913D03*
X0427703Y0368071D03*
D98*
X0428018Y0367835D03*
X0428176Y0367835D03*
X0418806Y0363780D03*
X0410381Y0374866D03*
X0409121Y0367780D03*
X0456444Y0363520D03*
X0457546Y0363047D03*
X0457703Y0363047D03*
X0457861Y0363047D03*
X0458018Y0363047D03*
X0460223Y0363520D03*
X0460381Y0363677D03*
X0476286Y0356862D03*
X0399278Y0277980D03*
X0399121Y0277980D03*
X0399436Y0277823D03*
X0390066Y0273886D03*
X0380381Y0271421D03*
D99*
X0390853Y0268925D03*
X0366286Y0268795D03*
D100*
X0395184Y0270264D03*
X0401483Y0270264D03*
D101*
X0401325Y0270343D03*
X0395341Y0270343D03*
X0380538Y0270555D03*
X0376129Y0270555D03*
X0415184Y0369213D03*
X0415341Y0369213D03*
X0415499Y0369213D03*
X0415656Y0369213D03*
X0415814Y0369213D03*
X0415971Y0369213D03*
X0416129Y0369213D03*
X0420538Y0369213D03*
X0420696Y0369213D03*
X0420853Y0369213D03*
X0421010Y0369213D03*
X0421168Y0369213D03*
X0421325Y0369213D03*
X0421483Y0369213D03*
X0455656Y0369740D03*
X0461010Y0369740D03*
D102*
X0460696Y0369583D03*
X0455971Y0369583D03*
X0401168Y0270500D03*
X0395499Y0270500D03*
X0380853Y0270713D03*
X0375814Y0270713D03*
D103*
X0375656Y0270791D03*
X0381010Y0270791D03*
X0395656Y0270579D03*
X0401010Y0270579D03*
X0456129Y0369504D03*
X0460538Y0369504D03*
D104*
X0396759Y0271130D03*
X0371483Y0270843D03*
X0365184Y0270843D03*
D105*
X0396916Y0271209D03*
D106*
X0397073Y0271287D03*
D107*
X0397231Y0271366D03*
D108*
X0398176Y0277508D03*
D109*
X0398333Y0277429D03*
X0398491Y0277429D03*
X0458963Y0363913D03*
X0406286Y0368646D03*
D110*
X0406444Y0372819D03*
X0408491Y0375339D03*
X0408648Y0375339D03*
X0400066Y0375406D03*
X0396759Y0375406D03*
X0396759Y0362650D03*
X0400066Y0362650D03*
X0420381Y0363307D03*
X0420223Y0367559D03*
X0420223Y0370866D03*
X0420381Y0375118D03*
X0428648Y0371457D03*
X0428806Y0371457D03*
X0430538Y0368937D03*
X0429908Y0368307D03*
X0429751Y0368150D03*
X0457703Y0375646D03*
X0459121Y0375646D03*
X0460381Y0368087D03*
X0476759Y0347413D03*
X0479121Y0343634D03*
X0476601Y0340327D03*
X0399278Y0264437D03*
X0379751Y0271106D03*
X0379593Y0271106D03*
X0379436Y0271106D03*
X0370381Y0276433D03*
D111*
X0370538Y0270370D03*
X0366129Y0270370D03*
X0375499Y0270870D03*
X0381168Y0270870D03*
X0400853Y0270657D03*
D112*
X0381483Y0271028D03*
X0375184Y0271028D03*
X0370853Y0270528D03*
X0365814Y0270528D03*
X0395184Y0369028D03*
X0395341Y0369028D03*
X0395499Y0369028D03*
X0395656Y0369028D03*
X0395814Y0369028D03*
X0395971Y0369028D03*
X0396129Y0369028D03*
X0400538Y0369028D03*
X0400696Y0369028D03*
X0400853Y0369028D03*
X0401010Y0369028D03*
X0401168Y0369028D03*
X0401325Y0369028D03*
X0401483Y0369028D03*
D113*
X0381325Y0270949D03*
X0375341Y0270949D03*
X0370696Y0270449D03*
X0365971Y0270449D03*
D114*
X0375971Y0270634D03*
X0380696Y0270634D03*
X0455814Y0369661D03*
X0460853Y0369661D03*
D115*
X0427073Y0371693D03*
X0376286Y0268350D03*
D116*
X0444888Y0295276D03*
X0444888Y0299724D03*
D117*
X0444888Y0299626D03*
D118*
X0444888Y0299508D03*
D119*
X0444888Y0299370D03*
X0444888Y0295591D03*
D120*
X0444888Y0295709D03*
X0444888Y0299252D03*
X0444625Y0288012D03*
D121*
X0444888Y0299154D03*
D122*
X0443117Y0299055D03*
D123*
X0443353Y0298917D03*
X0444097Y0303583D03*
X0445987Y0304055D03*
X0447459Y0291417D03*
D124*
X0445629Y0288583D03*
X0443503Y0289528D03*
X0442018Y0283917D03*
X0446247Y0298917D03*
D125*
X0444948Y0298228D03*
X0443530Y0298701D03*
X0442231Y0298228D03*
X0444156Y0303917D03*
X0444156Y0304193D03*
X0444983Y0305728D03*
X0444983Y0305807D03*
X0446164Y0305138D03*
X0446164Y0304862D03*
X0447581Y0304193D03*
X0447581Y0305728D03*
X0443329Y0305807D03*
X0442266Y0304783D03*
X0440731Y0305728D03*
X0447400Y0291201D03*
X0447400Y0288839D03*
X0447400Y0288720D03*
X0441731Y0289193D03*
X0441731Y0290728D03*
X0443672Y0283583D03*
X0442255Y0283228D03*
X0442255Y0283110D03*
X0441782Y0281693D03*
X0440247Y0282283D03*
X0440247Y0282362D03*
X0440247Y0282638D03*
X0437530Y0282638D03*
X0437530Y0282717D03*
X0437530Y0282362D03*
X0437530Y0282283D03*
X0443672Y0281417D03*
D126*
X0449341Y0281693D03*
X0449341Y0281772D03*
X0449341Y0283228D03*
X0449199Y0298110D03*
D127*
X0445066Y0297972D03*
X0442349Y0297972D03*
X0442148Y0304528D03*
X0440849Y0305472D03*
X0441794Y0306417D03*
X0447699Y0305472D03*
X0447699Y0303583D03*
X0441849Y0290472D03*
X0441849Y0288583D03*
X0442136Y0283445D03*
X0447400Y0288583D03*
D128*
X0449259Y0297972D03*
D129*
X0449613Y0297717D03*
X0449585Y0290335D03*
D130*
X0449849Y0297500D03*
D131*
X0446719Y0297165D03*
X0441912Y0304272D03*
D132*
X0446837Y0297028D03*
X0449944Y0303583D03*
X0450050Y0283917D03*
X0450050Y0281083D03*
X0445562Y0282028D03*
X0445562Y0282972D03*
D133*
X0445570Y0288720D03*
X0445570Y0288839D03*
X0445570Y0288917D03*
X0445570Y0289193D03*
X0445570Y0289272D03*
X0445570Y0289390D03*
X0445570Y0289665D03*
X0445570Y0289783D03*
X0445570Y0289862D03*
X0445570Y0290138D03*
X0445570Y0290217D03*
X0445570Y0290335D03*
X0445570Y0290610D03*
X0445570Y0290728D03*
X0445570Y0290807D03*
X0443562Y0290807D03*
X0443562Y0289862D03*
X0443562Y0289783D03*
X0443562Y0289272D03*
X0443562Y0289193D03*
X0443235Y0296772D03*
X0445951Y0296772D03*
X0444097Y0303445D03*
X0442089Y0304390D03*
D134*
X0442881Y0296693D03*
X0442881Y0296417D03*
X0442881Y0296339D03*
X0442881Y0296220D03*
X0445597Y0296339D03*
X0445621Y0281890D03*
D135*
X0439656Y0281890D03*
X0439656Y0281772D03*
X0439656Y0281693D03*
X0439656Y0282835D03*
X0439656Y0283110D03*
X0439656Y0283228D03*
X0436940Y0283228D03*
X0436940Y0283110D03*
X0436940Y0282835D03*
X0436940Y0281890D03*
X0436940Y0281772D03*
X0436940Y0281693D03*
X0436940Y0281417D03*
X0436940Y0281339D03*
X0436940Y0281220D03*
X0445538Y0296417D03*
X0445538Y0296693D03*
D136*
X0442881Y0296555D03*
X0442881Y0296083D03*
X0436999Y0281083D03*
D137*
X0436940Y0281555D03*
X0436940Y0282028D03*
X0436940Y0282972D03*
X0439656Y0282972D03*
X0439656Y0282028D03*
X0445538Y0296555D03*
D138*
X0444888Y0295827D03*
X0444625Y0291870D03*
X0444625Y0288091D03*
X0444215Y0302776D03*
X0444215Y0307224D03*
D139*
X0444215Y0307343D03*
X0444215Y0302657D03*
X0444888Y0295512D03*
X0444625Y0287894D03*
D140*
X0444625Y0287776D03*
X0444625Y0292224D03*
X0444888Y0295394D03*
D141*
X0442077Y0284843D03*
X0442077Y0280157D03*
D142*
X0442077Y0280276D03*
X0442077Y0284724D03*
D143*
X0442077Y0284626D03*
D144*
X0442077Y0284508D03*
D145*
X0442077Y0284370D03*
X0442077Y0280591D03*
D146*
X0442077Y0280709D03*
X0442077Y0284252D03*
D147*
X0442077Y0284154D03*
D148*
X0439125Y0284055D03*
X0444625Y0288327D03*
X0444215Y0302894D03*
D149*
X0448219Y0284055D03*
D150*
X0443967Y0283917D03*
X0441959Y0281083D03*
X0443562Y0289055D03*
X0445570Y0289055D03*
X0445570Y0289528D03*
X0445570Y0290000D03*
X0445570Y0290472D03*
D151*
X0449644Y0291417D03*
X0450168Y0283445D03*
X0450168Y0281555D03*
D152*
X0449400Y0281890D03*
X0449400Y0282835D03*
X0449400Y0283110D03*
D153*
X0449400Y0282972D03*
X0449400Y0282028D03*
D154*
X0449991Y0282500D03*
D155*
X0449932Y0282165D03*
X0449644Y0289390D03*
X0444156Y0306555D03*
D156*
X0446105Y0304528D03*
X0441790Y0289055D03*
X0441841Y0281555D03*
D157*
X0443908Y0281083D03*
X0443621Y0288583D03*
X0443621Y0290000D03*
X0443621Y0290472D03*
X0445928Y0303583D03*
X0444983Y0306417D03*
X0443329Y0306417D03*
D158*
X0445928Y0303445D03*
X0443503Y0289665D03*
X0443503Y0289390D03*
X0443621Y0288445D03*
X0442018Y0280945D03*
D159*
X0443967Y0280945D03*
X0445570Y0288445D03*
D160*
X0442077Y0280827D03*
D161*
X0442077Y0280512D03*
D162*
X0442077Y0280394D03*
D163*
X0444625Y0292126D03*
D164*
X0444625Y0292008D03*
D165*
X0444625Y0291752D03*
X0444625Y0288209D03*
D166*
X0444625Y0291654D03*
X0444215Y0307126D03*
D167*
X0449526Y0290217D03*
X0449526Y0289665D03*
D168*
X0449408Y0290000D03*
D169*
X0449408Y0289862D03*
D170*
X0449585Y0289528D03*
D171*
X0360676Y0272335D03*
X0355991Y0272335D03*
D172*
X0356109Y0272276D03*
X0360558Y0272276D03*
D173*
X0356207Y0272217D03*
D174*
X0356325Y0272157D03*
D175*
X0356463Y0272098D03*
X0360243Y0272098D03*
D176*
X0360125Y0272039D03*
X0356581Y0272039D03*
D177*
X0356680Y0271980D03*
D178*
X0356778Y0269146D03*
D179*
X0356778Y0277709D03*
X0436778Y0367228D03*
D180*
X0437861Y0368469D03*
X0438806Y0368469D03*
X0437861Y0371776D03*
X0438806Y0374256D03*
X0439278Y0374256D03*
X0448333Y0371866D03*
X0448806Y0371984D03*
X0447861Y0369504D03*
X0447388Y0369504D03*
X0447388Y0368441D03*
X0447861Y0368441D03*
X0448333Y0368441D03*
X0448806Y0368441D03*
X0449278Y0368441D03*
X0447388Y0364661D03*
X0446916Y0364780D03*
X0449751Y0362417D03*
X0447388Y0359346D03*
X0446916Y0359346D03*
X0439751Y0359374D03*
X0439278Y0359374D03*
X0436916Y0364807D03*
X0359278Y0276114D03*
X0357388Y0276114D03*
X0357861Y0273161D03*
X0358333Y0273161D03*
X0358806Y0273161D03*
X0359751Y0270209D03*
X0359278Y0270091D03*
X0356916Y0267492D03*
D181*
X0359751Y0271626D03*
X0356916Y0273634D03*
X0438806Y0362445D03*
X0437388Y0366579D03*
X0436916Y0368823D03*
X0437861Y0370122D03*
X0437861Y0375791D03*
X0438333Y0375791D03*
X0438806Y0375791D03*
X0439278Y0375791D03*
X0439751Y0375791D03*
X0437388Y0375791D03*
X0436916Y0375791D03*
X0447861Y0375764D03*
X0448333Y0375764D03*
X0448806Y0375764D03*
X0447861Y0373638D03*
X0447388Y0366551D03*
X0449278Y0364189D03*
X0449751Y0358756D03*
D182*
X0449278Y0360823D03*
X0449751Y0369681D03*
X0439751Y0374079D03*
X0437861Y0364630D03*
X0439278Y0360969D03*
X0456416Y0344004D03*
X0456416Y0341996D03*
X0457833Y0341996D03*
X0458306Y0341996D03*
X0458778Y0341996D03*
X0459251Y0341996D03*
X0459251Y0340933D03*
X0459251Y0338571D03*
X0459251Y0346012D03*
X0358333Y0269913D03*
X0358333Y0267197D03*
X0357388Y0273339D03*
X0356916Y0275937D03*
D183*
X0356916Y0279421D03*
X0359751Y0279421D03*
X0436916Y0356067D03*
X0439751Y0356067D03*
X0439751Y0360909D03*
X0437861Y0362681D03*
X0438333Y0370122D03*
X0436916Y0371539D03*
X0447388Y0375646D03*
X0449278Y0375646D03*
X0448333Y0373638D03*
X0446916Y0360882D03*
X0449751Y0360882D03*
X0448333Y0356630D03*
X0446916Y0355567D03*
X0458306Y0343591D03*
X0457361Y0339811D03*
D184*
X0457223Y0339752D03*
X0458444Y0343650D03*
X0447054Y0360823D03*
X0448668Y0362358D03*
X0447251Y0363067D03*
X0447133Y0363067D03*
X0449416Y0364130D03*
X0449495Y0364130D03*
X0447251Y0366492D03*
X0448668Y0370035D03*
X0447999Y0371453D03*
X0447999Y0373579D03*
X0447723Y0375705D03*
X0447605Y0375705D03*
X0448944Y0375705D03*
X0449062Y0375705D03*
X0449140Y0375705D03*
X0439888Y0375732D03*
X0437999Y0373724D03*
X0438668Y0372307D03*
X0437999Y0370063D03*
X0439888Y0368882D03*
X0437251Y0366638D03*
X0439416Y0364276D03*
X0437605Y0362858D03*
X0437251Y0363094D03*
X0437133Y0363094D03*
X0437054Y0360969D03*
X0359613Y0279362D03*
X0357054Y0279362D03*
X0359888Y0271685D03*
X0359888Y0264244D03*
X0359613Y0264244D03*
X0359495Y0264244D03*
X0359416Y0264244D03*
X0359140Y0264244D03*
X0359062Y0264244D03*
X0358944Y0264244D03*
X0358668Y0264244D03*
X0358550Y0264244D03*
X0358471Y0264244D03*
X0358196Y0264244D03*
X0358117Y0264244D03*
X0357999Y0264244D03*
X0357723Y0264244D03*
X0357605Y0264244D03*
X0357526Y0264244D03*
X0357251Y0264244D03*
X0357133Y0264244D03*
X0357054Y0264244D03*
D185*
X0357054Y0267433D03*
X0357133Y0267433D03*
X0357251Y0267433D03*
X0357251Y0270150D03*
X0357133Y0270150D03*
X0357054Y0270150D03*
X0358471Y0271213D03*
X0358550Y0271213D03*
X0359416Y0270150D03*
X0359495Y0270150D03*
X0359613Y0270150D03*
X0439495Y0359315D03*
X0439613Y0362504D03*
X0438471Y0365811D03*
X0438471Y0368409D03*
X0438550Y0368409D03*
X0438196Y0368409D03*
X0447054Y0364720D03*
X0447133Y0364720D03*
X0448471Y0365783D03*
X0448550Y0365783D03*
X0448471Y0367319D03*
X0448550Y0371925D03*
X0449613Y0362476D03*
X0447251Y0359287D03*
X0456278Y0341996D03*
D186*
X0457026Y0342232D03*
X0457105Y0342232D03*
X0457026Y0339752D03*
X0447133Y0355626D03*
X0447251Y0355744D03*
X0447133Y0360823D03*
X0448944Y0364248D03*
X0449062Y0364248D03*
X0447054Y0372161D03*
X0438668Y0364394D03*
X0439495Y0360969D03*
X0438550Y0359669D03*
X0438668Y0359551D03*
X0439888Y0358016D03*
X0437133Y0360969D03*
X0359416Y0279244D03*
X0357251Y0279244D03*
X0357723Y0274874D03*
X0357054Y0271685D03*
D187*
X0357133Y0271744D03*
X0357251Y0271744D03*
X0357054Y0273516D03*
X0359062Y0274933D03*
X0359613Y0271626D03*
X0358668Y0278594D03*
X0357526Y0279067D03*
X0438117Y0359728D03*
X0438196Y0359728D03*
X0437251Y0360909D03*
X0438944Y0362445D03*
X0438550Y0364453D03*
X0438471Y0364453D03*
X0437526Y0366579D03*
X0437723Y0370122D03*
X0439062Y0370122D03*
X0439613Y0371539D03*
X0439888Y0374020D03*
X0447723Y0373638D03*
X0449062Y0373638D03*
X0449613Y0372102D03*
X0447526Y0366551D03*
X0448668Y0364307D03*
X0448944Y0362417D03*
X0449495Y0360882D03*
X0447251Y0360882D03*
X0458916Y0343827D03*
D188*
X0459388Y0343945D03*
X0459388Y0341937D03*
X0459388Y0338630D03*
X0459388Y0346071D03*
X0449140Y0360882D03*
X0447526Y0360882D03*
X0447723Y0364543D03*
X0448944Y0365961D03*
X0448944Y0367142D03*
X0447054Y0369622D03*
X0448196Y0371748D03*
X0449416Y0372102D03*
X0449140Y0373638D03*
X0439613Y0374138D03*
X0437526Y0374138D03*
X0437054Y0374138D03*
X0437526Y0371657D03*
X0438944Y0371776D03*
X0439140Y0370122D03*
X0439416Y0368587D03*
X0438944Y0365988D03*
X0437605Y0364689D03*
X0437526Y0364689D03*
X0437526Y0360909D03*
X0437605Y0359492D03*
X0439140Y0359374D03*
X0439888Y0359374D03*
X0439140Y0360909D03*
X0359062Y0275996D03*
X0359140Y0274933D03*
X0359140Y0273280D03*
X0357526Y0273280D03*
X0358944Y0271390D03*
X0359062Y0271390D03*
X0357723Y0275996D03*
X0357054Y0275996D03*
D189*
X0357133Y0273457D03*
X0359613Y0273457D03*
X0359495Y0271567D03*
X0359416Y0271567D03*
X0359888Y0275937D03*
X0358550Y0278654D03*
X0358471Y0278654D03*
X0358196Y0278654D03*
X0358117Y0278654D03*
X0437723Y0358016D03*
X0437999Y0358016D03*
X0438117Y0358016D03*
X0439495Y0358016D03*
X0439613Y0358016D03*
X0438944Y0359433D03*
X0437999Y0359669D03*
X0439416Y0360969D03*
X0439062Y0362504D03*
X0438196Y0364512D03*
X0437054Y0368764D03*
X0437133Y0371598D03*
X0438550Y0372071D03*
X0438944Y0372898D03*
X0438117Y0373961D03*
X0447133Y0372161D03*
X0448117Y0371689D03*
X0448944Y0370626D03*
X0448550Y0369799D03*
X0449888Y0369681D03*
X0448550Y0364366D03*
X0448471Y0364366D03*
X0449416Y0360823D03*
X0458995Y0343886D03*
X0459113Y0343886D03*
X0456751Y0342114D03*
X0458050Y0340461D03*
X0457696Y0339280D03*
X0457971Y0339161D03*
X0456751Y0339752D03*
D190*
X0449062Y0360882D03*
X0447605Y0360882D03*
X0449416Y0362535D03*
X0449495Y0362535D03*
X0449888Y0362299D03*
X0447251Y0364661D03*
X0448668Y0365843D03*
X0447999Y0366551D03*
X0448550Y0367260D03*
X0448668Y0367260D03*
X0448668Y0368441D03*
X0448550Y0368441D03*
X0448471Y0368441D03*
X0448196Y0368441D03*
X0448117Y0368441D03*
X0447999Y0368441D03*
X0447723Y0368441D03*
X0447605Y0368441D03*
X0447526Y0368441D03*
X0447251Y0368441D03*
X0447133Y0368441D03*
X0447054Y0368441D03*
X0447526Y0369504D03*
X0447605Y0369504D03*
X0447723Y0369504D03*
X0447999Y0369504D03*
X0448117Y0369504D03*
X0449062Y0369504D03*
X0449140Y0369504D03*
X0449416Y0369504D03*
X0449495Y0369504D03*
X0449495Y0368441D03*
X0449416Y0368441D03*
X0449613Y0368441D03*
X0449140Y0368441D03*
X0449062Y0368441D03*
X0448944Y0368441D03*
X0448471Y0371866D03*
X0448668Y0371984D03*
X0448944Y0371984D03*
X0449062Y0371984D03*
X0439416Y0374256D03*
X0439140Y0374256D03*
X0439062Y0374256D03*
X0438944Y0374256D03*
X0438668Y0374256D03*
X0438550Y0374256D03*
X0438117Y0371776D03*
X0437999Y0371776D03*
X0437999Y0368469D03*
X0438117Y0368469D03*
X0437723Y0368469D03*
X0438668Y0368469D03*
X0438944Y0368469D03*
X0439062Y0368469D03*
X0438550Y0367406D03*
X0438471Y0367406D03*
X0437999Y0366579D03*
X0438550Y0365870D03*
X0438668Y0365870D03*
X0437133Y0364807D03*
X0437054Y0364807D03*
X0439416Y0362563D03*
X0439495Y0362563D03*
X0439888Y0362445D03*
X0439062Y0360909D03*
X0437605Y0360909D03*
X0437251Y0359256D03*
X0439416Y0359374D03*
X0359495Y0276114D03*
X0359416Y0276114D03*
X0357526Y0276114D03*
X0357251Y0276114D03*
X0357133Y0276114D03*
X0357999Y0273161D03*
X0358117Y0273161D03*
X0358196Y0273161D03*
X0358471Y0273161D03*
X0358550Y0273161D03*
X0358668Y0273161D03*
X0358196Y0272098D03*
X0358117Y0272098D03*
X0358668Y0271272D03*
X0357526Y0270091D03*
X0357526Y0267374D03*
D191*
X0357133Y0279303D03*
X0359495Y0279303D03*
X0438471Y0359728D03*
X0439613Y0360909D03*
X0438668Y0362445D03*
X0438944Y0364335D03*
X0439062Y0364335D03*
X0439140Y0364335D03*
X0438944Y0370122D03*
X0437054Y0371539D03*
X0437054Y0375791D03*
X0437133Y0375791D03*
X0437251Y0375791D03*
X0437526Y0375791D03*
X0437605Y0375791D03*
X0437723Y0375791D03*
X0437999Y0375791D03*
X0438117Y0375791D03*
X0438196Y0375791D03*
X0438471Y0375791D03*
X0438550Y0375791D03*
X0438668Y0375791D03*
X0438944Y0375791D03*
X0439062Y0375791D03*
X0439140Y0375791D03*
X0439416Y0375791D03*
X0439495Y0375791D03*
X0439613Y0375791D03*
X0447999Y0375764D03*
X0448117Y0375764D03*
X0448196Y0375764D03*
X0448471Y0375764D03*
X0448550Y0375764D03*
X0448668Y0375764D03*
X0448944Y0373638D03*
X0449140Y0364189D03*
X0449613Y0360882D03*
X0449613Y0358756D03*
X0449495Y0358756D03*
X0449416Y0358756D03*
X0447054Y0355567D03*
X0458562Y0343709D03*
X0458640Y0343709D03*
X0457223Y0342291D03*
X0457105Y0339811D03*
D192*
X0456554Y0339752D03*
X0457971Y0341996D03*
X0458050Y0341996D03*
X0458168Y0341996D03*
X0458444Y0341996D03*
X0458562Y0341996D03*
X0458640Y0341996D03*
X0458916Y0341996D03*
X0458995Y0341996D03*
X0459113Y0341996D03*
X0459113Y0346012D03*
X0449140Y0362476D03*
X0448117Y0364484D03*
X0447999Y0364484D03*
X0449062Y0366020D03*
X0449062Y0367083D03*
X0447723Y0366492D03*
X0448471Y0369681D03*
X0449140Y0370744D03*
X0447605Y0370744D03*
X0447526Y0371925D03*
X0447605Y0373579D03*
X0439416Y0371598D03*
X0438471Y0371953D03*
X0439140Y0373016D03*
X0438196Y0374079D03*
X0437605Y0374079D03*
X0437605Y0373016D03*
X0437605Y0370063D03*
X0437251Y0368646D03*
X0437723Y0366638D03*
X0438944Y0367228D03*
X0439062Y0367228D03*
X0439062Y0366047D03*
X0437723Y0364630D03*
X0439140Y0362504D03*
X0439062Y0359433D03*
X0437723Y0359551D03*
X0437054Y0359079D03*
X0439140Y0357898D03*
X0439495Y0368646D03*
X0359416Y0273339D03*
X0359140Y0271449D03*
X0357723Y0271921D03*
X0357605Y0271921D03*
X0357251Y0273339D03*
X0358196Y0269913D03*
X0358471Y0269913D03*
X0358550Y0269913D03*
X0358550Y0267197D03*
X0358471Y0267197D03*
X0358196Y0267197D03*
X0358117Y0267197D03*
D193*
X0357388Y0267433D03*
X0357388Y0270150D03*
X0358333Y0272157D03*
X0439751Y0362504D03*
X0438333Y0367465D03*
X0438333Y0368409D03*
X0449278Y0369445D03*
D194*
X0448806Y0364307D03*
X0447388Y0355803D03*
X0439751Y0358075D03*
X0438806Y0359492D03*
X0439751Y0368823D03*
X0456888Y0342173D03*
X0456888Y0339811D03*
X0359278Y0279185D03*
X0357388Y0279185D03*
D195*
X0357605Y0274933D03*
X0359495Y0273398D03*
X0357526Y0271862D03*
X0358117Y0269854D03*
X0358668Y0269854D03*
X0358668Y0267138D03*
X0437605Y0357957D03*
X0438196Y0357957D03*
X0439416Y0357957D03*
X0438117Y0364571D03*
X0437999Y0364571D03*
X0437605Y0366579D03*
X0437133Y0368705D03*
X0439613Y0368705D03*
X0439495Y0371539D03*
X0439062Y0372957D03*
X0437251Y0371657D03*
X0447251Y0372102D03*
X0447605Y0371866D03*
X0449062Y0370685D03*
X0449495Y0372102D03*
X0447605Y0366551D03*
X0448196Y0364425D03*
X0449062Y0362417D03*
X0457026Y0346071D03*
X0457105Y0346071D03*
X0457223Y0346071D03*
X0457499Y0346071D03*
X0457617Y0346071D03*
X0457696Y0346071D03*
X0457971Y0346071D03*
X0458050Y0346071D03*
X0458168Y0346071D03*
X0458444Y0346071D03*
X0458562Y0346071D03*
X0458640Y0346071D03*
X0458916Y0346071D03*
X0458995Y0346071D03*
X0457696Y0343945D03*
X0457617Y0343945D03*
X0457499Y0343945D03*
X0457223Y0343945D03*
X0457105Y0343945D03*
X0457026Y0343945D03*
X0456751Y0343945D03*
X0456633Y0343945D03*
X0456554Y0343945D03*
X0456554Y0342055D03*
X0456633Y0342055D03*
X0457696Y0340283D03*
X0457971Y0340402D03*
X0458916Y0340874D03*
X0458995Y0340874D03*
X0459113Y0340992D03*
X0458050Y0339102D03*
X0458916Y0338748D03*
X0458995Y0338630D03*
X0459113Y0338630D03*
X0456633Y0339811D03*
D196*
X0449062Y0356453D03*
X0447605Y0356453D03*
X0447999Y0359051D03*
X0446778Y0363067D03*
X0439613Y0366638D03*
X0439495Y0366638D03*
X0439416Y0366638D03*
X0439140Y0366638D03*
X0436778Y0363094D03*
X0436778Y0360969D03*
X0437251Y0355890D03*
X0439416Y0355890D03*
X0449888Y0372161D03*
X0449613Y0375469D03*
X0359140Y0269323D03*
X0359062Y0269323D03*
X0358944Y0269323D03*
X0357999Y0269323D03*
X0357723Y0269323D03*
X0357605Y0269323D03*
X0357605Y0266606D03*
X0357723Y0266606D03*
X0357999Y0266606D03*
X0358944Y0266606D03*
X0359062Y0266606D03*
X0359140Y0266606D03*
X0359416Y0266606D03*
X0359495Y0266606D03*
X0359613Y0266606D03*
D197*
X0359888Y0270150D03*
X0357999Y0272039D03*
X0357723Y0273220D03*
X0357605Y0273220D03*
X0358944Y0273220D03*
X0359062Y0273220D03*
X0359140Y0276055D03*
X0359613Y0276055D03*
X0357605Y0276055D03*
X0437133Y0359197D03*
X0437526Y0359433D03*
X0437251Y0364748D03*
X0438668Y0367346D03*
X0439140Y0368528D03*
X0437605Y0368528D03*
X0437526Y0368528D03*
X0437605Y0371717D03*
X0437723Y0371717D03*
X0438196Y0371835D03*
X0439062Y0371717D03*
X0439140Y0371717D03*
X0437526Y0373016D03*
X0437251Y0374197D03*
X0437133Y0374197D03*
X0438471Y0374197D03*
X0439495Y0374197D03*
X0447526Y0370744D03*
X0447251Y0369563D03*
X0447133Y0369563D03*
X0448196Y0369563D03*
X0448944Y0369563D03*
X0449613Y0369563D03*
X0449888Y0368382D03*
X0449140Y0372043D03*
X0447605Y0364602D03*
X0447526Y0364602D03*
X0459388Y0340933D03*
D198*
X0449613Y0356157D03*
X0438668Y0355594D03*
X0438550Y0355594D03*
X0438471Y0355594D03*
X0438196Y0355594D03*
X0438117Y0355594D03*
X0437999Y0355594D03*
X0359062Y0278240D03*
X0357605Y0278240D03*
D199*
X0357723Y0278181D03*
X0358944Y0278181D03*
X0436778Y0371480D03*
X0446778Y0372161D03*
X0449495Y0356217D03*
X0458168Y0339752D03*
D200*
X0456416Y0339811D03*
X0447861Y0364543D03*
X0447861Y0366551D03*
X0448333Y0369622D03*
X0449278Y0372102D03*
X0439278Y0368587D03*
X0438806Y0367287D03*
X0437861Y0366579D03*
X0437388Y0368587D03*
X0437388Y0371657D03*
X0438333Y0371894D03*
X0437388Y0374138D03*
X0439278Y0362563D03*
X0359751Y0275996D03*
X0359278Y0273280D03*
X0357861Y0271980D03*
D201*
X0357861Y0275228D03*
X0358806Y0275228D03*
X0449278Y0356335D03*
X0446916Y0375350D03*
D202*
X0448333Y0359228D03*
X0358806Y0278122D03*
X0357861Y0278122D03*
X0358333Y0275169D03*
D203*
X0357999Y0275228D03*
X0357999Y0278063D03*
X0359888Y0266606D03*
X0437526Y0355772D03*
X0439140Y0355772D03*
X0448196Y0359169D03*
X0448471Y0359169D03*
X0439888Y0366638D03*
D204*
X0439062Y0355713D03*
X0438944Y0355713D03*
X0437723Y0355713D03*
X0437605Y0355713D03*
X0449416Y0356276D03*
X0449888Y0375291D03*
X0358668Y0275169D03*
X0358550Y0275169D03*
X0358471Y0275169D03*
X0358196Y0275169D03*
X0358117Y0275169D03*
D205*
X0358333Y0271154D03*
X0438333Y0365752D03*
X0448333Y0365724D03*
X0448333Y0367378D03*
D206*
X0449888Y0366551D03*
X0448668Y0359110D03*
X0448550Y0359110D03*
X0448117Y0359110D03*
X0447526Y0356394D03*
X0449140Y0356394D03*
X0447054Y0375409D03*
X0358944Y0275287D03*
D207*
X0359140Y0278299D03*
X0446778Y0375114D03*
X0456278Y0346012D03*
X0458444Y0339752D03*
D208*
X0457833Y0339220D03*
X0457833Y0343945D03*
X0457361Y0343945D03*
X0456888Y0343945D03*
X0457361Y0346071D03*
X0457833Y0346071D03*
X0458306Y0346071D03*
X0458778Y0346071D03*
X0459251Y0343945D03*
X0447388Y0360882D03*
X0448333Y0364425D03*
X0446916Y0369622D03*
X0447388Y0371984D03*
X0436916Y0374020D03*
X0437388Y0360909D03*
X0437861Y0359610D03*
X0439278Y0357957D03*
X0359278Y0271508D03*
D209*
X0359751Y0266665D03*
X0437388Y0355831D03*
X0439278Y0355831D03*
X0436916Y0366579D03*
X0446916Y0366551D03*
X0449751Y0366551D03*
X0449751Y0375409D03*
D210*
X0448806Y0362358D03*
X0438806Y0364394D03*
X0438333Y0359787D03*
X0458778Y0343768D03*
X0359751Y0273575D03*
D211*
X0359888Y0273634D03*
X0439888Y0356185D03*
X0438550Y0362445D03*
X0437723Y0362799D03*
X0437526Y0362917D03*
X0437054Y0363154D03*
X0439495Y0364217D03*
X0439613Y0364217D03*
X0437133Y0366579D03*
X0438117Y0370122D03*
X0438196Y0370122D03*
X0438471Y0370122D03*
X0438550Y0370122D03*
X0438668Y0370122D03*
X0447133Y0366551D03*
X0447054Y0363126D03*
X0447526Y0362890D03*
X0447605Y0362772D03*
X0448550Y0362299D03*
X0449613Y0364071D03*
X0449140Y0358874D03*
X0447526Y0358874D03*
X0447999Y0356630D03*
X0448117Y0356630D03*
X0448196Y0356630D03*
X0448471Y0356630D03*
X0448550Y0356630D03*
X0448668Y0356630D03*
X0457499Y0342409D03*
X0457617Y0342409D03*
X0448668Y0373638D03*
X0448550Y0373638D03*
X0448471Y0373638D03*
X0448196Y0373638D03*
X0448117Y0373638D03*
X0447526Y0375646D03*
D212*
X0447133Y0375528D03*
X0449495Y0375528D03*
X0447723Y0371276D03*
X0447054Y0366551D03*
X0449140Y0366551D03*
X0449416Y0366551D03*
X0449495Y0366551D03*
X0449613Y0366551D03*
X0449888Y0364071D03*
X0448471Y0362299D03*
X0448196Y0362417D03*
X0447999Y0362535D03*
X0446778Y0360882D03*
X0448944Y0358992D03*
X0449888Y0360882D03*
X0448944Y0356512D03*
X0447723Y0356512D03*
X0439495Y0355949D03*
X0437133Y0355949D03*
X0439888Y0360909D03*
X0438196Y0362445D03*
X0437054Y0366579D03*
X0439888Y0371539D03*
X0437723Y0373547D03*
X0457971Y0343472D03*
X0457617Y0339811D03*
X0359888Y0279421D03*
D213*
X0360007Y0271980D03*
D214*
X0360322Y0272157D03*
D215*
X0360440Y0272217D03*
D216*
X0365341Y0270764D03*
X0371325Y0270764D03*
D217*
X0371168Y0270685D03*
X0365499Y0270685D03*
D218*
X0365656Y0270606D03*
X0371010Y0270606D03*
D219*
X0416286Y0369213D03*
D220*
X0456416Y0346071D03*
X0458778Y0339811D03*
D221*
X0456633Y0346012D03*
X0456554Y0346012D03*
D222*
X0456751Y0346071D03*
D223*
X0458050Y0343531D03*
X0458168Y0343531D03*
X0457696Y0342469D03*
X0457499Y0339752D03*
X0449888Y0358815D03*
X0449062Y0358933D03*
X0447723Y0358933D03*
X0447605Y0358933D03*
X0448117Y0362476D03*
X0447723Y0362713D03*
X0439888Y0364157D03*
X0438471Y0362386D03*
X0438117Y0362504D03*
X0437999Y0362622D03*
X0437054Y0356008D03*
X0439613Y0356008D03*
X0447251Y0375587D03*
X0449416Y0375587D03*
D224*
X0438333Y0355594D03*
X0458306Y0339811D03*
D225*
X0458562Y0339811D03*
D226*
X0458640Y0339752D03*
X0449888Y0356098D03*
D227*
X0444215Y0307008D03*
D228*
X0444215Y0306870D03*
X0444215Y0303091D03*
D229*
X0444215Y0303209D03*
X0444215Y0306752D03*
D230*
X0444215Y0306654D03*
D231*
X0440022Y0306555D03*
D232*
X0448349Y0306555D03*
D233*
X0449589Y0306417D03*
X0449944Y0304528D03*
D234*
X0444215Y0303327D03*
D235*
X0444215Y0303012D03*
D236*
X0411483Y0371323D03*
X0411325Y0371323D03*
X0411168Y0371323D03*
X0411010Y0371323D03*
X0410853Y0371323D03*
X0410696Y0371323D03*
X0410538Y0371323D03*
X0406129Y0371323D03*
X0405971Y0371323D03*
X0405814Y0371323D03*
X0405656Y0371323D03*
X0405499Y0371323D03*
X0405341Y0371323D03*
X0405184Y0371323D03*
D237*
X0425184Y0372717D03*
X0431483Y0372717D03*
D238*
X0431325Y0372638D03*
X0425341Y0372638D03*
D239*
X0425499Y0372480D03*
X0431168Y0372480D03*
D240*
X0431010Y0372402D03*
X0425656Y0372402D03*
D241*
X0426759Y0371850D03*
D242*
X0426916Y0371772D03*
D243*
X0427231Y0371614D03*
D244*
X0430853Y0372323D03*
D245*
X0455341Y0370055D03*
X0461325Y0370055D03*
D246*
X0461168Y0369898D03*
X0455499Y0369898D03*
D247*
X0458806Y0363756D03*
D248*
X0465081Y0355323D02*
X0464727Y0355008D01*
X0464530Y0354693D01*
X0464885Y0354693D01*
X0465003Y0354654D01*
X0465081Y0354614D01*
X0465199Y0354496D01*
X0465239Y0354378D01*
X0465239Y0354260D01*
X0465160Y0353945D01*
X0465081Y0353787D01*
X0465003Y0353669D01*
X0464885Y0353512D01*
X0464648Y0353276D01*
X0464412Y0353118D01*
X0464255Y0353079D01*
X0464018Y0353079D01*
X0463900Y0353118D01*
X0463822Y0353157D01*
X0463703Y0353236D01*
X0463585Y0353394D01*
X0463507Y0353551D01*
X0463467Y0353748D01*
X0463428Y0353906D01*
X0463428Y0354142D01*
X0463467Y0354220D01*
X0463467Y0354260D01*
X0463428Y0354220D01*
X0463310Y0354063D01*
X0463034Y0353512D01*
X0462955Y0353157D01*
X0462955Y0352764D01*
X0463034Y0352331D01*
X0463270Y0351898D01*
X0463546Y0351543D01*
X0463861Y0351346D01*
X0464215Y0351228D01*
X0464530Y0351228D01*
X0464885Y0351307D01*
X0465239Y0351504D01*
X0465554Y0351780D01*
X0465908Y0352094D01*
X0466184Y0352370D01*
X0466499Y0352488D01*
X0466774Y0352488D01*
X0467010Y0352409D01*
X0467207Y0352252D01*
X0467365Y0352016D01*
X0467444Y0351701D01*
X0467444Y0351386D01*
X0467404Y0351189D01*
X0467325Y0350992D01*
X0467089Y0350756D01*
X0466971Y0350677D01*
X0466853Y0350638D01*
X0466696Y0350638D01*
X0466577Y0350677D01*
X0466341Y0350913D01*
X0466302Y0351031D01*
X0466223Y0351189D01*
X0466184Y0351228D01*
X0466105Y0351071D01*
X0466105Y0350598D01*
X0466144Y0350362D01*
X0466184Y0350165D01*
X0466262Y0349969D01*
X0466381Y0349811D01*
X0466538Y0349614D01*
X0466932Y0349378D01*
X0467207Y0349299D01*
X0467522Y0349260D01*
X0472916Y0349260D01*
X0472719Y0349457D01*
X0472522Y0349575D01*
X0472325Y0349772D01*
X0472089Y0349969D01*
X0471617Y0350441D01*
X0471066Y0350913D01*
X0470672Y0351307D01*
X0470436Y0351701D01*
X0470396Y0351937D01*
X0470396Y0352685D01*
X0470318Y0353157D01*
X0470199Y0353591D01*
X0470042Y0353984D01*
X0469806Y0354378D01*
X0469530Y0354693D01*
X0469215Y0355008D01*
X0468861Y0355283D01*
X0468152Y0355677D01*
X0467404Y0355874D01*
X0466735Y0355913D01*
X0466105Y0355795D01*
X0465514Y0355598D01*
X0465081Y0355323D01*
X0465165Y0355376D02*
X0468694Y0355376D01*
X0469125Y0355078D02*
X0464806Y0355078D01*
X0464584Y0354779D02*
X0469444Y0354779D01*
X0469716Y0354481D02*
X0465205Y0354481D01*
X0465219Y0354182D02*
X0469923Y0354182D01*
X0470082Y0353884D02*
X0465130Y0353884D01*
X0464940Y0353585D02*
X0470201Y0353585D01*
X0470282Y0353287D02*
X0464659Y0353287D01*
X0463666Y0353287D02*
X0462984Y0353287D01*
X0462955Y0352988D02*
X0470346Y0352988D01*
X0470396Y0352690D02*
X0462969Y0352690D01*
X0463023Y0352391D02*
X0466240Y0352391D01*
X0465906Y0352093D02*
X0463164Y0352093D01*
X0463351Y0351794D02*
X0465570Y0351794D01*
X0465224Y0351496D02*
X0463622Y0351496D01*
X0463500Y0353585D02*
X0463071Y0353585D01*
X0463220Y0353884D02*
X0463433Y0353884D01*
X0463448Y0354182D02*
X0463399Y0354182D01*
X0465744Y0355675D02*
X0468156Y0355675D01*
X0467033Y0352391D02*
X0470396Y0352391D01*
X0470396Y0352093D02*
X0467314Y0352093D01*
X0467420Y0351794D02*
X0470420Y0351794D01*
X0470559Y0351496D02*
X0467444Y0351496D01*
X0467406Y0351197D02*
X0470782Y0351197D01*
X0471083Y0350899D02*
X0467232Y0350899D01*
X0466356Y0350899D02*
X0466105Y0350899D01*
X0466105Y0350600D02*
X0471431Y0350600D01*
X0471756Y0350302D02*
X0466156Y0350302D01*
X0466249Y0350003D02*
X0472055Y0350003D01*
X0472393Y0349705D02*
X0466466Y0349705D01*
X0466885Y0349406D02*
X0472770Y0349406D01*
X0466215Y0351197D02*
X0466168Y0351197D01*
D249*
X0440676Y0366402D03*
X0435991Y0366402D03*
D250*
X0436109Y0366343D03*
X0440558Y0366343D03*
D251*
X0436207Y0366224D03*
D252*
X0436325Y0366165D03*
D253*
X0436463Y0366106D03*
X0440243Y0366106D03*
D254*
X0436581Y0366047D03*
D255*
X0436680Y0359787D03*
D256*
X0436680Y0370476D03*
D257*
X0436778Y0357543D03*
D258*
X0436778Y0374846D03*
D259*
X0437861Y0373606D03*
X0438806Y0372425D03*
X0446916Y0372161D03*
X0447861Y0371335D03*
X0448806Y0370154D03*
X0449751Y0364130D03*
X0447861Y0362594D03*
X0446916Y0363067D03*
X0447861Y0356571D03*
X0448806Y0356571D03*
X0439751Y0364157D03*
X0436916Y0363094D03*
X0436916Y0360969D03*
D260*
X0438333Y0362327D03*
X0448333Y0362299D03*
X0447861Y0358992D03*
X0449278Y0366551D03*
D261*
X0440007Y0359079D03*
D262*
X0440007Y0369827D03*
X0440125Y0369827D03*
X0450007Y0369799D03*
D263*
X0440125Y0359256D03*
D264*
X0440322Y0366165D03*
D265*
X0440440Y0366224D03*
D266*
X0445991Y0365134D03*
X0450676Y0365134D03*
D267*
X0450558Y0365193D03*
X0446109Y0365193D03*
D268*
X0446207Y0365252D03*
D269*
X0446325Y0365311D03*
D270*
X0446463Y0365370D03*
X0450243Y0365370D03*
D271*
X0446581Y0365429D03*
D272*
X0446680Y0359287D03*
D273*
X0446680Y0370390D03*
D274*
X0446778Y0357161D03*
D275*
X0446778Y0367496D03*
D276*
X0449751Y0356098D03*
D277*
X0450007Y0358579D03*
D278*
X0450125Y0358638D03*
D279*
X0450125Y0369740D03*
D280*
X0450322Y0365311D03*
D281*
X0450440Y0365252D03*
D282*
X0447900Y0452441D02*
X0447900Y0455689D01*
X0369160Y0455689D02*
X0369160Y0452441D01*
X0290420Y0452441D02*
X0290420Y0455689D01*
X0526640Y0455689D02*
X0526640Y0452441D01*
X0545083Y0360452D02*
X0546885Y0360452D01*
X0546885Y0360002D01*
X0545083Y0358200D01*
X0545083Y0357750D01*
X0548030Y0359101D02*
X0549381Y0360452D01*
X0549381Y0357750D01*
X0549831Y0359101D02*
X0548030Y0359101D01*
X0550976Y0357750D02*
X0552778Y0357750D01*
X0553923Y0358651D02*
X0553923Y0360452D01*
X0553923Y0358651D02*
X0554824Y0357750D01*
X0555724Y0358651D01*
X0555724Y0360452D01*
X0556869Y0360002D02*
X0557320Y0360452D01*
X0558221Y0360452D01*
X0558671Y0360002D01*
X0559816Y0359101D02*
X0561167Y0360452D01*
X0561167Y0357750D01*
X0561617Y0359101D02*
X0559816Y0359101D01*
X0558671Y0358200D02*
X0558221Y0357750D01*
X0557320Y0357750D01*
X0556869Y0358200D01*
X0556869Y0360002D01*
X0562762Y0360002D02*
X0563213Y0360452D01*
X0564114Y0360452D01*
X0564564Y0360002D01*
X0562762Y0358200D01*
X0563213Y0357750D01*
X0564114Y0357750D01*
X0564564Y0358200D01*
X0564564Y0360002D01*
X0565709Y0359101D02*
X0567060Y0359101D01*
X0567510Y0358651D01*
X0567510Y0358200D01*
X0567060Y0357750D01*
X0566159Y0357750D01*
X0565709Y0358200D01*
X0565709Y0359101D01*
X0566610Y0360002D01*
X0567510Y0360452D01*
X0568655Y0359101D02*
X0570007Y0359101D01*
X0570457Y0358651D01*
X0570457Y0358200D01*
X0570007Y0357750D01*
X0569106Y0357750D01*
X0568655Y0358200D01*
X0568655Y0359101D01*
X0569556Y0360002D01*
X0570457Y0360452D01*
X0562762Y0360002D02*
X0562762Y0358200D01*
X0550976Y0357750D02*
X0550976Y0360452D01*
D283*
X0188333Y0139483D02*
X0188333Y0135000D01*
X0188335Y0134860D01*
X0188341Y0134720D01*
X0188351Y0134580D01*
X0188364Y0134440D01*
X0188382Y0134301D01*
X0188404Y0134162D01*
X0188429Y0134025D01*
X0188458Y0133887D01*
X0188491Y0133751D01*
X0188528Y0133616D01*
X0188569Y0133482D01*
X0188614Y0133349D01*
X0188662Y0133217D01*
X0188714Y0133087D01*
X0188769Y0132958D01*
X0188828Y0132831D01*
X0188891Y0132705D01*
X0188957Y0132581D01*
X0189026Y0132460D01*
X0189099Y0132340D01*
X0189176Y0132222D01*
X0189255Y0132107D01*
X0189338Y0131993D01*
X0189424Y0131883D01*
X0189513Y0131774D01*
X0189605Y0131668D01*
X0189700Y0131565D01*
X0189797Y0131464D01*
X0189898Y0131367D01*
X0190001Y0131272D01*
X0190107Y0131180D01*
X0190216Y0131091D01*
X0190326Y0131005D01*
X0190440Y0130922D01*
X0190555Y0130843D01*
X0190673Y0130766D01*
X0190793Y0130693D01*
X0190914Y0130624D01*
X0191038Y0130558D01*
X0191164Y0130495D01*
X0191291Y0130436D01*
X0191420Y0130381D01*
X0191550Y0130329D01*
X0191682Y0130281D01*
X0191815Y0130236D01*
X0191949Y0130195D01*
X0192084Y0130158D01*
X0192220Y0130125D01*
X0192358Y0130096D01*
X0192495Y0130071D01*
X0192634Y0130049D01*
X0192773Y0130031D01*
X0192913Y0130018D01*
X0193053Y0130008D01*
X0193193Y0130002D01*
X0193333Y0130000D01*
X0197936Y0130000D01*
X0201873Y0130000D02*
X0206476Y0130000D01*
X0210413Y0130000D02*
X0215016Y0130000D01*
X0218953Y0130000D02*
X0223555Y0130000D01*
X0227492Y0130000D02*
X0232095Y0130000D01*
X0236032Y0130000D02*
X0240635Y0130000D01*
X0244572Y0130000D02*
X0249174Y0130000D01*
X0253111Y0130000D02*
X0257714Y0130000D01*
X0261651Y0130000D02*
X0266254Y0130000D01*
X0270191Y0130000D02*
X0274794Y0130000D01*
X0278731Y0130000D02*
X0283333Y0130000D01*
X0283473Y0130002D01*
X0283613Y0130008D01*
X0283753Y0130018D01*
X0283893Y0130031D01*
X0284032Y0130049D01*
X0284171Y0130071D01*
X0284308Y0130096D01*
X0284446Y0130125D01*
X0284582Y0130158D01*
X0284717Y0130195D01*
X0284851Y0130236D01*
X0284984Y0130281D01*
X0285116Y0130329D01*
X0285246Y0130381D01*
X0285375Y0130436D01*
X0285502Y0130495D01*
X0285628Y0130558D01*
X0285752Y0130624D01*
X0285873Y0130693D01*
X0285993Y0130766D01*
X0286111Y0130843D01*
X0286226Y0130922D01*
X0286340Y0131005D01*
X0286450Y0131091D01*
X0286559Y0131180D01*
X0286665Y0131272D01*
X0286768Y0131367D01*
X0286869Y0131464D01*
X0286966Y0131565D01*
X0287061Y0131668D01*
X0287153Y0131774D01*
X0287242Y0131883D01*
X0287328Y0131993D01*
X0287411Y0132107D01*
X0287490Y0132222D01*
X0287567Y0132340D01*
X0287640Y0132460D01*
X0287709Y0132581D01*
X0287775Y0132705D01*
X0287838Y0132831D01*
X0287897Y0132958D01*
X0287952Y0133087D01*
X0288004Y0133217D01*
X0288052Y0133349D01*
X0288097Y0133482D01*
X0288138Y0133616D01*
X0288175Y0133751D01*
X0288208Y0133887D01*
X0288237Y0134025D01*
X0288262Y0134162D01*
X0288284Y0134301D01*
X0288302Y0134440D01*
X0288315Y0134580D01*
X0288325Y0134720D01*
X0288331Y0134860D01*
X0288333Y0135000D01*
X0288333Y0139483D01*
X0288333Y0143420D02*
X0288333Y0147902D01*
X0288333Y0151839D02*
X0288333Y0156322D01*
X0288333Y0160259D02*
X0288333Y0164741D01*
X0288333Y0168678D02*
X0288333Y0173161D01*
X0288333Y0177098D02*
X0288333Y0181580D01*
X0288333Y0185517D02*
X0288333Y0190000D01*
X0288331Y0190140D01*
X0288325Y0190280D01*
X0288315Y0190420D01*
X0288302Y0190560D01*
X0288284Y0190699D01*
X0288262Y0190838D01*
X0288237Y0190975D01*
X0288208Y0191113D01*
X0288175Y0191249D01*
X0288138Y0191384D01*
X0288097Y0191518D01*
X0288052Y0191651D01*
X0288004Y0191783D01*
X0287952Y0191913D01*
X0287897Y0192042D01*
X0287838Y0192169D01*
X0287775Y0192295D01*
X0287709Y0192419D01*
X0287640Y0192540D01*
X0287567Y0192660D01*
X0287490Y0192778D01*
X0287411Y0192893D01*
X0287328Y0193007D01*
X0287242Y0193117D01*
X0287153Y0193226D01*
X0287061Y0193332D01*
X0286966Y0193435D01*
X0286869Y0193536D01*
X0286768Y0193633D01*
X0286665Y0193728D01*
X0286559Y0193820D01*
X0286450Y0193909D01*
X0286340Y0193995D01*
X0286226Y0194078D01*
X0286111Y0194157D01*
X0285993Y0194234D01*
X0285873Y0194307D01*
X0285752Y0194376D01*
X0285628Y0194442D01*
X0285502Y0194505D01*
X0285375Y0194564D01*
X0285246Y0194619D01*
X0285116Y0194671D01*
X0284984Y0194719D01*
X0284851Y0194764D01*
X0284717Y0194805D01*
X0284582Y0194842D01*
X0284446Y0194875D01*
X0284308Y0194904D01*
X0284171Y0194929D01*
X0284032Y0194951D01*
X0283893Y0194969D01*
X0283753Y0194982D01*
X0283613Y0194992D01*
X0283473Y0194998D01*
X0283333Y0195000D01*
X0278731Y0195000D01*
X0274794Y0195000D02*
X0270191Y0195000D01*
X0266254Y0195000D02*
X0261651Y0195000D01*
X0257714Y0195000D02*
X0253111Y0195000D01*
X0249174Y0195000D02*
X0244572Y0195000D01*
X0240635Y0195000D02*
X0236032Y0195000D01*
X0232095Y0195000D02*
X0227492Y0195000D01*
X0223555Y0195000D02*
X0218953Y0195000D01*
X0215016Y0195000D02*
X0210413Y0195000D01*
X0206476Y0195000D02*
X0201873Y0195000D01*
X0197936Y0195000D02*
X0193333Y0195000D01*
X0193193Y0194998D01*
X0193053Y0194992D01*
X0192913Y0194982D01*
X0192773Y0194969D01*
X0192634Y0194951D01*
X0192495Y0194929D01*
X0192358Y0194904D01*
X0192220Y0194875D01*
X0192084Y0194842D01*
X0191949Y0194805D01*
X0191815Y0194764D01*
X0191682Y0194719D01*
X0191550Y0194671D01*
X0191420Y0194619D01*
X0191291Y0194564D01*
X0191164Y0194505D01*
X0191038Y0194442D01*
X0190914Y0194376D01*
X0190793Y0194307D01*
X0190673Y0194234D01*
X0190555Y0194157D01*
X0190440Y0194078D01*
X0190326Y0193995D01*
X0190216Y0193909D01*
X0190107Y0193820D01*
X0190001Y0193728D01*
X0189898Y0193633D01*
X0189797Y0193536D01*
X0189700Y0193435D01*
X0189605Y0193332D01*
X0189513Y0193226D01*
X0189424Y0193117D01*
X0189338Y0193007D01*
X0189255Y0192893D01*
X0189176Y0192778D01*
X0189099Y0192660D01*
X0189026Y0192540D01*
X0188957Y0192419D01*
X0188891Y0192295D01*
X0188828Y0192169D01*
X0188769Y0192042D01*
X0188714Y0191913D01*
X0188662Y0191783D01*
X0188614Y0191651D01*
X0188569Y0191518D01*
X0188528Y0191384D01*
X0188491Y0191249D01*
X0188458Y0191113D01*
X0188429Y0190975D01*
X0188404Y0190838D01*
X0188382Y0190699D01*
X0188364Y0190560D01*
X0188351Y0190420D01*
X0188341Y0190280D01*
X0188335Y0190140D01*
X0188333Y0190000D01*
X0188333Y0185517D01*
X0188333Y0181580D02*
X0188333Y0177098D01*
X0188333Y0173161D02*
X0188333Y0168678D01*
X0188333Y0164741D02*
X0188333Y0160259D01*
X0188333Y0156322D02*
X0188333Y0151839D01*
X0188333Y0147902D02*
X0188333Y0143420D01*
X0303333Y0143420D02*
X0303333Y0147902D01*
X0303333Y0151839D02*
X0303333Y0156322D01*
X0303333Y0160259D02*
X0303333Y0164741D01*
X0303333Y0168678D02*
X0303333Y0173161D01*
X0303333Y0177098D02*
X0303333Y0181580D01*
X0303333Y0185517D02*
X0303333Y0190000D01*
X0303335Y0190140D01*
X0303341Y0190280D01*
X0303351Y0190420D01*
X0303364Y0190560D01*
X0303382Y0190699D01*
X0303404Y0190838D01*
X0303429Y0190975D01*
X0303458Y0191113D01*
X0303491Y0191249D01*
X0303528Y0191384D01*
X0303569Y0191518D01*
X0303614Y0191651D01*
X0303662Y0191783D01*
X0303714Y0191913D01*
X0303769Y0192042D01*
X0303828Y0192169D01*
X0303891Y0192295D01*
X0303957Y0192419D01*
X0304026Y0192540D01*
X0304099Y0192660D01*
X0304176Y0192778D01*
X0304255Y0192893D01*
X0304338Y0193007D01*
X0304424Y0193117D01*
X0304513Y0193226D01*
X0304605Y0193332D01*
X0304700Y0193435D01*
X0304797Y0193536D01*
X0304898Y0193633D01*
X0305001Y0193728D01*
X0305107Y0193820D01*
X0305216Y0193909D01*
X0305326Y0193995D01*
X0305440Y0194078D01*
X0305555Y0194157D01*
X0305673Y0194234D01*
X0305793Y0194307D01*
X0305914Y0194376D01*
X0306038Y0194442D01*
X0306164Y0194505D01*
X0306291Y0194564D01*
X0306420Y0194619D01*
X0306550Y0194671D01*
X0306682Y0194719D01*
X0306815Y0194764D01*
X0306949Y0194805D01*
X0307084Y0194842D01*
X0307220Y0194875D01*
X0307358Y0194904D01*
X0307495Y0194929D01*
X0307634Y0194951D01*
X0307773Y0194969D01*
X0307913Y0194982D01*
X0308053Y0194992D01*
X0308193Y0194998D01*
X0308333Y0195000D01*
X0312936Y0195000D01*
X0316873Y0195000D02*
X0321476Y0195000D01*
X0325413Y0195000D02*
X0330016Y0195000D01*
X0333953Y0195000D02*
X0338555Y0195000D01*
X0342492Y0195000D02*
X0347095Y0195000D01*
X0351032Y0195000D02*
X0355635Y0195000D01*
X0359572Y0195000D02*
X0364174Y0195000D01*
X0368111Y0195000D02*
X0372714Y0195000D01*
X0376651Y0195000D02*
X0381254Y0195000D01*
X0385191Y0195000D02*
X0389794Y0195000D01*
X0393731Y0195000D02*
X0398333Y0195000D01*
X0398473Y0194998D01*
X0398613Y0194992D01*
X0398753Y0194982D01*
X0398893Y0194969D01*
X0399032Y0194951D01*
X0399171Y0194929D01*
X0399308Y0194904D01*
X0399446Y0194875D01*
X0399582Y0194842D01*
X0399717Y0194805D01*
X0399851Y0194764D01*
X0399984Y0194719D01*
X0400116Y0194671D01*
X0400246Y0194619D01*
X0400375Y0194564D01*
X0400502Y0194505D01*
X0400628Y0194442D01*
X0400752Y0194376D01*
X0400873Y0194307D01*
X0400993Y0194234D01*
X0401111Y0194157D01*
X0401226Y0194078D01*
X0401340Y0193995D01*
X0401450Y0193909D01*
X0401559Y0193820D01*
X0401665Y0193728D01*
X0401768Y0193633D01*
X0401869Y0193536D01*
X0401966Y0193435D01*
X0402061Y0193332D01*
X0402153Y0193226D01*
X0402242Y0193117D01*
X0402328Y0193007D01*
X0402411Y0192893D01*
X0402490Y0192778D01*
X0402567Y0192660D01*
X0402640Y0192540D01*
X0402709Y0192419D01*
X0402775Y0192295D01*
X0402838Y0192169D01*
X0402897Y0192042D01*
X0402952Y0191913D01*
X0403004Y0191783D01*
X0403052Y0191651D01*
X0403097Y0191518D01*
X0403138Y0191384D01*
X0403175Y0191249D01*
X0403208Y0191113D01*
X0403237Y0190975D01*
X0403262Y0190838D01*
X0403284Y0190699D01*
X0403302Y0190560D01*
X0403315Y0190420D01*
X0403325Y0190280D01*
X0403331Y0190140D01*
X0403333Y0190000D01*
X0403333Y0185517D01*
X0403333Y0181580D02*
X0403333Y0177098D01*
X0403333Y0173161D02*
X0403333Y0168678D01*
X0403333Y0164741D02*
X0403333Y0160259D01*
X0403333Y0156322D02*
X0403333Y0151839D01*
X0403333Y0147902D02*
X0403333Y0143420D01*
X0403333Y0139483D02*
X0403333Y0135000D01*
X0403331Y0134860D01*
X0403325Y0134720D01*
X0403315Y0134580D01*
X0403302Y0134440D01*
X0403284Y0134301D01*
X0403262Y0134162D01*
X0403237Y0134025D01*
X0403208Y0133887D01*
X0403175Y0133751D01*
X0403138Y0133616D01*
X0403097Y0133482D01*
X0403052Y0133349D01*
X0403004Y0133217D01*
X0402952Y0133087D01*
X0402897Y0132958D01*
X0402838Y0132831D01*
X0402775Y0132705D01*
X0402709Y0132581D01*
X0402640Y0132460D01*
X0402567Y0132340D01*
X0402490Y0132222D01*
X0402411Y0132107D01*
X0402328Y0131993D01*
X0402242Y0131883D01*
X0402153Y0131774D01*
X0402061Y0131668D01*
X0401966Y0131565D01*
X0401869Y0131464D01*
X0401768Y0131367D01*
X0401665Y0131272D01*
X0401559Y0131180D01*
X0401450Y0131091D01*
X0401340Y0131005D01*
X0401226Y0130922D01*
X0401111Y0130843D01*
X0400993Y0130766D01*
X0400873Y0130693D01*
X0400752Y0130624D01*
X0400628Y0130558D01*
X0400502Y0130495D01*
X0400375Y0130436D01*
X0400246Y0130381D01*
X0400116Y0130329D01*
X0399984Y0130281D01*
X0399851Y0130236D01*
X0399717Y0130195D01*
X0399582Y0130158D01*
X0399446Y0130125D01*
X0399308Y0130096D01*
X0399171Y0130071D01*
X0399032Y0130049D01*
X0398893Y0130031D01*
X0398753Y0130018D01*
X0398613Y0130008D01*
X0398473Y0130002D01*
X0398333Y0130000D01*
X0393731Y0130000D01*
X0389794Y0130000D02*
X0385191Y0130000D01*
X0381254Y0130000D02*
X0376651Y0130000D01*
X0372714Y0130000D02*
X0368111Y0130000D01*
X0364174Y0130000D02*
X0359572Y0130000D01*
X0355635Y0130000D02*
X0351032Y0130000D01*
X0347095Y0130000D02*
X0342492Y0130000D01*
X0338555Y0130000D02*
X0333953Y0130000D01*
X0330016Y0130000D02*
X0325413Y0130000D01*
X0321476Y0130000D02*
X0316873Y0130000D01*
X0312936Y0130000D02*
X0308333Y0130000D01*
X0308193Y0130002D01*
X0308053Y0130008D01*
X0307913Y0130018D01*
X0307773Y0130031D01*
X0307634Y0130049D01*
X0307495Y0130071D01*
X0307358Y0130096D01*
X0307220Y0130125D01*
X0307084Y0130158D01*
X0306949Y0130195D01*
X0306815Y0130236D01*
X0306682Y0130281D01*
X0306550Y0130329D01*
X0306420Y0130381D01*
X0306291Y0130436D01*
X0306164Y0130495D01*
X0306038Y0130558D01*
X0305914Y0130624D01*
X0305793Y0130693D01*
X0305673Y0130766D01*
X0305555Y0130843D01*
X0305440Y0130922D01*
X0305326Y0131005D01*
X0305216Y0131091D01*
X0305107Y0131180D01*
X0305001Y0131272D01*
X0304898Y0131367D01*
X0304797Y0131464D01*
X0304700Y0131565D01*
X0304605Y0131668D01*
X0304513Y0131774D01*
X0304424Y0131883D01*
X0304338Y0131993D01*
X0304255Y0132107D01*
X0304176Y0132222D01*
X0304099Y0132340D01*
X0304026Y0132460D01*
X0303957Y0132581D01*
X0303891Y0132705D01*
X0303828Y0132831D01*
X0303769Y0132958D01*
X0303714Y0133087D01*
X0303662Y0133217D01*
X0303614Y0133349D01*
X0303569Y0133482D01*
X0303528Y0133616D01*
X0303491Y0133751D01*
X0303458Y0133887D01*
X0303429Y0134025D01*
X0303404Y0134162D01*
X0303382Y0134301D01*
X0303364Y0134440D01*
X0303351Y0134580D01*
X0303341Y0134720D01*
X0303335Y0134860D01*
X0303333Y0135000D01*
X0303333Y0139483D01*
M02*
