G75*
%MOIN*%
%OFA0B0*%
%FSLAX25Y25*%
%IPPOS*%
%LPD*%
%AMOC8*
5,1,8,0,0,1.08239X$1,22.5*
%
%ADD10C,0.00299*%
%ADD11R,0.00157X0.13858*%
%ADD12R,0.00157X0.14331*%
%ADD13R,0.00157X0.14646*%
%ADD14R,0.00157X0.14961*%
%ADD15R,0.00157X0.15118*%
%ADD16R,0.00157X0.15276*%
%ADD17R,0.00157X0.15433*%
%ADD18R,0.00157X0.02835*%
%ADD19R,0.00157X0.11969*%
%ADD20R,0.00157X0.02520*%
%ADD21R,0.00157X0.01102*%
%ADD22R,0.00157X0.03150*%
%ADD23R,0.00157X0.04567*%
%ADD24R,0.00157X0.02205*%
%ADD25R,0.00157X0.00787*%
%ADD26R,0.00157X0.02677*%
%ADD27R,0.00157X0.04409*%
%ADD28R,0.00157X0.02047*%
%ADD29R,0.00157X0.00630*%
%ADD30R,0.00157X0.01890*%
%ADD31R,0.00157X0.01732*%
%ADD32R,0.00157X0.01575*%
%ADD33R,0.00157X0.00945*%
%ADD34R,0.00157X0.02362*%
%ADD35R,0.00157X0.01260*%
%ADD36R,0.00157X0.01417*%
%ADD37R,0.00157X0.04252*%
%ADD38R,0.00157X0.00315*%
%ADD39R,0.00157X0.04094*%
%ADD40R,0.00157X0.00472*%
%ADD41R,0.00157X0.03937*%
%ADD42R,0.00157X0.03307*%
%ADD43R,0.00157X0.03780*%
%ADD44R,0.00157X0.03465*%
%ADD45R,0.00157X0.02992*%
%ADD46R,0.00157X0.12913*%
%ADD47R,0.00157X0.13386*%
%ADD48R,0.00157X0.13701*%
%ADD49R,0.00157X0.14016*%
%ADD50R,0.00157X0.14173*%
%ADD51R,0.00157X0.14488*%
%ADD52R,0.00157X0.07087*%
%ADD53R,0.00157X0.04882*%
%ADD54R,0.00157X0.05039*%
%ADD55R,0.00157X0.05197*%
%ADD56R,0.00157X0.03622*%
%ADD57R,0.00157X0.00157*%
%ADD58R,0.00157X0.11024*%
%ADD59R,0.00157X0.12756*%
%ADD60R,0.01181X0.00236*%
%ADD61R,0.00945X0.00236*%
%ADD62R,0.01654X0.00236*%
%ADD63R,0.01417X0.00236*%
%ADD64R,0.00472X0.00236*%
%ADD65R,0.02126X0.00236*%
%ADD66R,0.00709X0.00236*%
%ADD67R,0.03543X0.00236*%
%ADD68R,0.02835X0.00236*%
%ADD69R,0.04016X0.00236*%
%ADD70R,0.03307X0.00236*%
%ADD71R,0.03780X0.00236*%
%ADD72R,0.01890X0.00236*%
%ADD73R,0.04252X0.00236*%
%ADD74R,0.04488X0.00236*%
%ADD75R,0.03071X0.00236*%
%ADD76R,0.02598X0.00236*%
%ADD77R,0.02362X0.00236*%
%ADD78R,0.00236X0.00236*%
%ADD79R,0.00472X0.00079*%
%ADD80R,0.01339X0.00079*%
%ADD81R,0.01260X0.00079*%
%ADD82R,0.00551X0.00079*%
%ADD83R,0.01102X0.00079*%
%ADD84R,0.01417X0.00079*%
%ADD85R,0.01654X0.00079*%
%ADD86R,0.01496X0.00079*%
%ADD87R,0.01890X0.00079*%
%ADD88R,0.02126X0.00079*%
%ADD89R,0.02205X0.00079*%
%ADD90R,0.01575X0.00079*%
%ADD91R,0.02520X0.00079*%
%ADD92R,0.02441X0.00079*%
%ADD93R,0.02756X0.00079*%
%ADD94R,0.02598X0.00079*%
%ADD95R,0.02913X0.00079*%
%ADD96R,0.04252X0.00079*%
%ADD97R,0.03150X0.00079*%
%ADD98R,0.04331X0.00079*%
%ADD99R,0.01732X0.00079*%
%ADD100R,0.03307X0.00079*%
%ADD101R,0.04409X0.00079*%
%ADD102R,0.01811X0.00079*%
%ADD103R,0.03386X0.00079*%
%ADD104R,0.03543X0.00079*%
%ADD105R,0.04488X0.00079*%
%ADD106R,0.03622X0.00079*%
%ADD107R,0.04567X0.00079*%
%ADD108R,0.03780X0.00079*%
%ADD109R,0.01969X0.00079*%
%ADD110R,0.02047X0.00079*%
%ADD111R,0.03701X0.00079*%
%ADD112R,0.01024X0.00079*%
%ADD113R,0.00709X0.00079*%
%ADD114R,0.02283X0.00079*%
%ADD115R,0.00236X0.00079*%
%ADD116R,0.02362X0.00079*%
%ADD117R,0.01181X0.00079*%
%ADD118R,0.00157X0.00079*%
%ADD119R,0.00394X0.00079*%
%ADD120R,0.00630X0.00079*%
%ADD121R,0.00866X0.00079*%
%ADD122R,0.03858X0.00079*%
%ADD123R,0.03465X0.00079*%
%ADD124R,0.02992X0.00079*%
%ADD125R,0.04173X0.00079*%
%ADD126R,0.02835X0.00079*%
%ADD127R,0.03228X0.00079*%
%ADD128R,0.04646X0.00079*%
%ADD129R,0.05276X0.00079*%
%ADD130R,0.05748X0.00079*%
%ADD131R,0.06299X0.00079*%
%ADD132R,0.06693X0.00079*%
%ADD133R,0.07165X0.00079*%
%ADD134R,0.07480X0.00079*%
%ADD135R,0.07795X0.00079*%
%ADD136R,0.08268X0.00079*%
%ADD137R,0.08504X0.00079*%
%ADD138R,0.08898X0.00079*%
%ADD139R,0.09213X0.00079*%
%ADD140R,0.09449X0.00079*%
%ADD141R,0.09764X0.00079*%
%ADD142R,0.10000X0.00079*%
%ADD143R,0.10236X0.00079*%
%ADD144R,0.10551X0.00079*%
%ADD145R,0.10709X0.00079*%
%ADD146R,0.11024X0.00079*%
%ADD147R,0.11181X0.00079*%
%ADD148R,0.11417X0.00079*%
%ADD149R,0.11654X0.00079*%
%ADD150R,0.11811X0.00079*%
%ADD151R,0.12047X0.00079*%
%ADD152R,0.12283X0.00079*%
%ADD153R,0.12441X0.00079*%
%ADD154R,0.12598X0.00079*%
%ADD155R,0.12835X0.00079*%
%ADD156R,0.12992X0.00079*%
%ADD157R,0.13150X0.00079*%
%ADD158R,0.13307X0.00079*%
%ADD159R,0.13465X0.00079*%
%ADD160R,0.13622X0.00079*%
%ADD161R,0.13858X0.00079*%
%ADD162R,0.13937X0.00079*%
%ADD163R,0.14094X0.00079*%
%ADD164R,0.14252X0.00079*%
%ADD165R,0.14409X0.00079*%
%ADD166R,0.14567X0.00079*%
%ADD167R,0.14724X0.00079*%
%ADD168R,0.14882X0.00079*%
%ADD169R,0.14961X0.00079*%
%ADD170R,0.15118X0.00079*%
%ADD171R,0.15197X0.00079*%
%ADD172R,0.15354X0.00079*%
%ADD173R,0.15512X0.00079*%
%ADD174R,0.15591X0.00079*%
%ADD175R,0.15669X0.00079*%
%ADD176R,0.15827X0.00079*%
%ADD177R,0.15984X0.00079*%
%ADD178R,0.16063X0.00079*%
%ADD179R,0.16142X0.00079*%
%ADD180R,0.16220X0.00079*%
%ADD181R,0.16378X0.00079*%
%ADD182R,0.16457X0.00079*%
%ADD183R,0.16535X0.00079*%
%ADD184R,0.16693X0.00079*%
%ADD185R,0.16772X0.00079*%
%ADD186R,0.16850X0.00079*%
%ADD187R,0.16929X0.00079*%
%ADD188R,0.17008X0.00079*%
%ADD189R,0.17087X0.00079*%
%ADD190R,0.17244X0.00079*%
%ADD191R,0.17323X0.00079*%
%ADD192R,0.17480X0.00079*%
%ADD193R,0.17559X0.00079*%
%ADD194R,0.17717X0.00079*%
%ADD195R,0.17795X0.00079*%
%ADD196R,0.17874X0.00079*%
%ADD197R,0.17953X0.00079*%
%ADD198R,0.18031X0.00079*%
%ADD199R,0.18110X0.00079*%
%ADD200R,0.18189X0.00079*%
%ADD201R,0.18268X0.00079*%
%ADD202R,0.18346X0.00079*%
%ADD203R,0.18425X0.00079*%
%ADD204R,0.18504X0.00079*%
%ADD205R,0.18583X0.00079*%
%ADD206R,0.18661X0.00079*%
%ADD207R,0.02677X0.00079*%
%ADD208R,0.05827X0.00079*%
%ADD209R,0.06220X0.00079*%
%ADD210R,0.06142X0.00079*%
%ADD211R,0.06063X0.00079*%
%ADD212R,0.05984X0.00079*%
%ADD213R,0.05906X0.00079*%
%ADD214R,0.05669X0.00079*%
%ADD215R,0.05512X0.00079*%
%ADD216R,0.05591X0.00079*%
%ADD217R,0.05433X0.00079*%
%ADD218R,0.05354X0.00079*%
%ADD219R,0.05197X0.00079*%
%ADD220R,0.05118X0.00079*%
%ADD221R,0.04961X0.00079*%
%ADD222R,0.04803X0.00079*%
%ADD223R,0.04724X0.00079*%
%ADD224R,0.04094X0.00079*%
%ADD225R,0.04016X0.00079*%
%ADD226R,0.03937X0.00079*%
%ADD227R,0.05039X0.00079*%
%ADD228R,0.03071X0.00079*%
%ADD229R,0.04882X0.00079*%
%ADD230R,0.00079X0.00079*%
%ADD231R,0.07244X0.00079*%
%ADD232R,0.07087X0.00079*%
%ADD233R,0.07008X0.00079*%
%ADD234R,0.06929X0.00079*%
%ADD235R,0.06850X0.00079*%
%ADD236R,0.06614X0.00079*%
%ADD237R,0.06535X0.00079*%
%ADD238R,0.06378X0.00079*%
%ADD239R,0.00157X0.11181*%
%ADD240R,0.00157X0.11496*%
%ADD241R,0.00157X0.11654*%
%ADD242R,0.00157X0.13071*%
%ADD243R,0.00157X0.13228*%
%ADD244R,0.00157X0.11811*%
%ADD245R,0.00157X0.14803*%
%ADD246R,0.00157X0.15906*%
%ADD247R,0.00157X0.16063*%
%ADD248R,0.00157X0.16220*%
%ADD249R,0.00157X0.16378*%
%ADD250R,0.00157X0.09921*%
%ADD251R,0.08858X0.00118*%
%ADD252R,0.09567X0.00118*%
%ADD253R,0.10039X0.00079*%
%ADD254R,0.10512X0.00157*%
%ADD255R,0.10748X0.00118*%
%ADD256R,0.10984X0.00118*%
%ADD257R,0.11220X0.00079*%
%ADD258R,0.07913X0.00118*%
%ADD259R,0.02953X0.00118*%
%ADD260R,0.03543X0.00157*%
%ADD261R,0.00472X0.00157*%
%ADD262R,0.01535X0.00157*%
%ADD263R,0.02835X0.00157*%
%ADD264R,0.03543X0.00118*%
%ADD265R,0.00472X0.00118*%
%ADD266R,0.01063X0.00118*%
%ADD267R,0.02598X0.00118*%
%ADD268R,0.00354X0.00118*%
%ADD269R,0.00827X0.00118*%
%ADD270R,0.00591X0.00118*%
%ADD271R,0.03661X0.00157*%
%ADD272R,0.00354X0.00157*%
%ADD273R,0.02598X0.00157*%
%ADD274R,0.03661X0.00118*%
%ADD275R,0.00709X0.00118*%
%ADD276R,0.02480X0.00118*%
%ADD277R,0.03780X0.00118*%
%ADD278R,0.00236X0.00118*%
%ADD279R,0.03780X0.00157*%
%ADD280R,0.00945X0.00157*%
%ADD281R,0.00236X0.00157*%
%ADD282R,0.00827X0.00157*%
%ADD283R,0.00945X0.00118*%
%ADD284R,0.01654X0.00157*%
%ADD285R,0.02717X0.00157*%
%ADD286R,0.01417X0.00118*%
%ADD287R,0.02717X0.00118*%
%ADD288R,0.02835X0.00118*%
%ADD289R,0.01299X0.00118*%
%ADD290R,0.01181X0.00157*%
%ADD291R,0.03071X0.00157*%
%ADD292R,0.01181X0.00118*%
%ADD293R,0.03189X0.00118*%
%ADD294R,0.02008X0.00118*%
%ADD295R,0.03425X0.00118*%
%ADD296R,0.02362X0.00157*%
%ADD297R,0.01890X0.00157*%
%ADD298R,0.02244X0.00118*%
%ADD299R,0.01890X0.00118*%
%ADD300R,0.02126X0.00118*%
%ADD301R,0.02126X0.00157*%
%ADD302R,0.11220X0.00118*%
%ADD303R,0.10512X0.00118*%
%ADD304R,0.10039X0.00118*%
%ADD305R,0.00118X0.17598*%
%ADD306R,0.00118X0.17480*%
%ADD307R,0.00079X0.17362*%
%ADD308R,0.00157X0.17244*%
%ADD309R,0.00118X0.17126*%
%ADD310R,0.00118X0.17008*%
%ADD311R,0.00079X0.16890*%
%ADD312R,0.00118X0.11220*%
%ADD313R,0.00118X0.05197*%
%ADD314R,0.00157X0.00354*%
%ADD315R,0.00157X0.01299*%
%ADD316R,0.00157X0.00709*%
%ADD317R,0.00157X0.01535*%
%ADD318R,0.00118X0.01417*%
%ADD319R,0.00118X0.00236*%
%ADD320R,0.00118X0.01181*%
%ADD321R,0.00118X0.01063*%
%ADD322R,0.00118X0.00591*%
%ADD323R,0.00118X0.00945*%
%ADD324R,0.00118X0.00354*%
%ADD325R,0.00118X0.01299*%
%ADD326R,0.00118X0.00709*%
%ADD327R,0.00157X0.00236*%
%ADD328R,0.00157X0.01063*%
%ADD329R,0.00118X0.00827*%
%ADD330R,0.00118X0.01890*%
%ADD331R,0.00118X0.00472*%
%ADD332R,0.00118X0.02480*%
%ADD333R,0.00118X0.02362*%
%ADD334R,0.00157X0.00591*%
%ADD335R,0.00157X0.02126*%
%ADD336R,0.00157X0.02244*%
%ADD337R,0.00118X0.02126*%
%ADD338R,0.00118X0.02244*%
%ADD339R,0.00157X0.00118*%
%ADD340R,0.00118X0.00118*%
%ADD341R,0.00118X0.02008*%
%ADD342R,0.00118X0.02598*%
%ADD343R,0.00157X0.00827*%
%ADD344R,0.00157X0.02008*%
%ADD345R,0.00157X0.01181*%
%ADD346R,0.00118X0.01535*%
%ADD347R,0.00118X0.01772*%
%ADD348R,0.00118X0.16890*%
%ADD349R,0.00118X0.17244*%
%ADD350R,0.00118X0.17362*%
%ADD351R,0.00157X0.15748*%
%ADD352R,0.00157X0.15591*%
%ADD353R,0.08622X0.00118*%
%ADD354R,0.09094X0.00079*%
%ADD355R,0.09567X0.00157*%
%ADD356R,0.09803X0.00118*%
%ADD357R,0.10276X0.00079*%
%ADD358R,0.02244X0.00157*%
%ADD359R,0.00709X0.00157*%
%ADD360R,0.02362X0.00118*%
%ADD361R,0.00118X0.00157*%
%ADD362R,0.02480X0.00157*%
%ADD363R,0.01299X0.00157*%
%ADD364R,0.01772X0.00118*%
%ADD365R,0.10276X0.00118*%
%ADD366R,0.09094X0.00118*%
%ADD367R,0.07913X0.00079*%
%ADD368R,0.01417X0.00157*%
%ADD369R,0.07913X0.00157*%
%ADD370R,0.01535X0.00118*%
%ADD371R,0.01654X0.00118*%
%ADD372R,0.01772X0.00079*%
%ADD373R,0.06142X0.00118*%
%ADD374R,0.02008X0.00157*%
%ADD375R,0.00591X0.00157*%
%ADD376R,0.11693X0.00118*%
%ADD377R,0.12402X0.00118*%
%ADD378R,0.12874X0.00079*%
%ADD379R,0.13346X0.00157*%
%ADD380R,0.13583X0.00118*%
%ADD381R,0.13819X0.00118*%
%ADD382R,0.14055X0.00079*%
%ADD383R,0.05669X0.00118*%
%ADD384R,0.08031X0.00118*%
%ADD385R,0.03898X0.00118*%
%ADD386R,0.01063X0.00157*%
%ADD387R,0.01772X0.00157*%
%ADD388R,0.03898X0.00157*%
%ADD389R,0.14055X0.00118*%
%ADD390R,0.13346X0.00118*%
%ADD391R,0.12874X0.00118*%
%ADD392R,0.00276X0.00276*%
%ADD393R,0.04409X0.00276*%
%ADD394R,0.01654X0.00276*%
%ADD395R,0.00551X0.00276*%
%ADD396R,0.02756X0.00276*%
%ADD397R,0.01378X0.00315*%
%ADD398R,0.01654X0.00315*%
%ADD399R,0.05512X0.00315*%
%ADD400R,0.03307X0.00315*%
%ADD401R,0.02756X0.00315*%
%ADD402R,0.04134X0.00315*%
%ADD403R,0.01929X0.00276*%
%ADD404R,0.05787X0.00276*%
%ADD405R,0.04134X0.00276*%
%ADD406R,0.03307X0.00276*%
%ADD407R,0.04685X0.00276*%
%ADD408R,0.02205X0.00236*%
%ADD409R,0.01929X0.00236*%
%ADD410R,0.05787X0.00236*%
%ADD411R,0.04685X0.00236*%
%ADD412R,0.03858X0.00236*%
%ADD413R,0.04961X0.00236*%
%ADD414R,0.02480X0.00315*%
%ADD415R,0.01929X0.00315*%
%ADD416R,0.05787X0.00315*%
%ADD417R,0.05236X0.00315*%
%ADD418R,0.02205X0.00315*%
%ADD419R,0.04409X0.00315*%
%ADD420R,0.02480X0.00276*%
%ADD421R,0.05236X0.00276*%
%ADD422R,0.05512X0.00276*%
%ADD423R,0.06063X0.00276*%
%ADD424R,0.02205X0.00276*%
%ADD425R,0.03031X0.00236*%
%ADD426R,0.02480X0.00236*%
%ADD427R,0.03031X0.00315*%
%ADD428R,0.03583X0.00276*%
%ADD429R,0.03858X0.00276*%
%ADD430R,0.07717X0.00276*%
%ADD431R,0.04685X0.00315*%
%ADD432R,0.04961X0.00315*%
%ADD433R,0.04961X0.00276*%
%ADD434R,0.01102X0.00276*%
%ADD435R,0.03031X0.00276*%
%ADD436R,0.05236X0.00236*%
%ADD437R,0.04409X0.00236*%
%ADD438R,0.01378X0.00236*%
%ADD439R,0.02756X0.00236*%
%ADD440R,0.01102X0.00236*%
%ADD441R,0.00827X0.00276*%
%ADD442R,0.03858X0.00315*%
%ADD443R,0.06890X0.00315*%
%ADD444R,0.07165X0.00276*%
%ADD445R,0.07165X0.00236*%
%ADD446R,0.06614X0.00276*%
%ADD447R,0.00827X0.00236*%
%ADD448R,0.00276X0.00315*%
%ADD449R,0.03583X0.00315*%
%ADD450R,0.01378X0.00276*%
%ADD451R,0.00157X0.10551*%
%ADD452R,0.00157X0.07874*%
%ADD453R,0.00157X0.08031*%
%ADD454R,0.00157X0.08346*%
%ADD455R,0.00157X0.08504*%
%ADD456R,0.00157X0.09606*%
%ADD457R,0.00157X0.09764*%
%ADD458R,0.00157X0.10079*%
%ADD459R,0.00157X0.08661*%
%ADD460R,0.00157X0.23425*%
%ADD461R,0.00118X0.23543*%
%ADD462R,0.00157X0.23819*%
%ADD463R,0.00118X0.23976*%
%ADD464R,0.00157X0.24094*%
%ADD465R,0.00118X0.24252*%
%ADD466R,0.00157X0.13898*%
%ADD467R,0.00118X0.04961*%
%ADD468R,0.00118X0.02205*%
%ADD469R,0.00118X0.06063*%
%ADD470R,0.00118X0.02756*%
%ADD471R,0.00118X0.03701*%
%ADD472R,0.00157X0.01772*%
%ADD473R,0.00157X0.01929*%
%ADD474R,0.00157X0.00433*%
%ADD475R,0.00157X0.01811*%
%ADD476R,0.00157X0.00984*%
%ADD477R,0.00157X0.01496*%
%ADD478R,0.00118X0.01929*%
%ADD479R,0.00118X0.01654*%
%ADD480R,0.00118X0.00433*%
%ADD481R,0.00118X0.02047*%
%ADD482R,0.00118X0.01102*%
%ADD483R,0.00118X0.01496*%
%ADD484R,0.00157X0.00551*%
%ADD485R,0.00157X0.01378*%
%ADD486R,0.00157X0.01654*%
%ADD487R,0.00118X0.00394*%
%ADD488R,0.00118X0.01260*%
%ADD489R,0.00118X0.00551*%
%ADD490R,0.00118X0.00984*%
%ADD491R,0.00157X0.02323*%
%ADD492R,0.00157X0.00669*%
%ADD493R,0.00118X0.00669*%
%ADD494R,0.00157X0.02598*%
%ADD495R,0.00157X0.00394*%
%ADD496R,0.00118X0.01811*%
%ADD497R,0.00118X0.02087*%
%ADD498R,0.00157X0.02756*%
%ADD499R,0.00118X0.02874*%
%ADD500R,0.00157X0.02874*%
%ADD501R,0.00118X0.00276*%
%ADD502R,0.00157X0.00276*%
%ADD503R,0.00118X0.01378*%
%ADD504R,0.00118X0.01220*%
%ADD505R,0.00157X0.01220*%
%ADD506R,0.00157X0.08268*%
%ADD507R,0.00118X0.08425*%
%ADD508R,0.00118X0.15433*%
%ADD509R,0.00157X0.26299*%
%ADD510R,0.00118X0.26181*%
%ADD511R,0.00157X0.26024*%
%ADD512R,0.00118X0.25906*%
%ADD513R,0.00157X0.25748*%
%ADD514R,0.00118X0.25630*%
%ADD515R,0.00157X0.14055*%
%ADD516R,0.00118X0.05787*%
%ADD517R,0.00118X0.06772*%
%ADD518R,0.00118X0.03031*%
%ADD519R,0.00157X0.02480*%
%ADD520R,0.00118X0.02323*%
%ADD521R,0.00118X0.02638*%
%ADD522R,0.00118X0.02913*%
%ADD523R,0.00157X0.03031*%
%ADD524R,0.00118X0.03307*%
%ADD525R,0.00157X0.09370*%
%ADD526R,0.00118X0.09803*%
%ADD527R,0.00118X0.15551*%
%ADD528C,0.00300*%
D10*
X0049616Y0176092D02*
X0048711Y0176998D01*
X0049538Y0178100D01*
X0049498Y0178179D01*
X0049459Y0178218D01*
X0049420Y0178297D01*
X0049420Y0178336D01*
X0049380Y0178415D01*
X0049341Y0178454D01*
X0049301Y0178533D01*
X0049301Y0178572D01*
X0049223Y0178730D01*
X0049223Y0178769D01*
X0049183Y0178848D01*
X0049183Y0178887D01*
X0049144Y0178966D01*
X0049144Y0179045D01*
X0049105Y0179084D01*
X0047727Y0179320D01*
X0047727Y0180580D01*
X0049144Y0180816D01*
X0049144Y0180974D01*
X0049183Y0181013D01*
X0049183Y0181092D01*
X0049223Y0181131D01*
X0049262Y0181210D01*
X0049262Y0181289D01*
X0049301Y0181328D01*
X0049301Y0181407D01*
X0049341Y0181446D01*
X0049380Y0181525D01*
X0049420Y0181564D01*
X0049420Y0181643D01*
X0049459Y0181683D01*
X0049498Y0181761D01*
X0049538Y0181801D01*
X0048711Y0182942D01*
X0049616Y0183809D01*
X0050758Y0183021D01*
X0050798Y0183061D01*
X0050876Y0183100D01*
X0050916Y0183100D01*
X0050994Y0183139D01*
X0051034Y0183179D01*
X0051112Y0183218D01*
X0051152Y0183218D01*
X0051231Y0183257D01*
X0051270Y0183297D01*
X0051349Y0183297D01*
X0051427Y0183336D01*
X0051467Y0183336D01*
X0051546Y0183375D01*
X0051585Y0183375D01*
X0051664Y0183415D01*
X0051742Y0183415D01*
X0051979Y0184793D01*
X0053238Y0184793D01*
X0053475Y0183415D01*
X0053514Y0183415D01*
X0053593Y0183375D01*
X0053672Y0183375D01*
X0053711Y0183336D01*
X0053790Y0183336D01*
X0053868Y0183297D01*
X0053908Y0183297D01*
X0053986Y0183257D01*
X0054026Y0183218D01*
X0054105Y0183218D01*
X0054144Y0183179D01*
X0054223Y0183139D01*
X0054262Y0183100D01*
X0054341Y0183100D01*
X0054380Y0183061D01*
X0054459Y0183021D01*
X0055601Y0183809D01*
X0056467Y0182942D01*
X0055679Y0181801D01*
X0055719Y0181761D01*
X0055719Y0181683D01*
X0055758Y0181643D01*
X0055798Y0181564D01*
X0055837Y0181525D01*
X0055837Y0181446D01*
X0055876Y0181407D01*
X0055916Y0181328D01*
X0055916Y0181289D01*
X0055994Y0181131D01*
X0055994Y0181092D01*
X0056034Y0181013D01*
X0056034Y0180974D01*
X0056073Y0180895D01*
X0056073Y0180816D01*
X0057451Y0180580D01*
X0057451Y0179320D01*
X0056073Y0179084D01*
X0056073Y0179045D01*
X0056034Y0178966D01*
X0056034Y0178887D01*
X0055994Y0178848D01*
X0055994Y0178769D01*
X0055955Y0178730D01*
X0055916Y0178651D01*
X0055916Y0178572D01*
X0055876Y0178533D01*
X0055876Y0178454D01*
X0055837Y0178415D01*
X0055798Y0178336D01*
X0055758Y0178297D01*
X0055719Y0178218D01*
X0055719Y0178179D01*
X0055679Y0178100D01*
X0056467Y0176998D01*
X0055601Y0176092D01*
X0054459Y0176879D01*
X0054420Y0176879D01*
X0054380Y0176840D01*
X0054341Y0176840D01*
X0054301Y0176801D01*
X0054262Y0176801D01*
X0054223Y0176761D01*
X0054183Y0176761D01*
X0054144Y0176722D01*
X0054105Y0176722D01*
X0054065Y0176683D01*
X0054026Y0176683D01*
X0053986Y0176643D01*
X0053908Y0176643D01*
X0053868Y0176604D01*
X0053081Y0178730D01*
X0053199Y0178769D01*
X0053357Y0178848D01*
X0053435Y0178927D01*
X0053514Y0178966D01*
X0053593Y0179045D01*
X0053632Y0179123D01*
X0053711Y0179202D01*
X0053790Y0179360D01*
X0053829Y0179478D01*
X0053908Y0179635D01*
X0053908Y0179753D01*
X0053947Y0179872D01*
X0053947Y0180108D01*
X0053790Y0180580D01*
X0053632Y0180816D01*
X0053553Y0180895D01*
X0053435Y0180974D01*
X0053357Y0181053D01*
X0053238Y0181131D01*
X0053120Y0181171D01*
X0053002Y0181249D01*
X0052884Y0181249D01*
X0052727Y0181289D01*
X0052451Y0181289D01*
X0052333Y0181249D01*
X0052215Y0181249D01*
X0052097Y0181171D01*
X0051979Y0181131D01*
X0051742Y0180974D01*
X0051585Y0180816D01*
X0051427Y0180580D01*
X0051388Y0180462D01*
X0051309Y0180344D01*
X0051309Y0180226D01*
X0051270Y0180108D01*
X0051270Y0179753D01*
X0051309Y0179635D01*
X0051309Y0179557D01*
X0051349Y0179478D01*
X0051388Y0179360D01*
X0051427Y0179281D01*
X0051506Y0179202D01*
X0051546Y0179123D01*
X0051703Y0178966D01*
X0051782Y0178927D01*
X0051860Y0178848D01*
X0052097Y0178730D01*
X0051309Y0176604D01*
X0051309Y0176643D01*
X0051231Y0176643D01*
X0051191Y0176683D01*
X0051152Y0176683D01*
X0051112Y0176722D01*
X0051073Y0176722D01*
X0051034Y0176761D01*
X0050955Y0176761D01*
X0050916Y0176801D01*
X0050876Y0176801D01*
X0050798Y0176879D01*
X0050758Y0176879D01*
X0049616Y0176092D01*
X0049482Y0176226D02*
X0049811Y0176226D01*
X0050243Y0176524D02*
X0049185Y0176524D01*
X0048887Y0176822D02*
X0050674Y0176822D01*
X0050855Y0176822D02*
X0051390Y0176822D01*
X0051500Y0177119D02*
X0048802Y0177119D01*
X0049026Y0177417D02*
X0051611Y0177417D01*
X0051721Y0177715D02*
X0049249Y0177715D01*
X0049472Y0178012D02*
X0051831Y0178012D01*
X0051941Y0178310D02*
X0049420Y0178310D01*
X0049284Y0178608D02*
X0052052Y0178608D01*
X0051803Y0178906D02*
X0049174Y0178906D01*
X0048409Y0179203D02*
X0051505Y0179203D01*
X0051337Y0179501D02*
X0047727Y0179501D01*
X0047727Y0179799D02*
X0051270Y0179799D01*
X0051270Y0180097D02*
X0047727Y0180097D01*
X0047727Y0180394D02*
X0051343Y0180394D01*
X0051502Y0180692D02*
X0048397Y0180692D01*
X0049160Y0180990D02*
X0051766Y0180990D01*
X0052447Y0181287D02*
X0049262Y0181287D01*
X0049420Y0181585D02*
X0055787Y0181585D01*
X0055736Y0181883D02*
X0049478Y0181883D01*
X0049263Y0182181D02*
X0055941Y0182181D01*
X0056147Y0182478D02*
X0049047Y0182478D01*
X0048831Y0182776D02*
X0056352Y0182776D01*
X0056335Y0183074D02*
X0054535Y0183074D01*
X0054367Y0183074D02*
X0050824Y0183074D01*
X0050682Y0183074D02*
X0048848Y0183074D01*
X0049159Y0183372D02*
X0050250Y0183372D01*
X0049818Y0183669D02*
X0049471Y0183669D01*
X0051538Y0183372D02*
X0053675Y0183372D01*
X0053431Y0183669D02*
X0051786Y0183669D01*
X0051837Y0183967D02*
X0053380Y0183967D01*
X0053329Y0184265D02*
X0051888Y0184265D01*
X0051939Y0184562D02*
X0053278Y0184562D01*
X0054967Y0183372D02*
X0056038Y0183372D01*
X0055740Y0183669D02*
X0055399Y0183669D01*
X0055916Y0181287D02*
X0052732Y0181287D01*
X0053419Y0180990D02*
X0056034Y0180990D01*
X0056799Y0180692D02*
X0053715Y0180692D01*
X0053852Y0180394D02*
X0057451Y0180394D01*
X0057451Y0180097D02*
X0053947Y0180097D01*
X0053923Y0179799D02*
X0057451Y0179799D01*
X0057451Y0179501D02*
X0053841Y0179501D01*
X0053711Y0179203D02*
X0056769Y0179203D01*
X0056034Y0178906D02*
X0053414Y0178906D01*
X0053126Y0178608D02*
X0055916Y0178608D01*
X0055772Y0178310D02*
X0053236Y0178310D01*
X0053347Y0178012D02*
X0055742Y0178012D01*
X0055954Y0177715D02*
X0053457Y0177715D01*
X0053567Y0177417D02*
X0056167Y0177417D01*
X0056380Y0177119D02*
X0053677Y0177119D01*
X0053788Y0176822D02*
X0054322Y0176822D01*
X0054543Y0176822D02*
X0056299Y0176822D01*
X0056014Y0176524D02*
X0054974Y0176524D01*
X0055406Y0176226D02*
X0055729Y0176226D01*
D11*
X0154446Y0090319D03*
X0160745Y0090319D03*
D12*
X0160587Y0090555D03*
X0165233Y0090555D03*
X0169957Y0090555D03*
X0154603Y0090555D03*
X0150745Y0090713D03*
X0150587Y0090713D03*
X0150430Y0090713D03*
X0150272Y0090713D03*
X0150115Y0090713D03*
X0149957Y0090713D03*
X0149800Y0090713D03*
X0145390Y0090713D03*
X0145233Y0090713D03*
X0145075Y0090713D03*
X0144918Y0090713D03*
X0144760Y0090713D03*
X0144603Y0090713D03*
X0144446Y0090713D03*
X0120587Y0090343D03*
X0114603Y0090343D03*
X0099800Y0090555D03*
X0095390Y0090555D03*
X0134446Y0189213D03*
X0134603Y0189213D03*
X0134760Y0189213D03*
X0134918Y0189213D03*
X0135075Y0189213D03*
X0135233Y0189213D03*
X0135390Y0189213D03*
X0139800Y0189213D03*
X0139957Y0189213D03*
X0140115Y0189213D03*
X0140272Y0189213D03*
X0140430Y0189213D03*
X0140587Y0189213D03*
X0140745Y0189213D03*
X0174918Y0189740D03*
X0180272Y0189740D03*
D13*
X0179957Y0189583D03*
X0175233Y0189583D03*
X0160430Y0090713D03*
X0154760Y0090713D03*
X0120430Y0090500D03*
X0114760Y0090500D03*
X0100115Y0090713D03*
X0095075Y0090713D03*
D14*
X0094760Y0090870D03*
X0089800Y0090370D03*
X0085390Y0090370D03*
X0100430Y0090870D03*
X0115075Y0090657D03*
X0154918Y0090870D03*
X0160272Y0090870D03*
D15*
X0160115Y0090949D03*
X0155075Y0090949D03*
X0100587Y0090949D03*
X0094603Y0090949D03*
X0089957Y0090449D03*
X0085233Y0090449D03*
D16*
X0085075Y0090528D03*
X0090115Y0090528D03*
X0094446Y0091028D03*
X0100745Y0091028D03*
X0134446Y0091028D03*
X0134603Y0091028D03*
X0134760Y0091028D03*
X0134918Y0091028D03*
X0135075Y0091028D03*
X0135233Y0091028D03*
X0135390Y0091028D03*
X0139800Y0091028D03*
X0139957Y0091028D03*
X0140115Y0091028D03*
X0140272Y0091028D03*
X0140430Y0091028D03*
X0140587Y0091028D03*
X0140745Y0091028D03*
X0155233Y0091028D03*
X0159957Y0091028D03*
X0120745Y0189028D03*
X0120587Y0189028D03*
X0120430Y0189028D03*
X0120272Y0189028D03*
X0120115Y0189028D03*
X0119957Y0189028D03*
X0119800Y0189028D03*
X0115390Y0189028D03*
X0115233Y0189028D03*
X0115075Y0189028D03*
X0114918Y0189028D03*
X0114760Y0189028D03*
X0114603Y0189028D03*
X0114446Y0189028D03*
D17*
X0155666Y0188965D03*
X0165666Y0189016D03*
X0159800Y0091106D03*
X0155390Y0091106D03*
X0090272Y0090606D03*
X0084918Y0090606D03*
D18*
X0095863Y0091264D03*
X0096965Y0092839D03*
X0105233Y0093571D03*
X0107595Y0089949D03*
X0135705Y0084807D03*
X0138383Y0087799D03*
X0147280Y0084965D03*
X0147438Y0084965D03*
X0147595Y0084965D03*
X0147753Y0084965D03*
X0147910Y0084965D03*
X0148068Y0084965D03*
X0149642Y0084965D03*
X0157280Y0084807D03*
X0159642Y0084807D03*
X0166965Y0090949D03*
X0167123Y0090949D03*
X0167280Y0090949D03*
X0167438Y0090949D03*
X0167595Y0090949D03*
X0167753Y0090949D03*
X0167910Y0090949D03*
X0168068Y0090949D03*
X0165548Y0096618D03*
X0165705Y0096776D03*
X0165863Y0096776D03*
X0155863Y0097720D03*
X0155705Y0097720D03*
X0149642Y0096461D03*
X0135705Y0097248D03*
X0169642Y0084807D03*
X0115705Y0182807D03*
X0118383Y0185799D03*
X0125548Y0191087D03*
X0129642Y0192819D03*
X0126808Y0195181D03*
X0126650Y0195181D03*
X0115705Y0195248D03*
X0139642Y0194961D03*
X0146965Y0191457D03*
X0146493Y0187992D03*
X0146650Y0187835D03*
X0146808Y0187835D03*
X0139642Y0183465D03*
X0138068Y0183465D03*
X0137910Y0183465D03*
X0137753Y0183465D03*
X0137595Y0183465D03*
X0137438Y0183465D03*
X0137280Y0183465D03*
X0176965Y0190449D03*
X0177123Y0190449D03*
X0177280Y0190449D03*
X0177438Y0190449D03*
X0177595Y0190449D03*
X0177753Y0190449D03*
X0177910Y0190449D03*
X0178068Y0190449D03*
X0177910Y0195488D03*
X0177123Y0195488D03*
D19*
X0159642Y0092996D03*
D20*
X0165548Y0088587D03*
X0165548Y0084650D03*
X0159485Y0084650D03*
X0145548Y0084807D03*
X0139170Y0084650D03*
X0135863Y0084650D03*
X0145705Y0089059D03*
X0145705Y0092366D03*
X0145548Y0096618D03*
X0139170Y0097406D03*
X0135863Y0097406D03*
X0116650Y0084437D03*
X0096493Y0091106D03*
X0096335Y0091106D03*
X0096178Y0091106D03*
X0085548Y0096433D03*
X0115863Y0182650D03*
X0119170Y0182650D03*
X0135548Y0183307D03*
X0135705Y0187559D03*
X0135705Y0190866D03*
X0129485Y0192819D03*
X0127438Y0195339D03*
X0127280Y0195339D03*
X0135548Y0195118D03*
X0145390Y0188937D03*
X0146020Y0188307D03*
X0146178Y0188150D03*
X0147123Y0191457D03*
X0147280Y0191457D03*
X0119170Y0195406D03*
X0115863Y0195406D03*
X0175548Y0188087D03*
X0176808Y0195646D03*
X0178225Y0195646D03*
D21*
X0179485Y0191472D03*
X0178540Y0190055D03*
X0179012Y0188008D03*
X0178855Y0187850D03*
X0178540Y0187693D03*
X0177910Y0187378D03*
X0176650Y0186118D03*
X0176020Y0188008D03*
X0168973Y0191772D03*
X0167871Y0191220D03*
X0167320Y0189016D03*
X0158973Y0191051D03*
X0157320Y0191602D03*
X0157871Y0193807D03*
X0139485Y0191732D03*
X0138225Y0192992D03*
X0138383Y0193150D03*
X0136808Y0193150D03*
X0136650Y0193150D03*
X0137910Y0189213D03*
X0138068Y0189213D03*
X0137910Y0187165D03*
X0139485Y0186693D03*
X0138383Y0185276D03*
X0138225Y0185118D03*
X0136808Y0185276D03*
X0136650Y0185276D03*
X0126650Y0188961D03*
X0118698Y0189343D03*
X0116335Y0188870D03*
X0116650Y0192965D03*
X0118383Y0192965D03*
X0118540Y0185248D03*
X0117910Y0184618D03*
X0156768Y0180421D03*
X0157595Y0182783D03*
X0167320Y0182677D03*
X0159249Y0176445D03*
X0158146Y0175185D03*
X0157871Y0175185D03*
X0156217Y0175185D03*
X0148383Y0094650D03*
X0148225Y0094492D03*
X0146808Y0094650D03*
X0146650Y0094650D03*
X0149485Y0093232D03*
X0148068Y0090713D03*
X0147910Y0090713D03*
X0147910Y0088665D03*
X0149485Y0088193D03*
X0148383Y0086776D03*
X0148225Y0086618D03*
X0146808Y0086776D03*
X0146650Y0086776D03*
X0156650Y0086618D03*
X0159485Y0088035D03*
X0166020Y0088508D03*
X0166650Y0086618D03*
X0167910Y0087878D03*
X0168540Y0088193D03*
X0168855Y0088350D03*
X0169012Y0088508D03*
X0168540Y0090555D03*
X0169485Y0091972D03*
X0155705Y0091657D03*
X0138698Y0091343D03*
X0136335Y0090870D03*
X0138540Y0087248D03*
X0137910Y0086618D03*
X0128698Y0088823D03*
X0126335Y0088350D03*
X0117438Y0090500D03*
X0117280Y0090500D03*
X0108383Y0087508D03*
X0105233Y0087823D03*
X0105390Y0086248D03*
X0099327Y0088350D03*
X0097753Y0086776D03*
X0097753Y0090398D03*
X0097910Y0090398D03*
X0098383Y0090398D03*
X0099170Y0092130D03*
X0097438Y0092445D03*
X0096650Y0093862D03*
X0097753Y0095437D03*
X0096650Y0095909D03*
X0087753Y0086276D03*
X0086335Y0086276D03*
X0086178Y0086276D03*
X0136650Y0094965D03*
X0138383Y0094965D03*
D22*
X0128698Y0094728D03*
X0128540Y0094728D03*
X0128383Y0094728D03*
X0128225Y0094728D03*
X0128068Y0094728D03*
X0127910Y0094728D03*
X0127753Y0094728D03*
X0127595Y0094728D03*
X0127438Y0094728D03*
X0127280Y0094728D03*
X0127123Y0094728D03*
X0126965Y0094728D03*
X0126808Y0094728D03*
X0126650Y0094728D03*
X0126493Y0094728D03*
X0126335Y0094728D03*
X0126178Y0094728D03*
X0126020Y0094728D03*
X0125863Y0094728D03*
X0125705Y0094728D03*
X0118225Y0098295D03*
X0108225Y0094988D03*
X0105548Y0093728D03*
X0095548Y0095988D03*
X0116493Y0084752D03*
X0135548Y0084965D03*
X0159485Y0092366D03*
X0156178Y0097720D03*
X0176335Y0183047D03*
X0176178Y0183205D03*
X0176020Y0183205D03*
X0175863Y0183362D03*
X0177438Y0195331D03*
X0177595Y0195331D03*
X0147438Y0195079D03*
X0146650Y0191772D03*
X0147123Y0187677D03*
X0126178Y0195024D03*
X0126020Y0195024D03*
X0115548Y0182965D03*
D23*
X0158383Y0097327D03*
X0158855Y0097169D03*
X0159170Y0097012D03*
X0159485Y0096854D03*
X0116335Y0097114D03*
X0107753Y0094437D03*
X0107595Y0094437D03*
X0107438Y0094437D03*
X0107280Y0094437D03*
X0107123Y0094437D03*
D24*
X0098068Y0094886D03*
X0097123Y0092681D03*
X0095863Y0096146D03*
X0085705Y0096433D03*
X0115390Y0092941D03*
X0115548Y0092941D03*
X0115705Y0092941D03*
X0115863Y0092941D03*
X0116020Y0092941D03*
X0116178Y0092941D03*
X0116335Y0092941D03*
X0117438Y0092941D03*
X0117595Y0092941D03*
X0125548Y0091264D03*
X0116808Y0084280D03*
X0136178Y0084492D03*
X0138855Y0084492D03*
X0139012Y0084492D03*
X0145705Y0084650D03*
X0148225Y0084650D03*
X0149327Y0084650D03*
X0145863Y0089059D03*
X0145863Y0092366D03*
X0147438Y0093154D03*
X0147595Y0093154D03*
X0147595Y0096776D03*
X0149327Y0096776D03*
X0145705Y0096776D03*
X0155705Y0094256D03*
X0159170Y0092524D03*
X0158225Y0087484D03*
X0157595Y0084492D03*
X0159327Y0084492D03*
X0167595Y0084492D03*
X0169327Y0084492D03*
X0168225Y0087484D03*
X0138855Y0097563D03*
X0136178Y0097563D03*
X0115863Y0097823D03*
X0166768Y0173465D03*
X0168422Y0173465D03*
X0167044Y0176496D03*
X0156493Y0185264D03*
X0156217Y0185264D03*
X0155942Y0185264D03*
X0147438Y0191457D03*
X0147123Y0195551D03*
X0148540Y0195551D03*
X0139327Y0195276D03*
X0137595Y0195276D03*
X0135705Y0195276D03*
X0137438Y0191654D03*
X0137595Y0191654D03*
X0135863Y0190866D03*
X0135863Y0187559D03*
X0128383Y0189984D03*
X0128225Y0189984D03*
X0125863Y0191244D03*
X0129170Y0192819D03*
X0129327Y0192819D03*
X0129642Y0195496D03*
X0128068Y0195496D03*
X0127910Y0195496D03*
X0118855Y0195563D03*
X0116178Y0195563D03*
X0125548Y0187150D03*
X0119012Y0182492D03*
X0118855Y0182492D03*
X0116178Y0182492D03*
X0135705Y0183150D03*
X0138225Y0183150D03*
X0139327Y0183150D03*
X0178225Y0186984D03*
X0178540Y0195803D03*
X0179642Y0195803D03*
X0176493Y0195803D03*
D25*
X0176178Y0193362D03*
X0179012Y0193362D03*
X0178383Y0191472D03*
X0176493Y0190055D03*
X0176335Y0188008D03*
X0176178Y0188008D03*
X0177753Y0187535D03*
X0147753Y0191063D03*
X0146020Y0191063D03*
X0146178Y0192323D03*
X0145390Y0192480D03*
X0146020Y0193740D03*
X0139327Y0191732D03*
X0138540Y0191417D03*
X0138383Y0191417D03*
X0138540Y0193150D03*
X0136493Y0193150D03*
X0137595Y0189213D03*
X0137753Y0189213D03*
X0138225Y0187165D03*
X0139327Y0186693D03*
X0138540Y0185276D03*
X0136493Y0185276D03*
X0128698Y0190535D03*
X0126493Y0188961D03*
X0119327Y0186823D03*
X0118540Y0186823D03*
X0116808Y0188713D03*
X0116650Y0188713D03*
X0118225Y0189500D03*
X0115548Y0191075D03*
X0116493Y0185248D03*
X0096965Y0095752D03*
X0097280Y0095594D03*
X0097438Y0095594D03*
X0096493Y0093862D03*
X0097595Y0092287D03*
X0099012Y0092130D03*
X0098540Y0093862D03*
X0106020Y0088925D03*
X0106808Y0087823D03*
X0107753Y0088925D03*
X0108225Y0087508D03*
X0107753Y0086091D03*
X0106965Y0086091D03*
X0106020Y0086091D03*
X0105863Y0086091D03*
X0099012Y0088508D03*
X0097123Y0088508D03*
X0089485Y0087535D03*
X0089012Y0093677D03*
X0086178Y0093677D03*
X0116650Y0093650D03*
X0116808Y0093650D03*
X0116965Y0093650D03*
X0117123Y0093650D03*
X0116808Y0090657D03*
X0116650Y0090657D03*
X0116020Y0086091D03*
X0117753Y0086091D03*
X0126808Y0088193D03*
X0128225Y0088980D03*
X0128383Y0088980D03*
X0135548Y0093075D03*
X0136650Y0090713D03*
X0136808Y0090713D03*
X0138225Y0091500D03*
X0138540Y0088823D03*
X0139327Y0088823D03*
X0136493Y0087248D03*
X0146493Y0086776D03*
X0148540Y0086776D03*
X0149327Y0088193D03*
X0148225Y0088665D03*
X0147753Y0090713D03*
X0147595Y0090713D03*
X0148383Y0092917D03*
X0148540Y0092917D03*
X0149327Y0093232D03*
X0148540Y0094650D03*
X0146493Y0094650D03*
X0157595Y0092602D03*
X0157753Y0092602D03*
X0166493Y0090555D03*
X0166335Y0088508D03*
X0166178Y0088508D03*
X0167753Y0088035D03*
X0159327Y0088193D03*
X0158698Y0088193D03*
X0157753Y0088193D03*
X0155863Y0088193D03*
X0168383Y0091972D03*
D26*
X0168225Y0091028D03*
X0166808Y0091028D03*
X0159327Y0092445D03*
X0155548Y0084728D03*
X0167280Y0084728D03*
X0139327Y0084728D03*
X0117595Y0087035D03*
X0107438Y0090028D03*
X0099485Y0096067D03*
X0098225Y0094807D03*
X0095705Y0096067D03*
X0089642Y0096354D03*
X0096020Y0091185D03*
X0096020Y0087563D03*
X0095863Y0087563D03*
X0095705Y0087563D03*
X0096178Y0087563D03*
X0096335Y0087563D03*
X0096493Y0087563D03*
X0139327Y0097327D03*
X0119327Y0182728D03*
X0119327Y0195327D03*
X0126965Y0195260D03*
X0127123Y0195260D03*
X0145233Y0189173D03*
X0146335Y0188071D03*
X0147280Y0195315D03*
X0176965Y0195567D03*
X0178068Y0195567D03*
X0178225Y0190528D03*
X0176808Y0190528D03*
D27*
X0158225Y0097406D03*
X0158068Y0097406D03*
X0158540Y0097248D03*
X0158698Y0097248D03*
X0159012Y0097091D03*
X0159327Y0096933D03*
X0116178Y0097035D03*
X0107910Y0094516D03*
X0106965Y0094358D03*
D28*
X0109485Y0094437D03*
X0115705Y0097744D03*
X0117753Y0093020D03*
X0115233Y0089083D03*
X0117280Y0087193D03*
X0118540Y0087823D03*
X0118383Y0084201D03*
X0116965Y0084201D03*
X0115390Y0084201D03*
X0106493Y0088138D03*
X0106335Y0088295D03*
X0105233Y0090500D03*
X0099170Y0096067D03*
X0096020Y0096067D03*
X0089327Y0096354D03*
X0087595Y0095094D03*
X0087438Y0095094D03*
X0085863Y0096354D03*
X0085548Y0091315D03*
X0085548Y0083913D03*
X0095548Y0084413D03*
X0136335Y0084413D03*
X0136493Y0084413D03*
X0138698Y0084413D03*
X0145863Y0084571D03*
X0149170Y0084571D03*
X0155863Y0084413D03*
X0156020Y0084413D03*
X0156808Y0084413D03*
X0157753Y0084413D03*
X0157910Y0084413D03*
X0159012Y0084413D03*
X0159170Y0084413D03*
X0165863Y0084413D03*
X0166808Y0084413D03*
X0167753Y0084413D03*
X0169012Y0084413D03*
X0169170Y0084413D03*
X0159012Y0092602D03*
X0155863Y0094177D03*
X0149170Y0096854D03*
X0147753Y0096854D03*
X0145863Y0096854D03*
X0147753Y0093232D03*
X0147910Y0093232D03*
X0146020Y0092287D03*
X0146020Y0089138D03*
X0149012Y0090713D03*
X0149170Y0090713D03*
X0138698Y0097642D03*
X0136493Y0097642D03*
X0136335Y0097642D03*
X0156217Y0172783D03*
X0158973Y0172783D03*
X0168146Y0176417D03*
X0167595Y0180276D03*
X0157595Y0180224D03*
X0166217Y0185236D03*
X0166493Y0185236D03*
X0149327Y0188228D03*
X0139170Y0189213D03*
X0139012Y0189213D03*
X0137910Y0191732D03*
X0137753Y0191732D03*
X0136020Y0190787D03*
X0136020Y0187638D03*
X0129485Y0187071D03*
X0129327Y0187071D03*
X0127123Y0187071D03*
X0126650Y0187071D03*
X0125705Y0187071D03*
X0128540Y0189906D03*
X0126020Y0191165D03*
X0128225Y0195575D03*
X0128383Y0195575D03*
X0135863Y0195354D03*
X0137753Y0195354D03*
X0139170Y0195354D03*
X0145390Y0195630D03*
X0147753Y0195630D03*
X0148383Y0195630D03*
X0166217Y0195709D03*
X0168973Y0195709D03*
X0175548Y0195882D03*
X0176335Y0195882D03*
X0178698Y0195882D03*
X0179485Y0195882D03*
X0139170Y0183071D03*
X0135863Y0183071D03*
X0118698Y0182413D03*
X0116493Y0182413D03*
X0116335Y0182413D03*
X0116335Y0195642D03*
X0116493Y0195642D03*
X0118698Y0195642D03*
D29*
X0116493Y0192728D03*
X0115705Y0191154D03*
X0116965Y0188634D03*
X0118068Y0189579D03*
X0119485Y0191154D03*
X0119170Y0186902D03*
X0119012Y0186902D03*
X0118855Y0186902D03*
X0118698Y0186902D03*
X0117910Y0186902D03*
X0115863Y0186902D03*
X0127123Y0189039D03*
X0129485Y0190614D03*
X0127595Y0192819D03*
X0127438Y0192819D03*
X0138698Y0191496D03*
X0138855Y0191496D03*
X0139170Y0191654D03*
X0147595Y0192244D03*
X0147753Y0193819D03*
X0139170Y0186772D03*
X0138855Y0186929D03*
X0138540Y0187087D03*
X0138383Y0187087D03*
X0176493Y0187929D03*
X0176650Y0187929D03*
X0178698Y0186197D03*
X0178540Y0191551D03*
X0179327Y0191551D03*
X0178855Y0193283D03*
X0176335Y0193283D03*
X0176650Y0191551D03*
X0136493Y0094728D03*
X0135705Y0093154D03*
X0136965Y0090634D03*
X0138068Y0091579D03*
X0139485Y0093154D03*
X0139170Y0088902D03*
X0139012Y0088902D03*
X0138855Y0088902D03*
X0138698Y0088902D03*
X0137910Y0088902D03*
X0135863Y0088902D03*
X0129485Y0086539D03*
X0129327Y0086539D03*
X0128068Y0089059D03*
X0126965Y0088114D03*
X0125705Y0086539D03*
X0125548Y0086539D03*
X0128855Y0090634D03*
X0116493Y0090736D03*
X0116335Y0090736D03*
X0115233Y0090894D03*
X0116650Y0087587D03*
X0116808Y0087587D03*
X0108540Y0089949D03*
X0108068Y0087587D03*
X0106965Y0087744D03*
X0106178Y0087587D03*
X0098855Y0088587D03*
X0098698Y0088587D03*
X0097438Y0088587D03*
X0097280Y0088587D03*
X0097753Y0092366D03*
X0098855Y0092209D03*
X0098698Y0093783D03*
X0097123Y0095673D03*
X0088855Y0093598D03*
X0086335Y0093598D03*
X0089327Y0087614D03*
X0148383Y0088587D03*
X0148540Y0088587D03*
X0148855Y0088429D03*
X0149170Y0088272D03*
X0156020Y0088272D03*
X0157595Y0088272D03*
X0158855Y0088272D03*
X0159012Y0088272D03*
X0159170Y0088272D03*
X0158698Y0086697D03*
X0156493Y0090004D03*
X0156178Y0091894D03*
X0156020Y0091894D03*
X0156335Y0092051D03*
X0156965Y0092366D03*
X0157280Y0092524D03*
X0157438Y0092524D03*
X0157280Y0094256D03*
X0166650Y0092051D03*
X0168540Y0092051D03*
X0169327Y0092051D03*
X0166650Y0088429D03*
X0166493Y0088429D03*
X0168698Y0086697D03*
X0149170Y0093154D03*
X0148855Y0092996D03*
X0148698Y0092996D03*
D30*
X0148068Y0093311D03*
X0148855Y0090791D03*
X0156020Y0094256D03*
X0149012Y0096933D03*
X0148855Y0096933D03*
X0148068Y0096933D03*
X0147910Y0096933D03*
X0147438Y0096933D03*
X0147280Y0096933D03*
X0146020Y0096933D03*
X0138540Y0097720D03*
X0138383Y0097720D03*
X0136808Y0097720D03*
X0136650Y0097720D03*
X0135548Y0091106D03*
X0139485Y0091106D03*
X0138540Y0084335D03*
X0138383Y0084335D03*
X0138225Y0084335D03*
X0136965Y0084335D03*
X0136808Y0084335D03*
X0136650Y0084335D03*
X0129485Y0084492D03*
X0125705Y0084492D03*
X0125548Y0084492D03*
X0125548Y0088587D03*
X0125705Y0091264D03*
X0125863Y0091264D03*
X0126020Y0091264D03*
X0126178Y0091264D03*
X0126335Y0091264D03*
X0126493Y0091264D03*
X0126650Y0091264D03*
X0126808Y0091264D03*
X0126965Y0091264D03*
X0127123Y0091264D03*
X0127280Y0091264D03*
X0127438Y0091264D03*
X0127595Y0091264D03*
X0127753Y0091264D03*
X0127910Y0091264D03*
X0128068Y0091264D03*
X0128225Y0091264D03*
X0128383Y0091264D03*
X0128540Y0091264D03*
X0128698Y0091264D03*
X0129485Y0088587D03*
X0118540Y0090264D03*
X0109642Y0094358D03*
X0115548Y0097665D03*
X0119485Y0097823D03*
X0099012Y0095988D03*
X0099485Y0092051D03*
X0089170Y0096276D03*
X0087753Y0095173D03*
X0087280Y0095173D03*
X0086020Y0096276D03*
X0085705Y0091394D03*
X0085548Y0088717D03*
X0086808Y0088559D03*
X0086965Y0088559D03*
X0087123Y0088559D03*
X0087123Y0083835D03*
X0087280Y0083835D03*
X0087438Y0083835D03*
X0087595Y0083835D03*
X0087753Y0083835D03*
X0087910Y0083835D03*
X0088068Y0083835D03*
X0088225Y0083835D03*
X0088383Y0083835D03*
X0088540Y0083835D03*
X0088698Y0083835D03*
X0088855Y0083835D03*
X0089012Y0083835D03*
X0089170Y0083835D03*
X0089327Y0083835D03*
X0089485Y0083835D03*
X0086965Y0083835D03*
X0086808Y0083835D03*
X0086650Y0083835D03*
X0086493Y0083835D03*
X0086335Y0083835D03*
X0086178Y0083835D03*
X0086020Y0083835D03*
X0085863Y0083835D03*
X0085705Y0083835D03*
X0095705Y0084335D03*
X0095863Y0084335D03*
X0096020Y0084335D03*
X0096178Y0084335D03*
X0096335Y0084335D03*
X0096493Y0084335D03*
X0096650Y0084335D03*
X0096808Y0084335D03*
X0096965Y0084335D03*
X0097123Y0084335D03*
X0097280Y0084335D03*
X0097438Y0084335D03*
X0097595Y0084335D03*
X0097753Y0084335D03*
X0097910Y0084335D03*
X0098068Y0084335D03*
X0098225Y0084335D03*
X0098383Y0084335D03*
X0098540Y0084335D03*
X0098698Y0084335D03*
X0098855Y0084335D03*
X0099012Y0084335D03*
X0099170Y0084335D03*
X0099327Y0084335D03*
X0099485Y0084335D03*
X0105233Y0083965D03*
X0105390Y0083965D03*
X0105548Y0083965D03*
X0105705Y0083965D03*
X0105863Y0083965D03*
X0106020Y0083965D03*
X0106178Y0083965D03*
X0106335Y0083965D03*
X0106493Y0083965D03*
X0106650Y0083965D03*
X0106808Y0083965D03*
X0106965Y0083965D03*
X0107123Y0083965D03*
X0107280Y0083965D03*
X0107438Y0083965D03*
X0107595Y0083965D03*
X0107753Y0083965D03*
X0107910Y0083965D03*
X0108068Y0083965D03*
X0108225Y0083965D03*
X0108383Y0083965D03*
X0108540Y0083965D03*
X0115548Y0084122D03*
X0116178Y0084122D03*
X0117123Y0084122D03*
X0118068Y0084122D03*
X0118225Y0084122D03*
X0146020Y0084492D03*
X0146965Y0084492D03*
X0148383Y0084492D03*
X0148540Y0084492D03*
X0148698Y0084492D03*
X0148855Y0084492D03*
X0149012Y0084492D03*
X0156178Y0084335D03*
X0156335Y0084335D03*
X0156493Y0084335D03*
X0156650Y0084335D03*
X0158068Y0084335D03*
X0158225Y0084335D03*
X0158383Y0084335D03*
X0158540Y0084335D03*
X0158698Y0084335D03*
X0158855Y0084335D03*
X0158068Y0087642D03*
X0165705Y0088587D03*
X0168068Y0087642D03*
X0168068Y0084335D03*
X0168225Y0084335D03*
X0168383Y0084335D03*
X0168540Y0084335D03*
X0168698Y0084335D03*
X0168855Y0084335D03*
X0167910Y0084335D03*
X0166650Y0084335D03*
X0166493Y0084335D03*
X0166178Y0084335D03*
X0166020Y0084335D03*
X0078068Y0086606D03*
X0077123Y0086606D03*
X0076650Y0086606D03*
X0077123Y0089323D03*
X0078068Y0089323D03*
X0116650Y0182335D03*
X0116808Y0182335D03*
X0116965Y0182335D03*
X0118225Y0182335D03*
X0118383Y0182335D03*
X0118540Y0182335D03*
X0126493Y0186992D03*
X0128225Y0186992D03*
X0128383Y0186992D03*
X0128540Y0186992D03*
X0128698Y0186992D03*
X0128855Y0186992D03*
X0129012Y0186992D03*
X0129170Y0186992D03*
X0126178Y0191244D03*
X0128855Y0192819D03*
X0129012Y0192819D03*
X0128698Y0195654D03*
X0128540Y0195654D03*
X0129485Y0195654D03*
X0136020Y0195433D03*
X0137280Y0195433D03*
X0137438Y0195433D03*
X0137910Y0195433D03*
X0138068Y0195433D03*
X0138855Y0195433D03*
X0139012Y0195433D03*
X0138068Y0191811D03*
X0138855Y0189291D03*
X0145548Y0195709D03*
X0146965Y0195709D03*
X0147910Y0195709D03*
X0148068Y0195709D03*
X0148225Y0195709D03*
X0149485Y0188307D03*
X0139012Y0182992D03*
X0138855Y0182992D03*
X0138698Y0182992D03*
X0138540Y0182992D03*
X0138383Y0182992D03*
X0136965Y0182992D03*
X0136020Y0182992D03*
X0119485Y0189106D03*
X0115548Y0189106D03*
X0116650Y0195720D03*
X0116808Y0195720D03*
X0118383Y0195720D03*
X0118540Y0195720D03*
X0175705Y0195961D03*
X0175863Y0195961D03*
X0176020Y0195961D03*
X0176178Y0195961D03*
X0178855Y0195961D03*
X0179012Y0195961D03*
X0179170Y0195961D03*
X0179327Y0195961D03*
X0175705Y0188087D03*
X0178068Y0187142D03*
D31*
X0179327Y0188165D03*
X0149642Y0188386D03*
X0138698Y0189213D03*
X0136335Y0190787D03*
X0136178Y0190787D03*
X0136178Y0187638D03*
X0136335Y0187638D03*
X0128068Y0186913D03*
X0127910Y0186913D03*
X0127753Y0186913D03*
X0127595Y0186913D03*
X0127438Y0186913D03*
X0127280Y0186913D03*
X0126335Y0186913D03*
X0126020Y0186913D03*
X0125863Y0186913D03*
X0126335Y0191165D03*
X0128698Y0192898D03*
X0128855Y0195732D03*
X0129012Y0195732D03*
X0129327Y0195732D03*
X0136178Y0195512D03*
X0136335Y0195512D03*
X0136493Y0195512D03*
X0136650Y0195512D03*
X0136808Y0195512D03*
X0136965Y0195512D03*
X0137123Y0195512D03*
X0138225Y0195512D03*
X0138383Y0195512D03*
X0138540Y0195512D03*
X0138698Y0195512D03*
X0145705Y0195787D03*
X0145863Y0195787D03*
X0146650Y0195787D03*
X0146808Y0195787D03*
X0149327Y0195787D03*
X0150115Y0195787D03*
X0136808Y0182913D03*
X0136650Y0182913D03*
X0136493Y0182913D03*
X0136335Y0182913D03*
X0136178Y0182913D03*
X0118068Y0182256D03*
X0117910Y0182256D03*
X0117753Y0182256D03*
X0117595Y0182256D03*
X0117438Y0182256D03*
X0117280Y0182256D03*
X0117123Y0182256D03*
X0115705Y0189028D03*
X0116965Y0195799D03*
X0117123Y0195799D03*
X0117280Y0195799D03*
X0117438Y0195799D03*
X0117595Y0195799D03*
X0117753Y0195799D03*
X0117910Y0195799D03*
X0118068Y0195799D03*
X0118225Y0195799D03*
X0119642Y0097744D03*
X0115390Y0097587D03*
X0109800Y0094280D03*
X0107123Y0090500D03*
X0108540Y0087508D03*
X0109327Y0083886D03*
X0110115Y0083886D03*
X0115705Y0084043D03*
X0115863Y0084043D03*
X0116020Y0084043D03*
X0117280Y0084043D03*
X0117438Y0084043D03*
X0117595Y0084043D03*
X0117753Y0084043D03*
X0117910Y0084043D03*
X0119327Y0084043D03*
X0120115Y0084043D03*
X0118383Y0087823D03*
X0115548Y0089083D03*
X0115390Y0089083D03*
X0125863Y0084413D03*
X0126020Y0084413D03*
X0126178Y0084413D03*
X0126335Y0084413D03*
X0126493Y0084413D03*
X0126650Y0084413D03*
X0126808Y0084413D03*
X0126965Y0084413D03*
X0127123Y0084413D03*
X0127280Y0084413D03*
X0127438Y0084413D03*
X0127595Y0084413D03*
X0127753Y0084413D03*
X0127910Y0084413D03*
X0128068Y0084413D03*
X0128225Y0084413D03*
X0128383Y0084413D03*
X0128540Y0084413D03*
X0128698Y0084413D03*
X0128855Y0084413D03*
X0129012Y0084413D03*
X0129170Y0084413D03*
X0129327Y0084413D03*
X0137123Y0084256D03*
X0137280Y0084256D03*
X0137438Y0084256D03*
X0137595Y0084256D03*
X0137753Y0084256D03*
X0137910Y0084256D03*
X0138068Y0084256D03*
X0135705Y0091028D03*
X0129485Y0095437D03*
X0128855Y0095437D03*
X0136965Y0097799D03*
X0137123Y0097799D03*
X0137280Y0097799D03*
X0137438Y0097799D03*
X0137595Y0097799D03*
X0137753Y0097799D03*
X0137910Y0097799D03*
X0138068Y0097799D03*
X0138225Y0097799D03*
X0146178Y0097012D03*
X0146335Y0097012D03*
X0146493Y0097012D03*
X0146650Y0097012D03*
X0146808Y0097012D03*
X0146965Y0097012D03*
X0147123Y0097012D03*
X0148225Y0097012D03*
X0148383Y0097012D03*
X0148540Y0097012D03*
X0148698Y0097012D03*
X0146335Y0092287D03*
X0146178Y0092287D03*
X0148698Y0090713D03*
X0146335Y0089138D03*
X0146178Y0089138D03*
X0155548Y0091500D03*
X0157438Y0090398D03*
X0157595Y0090398D03*
X0157753Y0090398D03*
X0158855Y0092602D03*
X0156178Y0094177D03*
X0146808Y0084413D03*
X0146650Y0084413D03*
X0146493Y0084413D03*
X0146335Y0084413D03*
X0146178Y0084413D03*
X0166335Y0084256D03*
X0169327Y0088665D03*
X0098855Y0095909D03*
X0098698Y0095752D03*
X0098540Y0095594D03*
X0096178Y0096067D03*
X0096650Y0091657D03*
X0088698Y0091315D03*
X0088540Y0091315D03*
X0088383Y0091315D03*
X0088225Y0091315D03*
X0088068Y0091315D03*
X0087910Y0091315D03*
X0087753Y0091315D03*
X0087595Y0091315D03*
X0087438Y0091315D03*
X0087280Y0091315D03*
X0087123Y0091315D03*
X0086965Y0091315D03*
X0086808Y0091315D03*
X0086650Y0091315D03*
X0086493Y0091315D03*
X0086335Y0091315D03*
X0086178Y0091315D03*
X0086020Y0091315D03*
X0085863Y0091315D03*
X0086335Y0088638D03*
X0086493Y0088638D03*
X0086650Y0088638D03*
X0087280Y0088638D03*
X0087438Y0088638D03*
X0088698Y0088638D03*
X0096650Y0088035D03*
X0089012Y0096197D03*
X0087910Y0095252D03*
X0087123Y0095252D03*
X0086965Y0095409D03*
X0086808Y0095567D03*
X0086650Y0095724D03*
X0086493Y0095882D03*
X0086335Y0096039D03*
X0086178Y0096197D03*
D32*
X0088068Y0095331D03*
X0088225Y0095488D03*
X0088383Y0095646D03*
X0088540Y0095803D03*
X0088698Y0095961D03*
X0088855Y0096118D03*
X0096335Y0095988D03*
X0097910Y0095201D03*
X0097280Y0092524D03*
X0105390Y0090579D03*
X0107753Y0090579D03*
X0110115Y0094043D03*
X0109957Y0094201D03*
X0118225Y0090264D03*
X0118383Y0090264D03*
X0118225Y0087902D03*
X0119485Y0083965D03*
X0119642Y0083965D03*
X0119800Y0083965D03*
X0119957Y0083965D03*
X0125705Y0088587D03*
X0129327Y0088587D03*
X0136965Y0087012D03*
X0137123Y0087012D03*
X0139327Y0091106D03*
X0146493Y0092366D03*
X0146650Y0092366D03*
X0146965Y0092524D03*
X0148540Y0090791D03*
X0147595Y0088587D03*
X0146650Y0089059D03*
X0146493Y0089059D03*
X0156965Y0090319D03*
X0157123Y0090319D03*
X0157280Y0090319D03*
X0157910Y0090319D03*
X0158068Y0090319D03*
X0158540Y0092681D03*
X0158698Y0092681D03*
X0156335Y0094256D03*
X0165863Y0088587D03*
X0168383Y0090634D03*
X0137910Y0095201D03*
X0137753Y0095201D03*
X0137595Y0095201D03*
X0137438Y0095201D03*
X0137280Y0095201D03*
X0129327Y0095516D03*
X0129170Y0095516D03*
X0129012Y0095516D03*
X0120115Y0097350D03*
X0119800Y0097665D03*
X0115233Y0097508D03*
X0109957Y0083807D03*
X0109800Y0083807D03*
X0109642Y0083807D03*
X0109485Y0083807D03*
X0088540Y0088717D03*
X0088383Y0088717D03*
X0088225Y0088717D03*
X0088068Y0088717D03*
X0087910Y0088717D03*
X0087753Y0088717D03*
X0087595Y0088717D03*
X0086178Y0088717D03*
X0086020Y0088717D03*
X0085863Y0088717D03*
X0085705Y0088717D03*
X0085548Y0086354D03*
X0116965Y0185012D03*
X0117123Y0185012D03*
X0126178Y0186835D03*
X0128068Y0190457D03*
X0126493Y0191244D03*
X0128540Y0192819D03*
X0129170Y0195811D03*
X0136493Y0190866D03*
X0136650Y0190866D03*
X0136965Y0191024D03*
X0138540Y0189291D03*
X0137595Y0187087D03*
X0136650Y0187559D03*
X0136493Y0187559D03*
X0145233Y0192402D03*
X0148540Y0192402D03*
X0149485Y0195866D03*
X0149642Y0195866D03*
X0149800Y0195866D03*
X0149957Y0195866D03*
X0146493Y0195866D03*
X0146335Y0195866D03*
X0146178Y0195866D03*
X0146020Y0195866D03*
X0149800Y0188465D03*
X0175863Y0188087D03*
X0178383Y0190134D03*
X0119327Y0189106D03*
X0117910Y0193201D03*
X0117753Y0193201D03*
X0117595Y0193201D03*
X0117438Y0193201D03*
X0117280Y0193201D03*
D33*
X0118540Y0192886D03*
X0118540Y0189421D03*
X0118383Y0189421D03*
X0116493Y0188791D03*
X0115705Y0186902D03*
X0117280Y0184539D03*
X0117438Y0184539D03*
X0117595Y0184539D03*
X0117753Y0184539D03*
X0127753Y0192819D03*
X0127910Y0192819D03*
X0138068Y0187087D03*
X0146178Y0193661D03*
X0148383Y0192402D03*
X0156217Y0190972D03*
X0156768Y0192626D03*
X0158973Y0187665D03*
X0158422Y0185185D03*
X0167595Y0182756D03*
X0168422Y0185236D03*
X0169249Y0188819D03*
X0168698Y0191575D03*
X0175705Y0191551D03*
X0175863Y0193441D03*
X0176020Y0193441D03*
X0179170Y0193441D03*
X0178698Y0187772D03*
X0178540Y0186197D03*
X0176493Y0186197D03*
X0168698Y0178622D03*
X0158698Y0178571D03*
X0077595Y0098654D03*
X0078540Y0091803D03*
X0085863Y0093756D03*
X0086020Y0093756D03*
X0089170Y0093756D03*
X0088540Y0086197D03*
X0086493Y0086197D03*
X0096965Y0088429D03*
X0099170Y0088429D03*
X0098540Y0086697D03*
X0098540Y0090319D03*
X0106178Y0088846D03*
X0105705Y0086169D03*
X0105548Y0086169D03*
X0107123Y0086169D03*
X0107280Y0086169D03*
X0107438Y0086169D03*
X0107595Y0086169D03*
X0115233Y0087114D03*
X0116178Y0086012D03*
X0116965Y0087587D03*
X0116965Y0090579D03*
X0117123Y0090579D03*
X0117280Y0093571D03*
X0116493Y0093571D03*
X0126493Y0088272D03*
X0126650Y0088272D03*
X0128540Y0088902D03*
X0135705Y0088902D03*
X0136493Y0090791D03*
X0138383Y0091421D03*
X0138540Y0091421D03*
X0137753Y0086539D03*
X0137595Y0086539D03*
X0137438Y0086539D03*
X0137280Y0086539D03*
X0148068Y0088587D03*
X0155705Y0088114D03*
X0156493Y0086697D03*
X0158540Y0086697D03*
X0158540Y0088114D03*
X0158540Y0090004D03*
X0158068Y0092681D03*
X0157910Y0092681D03*
X0155863Y0091736D03*
X0165705Y0092051D03*
X0168698Y0088272D03*
X0168540Y0086697D03*
X0166493Y0086697D03*
X0138540Y0094886D03*
X0097595Y0095516D03*
X0096808Y0095831D03*
D34*
X0099327Y0096067D03*
X0089485Y0096354D03*
X0107280Y0090185D03*
X0109327Y0094437D03*
X0115233Y0093020D03*
X0119327Y0097744D03*
X0136020Y0097484D03*
X0139012Y0097484D03*
X0149485Y0096697D03*
X0147280Y0093075D03*
X0149327Y0090713D03*
X0149485Y0090713D03*
X0155548Y0094177D03*
X0158383Y0087406D03*
X0157438Y0084571D03*
X0155705Y0084571D03*
X0149485Y0084728D03*
X0136020Y0084571D03*
X0118540Y0084358D03*
X0117438Y0087035D03*
X0115233Y0084358D03*
X0165705Y0084571D03*
X0167438Y0084571D03*
X0169485Y0084571D03*
X0168383Y0087406D03*
X0169485Y0088665D03*
X0116020Y0182571D03*
X0125705Y0191165D03*
X0127595Y0195417D03*
X0127753Y0195417D03*
X0137280Y0191575D03*
X0139327Y0189213D03*
X0139485Y0189213D03*
X0145548Y0188701D03*
X0145705Y0188543D03*
X0145863Y0188386D03*
X0139485Y0183228D03*
X0159249Y0185185D03*
X0165942Y0185236D03*
X0169249Y0185236D03*
X0178383Y0186906D03*
X0179485Y0188165D03*
X0178383Y0195724D03*
X0176650Y0195724D03*
X0145233Y0195472D03*
X0139485Y0195197D03*
X0119012Y0195484D03*
X0116020Y0195484D03*
D35*
X0116808Y0193043D03*
X0118225Y0193043D03*
X0118855Y0189264D03*
X0119485Y0186744D03*
X0116650Y0185169D03*
X0115548Y0186744D03*
X0116020Y0188949D03*
X0116178Y0188949D03*
X0126965Y0191087D03*
X0127123Y0191087D03*
X0127280Y0190929D03*
X0127438Y0190929D03*
X0127595Y0190772D03*
X0127753Y0190772D03*
X0128068Y0192819D03*
X0128225Y0192819D03*
X0136965Y0193071D03*
X0138225Y0191496D03*
X0138225Y0189291D03*
X0137123Y0187402D03*
X0137438Y0187244D03*
X0137753Y0187087D03*
X0136965Y0185197D03*
X0147595Y0191142D03*
X0150115Y0188622D03*
X0156768Y0189319D03*
X0166768Y0193504D03*
X0175705Y0193441D03*
X0175548Y0191394D03*
X0179327Y0193441D03*
X0179170Y0188087D03*
X0176808Y0186039D03*
X0166217Y0178622D03*
X0157871Y0177193D03*
X0157044Y0176917D03*
X0155942Y0175264D03*
X0157320Y0182705D03*
X0146965Y0094571D03*
X0148225Y0092996D03*
X0148225Y0090791D03*
X0147123Y0088902D03*
X0147438Y0088744D03*
X0147753Y0088587D03*
X0146965Y0086697D03*
X0139485Y0088744D03*
X0138855Y0091264D03*
X0136178Y0090949D03*
X0136020Y0090949D03*
X0135548Y0088744D03*
X0136650Y0087169D03*
X0129012Y0088744D03*
X0128855Y0088744D03*
X0126178Y0088429D03*
X0117753Y0090421D03*
X0117595Y0090421D03*
X0117123Y0087429D03*
X0106650Y0087902D03*
X0105233Y0086169D03*
X0105705Y0090736D03*
X0105863Y0090736D03*
X0106020Y0090736D03*
X0106178Y0090736D03*
X0106335Y0090736D03*
X0106493Y0090736D03*
X0106650Y0090736D03*
X0106808Y0090736D03*
X0098225Y0090476D03*
X0098068Y0090476D03*
X0096808Y0088272D03*
X0097910Y0086854D03*
X0098068Y0086854D03*
X0098225Y0086854D03*
X0098383Y0086854D03*
X0088383Y0086354D03*
X0088225Y0086354D03*
X0088068Y0086354D03*
X0087910Y0086354D03*
X0086020Y0086354D03*
X0085863Y0086354D03*
X0085705Y0086354D03*
X0085705Y0093756D03*
X0089327Y0093756D03*
X0096493Y0095988D03*
X0136808Y0095043D03*
X0138225Y0095043D03*
X0156650Y0090161D03*
X0158383Y0090161D03*
X0157910Y0087957D03*
X0156808Y0086539D03*
X0158225Y0092681D03*
X0158383Y0092681D03*
X0165548Y0091894D03*
X0169170Y0088587D03*
X0166808Y0086539D03*
D36*
X0166650Y0090555D03*
X0158225Y0090240D03*
X0156808Y0090240D03*
X0155548Y0088035D03*
X0148383Y0090713D03*
X0147280Y0088823D03*
X0146965Y0088980D03*
X0146808Y0088980D03*
X0146808Y0092445D03*
X0139170Y0091185D03*
X0139012Y0091185D03*
X0135863Y0091028D03*
X0136808Y0087091D03*
X0129170Y0088665D03*
X0126020Y0088508D03*
X0125863Y0088508D03*
X0118068Y0087823D03*
X0117910Y0087823D03*
X0117753Y0087665D03*
X0115863Y0089083D03*
X0115705Y0089083D03*
X0117910Y0090343D03*
X0118068Y0090343D03*
X0107910Y0090657D03*
X0106965Y0090657D03*
X0105548Y0090657D03*
X0099327Y0092130D03*
X0096808Y0091972D03*
X0096808Y0093705D03*
X0099485Y0088193D03*
X0089485Y0093835D03*
X0085548Y0093835D03*
X0079012Y0091685D03*
X0079012Y0084244D03*
X0078540Y0084244D03*
X0078068Y0084244D03*
X0077595Y0084244D03*
X0077123Y0084244D03*
X0076650Y0084244D03*
X0076178Y0084244D03*
X0119957Y0097587D03*
X0136965Y0095122D03*
X0137123Y0095122D03*
X0138068Y0095122D03*
X0116808Y0185091D03*
X0115863Y0189028D03*
X0119012Y0189185D03*
X0119170Y0189185D03*
X0118068Y0193122D03*
X0117123Y0193122D03*
X0116965Y0193122D03*
X0126650Y0191165D03*
X0126808Y0191165D03*
X0127910Y0190535D03*
X0128383Y0192898D03*
X0136808Y0190945D03*
X0138383Y0189213D03*
X0137280Y0187323D03*
X0136965Y0187480D03*
X0136808Y0187480D03*
X0146178Y0191063D03*
X0149957Y0188543D03*
X0175548Y0193520D03*
X0176650Y0190055D03*
X0179485Y0193520D03*
D37*
X0177280Y0183441D03*
X0157910Y0097484D03*
X0157753Y0097484D03*
X0106808Y0094280D03*
X0106650Y0094280D03*
D38*
X0108068Y0090106D03*
X0108383Y0089949D03*
X0107910Y0087587D03*
X0107753Y0087587D03*
X0107595Y0087587D03*
X0107438Y0087587D03*
X0107280Y0087587D03*
X0106020Y0087587D03*
X0105863Y0087587D03*
X0105705Y0087587D03*
X0105548Y0087744D03*
X0098383Y0092209D03*
X0098225Y0092209D03*
X0089327Y0092024D03*
X0089170Y0092024D03*
X0089012Y0092024D03*
X0088383Y0093441D03*
X0086650Y0093441D03*
X0088855Y0087929D03*
X0089012Y0087772D03*
X0115548Y0087272D03*
X0116020Y0087429D03*
X0116178Y0087429D03*
X0115863Y0090894D03*
X0115705Y0090894D03*
X0115548Y0090894D03*
X0115390Y0090894D03*
X0117910Y0093886D03*
X0118068Y0093886D03*
X0118225Y0093886D03*
X0118383Y0093886D03*
X0127595Y0089217D03*
X0127753Y0089217D03*
X0127438Y0087957D03*
X0137280Y0090476D03*
X0137438Y0090476D03*
X0137595Y0091736D03*
X0148698Y0094728D03*
X0157595Y0094256D03*
X0157753Y0094256D03*
X0166020Y0092209D03*
X0166178Y0092209D03*
X0168855Y0092209D03*
X0169012Y0092209D03*
X0167280Y0088272D03*
X0156808Y0088429D03*
X0148698Y0086854D03*
X0138698Y0185354D03*
X0138698Y0193228D03*
X0127280Y0192819D03*
X0127123Y0192819D03*
X0117595Y0189736D03*
X0117438Y0188476D03*
X0117280Y0188476D03*
X0145705Y0192402D03*
X0145863Y0192402D03*
X0147910Y0192402D03*
X0176020Y0191709D03*
X0176178Y0191709D03*
X0176650Y0193126D03*
X0178383Y0193126D03*
X0178855Y0191709D03*
X0179012Y0191709D03*
X0177280Y0187772D03*
D39*
X0148540Y0188465D03*
X0157438Y0097563D03*
X0157595Y0097563D03*
X0116020Y0097035D03*
X0106493Y0094201D03*
D40*
X0098698Y0092130D03*
X0098540Y0092130D03*
X0098068Y0092287D03*
X0097910Y0092287D03*
X0097910Y0088665D03*
X0097753Y0088665D03*
X0097595Y0088665D03*
X0098068Y0088665D03*
X0098225Y0088665D03*
X0098383Y0088665D03*
X0098540Y0088665D03*
X0105390Y0087823D03*
X0107123Y0087665D03*
X0115390Y0087193D03*
X0116335Y0087508D03*
X0116493Y0087508D03*
X0116650Y0089083D03*
X0116808Y0089083D03*
X0116178Y0090815D03*
X0116020Y0090815D03*
X0118540Y0093965D03*
X0125863Y0086618D03*
X0126020Y0086618D03*
X0126178Y0086618D03*
X0126335Y0086618D03*
X0126493Y0086618D03*
X0126650Y0086618D03*
X0126808Y0086618D03*
X0126965Y0086618D03*
X0127123Y0086618D03*
X0127280Y0086618D03*
X0127438Y0086618D03*
X0127595Y0086618D03*
X0127753Y0086618D03*
X0127910Y0086618D03*
X0128068Y0086618D03*
X0128225Y0086618D03*
X0128383Y0086618D03*
X0128540Y0086618D03*
X0128698Y0086618D03*
X0128855Y0086618D03*
X0129012Y0086618D03*
X0129170Y0086618D03*
X0127280Y0088035D03*
X0127123Y0088035D03*
X0127910Y0089138D03*
X0129012Y0090555D03*
X0129170Y0090555D03*
X0129327Y0090555D03*
X0129485Y0090555D03*
X0136020Y0088980D03*
X0136178Y0088980D03*
X0136335Y0088980D03*
X0136493Y0088980D03*
X0136650Y0088980D03*
X0136808Y0088980D03*
X0136965Y0088980D03*
X0137123Y0088980D03*
X0137280Y0088980D03*
X0137438Y0088980D03*
X0137595Y0088980D03*
X0137753Y0088980D03*
X0137123Y0090555D03*
X0137753Y0091657D03*
X0137910Y0091657D03*
X0137910Y0093075D03*
X0137753Y0093075D03*
X0137595Y0093075D03*
X0137438Y0093075D03*
X0137280Y0093075D03*
X0137123Y0093075D03*
X0136965Y0093075D03*
X0136808Y0093075D03*
X0136650Y0093075D03*
X0136493Y0093075D03*
X0136335Y0093075D03*
X0136178Y0093075D03*
X0136020Y0093075D03*
X0135863Y0093075D03*
X0138068Y0093075D03*
X0138225Y0093075D03*
X0138383Y0093075D03*
X0138540Y0093075D03*
X0138698Y0093075D03*
X0138855Y0093075D03*
X0139012Y0093075D03*
X0139170Y0093075D03*
X0139327Y0093075D03*
X0147280Y0090713D03*
X0147438Y0090713D03*
X0148698Y0088508D03*
X0149012Y0088350D03*
X0156178Y0088350D03*
X0156335Y0088350D03*
X0156493Y0088350D03*
X0156650Y0088350D03*
X0156965Y0088350D03*
X0157123Y0088350D03*
X0157280Y0088350D03*
X0157438Y0088350D03*
X0166808Y0088350D03*
X0166965Y0088350D03*
X0167123Y0088350D03*
X0167438Y0088193D03*
X0167595Y0088193D03*
X0166493Y0092130D03*
X0166335Y0092130D03*
X0165863Y0092130D03*
X0168698Y0092130D03*
X0169170Y0092130D03*
X0157438Y0094177D03*
X0157123Y0092445D03*
X0156808Y0092287D03*
X0156650Y0092287D03*
X0156493Y0092130D03*
X0149012Y0093075D03*
X0089485Y0092102D03*
X0088855Y0091945D03*
X0088698Y0093520D03*
X0088540Y0093520D03*
X0086493Y0093520D03*
X0079012Y0090150D03*
X0077123Y0091331D03*
X0089170Y0087693D03*
X0116020Y0186980D03*
X0116178Y0186980D03*
X0116335Y0186980D03*
X0116493Y0186980D03*
X0116650Y0186980D03*
X0116808Y0186980D03*
X0116965Y0186980D03*
X0117123Y0186980D03*
X0117280Y0186980D03*
X0117438Y0186980D03*
X0117595Y0186980D03*
X0117753Y0186980D03*
X0117123Y0188555D03*
X0117753Y0189657D03*
X0117910Y0189657D03*
X0117910Y0191075D03*
X0117753Y0191075D03*
X0117595Y0191075D03*
X0117438Y0191075D03*
X0117280Y0191075D03*
X0117123Y0191075D03*
X0116965Y0191075D03*
X0116808Y0191075D03*
X0116650Y0191075D03*
X0116493Y0191075D03*
X0116335Y0191075D03*
X0116178Y0191075D03*
X0116020Y0191075D03*
X0115863Y0191075D03*
X0118068Y0191075D03*
X0118225Y0191075D03*
X0118383Y0191075D03*
X0118540Y0191075D03*
X0118698Y0191075D03*
X0118855Y0191075D03*
X0119012Y0191075D03*
X0119170Y0191075D03*
X0119327Y0191075D03*
X0128855Y0190535D03*
X0129012Y0190535D03*
X0129170Y0190535D03*
X0129327Y0190535D03*
X0137280Y0189213D03*
X0137438Y0189213D03*
X0138698Y0187008D03*
X0139012Y0186850D03*
X0139012Y0191575D03*
X0145548Y0192480D03*
X0146020Y0192323D03*
X0147753Y0192323D03*
X0148068Y0192480D03*
X0148225Y0192480D03*
X0175863Y0191630D03*
X0176335Y0191630D03*
X0176493Y0191630D03*
X0176493Y0193205D03*
X0178540Y0193205D03*
X0178698Y0193205D03*
X0178698Y0191630D03*
X0179170Y0191630D03*
X0177595Y0187693D03*
X0177438Y0187693D03*
X0177123Y0187850D03*
X0176965Y0187850D03*
X0176808Y0187850D03*
D41*
X0177438Y0183283D03*
X0179642Y0192417D03*
X0157280Y0097642D03*
X0157123Y0097642D03*
X0117280Y0098059D03*
X0106335Y0094122D03*
D42*
X0105705Y0093807D03*
X0108068Y0095067D03*
X0099642Y0095909D03*
X0117910Y0098374D03*
X0118068Y0098374D03*
X0125548Y0094650D03*
X0135548Y0097012D03*
X0156335Y0097799D03*
X0169642Y0088665D03*
X0167123Y0085043D03*
X0157123Y0085043D03*
X0139642Y0085043D03*
X0116335Y0084831D03*
X0119642Y0183043D03*
X0126965Y0187701D03*
X0125863Y0194945D03*
X0125705Y0194945D03*
X0115548Y0195012D03*
X0147595Y0195000D03*
X0147595Y0187756D03*
X0147438Y0187756D03*
X0147280Y0187756D03*
X0176493Y0183126D03*
X0176650Y0183126D03*
X0178540Y0183126D03*
X0178698Y0183126D03*
X0178855Y0183126D03*
X0179012Y0183283D03*
X0179170Y0183283D03*
X0179327Y0183441D03*
X0179642Y0188165D03*
D43*
X0179642Y0183835D03*
X0177595Y0183205D03*
X0148383Y0188307D03*
X0146493Y0192087D03*
X0146335Y0192244D03*
X0156808Y0097720D03*
X0156965Y0097720D03*
X0156965Y0085280D03*
X0117123Y0098138D03*
X0106178Y0094043D03*
D44*
X0105863Y0093886D03*
X0095548Y0091421D03*
X0116493Y0097823D03*
X0116650Y0097980D03*
X0116808Y0097980D03*
X0147123Y0085280D03*
X0156493Y0097720D03*
X0156650Y0097720D03*
X0177910Y0183047D03*
X0178068Y0183047D03*
X0178225Y0183047D03*
X0178383Y0183047D03*
X0179485Y0183520D03*
X0175705Y0183520D03*
X0175548Y0183677D03*
X0147910Y0187835D03*
X0147753Y0187835D03*
X0137123Y0183780D03*
X0126808Y0187780D03*
X0125548Y0194866D03*
D45*
X0126335Y0195102D03*
X0126493Y0195102D03*
X0119485Y0195169D03*
X0135548Y0190945D03*
X0137123Y0191890D03*
X0135548Y0187480D03*
X0146965Y0187756D03*
X0146808Y0191535D03*
X0119485Y0182886D03*
X0118225Y0185720D03*
X0118068Y0185720D03*
X0177280Y0195409D03*
X0177753Y0195409D03*
X0156020Y0097799D03*
X0155548Y0097484D03*
X0147123Y0093390D03*
X0145548Y0092445D03*
X0145548Y0088980D03*
X0139485Y0084886D03*
X0138225Y0087720D03*
X0138068Y0087720D03*
X0139485Y0097169D03*
X0118540Y0098217D03*
X0118383Y0098217D03*
X0108540Y0094909D03*
X0108383Y0094909D03*
X0105390Y0093650D03*
X0098383Y0094807D03*
X0095705Y0091343D03*
X0095548Y0087563D03*
X0166020Y0096854D03*
X0166178Y0096854D03*
D46*
X0164446Y0089846D03*
X0170745Y0089846D03*
X0109012Y0089476D03*
D47*
X0164603Y0090083D03*
X0170587Y0090083D03*
D48*
X0170430Y0090240D03*
X0164760Y0090240D03*
X0174603Y0190055D03*
X0180587Y0190055D03*
D49*
X0180430Y0189898D03*
X0174760Y0189898D03*
X0170272Y0090398D03*
X0164918Y0090398D03*
D50*
X0165075Y0090476D03*
X0170115Y0090476D03*
X0120745Y0090264D03*
X0114446Y0090264D03*
D51*
X0099957Y0090634D03*
X0095233Y0090634D03*
X0165390Y0090634D03*
X0169800Y0090634D03*
X0175075Y0189661D03*
X0180115Y0189661D03*
D52*
X0139642Y0189213D03*
X0169642Y0094492D03*
X0149642Y0090713D03*
D53*
X0169012Y0095909D03*
X0169170Y0095909D03*
X0169327Y0095752D03*
X0169485Y0095752D03*
X0177123Y0183756D03*
D54*
X0117753Y0097508D03*
X0166335Y0095988D03*
X0166493Y0095988D03*
X0166650Y0095988D03*
X0168540Y0095988D03*
X0168698Y0095988D03*
X0168855Y0095988D03*
D55*
X0168383Y0096067D03*
X0168225Y0096067D03*
X0168068Y0096067D03*
X0167910Y0096067D03*
X0167753Y0096067D03*
X0167595Y0096067D03*
X0167438Y0096067D03*
X0167280Y0096067D03*
X0167123Y0096067D03*
X0166965Y0096067D03*
X0166808Y0096067D03*
X0117595Y0097429D03*
X0117438Y0097429D03*
X0176965Y0183913D03*
X0129642Y0188646D03*
D56*
X0148068Y0187913D03*
X0148225Y0188071D03*
X0176808Y0183126D03*
X0177753Y0183126D03*
X0116965Y0098059D03*
X0106020Y0093965D03*
X0166965Y0085201D03*
D57*
X0147123Y0090713D03*
X0146965Y0090713D03*
X0137595Y0090398D03*
X0137438Y0091815D03*
X0127438Y0089295D03*
X0127595Y0087878D03*
X0117123Y0089083D03*
X0116965Y0089083D03*
X0115863Y0087350D03*
X0115705Y0087350D03*
X0108225Y0090028D03*
X0088225Y0093362D03*
X0086808Y0093362D03*
X0157871Y0185185D03*
X0167871Y0185236D03*
X0176808Y0193047D03*
X0178225Y0193047D03*
X0137123Y0189213D03*
X0136965Y0189213D03*
X0117595Y0188398D03*
X0117438Y0189815D03*
D58*
X0119642Y0191154D03*
X0169524Y0176772D03*
X0139642Y0093154D03*
X0110745Y0088531D03*
X0104446Y0088531D03*
D59*
X0109170Y0089398D03*
X0124446Y0089925D03*
X0124603Y0089925D03*
X0124760Y0089925D03*
X0124918Y0089925D03*
X0125075Y0089925D03*
X0125233Y0089925D03*
X0125390Y0089925D03*
X0129642Y0089925D03*
X0129800Y0089925D03*
X0129957Y0089925D03*
X0130115Y0089925D03*
X0130272Y0089925D03*
X0130430Y0089925D03*
X0130587Y0089925D03*
X0130745Y0089925D03*
D60*
X0132764Y0143429D03*
X0126859Y0143429D03*
X0126859Y0149807D03*
X0132764Y0147681D03*
X0135599Y0147681D03*
X0111268Y0147445D03*
X0111268Y0143665D03*
D61*
X0114221Y0143429D03*
X0114221Y0147681D03*
X0121780Y0149807D03*
D62*
X0124024Y0146028D03*
X0123788Y0145791D03*
X0123788Y0145555D03*
X0123788Y0145319D03*
X0124024Y0145083D03*
X0126859Y0145319D03*
X0126859Y0145555D03*
X0126859Y0145791D03*
X0126859Y0147681D03*
X0126859Y0147917D03*
X0126859Y0148154D03*
X0126859Y0148390D03*
X0126859Y0148626D03*
X0126859Y0148862D03*
X0126859Y0149098D03*
X0126859Y0149335D03*
X0126859Y0149571D03*
X0132764Y0147209D03*
X0132764Y0146972D03*
X0132764Y0146736D03*
X0132764Y0146500D03*
X0132764Y0146264D03*
X0132764Y0146028D03*
X0132764Y0145791D03*
X0132764Y0145555D03*
X0132764Y0145319D03*
X0132764Y0145083D03*
X0135599Y0145083D03*
X0135599Y0145319D03*
X0135599Y0145555D03*
X0135599Y0145791D03*
X0135599Y0146028D03*
X0135599Y0146264D03*
X0135599Y0146500D03*
X0135599Y0146736D03*
X0135599Y0146972D03*
X0121190Y0143429D03*
X0119064Y0145083D03*
X0119064Y0145319D03*
X0119064Y0145555D03*
X0119064Y0145791D03*
X0119064Y0146028D03*
X0115993Y0146028D03*
X0115993Y0145791D03*
X0115993Y0145555D03*
X0115993Y0145319D03*
X0114103Y0143902D03*
X0111268Y0143902D03*
X0111268Y0147209D03*
X0114103Y0147209D03*
X0106501Y0137256D03*
X0106501Y0136154D03*
X0106501Y0131744D03*
X0113461Y0120244D03*
X0119524Y0120244D03*
X0129650Y0136154D03*
D63*
X0125087Y0143429D03*
X0121780Y0144846D03*
X0121780Y0145083D03*
X0121780Y0145319D03*
X0121780Y0145555D03*
X0121780Y0145791D03*
X0121780Y0146028D03*
X0121780Y0146264D03*
X0121780Y0146500D03*
X0121780Y0146736D03*
X0121780Y0146972D03*
X0121780Y0147209D03*
X0121780Y0147445D03*
X0121780Y0147681D03*
X0121780Y0147917D03*
X0121780Y0148154D03*
X0121780Y0148390D03*
X0121780Y0148626D03*
X0121780Y0148862D03*
X0121780Y0149098D03*
X0121780Y0149335D03*
X0121780Y0149571D03*
X0125087Y0147681D03*
X0132646Y0147445D03*
X0135717Y0147445D03*
X0135717Y0147209D03*
X0134536Y0143429D03*
X0114221Y0143665D03*
X0114221Y0147445D03*
D64*
X0117528Y0147917D03*
D65*
X0117646Y0147681D03*
X0114103Y0146972D03*
X0113867Y0146736D03*
X0113867Y0144374D03*
X0114103Y0144138D03*
X0111505Y0144374D03*
X0111505Y0146736D03*
X0121426Y0144610D03*
X0121190Y0143665D03*
D66*
X0111268Y0143429D03*
X0111268Y0147681D03*
D67*
X0112686Y0146264D03*
X0112686Y0144846D03*
X0125914Y0143665D03*
X0125914Y0147445D03*
X0133709Y0143665D03*
D68*
X0129812Y0145791D03*
X0117528Y0147445D03*
X0117528Y0143665D03*
D69*
X0112686Y0144610D03*
X0112686Y0146500D03*
X0125678Y0146972D03*
X0125678Y0147209D03*
X0125678Y0143902D03*
X0133946Y0143902D03*
X0133946Y0144138D03*
D70*
X0129812Y0144846D03*
X0129812Y0145083D03*
X0129812Y0145319D03*
X0129812Y0145555D03*
X0117528Y0143902D03*
X0117528Y0147209D03*
D71*
X0117528Y0146972D03*
X0117528Y0144138D03*
D72*
X0117528Y0143429D03*
X0116347Y0144846D03*
X0116111Y0145083D03*
X0116347Y0146264D03*
X0118946Y0146264D03*
X0118946Y0144846D03*
X0111386Y0144138D03*
X0111386Y0146972D03*
X0126741Y0146028D03*
X0126741Y0145083D03*
D73*
X0125560Y0144374D03*
X0125560Y0144138D03*
X0125560Y0146736D03*
X0117528Y0146736D03*
X0117528Y0146500D03*
X0117528Y0144610D03*
X0117528Y0144374D03*
X0134064Y0144374D03*
X0134064Y0144610D03*
D74*
X0134182Y0144846D03*
X0125442Y0144846D03*
X0125442Y0144610D03*
X0125442Y0146264D03*
X0125442Y0146500D03*
D75*
X0129694Y0144610D03*
X0112686Y0145083D03*
X0112686Y0146028D03*
D76*
X0112686Y0145791D03*
X0112686Y0145319D03*
D77*
X0112804Y0145555D03*
X0121308Y0144374D03*
X0121308Y0144138D03*
X0121308Y0143902D03*
D78*
X0117646Y0143193D03*
D79*
X0067166Y0122571D03*
X0050001Y0121154D03*
X0059607Y0097846D03*
D80*
X0065079Y0116744D03*
X0062638Y0120130D03*
X0062717Y0120445D03*
X0062796Y0120602D03*
X0062796Y0120681D03*
X0062875Y0120839D03*
X0062875Y0120917D03*
X0062953Y0121075D03*
X0062953Y0121154D03*
X0063032Y0121311D03*
X0063032Y0121390D03*
X0063111Y0121547D03*
X0063111Y0121626D03*
X0063190Y0121783D03*
X0063190Y0121862D03*
X0063268Y0122098D03*
X0063426Y0122571D03*
X0065079Y0122571D03*
X0057757Y0121075D03*
X0057678Y0121311D03*
X0057599Y0121469D03*
X0057599Y0121547D03*
X0057599Y0121626D03*
X0057520Y0121783D03*
X0057520Y0121862D03*
X0057442Y0121941D03*
X0057442Y0122020D03*
X0057442Y0122098D03*
X0057363Y0122256D03*
X0057363Y0122335D03*
X0057284Y0122492D03*
X0055709Y0122571D03*
X0054056Y0122571D03*
X0055709Y0118319D03*
D81*
X0058111Y0119972D03*
X0058032Y0120287D03*
X0057953Y0120445D03*
X0057953Y0120524D03*
X0057875Y0120681D03*
X0057875Y0120760D03*
X0057875Y0120839D03*
X0057796Y0120917D03*
X0057796Y0120996D03*
X0057717Y0121154D03*
X0057717Y0121232D03*
X0057638Y0121390D03*
X0057560Y0121705D03*
X0057323Y0122571D03*
X0060316Y0122571D03*
X0062914Y0120996D03*
X0062835Y0120760D03*
X0062757Y0120524D03*
X0062678Y0120366D03*
X0062678Y0120287D03*
X0062678Y0120209D03*
X0062599Y0120051D03*
X0062599Y0119972D03*
X0062520Y0119894D03*
X0050946Y0122492D03*
X0050001Y0121390D03*
X0052284Y0100996D03*
D82*
X0052087Y0100760D03*
X0050985Y0122571D03*
D83*
X0049922Y0119500D03*
X0059607Y0120366D03*
X0060946Y0120760D03*
X0061024Y0120681D03*
X0061024Y0120602D03*
X0061103Y0120366D03*
X0061103Y0120287D03*
X0061182Y0120209D03*
X0061182Y0120130D03*
X0061182Y0120051D03*
X0061182Y0119972D03*
X0061260Y0119894D03*
X0067166Y0118240D03*
X0067166Y0122492D03*
X0052205Y0100917D03*
D84*
X0054016Y0118319D03*
X0054016Y0118398D03*
X0054016Y0118476D03*
X0054016Y0118555D03*
X0054016Y0118634D03*
X0054016Y0118713D03*
X0054016Y0118791D03*
X0054016Y0118870D03*
X0054016Y0118949D03*
X0054016Y0119028D03*
X0054016Y0119106D03*
X0054016Y0119185D03*
X0054016Y0119264D03*
X0054016Y0119343D03*
X0054016Y0119421D03*
X0054016Y0119500D03*
X0054016Y0119579D03*
X0054016Y0119657D03*
X0054016Y0119736D03*
X0054016Y0119815D03*
X0054016Y0119894D03*
X0054016Y0119972D03*
X0054016Y0120051D03*
X0054016Y0120130D03*
X0054016Y0120209D03*
X0054016Y0120287D03*
X0054016Y0120366D03*
X0054016Y0120445D03*
X0054016Y0120524D03*
X0054016Y0120602D03*
X0054016Y0120681D03*
X0054016Y0120760D03*
X0054016Y0120839D03*
X0054016Y0120917D03*
X0054016Y0120996D03*
X0054016Y0121075D03*
X0054016Y0121154D03*
X0054016Y0121232D03*
X0054016Y0121311D03*
X0054016Y0121390D03*
X0054016Y0121469D03*
X0054016Y0121547D03*
X0054016Y0121626D03*
X0054016Y0121705D03*
X0054016Y0121783D03*
X0054016Y0121862D03*
X0054016Y0121941D03*
X0054016Y0122020D03*
X0054016Y0122098D03*
X0054016Y0122177D03*
X0054016Y0122256D03*
X0054016Y0122335D03*
X0054016Y0122413D03*
X0054016Y0122492D03*
X0055749Y0122492D03*
X0055749Y0122413D03*
X0055749Y0122335D03*
X0055749Y0122256D03*
X0055749Y0122177D03*
X0055749Y0122098D03*
X0055749Y0122020D03*
X0055749Y0121941D03*
X0055749Y0121862D03*
X0055749Y0121783D03*
X0055749Y0121705D03*
X0055749Y0121626D03*
X0055749Y0121547D03*
X0055749Y0121469D03*
X0055749Y0121390D03*
X0055749Y0121311D03*
X0055749Y0121232D03*
X0055749Y0121154D03*
X0055749Y0121075D03*
X0055749Y0120996D03*
X0055749Y0120917D03*
X0055749Y0120839D03*
X0055749Y0120760D03*
X0055749Y0120681D03*
X0055749Y0120602D03*
X0055749Y0120524D03*
X0055749Y0120445D03*
X0055749Y0120366D03*
X0055749Y0120287D03*
X0055749Y0120209D03*
X0055749Y0120130D03*
X0055749Y0120051D03*
X0055749Y0119972D03*
X0055749Y0119894D03*
X0055749Y0119815D03*
X0055749Y0119736D03*
X0055749Y0119657D03*
X0055749Y0119579D03*
X0055749Y0119500D03*
X0055749Y0119421D03*
X0055749Y0119343D03*
X0055749Y0119264D03*
X0055749Y0119185D03*
X0055749Y0119106D03*
X0055749Y0119028D03*
X0055749Y0118949D03*
X0055749Y0118870D03*
X0055749Y0118791D03*
X0055749Y0118713D03*
X0055749Y0118634D03*
X0055749Y0118555D03*
X0055749Y0118476D03*
X0055749Y0118398D03*
X0058820Y0118319D03*
X0061890Y0118319D03*
X0061890Y0118398D03*
X0062993Y0121232D03*
X0063072Y0121469D03*
X0063150Y0121705D03*
X0063229Y0121941D03*
X0063229Y0122020D03*
X0063308Y0122177D03*
X0063308Y0122256D03*
X0063386Y0122335D03*
X0063386Y0122413D03*
X0063386Y0122492D03*
X0065040Y0122492D03*
X0065040Y0122413D03*
X0065040Y0122335D03*
X0065040Y0122256D03*
X0065040Y0122177D03*
X0065040Y0120524D03*
X0065040Y0120445D03*
X0065040Y0120366D03*
X0065040Y0120287D03*
X0065040Y0120209D03*
X0065040Y0118555D03*
X0065040Y0118476D03*
X0065040Y0118398D03*
X0065040Y0118319D03*
X0065040Y0118240D03*
X0065040Y0118161D03*
X0065040Y0118083D03*
X0065040Y0118004D03*
X0065040Y0117925D03*
X0065040Y0117846D03*
X0065040Y0117768D03*
X0065040Y0117689D03*
X0065040Y0117610D03*
X0065040Y0117531D03*
X0065040Y0117453D03*
X0065040Y0117374D03*
X0065040Y0117295D03*
X0065040Y0117217D03*
X0065040Y0117138D03*
X0065040Y0117059D03*
X0065040Y0116980D03*
X0065040Y0116902D03*
X0065040Y0116823D03*
X0068426Y0120051D03*
X0068426Y0120130D03*
X0068426Y0120209D03*
X0068426Y0120287D03*
X0068426Y0120366D03*
X0068426Y0120445D03*
X0068426Y0120524D03*
X0068426Y0120602D03*
X0068426Y0120681D03*
X0060316Y0122492D03*
X0057402Y0122177D03*
X0057323Y0122413D03*
X0052442Y0120760D03*
X0052442Y0120681D03*
X0052442Y0120602D03*
X0052442Y0120524D03*
X0052442Y0120445D03*
X0052442Y0120366D03*
X0052442Y0120287D03*
X0052442Y0120209D03*
X0052442Y0120130D03*
X0052442Y0120051D03*
X0052363Y0120996D03*
X0050946Y0118398D03*
D85*
X0052245Y0119579D03*
X0052245Y0121232D03*
X0058859Y0118634D03*
X0058859Y0117295D03*
X0061930Y0118713D03*
X0065158Y0119657D03*
X0065158Y0121075D03*
X0067205Y0122413D03*
X0068229Y0121232D03*
X0068229Y0119500D03*
X0060355Y0122020D03*
X0060355Y0122098D03*
D86*
X0060355Y0122335D03*
X0060355Y0122413D03*
X0065079Y0122098D03*
X0065079Y0120760D03*
X0065079Y0120681D03*
X0065079Y0120602D03*
X0065079Y0120130D03*
X0065079Y0120051D03*
X0065079Y0119972D03*
X0065079Y0118634D03*
X0068308Y0119736D03*
X0068386Y0119815D03*
X0068386Y0119894D03*
X0068386Y0119972D03*
X0068386Y0120760D03*
X0068386Y0120839D03*
X0068386Y0120917D03*
X0068308Y0120996D03*
X0058859Y0118476D03*
X0058859Y0118398D03*
X0052402Y0119894D03*
X0052402Y0119972D03*
X0052323Y0119815D03*
X0052323Y0119736D03*
X0052402Y0120839D03*
X0052402Y0120917D03*
X0052323Y0121075D03*
X0052323Y0101075D03*
D87*
X0052363Y0101232D03*
X0054725Y0106665D03*
X0054725Y0106744D03*
X0054725Y0106823D03*
X0054725Y0106902D03*
X0054725Y0106980D03*
X0054725Y0107059D03*
X0054725Y0107138D03*
X0054725Y0107217D03*
X0054725Y0107295D03*
X0054725Y0107374D03*
X0054725Y0107453D03*
X0054725Y0107531D03*
X0054725Y0107610D03*
X0054725Y0107689D03*
X0054725Y0107768D03*
X0054725Y0107846D03*
X0054725Y0107925D03*
X0054725Y0108004D03*
X0054725Y0108083D03*
X0054725Y0108161D03*
X0054725Y0108240D03*
X0054725Y0108319D03*
X0057560Y0108398D03*
X0057560Y0106587D03*
X0060394Y0106587D03*
X0060394Y0106665D03*
X0060394Y0106744D03*
X0060394Y0106823D03*
X0060394Y0106902D03*
X0060394Y0106980D03*
X0060394Y0107059D03*
X0060394Y0107138D03*
X0060394Y0107217D03*
X0060394Y0107295D03*
X0060394Y0107374D03*
X0060394Y0107453D03*
X0060394Y0107531D03*
X0060394Y0107610D03*
X0060394Y0107689D03*
X0060394Y0107768D03*
X0060394Y0107846D03*
X0060394Y0107925D03*
X0060394Y0108004D03*
X0060394Y0108083D03*
X0060394Y0108161D03*
X0060394Y0108240D03*
X0060394Y0108319D03*
X0060394Y0108398D03*
X0063229Y0108319D03*
X0063229Y0108240D03*
X0063229Y0108161D03*
X0063229Y0108083D03*
X0063229Y0108004D03*
X0063229Y0107925D03*
X0063229Y0107846D03*
X0063229Y0107768D03*
X0063229Y0107689D03*
X0063229Y0107610D03*
X0063229Y0107531D03*
X0063229Y0107453D03*
X0063229Y0107374D03*
X0063229Y0107295D03*
X0063229Y0107217D03*
X0063229Y0107138D03*
X0063229Y0107059D03*
X0063229Y0106980D03*
X0063229Y0106902D03*
X0063229Y0106823D03*
X0063229Y0106744D03*
X0063229Y0106665D03*
X0061890Y0118949D03*
X0061890Y0119028D03*
X0060316Y0121626D03*
X0060316Y0121705D03*
X0058820Y0119106D03*
X0058820Y0119028D03*
X0058820Y0118949D03*
X0065276Y0119421D03*
X0067166Y0118398D03*
X0068032Y0121390D03*
X0067166Y0122335D03*
X0052048Y0121390D03*
X0050946Y0122413D03*
D88*
X0050985Y0122335D03*
X0060355Y0121232D03*
X0060355Y0121154D03*
X0061930Y0119421D03*
X0061930Y0119343D03*
X0058780Y0119343D03*
X0065394Y0121390D03*
X0052402Y0101311D03*
X0060670Y0098240D03*
D89*
X0067087Y0104776D03*
X0067087Y0104854D03*
X0067166Y0118476D03*
X0067166Y0122256D03*
X0058820Y0119500D03*
X0058820Y0119421D03*
D90*
X0058820Y0118555D03*
X0061890Y0118555D03*
X0061890Y0118476D03*
X0061890Y0118634D03*
X0065119Y0119736D03*
X0065119Y0119815D03*
X0065119Y0119894D03*
X0065119Y0120839D03*
X0065119Y0120917D03*
X0065119Y0120996D03*
X0068268Y0121075D03*
X0068268Y0121154D03*
X0068268Y0119657D03*
X0068268Y0119579D03*
X0067166Y0118319D03*
X0060316Y0122177D03*
X0060316Y0122256D03*
X0052284Y0121154D03*
X0052284Y0119657D03*
X0060158Y0098004D03*
D91*
X0052442Y0101469D03*
X0050631Y0105091D03*
X0050631Y0105169D03*
X0050631Y0105248D03*
X0050631Y0105327D03*
X0050631Y0109815D03*
X0050631Y0109894D03*
X0050631Y0109972D03*
X0050709Y0110287D03*
X0050946Y0118634D03*
X0050946Y0122256D03*
X0067166Y0118634D03*
X0067245Y0109185D03*
X0067245Y0109106D03*
X0067245Y0109028D03*
X0067245Y0108949D03*
X0067245Y0108870D03*
X0067245Y0108791D03*
X0067245Y0108713D03*
X0067245Y0108634D03*
X0067245Y0108555D03*
X0067245Y0108476D03*
X0067245Y0106665D03*
X0067245Y0106587D03*
X0067245Y0106508D03*
X0067245Y0106429D03*
X0067245Y0106350D03*
X0067245Y0106272D03*
X0067245Y0106193D03*
X0067245Y0106114D03*
X0067245Y0106035D03*
X0067245Y0105957D03*
D92*
X0067205Y0105878D03*
X0067205Y0105799D03*
X0067205Y0105720D03*
X0067205Y0105642D03*
X0067205Y0105563D03*
X0067205Y0109264D03*
X0067205Y0109343D03*
X0067205Y0109421D03*
X0067205Y0109500D03*
X0067205Y0109579D03*
X0050670Y0110051D03*
X0050670Y0110130D03*
X0050670Y0110209D03*
X0050670Y0105012D03*
X0050670Y0104933D03*
X0050670Y0104854D03*
X0050749Y0104697D03*
X0058780Y0119815D03*
X0061930Y0119815D03*
X0061930Y0119736D03*
X0067205Y0122177D03*
D93*
X0050985Y0122177D03*
X0050512Y0108870D03*
X0050512Y0108791D03*
X0050512Y0108713D03*
X0050512Y0108634D03*
X0050512Y0108555D03*
X0050512Y0108476D03*
X0050512Y0108398D03*
X0050512Y0108319D03*
X0050512Y0108240D03*
X0050512Y0108161D03*
X0050512Y0108083D03*
X0050512Y0108004D03*
X0050512Y0107925D03*
X0050512Y0107217D03*
X0050512Y0107138D03*
X0050512Y0107059D03*
X0050512Y0106980D03*
X0050512Y0106902D03*
X0050512Y0106823D03*
X0050512Y0106744D03*
X0050512Y0106665D03*
X0050512Y0106587D03*
X0050512Y0106508D03*
X0050512Y0106429D03*
X0050512Y0106350D03*
X0050512Y0106272D03*
X0050512Y0106193D03*
X0058938Y0104067D03*
X0058859Y0103752D03*
X0058859Y0103673D03*
X0058780Y0103516D03*
X0058780Y0103437D03*
X0058780Y0103358D03*
X0058701Y0103280D03*
X0058701Y0103201D03*
X0058701Y0103122D03*
X0058623Y0102965D03*
X0052481Y0101626D03*
D94*
X0052481Y0101547D03*
X0050591Y0105406D03*
X0050591Y0105484D03*
X0050591Y0105563D03*
X0050591Y0105642D03*
X0050591Y0105720D03*
X0050591Y0105799D03*
X0050591Y0109343D03*
X0050591Y0109421D03*
X0050591Y0109500D03*
X0050591Y0109579D03*
X0050591Y0109657D03*
X0050591Y0109736D03*
X0059016Y0104618D03*
X0059016Y0104539D03*
X0059016Y0104461D03*
X0060985Y0098398D03*
X0067284Y0106744D03*
X0067284Y0106823D03*
X0067284Y0106902D03*
X0067284Y0106980D03*
X0067284Y0107059D03*
X0067284Y0107138D03*
X0067284Y0107217D03*
X0067284Y0107295D03*
X0067284Y0107374D03*
X0067284Y0107453D03*
X0067284Y0107531D03*
X0067284Y0107610D03*
X0067284Y0107689D03*
X0067284Y0107768D03*
X0067284Y0107846D03*
X0067284Y0107925D03*
X0067284Y0108004D03*
X0067284Y0108083D03*
X0067284Y0108161D03*
X0067284Y0108240D03*
X0067284Y0108319D03*
X0067284Y0108398D03*
X0067205Y0122098D03*
D95*
X0050985Y0122098D03*
X0058465Y0102571D03*
X0058386Y0102413D03*
X0058386Y0102335D03*
X0058308Y0102256D03*
X0058308Y0102177D03*
X0058229Y0102098D03*
X0061379Y0098634D03*
D96*
X0062914Y0099972D03*
X0062993Y0100051D03*
X0055827Y0099264D03*
X0052599Y0102492D03*
X0052048Y0096587D03*
X0066457Y0118791D03*
X0066457Y0122020D03*
D97*
X0050946Y0122020D03*
X0050946Y0118870D03*
X0052520Y0101783D03*
X0057638Y0101075D03*
X0057717Y0101154D03*
X0057717Y0101232D03*
X0057796Y0101311D03*
X0061575Y0098791D03*
D98*
X0063032Y0100130D03*
X0063111Y0100209D03*
X0055709Y0099185D03*
X0052638Y0102571D03*
X0066497Y0118870D03*
X0066497Y0121941D03*
D99*
X0065198Y0121154D03*
X0065198Y0119579D03*
X0068111Y0119421D03*
X0061890Y0118791D03*
X0058820Y0118791D03*
X0058820Y0118713D03*
X0058820Y0118870D03*
X0060316Y0121941D03*
X0052127Y0121311D03*
X0052127Y0119500D03*
X0052363Y0101154D03*
X0060316Y0098083D03*
X0050788Y0095957D03*
D100*
X0051575Y0096272D03*
X0057323Y0100681D03*
X0057402Y0100760D03*
X0057481Y0100839D03*
X0061812Y0098949D03*
X0050946Y0118949D03*
X0050946Y0121941D03*
D101*
X0066536Y0121862D03*
X0066536Y0121783D03*
X0066536Y0118949D03*
X0063229Y0100366D03*
X0063150Y0100287D03*
X0055591Y0099106D03*
X0052127Y0096665D03*
D102*
X0054764Y0106587D03*
X0054764Y0108398D03*
X0063190Y0108398D03*
X0063190Y0106587D03*
X0061930Y0118870D03*
X0060355Y0121783D03*
X0060355Y0121862D03*
X0065237Y0121232D03*
X0065237Y0119500D03*
X0068072Y0119343D03*
X0068150Y0121311D03*
D103*
X0050985Y0121862D03*
X0052560Y0101941D03*
X0057205Y0100524D03*
X0057284Y0100602D03*
X0061930Y0099028D03*
D104*
X0062087Y0099185D03*
X0052560Y0102020D03*
X0051694Y0096350D03*
X0050985Y0121783D03*
D105*
X0066575Y0121705D03*
X0066575Y0119028D03*
X0052638Y0102728D03*
X0052638Y0102650D03*
X0063268Y0100445D03*
X0063347Y0100524D03*
D106*
X0056851Y0100130D03*
X0056772Y0100051D03*
X0056694Y0099972D03*
X0052599Y0102098D03*
X0050946Y0119106D03*
X0050946Y0121705D03*
D107*
X0066615Y0121626D03*
X0066615Y0121547D03*
X0066615Y0121469D03*
X0066615Y0119185D03*
X0066615Y0119106D03*
X0063465Y0100681D03*
X0063386Y0100602D03*
X0055434Y0099028D03*
D108*
X0056457Y0099736D03*
X0056536Y0099815D03*
X0056615Y0099894D03*
X0052599Y0102177D03*
X0062363Y0099421D03*
X0062442Y0099500D03*
X0051024Y0119343D03*
X0051103Y0119421D03*
X0051024Y0121547D03*
X0050946Y0121626D03*
D109*
X0050985Y0118476D03*
X0060355Y0121547D03*
X0061930Y0119185D03*
X0061930Y0119106D03*
X0065316Y0121311D03*
X0057520Y0108319D03*
X0057520Y0108240D03*
X0057520Y0108161D03*
X0057520Y0108083D03*
X0057520Y0108004D03*
X0057520Y0107925D03*
X0057520Y0107846D03*
X0057520Y0107768D03*
X0057520Y0107689D03*
X0057520Y0107610D03*
X0057520Y0107531D03*
X0057520Y0107453D03*
X0057520Y0107374D03*
X0057520Y0107295D03*
X0057520Y0107217D03*
X0057520Y0107138D03*
X0057520Y0107059D03*
X0057520Y0106980D03*
X0057520Y0106902D03*
X0057520Y0106823D03*
X0057520Y0106744D03*
X0057520Y0106665D03*
X0060512Y0098161D03*
D110*
X0058820Y0119185D03*
X0058820Y0119264D03*
X0060316Y0121311D03*
X0060316Y0121390D03*
X0060316Y0121469D03*
X0061890Y0119264D03*
X0065355Y0119343D03*
X0067875Y0119264D03*
D111*
X0050985Y0119185D03*
X0051064Y0121469D03*
X0062245Y0099343D03*
X0062166Y0099264D03*
D112*
X0049961Y0121311D03*
D113*
X0049961Y0121232D03*
D114*
X0058780Y0119657D03*
X0058780Y0119579D03*
X0060355Y0120996D03*
X0060355Y0121075D03*
X0061930Y0119657D03*
X0061930Y0119579D03*
X0061930Y0119500D03*
X0067127Y0110130D03*
X0067127Y0110051D03*
X0067127Y0109972D03*
X0067127Y0105169D03*
X0067127Y0105091D03*
X0067127Y0105012D03*
X0067127Y0104933D03*
X0067048Y0104697D03*
X0060827Y0098319D03*
D115*
X0050670Y0098555D03*
X0050040Y0121075D03*
D116*
X0050946Y0118555D03*
X0058820Y0119736D03*
X0060316Y0120839D03*
X0060316Y0120917D03*
X0065512Y0119264D03*
X0067166Y0118555D03*
X0067009Y0110287D03*
X0067087Y0110209D03*
X0067166Y0109894D03*
X0067166Y0109815D03*
X0067166Y0109736D03*
X0067166Y0109657D03*
X0067166Y0105484D03*
X0067166Y0105406D03*
X0067166Y0105327D03*
X0067166Y0105248D03*
X0052442Y0101390D03*
X0050709Y0104776D03*
X0051103Y0096035D03*
D117*
X0059883Y0097925D03*
X0059489Y0119894D03*
X0059489Y0119972D03*
X0059489Y0120051D03*
X0059489Y0120130D03*
X0059568Y0120209D03*
X0059568Y0120287D03*
X0059646Y0120445D03*
X0059646Y0120524D03*
X0059646Y0120602D03*
X0059725Y0120681D03*
X0059725Y0120760D03*
X0061064Y0120524D03*
X0061064Y0120445D03*
X0058150Y0119894D03*
X0058072Y0120051D03*
X0058072Y0120130D03*
X0058072Y0120209D03*
X0057993Y0120366D03*
X0057914Y0120602D03*
X0190284Y0102126D03*
X0200087Y0102126D03*
D118*
X0050001Y0119815D03*
D119*
X0049961Y0119736D03*
X0067127Y0118161D03*
D120*
X0049922Y0119657D03*
D121*
X0049883Y0119579D03*
X0050985Y0118319D03*
X0052166Y0100839D03*
D122*
X0056339Y0099657D03*
X0051851Y0096429D03*
X0058859Y0117138D03*
X0050985Y0119264D03*
D123*
X0050946Y0119028D03*
X0057166Y0100445D03*
X0057087Y0100366D03*
X0057009Y0100287D03*
X0056930Y0100209D03*
X0061969Y0099106D03*
D124*
X0061497Y0098713D03*
X0058111Y0101783D03*
X0058111Y0101862D03*
X0058190Y0101941D03*
X0058190Y0102020D03*
X0058032Y0101705D03*
X0052520Y0101705D03*
X0050946Y0118791D03*
D125*
X0066418Y0118713D03*
X0055946Y0099343D03*
D126*
X0058426Y0102492D03*
X0058505Y0102650D03*
X0058505Y0102728D03*
X0058583Y0102807D03*
X0058583Y0102886D03*
X0058662Y0103043D03*
X0050473Y0107295D03*
X0050473Y0107374D03*
X0050473Y0107453D03*
X0050473Y0107531D03*
X0050473Y0107610D03*
X0050473Y0107689D03*
X0050473Y0107768D03*
X0050473Y0107846D03*
X0061260Y0098555D03*
X0050946Y0118713D03*
D127*
X0058859Y0117217D03*
X0057599Y0100996D03*
X0057520Y0100917D03*
X0061694Y0098870D03*
X0052560Y0101862D03*
D128*
X0052638Y0102807D03*
X0055316Y0098949D03*
X0052245Y0096744D03*
X0063505Y0100760D03*
X0063583Y0100839D03*
X0058859Y0117059D03*
D129*
X0058859Y0116980D03*
X0064528Y0102492D03*
X0064449Y0102335D03*
X0064371Y0102177D03*
X0054764Y0098713D03*
X0052560Y0097059D03*
D130*
X0052638Y0103909D03*
X0065079Y0103988D03*
X0065079Y0104067D03*
X0065079Y0104146D03*
X0065158Y0104303D03*
X0058859Y0116902D03*
D131*
X0058820Y0116823D03*
X0053072Y0097689D03*
D132*
X0053268Y0098004D03*
X0058859Y0116744D03*
D133*
X0058859Y0116665D03*
X0053505Y0098398D03*
D134*
X0058859Y0116587D03*
D135*
X0058859Y0116508D03*
D136*
X0058859Y0116429D03*
D137*
X0058820Y0116350D03*
D138*
X0058859Y0116272D03*
D139*
X0058859Y0116193D03*
D140*
X0058820Y0116114D03*
D141*
X0058820Y0116035D03*
D142*
X0058859Y0115957D03*
D143*
X0058820Y0115878D03*
D144*
X0058820Y0115799D03*
D145*
X0058820Y0115720D03*
D146*
X0058820Y0115642D03*
D147*
X0058820Y0115563D03*
D148*
X0058859Y0115484D03*
D149*
X0058820Y0115406D03*
D150*
X0058820Y0115327D03*
D151*
X0058859Y0115248D03*
D152*
X0058820Y0115169D03*
D153*
X0058820Y0115091D03*
D154*
X0058820Y0115012D03*
D155*
X0058859Y0114933D03*
D156*
X0058859Y0114854D03*
D157*
X0058859Y0114776D03*
D158*
X0058859Y0114697D03*
D159*
X0058859Y0114618D03*
D160*
X0058859Y0114539D03*
D161*
X0058820Y0114461D03*
D162*
X0058859Y0114382D03*
D163*
X0058859Y0114303D03*
D164*
X0058859Y0114224D03*
D165*
X0058859Y0114146D03*
D166*
X0058859Y0114067D03*
D167*
X0058859Y0113988D03*
D168*
X0058859Y0113909D03*
D169*
X0058820Y0113831D03*
D170*
X0058820Y0113752D03*
D171*
X0058859Y0113673D03*
D172*
X0058859Y0113594D03*
D173*
X0058859Y0113516D03*
D174*
X0058820Y0113437D03*
D175*
X0058859Y0113358D03*
D176*
X0058859Y0113280D03*
D177*
X0058859Y0113201D03*
D178*
X0058820Y0113122D03*
D179*
X0058859Y0113043D03*
D180*
X0058820Y0112965D03*
D181*
X0058820Y0112886D03*
D182*
X0058859Y0112807D03*
D183*
X0058820Y0112728D03*
D184*
X0058820Y0112650D03*
D185*
X0058859Y0112571D03*
D186*
X0058820Y0112492D03*
D187*
X0058859Y0112413D03*
D188*
X0058820Y0112335D03*
D189*
X0058859Y0112256D03*
D190*
X0058859Y0112177D03*
X0058859Y0112098D03*
D191*
X0058820Y0112020D03*
D192*
X0058820Y0111941D03*
D193*
X0058859Y0111862D03*
X0058859Y0111783D03*
D194*
X0058859Y0111705D03*
D195*
X0058820Y0111626D03*
X0058820Y0111547D03*
D196*
X0058859Y0111469D03*
D197*
X0058820Y0111390D03*
D198*
X0058859Y0111311D03*
D199*
X0058820Y0111232D03*
X0058820Y0111154D03*
D200*
X0058859Y0111075D03*
D201*
X0058820Y0110996D03*
D202*
X0058859Y0110917D03*
X0058859Y0110839D03*
D203*
X0058820Y0110760D03*
D204*
X0058859Y0110681D03*
D205*
X0058820Y0110602D03*
X0058820Y0110524D03*
D206*
X0058859Y0110445D03*
X0058859Y0110366D03*
D207*
X0050552Y0109264D03*
X0050552Y0109185D03*
X0050552Y0109106D03*
X0050552Y0109028D03*
X0050552Y0108949D03*
X0050552Y0106114D03*
X0050552Y0106035D03*
X0050552Y0105957D03*
X0050552Y0105878D03*
X0058977Y0104382D03*
X0058977Y0104303D03*
X0058977Y0104224D03*
X0058977Y0104146D03*
X0058898Y0103988D03*
X0058898Y0103909D03*
X0058898Y0103831D03*
X0058820Y0103594D03*
X0061103Y0098476D03*
X0051260Y0096114D03*
D208*
X0052835Y0097374D03*
X0052678Y0103988D03*
X0065119Y0104224D03*
X0065198Y0104382D03*
X0065198Y0104461D03*
X0065198Y0104539D03*
X0065198Y0104618D03*
D209*
X0052638Y0104618D03*
X0052638Y0104539D03*
D210*
X0052678Y0104461D03*
X0052993Y0097610D03*
D211*
X0052953Y0097531D03*
X0054213Y0098555D03*
X0052638Y0104382D03*
D212*
X0052678Y0104303D03*
X0052678Y0104224D03*
X0052678Y0104146D03*
X0052914Y0097453D03*
D213*
X0052638Y0104067D03*
D214*
X0052678Y0103831D03*
X0052678Y0103752D03*
X0052757Y0097295D03*
X0064961Y0103673D03*
X0064961Y0103752D03*
X0065040Y0103831D03*
X0065040Y0103909D03*
D215*
X0064883Y0103358D03*
X0064804Y0103201D03*
X0064804Y0103122D03*
X0064725Y0102965D03*
X0052678Y0103594D03*
X0052678Y0103673D03*
D216*
X0054528Y0098634D03*
X0052717Y0097217D03*
X0064843Y0103280D03*
X0064922Y0103437D03*
X0064922Y0103516D03*
X0064922Y0103594D03*
D217*
X0064764Y0103043D03*
X0064686Y0102886D03*
X0052638Y0103516D03*
X0052638Y0097138D03*
D218*
X0064568Y0102571D03*
X0064568Y0102650D03*
X0064646Y0102728D03*
X0064646Y0102807D03*
X0052678Y0103437D03*
D219*
X0052678Y0103358D03*
X0052678Y0103280D03*
X0064331Y0102098D03*
X0064410Y0102256D03*
X0064489Y0102413D03*
D220*
X0064292Y0102020D03*
X0064292Y0101941D03*
X0064213Y0101862D03*
X0052638Y0103201D03*
X0052481Y0096980D03*
D221*
X0052402Y0096902D03*
X0063977Y0101390D03*
X0063977Y0101469D03*
X0064056Y0101547D03*
X0052638Y0103043D03*
X0052638Y0103122D03*
D222*
X0052638Y0102965D03*
X0063741Y0101075D03*
X0063820Y0101154D03*
X0063898Y0101311D03*
X0052323Y0096823D03*
D223*
X0063623Y0100917D03*
X0063701Y0100996D03*
X0052678Y0102886D03*
D224*
X0052599Y0102413D03*
X0056064Y0099421D03*
X0062678Y0099736D03*
X0062757Y0099815D03*
X0062835Y0099894D03*
D225*
X0056260Y0099579D03*
X0056182Y0099500D03*
X0052638Y0102335D03*
X0051930Y0096508D03*
D226*
X0052599Y0102256D03*
X0062520Y0099579D03*
X0062599Y0099657D03*
D227*
X0064095Y0101626D03*
X0064095Y0101705D03*
X0064174Y0101783D03*
X0054961Y0098791D03*
D228*
X0057835Y0101390D03*
X0057914Y0101469D03*
X0057914Y0101547D03*
X0057993Y0101626D03*
X0051457Y0096193D03*
D229*
X0055119Y0098870D03*
X0063859Y0101232D03*
D230*
X0052087Y0100681D03*
D231*
X0053544Y0098476D03*
D232*
X0053465Y0098319D03*
D233*
X0053426Y0098240D03*
D234*
X0053386Y0098161D03*
D235*
X0053347Y0098083D03*
D236*
X0053229Y0097925D03*
D237*
X0053190Y0097846D03*
D238*
X0053111Y0097768D03*
D239*
X0104603Y0088610D03*
X0110587Y0088610D03*
D240*
X0110430Y0088768D03*
X0104760Y0088768D03*
D241*
X0104918Y0088846D03*
X0110272Y0088846D03*
D242*
X0108855Y0089555D03*
D243*
X0108698Y0089634D03*
X0174446Y0190291D03*
X0180745Y0190291D03*
D244*
X0105075Y0088925D03*
X0089642Y0088795D03*
D245*
X0094918Y0090791D03*
X0100272Y0090791D03*
X0114918Y0090579D03*
X0120272Y0090579D03*
X0175390Y0189504D03*
X0179800Y0189504D03*
D246*
X0119170Y0091130D03*
X0090745Y0090843D03*
X0084446Y0090843D03*
D247*
X0119012Y0091209D03*
D248*
X0118855Y0091287D03*
D249*
X0118698Y0091366D03*
D250*
X0099642Y0088350D03*
X0159524Y0177272D03*
X0148855Y0191693D03*
D251*
X0194658Y0112343D03*
X0194658Y0107657D03*
D252*
X0194658Y0107776D03*
X0194658Y0112224D03*
X0194512Y0118012D03*
D253*
X0194658Y0112126D03*
D254*
X0194658Y0112008D03*
D255*
X0194658Y0111870D03*
X0194658Y0108091D03*
D256*
X0194658Y0108209D03*
X0194658Y0111752D03*
D257*
X0194658Y0111654D03*
D258*
X0196430Y0111555D03*
X0194512Y0117657D03*
X0194512Y0122343D03*
X0195186Y0102343D03*
X0195186Y0102224D03*
X0195186Y0101870D03*
X0195186Y0101752D03*
X0195186Y0098327D03*
X0195186Y0098209D03*
X0195186Y0098091D03*
X0195186Y0098012D03*
X0195186Y0097894D03*
X0195186Y0097776D03*
X0195186Y0097657D03*
D259*
X0189934Y0109665D03*
X0190406Y0111555D03*
D260*
X0198733Y0111417D03*
X0198115Y0121417D03*
D261*
X0195516Y0121417D03*
X0195635Y0119055D03*
X0196135Y0111417D03*
X0196135Y0109055D03*
X0193418Y0110945D03*
X0193946Y0100945D03*
X0196662Y0101417D03*
X0196662Y0099055D03*
X0198906Y0098583D03*
D262*
X0198375Y0099528D03*
X0198375Y0100000D03*
X0198375Y0100472D03*
X0198375Y0100945D03*
X0194005Y0101417D03*
X0193477Y0111417D03*
X0160339Y0123417D03*
X0159394Y0121528D03*
D263*
X0190229Y0111417D03*
D264*
X0198733Y0111280D03*
X0198851Y0111201D03*
X0198851Y0111083D03*
X0198233Y0121083D03*
X0198233Y0121201D03*
D265*
X0195635Y0118917D03*
X0192800Y0120807D03*
X0196135Y0111280D03*
X0196135Y0109272D03*
X0196135Y0109193D03*
X0197434Y0109193D03*
X0196662Y0101280D03*
X0196662Y0099272D03*
X0196662Y0099193D03*
X0197961Y0099193D03*
X0198906Y0099272D03*
X0193946Y0100728D03*
X0193946Y0100807D03*
X0193827Y0100610D03*
X0191465Y0100217D03*
X0191465Y0099862D03*
X0191465Y0098839D03*
X0191465Y0101083D03*
X0160280Y0120917D03*
X0160044Y0121390D03*
X0160162Y0122807D03*
X0157682Y0121862D03*
X0157682Y0121783D03*
X0157682Y0120917D03*
X0157682Y0120839D03*
X0154965Y0120445D03*
D266*
X0157977Y0122217D03*
X0161520Y0122335D03*
X0192623Y0119783D03*
X0192741Y0121201D03*
X0195812Y0118445D03*
X0193477Y0111280D03*
X0194005Y0101280D03*
X0193532Y0100217D03*
X0193532Y0100138D03*
D267*
X0194536Y0098445D03*
X0199442Y0109272D03*
X0190111Y0111280D03*
X0189993Y0111201D03*
X0189993Y0111083D03*
X0189875Y0110807D03*
X0189757Y0110610D03*
X0189757Y0110335D03*
X0189757Y0110217D03*
X0189757Y0110138D03*
X0164060Y0121390D03*
X0164060Y0121665D03*
X0164060Y0121783D03*
X0164060Y0121862D03*
X0164060Y0122138D03*
X0164060Y0122217D03*
X0164060Y0122335D03*
X0164060Y0122610D03*
D268*
X0160221Y0121193D03*
X0160103Y0121272D03*
X0159985Y0122138D03*
X0158922Y0122807D03*
X0157623Y0121665D03*
X0157623Y0121390D03*
X0157623Y0121272D03*
X0157623Y0121193D03*
X0155024Y0122807D03*
X0192859Y0120728D03*
X0195575Y0120728D03*
X0195575Y0120807D03*
X0195575Y0120610D03*
X0195575Y0120335D03*
X0195575Y0120217D03*
X0195575Y0120138D03*
X0195575Y0119862D03*
X0195575Y0119783D03*
X0195575Y0119665D03*
X0195575Y0119390D03*
X0195575Y0119272D03*
X0195575Y0119193D03*
X0196875Y0119193D03*
X0195575Y0121083D03*
X0195575Y0121201D03*
X0195575Y0121280D03*
X0196075Y0111201D03*
X0196075Y0111083D03*
X0196075Y0110807D03*
X0196075Y0110728D03*
X0196075Y0110610D03*
X0196075Y0110335D03*
X0196075Y0110217D03*
X0196075Y0110138D03*
X0196075Y0109862D03*
X0196075Y0109783D03*
X0196075Y0109665D03*
X0196075Y0109390D03*
X0193359Y0110138D03*
X0193477Y0110728D03*
X0193477Y0110807D03*
X0196603Y0101201D03*
X0196603Y0101083D03*
X0196603Y0100807D03*
X0196603Y0100728D03*
X0196603Y0100610D03*
X0196603Y0100335D03*
X0196603Y0100217D03*
X0196603Y0100138D03*
X0196603Y0099862D03*
X0196603Y0099783D03*
X0196603Y0099665D03*
X0196603Y0099390D03*
X0198965Y0099193D03*
X0198965Y0098720D03*
X0191406Y0098917D03*
X0191406Y0099665D03*
X0191406Y0099783D03*
X0191406Y0100335D03*
X0191406Y0100610D03*
X0191406Y0100728D03*
X0191406Y0100807D03*
D269*
X0192705Y0099272D03*
X0194241Y0099390D03*
X0195304Y0100138D03*
X0195304Y0100217D03*
X0195304Y0100610D03*
X0194005Y0101201D03*
X0194776Y0110138D03*
X0194776Y0110217D03*
X0194776Y0110610D03*
X0193477Y0111201D03*
X0192178Y0110610D03*
X0192178Y0110335D03*
X0192296Y0110138D03*
X0194158Y0120217D03*
X0194158Y0120335D03*
X0194158Y0120610D03*
X0192741Y0121083D03*
X0161638Y0121272D03*
X0159749Y0121783D03*
X0158922Y0121272D03*
X0155260Y0121665D03*
D270*
X0157741Y0120720D03*
X0158922Y0121193D03*
X0159867Y0121862D03*
X0160221Y0123083D03*
X0161757Y0121193D03*
X0157741Y0123083D03*
X0157741Y0123201D03*
X0192178Y0110728D03*
X0193477Y0111083D03*
X0196194Y0108917D03*
X0196194Y0108839D03*
X0199792Y0102343D03*
X0196721Y0098917D03*
X0196721Y0098839D03*
X0199792Y0097657D03*
X0191524Y0098720D03*
X0191524Y0100138D03*
X0191524Y0101201D03*
X0190579Y0102343D03*
X0190579Y0097657D03*
X0195694Y0118839D03*
D271*
X0198292Y0120945D03*
X0198910Y0110945D03*
X0152308Y0123417D03*
D272*
X0154906Y0123417D03*
X0154906Y0120583D03*
X0157623Y0121055D03*
X0157623Y0121528D03*
X0159985Y0122000D03*
X0160221Y0121055D03*
X0195575Y0120945D03*
X0195575Y0120472D03*
X0195575Y0120000D03*
X0195575Y0119528D03*
X0196075Y0110945D03*
X0196075Y0110472D03*
X0196075Y0110000D03*
X0196075Y0109528D03*
X0196603Y0100945D03*
X0196603Y0100472D03*
X0196603Y0100000D03*
X0196603Y0099528D03*
X0191406Y0099055D03*
X0191406Y0100472D03*
X0191406Y0100945D03*
D273*
X0189757Y0110472D03*
X0189875Y0110945D03*
X0164060Y0121528D03*
X0164060Y0122000D03*
X0164060Y0122472D03*
D274*
X0152308Y0123280D03*
X0152190Y0123201D03*
X0152190Y0123083D03*
X0198292Y0120807D03*
X0198292Y0120728D03*
X0198910Y0110807D03*
X0198910Y0110728D03*
D275*
X0197434Y0109272D03*
X0196253Y0108720D03*
X0194835Y0110728D03*
X0192237Y0110217D03*
X0191583Y0101280D03*
X0192646Y0100728D03*
X0192646Y0100610D03*
X0193946Y0101083D03*
X0195363Y0100728D03*
X0196780Y0098720D03*
X0197961Y0099272D03*
X0198788Y0098445D03*
X0192646Y0099193D03*
X0195753Y0118720D03*
X0196816Y0119272D03*
X0194217Y0120138D03*
X0194217Y0120728D03*
X0161698Y0122728D03*
X0160280Y0120839D03*
X0158863Y0122728D03*
X0157800Y0122728D03*
X0157800Y0122807D03*
X0157800Y0123280D03*
X0157800Y0122138D03*
X0155201Y0122138D03*
X0155201Y0122217D03*
X0155201Y0121862D03*
X0155201Y0121783D03*
D276*
X0164001Y0121272D03*
X0164001Y0121193D03*
X0164001Y0122728D03*
X0164001Y0122807D03*
X0190024Y0120610D03*
X0190024Y0120335D03*
X0190024Y0120217D03*
X0190024Y0120138D03*
X0190024Y0119862D03*
X0190024Y0119783D03*
X0190024Y0119665D03*
X0190024Y0119390D03*
X0193331Y0119193D03*
X0193331Y0118917D03*
X0193331Y0118839D03*
X0193331Y0118720D03*
X0198528Y0118445D03*
X0198883Y0119272D03*
X0199501Y0109193D03*
X0199146Y0108445D03*
X0189816Y0110728D03*
D277*
X0198969Y0110610D03*
X0198969Y0110335D03*
X0198969Y0110217D03*
X0198969Y0110138D03*
X0198969Y0109862D03*
X0198969Y0109783D03*
X0198969Y0109665D03*
X0198969Y0109390D03*
X0198351Y0119390D03*
X0198351Y0119665D03*
X0198351Y0119783D03*
X0198351Y0119862D03*
X0198351Y0120138D03*
X0198351Y0120217D03*
X0198351Y0120335D03*
X0198351Y0120610D03*
X0152131Y0121193D03*
X0152131Y0121272D03*
X0152131Y0122728D03*
X0152131Y0122807D03*
D278*
X0154965Y0123083D03*
X0154965Y0123201D03*
X0154965Y0123280D03*
X0154965Y0120917D03*
X0154965Y0120839D03*
X0154965Y0120720D03*
X0160044Y0122217D03*
X0160044Y0122335D03*
X0160162Y0122610D03*
X0160162Y0122728D03*
X0192800Y0120335D03*
X0192800Y0120217D03*
X0192918Y0120610D03*
X0193418Y0110610D03*
X0193418Y0110335D03*
X0193418Y0110217D03*
X0192646Y0100807D03*
X0191347Y0099390D03*
X0191347Y0099272D03*
X0191347Y0099193D03*
X0199024Y0098917D03*
X0199024Y0098839D03*
D279*
X0198969Y0109528D03*
X0198969Y0110000D03*
X0198969Y0110472D03*
X0198351Y0119528D03*
X0198351Y0120000D03*
X0198351Y0120472D03*
X0152131Y0121055D03*
X0152131Y0122945D03*
D280*
X0192564Y0120000D03*
X0195753Y0118583D03*
X0194717Y0110472D03*
X0195245Y0100472D03*
X0192764Y0099528D03*
D281*
X0191347Y0099528D03*
X0199024Y0099055D03*
X0193418Y0110472D03*
X0160044Y0122472D03*
X0154965Y0122945D03*
X0154965Y0121055D03*
D282*
X0157859Y0123417D03*
X0192178Y0110472D03*
X0196312Y0108583D03*
X0191642Y0101417D03*
X0194123Y0099528D03*
X0196839Y0098583D03*
X0194158Y0120472D03*
D283*
X0192564Y0120138D03*
X0192564Y0119862D03*
X0194717Y0110335D03*
X0190402Y0102224D03*
X0192646Y0099390D03*
X0191701Y0098445D03*
X0190402Y0097776D03*
X0195245Y0100335D03*
X0199969Y0102224D03*
X0199969Y0097776D03*
X0161579Y0121390D03*
X0161579Y0122610D03*
X0160280Y0123201D03*
X0158981Y0121390D03*
X0157918Y0120445D03*
X0160280Y0120720D03*
D284*
X0192800Y0121417D03*
X0192827Y0110000D03*
X0198316Y0101417D03*
D285*
X0189816Y0110000D03*
X0193331Y0118583D03*
D286*
X0192800Y0119390D03*
X0192946Y0109862D03*
X0193064Y0109783D03*
X0193772Y0109272D03*
X0193591Y0099783D03*
X0190166Y0098012D03*
X0200205Y0098012D03*
D287*
X0189816Y0109862D03*
X0193331Y0118445D03*
D288*
X0189875Y0109783D03*
D289*
X0193241Y0109665D03*
X0192741Y0121280D03*
X0159512Y0121665D03*
D290*
X0161461Y0122000D03*
X0193418Y0109528D03*
X0193591Y0100000D03*
D291*
X0189993Y0109528D03*
D292*
X0193536Y0109390D03*
X0196371Y0108445D03*
X0191820Y0101555D03*
X0193473Y0100335D03*
X0193591Y0099862D03*
X0194418Y0099272D03*
X0196898Y0098445D03*
X0200087Y0097894D03*
X0190284Y0097894D03*
X0192682Y0119665D03*
X0161461Y0121665D03*
X0161461Y0121783D03*
X0161461Y0121862D03*
X0161461Y0122138D03*
X0161461Y0122217D03*
X0160280Y0123280D03*
D293*
X0190052Y0109390D03*
X0190170Y0109272D03*
D294*
X0194186Y0109193D03*
X0189871Y0101280D03*
X0189871Y0098720D03*
X0193414Y0099665D03*
X0194713Y0098917D03*
X0194713Y0098839D03*
X0200501Y0098720D03*
X0200501Y0101280D03*
D295*
X0190288Y0109193D03*
X0198174Y0121280D03*
D296*
X0198942Y0119055D03*
X0198705Y0118583D03*
X0190083Y0119055D03*
X0190083Y0120945D03*
X0189757Y0109055D03*
X0199323Y0108583D03*
X0199560Y0109055D03*
X0200678Y0100472D03*
X0200678Y0100000D03*
X0200678Y0099528D03*
X0189694Y0099528D03*
X0189694Y0100000D03*
X0189694Y0100472D03*
D297*
X0194772Y0099055D03*
X0194245Y0108583D03*
X0194245Y0109055D03*
X0155792Y0121528D03*
X0155792Y0122472D03*
D298*
X0151481Y0120917D03*
X0151481Y0120839D03*
X0163883Y0120720D03*
X0163883Y0123280D03*
X0190142Y0121201D03*
X0190142Y0121083D03*
X0190142Y0118917D03*
X0190142Y0118839D03*
X0198764Y0118720D03*
X0198883Y0118839D03*
X0198883Y0118917D03*
X0199501Y0108917D03*
X0199501Y0108839D03*
X0199383Y0108720D03*
X0189816Y0108839D03*
X0189816Y0108917D03*
X0189753Y0100807D03*
X0189753Y0100728D03*
X0189753Y0099272D03*
X0189753Y0099193D03*
X0200619Y0099193D03*
X0200619Y0099272D03*
X0200619Y0100728D03*
X0200619Y0100807D03*
D299*
X0200442Y0101555D03*
X0200442Y0098445D03*
X0194772Y0099193D03*
X0189930Y0098445D03*
X0189930Y0101555D03*
X0194245Y0108720D03*
X0194245Y0108839D03*
X0194245Y0108917D03*
X0155792Y0121193D03*
X0155792Y0121272D03*
X0155792Y0121390D03*
X0155792Y0122335D03*
X0155792Y0122610D03*
X0155792Y0122728D03*
D300*
X0151540Y0120720D03*
X0151658Y0120445D03*
X0163823Y0120445D03*
X0190201Y0121280D03*
X0190201Y0118720D03*
X0190320Y0118445D03*
X0189875Y0108720D03*
X0189993Y0108445D03*
X0194245Y0108445D03*
X0189812Y0101201D03*
X0189812Y0101083D03*
X0189812Y0098917D03*
X0189812Y0098839D03*
X0194654Y0098720D03*
X0200560Y0098839D03*
X0200560Y0098917D03*
X0200560Y0101083D03*
X0200560Y0101201D03*
D301*
X0189875Y0108583D03*
X0151540Y0120583D03*
D302*
X0194658Y0108327D03*
D303*
X0194658Y0108012D03*
X0194512Y0121555D03*
D304*
X0194512Y0121752D03*
X0194512Y0118209D03*
X0194658Y0107894D03*
D305*
X0079938Y0092335D03*
X0075253Y0092335D03*
D306*
X0075371Y0092276D03*
X0079820Y0092276D03*
D307*
X0079721Y0092217D03*
D308*
X0079603Y0092157D03*
D309*
X0079465Y0092098D03*
X0075686Y0092098D03*
D310*
X0075804Y0092039D03*
X0079347Y0092039D03*
D311*
X0079249Y0091980D03*
D312*
X0079150Y0089146D03*
D313*
X0079150Y0097709D03*
D314*
X0078540Y0096114D03*
X0076650Y0096114D03*
X0077123Y0093161D03*
X0077595Y0093161D03*
X0078068Y0093161D03*
X0076650Y0090091D03*
X0076178Y0090209D03*
X0079012Y0087492D03*
D315*
X0076178Y0091626D03*
X0079012Y0093634D03*
D316*
X0078540Y0093339D03*
X0079012Y0095937D03*
X0077595Y0089913D03*
X0077595Y0087197D03*
X0158422Y0176917D03*
X0156493Y0180500D03*
X0158422Y0182980D03*
X0158146Y0185185D03*
X0157044Y0186012D03*
X0158698Y0194004D03*
X0167595Y0188819D03*
X0168146Y0185236D03*
D317*
X0159249Y0187803D03*
X0156768Y0182567D03*
X0157044Y0180362D03*
X0079012Y0099421D03*
X0076178Y0099421D03*
D318*
X0076040Y0084244D03*
X0076316Y0084244D03*
X0076434Y0084244D03*
X0076512Y0084244D03*
X0076788Y0084244D03*
X0076867Y0084244D03*
X0076985Y0084244D03*
X0077260Y0084244D03*
X0077379Y0084244D03*
X0077457Y0084244D03*
X0077733Y0084244D03*
X0077812Y0084244D03*
X0077930Y0084244D03*
X0078205Y0084244D03*
X0078323Y0084244D03*
X0078402Y0084244D03*
X0078678Y0084244D03*
X0078796Y0084244D03*
X0078875Y0084244D03*
X0076040Y0091685D03*
X0076316Y0099362D03*
X0078875Y0099362D03*
D319*
X0077457Y0091213D03*
X0077379Y0091213D03*
X0076512Y0090150D03*
X0076434Y0090150D03*
X0076316Y0090150D03*
X0078678Y0090150D03*
X0078796Y0090150D03*
X0078875Y0090150D03*
X0078875Y0087433D03*
X0078796Y0087433D03*
X0078678Y0087433D03*
D320*
X0078875Y0091685D03*
X0078205Y0094874D03*
X0078678Y0099244D03*
X0076512Y0099244D03*
D321*
X0077260Y0098594D03*
X0078402Y0099067D03*
X0076867Y0094933D03*
X0078875Y0093516D03*
X0078796Y0091744D03*
X0078678Y0091744D03*
X0076316Y0091626D03*
D322*
X0076867Y0091390D03*
X0076985Y0091390D03*
X0076788Y0093280D03*
X0078402Y0093280D03*
X0076788Y0094933D03*
X0076867Y0095996D03*
X0078205Y0095996D03*
X0078875Y0095996D03*
D323*
X0078796Y0093457D03*
X0076316Y0093457D03*
X0076434Y0091567D03*
X0076512Y0091567D03*
X0076040Y0095937D03*
X0077379Y0098654D03*
X0077457Y0098654D03*
X0077733Y0098654D03*
X0077812Y0098654D03*
X0167733Y0182756D03*
X0156079Y0187665D03*
D324*
X0078796Y0096114D03*
X0078678Y0096114D03*
X0078402Y0096114D03*
X0076512Y0096114D03*
X0076434Y0096114D03*
X0077260Y0093161D03*
X0077379Y0093161D03*
X0077457Y0093161D03*
X0077733Y0093161D03*
X0077812Y0093161D03*
X0077930Y0093161D03*
X0077812Y0092098D03*
X0077733Y0092098D03*
X0077260Y0091272D03*
X0078402Y0090091D03*
X0078402Y0087374D03*
D325*
X0078796Y0099303D03*
X0076434Y0099303D03*
D326*
X0076512Y0093339D03*
X0076788Y0091449D03*
X0078205Y0091921D03*
X0078323Y0091921D03*
X0078678Y0093339D03*
X0077733Y0089913D03*
X0077457Y0089913D03*
X0077379Y0089913D03*
X0077379Y0087197D03*
X0077457Y0087197D03*
X0077733Y0087197D03*
X0077812Y0087197D03*
X0156631Y0178571D03*
X0158560Y0178571D03*
X0158560Y0182980D03*
X0166631Y0178622D03*
X0168560Y0178622D03*
X0169111Y0188819D03*
X0167733Y0191299D03*
X0166631Y0193504D03*
X0159111Y0194004D03*
X0158560Y0194004D03*
X0156079Y0194004D03*
X0156906Y0191248D03*
X0156631Y0189319D03*
D327*
X0077595Y0092157D03*
X0078540Y0090150D03*
X0078540Y0087433D03*
D328*
X0078540Y0099185D03*
X0076650Y0099185D03*
D329*
X0078323Y0094933D03*
X0076434Y0093398D03*
X0078402Y0091862D03*
X0077812Y0089854D03*
X0077260Y0089854D03*
X0077260Y0087138D03*
X0156631Y0175047D03*
X0158284Y0176976D03*
X0159111Y0176425D03*
X0156631Y0180441D03*
X0158284Y0182921D03*
X0158284Y0185244D03*
X0156906Y0185953D03*
X0158835Y0187606D03*
X0157457Y0191465D03*
X0156355Y0191031D03*
X0156631Y0192685D03*
X0157733Y0193945D03*
X0166631Y0190138D03*
X0167457Y0188878D03*
X0168560Y0191516D03*
X0168284Y0185177D03*
X0168009Y0182815D03*
X0166631Y0180492D03*
D330*
X0078323Y0089323D03*
X0078205Y0089323D03*
X0077930Y0089323D03*
X0076985Y0089323D03*
X0076867Y0089323D03*
X0076788Y0089323D03*
X0076788Y0086606D03*
X0076867Y0086606D03*
X0076985Y0086606D03*
X0076512Y0086606D03*
X0076434Y0086606D03*
X0076316Y0086606D03*
X0077930Y0086606D03*
X0078205Y0086606D03*
X0078323Y0086606D03*
D331*
X0076040Y0090150D03*
X0077930Y0092039D03*
X0078205Y0093220D03*
X0078323Y0093220D03*
X0076985Y0093220D03*
X0076867Y0093220D03*
X0076788Y0096055D03*
X0076316Y0096055D03*
X0078323Y0096055D03*
D332*
X0078323Y0098240D03*
X0076867Y0098240D03*
X0156631Y0172567D03*
X0158560Y0172567D03*
X0167457Y0176634D03*
X0167733Y0176634D03*
X0155804Y0185244D03*
D333*
X0165804Y0185236D03*
X0166631Y0173386D03*
X0168560Y0173386D03*
X0078205Y0098181D03*
X0076985Y0098181D03*
D334*
X0076178Y0095996D03*
X0076650Y0093280D03*
X0078068Y0091980D03*
D335*
X0078068Y0095228D03*
X0077123Y0095228D03*
D336*
X0077595Y0095169D03*
X0077123Y0098122D03*
X0078068Y0098122D03*
D337*
X0077930Y0098063D03*
X0077930Y0095228D03*
X0076040Y0086606D03*
D338*
X0077260Y0095169D03*
X0077379Y0095169D03*
X0077457Y0095169D03*
X0077733Y0095169D03*
X0077812Y0095169D03*
D339*
X0077595Y0091154D03*
X0168973Y0176831D03*
X0167595Y0184272D03*
X0167595Y0186201D03*
X0157595Y0184220D03*
D340*
X0156079Y0176780D03*
X0169111Y0176831D03*
X0077457Y0092217D03*
D341*
X0076985Y0095287D03*
D342*
X0076788Y0098299D03*
X0156906Y0172508D03*
X0158284Y0172508D03*
X0165804Y0195433D03*
D343*
X0168422Y0193445D03*
X0168422Y0190138D03*
X0165942Y0188878D03*
X0158422Y0189260D03*
X0156217Y0187606D03*
X0156768Y0185953D03*
X0156768Y0184575D03*
X0158146Y0182921D03*
X0156493Y0178630D03*
X0156768Y0176858D03*
X0166493Y0178563D03*
X0167871Y0182815D03*
X0166768Y0184626D03*
X0166768Y0185846D03*
X0158422Y0192685D03*
X0158422Y0193945D03*
X0155942Y0193945D03*
X0076650Y0091508D03*
D344*
X0076178Y0086665D03*
D345*
X0076178Y0093575D03*
D346*
X0076040Y0093634D03*
X0169111Y0172421D03*
X0157182Y0180362D03*
X0156906Y0182567D03*
X0156631Y0182567D03*
D347*
X0158560Y0180913D03*
X0159111Y0181189D03*
X0166079Y0182343D03*
X0168560Y0180965D03*
X0169111Y0181240D03*
X0168560Y0176280D03*
X0166631Y0176280D03*
X0168560Y0195846D03*
X0076040Y0099421D03*
D348*
X0075922Y0091980D03*
D349*
X0075607Y0092157D03*
D350*
X0075489Y0092217D03*
D351*
X0084603Y0090764D03*
X0090587Y0090764D03*
D352*
X0090430Y0090685D03*
X0084760Y0090685D03*
D353*
X0194512Y0117776D03*
X0194512Y0122224D03*
D354*
X0194512Y0122126D03*
D355*
X0194512Y0122008D03*
D356*
X0194512Y0121870D03*
X0194512Y0118091D03*
D357*
X0194512Y0121654D03*
D358*
X0190260Y0121417D03*
X0190260Y0118583D03*
X0163883Y0120583D03*
X0163883Y0123417D03*
X0189753Y0100945D03*
X0189753Y0099055D03*
X0194595Y0098583D03*
X0200619Y0099055D03*
X0200619Y0100945D03*
D359*
X0192764Y0100472D03*
X0191583Y0098583D03*
X0192800Y0120945D03*
X0157800Y0120583D03*
X0155201Y0122000D03*
D360*
X0163942Y0120917D03*
X0163942Y0120839D03*
X0163942Y0123083D03*
X0163942Y0123201D03*
X0190083Y0120807D03*
X0190083Y0120728D03*
X0190083Y0119272D03*
X0190083Y0119193D03*
X0198942Y0119193D03*
X0200678Y0100610D03*
X0200678Y0100335D03*
X0200678Y0100217D03*
X0200678Y0100138D03*
X0200678Y0099862D03*
X0200678Y0099783D03*
X0200678Y0099665D03*
X0200678Y0099390D03*
X0189694Y0099390D03*
X0189694Y0099665D03*
X0189694Y0099783D03*
X0189694Y0099862D03*
X0189694Y0100138D03*
X0189694Y0100217D03*
X0189694Y0100335D03*
X0189694Y0100610D03*
D361*
X0192859Y0120472D03*
X0168284Y0178622D03*
X0166906Y0178622D03*
X0158284Y0178571D03*
X0156906Y0178571D03*
D362*
X0164001Y0122945D03*
X0164001Y0121055D03*
X0190024Y0120472D03*
X0190024Y0120000D03*
X0190024Y0119528D03*
X0193331Y0119055D03*
D363*
X0192741Y0119528D03*
X0160339Y0120583D03*
D364*
X0160339Y0120445D03*
X0158331Y0122610D03*
X0192977Y0119272D03*
X0189989Y0098327D03*
X0200383Y0098327D03*
D365*
X0194512Y0118327D03*
D366*
X0194512Y0117894D03*
D367*
X0195186Y0102126D03*
X0195186Y0101654D03*
D368*
X0200205Y0102008D03*
X0190166Y0102008D03*
D369*
X0195186Y0102008D03*
D370*
X0198375Y0101201D03*
X0198375Y0101083D03*
X0198375Y0100807D03*
X0198375Y0100728D03*
X0198375Y0100610D03*
X0198375Y0100335D03*
X0198375Y0100217D03*
X0198375Y0100138D03*
X0198375Y0099862D03*
X0198375Y0099783D03*
X0198375Y0099665D03*
X0198375Y0099390D03*
X0200264Y0098091D03*
X0200264Y0101870D03*
X0190107Y0101870D03*
X0190107Y0098091D03*
X0158213Y0122335D03*
D371*
X0190048Y0101752D03*
X0190048Y0098209D03*
X0198316Y0101280D03*
X0200323Y0101752D03*
X0200323Y0098209D03*
D372*
X0200383Y0101654D03*
X0189989Y0101654D03*
D373*
X0196072Y0101555D03*
D374*
X0200501Y0101417D03*
X0200501Y0098583D03*
X0189871Y0098583D03*
X0189871Y0101417D03*
D375*
X0191524Y0100000D03*
X0193768Y0100472D03*
X0157741Y0122000D03*
X0157741Y0122945D03*
X0160221Y0122945D03*
D376*
X0157741Y0124343D03*
X0157741Y0119657D03*
D377*
X0157741Y0119776D03*
X0157741Y0124224D03*
D378*
X0157741Y0124126D03*
D379*
X0157741Y0124008D03*
D380*
X0157741Y0123870D03*
X0157741Y0120091D03*
D381*
X0157741Y0120209D03*
X0157741Y0123752D03*
D382*
X0157741Y0123654D03*
D383*
X0162052Y0123555D03*
D384*
X0154611Y0123555D03*
D385*
X0152072Y0122610D03*
X0152072Y0122335D03*
X0152072Y0122217D03*
X0152072Y0122138D03*
X0152072Y0121862D03*
X0152072Y0121783D03*
X0152072Y0121665D03*
X0152072Y0121390D03*
D386*
X0161520Y0121528D03*
X0161520Y0122472D03*
D387*
X0158331Y0122472D03*
D388*
X0152072Y0122472D03*
X0152072Y0122000D03*
X0152072Y0121528D03*
D389*
X0157741Y0120327D03*
D390*
X0157741Y0120012D03*
D391*
X0157741Y0119894D03*
D392*
X0145016Y0126602D03*
X0140331Y0126602D03*
X0119662Y0126602D03*
D393*
X0109327Y0123807D03*
X0109327Y0123531D03*
X0109327Y0122980D03*
X0109327Y0122705D03*
X0103816Y0121602D03*
X0135784Y0126602D03*
X0136611Y0122154D03*
X0134611Y0133102D03*
X0140398Y0137512D03*
D394*
X0143154Y0134756D03*
X0143154Y0134205D03*
X0135989Y0131173D03*
X0132131Y0135031D03*
X0126894Y0136409D03*
X0115595Y0131173D03*
X0111461Y0131173D03*
X0111461Y0131449D03*
X0106501Y0131449D03*
X0106501Y0131173D03*
X0106501Y0132000D03*
X0106501Y0132276D03*
X0106501Y0132551D03*
X0106501Y0132827D03*
X0106501Y0133102D03*
X0106501Y0135583D03*
X0106501Y0136409D03*
X0106501Y0136685D03*
X0106501Y0137512D03*
X0102642Y0131173D03*
X0109327Y0126602D03*
X0113461Y0122980D03*
X0113461Y0122705D03*
X0113461Y0122154D03*
X0113461Y0121878D03*
X0113461Y0121602D03*
X0113461Y0121327D03*
X0113461Y0121051D03*
X0113461Y0120776D03*
X0113461Y0120500D03*
X0113461Y0119949D03*
X0113461Y0119673D03*
X0116493Y0121602D03*
X0119524Y0121602D03*
X0119524Y0121327D03*
X0119524Y0121051D03*
X0119524Y0120776D03*
X0119524Y0120500D03*
X0119524Y0119949D03*
X0119524Y0119673D03*
X0119524Y0121878D03*
X0119524Y0122154D03*
X0119524Y0122705D03*
X0119524Y0122980D03*
X0128894Y0126602D03*
X0131650Y0123256D03*
X0131650Y0122980D03*
X0131650Y0122705D03*
X0140469Y0119673D03*
X0140469Y0126012D03*
X0105194Y0119673D03*
X0101335Y0123531D03*
D395*
X0113461Y0126602D03*
X0127997Y0130622D03*
X0140398Y0130622D03*
X0106501Y0138102D03*
D396*
X0104091Y0126602D03*
X0114012Y0124909D03*
X0116493Y0122154D03*
X0118973Y0124909D03*
X0130823Y0121051D03*
X0140745Y0120776D03*
X0140745Y0120500D03*
X0144603Y0124909D03*
X0142327Y0132551D03*
X0139020Y0133654D03*
X0139296Y0135031D03*
X0134886Y0138102D03*
X0126894Y0133654D03*
D397*
X0145016Y0126307D03*
X0102780Y0137807D03*
D398*
X0106501Y0137807D03*
X0106501Y0136980D03*
X0106501Y0135878D03*
X0113461Y0126307D03*
X0113461Y0122449D03*
X0119524Y0122449D03*
X0119524Y0126307D03*
X0131650Y0122449D03*
X0140469Y0126307D03*
D399*
X0135784Y0126307D03*
D400*
X0128894Y0126307D03*
X0144327Y0124378D03*
X0140398Y0137807D03*
X0127997Y0137807D03*
D401*
X0109327Y0126307D03*
X0116493Y0122449D03*
D402*
X0103953Y0126307D03*
X0134749Y0137807D03*
X0141434Y0122449D03*
D403*
X0140331Y0122705D03*
X0140331Y0122980D03*
X0140331Y0123256D03*
X0140331Y0123531D03*
X0140331Y0123807D03*
X0140331Y0124083D03*
X0140331Y0124909D03*
X0140331Y0125185D03*
X0137851Y0124083D03*
X0137851Y0121878D03*
X0137851Y0121602D03*
X0137851Y0121327D03*
X0142812Y0122980D03*
X0145016Y0122980D03*
X0145016Y0122705D03*
X0145016Y0122154D03*
X0145016Y0121878D03*
X0145016Y0121602D03*
X0145016Y0121327D03*
X0145016Y0121051D03*
X0145016Y0120776D03*
X0145016Y0120500D03*
X0145016Y0119949D03*
X0145016Y0119673D03*
X0145016Y0126012D03*
X0138607Y0132551D03*
X0138607Y0132827D03*
X0138607Y0133102D03*
X0138607Y0133378D03*
X0135851Y0132551D03*
X0135851Y0132276D03*
X0135851Y0132000D03*
X0135851Y0131449D03*
X0135851Y0134756D03*
X0135851Y0135031D03*
X0135851Y0135307D03*
X0135851Y0135583D03*
X0132268Y0134756D03*
X0131993Y0135307D03*
X0131993Y0135583D03*
X0129512Y0135583D03*
X0129512Y0136409D03*
X0128135Y0138102D03*
X0126205Y0133102D03*
X0126205Y0132827D03*
X0126481Y0132551D03*
X0119591Y0132551D03*
X0119591Y0132276D03*
X0119591Y0132000D03*
X0119591Y0131449D03*
X0119591Y0131173D03*
X0119591Y0134756D03*
X0119591Y0135031D03*
X0119591Y0135307D03*
X0119591Y0135583D03*
X0115733Y0135583D03*
X0115733Y0135307D03*
X0115733Y0135031D03*
X0116009Y0132276D03*
X0115733Y0131449D03*
X0111323Y0132000D03*
X0111323Y0132276D03*
X0111323Y0132551D03*
X0111323Y0132827D03*
X0111323Y0133102D03*
X0111323Y0133378D03*
X0111323Y0133654D03*
X0111323Y0134205D03*
X0111323Y0134480D03*
X0111323Y0134756D03*
X0111323Y0135031D03*
X0111323Y0135307D03*
X0111323Y0135583D03*
X0111323Y0136409D03*
X0102780Y0137512D03*
X0102780Y0131449D03*
X0113599Y0126012D03*
X0110843Y0124083D03*
X0110843Y0122154D03*
X0111119Y0121878D03*
X0111119Y0121602D03*
X0111119Y0121327D03*
X0107812Y0122154D03*
X0107536Y0121878D03*
X0107536Y0121602D03*
X0107536Y0121327D03*
X0105056Y0121051D03*
X0105056Y0120776D03*
X0105056Y0120500D03*
X0105056Y0119949D03*
X0105056Y0123256D03*
X0105056Y0123531D03*
X0105056Y0123807D03*
X0105056Y0124083D03*
X0107812Y0124083D03*
X0101473Y0123256D03*
X0101198Y0123807D03*
X0101198Y0124083D03*
X0119386Y0126012D03*
X0126276Y0123807D03*
X0126276Y0123531D03*
X0126276Y0123256D03*
X0126276Y0122980D03*
X0126276Y0122705D03*
X0126276Y0122154D03*
X0126552Y0121602D03*
X0126552Y0124083D03*
X0131512Y0123807D03*
X0131512Y0123531D03*
X0131512Y0122154D03*
X0131512Y0121878D03*
X0143016Y0133378D03*
X0143016Y0133654D03*
X0143292Y0134480D03*
X0143016Y0135031D03*
X0143016Y0135307D03*
X0140260Y0138102D03*
D404*
X0140812Y0136409D03*
X0140536Y0132276D03*
X0135922Y0126012D03*
X0135922Y0125185D03*
X0129032Y0125185D03*
X0129032Y0120500D03*
X0135922Y0120500D03*
X0135922Y0120776D03*
X0135922Y0119949D03*
X0135922Y0119673D03*
D405*
X0136749Y0123807D03*
X0143914Y0123256D03*
X0129032Y0126012D03*
X0128135Y0131449D03*
X0127583Y0134205D03*
X0127859Y0134480D03*
X0128135Y0134756D03*
X0140260Y0131173D03*
X0105260Y0133378D03*
X0105260Y0135307D03*
D406*
X0105674Y0134480D03*
X0105674Y0134205D03*
X0109327Y0126012D03*
X0114288Y0124083D03*
X0116493Y0122705D03*
X0118698Y0124083D03*
X0123107Y0122154D03*
X0109327Y0119673D03*
X0123036Y0133654D03*
X0139296Y0134205D03*
X0139296Y0134480D03*
X0139296Y0134756D03*
X0144327Y0124083D03*
X0141020Y0121327D03*
D407*
X0136473Y0122705D03*
X0136473Y0122980D03*
X0136473Y0123256D03*
X0136473Y0123531D03*
X0129032Y0119949D03*
X0109465Y0125185D03*
X0103678Y0126012D03*
X0103678Y0121878D03*
X0134473Y0133378D03*
X0134473Y0137512D03*
X0128135Y0136685D03*
X0118213Y0137512D03*
X0140260Y0131449D03*
D408*
X0144879Y0125756D03*
X0132406Y0136154D03*
X0115871Y0136154D03*
X0102918Y0137256D03*
X0102918Y0131744D03*
X0113737Y0125756D03*
X0101611Y0124654D03*
D409*
X0105056Y0124654D03*
X0107812Y0124654D03*
X0110843Y0124654D03*
X0105056Y0120244D03*
X0119386Y0125756D03*
X0119591Y0131744D03*
X0115733Y0131744D03*
X0111323Y0131744D03*
X0111323Y0136154D03*
X0119591Y0136154D03*
X0135851Y0136154D03*
X0135851Y0131744D03*
X0140331Y0125756D03*
X0140331Y0124654D03*
X0137851Y0124654D03*
X0145016Y0120244D03*
D410*
X0135922Y0120244D03*
X0135922Y0125756D03*
D411*
X0129032Y0125756D03*
X0128135Y0131744D03*
D412*
X0109327Y0125756D03*
D413*
X0103540Y0125756D03*
X0118075Y0137256D03*
X0134335Y0137256D03*
X0140398Y0137256D03*
D414*
X0144741Y0125480D03*
X0103883Y0135878D03*
X0103056Y0136980D03*
D415*
X0111323Y0135878D03*
X0111323Y0133949D03*
X0115733Y0135878D03*
X0119591Y0135878D03*
X0129788Y0135878D03*
X0132268Y0135878D03*
X0135851Y0135878D03*
X0143016Y0133949D03*
X0140331Y0125480D03*
X0140331Y0124378D03*
X0137851Y0124378D03*
X0145016Y0122449D03*
X0126276Y0122449D03*
X0110843Y0124378D03*
X0107812Y0124378D03*
X0105056Y0124378D03*
X0101473Y0124378D03*
D416*
X0135922Y0125480D03*
D417*
X0129032Y0125480D03*
X0134198Y0133949D03*
X0134198Y0136980D03*
X0140536Y0136980D03*
X0117938Y0136980D03*
X0117938Y0133949D03*
X0103402Y0125480D03*
X0103402Y0122449D03*
D418*
X0113737Y0125480D03*
X0119249Y0125480D03*
X0126690Y0124378D03*
X0131099Y0124378D03*
X0142879Y0135878D03*
D419*
X0109327Y0125480D03*
D420*
X0113875Y0125185D03*
X0119111Y0125185D03*
X0127103Y0121051D03*
X0144741Y0125185D03*
X0129237Y0135307D03*
X0118489Y0138102D03*
X0104158Y0135583D03*
X0103331Y0136409D03*
X0103331Y0136685D03*
X0104158Y0133102D03*
X0103883Y0132827D03*
X0103607Y0132551D03*
X0103331Y0132276D03*
X0103056Y0132000D03*
D421*
X0103402Y0125185D03*
X0117938Y0132827D03*
X0117938Y0133102D03*
X0117938Y0133654D03*
X0128135Y0132276D03*
X0128135Y0132000D03*
X0134198Y0136685D03*
X0136198Y0121051D03*
D422*
X0136060Y0124909D03*
X0140398Y0132000D03*
X0134060Y0134205D03*
X0134060Y0134480D03*
X0134060Y0136409D03*
X0140674Y0136685D03*
X0117800Y0136685D03*
X0117800Y0136409D03*
X0117800Y0134480D03*
X0117800Y0134205D03*
X0103264Y0124909D03*
X0103264Y0122980D03*
X0103264Y0122705D03*
D423*
X0128894Y0120776D03*
X0128894Y0124909D03*
X0111461Y0138102D03*
D424*
X0115871Y0134756D03*
X0116146Y0132551D03*
X0115871Y0132000D03*
X0126343Y0133378D03*
X0129650Y0132551D03*
X0142603Y0132827D03*
X0142879Y0133102D03*
X0142879Y0135583D03*
X0142674Y0122705D03*
X0140469Y0119949D03*
X0131375Y0121602D03*
X0131099Y0121327D03*
X0131375Y0124083D03*
X0126414Y0121878D03*
X0126690Y0121327D03*
X0116493Y0121878D03*
X0110981Y0121051D03*
X0107674Y0121051D03*
X0107949Y0124909D03*
X0110705Y0124909D03*
D425*
X0114150Y0124654D03*
X0118835Y0124654D03*
X0140260Y0130917D03*
X0144465Y0124654D03*
D426*
X0140607Y0120244D03*
X0130961Y0124654D03*
X0126827Y0124654D03*
X0128135Y0130917D03*
X0142465Y0136154D03*
X0103607Y0136154D03*
D427*
X0114150Y0124378D03*
X0118835Y0124378D03*
X0139158Y0133949D03*
D428*
X0135024Y0132827D03*
X0128686Y0135031D03*
X0128135Y0131173D03*
X0122898Y0132276D03*
X0118560Y0123807D03*
X0114426Y0123807D03*
X0104229Y0121327D03*
X0122969Y0120776D03*
X0141158Y0121602D03*
X0141158Y0121878D03*
X0144190Y0123807D03*
X0105536Y0134756D03*
D429*
X0105398Y0135031D03*
X0105398Y0133654D03*
X0123036Y0133378D03*
X0123036Y0133102D03*
X0123036Y0132827D03*
X0123036Y0132551D03*
X0127997Y0137512D03*
X0116493Y0122980D03*
X0123107Y0121878D03*
X0123107Y0121602D03*
X0123107Y0121327D03*
X0123107Y0121051D03*
X0128894Y0119673D03*
X0141296Y0122154D03*
X0144052Y0123531D03*
X0109327Y0123256D03*
X0109327Y0119949D03*
D430*
X0116493Y0123256D03*
X0116493Y0123531D03*
D431*
X0136473Y0122449D03*
X0128135Y0136980D03*
D432*
X0109327Y0122449D03*
D433*
X0109327Y0120776D03*
X0109327Y0120500D03*
X0103540Y0122154D03*
X0118075Y0133378D03*
X0134335Y0133654D03*
D434*
X0116493Y0121327D03*
X0109327Y0119122D03*
D435*
X0140883Y0121051D03*
D436*
X0135922Y0119417D03*
X0129032Y0120244D03*
X0140260Y0131744D03*
D437*
X0127997Y0137256D03*
X0109327Y0120244D03*
D438*
X0105056Y0119417D03*
X0119662Y0119417D03*
X0119591Y0130917D03*
X0115733Y0130917D03*
X0111323Y0130917D03*
X0106638Y0130917D03*
X0135851Y0130917D03*
X0138883Y0136154D03*
X0140331Y0119417D03*
X0145016Y0119417D03*
D439*
X0128894Y0119417D03*
X0109327Y0119417D03*
D440*
X0113461Y0119417D03*
X0102918Y0130917D03*
D441*
X0102780Y0138102D03*
X0129788Y0133102D03*
X0129032Y0119122D03*
D442*
X0118351Y0137807D03*
D443*
X0111323Y0137807D03*
X0111323Y0136980D03*
D444*
X0111461Y0137512D03*
D445*
X0111461Y0137256D03*
D446*
X0111461Y0136685D03*
D447*
X0126757Y0136154D03*
D448*
X0138883Y0135878D03*
D449*
X0127308Y0133949D03*
X0105536Y0133949D03*
D450*
X0129788Y0132827D03*
D451*
X0129800Y0191323D03*
X0129957Y0191323D03*
X0130115Y0191323D03*
X0130272Y0191323D03*
X0130430Y0191323D03*
X0130587Y0191323D03*
X0130745Y0191323D03*
X0125390Y0191323D03*
X0125233Y0191323D03*
X0125075Y0191323D03*
X0124918Y0191323D03*
X0124760Y0191323D03*
X0124603Y0191323D03*
X0124446Y0191323D03*
D452*
X0144446Y0192717D03*
X0150745Y0192717D03*
D453*
X0150587Y0192638D03*
X0144603Y0192638D03*
D454*
X0144760Y0192480D03*
X0150430Y0192480D03*
D455*
X0150272Y0192402D03*
X0144918Y0192402D03*
D456*
X0149170Y0191850D03*
D457*
X0149012Y0191772D03*
D458*
X0148698Y0191614D03*
D459*
X0145075Y0192323D03*
D460*
X0154839Y0184969D03*
X0160351Y0184969D03*
D461*
X0160213Y0184909D03*
X0154977Y0184909D03*
D462*
X0155115Y0184772D03*
X0160075Y0184772D03*
D463*
X0159938Y0184693D03*
X0155253Y0184693D03*
D464*
X0155390Y0184634D03*
X0159800Y0184634D03*
D465*
X0159662Y0184555D03*
D466*
X0159524Y0189732D03*
D467*
X0159386Y0174634D03*
D468*
X0158835Y0172705D03*
X0156355Y0172705D03*
X0159386Y0178650D03*
X0159386Y0181130D03*
X0156631Y0185264D03*
X0156355Y0185264D03*
X0156079Y0185264D03*
X0165804Y0191772D03*
X0166079Y0195630D03*
X0169386Y0181181D03*
X0168009Y0176496D03*
D469*
X0159386Y0185933D03*
D470*
X0159386Y0190894D03*
X0169386Y0191772D03*
D471*
X0159386Y0194831D03*
D472*
X0166493Y0195846D03*
X0168698Y0195846D03*
X0158146Y0180638D03*
X0157320Y0180362D03*
X0155942Y0172921D03*
X0159249Y0172921D03*
X0169249Y0172421D03*
D473*
X0168146Y0173602D03*
X0167044Y0173602D03*
X0166768Y0176358D03*
X0168422Y0176358D03*
X0159249Y0178630D03*
X0157871Y0180441D03*
X0159249Y0181110D03*
X0155942Y0182370D03*
X0165942Y0182421D03*
X0167871Y0180492D03*
X0168146Y0180610D03*
X0169249Y0181161D03*
X0167044Y0189429D03*
X0168146Y0190807D03*
X0169249Y0191791D03*
X0158146Y0193394D03*
X0157044Y0192016D03*
D474*
X0157044Y0194142D03*
X0157320Y0194142D03*
X0156768Y0194142D03*
X0156493Y0194142D03*
X0157320Y0186150D03*
X0166217Y0188681D03*
X0166768Y0188681D03*
X0167871Y0188681D03*
X0168146Y0188681D03*
X0168422Y0188681D03*
X0168698Y0188681D03*
X0167595Y0191437D03*
X0169249Y0183169D03*
X0165942Y0180413D03*
X0168698Y0176831D03*
X0169249Y0176831D03*
X0159249Y0183118D03*
X0158973Y0183118D03*
X0156493Y0176780D03*
X0155942Y0176780D03*
D475*
X0155942Y0178571D03*
X0156217Y0182429D03*
X0158973Y0185185D03*
X0168973Y0185236D03*
X0168422Y0180827D03*
X0167320Y0180276D03*
X0165942Y0178622D03*
X0169249Y0178622D03*
X0167871Y0173661D03*
X0167595Y0173661D03*
X0167320Y0173661D03*
X0157871Y0189319D03*
X0157595Y0189319D03*
X0157320Y0189319D03*
X0159249Y0190972D03*
X0167320Y0193504D03*
X0167595Y0193504D03*
X0167871Y0193504D03*
D476*
X0168422Y0191437D03*
X0166768Y0190059D03*
X0166217Y0191713D03*
X0159249Y0193866D03*
X0157871Y0182843D03*
X0166768Y0180413D03*
X0158146Y0177055D03*
X0158422Y0175126D03*
X0156493Y0175126D03*
D477*
X0165942Y0176142D03*
X0166217Y0176142D03*
X0166493Y0182480D03*
X0168698Y0185236D03*
X0158698Y0185185D03*
X0158146Y0189319D03*
X0168146Y0193504D03*
X0168146Y0195984D03*
X0167871Y0195984D03*
X0167595Y0195984D03*
X0167320Y0195984D03*
X0167044Y0195984D03*
X0159249Y0195933D03*
X0158973Y0195933D03*
X0158698Y0195933D03*
X0158422Y0195933D03*
X0158146Y0195933D03*
X0157871Y0195933D03*
X0157595Y0195933D03*
X0157320Y0195933D03*
X0157044Y0195933D03*
X0156768Y0195933D03*
X0156493Y0195933D03*
X0156217Y0195933D03*
X0155942Y0195933D03*
D478*
X0166355Y0195768D03*
X0168835Y0195768D03*
X0168284Y0180768D03*
X0158009Y0180559D03*
X0157457Y0180283D03*
X0155804Y0182370D03*
X0165804Y0176201D03*
X0168284Y0176358D03*
X0159111Y0172843D03*
X0156079Y0172843D03*
D479*
X0159111Y0178650D03*
X0158835Y0181130D03*
X0156355Y0182508D03*
X0158835Y0185264D03*
X0155804Y0187862D03*
X0158009Y0189240D03*
X0157182Y0191878D03*
X0158009Y0193531D03*
X0155804Y0195854D03*
X0166631Y0195906D03*
X0166906Y0195906D03*
X0168284Y0195906D03*
X0168009Y0193425D03*
X0168009Y0190945D03*
X0167182Y0189291D03*
X0168835Y0185157D03*
X0166355Y0182402D03*
X0167182Y0180354D03*
X0168835Y0181181D03*
X0169111Y0178543D03*
D480*
X0159111Y0183118D03*
X0155804Y0180362D03*
X0156355Y0176780D03*
X0157457Y0186150D03*
X0166355Y0188681D03*
X0166631Y0188681D03*
X0168009Y0188681D03*
X0168284Y0188681D03*
X0168560Y0188681D03*
X0167457Y0191437D03*
X0157182Y0194142D03*
X0156906Y0194142D03*
X0156631Y0194142D03*
X0156355Y0194142D03*
D481*
X0155804Y0190972D03*
X0159111Y0185185D03*
X0166079Y0185236D03*
X0166355Y0185236D03*
X0166631Y0185236D03*
X0169111Y0185236D03*
X0168009Y0180551D03*
X0167457Y0180276D03*
X0165804Y0178622D03*
X0166906Y0176417D03*
X0169386Y0178622D03*
X0155804Y0178571D03*
X0168284Y0190748D03*
D482*
X0166906Y0190000D03*
X0165804Y0188898D03*
X0159111Y0187744D03*
X0157733Y0182783D03*
X0156355Y0178650D03*
X0156906Y0176839D03*
X0158009Y0177114D03*
X0158009Y0175185D03*
X0158284Y0175185D03*
X0156079Y0175185D03*
X0166355Y0178543D03*
X0167457Y0182677D03*
X0156906Y0192547D03*
D483*
X0159111Y0190972D03*
X0156906Y0189319D03*
X0156906Y0195933D03*
X0156631Y0195933D03*
X0156355Y0195933D03*
X0156079Y0195933D03*
X0157182Y0195933D03*
X0157457Y0195933D03*
X0157733Y0195933D03*
X0158009Y0195933D03*
X0158284Y0195933D03*
X0158560Y0195933D03*
X0158835Y0195933D03*
X0159111Y0195933D03*
X0167182Y0195984D03*
X0167457Y0195984D03*
X0167733Y0195984D03*
X0168009Y0195984D03*
X0166906Y0193504D03*
X0166631Y0182480D03*
X0166079Y0178622D03*
X0166079Y0176142D03*
X0166355Y0176142D03*
X0157457Y0177193D03*
X0156079Y0178571D03*
D484*
X0158698Y0176720D03*
X0158973Y0176563D03*
X0158698Y0183059D03*
X0157044Y0184437D03*
X0158422Y0187469D03*
X0158422Y0191169D03*
X0156768Y0191169D03*
X0156493Y0191051D03*
X0156217Y0194083D03*
X0157595Y0194083D03*
X0158973Y0194083D03*
X0165942Y0187362D03*
X0167044Y0185984D03*
X0167044Y0184488D03*
X0168422Y0182953D03*
X0166493Y0180472D03*
X0169249Y0187362D03*
X0168973Y0188740D03*
D485*
X0166768Y0182539D03*
X0167044Y0180335D03*
X0168973Y0178563D03*
X0158973Y0178630D03*
X0157595Y0177252D03*
X0157320Y0177134D03*
X0156217Y0178630D03*
X0157044Y0182646D03*
X0168973Y0172500D03*
D486*
X0166493Y0176220D03*
X0168698Y0181024D03*
X0168973Y0181181D03*
X0166217Y0182402D03*
X0158973Y0181130D03*
X0158698Y0180972D03*
X0158422Y0180854D03*
X0156493Y0182508D03*
X0157044Y0189240D03*
X0155942Y0191051D03*
X0165942Y0191772D03*
X0167044Y0193425D03*
X0166768Y0195906D03*
X0168422Y0195906D03*
D487*
X0167182Y0191575D03*
X0166906Y0191575D03*
X0158009Y0191248D03*
X0158009Y0187390D03*
X0158284Y0187390D03*
X0157182Y0187390D03*
X0156906Y0187390D03*
X0158009Y0185185D03*
X0157182Y0184358D03*
X0156355Y0180500D03*
X0158835Y0176642D03*
X0165804Y0180276D03*
X0166355Y0180551D03*
X0168835Y0183031D03*
X0167182Y0184409D03*
X0168009Y0185236D03*
X0167182Y0186063D03*
X0167182Y0187441D03*
X0167457Y0187441D03*
X0167733Y0187441D03*
X0168009Y0187441D03*
X0168284Y0187441D03*
X0168560Y0187441D03*
X0168835Y0187441D03*
X0169111Y0187441D03*
X0166906Y0187441D03*
X0166631Y0187441D03*
X0166355Y0187441D03*
X0166079Y0187441D03*
D488*
X0168560Y0185236D03*
X0158560Y0185185D03*
X0157457Y0182705D03*
X0158835Y0178571D03*
X0157733Y0177193D03*
X0168835Y0178622D03*
X0158284Y0189319D03*
X0156079Y0190972D03*
X0168284Y0193504D03*
D489*
X0166631Y0191654D03*
X0168560Y0190118D03*
X0168835Y0188740D03*
X0167733Y0188740D03*
X0166906Y0188740D03*
X0166079Y0188740D03*
X0165804Y0187362D03*
X0158560Y0187469D03*
X0156631Y0187469D03*
X0157182Y0186091D03*
X0156631Y0191169D03*
X0157733Y0191327D03*
X0158284Y0191169D03*
X0158560Y0192705D03*
X0158835Y0194083D03*
X0157457Y0194083D03*
X0158835Y0183059D03*
X0168560Y0182953D03*
X0158560Y0176839D03*
D490*
X0157733Y0175126D03*
X0156355Y0175126D03*
X0158009Y0182843D03*
X0158835Y0191110D03*
X0168835Y0191713D03*
D491*
X0165942Y0195571D03*
X0167320Y0176555D03*
X0167871Y0176555D03*
X0158698Y0172646D03*
X0156493Y0172646D03*
D492*
X0168146Y0182894D03*
X0158698Y0187528D03*
X0156493Y0187528D03*
X0157595Y0191386D03*
X0158698Y0191110D03*
X0166493Y0191713D03*
D493*
X0166355Y0191713D03*
X0158560Y0191110D03*
X0156355Y0187528D03*
X0156906Y0184496D03*
X0166906Y0184547D03*
X0166906Y0185925D03*
X0168284Y0182894D03*
X0156631Y0176780D03*
X0155804Y0176780D03*
D494*
X0156768Y0172508D03*
X0158422Y0172508D03*
X0167595Y0176693D03*
D495*
X0166768Y0178622D03*
X0168422Y0178622D03*
X0166217Y0180551D03*
X0168698Y0183031D03*
X0158422Y0178571D03*
X0156768Y0178571D03*
X0156217Y0180500D03*
X0157320Y0184358D03*
X0157044Y0187390D03*
X0156768Y0187390D03*
X0157871Y0187390D03*
X0158146Y0187390D03*
X0158146Y0191248D03*
X0157871Y0191248D03*
X0166768Y0191575D03*
X0167044Y0191575D03*
X0167044Y0187441D03*
X0167320Y0187441D03*
X0167595Y0187441D03*
X0167871Y0187441D03*
X0168146Y0187441D03*
X0168422Y0187441D03*
X0168698Y0187441D03*
X0168973Y0187441D03*
X0167320Y0186063D03*
X0166768Y0187441D03*
X0166493Y0187441D03*
X0166217Y0187441D03*
D496*
X0157733Y0189319D03*
X0157457Y0189319D03*
X0157182Y0189319D03*
X0167182Y0193504D03*
X0167457Y0193504D03*
X0167733Y0193504D03*
X0158284Y0180776D03*
X0156079Y0182429D03*
X0155804Y0173059D03*
X0167182Y0173661D03*
X0167457Y0173661D03*
X0167733Y0173661D03*
X0168009Y0173661D03*
D497*
X0168284Y0173524D03*
X0166906Y0173524D03*
X0167733Y0180413D03*
X0165804Y0182343D03*
X0157733Y0180362D03*
X0158284Y0193315D03*
D498*
X0158146Y0172429D03*
X0157044Y0172429D03*
X0166217Y0173189D03*
D499*
X0158009Y0172370D03*
X0157733Y0172370D03*
X0157457Y0172370D03*
X0157182Y0172370D03*
D500*
X0157320Y0172370D03*
X0157595Y0172370D03*
X0157871Y0172370D03*
D501*
X0168835Y0176752D03*
X0166079Y0180492D03*
X0169111Y0183091D03*
X0167457Y0184350D03*
X0167457Y0186122D03*
X0157733Y0187331D03*
X0157457Y0187331D03*
X0157457Y0184299D03*
X0156079Y0180441D03*
D502*
X0155942Y0180441D03*
X0156217Y0176701D03*
X0168973Y0183091D03*
X0167320Y0184350D03*
X0166493Y0188602D03*
X0167320Y0191516D03*
X0157595Y0187331D03*
X0157320Y0187331D03*
X0157595Y0186228D03*
D503*
X0157182Y0182646D03*
X0166906Y0182539D03*
X0157182Y0176976D03*
X0155804Y0175205D03*
X0168835Y0172618D03*
X0169111Y0191791D03*
D504*
X0166079Y0191713D03*
X0155804Y0193866D03*
X0167182Y0182618D03*
X0166906Y0180413D03*
X0156906Y0180362D03*
D505*
X0167044Y0182618D03*
X0155942Y0187803D03*
X0168698Y0172697D03*
D506*
X0155666Y0176445D03*
D507*
X0155528Y0176642D03*
D508*
X0155528Y0188965D03*
D509*
X0164839Y0183583D03*
X0170351Y0183583D03*
D510*
X0170213Y0183642D03*
X0164977Y0183642D03*
D511*
X0165115Y0183720D03*
X0170075Y0183720D03*
D512*
X0169938Y0183780D03*
X0165253Y0183780D03*
D513*
X0165390Y0183858D03*
X0169800Y0183858D03*
D514*
X0169662Y0183917D03*
D515*
X0169524Y0189705D03*
D516*
X0169386Y0174272D03*
D517*
X0169386Y0186339D03*
D518*
X0169386Y0195217D03*
D519*
X0169249Y0195492D03*
X0166493Y0173327D03*
D520*
X0167182Y0176555D03*
X0169111Y0195571D03*
D521*
X0166355Y0173248D03*
D522*
X0166079Y0173110D03*
D523*
X0165942Y0173051D03*
D524*
X0165804Y0173031D03*
D525*
X0165666Y0175945D03*
D526*
X0165528Y0176004D03*
D527*
X0165528Y0188957D03*
D528*
X0118930Y0167917D02*
X0119009Y0167681D01*
X0119048Y0167327D01*
X0119087Y0166972D01*
X0119087Y0161933D01*
X0119048Y0161933D01*
X0118969Y0162051D01*
X0118851Y0162169D01*
X0118733Y0162327D01*
X0118536Y0162524D01*
X0118339Y0162760D01*
X0118103Y0162996D01*
X0117906Y0163272D01*
X0117631Y0163547D01*
X0117394Y0163783D01*
X0117198Y0164020D01*
X0117001Y0164177D01*
X0116804Y0164335D01*
X0116607Y0164453D01*
X0116371Y0164492D01*
X0115623Y0164492D01*
X0115150Y0164571D01*
X0114717Y0164689D01*
X0114323Y0164846D01*
X0113930Y0165083D01*
X0113615Y0165358D01*
X0113300Y0165673D01*
X0113024Y0166028D01*
X0112631Y0166736D01*
X0112434Y0167445D01*
X0112394Y0168154D01*
X0112512Y0168783D01*
X0112709Y0169335D01*
X0112985Y0169807D01*
X0113300Y0170161D01*
X0113615Y0170319D01*
X0113615Y0170004D01*
X0113654Y0169886D01*
X0113694Y0169768D01*
X0113812Y0169689D01*
X0113930Y0169650D01*
X0114205Y0169650D01*
X0114363Y0169728D01*
X0114520Y0169807D01*
X0114638Y0169886D01*
X0114796Y0170004D01*
X0114914Y0170083D01*
X0115032Y0170201D01*
X0115111Y0170358D01*
X0115190Y0170476D01*
X0115229Y0170634D01*
X0115268Y0170752D01*
X0115229Y0170870D01*
X0115190Y0170949D01*
X0115150Y0171067D01*
X0115072Y0171185D01*
X0114914Y0171303D01*
X0114757Y0171382D01*
X0114560Y0171421D01*
X0114402Y0171461D01*
X0114284Y0171461D01*
X0114166Y0171421D01*
X0114048Y0171421D01*
X0114087Y0171461D01*
X0114245Y0171579D01*
X0114481Y0171697D01*
X0114796Y0171815D01*
X0115150Y0171933D01*
X0115544Y0171933D01*
X0115977Y0171854D01*
X0116410Y0171618D01*
X0116764Y0171303D01*
X0116961Y0171028D01*
X0117079Y0170673D01*
X0117079Y0170358D01*
X0117001Y0170004D01*
X0116804Y0169650D01*
X0116528Y0169335D01*
X0116213Y0168980D01*
X0115938Y0168665D01*
X0115820Y0168390D01*
X0115820Y0168114D01*
X0115898Y0167878D01*
X0116056Y0167681D01*
X0116292Y0167524D01*
X0116607Y0167445D01*
X0116922Y0167445D01*
X0117119Y0167484D01*
X0117316Y0167563D01*
X0117434Y0167642D01*
X0117552Y0167760D01*
X0117631Y0167917D01*
X0117670Y0168035D01*
X0117670Y0168154D01*
X0117631Y0168272D01*
X0117552Y0168390D01*
X0117473Y0168469D01*
X0117394Y0168547D01*
X0117276Y0168587D01*
X0117198Y0168626D01*
X0117119Y0168665D01*
X0117079Y0168705D01*
X0117158Y0168744D01*
X0117237Y0168744D01*
X0117394Y0168783D01*
X0117709Y0168783D01*
X0117946Y0168744D01*
X0118142Y0168665D01*
X0118339Y0168587D01*
X0118497Y0168469D01*
X0118694Y0168350D01*
X0118812Y0168154D01*
X0118930Y0167917D01*
X0118957Y0167837D02*
X0117590Y0167837D01*
X0117670Y0168136D02*
X0118821Y0168136D01*
X0118554Y0168434D02*
X0117508Y0168434D01*
X0117135Y0168733D02*
X0117974Y0168733D01*
X0117254Y0167539D02*
X0119024Y0167539D01*
X0119058Y0167240D02*
X0112491Y0167240D01*
X0112429Y0167539D02*
X0116270Y0167539D01*
X0115931Y0167837D02*
X0112412Y0167837D01*
X0112395Y0168136D02*
X0115820Y0168136D01*
X0115839Y0168434D02*
X0112447Y0168434D01*
X0112503Y0168733D02*
X0115996Y0168733D01*
X0116258Y0169031D02*
X0112601Y0169031D01*
X0112707Y0169330D02*
X0116524Y0169330D01*
X0116785Y0169628D02*
X0112880Y0169628D01*
X0113091Y0169927D02*
X0113641Y0169927D01*
X0113615Y0170225D02*
X0113427Y0170225D01*
X0114693Y0169927D02*
X0116958Y0169927D01*
X0117050Y0170225D02*
X0115044Y0170225D01*
X0115201Y0170524D02*
X0117079Y0170524D01*
X0117030Y0170822D02*
X0115245Y0170822D01*
X0115114Y0171121D02*
X0116895Y0171121D01*
X0116634Y0171419D02*
X0114570Y0171419D01*
X0114536Y0171718D02*
X0116228Y0171718D01*
X0119087Y0166941D02*
X0112574Y0166941D01*
X0112682Y0166643D02*
X0119087Y0166643D01*
X0119087Y0166344D02*
X0112848Y0166344D01*
X0113014Y0166046D02*
X0119087Y0166046D01*
X0119087Y0165747D02*
X0113242Y0165747D01*
X0113524Y0165449D02*
X0119087Y0165449D01*
X0119087Y0165150D02*
X0113852Y0165150D01*
X0114314Y0164852D02*
X0119087Y0164852D01*
X0119087Y0164553D02*
X0115255Y0164553D01*
X0116904Y0164255D02*
X0119087Y0164255D01*
X0119087Y0163956D02*
X0117250Y0163956D01*
X0117520Y0163658D02*
X0119087Y0163658D01*
X0119087Y0163359D02*
X0117818Y0163359D01*
X0118057Y0163061D02*
X0119087Y0163061D01*
X0119087Y0162762D02*
X0118337Y0162762D01*
X0118596Y0162464D02*
X0119087Y0162464D01*
X0119087Y0162165D02*
X0118855Y0162165D01*
X0118772Y0160791D02*
X0116961Y0160791D01*
X0119048Y0158744D01*
X0116725Y0155201D01*
X0118575Y0155201D01*
X0120111Y0157681D01*
X0120701Y0157130D01*
X0120701Y0155201D01*
X0122237Y0155201D01*
X0122237Y0162051D01*
X0120701Y0162878D01*
X0120701Y0158783D01*
X0118772Y0160791D01*
X0118886Y0160673D02*
X0117082Y0160673D01*
X0117386Y0160374D02*
X0119173Y0160374D01*
X0119460Y0160076D02*
X0117691Y0160076D01*
X0117995Y0159777D02*
X0119747Y0159777D01*
X0120033Y0159479D02*
X0118299Y0159479D01*
X0118603Y0159180D02*
X0120320Y0159180D01*
X0120701Y0159180D02*
X0122237Y0159180D01*
X0122237Y0158882D02*
X0120701Y0158882D01*
X0120607Y0158882D02*
X0118908Y0158882D01*
X0118942Y0158583D02*
X0122237Y0158583D01*
X0122237Y0158285D02*
X0118747Y0158285D01*
X0118551Y0157986D02*
X0122237Y0157986D01*
X0122237Y0157688D02*
X0118355Y0157688D01*
X0118160Y0157389D02*
X0119930Y0157389D01*
X0119745Y0157091D02*
X0117964Y0157091D01*
X0117768Y0156792D02*
X0119561Y0156792D01*
X0119376Y0156494D02*
X0117573Y0156494D01*
X0117377Y0156195D02*
X0119191Y0156195D01*
X0119006Y0155897D02*
X0117181Y0155897D01*
X0116985Y0155598D02*
X0118821Y0155598D01*
X0118637Y0155300D02*
X0116790Y0155300D01*
X0115780Y0155300D02*
X0114284Y0155300D01*
X0114284Y0155201D02*
X0115780Y0155201D01*
X0115780Y0159177D01*
X0115780Y0159768D01*
X0117316Y0159768D01*
X0117158Y0159886D01*
X0117040Y0160004D01*
X0116922Y0160122D01*
X0116764Y0160280D01*
X0116646Y0160398D01*
X0116528Y0160516D01*
X0116371Y0160634D01*
X0116253Y0160791D01*
X0115780Y0160791D01*
X0115780Y0161579D01*
X0115662Y0161894D01*
X0115544Y0162169D01*
X0115347Y0162406D01*
X0115072Y0162602D01*
X0114757Y0162760D01*
X0114363Y0162878D01*
X0113221Y0162878D01*
X0113142Y0162839D01*
X0113142Y0161736D01*
X0113812Y0161736D01*
X0113969Y0161697D01*
X0114048Y0161657D01*
X0114127Y0161618D01*
X0114205Y0161500D01*
X0114245Y0161421D01*
X0114245Y0161264D01*
X0114284Y0161106D01*
X0114284Y0160791D01*
X0113221Y0160791D01*
X0113221Y0159768D01*
X0114284Y0159768D01*
X0114284Y0155201D01*
X0114284Y0155598D02*
X0115780Y0155598D01*
X0115780Y0155897D02*
X0114284Y0155897D01*
X0114284Y0156195D02*
X0115780Y0156195D01*
X0115780Y0156494D02*
X0114284Y0156494D01*
X0114284Y0156792D02*
X0115780Y0156792D01*
X0115780Y0157091D02*
X0114284Y0157091D01*
X0114284Y0157389D02*
X0115780Y0157389D01*
X0115780Y0157688D02*
X0114284Y0157688D01*
X0114284Y0157986D02*
X0115780Y0157986D01*
X0115780Y0158285D02*
X0114284Y0158285D01*
X0114284Y0158583D02*
X0115780Y0158583D01*
X0115780Y0158882D02*
X0114284Y0158882D01*
X0114284Y0159180D02*
X0115780Y0159180D01*
X0115780Y0159479D02*
X0114284Y0159479D01*
X0113221Y0159777D02*
X0117303Y0159777D01*
X0116968Y0160076D02*
X0113221Y0160076D01*
X0113221Y0160374D02*
X0116670Y0160374D01*
X0116342Y0160673D02*
X0113221Y0160673D01*
X0112749Y0160673D02*
X0111253Y0160673D01*
X0111253Y0160791D02*
X0111253Y0157642D01*
X0111213Y0157327D01*
X0111174Y0157012D01*
X0111135Y0156776D01*
X0111016Y0156618D01*
X0110898Y0156461D01*
X0110701Y0156343D01*
X0110505Y0156303D01*
X0110268Y0156264D01*
X0109953Y0156303D01*
X0109717Y0156343D01*
X0109520Y0156461D01*
X0109363Y0156618D01*
X0109245Y0156854D01*
X0109127Y0157130D01*
X0109087Y0157445D01*
X0109087Y0160791D01*
X0107552Y0160791D01*
X0107552Y0155909D01*
X0107552Y0155201D01*
X0109009Y0155201D01*
X0109009Y0155988D01*
X0109048Y0155988D01*
X0109205Y0155752D01*
X0109363Y0155555D01*
X0109560Y0155398D01*
X0109796Y0155280D01*
X0109993Y0155201D01*
X0110229Y0155122D01*
X0110505Y0155083D01*
X0110741Y0155043D01*
X0111292Y0155083D01*
X0111725Y0155240D01*
X0112079Y0155437D01*
X0112355Y0155673D01*
X0112552Y0156028D01*
X0112670Y0156421D01*
X0112749Y0156854D01*
X0112749Y0160791D01*
X0111253Y0160791D01*
X0111253Y0160374D02*
X0112749Y0160374D01*
X0112749Y0160076D02*
X0111253Y0160076D01*
X0111253Y0159777D02*
X0112749Y0159777D01*
X0112749Y0159479D02*
X0111253Y0159479D01*
X0111253Y0159180D02*
X0112749Y0159180D01*
X0112749Y0158882D02*
X0111253Y0158882D01*
X0111253Y0158583D02*
X0112749Y0158583D01*
X0112749Y0158285D02*
X0111253Y0158285D01*
X0111253Y0157986D02*
X0112749Y0157986D01*
X0112749Y0157688D02*
X0111253Y0157688D01*
X0111221Y0157389D02*
X0112749Y0157389D01*
X0112749Y0157091D02*
X0111184Y0157091D01*
X0111137Y0156792D02*
X0112737Y0156792D01*
X0112683Y0156494D02*
X0110923Y0156494D01*
X0109487Y0156494D02*
X0107552Y0156494D01*
X0107552Y0156792D02*
X0109276Y0156792D01*
X0109143Y0157091D02*
X0107552Y0157091D01*
X0107552Y0157389D02*
X0109094Y0157389D01*
X0109087Y0157688D02*
X0107552Y0157688D01*
X0107552Y0157986D02*
X0109087Y0157986D01*
X0109087Y0158285D02*
X0107552Y0158285D01*
X0107552Y0158583D02*
X0109087Y0158583D01*
X0109087Y0158882D02*
X0107552Y0158882D01*
X0107552Y0159180D02*
X0109087Y0159180D01*
X0109087Y0159479D02*
X0107552Y0159479D01*
X0107552Y0159777D02*
X0109087Y0159777D01*
X0109087Y0160076D02*
X0107552Y0160076D01*
X0107552Y0160374D02*
X0109087Y0160374D01*
X0109087Y0160673D02*
X0107552Y0160673D01*
X0106725Y0160673D02*
X0105268Y0160673D01*
X0105268Y0160791D02*
X0105268Y0160004D01*
X0105229Y0160004D01*
X0105072Y0160240D01*
X0104914Y0160398D01*
X0104717Y0160555D01*
X0104481Y0160713D01*
X0104245Y0160791D01*
X0104009Y0160870D01*
X0103772Y0160909D01*
X0103536Y0160909D01*
X0102985Y0160870D01*
X0102552Y0160752D01*
X0102198Y0160555D01*
X0101922Y0160280D01*
X0101725Y0159965D01*
X0101607Y0159571D01*
X0101528Y0159138D01*
X0101489Y0158626D01*
X0101489Y0155201D01*
X0103024Y0155201D01*
X0103024Y0158350D01*
X0103064Y0158665D01*
X0103103Y0158941D01*
X0103142Y0159177D01*
X0103260Y0159374D01*
X0103379Y0159531D01*
X0103575Y0159650D01*
X0103772Y0159689D01*
X0104009Y0159728D01*
X0104323Y0159689D01*
X0104560Y0159650D01*
X0104757Y0159531D01*
X0104914Y0159335D01*
X0105032Y0159138D01*
X0105150Y0158862D01*
X0105190Y0158508D01*
X0105190Y0155201D01*
X0106725Y0155201D01*
X0106725Y0160083D01*
X0106725Y0160791D01*
X0105268Y0160791D01*
X0105268Y0160374D02*
X0106725Y0160374D01*
X0106725Y0160076D02*
X0105268Y0160076D01*
X0105181Y0160076D02*
X0101795Y0160076D01*
X0101669Y0159777D02*
X0106725Y0159777D01*
X0106725Y0159479D02*
X0104799Y0159479D01*
X0105007Y0159180D02*
X0106725Y0159180D01*
X0106725Y0158882D02*
X0105142Y0158882D01*
X0105181Y0158583D02*
X0106725Y0158583D01*
X0106725Y0158285D02*
X0105190Y0158285D01*
X0105190Y0157986D02*
X0106725Y0157986D01*
X0106725Y0157688D02*
X0105190Y0157688D01*
X0105190Y0157389D02*
X0106725Y0157389D01*
X0106725Y0157091D02*
X0105190Y0157091D01*
X0105190Y0156792D02*
X0106725Y0156792D01*
X0106725Y0156494D02*
X0105190Y0156494D01*
X0105190Y0156195D02*
X0106725Y0156195D01*
X0106725Y0155897D02*
X0105190Y0155897D01*
X0105190Y0155598D02*
X0106725Y0155598D01*
X0106725Y0155300D02*
X0105190Y0155300D01*
X0103024Y0155300D02*
X0101489Y0155300D01*
X0101489Y0155598D02*
X0103024Y0155598D01*
X0103024Y0155897D02*
X0101489Y0155897D01*
X0101489Y0156195D02*
X0103024Y0156195D01*
X0103024Y0156494D02*
X0101489Y0156494D01*
X0101489Y0156792D02*
X0103024Y0156792D01*
X0103024Y0157091D02*
X0101489Y0157091D01*
X0101489Y0157389D02*
X0103024Y0157389D01*
X0103024Y0157688D02*
X0101489Y0157688D01*
X0101489Y0157986D02*
X0103024Y0157986D01*
X0103024Y0158285D02*
X0101489Y0158285D01*
X0101489Y0158583D02*
X0103053Y0158583D01*
X0103095Y0158882D02*
X0101509Y0158882D01*
X0101536Y0159180D02*
X0103144Y0159180D01*
X0103339Y0159479D02*
X0101590Y0159479D01*
X0102017Y0160374D02*
X0104937Y0160374D01*
X0104541Y0160673D02*
X0102409Y0160673D01*
X0107552Y0156195D02*
X0112602Y0156195D01*
X0112479Y0155897D02*
X0109109Y0155897D01*
X0109009Y0155897D02*
X0107552Y0155897D01*
X0107552Y0155598D02*
X0109009Y0155598D01*
X0109009Y0155300D02*
X0107552Y0155300D01*
X0109329Y0155598D02*
X0112267Y0155598D01*
X0111832Y0155300D02*
X0109756Y0155300D01*
X0120424Y0157389D02*
X0122237Y0157389D01*
X0122237Y0157091D02*
X0120701Y0157091D01*
X0120701Y0156792D02*
X0122237Y0156792D01*
X0122237Y0156494D02*
X0120701Y0156494D01*
X0120701Y0156195D02*
X0122237Y0156195D01*
X0122237Y0155897D02*
X0120701Y0155897D01*
X0120701Y0155598D02*
X0122237Y0155598D01*
X0122237Y0155300D02*
X0120701Y0155300D01*
X0124875Y0155300D02*
X0126410Y0155300D01*
X0126410Y0155201D02*
X0126410Y0159846D01*
X0126410Y0160516D01*
X0126213Y0160555D01*
X0126056Y0160594D01*
X0125859Y0160594D01*
X0125662Y0160634D01*
X0125505Y0160673D01*
X0125308Y0160713D01*
X0125111Y0160752D01*
X0124953Y0160791D01*
X0124953Y0159728D01*
X0124796Y0160004D01*
X0124638Y0160201D01*
X0124442Y0160437D01*
X0124245Y0160594D01*
X0123969Y0160752D01*
X0123733Y0160831D01*
X0123457Y0160909D01*
X0122906Y0160909D01*
X0122867Y0160870D01*
X0122827Y0160870D01*
X0122827Y0159453D01*
X0122867Y0159453D01*
X0122946Y0159492D01*
X0123379Y0159492D01*
X0123772Y0159453D01*
X0124087Y0159374D01*
X0124363Y0159217D01*
X0124560Y0158980D01*
X0124717Y0158705D01*
X0124796Y0158429D01*
X0124875Y0158075D01*
X0124875Y0155201D01*
X0126410Y0155201D01*
X0126410Y0155598D02*
X0124875Y0155598D01*
X0124875Y0155897D02*
X0126410Y0155897D01*
X0126410Y0156195D02*
X0124875Y0156195D01*
X0124875Y0156494D02*
X0126410Y0156494D01*
X0126410Y0156792D02*
X0124875Y0156792D01*
X0124875Y0157091D02*
X0126410Y0157091D01*
X0126410Y0157389D02*
X0124875Y0157389D01*
X0124875Y0157688D02*
X0126410Y0157688D01*
X0126410Y0157986D02*
X0124875Y0157986D01*
X0124828Y0158285D02*
X0126410Y0158285D01*
X0126410Y0158583D02*
X0124752Y0158583D01*
X0124616Y0158882D02*
X0126410Y0158882D01*
X0126410Y0159180D02*
X0124393Y0159180D01*
X0124925Y0159777D02*
X0122827Y0159777D01*
X0122827Y0159479D02*
X0122919Y0159479D01*
X0123513Y0159479D02*
X0126410Y0159479D01*
X0126410Y0159777D02*
X0124953Y0159777D01*
X0124953Y0160076D02*
X0126410Y0160076D01*
X0126410Y0160374D02*
X0124953Y0160374D01*
X0124953Y0160673D02*
X0125507Y0160673D01*
X0124738Y0160076D02*
X0122827Y0160076D01*
X0122827Y0160374D02*
X0124494Y0160374D01*
X0124108Y0160673D02*
X0122827Y0160673D01*
X0122237Y0160673D02*
X0120701Y0160673D01*
X0120701Y0160971D02*
X0122237Y0160971D01*
X0122237Y0161270D02*
X0120701Y0161270D01*
X0120701Y0161568D02*
X0122237Y0161568D01*
X0122237Y0161867D02*
X0120701Y0161867D01*
X0120701Y0162165D02*
X0122025Y0162165D01*
X0121471Y0162464D02*
X0120701Y0162464D01*
X0120701Y0162762D02*
X0120916Y0162762D01*
X0120701Y0160374D02*
X0122237Y0160374D01*
X0122237Y0160076D02*
X0120701Y0160076D01*
X0120701Y0159777D02*
X0122237Y0159777D01*
X0122237Y0159479D02*
X0120701Y0159479D01*
X0115780Y0160971D02*
X0114284Y0160971D01*
X0114245Y0161270D02*
X0115780Y0161270D01*
X0115780Y0161568D02*
X0114160Y0161568D01*
X0113142Y0161867D02*
X0115672Y0161867D01*
X0115546Y0162165D02*
X0113142Y0162165D01*
X0113142Y0162464D02*
X0115265Y0162464D01*
X0114748Y0162762D02*
X0113142Y0162762D01*
X0127316Y0159768D02*
X0127276Y0159571D01*
X0127276Y0156146D01*
X0127237Y0156067D01*
X0127237Y0155713D01*
X0127198Y0155634D01*
X0127198Y0155555D01*
X0127158Y0155476D01*
X0127158Y0155358D01*
X0127119Y0155280D01*
X0127079Y0155240D01*
X0127079Y0155201D01*
X0128615Y0155201D01*
X0128615Y0155240D01*
X0128654Y0155280D01*
X0128654Y0155319D01*
X0128694Y0155358D01*
X0128694Y0155476D01*
X0128733Y0155516D01*
X0128733Y0155752D01*
X0128812Y0155634D01*
X0128930Y0155555D01*
X0129009Y0155476D01*
X0129127Y0155398D01*
X0129245Y0155358D01*
X0129363Y0155280D01*
X0129481Y0155240D01*
X0129599Y0155201D01*
X0129717Y0155161D01*
X0129835Y0155122D01*
X0129953Y0155122D01*
X0130072Y0155083D01*
X0130229Y0155083D01*
X0130347Y0155043D01*
X0130780Y0155043D01*
X0130977Y0155083D01*
X0131174Y0155083D01*
X0131331Y0155122D01*
X0131528Y0155201D01*
X0131686Y0155280D01*
X0131804Y0155358D01*
X0131961Y0155437D01*
X0132079Y0155555D01*
X0132158Y0155673D01*
X0132276Y0155831D01*
X0132355Y0155949D01*
X0132394Y0156146D01*
X0132473Y0156303D01*
X0132473Y0156500D01*
X0132512Y0156697D01*
X0132434Y0157130D01*
X0132316Y0157484D01*
X0132158Y0157760D01*
X0131883Y0157996D01*
X0131607Y0158154D01*
X0131292Y0158272D01*
X0130977Y0158350D01*
X0130623Y0158390D01*
X0130308Y0157563D01*
X0130426Y0157524D01*
X0130505Y0157484D01*
X0130544Y0157445D01*
X0130623Y0157406D01*
X0130701Y0157366D01*
X0130741Y0157327D01*
X0130820Y0157287D01*
X0130859Y0157209D01*
X0130898Y0157130D01*
X0130938Y0157051D01*
X0130938Y0156972D01*
X0130977Y0156894D01*
X0130977Y0156697D01*
X0130938Y0156579D01*
X0130938Y0156500D01*
X0130898Y0156421D01*
X0130859Y0156382D01*
X0130820Y0156303D01*
X0130741Y0156264D01*
X0130701Y0156224D01*
X0130623Y0156185D01*
X0130544Y0156146D01*
X0130465Y0156146D01*
X0130386Y0156106D01*
X0130308Y0156106D01*
X0130229Y0156067D01*
X0130032Y0156067D01*
X0129835Y0156106D01*
X0129638Y0156106D01*
X0129481Y0156185D01*
X0129323Y0156224D01*
X0129205Y0156303D01*
X0129127Y0156382D01*
X0129048Y0156500D01*
X0128969Y0156579D01*
X0128930Y0156697D01*
X0128890Y0156815D01*
X0128851Y0156894D01*
X0128812Y0157012D01*
X0128812Y0157917D01*
X0128851Y0157878D01*
X0128890Y0157839D01*
X0128969Y0157839D01*
X0129048Y0157799D01*
X0129127Y0157760D01*
X0129205Y0157760D01*
X0129284Y0157720D01*
X0129442Y0157720D01*
X0129638Y0158508D01*
X0129363Y0158587D01*
X0129127Y0158665D01*
X0128930Y0158783D01*
X0128812Y0158941D01*
X0128812Y0159374D01*
X0128851Y0159453D01*
X0128890Y0159531D01*
X0128930Y0159610D01*
X0128969Y0159650D01*
X0129009Y0159728D01*
X0129087Y0159768D01*
X0129166Y0159807D01*
X0129245Y0159846D01*
X0129323Y0159846D01*
X0129402Y0159886D01*
X0130111Y0159886D01*
X0130190Y0159846D01*
X0130268Y0159807D01*
X0130347Y0159768D01*
X0130426Y0159728D01*
X0130505Y0159689D01*
X0130544Y0159650D01*
X0130623Y0159571D01*
X0130662Y0159531D01*
X0130701Y0159453D01*
X0130741Y0159335D01*
X0130780Y0159256D01*
X0130780Y0159059D01*
X0132316Y0159059D01*
X0132276Y0159295D01*
X0132237Y0159531D01*
X0132158Y0159768D01*
X0132040Y0159925D01*
X0131922Y0160122D01*
X0131804Y0160280D01*
X0131646Y0160398D01*
X0131449Y0160516D01*
X0131253Y0160634D01*
X0131056Y0160713D01*
X0130859Y0160752D01*
X0130623Y0160831D01*
X0130386Y0160870D01*
X0130190Y0160909D01*
X0129284Y0160909D01*
X0129087Y0160870D01*
X0128851Y0160870D01*
X0128654Y0160831D01*
X0128457Y0160752D01*
X0128260Y0160713D01*
X0128064Y0160634D01*
X0127906Y0160516D01*
X0127749Y0160398D01*
X0127591Y0160280D01*
X0127473Y0160122D01*
X0127394Y0159965D01*
X0127316Y0159768D01*
X0127319Y0159777D02*
X0129106Y0159777D01*
X0128864Y0159479D02*
X0127276Y0159479D01*
X0127276Y0159180D02*
X0128812Y0159180D01*
X0128856Y0158882D02*
X0127276Y0158882D01*
X0127276Y0158583D02*
X0129375Y0158583D01*
X0129638Y0158508D02*
X0129442Y0157720D01*
X0129520Y0157681D01*
X0129599Y0157681D01*
X0129717Y0157642D01*
X0129875Y0157642D01*
X0129993Y0157602D01*
X0130150Y0157602D01*
X0130229Y0157563D01*
X0130308Y0157563D01*
X0130623Y0158390D01*
X0130268Y0158429D01*
X0129914Y0158469D01*
X0129638Y0158508D01*
X0129583Y0158285D02*
X0127276Y0158285D01*
X0127276Y0157986D02*
X0129508Y0157986D01*
X0130469Y0157986D01*
X0131894Y0157986D01*
X0132199Y0157688D02*
X0130355Y0157688D01*
X0129507Y0157688D01*
X0129583Y0158285D02*
X0130583Y0158285D01*
X0131240Y0158285D01*
X0130780Y0159180D02*
X0132295Y0159180D01*
X0132246Y0159479D02*
X0130688Y0159479D01*
X0130328Y0159777D02*
X0132151Y0159777D01*
X0131950Y0160076D02*
X0127450Y0160076D01*
X0127717Y0160374D02*
X0131678Y0160374D01*
X0131155Y0160673D02*
X0128161Y0160673D01*
X0128812Y0157688D02*
X0127276Y0157688D01*
X0127276Y0157389D02*
X0128812Y0157389D01*
X0128812Y0157091D02*
X0127276Y0157091D01*
X0127276Y0156792D02*
X0128898Y0156792D01*
X0129052Y0156494D02*
X0127276Y0156494D01*
X0127276Y0156195D02*
X0129441Y0156195D01*
X0128865Y0155598D02*
X0132108Y0155598D01*
X0132320Y0155897D02*
X0127237Y0155897D01*
X0127198Y0155598D02*
X0128733Y0155598D01*
X0128654Y0155300D02*
X0127129Y0155300D01*
X0129333Y0155300D02*
X0131716Y0155300D01*
X0132419Y0156195D02*
X0130643Y0156195D01*
X0130934Y0156494D02*
X0132473Y0156494D01*
X0132495Y0156792D02*
X0130977Y0156792D01*
X0130918Y0157091D02*
X0132441Y0157091D01*
X0132347Y0157389D02*
X0130655Y0157389D01*
X0132962Y0157688D02*
X0134481Y0157688D01*
X0134481Y0157642D02*
X0134481Y0157957D01*
X0134481Y0158311D01*
X0134520Y0158626D01*
X0134638Y0158941D01*
X0134757Y0159217D01*
X0134953Y0159453D01*
X0135190Y0159610D01*
X0135465Y0159728D01*
X0135820Y0159768D01*
X0136135Y0159728D01*
X0136449Y0159610D01*
X0136646Y0159453D01*
X0136843Y0159217D01*
X0136961Y0158941D01*
X0137079Y0158626D01*
X0137119Y0158311D01*
X0137119Y0157642D01*
X0137040Y0157327D01*
X0136961Y0157012D01*
X0136843Y0156736D01*
X0136646Y0156539D01*
X0136410Y0156343D01*
X0136135Y0156264D01*
X0135780Y0156224D01*
X0135465Y0156264D01*
X0135150Y0156343D01*
X0134914Y0156539D01*
X0134757Y0156736D01*
X0134638Y0157012D01*
X0133300Y0156382D01*
X0133536Y0155949D01*
X0133890Y0155594D01*
X0134323Y0155280D01*
X0134796Y0155122D01*
X0135386Y0155043D01*
X0135623Y0155083D01*
X0135859Y0155122D01*
X0136095Y0155161D01*
X0136331Y0155280D01*
X0136528Y0155398D01*
X0136725Y0155516D01*
X0136883Y0155713D01*
X0137040Y0155909D01*
X0137079Y0155909D01*
X0137079Y0151894D01*
X0137237Y0152051D01*
X0137434Y0152248D01*
X0137631Y0152406D01*
X0137827Y0152563D01*
X0138024Y0152720D01*
X0138221Y0152917D01*
X0138379Y0153075D01*
X0138575Y0153232D01*
X0138575Y0160516D01*
X0138418Y0160555D01*
X0138221Y0160594D01*
X0138024Y0160594D01*
X0137867Y0160634D01*
X0137670Y0160673D01*
X0137512Y0160713D01*
X0137316Y0160752D01*
X0137119Y0160791D01*
X0137119Y0160083D01*
X0136961Y0160280D01*
X0136804Y0160437D01*
X0136607Y0160594D01*
X0136410Y0160713D01*
X0136213Y0160831D01*
X0135977Y0160870D01*
X0135741Y0160909D01*
X0135465Y0160909D01*
X0134875Y0160870D01*
X0134323Y0160673D01*
X0136477Y0160673D01*
X0136867Y0160374D02*
X0133869Y0160374D01*
X0133890Y0160398D02*
X0133536Y0160004D01*
X0133260Y0159571D01*
X0133103Y0159059D01*
X0132985Y0158508D01*
X0132946Y0157917D01*
X0134481Y0157957D01*
X0132946Y0157917D01*
X0132985Y0157366D01*
X0133103Y0156854D01*
X0133300Y0156382D01*
X0134638Y0157012D01*
X0134520Y0157327D01*
X0134481Y0157642D01*
X0134513Y0157389D02*
X0132983Y0157389D01*
X0133048Y0157091D02*
X0134609Y0157091D01*
X0134733Y0156792D02*
X0134172Y0156792D01*
X0133129Y0156792D01*
X0133253Y0156494D02*
X0133537Y0156494D01*
X0134969Y0156494D01*
X0134296Y0155300D02*
X0136365Y0155300D01*
X0136791Y0155598D02*
X0133887Y0155598D01*
X0133588Y0155897D02*
X0137030Y0155897D01*
X0137079Y0155897D02*
X0138575Y0155897D01*
X0138575Y0156195D02*
X0133402Y0156195D01*
X0132950Y0157986D02*
X0134481Y0157986D01*
X0134481Y0158285D02*
X0132970Y0158285D01*
X0133001Y0158583D02*
X0134515Y0158583D01*
X0134616Y0158882D02*
X0133065Y0158882D01*
X0133140Y0159180D02*
X0134741Y0159180D01*
X0134992Y0159479D02*
X0133232Y0159479D01*
X0133392Y0159777D02*
X0138575Y0159777D01*
X0138575Y0159479D02*
X0136614Y0159479D01*
X0136859Y0159180D02*
X0138575Y0159180D01*
X0138575Y0158882D02*
X0136984Y0158882D01*
X0137085Y0158583D02*
X0138575Y0158583D01*
X0138575Y0158285D02*
X0137119Y0158285D01*
X0137119Y0157986D02*
X0138575Y0157986D01*
X0138575Y0157688D02*
X0137119Y0157688D01*
X0137056Y0157389D02*
X0138575Y0157389D01*
X0138575Y0157091D02*
X0136981Y0157091D01*
X0136867Y0156792D02*
X0138575Y0156792D01*
X0138575Y0156494D02*
X0136591Y0156494D01*
X0137079Y0155598D02*
X0138575Y0155598D01*
X0138575Y0155300D02*
X0137079Y0155300D01*
X0137079Y0155001D02*
X0138575Y0155001D01*
X0138575Y0154703D02*
X0137079Y0154703D01*
X0137079Y0154404D02*
X0138575Y0154404D01*
X0138575Y0154105D02*
X0137079Y0154105D01*
X0137079Y0153807D02*
X0138575Y0153807D01*
X0138575Y0153508D02*
X0137079Y0153508D01*
X0137079Y0153210D02*
X0138548Y0153210D01*
X0138215Y0152911D02*
X0137079Y0152911D01*
X0137079Y0152613D02*
X0137890Y0152613D01*
X0137517Y0152314D02*
X0137079Y0152314D01*
X0137079Y0152016D02*
X0137202Y0152016D01*
X0139993Y0155476D02*
X0140386Y0155280D01*
X0140820Y0155161D01*
X0141292Y0155083D01*
X0141764Y0155043D01*
X0142237Y0155083D01*
X0142709Y0155161D01*
X0143142Y0155280D01*
X0143536Y0155476D01*
X0143851Y0155752D01*
X0144127Y0156106D01*
X0144284Y0156500D01*
X0144363Y0157012D01*
X0143103Y0157012D01*
X0142906Y0157012D01*
X0142906Y0156776D01*
X0142827Y0156579D01*
X0142709Y0156421D01*
X0142552Y0156303D01*
X0142394Y0156185D01*
X0142158Y0156146D01*
X0141961Y0156106D01*
X0141725Y0156067D01*
X0141568Y0156106D01*
X0141410Y0156106D01*
X0141253Y0156146D01*
X0141095Y0156224D01*
X0140938Y0156343D01*
X0140820Y0156461D01*
X0140780Y0156618D01*
X0140741Y0156776D01*
X0140780Y0156933D01*
X0140859Y0157091D01*
X0139214Y0157091D01*
X0139205Y0157012D02*
X0139284Y0156500D01*
X0139442Y0156067D01*
X0139678Y0155752D01*
X0139993Y0155476D01*
X0139854Y0155598D02*
X0143675Y0155598D01*
X0143964Y0155897D02*
X0139569Y0155897D01*
X0139395Y0156195D02*
X0141154Y0156195D01*
X0140811Y0156494D02*
X0139286Y0156494D01*
X0139239Y0156792D02*
X0140745Y0156792D01*
X0140859Y0157091D02*
X0141016Y0157209D01*
X0141213Y0157327D01*
X0141449Y0157406D01*
X0141764Y0157484D01*
X0142079Y0157563D01*
X0142473Y0157642D01*
X0142827Y0157720D01*
X0143142Y0157839D01*
X0143418Y0157957D01*
X0143694Y0158114D01*
X0143930Y0158272D01*
X0144087Y0158508D01*
X0144205Y0158783D01*
X0144245Y0159138D01*
X0144205Y0159610D01*
X0144048Y0160004D01*
X0143772Y0160319D01*
X0143497Y0160555D01*
X0143103Y0160752D01*
X0142709Y0160831D01*
X0142276Y0160909D01*
X0141371Y0160909D01*
X0140938Y0160831D01*
X0140544Y0160713D01*
X0140190Y0160555D01*
X0139875Y0160319D01*
X0139638Y0160004D01*
X0139442Y0159610D01*
X0139363Y0159138D01*
X0140820Y0159138D01*
X0140859Y0159335D01*
X0140938Y0159531D01*
X0141016Y0159650D01*
X0141135Y0159728D01*
X0141292Y0159807D01*
X0141489Y0159886D01*
X0142158Y0159886D01*
X0142276Y0159846D01*
X0142434Y0159807D01*
X0142552Y0159768D01*
X0142631Y0159650D01*
X0142709Y0159531D01*
X0142709Y0159374D01*
X0142670Y0159217D01*
X0142552Y0159059D01*
X0142394Y0158941D01*
X0142158Y0158823D01*
X0141922Y0158744D01*
X0141607Y0158705D01*
X0141292Y0158626D01*
X0140977Y0158547D01*
X0140662Y0158469D01*
X0140308Y0158390D01*
X0140032Y0158232D01*
X0139757Y0158075D01*
X0139520Y0157878D01*
X0139363Y0157642D01*
X0139245Y0157366D01*
X0139205Y0157012D01*
X0139255Y0157389D02*
X0141400Y0157389D01*
X0141121Y0158583D02*
X0144120Y0158583D01*
X0144216Y0158882D02*
X0142276Y0158882D01*
X0142643Y0159180D02*
X0144241Y0159180D01*
X0144216Y0159479D02*
X0142709Y0159479D01*
X0142523Y0159777D02*
X0144139Y0159777D01*
X0143985Y0160076D02*
X0139692Y0160076D01*
X0139525Y0159777D02*
X0141232Y0159777D01*
X0140917Y0159479D02*
X0139420Y0159479D01*
X0139370Y0159180D02*
X0140828Y0159180D01*
X0140124Y0158285D02*
X0143938Y0158285D01*
X0143470Y0157986D02*
X0139650Y0157986D01*
X0139393Y0157688D02*
X0142680Y0157688D01*
X0142906Y0156792D02*
X0144329Y0156792D01*
X0144282Y0156494D02*
X0142764Y0156494D01*
X0142408Y0156195D02*
X0144162Y0156195D01*
X0143182Y0155300D02*
X0140346Y0155300D01*
X0139948Y0160374D02*
X0143708Y0160374D01*
X0143261Y0160673D02*
X0140454Y0160673D01*
X0138575Y0160374D02*
X0137119Y0160374D01*
X0137119Y0160673D02*
X0137672Y0160673D01*
X0138575Y0160076D02*
X0133601Y0160076D01*
X0133890Y0160398D02*
X0134323Y0160673D01*
M02*
