%
M48
M72
T01C0.0120
T02C0.0150
T03C0.0200
T04C0.0335
T05C0.0400
T06C0.1100
T07C0.1200
T08C0.1300
%
T01
X44833Y47000
T02
X47083Y43500
X48083Y43000
X49083Y45000
X47833Y47750
X40583Y31000
T03
X35063Y18270
T04
X34940Y48531
X35727Y48531
X35727Y49319
X34940Y49319
X34152Y49319
X33365Y49319
X33365Y48531
X34152Y48531
X32577Y48531
X31790Y48531
X31790Y49319
X32577Y49319
X31003Y49319
X31003Y48531
X30215Y48531
X29428Y48531
X29428Y49319
X30215Y49319
X28640Y49319
X27853Y49319
X27853Y48531
X28640Y48531
X27066Y48531
X26278Y48531
X26278Y49319
X27066Y49319
X25491Y49319
X25491Y48531
X24703Y48531
X24703Y49319
X23916Y49358
X23916Y48492
X36514Y48531
X37302Y48531
X37302Y49319
X36514Y49319
X38089Y49319
X38089Y48531
X38877Y48531
X38877Y49319
X39664Y49319
X40451Y49319
X40451Y48531
X39664Y48531
X41239Y48531
X42026Y48531
X42026Y49319
X41239Y49319
X42814Y49319
X43601Y49319
X43601Y48531
X42814Y48531
X44388Y48531
X45176Y48531
X45963Y48531
X45963Y49319
X45176Y49319
X44388Y49319
X46751Y49358
X46751Y48492
T05
X40333Y40500
X39333Y40500
X38333Y40500
X37333Y40500
X36333Y40500
X35333Y40500
X34333Y40500
X34333Y28500
X33333Y28500
X32333Y28500
X31333Y28500
X30333Y28500
X35333Y28500
X36333Y28500
X37333Y28500
X38333Y28500
X39333Y28500
T06
X34833Y26300
X34833Y42700
X22083Y49160
X48583Y49160
T07
X44083Y41000
X44083Y28000
X25583Y28000
X25583Y41000
T08
X21833Y12000
X27833Y29000
X27833Y40000
X41833Y40000
X41833Y29000
X48833Y12000
M30
