G75*
%MOIN*%
%OFA0B0*%
%FSLAX25Y25*%
%IPPOS*%
%LPD*%
%AMOC8*
5,1,8,0,0,1.08239X$1,22.5*
%
%ADD10C,0.13800*%
%ADD11C,0.08200*%
%ADD12C,0.12800*%
%ADD13C,0.11800*%
%ADD14R,0.05820X0.05820*%
%ADD15C,0.05820*%
%ADD16R,0.05524X0.06312*%
%ADD17R,0.03162X0.05524*%
%ADD18R,0.03300X0.05800*%
D10*
X0218333Y0120000D03*
X0278333Y0290000D03*
X0278333Y0400000D03*
X0418333Y0400000D03*
X0418333Y0290000D03*
X0488333Y0120000D03*
D11*
X0393333Y0285000D03*
X0383333Y0285000D03*
X0373333Y0285000D03*
X0363333Y0285000D03*
X0353333Y0285000D03*
X0343333Y0285000D03*
X0333333Y0285000D03*
X0323333Y0285000D03*
X0313333Y0285000D03*
X0303333Y0285000D03*
X0343333Y0405000D03*
X0353333Y0405000D03*
X0363333Y0405000D03*
X0373333Y0405000D03*
X0383333Y0405000D03*
X0393333Y0405000D03*
X0403333Y0405000D03*
D12*
X0440833Y0410000D03*
X0440833Y0280000D03*
X0255833Y0280000D03*
X0255833Y0410000D03*
D13*
X0220833Y0491600D03*
X0348333Y0427000D03*
X0348333Y0263000D03*
X0485833Y0491600D03*
D14*
X0239160Y0484921D03*
D15*
X0239160Y0493583D03*
X0247034Y0493189D03*
X0247034Y0485315D03*
X0254908Y0485315D03*
X0254908Y0493189D03*
X0262782Y0493189D03*
X0262782Y0485315D03*
X0270656Y0485315D03*
X0270656Y0493189D03*
X0278530Y0493189D03*
X0278530Y0485315D03*
X0286404Y0485315D03*
X0286404Y0493189D03*
X0294278Y0493189D03*
X0294278Y0485315D03*
X0302152Y0485315D03*
X0302152Y0493189D03*
X0310026Y0493189D03*
X0310026Y0485315D03*
X0317900Y0485315D03*
X0317900Y0493189D03*
X0325774Y0493189D03*
X0325774Y0485315D03*
X0333648Y0485315D03*
X0333648Y0493189D03*
X0341522Y0493189D03*
X0341522Y0485315D03*
X0349396Y0485315D03*
X0349396Y0493189D03*
X0357270Y0493189D03*
X0357270Y0485315D03*
X0365144Y0485315D03*
X0365144Y0493189D03*
X0373018Y0493189D03*
X0373018Y0485315D03*
X0380892Y0485315D03*
X0380892Y0493189D03*
X0388766Y0493189D03*
X0388766Y0485315D03*
X0396640Y0485315D03*
X0396640Y0493189D03*
X0404514Y0493189D03*
X0404514Y0485315D03*
X0412388Y0485315D03*
X0412388Y0493189D03*
X0420262Y0493189D03*
X0420262Y0485315D03*
X0428136Y0485315D03*
X0428136Y0493189D03*
X0436010Y0493189D03*
X0436010Y0485315D03*
X0443885Y0485315D03*
X0451759Y0485315D03*
X0459633Y0485315D03*
X0459633Y0493189D03*
X0451759Y0493189D03*
X0443885Y0493189D03*
X0467507Y0493583D03*
X0467507Y0484921D03*
D16*
X0434239Y0220000D03*
X0422428Y0220000D03*
X0422428Y0200000D03*
X0434239Y0200000D03*
X0394239Y0200000D03*
X0382428Y0200000D03*
X0382428Y0220000D03*
X0394239Y0220000D03*
D17*
X0460833Y0418976D03*
X0465833Y0418976D03*
X0470833Y0418976D03*
X0475833Y0418976D03*
X0480833Y0418976D03*
X0485833Y0418976D03*
X0490833Y0418976D03*
X0490833Y0441024D03*
X0485833Y0441024D03*
X0480833Y0441024D03*
X0475833Y0441024D03*
X0470833Y0441024D03*
X0465833Y0441024D03*
X0460833Y0441024D03*
D18*
X0476733Y0455000D03*
X0479933Y0455000D03*
X0486733Y0455000D03*
X0489933Y0455000D03*
X0474933Y0405000D03*
X0471733Y0405000D03*
X0464933Y0405000D03*
X0461733Y0405000D03*
M02*
