G75*
%MOIN*%
%OFA0B0*%
%FSLAX25Y25*%
%IPPOS*%
%LPD*%
%AMOC8*
5,1,8,0,0,1.08239X$1,22.5*
%
%ADD10C,0.01000*%
%ADD11C,0.00000*%
D10*
X0153333Y0120000D02*
X0153333Y0460000D01*
X0153336Y0460242D01*
X0153345Y0460483D01*
X0153359Y0460724D01*
X0153380Y0460965D01*
X0153406Y0461205D01*
X0153438Y0461445D01*
X0153476Y0461684D01*
X0153519Y0461921D01*
X0153569Y0462158D01*
X0153624Y0462393D01*
X0153684Y0462627D01*
X0153751Y0462859D01*
X0153822Y0463090D01*
X0153900Y0463319D01*
X0153983Y0463546D01*
X0154071Y0463771D01*
X0154165Y0463994D01*
X0154264Y0464214D01*
X0154369Y0464432D01*
X0154478Y0464647D01*
X0154593Y0464860D01*
X0154713Y0465070D01*
X0154838Y0465276D01*
X0154968Y0465480D01*
X0155103Y0465681D01*
X0155243Y0465878D01*
X0155387Y0466072D01*
X0155536Y0466262D01*
X0155690Y0466448D01*
X0155848Y0466631D01*
X0156010Y0466810D01*
X0156177Y0466985D01*
X0156348Y0467156D01*
X0156523Y0467323D01*
X0156702Y0467485D01*
X0156885Y0467643D01*
X0157071Y0467797D01*
X0157261Y0467946D01*
X0157455Y0468090D01*
X0157652Y0468230D01*
X0157853Y0468365D01*
X0158057Y0468495D01*
X0158263Y0468620D01*
X0158473Y0468740D01*
X0158686Y0468855D01*
X0158901Y0468964D01*
X0159119Y0469069D01*
X0159339Y0469168D01*
X0159562Y0469262D01*
X0159787Y0469350D01*
X0160014Y0469433D01*
X0160243Y0469511D01*
X0160474Y0469582D01*
X0160706Y0469649D01*
X0160940Y0469709D01*
X0161175Y0469764D01*
X0161412Y0469814D01*
X0161649Y0469857D01*
X0161888Y0469895D01*
X0162128Y0469927D01*
X0162368Y0469953D01*
X0162609Y0469974D01*
X0162850Y0469988D01*
X0163091Y0469997D01*
X0163333Y0470000D01*
X0638333Y0470000D01*
X0638575Y0469997D01*
X0638816Y0469988D01*
X0639057Y0469974D01*
X0639298Y0469953D01*
X0639538Y0469927D01*
X0639778Y0469895D01*
X0640017Y0469857D01*
X0640254Y0469814D01*
X0640491Y0469764D01*
X0640726Y0469709D01*
X0640960Y0469649D01*
X0641192Y0469582D01*
X0641423Y0469511D01*
X0641652Y0469433D01*
X0641879Y0469350D01*
X0642104Y0469262D01*
X0642327Y0469168D01*
X0642547Y0469069D01*
X0642765Y0468964D01*
X0642980Y0468855D01*
X0643193Y0468740D01*
X0643403Y0468620D01*
X0643609Y0468495D01*
X0643813Y0468365D01*
X0644014Y0468230D01*
X0644211Y0468090D01*
X0644405Y0467946D01*
X0644595Y0467797D01*
X0644781Y0467643D01*
X0644964Y0467485D01*
X0645143Y0467323D01*
X0645318Y0467156D01*
X0645489Y0466985D01*
X0645656Y0466810D01*
X0645818Y0466631D01*
X0645976Y0466448D01*
X0646130Y0466262D01*
X0646279Y0466072D01*
X0646423Y0465878D01*
X0646563Y0465681D01*
X0646698Y0465480D01*
X0646828Y0465276D01*
X0646953Y0465070D01*
X0647073Y0464860D01*
X0647188Y0464647D01*
X0647297Y0464432D01*
X0647402Y0464214D01*
X0647501Y0463994D01*
X0647595Y0463771D01*
X0647683Y0463546D01*
X0647766Y0463319D01*
X0647844Y0463090D01*
X0647915Y0462859D01*
X0647982Y0462627D01*
X0648042Y0462393D01*
X0648097Y0462158D01*
X0648147Y0461921D01*
X0648190Y0461684D01*
X0648228Y0461445D01*
X0648260Y0461205D01*
X0648286Y0460965D01*
X0648307Y0460724D01*
X0648321Y0460483D01*
X0648330Y0460242D01*
X0648333Y0460000D01*
X0648333Y0120000D01*
X0648330Y0119758D01*
X0648321Y0119517D01*
X0648307Y0119276D01*
X0648286Y0119035D01*
X0648260Y0118795D01*
X0648228Y0118555D01*
X0648190Y0118316D01*
X0648147Y0118079D01*
X0648097Y0117842D01*
X0648042Y0117607D01*
X0647982Y0117373D01*
X0647915Y0117141D01*
X0647844Y0116910D01*
X0647766Y0116681D01*
X0647683Y0116454D01*
X0647595Y0116229D01*
X0647501Y0116006D01*
X0647402Y0115786D01*
X0647297Y0115568D01*
X0647188Y0115353D01*
X0647073Y0115140D01*
X0646953Y0114930D01*
X0646828Y0114724D01*
X0646698Y0114520D01*
X0646563Y0114319D01*
X0646423Y0114122D01*
X0646279Y0113928D01*
X0646130Y0113738D01*
X0645976Y0113552D01*
X0645818Y0113369D01*
X0645656Y0113190D01*
X0645489Y0113015D01*
X0645318Y0112844D01*
X0645143Y0112677D01*
X0644964Y0112515D01*
X0644781Y0112357D01*
X0644595Y0112203D01*
X0644405Y0112054D01*
X0644211Y0111910D01*
X0644014Y0111770D01*
X0643813Y0111635D01*
X0643609Y0111505D01*
X0643403Y0111380D01*
X0643193Y0111260D01*
X0642980Y0111145D01*
X0642765Y0111036D01*
X0642547Y0110931D01*
X0642327Y0110832D01*
X0642104Y0110738D01*
X0641879Y0110650D01*
X0641652Y0110567D01*
X0641423Y0110489D01*
X0641192Y0110418D01*
X0640960Y0110351D01*
X0640726Y0110291D01*
X0640491Y0110236D01*
X0640254Y0110186D01*
X0640017Y0110143D01*
X0639778Y0110105D01*
X0639538Y0110073D01*
X0639298Y0110047D01*
X0639057Y0110026D01*
X0638816Y0110012D01*
X0638575Y0110003D01*
X0638333Y0110000D01*
X0163333Y0110000D01*
X0163091Y0110003D01*
X0162850Y0110012D01*
X0162609Y0110026D01*
X0162368Y0110047D01*
X0162128Y0110073D01*
X0161888Y0110105D01*
X0161649Y0110143D01*
X0161412Y0110186D01*
X0161175Y0110236D01*
X0160940Y0110291D01*
X0160706Y0110351D01*
X0160474Y0110418D01*
X0160243Y0110489D01*
X0160014Y0110567D01*
X0159787Y0110650D01*
X0159562Y0110738D01*
X0159339Y0110832D01*
X0159119Y0110931D01*
X0158901Y0111036D01*
X0158686Y0111145D01*
X0158473Y0111260D01*
X0158263Y0111380D01*
X0158057Y0111505D01*
X0157853Y0111635D01*
X0157652Y0111770D01*
X0157455Y0111910D01*
X0157261Y0112054D01*
X0157071Y0112203D01*
X0156885Y0112357D01*
X0156702Y0112515D01*
X0156523Y0112677D01*
X0156348Y0112844D01*
X0156177Y0113015D01*
X0156010Y0113190D01*
X0155848Y0113369D01*
X0155690Y0113552D01*
X0155536Y0113738D01*
X0155387Y0113928D01*
X0155243Y0114122D01*
X0155103Y0114319D01*
X0154968Y0114520D01*
X0154838Y0114724D01*
X0154713Y0114930D01*
X0154593Y0115140D01*
X0154478Y0115353D01*
X0154369Y0115568D01*
X0154264Y0115786D01*
X0154165Y0116006D01*
X0154071Y0116229D01*
X0153983Y0116454D01*
X0153900Y0116681D01*
X0153822Y0116910D01*
X0153751Y0117141D01*
X0153684Y0117373D01*
X0153624Y0117607D01*
X0153569Y0117842D01*
X0153519Y0118079D01*
X0153476Y0118316D01*
X0153438Y0118555D01*
X0153406Y0118795D01*
X0153380Y0119035D01*
X0153359Y0119276D01*
X0153345Y0119517D01*
X0153336Y0119758D01*
X0153333Y0120000D01*
D11*
X0156833Y0120000D02*
X0156835Y0120161D01*
X0156841Y0120321D01*
X0156851Y0120482D01*
X0156865Y0120642D01*
X0156883Y0120802D01*
X0156904Y0120961D01*
X0156930Y0121120D01*
X0156960Y0121278D01*
X0156993Y0121435D01*
X0157031Y0121592D01*
X0157072Y0121747D01*
X0157117Y0121901D01*
X0157166Y0122054D01*
X0157219Y0122206D01*
X0157275Y0122357D01*
X0157336Y0122506D01*
X0157399Y0122654D01*
X0157467Y0122800D01*
X0157538Y0122944D01*
X0157612Y0123086D01*
X0157690Y0123227D01*
X0157772Y0123365D01*
X0157857Y0123502D01*
X0157945Y0123636D01*
X0158037Y0123768D01*
X0158132Y0123898D01*
X0158230Y0124026D01*
X0158331Y0124151D01*
X0158435Y0124273D01*
X0158542Y0124393D01*
X0158652Y0124510D01*
X0158765Y0124625D01*
X0158881Y0124736D01*
X0159000Y0124845D01*
X0159121Y0124950D01*
X0159245Y0125053D01*
X0159371Y0125153D01*
X0159499Y0125249D01*
X0159630Y0125342D01*
X0159764Y0125432D01*
X0159899Y0125519D01*
X0160037Y0125602D01*
X0160176Y0125682D01*
X0160318Y0125758D01*
X0160461Y0125831D01*
X0160606Y0125900D01*
X0160753Y0125966D01*
X0160901Y0126028D01*
X0161051Y0126086D01*
X0161202Y0126141D01*
X0161355Y0126192D01*
X0161509Y0126239D01*
X0161664Y0126282D01*
X0161820Y0126321D01*
X0161976Y0126357D01*
X0162134Y0126388D01*
X0162292Y0126416D01*
X0162451Y0126440D01*
X0162611Y0126460D01*
X0162771Y0126476D01*
X0162931Y0126488D01*
X0163092Y0126496D01*
X0163253Y0126500D01*
X0163413Y0126500D01*
X0163574Y0126496D01*
X0163735Y0126488D01*
X0163895Y0126476D01*
X0164055Y0126460D01*
X0164215Y0126440D01*
X0164374Y0126416D01*
X0164532Y0126388D01*
X0164690Y0126357D01*
X0164846Y0126321D01*
X0165002Y0126282D01*
X0165157Y0126239D01*
X0165311Y0126192D01*
X0165464Y0126141D01*
X0165615Y0126086D01*
X0165765Y0126028D01*
X0165913Y0125966D01*
X0166060Y0125900D01*
X0166205Y0125831D01*
X0166348Y0125758D01*
X0166490Y0125682D01*
X0166629Y0125602D01*
X0166767Y0125519D01*
X0166902Y0125432D01*
X0167036Y0125342D01*
X0167167Y0125249D01*
X0167295Y0125153D01*
X0167421Y0125053D01*
X0167545Y0124950D01*
X0167666Y0124845D01*
X0167785Y0124736D01*
X0167901Y0124625D01*
X0168014Y0124510D01*
X0168124Y0124393D01*
X0168231Y0124273D01*
X0168335Y0124151D01*
X0168436Y0124026D01*
X0168534Y0123898D01*
X0168629Y0123768D01*
X0168721Y0123636D01*
X0168809Y0123502D01*
X0168894Y0123365D01*
X0168976Y0123227D01*
X0169054Y0123086D01*
X0169128Y0122944D01*
X0169199Y0122800D01*
X0169267Y0122654D01*
X0169330Y0122506D01*
X0169391Y0122357D01*
X0169447Y0122206D01*
X0169500Y0122054D01*
X0169549Y0121901D01*
X0169594Y0121747D01*
X0169635Y0121592D01*
X0169673Y0121435D01*
X0169706Y0121278D01*
X0169736Y0121120D01*
X0169762Y0120961D01*
X0169783Y0120802D01*
X0169801Y0120642D01*
X0169815Y0120482D01*
X0169825Y0120321D01*
X0169831Y0120161D01*
X0169833Y0120000D01*
X0169831Y0119839D01*
X0169825Y0119679D01*
X0169815Y0119518D01*
X0169801Y0119358D01*
X0169783Y0119198D01*
X0169762Y0119039D01*
X0169736Y0118880D01*
X0169706Y0118722D01*
X0169673Y0118565D01*
X0169635Y0118408D01*
X0169594Y0118253D01*
X0169549Y0118099D01*
X0169500Y0117946D01*
X0169447Y0117794D01*
X0169391Y0117643D01*
X0169330Y0117494D01*
X0169267Y0117346D01*
X0169199Y0117200D01*
X0169128Y0117056D01*
X0169054Y0116914D01*
X0168976Y0116773D01*
X0168894Y0116635D01*
X0168809Y0116498D01*
X0168721Y0116364D01*
X0168629Y0116232D01*
X0168534Y0116102D01*
X0168436Y0115974D01*
X0168335Y0115849D01*
X0168231Y0115727D01*
X0168124Y0115607D01*
X0168014Y0115490D01*
X0167901Y0115375D01*
X0167785Y0115264D01*
X0167666Y0115155D01*
X0167545Y0115050D01*
X0167421Y0114947D01*
X0167295Y0114847D01*
X0167167Y0114751D01*
X0167036Y0114658D01*
X0166902Y0114568D01*
X0166767Y0114481D01*
X0166629Y0114398D01*
X0166490Y0114318D01*
X0166348Y0114242D01*
X0166205Y0114169D01*
X0166060Y0114100D01*
X0165913Y0114034D01*
X0165765Y0113972D01*
X0165615Y0113914D01*
X0165464Y0113859D01*
X0165311Y0113808D01*
X0165157Y0113761D01*
X0165002Y0113718D01*
X0164846Y0113679D01*
X0164690Y0113643D01*
X0164532Y0113612D01*
X0164374Y0113584D01*
X0164215Y0113560D01*
X0164055Y0113540D01*
X0163895Y0113524D01*
X0163735Y0113512D01*
X0163574Y0113504D01*
X0163413Y0113500D01*
X0163253Y0113500D01*
X0163092Y0113504D01*
X0162931Y0113512D01*
X0162771Y0113524D01*
X0162611Y0113540D01*
X0162451Y0113560D01*
X0162292Y0113584D01*
X0162134Y0113612D01*
X0161976Y0113643D01*
X0161820Y0113679D01*
X0161664Y0113718D01*
X0161509Y0113761D01*
X0161355Y0113808D01*
X0161202Y0113859D01*
X0161051Y0113914D01*
X0160901Y0113972D01*
X0160753Y0114034D01*
X0160606Y0114100D01*
X0160461Y0114169D01*
X0160318Y0114242D01*
X0160176Y0114318D01*
X0160037Y0114398D01*
X0159899Y0114481D01*
X0159764Y0114568D01*
X0159630Y0114658D01*
X0159499Y0114751D01*
X0159371Y0114847D01*
X0159245Y0114947D01*
X0159121Y0115050D01*
X0159000Y0115155D01*
X0158881Y0115264D01*
X0158765Y0115375D01*
X0158652Y0115490D01*
X0158542Y0115607D01*
X0158435Y0115727D01*
X0158331Y0115849D01*
X0158230Y0115974D01*
X0158132Y0116102D01*
X0158037Y0116232D01*
X0157945Y0116364D01*
X0157857Y0116498D01*
X0157772Y0116635D01*
X0157690Y0116773D01*
X0157612Y0116914D01*
X0157538Y0117056D01*
X0157467Y0117200D01*
X0157399Y0117346D01*
X0157336Y0117494D01*
X0157275Y0117643D01*
X0157219Y0117794D01*
X0157166Y0117946D01*
X0157117Y0118099D01*
X0157072Y0118253D01*
X0157031Y0118408D01*
X0156993Y0118565D01*
X0156960Y0118722D01*
X0156930Y0118880D01*
X0156904Y0119039D01*
X0156883Y0119198D01*
X0156865Y0119358D01*
X0156851Y0119518D01*
X0156841Y0119679D01*
X0156835Y0119839D01*
X0156833Y0120000D01*
X0304833Y0255000D02*
X0304835Y0255154D01*
X0304841Y0255309D01*
X0304851Y0255463D01*
X0304865Y0255617D01*
X0304883Y0255770D01*
X0304904Y0255923D01*
X0304930Y0256076D01*
X0304960Y0256227D01*
X0304993Y0256378D01*
X0305031Y0256528D01*
X0305072Y0256677D01*
X0305117Y0256825D01*
X0305166Y0256971D01*
X0305219Y0257117D01*
X0305275Y0257260D01*
X0305335Y0257403D01*
X0305399Y0257543D01*
X0305466Y0257683D01*
X0305537Y0257820D01*
X0305611Y0257955D01*
X0305689Y0258089D01*
X0305770Y0258220D01*
X0305855Y0258349D01*
X0305943Y0258477D01*
X0306034Y0258601D01*
X0306128Y0258724D01*
X0306226Y0258844D01*
X0306326Y0258961D01*
X0306430Y0259076D01*
X0306536Y0259188D01*
X0306645Y0259297D01*
X0306757Y0259403D01*
X0306872Y0259507D01*
X0306989Y0259607D01*
X0307109Y0259705D01*
X0307232Y0259799D01*
X0307356Y0259890D01*
X0307484Y0259978D01*
X0307613Y0260063D01*
X0307744Y0260144D01*
X0307878Y0260222D01*
X0308013Y0260296D01*
X0308150Y0260367D01*
X0308290Y0260434D01*
X0308430Y0260498D01*
X0308573Y0260558D01*
X0308716Y0260614D01*
X0308862Y0260667D01*
X0309008Y0260716D01*
X0309156Y0260761D01*
X0309305Y0260802D01*
X0309455Y0260840D01*
X0309606Y0260873D01*
X0309757Y0260903D01*
X0309910Y0260929D01*
X0310063Y0260950D01*
X0310216Y0260968D01*
X0310370Y0260982D01*
X0310524Y0260992D01*
X0310679Y0260998D01*
X0310833Y0261000D01*
X0310987Y0260998D01*
X0311142Y0260992D01*
X0311296Y0260982D01*
X0311450Y0260968D01*
X0311603Y0260950D01*
X0311756Y0260929D01*
X0311909Y0260903D01*
X0312060Y0260873D01*
X0312211Y0260840D01*
X0312361Y0260802D01*
X0312510Y0260761D01*
X0312658Y0260716D01*
X0312804Y0260667D01*
X0312950Y0260614D01*
X0313093Y0260558D01*
X0313236Y0260498D01*
X0313376Y0260434D01*
X0313516Y0260367D01*
X0313653Y0260296D01*
X0313788Y0260222D01*
X0313922Y0260144D01*
X0314053Y0260063D01*
X0314182Y0259978D01*
X0314310Y0259890D01*
X0314434Y0259799D01*
X0314557Y0259705D01*
X0314677Y0259607D01*
X0314794Y0259507D01*
X0314909Y0259403D01*
X0315021Y0259297D01*
X0315130Y0259188D01*
X0315236Y0259076D01*
X0315340Y0258961D01*
X0315440Y0258844D01*
X0315538Y0258724D01*
X0315632Y0258601D01*
X0315723Y0258477D01*
X0315811Y0258349D01*
X0315896Y0258220D01*
X0315977Y0258089D01*
X0316055Y0257955D01*
X0316129Y0257820D01*
X0316200Y0257683D01*
X0316267Y0257543D01*
X0316331Y0257403D01*
X0316391Y0257260D01*
X0316447Y0257117D01*
X0316500Y0256971D01*
X0316549Y0256825D01*
X0316594Y0256677D01*
X0316635Y0256528D01*
X0316673Y0256378D01*
X0316706Y0256227D01*
X0316736Y0256076D01*
X0316762Y0255923D01*
X0316783Y0255770D01*
X0316801Y0255617D01*
X0316815Y0255463D01*
X0316825Y0255309D01*
X0316831Y0255154D01*
X0316833Y0255000D01*
X0316831Y0254846D01*
X0316825Y0254691D01*
X0316815Y0254537D01*
X0316801Y0254383D01*
X0316783Y0254230D01*
X0316762Y0254077D01*
X0316736Y0253924D01*
X0316706Y0253773D01*
X0316673Y0253622D01*
X0316635Y0253472D01*
X0316594Y0253323D01*
X0316549Y0253175D01*
X0316500Y0253029D01*
X0316447Y0252883D01*
X0316391Y0252740D01*
X0316331Y0252597D01*
X0316267Y0252457D01*
X0316200Y0252317D01*
X0316129Y0252180D01*
X0316055Y0252045D01*
X0315977Y0251911D01*
X0315896Y0251780D01*
X0315811Y0251651D01*
X0315723Y0251523D01*
X0315632Y0251399D01*
X0315538Y0251276D01*
X0315440Y0251156D01*
X0315340Y0251039D01*
X0315236Y0250924D01*
X0315130Y0250812D01*
X0315021Y0250703D01*
X0314909Y0250597D01*
X0314794Y0250493D01*
X0314677Y0250393D01*
X0314557Y0250295D01*
X0314434Y0250201D01*
X0314310Y0250110D01*
X0314182Y0250022D01*
X0314053Y0249937D01*
X0313922Y0249856D01*
X0313788Y0249778D01*
X0313653Y0249704D01*
X0313516Y0249633D01*
X0313376Y0249566D01*
X0313236Y0249502D01*
X0313093Y0249442D01*
X0312950Y0249386D01*
X0312804Y0249333D01*
X0312658Y0249284D01*
X0312510Y0249239D01*
X0312361Y0249198D01*
X0312211Y0249160D01*
X0312060Y0249127D01*
X0311909Y0249097D01*
X0311756Y0249071D01*
X0311603Y0249050D01*
X0311450Y0249032D01*
X0311296Y0249018D01*
X0311142Y0249008D01*
X0310987Y0249002D01*
X0310833Y0249000D01*
X0310679Y0249002D01*
X0310524Y0249008D01*
X0310370Y0249018D01*
X0310216Y0249032D01*
X0310063Y0249050D01*
X0309910Y0249071D01*
X0309757Y0249097D01*
X0309606Y0249127D01*
X0309455Y0249160D01*
X0309305Y0249198D01*
X0309156Y0249239D01*
X0309008Y0249284D01*
X0308862Y0249333D01*
X0308716Y0249386D01*
X0308573Y0249442D01*
X0308430Y0249502D01*
X0308290Y0249566D01*
X0308150Y0249633D01*
X0308013Y0249704D01*
X0307878Y0249778D01*
X0307744Y0249856D01*
X0307613Y0249937D01*
X0307484Y0250022D01*
X0307356Y0250110D01*
X0307232Y0250201D01*
X0307109Y0250295D01*
X0306989Y0250393D01*
X0306872Y0250493D01*
X0306757Y0250597D01*
X0306645Y0250703D01*
X0306536Y0250812D01*
X0306430Y0250924D01*
X0306326Y0251039D01*
X0306226Y0251156D01*
X0306128Y0251276D01*
X0306034Y0251399D01*
X0305943Y0251523D01*
X0305855Y0251651D01*
X0305770Y0251780D01*
X0305689Y0251911D01*
X0305611Y0252045D01*
X0305537Y0252180D01*
X0305466Y0252317D01*
X0305399Y0252457D01*
X0305335Y0252597D01*
X0305275Y0252740D01*
X0305219Y0252883D01*
X0305166Y0253029D01*
X0305117Y0253175D01*
X0305072Y0253323D01*
X0305031Y0253472D01*
X0304993Y0253622D01*
X0304960Y0253773D01*
X0304930Y0253924D01*
X0304904Y0254077D01*
X0304883Y0254230D01*
X0304865Y0254383D01*
X0304851Y0254537D01*
X0304841Y0254691D01*
X0304835Y0254846D01*
X0304833Y0255000D01*
X0397333Y0242500D02*
X0397335Y0242654D01*
X0397341Y0242809D01*
X0397351Y0242963D01*
X0397365Y0243117D01*
X0397383Y0243270D01*
X0397404Y0243423D01*
X0397430Y0243576D01*
X0397460Y0243727D01*
X0397493Y0243878D01*
X0397531Y0244028D01*
X0397572Y0244177D01*
X0397617Y0244325D01*
X0397666Y0244471D01*
X0397719Y0244617D01*
X0397775Y0244760D01*
X0397835Y0244903D01*
X0397899Y0245043D01*
X0397966Y0245183D01*
X0398037Y0245320D01*
X0398111Y0245455D01*
X0398189Y0245589D01*
X0398270Y0245720D01*
X0398355Y0245849D01*
X0398443Y0245977D01*
X0398534Y0246101D01*
X0398628Y0246224D01*
X0398726Y0246344D01*
X0398826Y0246461D01*
X0398930Y0246576D01*
X0399036Y0246688D01*
X0399145Y0246797D01*
X0399257Y0246903D01*
X0399372Y0247007D01*
X0399489Y0247107D01*
X0399609Y0247205D01*
X0399732Y0247299D01*
X0399856Y0247390D01*
X0399984Y0247478D01*
X0400113Y0247563D01*
X0400244Y0247644D01*
X0400378Y0247722D01*
X0400513Y0247796D01*
X0400650Y0247867D01*
X0400790Y0247934D01*
X0400930Y0247998D01*
X0401073Y0248058D01*
X0401216Y0248114D01*
X0401362Y0248167D01*
X0401508Y0248216D01*
X0401656Y0248261D01*
X0401805Y0248302D01*
X0401955Y0248340D01*
X0402106Y0248373D01*
X0402257Y0248403D01*
X0402410Y0248429D01*
X0402563Y0248450D01*
X0402716Y0248468D01*
X0402870Y0248482D01*
X0403024Y0248492D01*
X0403179Y0248498D01*
X0403333Y0248500D01*
X0403487Y0248498D01*
X0403642Y0248492D01*
X0403796Y0248482D01*
X0403950Y0248468D01*
X0404103Y0248450D01*
X0404256Y0248429D01*
X0404409Y0248403D01*
X0404560Y0248373D01*
X0404711Y0248340D01*
X0404861Y0248302D01*
X0405010Y0248261D01*
X0405158Y0248216D01*
X0405304Y0248167D01*
X0405450Y0248114D01*
X0405593Y0248058D01*
X0405736Y0247998D01*
X0405876Y0247934D01*
X0406016Y0247867D01*
X0406153Y0247796D01*
X0406288Y0247722D01*
X0406422Y0247644D01*
X0406553Y0247563D01*
X0406682Y0247478D01*
X0406810Y0247390D01*
X0406934Y0247299D01*
X0407057Y0247205D01*
X0407177Y0247107D01*
X0407294Y0247007D01*
X0407409Y0246903D01*
X0407521Y0246797D01*
X0407630Y0246688D01*
X0407736Y0246576D01*
X0407840Y0246461D01*
X0407940Y0246344D01*
X0408038Y0246224D01*
X0408132Y0246101D01*
X0408223Y0245977D01*
X0408311Y0245849D01*
X0408396Y0245720D01*
X0408477Y0245589D01*
X0408555Y0245455D01*
X0408629Y0245320D01*
X0408700Y0245183D01*
X0408767Y0245043D01*
X0408831Y0244903D01*
X0408891Y0244760D01*
X0408947Y0244617D01*
X0409000Y0244471D01*
X0409049Y0244325D01*
X0409094Y0244177D01*
X0409135Y0244028D01*
X0409173Y0243878D01*
X0409206Y0243727D01*
X0409236Y0243576D01*
X0409262Y0243423D01*
X0409283Y0243270D01*
X0409301Y0243117D01*
X0409315Y0242963D01*
X0409325Y0242809D01*
X0409331Y0242654D01*
X0409333Y0242500D01*
X0409331Y0242346D01*
X0409325Y0242191D01*
X0409315Y0242037D01*
X0409301Y0241883D01*
X0409283Y0241730D01*
X0409262Y0241577D01*
X0409236Y0241424D01*
X0409206Y0241273D01*
X0409173Y0241122D01*
X0409135Y0240972D01*
X0409094Y0240823D01*
X0409049Y0240675D01*
X0409000Y0240529D01*
X0408947Y0240383D01*
X0408891Y0240240D01*
X0408831Y0240097D01*
X0408767Y0239957D01*
X0408700Y0239817D01*
X0408629Y0239680D01*
X0408555Y0239545D01*
X0408477Y0239411D01*
X0408396Y0239280D01*
X0408311Y0239151D01*
X0408223Y0239023D01*
X0408132Y0238899D01*
X0408038Y0238776D01*
X0407940Y0238656D01*
X0407840Y0238539D01*
X0407736Y0238424D01*
X0407630Y0238312D01*
X0407521Y0238203D01*
X0407409Y0238097D01*
X0407294Y0237993D01*
X0407177Y0237893D01*
X0407057Y0237795D01*
X0406934Y0237701D01*
X0406810Y0237610D01*
X0406682Y0237522D01*
X0406553Y0237437D01*
X0406422Y0237356D01*
X0406288Y0237278D01*
X0406153Y0237204D01*
X0406016Y0237133D01*
X0405876Y0237066D01*
X0405736Y0237002D01*
X0405593Y0236942D01*
X0405450Y0236886D01*
X0405304Y0236833D01*
X0405158Y0236784D01*
X0405010Y0236739D01*
X0404861Y0236698D01*
X0404711Y0236660D01*
X0404560Y0236627D01*
X0404409Y0236597D01*
X0404256Y0236571D01*
X0404103Y0236550D01*
X0403950Y0236532D01*
X0403796Y0236518D01*
X0403642Y0236508D01*
X0403487Y0236502D01*
X0403333Y0236500D01*
X0403179Y0236502D01*
X0403024Y0236508D01*
X0402870Y0236518D01*
X0402716Y0236532D01*
X0402563Y0236550D01*
X0402410Y0236571D01*
X0402257Y0236597D01*
X0402106Y0236627D01*
X0401955Y0236660D01*
X0401805Y0236698D01*
X0401656Y0236739D01*
X0401508Y0236784D01*
X0401362Y0236833D01*
X0401216Y0236886D01*
X0401073Y0236942D01*
X0400930Y0237002D01*
X0400790Y0237066D01*
X0400650Y0237133D01*
X0400513Y0237204D01*
X0400378Y0237278D01*
X0400244Y0237356D01*
X0400113Y0237437D01*
X0399984Y0237522D01*
X0399856Y0237610D01*
X0399732Y0237701D01*
X0399609Y0237795D01*
X0399489Y0237893D01*
X0399372Y0237993D01*
X0399257Y0238097D01*
X0399145Y0238203D01*
X0399036Y0238312D01*
X0398930Y0238424D01*
X0398826Y0238539D01*
X0398726Y0238656D01*
X0398628Y0238776D01*
X0398534Y0238899D01*
X0398443Y0239023D01*
X0398355Y0239151D01*
X0398270Y0239280D01*
X0398189Y0239411D01*
X0398111Y0239545D01*
X0398037Y0239680D01*
X0397966Y0239817D01*
X0397899Y0239957D01*
X0397835Y0240097D01*
X0397775Y0240240D01*
X0397719Y0240383D01*
X0397666Y0240529D01*
X0397617Y0240675D01*
X0397572Y0240823D01*
X0397531Y0240972D01*
X0397493Y0241122D01*
X0397460Y0241273D01*
X0397430Y0241424D01*
X0397404Y0241577D01*
X0397383Y0241730D01*
X0397365Y0241883D01*
X0397351Y0242037D01*
X0397341Y0242191D01*
X0397335Y0242346D01*
X0397333Y0242500D01*
X0489833Y0255000D02*
X0489835Y0255154D01*
X0489841Y0255309D01*
X0489851Y0255463D01*
X0489865Y0255617D01*
X0489883Y0255770D01*
X0489904Y0255923D01*
X0489930Y0256076D01*
X0489960Y0256227D01*
X0489993Y0256378D01*
X0490031Y0256528D01*
X0490072Y0256677D01*
X0490117Y0256825D01*
X0490166Y0256971D01*
X0490219Y0257117D01*
X0490275Y0257260D01*
X0490335Y0257403D01*
X0490399Y0257543D01*
X0490466Y0257683D01*
X0490537Y0257820D01*
X0490611Y0257955D01*
X0490689Y0258089D01*
X0490770Y0258220D01*
X0490855Y0258349D01*
X0490943Y0258477D01*
X0491034Y0258601D01*
X0491128Y0258724D01*
X0491226Y0258844D01*
X0491326Y0258961D01*
X0491430Y0259076D01*
X0491536Y0259188D01*
X0491645Y0259297D01*
X0491757Y0259403D01*
X0491872Y0259507D01*
X0491989Y0259607D01*
X0492109Y0259705D01*
X0492232Y0259799D01*
X0492356Y0259890D01*
X0492484Y0259978D01*
X0492613Y0260063D01*
X0492744Y0260144D01*
X0492878Y0260222D01*
X0493013Y0260296D01*
X0493150Y0260367D01*
X0493290Y0260434D01*
X0493430Y0260498D01*
X0493573Y0260558D01*
X0493716Y0260614D01*
X0493862Y0260667D01*
X0494008Y0260716D01*
X0494156Y0260761D01*
X0494305Y0260802D01*
X0494455Y0260840D01*
X0494606Y0260873D01*
X0494757Y0260903D01*
X0494910Y0260929D01*
X0495063Y0260950D01*
X0495216Y0260968D01*
X0495370Y0260982D01*
X0495524Y0260992D01*
X0495679Y0260998D01*
X0495833Y0261000D01*
X0495987Y0260998D01*
X0496142Y0260992D01*
X0496296Y0260982D01*
X0496450Y0260968D01*
X0496603Y0260950D01*
X0496756Y0260929D01*
X0496909Y0260903D01*
X0497060Y0260873D01*
X0497211Y0260840D01*
X0497361Y0260802D01*
X0497510Y0260761D01*
X0497658Y0260716D01*
X0497804Y0260667D01*
X0497950Y0260614D01*
X0498093Y0260558D01*
X0498236Y0260498D01*
X0498376Y0260434D01*
X0498516Y0260367D01*
X0498653Y0260296D01*
X0498788Y0260222D01*
X0498922Y0260144D01*
X0499053Y0260063D01*
X0499182Y0259978D01*
X0499310Y0259890D01*
X0499434Y0259799D01*
X0499557Y0259705D01*
X0499677Y0259607D01*
X0499794Y0259507D01*
X0499909Y0259403D01*
X0500021Y0259297D01*
X0500130Y0259188D01*
X0500236Y0259076D01*
X0500340Y0258961D01*
X0500440Y0258844D01*
X0500538Y0258724D01*
X0500632Y0258601D01*
X0500723Y0258477D01*
X0500811Y0258349D01*
X0500896Y0258220D01*
X0500977Y0258089D01*
X0501055Y0257955D01*
X0501129Y0257820D01*
X0501200Y0257683D01*
X0501267Y0257543D01*
X0501331Y0257403D01*
X0501391Y0257260D01*
X0501447Y0257117D01*
X0501500Y0256971D01*
X0501549Y0256825D01*
X0501594Y0256677D01*
X0501635Y0256528D01*
X0501673Y0256378D01*
X0501706Y0256227D01*
X0501736Y0256076D01*
X0501762Y0255923D01*
X0501783Y0255770D01*
X0501801Y0255617D01*
X0501815Y0255463D01*
X0501825Y0255309D01*
X0501831Y0255154D01*
X0501833Y0255000D01*
X0501831Y0254846D01*
X0501825Y0254691D01*
X0501815Y0254537D01*
X0501801Y0254383D01*
X0501783Y0254230D01*
X0501762Y0254077D01*
X0501736Y0253924D01*
X0501706Y0253773D01*
X0501673Y0253622D01*
X0501635Y0253472D01*
X0501594Y0253323D01*
X0501549Y0253175D01*
X0501500Y0253029D01*
X0501447Y0252883D01*
X0501391Y0252740D01*
X0501331Y0252597D01*
X0501267Y0252457D01*
X0501200Y0252317D01*
X0501129Y0252180D01*
X0501055Y0252045D01*
X0500977Y0251911D01*
X0500896Y0251780D01*
X0500811Y0251651D01*
X0500723Y0251523D01*
X0500632Y0251399D01*
X0500538Y0251276D01*
X0500440Y0251156D01*
X0500340Y0251039D01*
X0500236Y0250924D01*
X0500130Y0250812D01*
X0500021Y0250703D01*
X0499909Y0250597D01*
X0499794Y0250493D01*
X0499677Y0250393D01*
X0499557Y0250295D01*
X0499434Y0250201D01*
X0499310Y0250110D01*
X0499182Y0250022D01*
X0499053Y0249937D01*
X0498922Y0249856D01*
X0498788Y0249778D01*
X0498653Y0249704D01*
X0498516Y0249633D01*
X0498376Y0249566D01*
X0498236Y0249502D01*
X0498093Y0249442D01*
X0497950Y0249386D01*
X0497804Y0249333D01*
X0497658Y0249284D01*
X0497510Y0249239D01*
X0497361Y0249198D01*
X0497211Y0249160D01*
X0497060Y0249127D01*
X0496909Y0249097D01*
X0496756Y0249071D01*
X0496603Y0249050D01*
X0496450Y0249032D01*
X0496296Y0249018D01*
X0496142Y0249008D01*
X0495987Y0249002D01*
X0495833Y0249000D01*
X0495679Y0249002D01*
X0495524Y0249008D01*
X0495370Y0249018D01*
X0495216Y0249032D01*
X0495063Y0249050D01*
X0494910Y0249071D01*
X0494757Y0249097D01*
X0494606Y0249127D01*
X0494455Y0249160D01*
X0494305Y0249198D01*
X0494156Y0249239D01*
X0494008Y0249284D01*
X0493862Y0249333D01*
X0493716Y0249386D01*
X0493573Y0249442D01*
X0493430Y0249502D01*
X0493290Y0249566D01*
X0493150Y0249633D01*
X0493013Y0249704D01*
X0492878Y0249778D01*
X0492744Y0249856D01*
X0492613Y0249937D01*
X0492484Y0250022D01*
X0492356Y0250110D01*
X0492232Y0250201D01*
X0492109Y0250295D01*
X0491989Y0250393D01*
X0491872Y0250493D01*
X0491757Y0250597D01*
X0491645Y0250703D01*
X0491536Y0250812D01*
X0491430Y0250924D01*
X0491326Y0251039D01*
X0491226Y0251156D01*
X0491128Y0251276D01*
X0491034Y0251399D01*
X0490943Y0251523D01*
X0490855Y0251651D01*
X0490770Y0251780D01*
X0490689Y0251911D01*
X0490611Y0252045D01*
X0490537Y0252180D01*
X0490466Y0252317D01*
X0490399Y0252457D01*
X0490335Y0252597D01*
X0490275Y0252740D01*
X0490219Y0252883D01*
X0490166Y0253029D01*
X0490117Y0253175D01*
X0490072Y0253323D01*
X0490031Y0253472D01*
X0489993Y0253622D01*
X0489960Y0253773D01*
X0489930Y0253924D01*
X0489904Y0254077D01*
X0489883Y0254230D01*
X0489865Y0254383D01*
X0489851Y0254537D01*
X0489841Y0254691D01*
X0489835Y0254846D01*
X0489833Y0255000D01*
X0489833Y0385000D02*
X0489835Y0385154D01*
X0489841Y0385309D01*
X0489851Y0385463D01*
X0489865Y0385617D01*
X0489883Y0385770D01*
X0489904Y0385923D01*
X0489930Y0386076D01*
X0489960Y0386227D01*
X0489993Y0386378D01*
X0490031Y0386528D01*
X0490072Y0386677D01*
X0490117Y0386825D01*
X0490166Y0386971D01*
X0490219Y0387117D01*
X0490275Y0387260D01*
X0490335Y0387403D01*
X0490399Y0387543D01*
X0490466Y0387683D01*
X0490537Y0387820D01*
X0490611Y0387955D01*
X0490689Y0388089D01*
X0490770Y0388220D01*
X0490855Y0388349D01*
X0490943Y0388477D01*
X0491034Y0388601D01*
X0491128Y0388724D01*
X0491226Y0388844D01*
X0491326Y0388961D01*
X0491430Y0389076D01*
X0491536Y0389188D01*
X0491645Y0389297D01*
X0491757Y0389403D01*
X0491872Y0389507D01*
X0491989Y0389607D01*
X0492109Y0389705D01*
X0492232Y0389799D01*
X0492356Y0389890D01*
X0492484Y0389978D01*
X0492613Y0390063D01*
X0492744Y0390144D01*
X0492878Y0390222D01*
X0493013Y0390296D01*
X0493150Y0390367D01*
X0493290Y0390434D01*
X0493430Y0390498D01*
X0493573Y0390558D01*
X0493716Y0390614D01*
X0493862Y0390667D01*
X0494008Y0390716D01*
X0494156Y0390761D01*
X0494305Y0390802D01*
X0494455Y0390840D01*
X0494606Y0390873D01*
X0494757Y0390903D01*
X0494910Y0390929D01*
X0495063Y0390950D01*
X0495216Y0390968D01*
X0495370Y0390982D01*
X0495524Y0390992D01*
X0495679Y0390998D01*
X0495833Y0391000D01*
X0495987Y0390998D01*
X0496142Y0390992D01*
X0496296Y0390982D01*
X0496450Y0390968D01*
X0496603Y0390950D01*
X0496756Y0390929D01*
X0496909Y0390903D01*
X0497060Y0390873D01*
X0497211Y0390840D01*
X0497361Y0390802D01*
X0497510Y0390761D01*
X0497658Y0390716D01*
X0497804Y0390667D01*
X0497950Y0390614D01*
X0498093Y0390558D01*
X0498236Y0390498D01*
X0498376Y0390434D01*
X0498516Y0390367D01*
X0498653Y0390296D01*
X0498788Y0390222D01*
X0498922Y0390144D01*
X0499053Y0390063D01*
X0499182Y0389978D01*
X0499310Y0389890D01*
X0499434Y0389799D01*
X0499557Y0389705D01*
X0499677Y0389607D01*
X0499794Y0389507D01*
X0499909Y0389403D01*
X0500021Y0389297D01*
X0500130Y0389188D01*
X0500236Y0389076D01*
X0500340Y0388961D01*
X0500440Y0388844D01*
X0500538Y0388724D01*
X0500632Y0388601D01*
X0500723Y0388477D01*
X0500811Y0388349D01*
X0500896Y0388220D01*
X0500977Y0388089D01*
X0501055Y0387955D01*
X0501129Y0387820D01*
X0501200Y0387683D01*
X0501267Y0387543D01*
X0501331Y0387403D01*
X0501391Y0387260D01*
X0501447Y0387117D01*
X0501500Y0386971D01*
X0501549Y0386825D01*
X0501594Y0386677D01*
X0501635Y0386528D01*
X0501673Y0386378D01*
X0501706Y0386227D01*
X0501736Y0386076D01*
X0501762Y0385923D01*
X0501783Y0385770D01*
X0501801Y0385617D01*
X0501815Y0385463D01*
X0501825Y0385309D01*
X0501831Y0385154D01*
X0501833Y0385000D01*
X0501831Y0384846D01*
X0501825Y0384691D01*
X0501815Y0384537D01*
X0501801Y0384383D01*
X0501783Y0384230D01*
X0501762Y0384077D01*
X0501736Y0383924D01*
X0501706Y0383773D01*
X0501673Y0383622D01*
X0501635Y0383472D01*
X0501594Y0383323D01*
X0501549Y0383175D01*
X0501500Y0383029D01*
X0501447Y0382883D01*
X0501391Y0382740D01*
X0501331Y0382597D01*
X0501267Y0382457D01*
X0501200Y0382317D01*
X0501129Y0382180D01*
X0501055Y0382045D01*
X0500977Y0381911D01*
X0500896Y0381780D01*
X0500811Y0381651D01*
X0500723Y0381523D01*
X0500632Y0381399D01*
X0500538Y0381276D01*
X0500440Y0381156D01*
X0500340Y0381039D01*
X0500236Y0380924D01*
X0500130Y0380812D01*
X0500021Y0380703D01*
X0499909Y0380597D01*
X0499794Y0380493D01*
X0499677Y0380393D01*
X0499557Y0380295D01*
X0499434Y0380201D01*
X0499310Y0380110D01*
X0499182Y0380022D01*
X0499053Y0379937D01*
X0498922Y0379856D01*
X0498788Y0379778D01*
X0498653Y0379704D01*
X0498516Y0379633D01*
X0498376Y0379566D01*
X0498236Y0379502D01*
X0498093Y0379442D01*
X0497950Y0379386D01*
X0497804Y0379333D01*
X0497658Y0379284D01*
X0497510Y0379239D01*
X0497361Y0379198D01*
X0497211Y0379160D01*
X0497060Y0379127D01*
X0496909Y0379097D01*
X0496756Y0379071D01*
X0496603Y0379050D01*
X0496450Y0379032D01*
X0496296Y0379018D01*
X0496142Y0379008D01*
X0495987Y0379002D01*
X0495833Y0379000D01*
X0495679Y0379002D01*
X0495524Y0379008D01*
X0495370Y0379018D01*
X0495216Y0379032D01*
X0495063Y0379050D01*
X0494910Y0379071D01*
X0494757Y0379097D01*
X0494606Y0379127D01*
X0494455Y0379160D01*
X0494305Y0379198D01*
X0494156Y0379239D01*
X0494008Y0379284D01*
X0493862Y0379333D01*
X0493716Y0379386D01*
X0493573Y0379442D01*
X0493430Y0379502D01*
X0493290Y0379566D01*
X0493150Y0379633D01*
X0493013Y0379704D01*
X0492878Y0379778D01*
X0492744Y0379856D01*
X0492613Y0379937D01*
X0492484Y0380022D01*
X0492356Y0380110D01*
X0492232Y0380201D01*
X0492109Y0380295D01*
X0491989Y0380393D01*
X0491872Y0380493D01*
X0491757Y0380597D01*
X0491645Y0380703D01*
X0491536Y0380812D01*
X0491430Y0380924D01*
X0491326Y0381039D01*
X0491226Y0381156D01*
X0491128Y0381276D01*
X0491034Y0381399D01*
X0490943Y0381523D01*
X0490855Y0381651D01*
X0490770Y0381780D01*
X0490689Y0381911D01*
X0490611Y0382045D01*
X0490537Y0382180D01*
X0490466Y0382317D01*
X0490399Y0382457D01*
X0490335Y0382597D01*
X0490275Y0382740D01*
X0490219Y0382883D01*
X0490166Y0383029D01*
X0490117Y0383175D01*
X0490072Y0383323D01*
X0490031Y0383472D01*
X0489993Y0383622D01*
X0489960Y0383773D01*
X0489930Y0383924D01*
X0489904Y0384077D01*
X0489883Y0384230D01*
X0489865Y0384383D01*
X0489851Y0384537D01*
X0489841Y0384691D01*
X0489835Y0384846D01*
X0489833Y0385000D01*
X0535333Y0456600D02*
X0535335Y0456748D01*
X0535341Y0456896D01*
X0535351Y0457044D01*
X0535365Y0457192D01*
X0535383Y0457339D01*
X0535405Y0457486D01*
X0535431Y0457632D01*
X0535460Y0457777D01*
X0535494Y0457922D01*
X0535532Y0458065D01*
X0535573Y0458208D01*
X0535618Y0458349D01*
X0535668Y0458489D01*
X0535720Y0458627D01*
X0535777Y0458765D01*
X0535837Y0458900D01*
X0535901Y0459034D01*
X0535968Y0459166D01*
X0536039Y0459296D01*
X0536114Y0459425D01*
X0536192Y0459551D01*
X0536273Y0459675D01*
X0536357Y0459797D01*
X0536445Y0459916D01*
X0536536Y0460033D01*
X0536630Y0460148D01*
X0536728Y0460260D01*
X0536828Y0460369D01*
X0536931Y0460476D01*
X0537037Y0460580D01*
X0537145Y0460681D01*
X0537257Y0460779D01*
X0537371Y0460874D01*
X0537487Y0460965D01*
X0537606Y0461054D01*
X0537727Y0461139D01*
X0537851Y0461221D01*
X0537977Y0461300D01*
X0538104Y0461375D01*
X0538234Y0461447D01*
X0538366Y0461516D01*
X0538499Y0461580D01*
X0538634Y0461641D01*
X0538771Y0461699D01*
X0538909Y0461753D01*
X0539049Y0461803D01*
X0539190Y0461849D01*
X0539332Y0461891D01*
X0539475Y0461930D01*
X0539619Y0461964D01*
X0539765Y0461995D01*
X0539910Y0462022D01*
X0540057Y0462045D01*
X0540204Y0462064D01*
X0540352Y0462079D01*
X0540499Y0462090D01*
X0540648Y0462097D01*
X0540796Y0462100D01*
X0540944Y0462099D01*
X0541092Y0462094D01*
X0541240Y0462085D01*
X0541388Y0462072D01*
X0541536Y0462055D01*
X0541682Y0462034D01*
X0541829Y0462009D01*
X0541974Y0461980D01*
X0542119Y0461948D01*
X0542262Y0461911D01*
X0542405Y0461871D01*
X0542547Y0461826D01*
X0542687Y0461778D01*
X0542826Y0461726D01*
X0542963Y0461671D01*
X0543099Y0461611D01*
X0543234Y0461548D01*
X0543366Y0461482D01*
X0543497Y0461412D01*
X0543626Y0461338D01*
X0543752Y0461261D01*
X0543877Y0461181D01*
X0543999Y0461097D01*
X0544120Y0461010D01*
X0544237Y0460920D01*
X0544353Y0460826D01*
X0544465Y0460730D01*
X0544575Y0460631D01*
X0544683Y0460528D01*
X0544787Y0460423D01*
X0544889Y0460315D01*
X0544987Y0460204D01*
X0545083Y0460091D01*
X0545176Y0459975D01*
X0545265Y0459857D01*
X0545351Y0459736D01*
X0545434Y0459613D01*
X0545514Y0459488D01*
X0545590Y0459361D01*
X0545663Y0459231D01*
X0545732Y0459100D01*
X0545797Y0458967D01*
X0545860Y0458833D01*
X0545918Y0458696D01*
X0545973Y0458558D01*
X0546023Y0458419D01*
X0546071Y0458278D01*
X0546114Y0458137D01*
X0546154Y0457994D01*
X0546189Y0457850D01*
X0546221Y0457705D01*
X0546249Y0457559D01*
X0546273Y0457413D01*
X0546293Y0457266D01*
X0546309Y0457118D01*
X0546321Y0456971D01*
X0546329Y0456822D01*
X0546333Y0456674D01*
X0546333Y0456526D01*
X0546329Y0456378D01*
X0546321Y0456229D01*
X0546309Y0456082D01*
X0546293Y0455934D01*
X0546273Y0455787D01*
X0546249Y0455641D01*
X0546221Y0455495D01*
X0546189Y0455350D01*
X0546154Y0455206D01*
X0546114Y0455063D01*
X0546071Y0454922D01*
X0546023Y0454781D01*
X0545973Y0454642D01*
X0545918Y0454504D01*
X0545860Y0454367D01*
X0545797Y0454233D01*
X0545732Y0454100D01*
X0545663Y0453969D01*
X0545590Y0453839D01*
X0545514Y0453712D01*
X0545434Y0453587D01*
X0545351Y0453464D01*
X0545265Y0453343D01*
X0545176Y0453225D01*
X0545083Y0453109D01*
X0544987Y0452996D01*
X0544889Y0452885D01*
X0544787Y0452777D01*
X0544683Y0452672D01*
X0544575Y0452569D01*
X0544465Y0452470D01*
X0544353Y0452374D01*
X0544237Y0452280D01*
X0544120Y0452190D01*
X0543999Y0452103D01*
X0543877Y0452019D01*
X0543752Y0451939D01*
X0543626Y0451862D01*
X0543497Y0451788D01*
X0543366Y0451718D01*
X0543234Y0451652D01*
X0543099Y0451589D01*
X0542963Y0451529D01*
X0542826Y0451474D01*
X0542687Y0451422D01*
X0542547Y0451374D01*
X0542405Y0451329D01*
X0542262Y0451289D01*
X0542119Y0451252D01*
X0541974Y0451220D01*
X0541829Y0451191D01*
X0541682Y0451166D01*
X0541536Y0451145D01*
X0541388Y0451128D01*
X0541240Y0451115D01*
X0541092Y0451106D01*
X0540944Y0451101D01*
X0540796Y0451100D01*
X0540648Y0451103D01*
X0540499Y0451110D01*
X0540352Y0451121D01*
X0540204Y0451136D01*
X0540057Y0451155D01*
X0539910Y0451178D01*
X0539765Y0451205D01*
X0539619Y0451236D01*
X0539475Y0451270D01*
X0539332Y0451309D01*
X0539190Y0451351D01*
X0539049Y0451397D01*
X0538909Y0451447D01*
X0538771Y0451501D01*
X0538634Y0451559D01*
X0538499Y0451620D01*
X0538366Y0451684D01*
X0538234Y0451753D01*
X0538104Y0451825D01*
X0537977Y0451900D01*
X0537851Y0451979D01*
X0537727Y0452061D01*
X0537606Y0452146D01*
X0537487Y0452235D01*
X0537371Y0452326D01*
X0537257Y0452421D01*
X0537145Y0452519D01*
X0537037Y0452620D01*
X0536931Y0452724D01*
X0536828Y0452831D01*
X0536728Y0452940D01*
X0536630Y0453052D01*
X0536536Y0453167D01*
X0536445Y0453284D01*
X0536357Y0453403D01*
X0536273Y0453525D01*
X0536192Y0453649D01*
X0536114Y0453775D01*
X0536039Y0453904D01*
X0535968Y0454034D01*
X0535901Y0454166D01*
X0535837Y0454300D01*
X0535777Y0454435D01*
X0535720Y0454573D01*
X0535668Y0454711D01*
X0535618Y0454851D01*
X0535573Y0454992D01*
X0535532Y0455135D01*
X0535494Y0455278D01*
X0535460Y0455423D01*
X0535431Y0455568D01*
X0535405Y0455714D01*
X0535383Y0455861D01*
X0535365Y0456008D01*
X0535351Y0456156D01*
X0535341Y0456304D01*
X0535335Y0456452D01*
X0535333Y0456600D01*
X0631833Y0460000D02*
X0631835Y0460161D01*
X0631841Y0460321D01*
X0631851Y0460482D01*
X0631865Y0460642D01*
X0631883Y0460802D01*
X0631904Y0460961D01*
X0631930Y0461120D01*
X0631960Y0461278D01*
X0631993Y0461435D01*
X0632031Y0461592D01*
X0632072Y0461747D01*
X0632117Y0461901D01*
X0632166Y0462054D01*
X0632219Y0462206D01*
X0632275Y0462357D01*
X0632336Y0462506D01*
X0632399Y0462654D01*
X0632467Y0462800D01*
X0632538Y0462944D01*
X0632612Y0463086D01*
X0632690Y0463227D01*
X0632772Y0463365D01*
X0632857Y0463502D01*
X0632945Y0463636D01*
X0633037Y0463768D01*
X0633132Y0463898D01*
X0633230Y0464026D01*
X0633331Y0464151D01*
X0633435Y0464273D01*
X0633542Y0464393D01*
X0633652Y0464510D01*
X0633765Y0464625D01*
X0633881Y0464736D01*
X0634000Y0464845D01*
X0634121Y0464950D01*
X0634245Y0465053D01*
X0634371Y0465153D01*
X0634499Y0465249D01*
X0634630Y0465342D01*
X0634764Y0465432D01*
X0634899Y0465519D01*
X0635037Y0465602D01*
X0635176Y0465682D01*
X0635318Y0465758D01*
X0635461Y0465831D01*
X0635606Y0465900D01*
X0635753Y0465966D01*
X0635901Y0466028D01*
X0636051Y0466086D01*
X0636202Y0466141D01*
X0636355Y0466192D01*
X0636509Y0466239D01*
X0636664Y0466282D01*
X0636820Y0466321D01*
X0636976Y0466357D01*
X0637134Y0466388D01*
X0637292Y0466416D01*
X0637451Y0466440D01*
X0637611Y0466460D01*
X0637771Y0466476D01*
X0637931Y0466488D01*
X0638092Y0466496D01*
X0638253Y0466500D01*
X0638413Y0466500D01*
X0638574Y0466496D01*
X0638735Y0466488D01*
X0638895Y0466476D01*
X0639055Y0466460D01*
X0639215Y0466440D01*
X0639374Y0466416D01*
X0639532Y0466388D01*
X0639690Y0466357D01*
X0639846Y0466321D01*
X0640002Y0466282D01*
X0640157Y0466239D01*
X0640311Y0466192D01*
X0640464Y0466141D01*
X0640615Y0466086D01*
X0640765Y0466028D01*
X0640913Y0465966D01*
X0641060Y0465900D01*
X0641205Y0465831D01*
X0641348Y0465758D01*
X0641490Y0465682D01*
X0641629Y0465602D01*
X0641767Y0465519D01*
X0641902Y0465432D01*
X0642036Y0465342D01*
X0642167Y0465249D01*
X0642295Y0465153D01*
X0642421Y0465053D01*
X0642545Y0464950D01*
X0642666Y0464845D01*
X0642785Y0464736D01*
X0642901Y0464625D01*
X0643014Y0464510D01*
X0643124Y0464393D01*
X0643231Y0464273D01*
X0643335Y0464151D01*
X0643436Y0464026D01*
X0643534Y0463898D01*
X0643629Y0463768D01*
X0643721Y0463636D01*
X0643809Y0463502D01*
X0643894Y0463365D01*
X0643976Y0463227D01*
X0644054Y0463086D01*
X0644128Y0462944D01*
X0644199Y0462800D01*
X0644267Y0462654D01*
X0644330Y0462506D01*
X0644391Y0462357D01*
X0644447Y0462206D01*
X0644500Y0462054D01*
X0644549Y0461901D01*
X0644594Y0461747D01*
X0644635Y0461592D01*
X0644673Y0461435D01*
X0644706Y0461278D01*
X0644736Y0461120D01*
X0644762Y0460961D01*
X0644783Y0460802D01*
X0644801Y0460642D01*
X0644815Y0460482D01*
X0644825Y0460321D01*
X0644831Y0460161D01*
X0644833Y0460000D01*
X0644831Y0459839D01*
X0644825Y0459679D01*
X0644815Y0459518D01*
X0644801Y0459358D01*
X0644783Y0459198D01*
X0644762Y0459039D01*
X0644736Y0458880D01*
X0644706Y0458722D01*
X0644673Y0458565D01*
X0644635Y0458408D01*
X0644594Y0458253D01*
X0644549Y0458099D01*
X0644500Y0457946D01*
X0644447Y0457794D01*
X0644391Y0457643D01*
X0644330Y0457494D01*
X0644267Y0457346D01*
X0644199Y0457200D01*
X0644128Y0457056D01*
X0644054Y0456914D01*
X0643976Y0456773D01*
X0643894Y0456635D01*
X0643809Y0456498D01*
X0643721Y0456364D01*
X0643629Y0456232D01*
X0643534Y0456102D01*
X0643436Y0455974D01*
X0643335Y0455849D01*
X0643231Y0455727D01*
X0643124Y0455607D01*
X0643014Y0455490D01*
X0642901Y0455375D01*
X0642785Y0455264D01*
X0642666Y0455155D01*
X0642545Y0455050D01*
X0642421Y0454947D01*
X0642295Y0454847D01*
X0642167Y0454751D01*
X0642036Y0454658D01*
X0641902Y0454568D01*
X0641767Y0454481D01*
X0641629Y0454398D01*
X0641490Y0454318D01*
X0641348Y0454242D01*
X0641205Y0454169D01*
X0641060Y0454100D01*
X0640913Y0454034D01*
X0640765Y0453972D01*
X0640615Y0453914D01*
X0640464Y0453859D01*
X0640311Y0453808D01*
X0640157Y0453761D01*
X0640002Y0453718D01*
X0639846Y0453679D01*
X0639690Y0453643D01*
X0639532Y0453612D01*
X0639374Y0453584D01*
X0639215Y0453560D01*
X0639055Y0453540D01*
X0638895Y0453524D01*
X0638735Y0453512D01*
X0638574Y0453504D01*
X0638413Y0453500D01*
X0638253Y0453500D01*
X0638092Y0453504D01*
X0637931Y0453512D01*
X0637771Y0453524D01*
X0637611Y0453540D01*
X0637451Y0453560D01*
X0637292Y0453584D01*
X0637134Y0453612D01*
X0636976Y0453643D01*
X0636820Y0453679D01*
X0636664Y0453718D01*
X0636509Y0453761D01*
X0636355Y0453808D01*
X0636202Y0453859D01*
X0636051Y0453914D01*
X0635901Y0453972D01*
X0635753Y0454034D01*
X0635606Y0454100D01*
X0635461Y0454169D01*
X0635318Y0454242D01*
X0635176Y0454318D01*
X0635037Y0454398D01*
X0634899Y0454481D01*
X0634764Y0454568D01*
X0634630Y0454658D01*
X0634499Y0454751D01*
X0634371Y0454847D01*
X0634245Y0454947D01*
X0634121Y0455050D01*
X0634000Y0455155D01*
X0633881Y0455264D01*
X0633765Y0455375D01*
X0633652Y0455490D01*
X0633542Y0455607D01*
X0633435Y0455727D01*
X0633331Y0455849D01*
X0633230Y0455974D01*
X0633132Y0456102D01*
X0633037Y0456232D01*
X0632945Y0456364D01*
X0632857Y0456498D01*
X0632772Y0456635D01*
X0632690Y0456773D01*
X0632612Y0456914D01*
X0632538Y0457056D01*
X0632467Y0457200D01*
X0632399Y0457346D01*
X0632336Y0457494D01*
X0632275Y0457643D01*
X0632219Y0457794D01*
X0632166Y0457946D01*
X0632117Y0458099D01*
X0632072Y0458253D01*
X0632031Y0458408D01*
X0631993Y0458565D01*
X0631960Y0458722D01*
X0631930Y0458880D01*
X0631904Y0459039D01*
X0631883Y0459198D01*
X0631865Y0459358D01*
X0631851Y0459518D01*
X0631841Y0459679D01*
X0631835Y0459839D01*
X0631833Y0460000D01*
X0397333Y0397500D02*
X0397335Y0397654D01*
X0397341Y0397809D01*
X0397351Y0397963D01*
X0397365Y0398117D01*
X0397383Y0398270D01*
X0397404Y0398423D01*
X0397430Y0398576D01*
X0397460Y0398727D01*
X0397493Y0398878D01*
X0397531Y0399028D01*
X0397572Y0399177D01*
X0397617Y0399325D01*
X0397666Y0399471D01*
X0397719Y0399617D01*
X0397775Y0399760D01*
X0397835Y0399903D01*
X0397899Y0400043D01*
X0397966Y0400183D01*
X0398037Y0400320D01*
X0398111Y0400455D01*
X0398189Y0400589D01*
X0398270Y0400720D01*
X0398355Y0400849D01*
X0398443Y0400977D01*
X0398534Y0401101D01*
X0398628Y0401224D01*
X0398726Y0401344D01*
X0398826Y0401461D01*
X0398930Y0401576D01*
X0399036Y0401688D01*
X0399145Y0401797D01*
X0399257Y0401903D01*
X0399372Y0402007D01*
X0399489Y0402107D01*
X0399609Y0402205D01*
X0399732Y0402299D01*
X0399856Y0402390D01*
X0399984Y0402478D01*
X0400113Y0402563D01*
X0400244Y0402644D01*
X0400378Y0402722D01*
X0400513Y0402796D01*
X0400650Y0402867D01*
X0400790Y0402934D01*
X0400930Y0402998D01*
X0401073Y0403058D01*
X0401216Y0403114D01*
X0401362Y0403167D01*
X0401508Y0403216D01*
X0401656Y0403261D01*
X0401805Y0403302D01*
X0401955Y0403340D01*
X0402106Y0403373D01*
X0402257Y0403403D01*
X0402410Y0403429D01*
X0402563Y0403450D01*
X0402716Y0403468D01*
X0402870Y0403482D01*
X0403024Y0403492D01*
X0403179Y0403498D01*
X0403333Y0403500D01*
X0403487Y0403498D01*
X0403642Y0403492D01*
X0403796Y0403482D01*
X0403950Y0403468D01*
X0404103Y0403450D01*
X0404256Y0403429D01*
X0404409Y0403403D01*
X0404560Y0403373D01*
X0404711Y0403340D01*
X0404861Y0403302D01*
X0405010Y0403261D01*
X0405158Y0403216D01*
X0405304Y0403167D01*
X0405450Y0403114D01*
X0405593Y0403058D01*
X0405736Y0402998D01*
X0405876Y0402934D01*
X0406016Y0402867D01*
X0406153Y0402796D01*
X0406288Y0402722D01*
X0406422Y0402644D01*
X0406553Y0402563D01*
X0406682Y0402478D01*
X0406810Y0402390D01*
X0406934Y0402299D01*
X0407057Y0402205D01*
X0407177Y0402107D01*
X0407294Y0402007D01*
X0407409Y0401903D01*
X0407521Y0401797D01*
X0407630Y0401688D01*
X0407736Y0401576D01*
X0407840Y0401461D01*
X0407940Y0401344D01*
X0408038Y0401224D01*
X0408132Y0401101D01*
X0408223Y0400977D01*
X0408311Y0400849D01*
X0408396Y0400720D01*
X0408477Y0400589D01*
X0408555Y0400455D01*
X0408629Y0400320D01*
X0408700Y0400183D01*
X0408767Y0400043D01*
X0408831Y0399903D01*
X0408891Y0399760D01*
X0408947Y0399617D01*
X0409000Y0399471D01*
X0409049Y0399325D01*
X0409094Y0399177D01*
X0409135Y0399028D01*
X0409173Y0398878D01*
X0409206Y0398727D01*
X0409236Y0398576D01*
X0409262Y0398423D01*
X0409283Y0398270D01*
X0409301Y0398117D01*
X0409315Y0397963D01*
X0409325Y0397809D01*
X0409331Y0397654D01*
X0409333Y0397500D01*
X0409331Y0397346D01*
X0409325Y0397191D01*
X0409315Y0397037D01*
X0409301Y0396883D01*
X0409283Y0396730D01*
X0409262Y0396577D01*
X0409236Y0396424D01*
X0409206Y0396273D01*
X0409173Y0396122D01*
X0409135Y0395972D01*
X0409094Y0395823D01*
X0409049Y0395675D01*
X0409000Y0395529D01*
X0408947Y0395383D01*
X0408891Y0395240D01*
X0408831Y0395097D01*
X0408767Y0394957D01*
X0408700Y0394817D01*
X0408629Y0394680D01*
X0408555Y0394545D01*
X0408477Y0394411D01*
X0408396Y0394280D01*
X0408311Y0394151D01*
X0408223Y0394023D01*
X0408132Y0393899D01*
X0408038Y0393776D01*
X0407940Y0393656D01*
X0407840Y0393539D01*
X0407736Y0393424D01*
X0407630Y0393312D01*
X0407521Y0393203D01*
X0407409Y0393097D01*
X0407294Y0392993D01*
X0407177Y0392893D01*
X0407057Y0392795D01*
X0406934Y0392701D01*
X0406810Y0392610D01*
X0406682Y0392522D01*
X0406553Y0392437D01*
X0406422Y0392356D01*
X0406288Y0392278D01*
X0406153Y0392204D01*
X0406016Y0392133D01*
X0405876Y0392066D01*
X0405736Y0392002D01*
X0405593Y0391942D01*
X0405450Y0391886D01*
X0405304Y0391833D01*
X0405158Y0391784D01*
X0405010Y0391739D01*
X0404861Y0391698D01*
X0404711Y0391660D01*
X0404560Y0391627D01*
X0404409Y0391597D01*
X0404256Y0391571D01*
X0404103Y0391550D01*
X0403950Y0391532D01*
X0403796Y0391518D01*
X0403642Y0391508D01*
X0403487Y0391502D01*
X0403333Y0391500D01*
X0403179Y0391502D01*
X0403024Y0391508D01*
X0402870Y0391518D01*
X0402716Y0391532D01*
X0402563Y0391550D01*
X0402410Y0391571D01*
X0402257Y0391597D01*
X0402106Y0391627D01*
X0401955Y0391660D01*
X0401805Y0391698D01*
X0401656Y0391739D01*
X0401508Y0391784D01*
X0401362Y0391833D01*
X0401216Y0391886D01*
X0401073Y0391942D01*
X0400930Y0392002D01*
X0400790Y0392066D01*
X0400650Y0392133D01*
X0400513Y0392204D01*
X0400378Y0392278D01*
X0400244Y0392356D01*
X0400113Y0392437D01*
X0399984Y0392522D01*
X0399856Y0392610D01*
X0399732Y0392701D01*
X0399609Y0392795D01*
X0399489Y0392893D01*
X0399372Y0392993D01*
X0399257Y0393097D01*
X0399145Y0393203D01*
X0399036Y0393312D01*
X0398930Y0393424D01*
X0398826Y0393539D01*
X0398726Y0393656D01*
X0398628Y0393776D01*
X0398534Y0393899D01*
X0398443Y0394023D01*
X0398355Y0394151D01*
X0398270Y0394280D01*
X0398189Y0394411D01*
X0398111Y0394545D01*
X0398037Y0394680D01*
X0397966Y0394817D01*
X0397899Y0394957D01*
X0397835Y0395097D01*
X0397775Y0395240D01*
X0397719Y0395383D01*
X0397666Y0395529D01*
X0397617Y0395675D01*
X0397572Y0395823D01*
X0397531Y0395972D01*
X0397493Y0396122D01*
X0397460Y0396273D01*
X0397430Y0396424D01*
X0397404Y0396577D01*
X0397383Y0396730D01*
X0397365Y0396883D01*
X0397351Y0397037D01*
X0397341Y0397191D01*
X0397335Y0397346D01*
X0397333Y0397500D01*
X0304833Y0385000D02*
X0304835Y0385154D01*
X0304841Y0385309D01*
X0304851Y0385463D01*
X0304865Y0385617D01*
X0304883Y0385770D01*
X0304904Y0385923D01*
X0304930Y0386076D01*
X0304960Y0386227D01*
X0304993Y0386378D01*
X0305031Y0386528D01*
X0305072Y0386677D01*
X0305117Y0386825D01*
X0305166Y0386971D01*
X0305219Y0387117D01*
X0305275Y0387260D01*
X0305335Y0387403D01*
X0305399Y0387543D01*
X0305466Y0387683D01*
X0305537Y0387820D01*
X0305611Y0387955D01*
X0305689Y0388089D01*
X0305770Y0388220D01*
X0305855Y0388349D01*
X0305943Y0388477D01*
X0306034Y0388601D01*
X0306128Y0388724D01*
X0306226Y0388844D01*
X0306326Y0388961D01*
X0306430Y0389076D01*
X0306536Y0389188D01*
X0306645Y0389297D01*
X0306757Y0389403D01*
X0306872Y0389507D01*
X0306989Y0389607D01*
X0307109Y0389705D01*
X0307232Y0389799D01*
X0307356Y0389890D01*
X0307484Y0389978D01*
X0307613Y0390063D01*
X0307744Y0390144D01*
X0307878Y0390222D01*
X0308013Y0390296D01*
X0308150Y0390367D01*
X0308290Y0390434D01*
X0308430Y0390498D01*
X0308573Y0390558D01*
X0308716Y0390614D01*
X0308862Y0390667D01*
X0309008Y0390716D01*
X0309156Y0390761D01*
X0309305Y0390802D01*
X0309455Y0390840D01*
X0309606Y0390873D01*
X0309757Y0390903D01*
X0309910Y0390929D01*
X0310063Y0390950D01*
X0310216Y0390968D01*
X0310370Y0390982D01*
X0310524Y0390992D01*
X0310679Y0390998D01*
X0310833Y0391000D01*
X0310987Y0390998D01*
X0311142Y0390992D01*
X0311296Y0390982D01*
X0311450Y0390968D01*
X0311603Y0390950D01*
X0311756Y0390929D01*
X0311909Y0390903D01*
X0312060Y0390873D01*
X0312211Y0390840D01*
X0312361Y0390802D01*
X0312510Y0390761D01*
X0312658Y0390716D01*
X0312804Y0390667D01*
X0312950Y0390614D01*
X0313093Y0390558D01*
X0313236Y0390498D01*
X0313376Y0390434D01*
X0313516Y0390367D01*
X0313653Y0390296D01*
X0313788Y0390222D01*
X0313922Y0390144D01*
X0314053Y0390063D01*
X0314182Y0389978D01*
X0314310Y0389890D01*
X0314434Y0389799D01*
X0314557Y0389705D01*
X0314677Y0389607D01*
X0314794Y0389507D01*
X0314909Y0389403D01*
X0315021Y0389297D01*
X0315130Y0389188D01*
X0315236Y0389076D01*
X0315340Y0388961D01*
X0315440Y0388844D01*
X0315538Y0388724D01*
X0315632Y0388601D01*
X0315723Y0388477D01*
X0315811Y0388349D01*
X0315896Y0388220D01*
X0315977Y0388089D01*
X0316055Y0387955D01*
X0316129Y0387820D01*
X0316200Y0387683D01*
X0316267Y0387543D01*
X0316331Y0387403D01*
X0316391Y0387260D01*
X0316447Y0387117D01*
X0316500Y0386971D01*
X0316549Y0386825D01*
X0316594Y0386677D01*
X0316635Y0386528D01*
X0316673Y0386378D01*
X0316706Y0386227D01*
X0316736Y0386076D01*
X0316762Y0385923D01*
X0316783Y0385770D01*
X0316801Y0385617D01*
X0316815Y0385463D01*
X0316825Y0385309D01*
X0316831Y0385154D01*
X0316833Y0385000D01*
X0316831Y0384846D01*
X0316825Y0384691D01*
X0316815Y0384537D01*
X0316801Y0384383D01*
X0316783Y0384230D01*
X0316762Y0384077D01*
X0316736Y0383924D01*
X0316706Y0383773D01*
X0316673Y0383622D01*
X0316635Y0383472D01*
X0316594Y0383323D01*
X0316549Y0383175D01*
X0316500Y0383029D01*
X0316447Y0382883D01*
X0316391Y0382740D01*
X0316331Y0382597D01*
X0316267Y0382457D01*
X0316200Y0382317D01*
X0316129Y0382180D01*
X0316055Y0382045D01*
X0315977Y0381911D01*
X0315896Y0381780D01*
X0315811Y0381651D01*
X0315723Y0381523D01*
X0315632Y0381399D01*
X0315538Y0381276D01*
X0315440Y0381156D01*
X0315340Y0381039D01*
X0315236Y0380924D01*
X0315130Y0380812D01*
X0315021Y0380703D01*
X0314909Y0380597D01*
X0314794Y0380493D01*
X0314677Y0380393D01*
X0314557Y0380295D01*
X0314434Y0380201D01*
X0314310Y0380110D01*
X0314182Y0380022D01*
X0314053Y0379937D01*
X0313922Y0379856D01*
X0313788Y0379778D01*
X0313653Y0379704D01*
X0313516Y0379633D01*
X0313376Y0379566D01*
X0313236Y0379502D01*
X0313093Y0379442D01*
X0312950Y0379386D01*
X0312804Y0379333D01*
X0312658Y0379284D01*
X0312510Y0379239D01*
X0312361Y0379198D01*
X0312211Y0379160D01*
X0312060Y0379127D01*
X0311909Y0379097D01*
X0311756Y0379071D01*
X0311603Y0379050D01*
X0311450Y0379032D01*
X0311296Y0379018D01*
X0311142Y0379008D01*
X0310987Y0379002D01*
X0310833Y0379000D01*
X0310679Y0379002D01*
X0310524Y0379008D01*
X0310370Y0379018D01*
X0310216Y0379032D01*
X0310063Y0379050D01*
X0309910Y0379071D01*
X0309757Y0379097D01*
X0309606Y0379127D01*
X0309455Y0379160D01*
X0309305Y0379198D01*
X0309156Y0379239D01*
X0309008Y0379284D01*
X0308862Y0379333D01*
X0308716Y0379386D01*
X0308573Y0379442D01*
X0308430Y0379502D01*
X0308290Y0379566D01*
X0308150Y0379633D01*
X0308013Y0379704D01*
X0307878Y0379778D01*
X0307744Y0379856D01*
X0307613Y0379937D01*
X0307484Y0380022D01*
X0307356Y0380110D01*
X0307232Y0380201D01*
X0307109Y0380295D01*
X0306989Y0380393D01*
X0306872Y0380493D01*
X0306757Y0380597D01*
X0306645Y0380703D01*
X0306536Y0380812D01*
X0306430Y0380924D01*
X0306326Y0381039D01*
X0306226Y0381156D01*
X0306128Y0381276D01*
X0306034Y0381399D01*
X0305943Y0381523D01*
X0305855Y0381651D01*
X0305770Y0381780D01*
X0305689Y0381911D01*
X0305611Y0382045D01*
X0305537Y0382180D01*
X0305466Y0382317D01*
X0305399Y0382457D01*
X0305335Y0382597D01*
X0305275Y0382740D01*
X0305219Y0382883D01*
X0305166Y0383029D01*
X0305117Y0383175D01*
X0305072Y0383323D01*
X0305031Y0383472D01*
X0304993Y0383622D01*
X0304960Y0383773D01*
X0304930Y0383924D01*
X0304904Y0384077D01*
X0304883Y0384230D01*
X0304865Y0384383D01*
X0304851Y0384537D01*
X0304841Y0384691D01*
X0304835Y0384846D01*
X0304833Y0385000D01*
X0270333Y0456600D02*
X0270335Y0456748D01*
X0270341Y0456896D01*
X0270351Y0457044D01*
X0270365Y0457192D01*
X0270383Y0457339D01*
X0270405Y0457486D01*
X0270431Y0457632D01*
X0270460Y0457777D01*
X0270494Y0457922D01*
X0270532Y0458065D01*
X0270573Y0458208D01*
X0270618Y0458349D01*
X0270668Y0458489D01*
X0270720Y0458627D01*
X0270777Y0458765D01*
X0270837Y0458900D01*
X0270901Y0459034D01*
X0270968Y0459166D01*
X0271039Y0459296D01*
X0271114Y0459425D01*
X0271192Y0459551D01*
X0271273Y0459675D01*
X0271357Y0459797D01*
X0271445Y0459916D01*
X0271536Y0460033D01*
X0271630Y0460148D01*
X0271728Y0460260D01*
X0271828Y0460369D01*
X0271931Y0460476D01*
X0272037Y0460580D01*
X0272145Y0460681D01*
X0272257Y0460779D01*
X0272371Y0460874D01*
X0272487Y0460965D01*
X0272606Y0461054D01*
X0272727Y0461139D01*
X0272851Y0461221D01*
X0272977Y0461300D01*
X0273104Y0461375D01*
X0273234Y0461447D01*
X0273366Y0461516D01*
X0273499Y0461580D01*
X0273634Y0461641D01*
X0273771Y0461699D01*
X0273909Y0461753D01*
X0274049Y0461803D01*
X0274190Y0461849D01*
X0274332Y0461891D01*
X0274475Y0461930D01*
X0274619Y0461964D01*
X0274765Y0461995D01*
X0274910Y0462022D01*
X0275057Y0462045D01*
X0275204Y0462064D01*
X0275352Y0462079D01*
X0275499Y0462090D01*
X0275648Y0462097D01*
X0275796Y0462100D01*
X0275944Y0462099D01*
X0276092Y0462094D01*
X0276240Y0462085D01*
X0276388Y0462072D01*
X0276536Y0462055D01*
X0276682Y0462034D01*
X0276829Y0462009D01*
X0276974Y0461980D01*
X0277119Y0461948D01*
X0277262Y0461911D01*
X0277405Y0461871D01*
X0277547Y0461826D01*
X0277687Y0461778D01*
X0277826Y0461726D01*
X0277963Y0461671D01*
X0278099Y0461611D01*
X0278234Y0461548D01*
X0278366Y0461482D01*
X0278497Y0461412D01*
X0278626Y0461338D01*
X0278752Y0461261D01*
X0278877Y0461181D01*
X0278999Y0461097D01*
X0279120Y0461010D01*
X0279237Y0460920D01*
X0279353Y0460826D01*
X0279465Y0460730D01*
X0279575Y0460631D01*
X0279683Y0460528D01*
X0279787Y0460423D01*
X0279889Y0460315D01*
X0279987Y0460204D01*
X0280083Y0460091D01*
X0280176Y0459975D01*
X0280265Y0459857D01*
X0280351Y0459736D01*
X0280434Y0459613D01*
X0280514Y0459488D01*
X0280590Y0459361D01*
X0280663Y0459231D01*
X0280732Y0459100D01*
X0280797Y0458967D01*
X0280860Y0458833D01*
X0280918Y0458696D01*
X0280973Y0458558D01*
X0281023Y0458419D01*
X0281071Y0458278D01*
X0281114Y0458137D01*
X0281154Y0457994D01*
X0281189Y0457850D01*
X0281221Y0457705D01*
X0281249Y0457559D01*
X0281273Y0457413D01*
X0281293Y0457266D01*
X0281309Y0457118D01*
X0281321Y0456971D01*
X0281329Y0456822D01*
X0281333Y0456674D01*
X0281333Y0456526D01*
X0281329Y0456378D01*
X0281321Y0456229D01*
X0281309Y0456082D01*
X0281293Y0455934D01*
X0281273Y0455787D01*
X0281249Y0455641D01*
X0281221Y0455495D01*
X0281189Y0455350D01*
X0281154Y0455206D01*
X0281114Y0455063D01*
X0281071Y0454922D01*
X0281023Y0454781D01*
X0280973Y0454642D01*
X0280918Y0454504D01*
X0280860Y0454367D01*
X0280797Y0454233D01*
X0280732Y0454100D01*
X0280663Y0453969D01*
X0280590Y0453839D01*
X0280514Y0453712D01*
X0280434Y0453587D01*
X0280351Y0453464D01*
X0280265Y0453343D01*
X0280176Y0453225D01*
X0280083Y0453109D01*
X0279987Y0452996D01*
X0279889Y0452885D01*
X0279787Y0452777D01*
X0279683Y0452672D01*
X0279575Y0452569D01*
X0279465Y0452470D01*
X0279353Y0452374D01*
X0279237Y0452280D01*
X0279120Y0452190D01*
X0278999Y0452103D01*
X0278877Y0452019D01*
X0278752Y0451939D01*
X0278626Y0451862D01*
X0278497Y0451788D01*
X0278366Y0451718D01*
X0278234Y0451652D01*
X0278099Y0451589D01*
X0277963Y0451529D01*
X0277826Y0451474D01*
X0277687Y0451422D01*
X0277547Y0451374D01*
X0277405Y0451329D01*
X0277262Y0451289D01*
X0277119Y0451252D01*
X0276974Y0451220D01*
X0276829Y0451191D01*
X0276682Y0451166D01*
X0276536Y0451145D01*
X0276388Y0451128D01*
X0276240Y0451115D01*
X0276092Y0451106D01*
X0275944Y0451101D01*
X0275796Y0451100D01*
X0275648Y0451103D01*
X0275499Y0451110D01*
X0275352Y0451121D01*
X0275204Y0451136D01*
X0275057Y0451155D01*
X0274910Y0451178D01*
X0274765Y0451205D01*
X0274619Y0451236D01*
X0274475Y0451270D01*
X0274332Y0451309D01*
X0274190Y0451351D01*
X0274049Y0451397D01*
X0273909Y0451447D01*
X0273771Y0451501D01*
X0273634Y0451559D01*
X0273499Y0451620D01*
X0273366Y0451684D01*
X0273234Y0451753D01*
X0273104Y0451825D01*
X0272977Y0451900D01*
X0272851Y0451979D01*
X0272727Y0452061D01*
X0272606Y0452146D01*
X0272487Y0452235D01*
X0272371Y0452326D01*
X0272257Y0452421D01*
X0272145Y0452519D01*
X0272037Y0452620D01*
X0271931Y0452724D01*
X0271828Y0452831D01*
X0271728Y0452940D01*
X0271630Y0453052D01*
X0271536Y0453167D01*
X0271445Y0453284D01*
X0271357Y0453403D01*
X0271273Y0453525D01*
X0271192Y0453649D01*
X0271114Y0453775D01*
X0271039Y0453904D01*
X0270968Y0454034D01*
X0270901Y0454166D01*
X0270837Y0454300D01*
X0270777Y0454435D01*
X0270720Y0454573D01*
X0270668Y0454711D01*
X0270618Y0454851D01*
X0270573Y0454992D01*
X0270532Y0455135D01*
X0270494Y0455278D01*
X0270460Y0455423D01*
X0270431Y0455568D01*
X0270405Y0455714D01*
X0270383Y0455861D01*
X0270365Y0456008D01*
X0270351Y0456156D01*
X0270341Y0456304D01*
X0270335Y0456452D01*
X0270333Y0456600D01*
X0156833Y0460000D02*
X0156835Y0460161D01*
X0156841Y0460321D01*
X0156851Y0460482D01*
X0156865Y0460642D01*
X0156883Y0460802D01*
X0156904Y0460961D01*
X0156930Y0461120D01*
X0156960Y0461278D01*
X0156993Y0461435D01*
X0157031Y0461592D01*
X0157072Y0461747D01*
X0157117Y0461901D01*
X0157166Y0462054D01*
X0157219Y0462206D01*
X0157275Y0462357D01*
X0157336Y0462506D01*
X0157399Y0462654D01*
X0157467Y0462800D01*
X0157538Y0462944D01*
X0157612Y0463086D01*
X0157690Y0463227D01*
X0157772Y0463365D01*
X0157857Y0463502D01*
X0157945Y0463636D01*
X0158037Y0463768D01*
X0158132Y0463898D01*
X0158230Y0464026D01*
X0158331Y0464151D01*
X0158435Y0464273D01*
X0158542Y0464393D01*
X0158652Y0464510D01*
X0158765Y0464625D01*
X0158881Y0464736D01*
X0159000Y0464845D01*
X0159121Y0464950D01*
X0159245Y0465053D01*
X0159371Y0465153D01*
X0159499Y0465249D01*
X0159630Y0465342D01*
X0159764Y0465432D01*
X0159899Y0465519D01*
X0160037Y0465602D01*
X0160176Y0465682D01*
X0160318Y0465758D01*
X0160461Y0465831D01*
X0160606Y0465900D01*
X0160753Y0465966D01*
X0160901Y0466028D01*
X0161051Y0466086D01*
X0161202Y0466141D01*
X0161355Y0466192D01*
X0161509Y0466239D01*
X0161664Y0466282D01*
X0161820Y0466321D01*
X0161976Y0466357D01*
X0162134Y0466388D01*
X0162292Y0466416D01*
X0162451Y0466440D01*
X0162611Y0466460D01*
X0162771Y0466476D01*
X0162931Y0466488D01*
X0163092Y0466496D01*
X0163253Y0466500D01*
X0163413Y0466500D01*
X0163574Y0466496D01*
X0163735Y0466488D01*
X0163895Y0466476D01*
X0164055Y0466460D01*
X0164215Y0466440D01*
X0164374Y0466416D01*
X0164532Y0466388D01*
X0164690Y0466357D01*
X0164846Y0466321D01*
X0165002Y0466282D01*
X0165157Y0466239D01*
X0165311Y0466192D01*
X0165464Y0466141D01*
X0165615Y0466086D01*
X0165765Y0466028D01*
X0165913Y0465966D01*
X0166060Y0465900D01*
X0166205Y0465831D01*
X0166348Y0465758D01*
X0166490Y0465682D01*
X0166629Y0465602D01*
X0166767Y0465519D01*
X0166902Y0465432D01*
X0167036Y0465342D01*
X0167167Y0465249D01*
X0167295Y0465153D01*
X0167421Y0465053D01*
X0167545Y0464950D01*
X0167666Y0464845D01*
X0167785Y0464736D01*
X0167901Y0464625D01*
X0168014Y0464510D01*
X0168124Y0464393D01*
X0168231Y0464273D01*
X0168335Y0464151D01*
X0168436Y0464026D01*
X0168534Y0463898D01*
X0168629Y0463768D01*
X0168721Y0463636D01*
X0168809Y0463502D01*
X0168894Y0463365D01*
X0168976Y0463227D01*
X0169054Y0463086D01*
X0169128Y0462944D01*
X0169199Y0462800D01*
X0169267Y0462654D01*
X0169330Y0462506D01*
X0169391Y0462357D01*
X0169447Y0462206D01*
X0169500Y0462054D01*
X0169549Y0461901D01*
X0169594Y0461747D01*
X0169635Y0461592D01*
X0169673Y0461435D01*
X0169706Y0461278D01*
X0169736Y0461120D01*
X0169762Y0460961D01*
X0169783Y0460802D01*
X0169801Y0460642D01*
X0169815Y0460482D01*
X0169825Y0460321D01*
X0169831Y0460161D01*
X0169833Y0460000D01*
X0169831Y0459839D01*
X0169825Y0459679D01*
X0169815Y0459518D01*
X0169801Y0459358D01*
X0169783Y0459198D01*
X0169762Y0459039D01*
X0169736Y0458880D01*
X0169706Y0458722D01*
X0169673Y0458565D01*
X0169635Y0458408D01*
X0169594Y0458253D01*
X0169549Y0458099D01*
X0169500Y0457946D01*
X0169447Y0457794D01*
X0169391Y0457643D01*
X0169330Y0457494D01*
X0169267Y0457346D01*
X0169199Y0457200D01*
X0169128Y0457056D01*
X0169054Y0456914D01*
X0168976Y0456773D01*
X0168894Y0456635D01*
X0168809Y0456498D01*
X0168721Y0456364D01*
X0168629Y0456232D01*
X0168534Y0456102D01*
X0168436Y0455974D01*
X0168335Y0455849D01*
X0168231Y0455727D01*
X0168124Y0455607D01*
X0168014Y0455490D01*
X0167901Y0455375D01*
X0167785Y0455264D01*
X0167666Y0455155D01*
X0167545Y0455050D01*
X0167421Y0454947D01*
X0167295Y0454847D01*
X0167167Y0454751D01*
X0167036Y0454658D01*
X0166902Y0454568D01*
X0166767Y0454481D01*
X0166629Y0454398D01*
X0166490Y0454318D01*
X0166348Y0454242D01*
X0166205Y0454169D01*
X0166060Y0454100D01*
X0165913Y0454034D01*
X0165765Y0453972D01*
X0165615Y0453914D01*
X0165464Y0453859D01*
X0165311Y0453808D01*
X0165157Y0453761D01*
X0165002Y0453718D01*
X0164846Y0453679D01*
X0164690Y0453643D01*
X0164532Y0453612D01*
X0164374Y0453584D01*
X0164215Y0453560D01*
X0164055Y0453540D01*
X0163895Y0453524D01*
X0163735Y0453512D01*
X0163574Y0453504D01*
X0163413Y0453500D01*
X0163253Y0453500D01*
X0163092Y0453504D01*
X0162931Y0453512D01*
X0162771Y0453524D01*
X0162611Y0453540D01*
X0162451Y0453560D01*
X0162292Y0453584D01*
X0162134Y0453612D01*
X0161976Y0453643D01*
X0161820Y0453679D01*
X0161664Y0453718D01*
X0161509Y0453761D01*
X0161355Y0453808D01*
X0161202Y0453859D01*
X0161051Y0453914D01*
X0160901Y0453972D01*
X0160753Y0454034D01*
X0160606Y0454100D01*
X0160461Y0454169D01*
X0160318Y0454242D01*
X0160176Y0454318D01*
X0160037Y0454398D01*
X0159899Y0454481D01*
X0159764Y0454568D01*
X0159630Y0454658D01*
X0159499Y0454751D01*
X0159371Y0454847D01*
X0159245Y0454947D01*
X0159121Y0455050D01*
X0159000Y0455155D01*
X0158881Y0455264D01*
X0158765Y0455375D01*
X0158652Y0455490D01*
X0158542Y0455607D01*
X0158435Y0455727D01*
X0158331Y0455849D01*
X0158230Y0455974D01*
X0158132Y0456102D01*
X0158037Y0456232D01*
X0157945Y0456364D01*
X0157857Y0456498D01*
X0157772Y0456635D01*
X0157690Y0456773D01*
X0157612Y0456914D01*
X0157538Y0457056D01*
X0157467Y0457200D01*
X0157399Y0457346D01*
X0157336Y0457494D01*
X0157275Y0457643D01*
X0157219Y0457794D01*
X0157166Y0457946D01*
X0157117Y0458099D01*
X0157072Y0458253D01*
X0157031Y0458408D01*
X0156993Y0458565D01*
X0156960Y0458722D01*
X0156930Y0458880D01*
X0156904Y0459039D01*
X0156883Y0459198D01*
X0156865Y0459358D01*
X0156851Y0459518D01*
X0156841Y0459679D01*
X0156835Y0459839D01*
X0156833Y0460000D01*
X0631833Y0120000D02*
X0631835Y0120161D01*
X0631841Y0120321D01*
X0631851Y0120482D01*
X0631865Y0120642D01*
X0631883Y0120802D01*
X0631904Y0120961D01*
X0631930Y0121120D01*
X0631960Y0121278D01*
X0631993Y0121435D01*
X0632031Y0121592D01*
X0632072Y0121747D01*
X0632117Y0121901D01*
X0632166Y0122054D01*
X0632219Y0122206D01*
X0632275Y0122357D01*
X0632336Y0122506D01*
X0632399Y0122654D01*
X0632467Y0122800D01*
X0632538Y0122944D01*
X0632612Y0123086D01*
X0632690Y0123227D01*
X0632772Y0123365D01*
X0632857Y0123502D01*
X0632945Y0123636D01*
X0633037Y0123768D01*
X0633132Y0123898D01*
X0633230Y0124026D01*
X0633331Y0124151D01*
X0633435Y0124273D01*
X0633542Y0124393D01*
X0633652Y0124510D01*
X0633765Y0124625D01*
X0633881Y0124736D01*
X0634000Y0124845D01*
X0634121Y0124950D01*
X0634245Y0125053D01*
X0634371Y0125153D01*
X0634499Y0125249D01*
X0634630Y0125342D01*
X0634764Y0125432D01*
X0634899Y0125519D01*
X0635037Y0125602D01*
X0635176Y0125682D01*
X0635318Y0125758D01*
X0635461Y0125831D01*
X0635606Y0125900D01*
X0635753Y0125966D01*
X0635901Y0126028D01*
X0636051Y0126086D01*
X0636202Y0126141D01*
X0636355Y0126192D01*
X0636509Y0126239D01*
X0636664Y0126282D01*
X0636820Y0126321D01*
X0636976Y0126357D01*
X0637134Y0126388D01*
X0637292Y0126416D01*
X0637451Y0126440D01*
X0637611Y0126460D01*
X0637771Y0126476D01*
X0637931Y0126488D01*
X0638092Y0126496D01*
X0638253Y0126500D01*
X0638413Y0126500D01*
X0638574Y0126496D01*
X0638735Y0126488D01*
X0638895Y0126476D01*
X0639055Y0126460D01*
X0639215Y0126440D01*
X0639374Y0126416D01*
X0639532Y0126388D01*
X0639690Y0126357D01*
X0639846Y0126321D01*
X0640002Y0126282D01*
X0640157Y0126239D01*
X0640311Y0126192D01*
X0640464Y0126141D01*
X0640615Y0126086D01*
X0640765Y0126028D01*
X0640913Y0125966D01*
X0641060Y0125900D01*
X0641205Y0125831D01*
X0641348Y0125758D01*
X0641490Y0125682D01*
X0641629Y0125602D01*
X0641767Y0125519D01*
X0641902Y0125432D01*
X0642036Y0125342D01*
X0642167Y0125249D01*
X0642295Y0125153D01*
X0642421Y0125053D01*
X0642545Y0124950D01*
X0642666Y0124845D01*
X0642785Y0124736D01*
X0642901Y0124625D01*
X0643014Y0124510D01*
X0643124Y0124393D01*
X0643231Y0124273D01*
X0643335Y0124151D01*
X0643436Y0124026D01*
X0643534Y0123898D01*
X0643629Y0123768D01*
X0643721Y0123636D01*
X0643809Y0123502D01*
X0643894Y0123365D01*
X0643976Y0123227D01*
X0644054Y0123086D01*
X0644128Y0122944D01*
X0644199Y0122800D01*
X0644267Y0122654D01*
X0644330Y0122506D01*
X0644391Y0122357D01*
X0644447Y0122206D01*
X0644500Y0122054D01*
X0644549Y0121901D01*
X0644594Y0121747D01*
X0644635Y0121592D01*
X0644673Y0121435D01*
X0644706Y0121278D01*
X0644736Y0121120D01*
X0644762Y0120961D01*
X0644783Y0120802D01*
X0644801Y0120642D01*
X0644815Y0120482D01*
X0644825Y0120321D01*
X0644831Y0120161D01*
X0644833Y0120000D01*
X0644831Y0119839D01*
X0644825Y0119679D01*
X0644815Y0119518D01*
X0644801Y0119358D01*
X0644783Y0119198D01*
X0644762Y0119039D01*
X0644736Y0118880D01*
X0644706Y0118722D01*
X0644673Y0118565D01*
X0644635Y0118408D01*
X0644594Y0118253D01*
X0644549Y0118099D01*
X0644500Y0117946D01*
X0644447Y0117794D01*
X0644391Y0117643D01*
X0644330Y0117494D01*
X0644267Y0117346D01*
X0644199Y0117200D01*
X0644128Y0117056D01*
X0644054Y0116914D01*
X0643976Y0116773D01*
X0643894Y0116635D01*
X0643809Y0116498D01*
X0643721Y0116364D01*
X0643629Y0116232D01*
X0643534Y0116102D01*
X0643436Y0115974D01*
X0643335Y0115849D01*
X0643231Y0115727D01*
X0643124Y0115607D01*
X0643014Y0115490D01*
X0642901Y0115375D01*
X0642785Y0115264D01*
X0642666Y0115155D01*
X0642545Y0115050D01*
X0642421Y0114947D01*
X0642295Y0114847D01*
X0642167Y0114751D01*
X0642036Y0114658D01*
X0641902Y0114568D01*
X0641767Y0114481D01*
X0641629Y0114398D01*
X0641490Y0114318D01*
X0641348Y0114242D01*
X0641205Y0114169D01*
X0641060Y0114100D01*
X0640913Y0114034D01*
X0640765Y0113972D01*
X0640615Y0113914D01*
X0640464Y0113859D01*
X0640311Y0113808D01*
X0640157Y0113761D01*
X0640002Y0113718D01*
X0639846Y0113679D01*
X0639690Y0113643D01*
X0639532Y0113612D01*
X0639374Y0113584D01*
X0639215Y0113560D01*
X0639055Y0113540D01*
X0638895Y0113524D01*
X0638735Y0113512D01*
X0638574Y0113504D01*
X0638413Y0113500D01*
X0638253Y0113500D01*
X0638092Y0113504D01*
X0637931Y0113512D01*
X0637771Y0113524D01*
X0637611Y0113540D01*
X0637451Y0113560D01*
X0637292Y0113584D01*
X0637134Y0113612D01*
X0636976Y0113643D01*
X0636820Y0113679D01*
X0636664Y0113718D01*
X0636509Y0113761D01*
X0636355Y0113808D01*
X0636202Y0113859D01*
X0636051Y0113914D01*
X0635901Y0113972D01*
X0635753Y0114034D01*
X0635606Y0114100D01*
X0635461Y0114169D01*
X0635318Y0114242D01*
X0635176Y0114318D01*
X0635037Y0114398D01*
X0634899Y0114481D01*
X0634764Y0114568D01*
X0634630Y0114658D01*
X0634499Y0114751D01*
X0634371Y0114847D01*
X0634245Y0114947D01*
X0634121Y0115050D01*
X0634000Y0115155D01*
X0633881Y0115264D01*
X0633765Y0115375D01*
X0633652Y0115490D01*
X0633542Y0115607D01*
X0633435Y0115727D01*
X0633331Y0115849D01*
X0633230Y0115974D01*
X0633132Y0116102D01*
X0633037Y0116232D01*
X0632945Y0116364D01*
X0632857Y0116498D01*
X0632772Y0116635D01*
X0632690Y0116773D01*
X0632612Y0116914D01*
X0632538Y0117056D01*
X0632467Y0117200D01*
X0632399Y0117346D01*
X0632336Y0117494D01*
X0632275Y0117643D01*
X0632219Y0117794D01*
X0632166Y0117946D01*
X0632117Y0118099D01*
X0632072Y0118253D01*
X0632031Y0118408D01*
X0631993Y0118565D01*
X0631960Y0118722D01*
X0631930Y0118880D01*
X0631904Y0119039D01*
X0631883Y0119198D01*
X0631865Y0119358D01*
X0631851Y0119518D01*
X0631841Y0119679D01*
X0631835Y0119839D01*
X0631833Y0120000D01*
M02*
