G75*
%MOIN*%
%OFA0B0*%
%FSLAX25Y25*%
%IPPOS*%
%LPD*%
%AMOC8*
5,1,8,0,0,1.08239X$1,22.5*
%
%ADD10C,0.07400*%
%ADD11R,0.05020X0.05020*%
%ADD12C,0.05020*%
%ADD13R,0.04724X0.05512*%
%ADD14C,0.03400*%
%ADD15C,0.01200*%
%ADD16R,0.02362X0.04724*%
%ADD17R,0.02500X0.05000*%
%ADD18C,0.02400*%
%ADD19C,0.00800*%
%ADD20C,0.02600*%
%ADD21C,0.00700*%
%ADD22C,0.02900*%
%ADD23C,0.02000*%
%ADD24C,0.01500*%
D10*
X0303333Y0285000D03*
X0313333Y0285000D03*
X0323333Y0285000D03*
X0333333Y0285000D03*
X0343333Y0285000D03*
X0353333Y0285000D03*
X0363333Y0285000D03*
X0373333Y0285000D03*
X0383333Y0285000D03*
X0393333Y0285000D03*
X0393333Y0405000D03*
X0383333Y0405000D03*
X0373333Y0405000D03*
X0363333Y0405000D03*
X0353333Y0405000D03*
X0343333Y0405000D03*
X0403333Y0405000D03*
D11*
X0239160Y0484921D03*
D12*
X0239160Y0493583D03*
X0247034Y0493189D03*
X0247034Y0485315D03*
X0254908Y0485315D03*
X0254908Y0493189D03*
X0262782Y0493189D03*
X0262782Y0485315D03*
X0270656Y0485315D03*
X0270656Y0493189D03*
X0278530Y0493189D03*
X0278530Y0485315D03*
X0286404Y0485315D03*
X0286404Y0493189D03*
X0294278Y0493189D03*
X0294278Y0485315D03*
X0302152Y0485315D03*
X0302152Y0493189D03*
X0310026Y0493189D03*
X0310026Y0485315D03*
X0317900Y0485315D03*
X0317900Y0493189D03*
X0325774Y0493189D03*
X0325774Y0485315D03*
X0333648Y0485315D03*
X0333648Y0493189D03*
X0341522Y0493189D03*
X0341522Y0485315D03*
X0349396Y0485315D03*
X0349396Y0493189D03*
X0357270Y0493189D03*
X0357270Y0485315D03*
X0365144Y0485315D03*
X0365144Y0493189D03*
X0373018Y0493189D03*
X0373018Y0485315D03*
X0380892Y0485315D03*
X0380892Y0493189D03*
X0388766Y0493189D03*
X0388766Y0485315D03*
X0396640Y0485315D03*
X0396640Y0493189D03*
X0404514Y0493189D03*
X0404514Y0485315D03*
X0412388Y0485315D03*
X0412388Y0493189D03*
X0420262Y0493189D03*
X0420262Y0485315D03*
X0428136Y0485315D03*
X0428136Y0493189D03*
X0436010Y0493189D03*
X0436010Y0485315D03*
X0443885Y0485315D03*
X0451759Y0485315D03*
X0459633Y0485315D03*
X0459633Y0493189D03*
X0451759Y0493189D03*
X0443885Y0493189D03*
X0467507Y0493583D03*
X0467507Y0484921D03*
D13*
X0434239Y0220000D03*
X0422428Y0220000D03*
X0422428Y0200000D03*
X0434239Y0200000D03*
X0394239Y0200000D03*
X0382428Y0200000D03*
X0382428Y0220000D03*
X0394239Y0220000D03*
D14*
X0350633Y0182700D03*
D15*
X0349733Y0182500D02*
X0303333Y0154900D01*
X0303633Y0152100D01*
X0355333Y0182500D01*
X0364733Y0182500D01*
X0303333Y0144900D01*
X0303633Y0142100D01*
X0370333Y0182500D01*
X0380233Y0182500D01*
X0303333Y0134900D01*
X0303633Y0132100D01*
X0385333Y0182500D01*
X0394733Y0182500D01*
X0303333Y0124900D01*
X0303133Y0124800D01*
X0303133Y0124200D01*
X0303533Y0123200D01*
X0303833Y0122600D01*
X0304033Y0122300D01*
X0400833Y0183000D01*
X0400833Y0177000D01*
X0310733Y0120000D01*
X0315733Y0120000D01*
X0400833Y0173000D01*
X0400833Y0167000D01*
X0325733Y0120000D01*
X0330233Y0120000D01*
X0400833Y0163000D01*
X0400833Y0157000D01*
X0340733Y0120000D01*
X0345233Y0120000D01*
X0400833Y0153000D01*
X0400833Y0147000D01*
X0355733Y0120000D01*
X0360233Y0120000D01*
X0400833Y0143000D01*
X0400833Y0137000D01*
X0370833Y0120000D01*
X0374733Y0120000D01*
X0400833Y0133000D01*
X0400833Y0127000D01*
X0387033Y0120000D01*
X0398333Y0120000D01*
X0399202Y0120076D01*
X0400043Y0120302D01*
X0400833Y0120670D01*
X0401547Y0121170D01*
X0402164Y0121786D01*
X0402663Y0122500D01*
X0403032Y0123290D01*
X0403257Y0124132D01*
X0403333Y0125000D01*
X0403333Y0180000D01*
X0403257Y0180868D01*
X0403032Y0181710D01*
X0402663Y0182500D01*
X0402164Y0183214D01*
X0401547Y0183830D01*
X0400833Y0184330D01*
X0400043Y0184698D01*
X0399202Y0184924D01*
X0398333Y0185000D01*
X0308333Y0185000D01*
X0307465Y0184924D01*
X0306623Y0184698D01*
X0305833Y0184330D01*
X0305119Y0183830D01*
X0304503Y0183214D01*
X0304003Y0182500D01*
X0303635Y0181710D01*
X0303409Y0180868D01*
X0303333Y0180000D01*
X0309333Y0182500D01*
X0321133Y0182500D01*
X0303633Y0174600D01*
X0303633Y0172400D01*
X0325333Y0182500D01*
X0334733Y0182500D01*
X0303333Y0164900D01*
X0303633Y0162100D01*
X0340333Y0182500D01*
X0349733Y0182500D01*
X0348743Y0181911D02*
X0354331Y0181911D01*
X0352293Y0180712D02*
X0346728Y0180712D01*
X0344713Y0179514D02*
X0350255Y0179514D01*
X0348216Y0178315D02*
X0342698Y0178315D01*
X0340683Y0177117D02*
X0346178Y0177117D01*
X0344140Y0175918D02*
X0338668Y0175918D01*
X0336653Y0174720D02*
X0342102Y0174720D01*
X0340063Y0173521D02*
X0334638Y0173521D01*
X0332623Y0172323D02*
X0338025Y0172323D01*
X0335987Y0171124D02*
X0330609Y0171124D01*
X0328594Y0169926D02*
X0333949Y0169926D01*
X0331910Y0168727D02*
X0326579Y0168727D01*
X0324564Y0167529D02*
X0329872Y0167529D01*
X0327834Y0166330D02*
X0322549Y0166330D01*
X0320534Y0165132D02*
X0325795Y0165132D01*
X0323757Y0163933D02*
X0318519Y0163933D01*
X0316504Y0162734D02*
X0321719Y0162734D01*
X0319681Y0161536D02*
X0314489Y0161536D01*
X0312475Y0160337D02*
X0317642Y0160337D01*
X0315604Y0159139D02*
X0310460Y0159139D01*
X0308445Y0157940D02*
X0313566Y0157940D01*
X0311528Y0156742D02*
X0306430Y0156742D01*
X0304415Y0155543D02*
X0309489Y0155543D01*
X0307451Y0154345D02*
X0303393Y0154345D01*
X0303521Y0153146D02*
X0305413Y0153146D01*
X0308971Y0148352D02*
X0313956Y0148352D01*
X0311977Y0147154D02*
X0307014Y0147154D01*
X0305057Y0145955D02*
X0309998Y0145955D01*
X0308020Y0144757D02*
X0303349Y0144757D01*
X0303477Y0143558D02*
X0306041Y0143558D01*
X0304062Y0142360D02*
X0303605Y0142360D01*
X0307640Y0137566D02*
X0312493Y0137566D01*
X0310551Y0136367D02*
X0305704Y0136367D01*
X0303767Y0135169D02*
X0308608Y0135169D01*
X0306665Y0133970D02*
X0303433Y0133970D01*
X0303561Y0132772D02*
X0304722Y0132772D01*
X0308217Y0127978D02*
X0313088Y0127978D01*
X0314999Y0129176D02*
X0310119Y0129176D01*
X0312021Y0130375D02*
X0316910Y0130375D01*
X0318822Y0131573D02*
X0313922Y0131573D01*
X0315824Y0132772D02*
X0320733Y0132772D01*
X0322644Y0133970D02*
X0317726Y0133970D01*
X0319628Y0135169D02*
X0324555Y0135169D01*
X0326467Y0136367D02*
X0321530Y0136367D01*
X0323431Y0137566D02*
X0328378Y0137566D01*
X0330289Y0138764D02*
X0325333Y0138764D01*
X0327235Y0139963D02*
X0332201Y0139963D01*
X0334112Y0141161D02*
X0329137Y0141161D01*
X0331039Y0142360D02*
X0336023Y0142360D01*
X0337935Y0143558D02*
X0332940Y0143558D01*
X0334842Y0144757D02*
X0339846Y0144757D01*
X0341757Y0145955D02*
X0336744Y0145955D01*
X0338646Y0147154D02*
X0343668Y0147154D01*
X0345580Y0148352D02*
X0340548Y0148352D01*
X0342449Y0149551D02*
X0347491Y0149551D01*
X0349402Y0150749D02*
X0344351Y0150749D01*
X0346253Y0151948D02*
X0351314Y0151948D01*
X0353225Y0153146D02*
X0348155Y0153146D01*
X0350057Y0154345D02*
X0355136Y0154345D01*
X0357048Y0155543D02*
X0351959Y0155543D01*
X0353860Y0156742D02*
X0358959Y0156742D01*
X0360870Y0157940D02*
X0355762Y0157940D01*
X0357664Y0159139D02*
X0362781Y0159139D01*
X0364693Y0160337D02*
X0359566Y0160337D01*
X0361468Y0161536D02*
X0366604Y0161536D01*
X0368515Y0162734D02*
X0363369Y0162734D01*
X0365271Y0163933D02*
X0370427Y0163933D01*
X0372338Y0165132D02*
X0367173Y0165132D01*
X0369075Y0166330D02*
X0374249Y0166330D01*
X0376161Y0167529D02*
X0370977Y0167529D01*
X0372878Y0168727D02*
X0378072Y0168727D01*
X0379983Y0169926D02*
X0374780Y0169926D01*
X0376682Y0171124D02*
X0381894Y0171124D01*
X0383806Y0172323D02*
X0378584Y0172323D01*
X0380486Y0173521D02*
X0385717Y0173521D01*
X0387628Y0174720D02*
X0382387Y0174720D01*
X0384289Y0175918D02*
X0389540Y0175918D01*
X0391451Y0177117D02*
X0386191Y0177117D01*
X0388093Y0178315D02*
X0393362Y0178315D01*
X0395274Y0179514D02*
X0389995Y0179514D01*
X0391896Y0180712D02*
X0397185Y0180712D01*
X0399096Y0181911D02*
X0393798Y0181911D01*
X0400833Y0181911D02*
X0402938Y0181911D01*
X0403271Y0180712D02*
X0400833Y0180712D01*
X0400833Y0179514D02*
X0403333Y0179514D01*
X0403333Y0178315D02*
X0400833Y0178315D01*
X0400833Y0177117D02*
X0403333Y0177117D01*
X0403333Y0175918D02*
X0399123Y0175918D01*
X0397229Y0174720D02*
X0403333Y0174720D01*
X0403333Y0173521D02*
X0395334Y0173521D01*
X0393440Y0172323D02*
X0399746Y0172323D01*
X0400833Y0172323D02*
X0403333Y0172323D01*
X0403333Y0171124D02*
X0400833Y0171124D01*
X0400833Y0169926D02*
X0403333Y0169926D01*
X0403333Y0168727D02*
X0400833Y0168727D01*
X0400833Y0167529D02*
X0403333Y0167529D01*
X0403333Y0166330D02*
X0399763Y0166330D01*
X0397848Y0165132D02*
X0403333Y0165132D01*
X0403333Y0163933D02*
X0395933Y0163933D01*
X0394018Y0162734D02*
X0400397Y0162734D01*
X0400833Y0162734D02*
X0403333Y0162734D01*
X0403333Y0161536D02*
X0400833Y0161536D01*
X0400833Y0160337D02*
X0403333Y0160337D01*
X0403333Y0159139D02*
X0400833Y0159139D01*
X0400833Y0157940D02*
X0403333Y0157940D01*
X0403333Y0156742D02*
X0400414Y0156742D01*
X0398467Y0155543D02*
X0403333Y0155543D01*
X0403333Y0154345D02*
X0396521Y0154345D01*
X0394574Y0153146D02*
X0403333Y0153146D01*
X0403333Y0151948D02*
X0400833Y0151948D01*
X0400833Y0150749D02*
X0403333Y0150749D01*
X0403333Y0149551D02*
X0400833Y0149551D01*
X0400833Y0148352D02*
X0403333Y0148352D01*
X0403333Y0147154D02*
X0400833Y0147154D01*
X0399088Y0145955D02*
X0403333Y0145955D01*
X0403333Y0144757D02*
X0397086Y0144757D01*
X0395084Y0143558D02*
X0403333Y0143558D01*
X0403333Y0142360D02*
X0400833Y0142360D01*
X0399703Y0142360D02*
X0393082Y0142360D01*
X0391081Y0141161D02*
X0397588Y0141161D01*
X0395472Y0139963D02*
X0389079Y0139963D01*
X0387077Y0138764D02*
X0393356Y0138764D01*
X0391241Y0137566D02*
X0385075Y0137566D01*
X0383073Y0136367D02*
X0389125Y0136367D01*
X0387009Y0135169D02*
X0381071Y0135169D01*
X0379069Y0133970D02*
X0384894Y0133970D01*
X0382778Y0132772D02*
X0377067Y0132772D01*
X0375065Y0131573D02*
X0380663Y0131573D01*
X0378547Y0130375D02*
X0373063Y0130375D01*
X0371061Y0129176D02*
X0376431Y0129176D01*
X0374316Y0127978D02*
X0369059Y0127978D01*
X0367057Y0126779D02*
X0372200Y0126779D01*
X0370084Y0125581D02*
X0365055Y0125581D01*
X0363053Y0124382D02*
X0367969Y0124382D01*
X0365853Y0123184D02*
X0361051Y0123184D01*
X0359049Y0121985D02*
X0363737Y0121985D01*
X0361622Y0120787D02*
X0357047Y0120787D01*
X0354636Y0125581D02*
X0349798Y0125581D01*
X0351745Y0126779D02*
X0356655Y0126779D01*
X0358674Y0127978D02*
X0353692Y0127978D01*
X0355638Y0129176D02*
X0360694Y0129176D01*
X0362713Y0130375D02*
X0357585Y0130375D01*
X0359532Y0131573D02*
X0364732Y0131573D01*
X0366752Y0132772D02*
X0361479Y0132772D01*
X0363426Y0133970D02*
X0368771Y0133970D01*
X0370790Y0135169D02*
X0365372Y0135169D01*
X0367319Y0136367D02*
X0372810Y0136367D01*
X0374829Y0137566D02*
X0369266Y0137566D01*
X0371213Y0138764D02*
X0376848Y0138764D01*
X0378868Y0139963D02*
X0373159Y0139963D01*
X0375106Y0141161D02*
X0380887Y0141161D01*
X0382906Y0142360D02*
X0377053Y0142360D01*
X0379000Y0143558D02*
X0384926Y0143558D01*
X0386945Y0144757D02*
X0380946Y0144757D01*
X0382893Y0145955D02*
X0388964Y0145955D01*
X0390983Y0147154D02*
X0384840Y0147154D01*
X0386787Y0148352D02*
X0393003Y0148352D01*
X0395022Y0149551D02*
X0388734Y0149551D01*
X0390680Y0150749D02*
X0397041Y0150749D01*
X0399061Y0151948D02*
X0392627Y0151948D01*
X0390558Y0156742D02*
X0384442Y0156742D01*
X0382527Y0155543D02*
X0388591Y0155543D01*
X0386623Y0154345D02*
X0380612Y0154345D01*
X0378697Y0153146D02*
X0384655Y0153146D01*
X0382687Y0151948D02*
X0376782Y0151948D01*
X0374867Y0150749D02*
X0380720Y0150749D01*
X0378752Y0149551D02*
X0372952Y0149551D01*
X0371037Y0148352D02*
X0376784Y0148352D01*
X0374816Y0147154D02*
X0369122Y0147154D01*
X0367207Y0145955D02*
X0372848Y0145955D01*
X0370881Y0144757D02*
X0365292Y0144757D01*
X0363377Y0143558D02*
X0368913Y0143558D01*
X0366945Y0142360D02*
X0361461Y0142360D01*
X0359546Y0141161D02*
X0364977Y0141161D01*
X0363009Y0139963D02*
X0357631Y0139963D01*
X0355716Y0138764D02*
X0361042Y0138764D01*
X0359074Y0137566D02*
X0353801Y0137566D01*
X0351886Y0136367D02*
X0357106Y0136367D01*
X0355138Y0135169D02*
X0349971Y0135169D01*
X0348056Y0133970D02*
X0353170Y0133970D01*
X0351203Y0132772D02*
X0346141Y0132772D01*
X0344226Y0131573D02*
X0349235Y0131573D01*
X0347267Y0130375D02*
X0342311Y0130375D01*
X0340396Y0129176D02*
X0345299Y0129176D01*
X0343332Y0127978D02*
X0338481Y0127978D01*
X0336566Y0126779D02*
X0341364Y0126779D01*
X0339396Y0125581D02*
X0334650Y0125581D01*
X0332735Y0124382D02*
X0337428Y0124382D01*
X0335460Y0123184D02*
X0330820Y0123184D01*
X0328905Y0121985D02*
X0333493Y0121985D01*
X0331525Y0120787D02*
X0326990Y0120787D01*
X0324694Y0125581D02*
X0319555Y0125581D01*
X0321449Y0126779D02*
X0326618Y0126779D01*
X0328543Y0127978D02*
X0323344Y0127978D01*
X0325238Y0129176D02*
X0330467Y0129176D01*
X0332392Y0130375D02*
X0327133Y0130375D01*
X0329027Y0131573D02*
X0334316Y0131573D01*
X0336240Y0132772D02*
X0330922Y0132772D01*
X0332816Y0133970D02*
X0338165Y0133970D01*
X0340089Y0135169D02*
X0334711Y0135169D01*
X0336605Y0136367D02*
X0342014Y0136367D01*
X0343938Y0137566D02*
X0338500Y0137566D01*
X0340394Y0138764D02*
X0345862Y0138764D01*
X0347787Y0139963D02*
X0342289Y0139963D01*
X0344183Y0141161D02*
X0349711Y0141161D01*
X0351636Y0142360D02*
X0346078Y0142360D01*
X0347972Y0143558D02*
X0353560Y0143558D01*
X0355484Y0144757D02*
X0349866Y0144757D01*
X0351761Y0145955D02*
X0357409Y0145955D01*
X0359333Y0147154D02*
X0353655Y0147154D01*
X0355550Y0148352D02*
X0361258Y0148352D01*
X0363182Y0149551D02*
X0357444Y0149551D01*
X0359339Y0150749D02*
X0365106Y0150749D01*
X0367031Y0151948D02*
X0361233Y0151948D01*
X0363128Y0153146D02*
X0368955Y0153146D01*
X0370880Y0154345D02*
X0365022Y0154345D01*
X0366917Y0155543D02*
X0372804Y0155543D01*
X0374728Y0156742D02*
X0368811Y0156742D01*
X0370706Y0157940D02*
X0376653Y0157940D01*
X0378577Y0159139D02*
X0372600Y0159139D01*
X0374495Y0160337D02*
X0380502Y0160337D01*
X0382426Y0161536D02*
X0376389Y0161536D01*
X0378284Y0162734D02*
X0384350Y0162734D01*
X0386275Y0163933D02*
X0380178Y0163933D01*
X0382073Y0165132D02*
X0388199Y0165132D01*
X0390124Y0166330D02*
X0383967Y0166330D01*
X0385862Y0167529D02*
X0392048Y0167529D01*
X0393972Y0168727D02*
X0387756Y0168727D01*
X0389651Y0169926D02*
X0395897Y0169926D01*
X0397821Y0171124D02*
X0391545Y0171124D01*
X0392103Y0161536D02*
X0398430Y0161536D01*
X0396462Y0160337D02*
X0390187Y0160337D01*
X0388272Y0159139D02*
X0394494Y0159139D01*
X0392526Y0157940D02*
X0386357Y0157940D01*
X0374664Y0175918D02*
X0369600Y0175918D01*
X0367664Y0174720D02*
X0372721Y0174720D01*
X0370778Y0173521D02*
X0365728Y0173521D01*
X0363791Y0172323D02*
X0368835Y0172323D01*
X0366893Y0171124D02*
X0361855Y0171124D01*
X0359919Y0169926D02*
X0364950Y0169926D01*
X0363007Y0168727D02*
X0357983Y0168727D01*
X0356046Y0167529D02*
X0361064Y0167529D01*
X0359121Y0166330D02*
X0354110Y0166330D01*
X0352174Y0165132D02*
X0357178Y0165132D01*
X0355236Y0163933D02*
X0350237Y0163933D01*
X0348301Y0162734D02*
X0353293Y0162734D01*
X0351350Y0161536D02*
X0346365Y0161536D01*
X0344429Y0160337D02*
X0349407Y0160337D01*
X0347464Y0159139D02*
X0342493Y0159139D01*
X0340556Y0157940D02*
X0345522Y0157940D01*
X0343579Y0156742D02*
X0338620Y0156742D01*
X0336684Y0155543D02*
X0341636Y0155543D01*
X0339693Y0154345D02*
X0334748Y0154345D01*
X0332811Y0153146D02*
X0337750Y0153146D01*
X0335807Y0151948D02*
X0330875Y0151948D01*
X0328939Y0150749D02*
X0333865Y0150749D01*
X0331922Y0149551D02*
X0327002Y0149551D01*
X0325066Y0148352D02*
X0329979Y0148352D01*
X0328036Y0147154D02*
X0323130Y0147154D01*
X0321194Y0145955D02*
X0326093Y0145955D01*
X0324150Y0144757D02*
X0319257Y0144757D01*
X0317321Y0143558D02*
X0322208Y0143558D01*
X0320265Y0142360D02*
X0315385Y0142360D01*
X0313449Y0141161D02*
X0318322Y0141161D01*
X0316379Y0139963D02*
X0311513Y0139963D01*
X0309576Y0138764D02*
X0314436Y0138764D01*
X0315935Y0149551D02*
X0310928Y0149551D01*
X0312885Y0150749D02*
X0317913Y0150749D01*
X0319892Y0151948D02*
X0314842Y0151948D01*
X0316800Y0153146D02*
X0321871Y0153146D01*
X0323850Y0154345D02*
X0318757Y0154345D01*
X0320714Y0155543D02*
X0325828Y0155543D01*
X0327807Y0156742D02*
X0322671Y0156742D01*
X0324628Y0157940D02*
X0329786Y0157940D01*
X0331764Y0159139D02*
X0326585Y0159139D01*
X0328542Y0160337D02*
X0333743Y0160337D01*
X0335722Y0161536D02*
X0330500Y0161536D01*
X0332457Y0162734D02*
X0337701Y0162734D01*
X0339679Y0163933D02*
X0334414Y0163933D01*
X0336371Y0165132D02*
X0341658Y0165132D01*
X0343637Y0166330D02*
X0338328Y0166330D01*
X0340285Y0167529D02*
X0345616Y0167529D01*
X0347594Y0168727D02*
X0342242Y0168727D01*
X0344200Y0169926D02*
X0349573Y0169926D01*
X0351552Y0171124D02*
X0346157Y0171124D01*
X0348114Y0172323D02*
X0353531Y0172323D01*
X0355509Y0173521D02*
X0350071Y0173521D01*
X0352028Y0174720D02*
X0357488Y0174720D01*
X0359467Y0175918D02*
X0353985Y0175918D01*
X0355942Y0177117D02*
X0361445Y0177117D01*
X0363424Y0178315D02*
X0357900Y0178315D01*
X0359857Y0179514D02*
X0365403Y0179514D01*
X0367382Y0180712D02*
X0361814Y0180712D01*
X0363771Y0181911D02*
X0369360Y0181911D01*
X0371536Y0177117D02*
X0376607Y0177117D01*
X0378550Y0178315D02*
X0373473Y0178315D01*
X0375409Y0179514D02*
X0380492Y0179514D01*
X0382435Y0180712D02*
X0377345Y0180712D01*
X0379281Y0181911D02*
X0384378Y0181911D01*
X0400865Y0184308D02*
X0305801Y0184308D01*
X0304430Y0183109D02*
X0402237Y0183109D01*
X0403333Y0141161D02*
X0400833Y0141161D01*
X0400833Y0139963D02*
X0403333Y0139963D01*
X0403333Y0138764D02*
X0400833Y0138764D01*
X0400833Y0137566D02*
X0403333Y0137566D01*
X0403333Y0136367D02*
X0399717Y0136367D01*
X0397602Y0135169D02*
X0403333Y0135169D01*
X0403333Y0133970D02*
X0395487Y0133970D01*
X0393372Y0132772D02*
X0400375Y0132772D01*
X0400833Y0132772D02*
X0403333Y0132772D01*
X0403333Y0131573D02*
X0400833Y0131573D01*
X0400833Y0130375D02*
X0403333Y0130375D01*
X0403333Y0129176D02*
X0400833Y0129176D01*
X0400833Y0127978D02*
X0403333Y0127978D01*
X0403333Y0126779D02*
X0400398Y0126779D01*
X0398035Y0125581D02*
X0403333Y0125581D01*
X0403279Y0124382D02*
X0395672Y0124382D01*
X0393310Y0123184D02*
X0402982Y0123184D01*
X0402303Y0121985D02*
X0390947Y0121985D01*
X0388584Y0120787D02*
X0401000Y0120787D01*
X0397969Y0131573D02*
X0391257Y0131573D01*
X0389142Y0130375D02*
X0395563Y0130375D01*
X0393156Y0129176D02*
X0387027Y0129176D01*
X0384912Y0127978D02*
X0390750Y0127978D01*
X0388344Y0126779D02*
X0382797Y0126779D01*
X0380682Y0125581D02*
X0385938Y0125581D01*
X0383531Y0124382D02*
X0378567Y0124382D01*
X0378719Y0121985D02*
X0374336Y0121985D01*
X0376313Y0120787D02*
X0372221Y0120787D01*
X0376452Y0123184D02*
X0381125Y0123184D01*
X0352617Y0124382D02*
X0347851Y0124382D01*
X0345905Y0123184D02*
X0350597Y0123184D01*
X0348578Y0121985D02*
X0343958Y0121985D01*
X0342011Y0120787D02*
X0346559Y0120787D01*
X0322770Y0124382D02*
X0317660Y0124382D01*
X0315766Y0123184D02*
X0320845Y0123184D01*
X0318921Y0121985D02*
X0313871Y0121985D01*
X0311977Y0120787D02*
X0316996Y0120787D01*
X0311176Y0126779D02*
X0306315Y0126779D01*
X0304413Y0125581D02*
X0309265Y0125581D01*
X0307354Y0124382D02*
X0303133Y0124382D01*
X0303542Y0123184D02*
X0305442Y0123184D01*
X0304775Y0162734D02*
X0303565Y0162734D01*
X0303437Y0163933D02*
X0306931Y0163933D01*
X0309087Y0165132D02*
X0303746Y0165132D01*
X0305885Y0166330D02*
X0311243Y0166330D01*
X0313399Y0167529D02*
X0308023Y0167529D01*
X0310161Y0168727D02*
X0315556Y0168727D01*
X0317712Y0169926D02*
X0312299Y0169926D01*
X0314438Y0171124D02*
X0319868Y0171124D01*
X0322024Y0172323D02*
X0316576Y0172323D01*
X0318714Y0173521D02*
X0324180Y0173521D01*
X0326336Y0174720D02*
X0320852Y0174720D01*
X0322991Y0175918D02*
X0328492Y0175918D01*
X0330649Y0177117D02*
X0325129Y0177117D01*
X0327267Y0178315D02*
X0332805Y0178315D01*
X0334961Y0179514D02*
X0329405Y0179514D01*
X0331544Y0180712D02*
X0337117Y0180712D01*
X0339273Y0181911D02*
X0333682Y0181911D01*
X0324067Y0181911D02*
X0319828Y0181911D01*
X0321492Y0180712D02*
X0317173Y0180712D01*
X0318917Y0179514D02*
X0314518Y0179514D01*
X0316342Y0178315D02*
X0311863Y0178315D01*
X0313767Y0177117D02*
X0309208Y0177117D01*
X0311192Y0175918D02*
X0306553Y0175918D01*
X0308617Y0174720D02*
X0303898Y0174720D01*
X0303633Y0173521D02*
X0306042Y0173521D01*
X0305043Y0180712D02*
X0303396Y0180712D01*
X0303728Y0181911D02*
X0307919Y0181911D01*
D16*
X0460833Y0418976D03*
X0465833Y0418976D03*
X0470833Y0418976D03*
X0475833Y0418976D03*
X0480833Y0418976D03*
X0485833Y0418976D03*
X0490833Y0418976D03*
X0490833Y0441024D03*
X0485833Y0441024D03*
X0480833Y0441024D03*
X0475833Y0441024D03*
X0470833Y0441024D03*
X0465833Y0441024D03*
X0460833Y0441024D03*
D17*
X0476733Y0455000D03*
X0479933Y0455000D03*
X0486733Y0455000D03*
X0489933Y0455000D03*
X0474933Y0405000D03*
X0471733Y0405000D03*
X0464933Y0405000D03*
X0461733Y0405000D03*
D18*
X0363333Y0297500D02*
X0370833Y0290000D01*
X0370833Y0287500D01*
X0373333Y0285000D01*
X0363333Y0297500D02*
X0363333Y0405000D01*
X0254908Y0485315D02*
X0255833Y0487500D01*
X0255833Y0492500D01*
X0254908Y0493189D01*
D19*
X0210433Y0495000D02*
X0210433Y0124917D01*
X0211099Y0126070D01*
X0211099Y0126070D01*
X0211099Y0126070D01*
X0213612Y0128178D01*
X0213612Y0128178D01*
X0216693Y0129300D01*
X0219973Y0129300D01*
X0223055Y0128178D01*
X0223055Y0128178D01*
X0225567Y0126070D01*
X0225567Y0126070D01*
X0227207Y0123230D01*
X0227207Y0123230D01*
X0227777Y0120000D01*
X0227777Y0120000D01*
X0227207Y0116770D01*
X0225567Y0113930D01*
X0225567Y0113930D01*
X0223387Y0112100D01*
X0483280Y0112100D01*
X0481099Y0113930D01*
X0481099Y0113930D01*
X0479459Y0116770D01*
X0479459Y0116770D01*
X0478890Y0120000D01*
X0478890Y0120000D01*
X0479459Y0123230D01*
X0479459Y0123230D01*
X0481099Y0126070D01*
X0481099Y0126070D01*
X0481099Y0126070D01*
X0483612Y0128178D01*
X0483612Y0128178D01*
X0486693Y0129300D01*
X0489973Y0129300D01*
X0493055Y0128178D01*
X0493055Y0128178D01*
X0495567Y0126070D01*
X0495567Y0126070D01*
X0496233Y0124917D01*
X0496233Y0409223D01*
X0455933Y0368923D01*
X0455933Y0206983D01*
X0455537Y0206027D01*
X0438037Y0188527D01*
X0437306Y0187796D01*
X0436351Y0187400D01*
X0353433Y0187400D01*
X0353433Y0187200D01*
X0397533Y0187200D01*
X0397617Y0187271D01*
X0398429Y0187200D01*
X0398744Y0187200D01*
X0398891Y0187285D01*
X0399208Y0187200D01*
X0399245Y0187200D01*
X0399258Y0187186D01*
X0399585Y0187099D01*
X0400086Y0187055D01*
X0400147Y0187077D01*
X0400221Y0187043D01*
X0400301Y0187036D01*
X0400343Y0186986D01*
X0400799Y0186774D01*
X0401284Y0186644D01*
X0401349Y0186655D01*
X0401415Y0186609D01*
X0401493Y0186588D01*
X0401526Y0186531D01*
X0401938Y0186243D01*
X0402393Y0186030D01*
X0402459Y0186030D01*
X0402516Y0185973D01*
X0402589Y0185939D01*
X0402611Y0185877D01*
X0402967Y0185522D01*
X0403379Y0185234D01*
X0403443Y0185222D01*
X0403489Y0185156D01*
X0403556Y0185110D01*
X0403567Y0185045D01*
X0403855Y0184633D01*
X0404211Y0184278D01*
X0404272Y0184256D01*
X0404306Y0184182D01*
X0404364Y0184125D01*
X0404364Y0184060D01*
X0404576Y0183604D01*
X0404864Y0183192D01*
X0404921Y0183160D01*
X0404942Y0183082D01*
X0404988Y0183015D01*
X0404977Y0182951D01*
X0405107Y0182465D01*
X0405319Y0182010D01*
X0405370Y0181968D01*
X0405377Y0181887D01*
X0405411Y0181814D01*
X0405388Y0181752D01*
X0405432Y0181252D01*
X0405520Y0180925D01*
X0405533Y0180911D01*
X0405533Y0180874D01*
X0405618Y0180557D01*
X0405533Y0180410D01*
X0405533Y0180096D01*
X0405604Y0179284D01*
X0405533Y0179199D01*
X0405533Y0125801D01*
X0405604Y0125716D01*
X0405533Y0124904D01*
X0405533Y0124590D01*
X0405618Y0124443D01*
X0405533Y0124126D01*
X0405533Y0124089D01*
X0405520Y0124075D01*
X0405432Y0123748D01*
X0405388Y0123248D01*
X0405411Y0123186D01*
X0405377Y0123113D01*
X0405370Y0123032D01*
X0405319Y0122990D01*
X0405107Y0122535D01*
X0404977Y0122049D01*
X0404988Y0121985D01*
X0404942Y0121918D01*
X0404921Y0121840D01*
X0404864Y0121808D01*
X0404576Y0121396D01*
X0404364Y0120940D01*
X0404364Y0120875D01*
X0404306Y0120818D01*
X0404272Y0120744D01*
X0404211Y0120722D01*
X0403855Y0120366D01*
X0403567Y0119955D01*
X0403556Y0119890D01*
X0403489Y0119844D01*
X0403443Y0119778D01*
X0403379Y0119766D01*
X0402967Y0119478D01*
X0402611Y0119123D01*
X0402589Y0119061D01*
X0402516Y0119027D01*
X0402459Y0118970D01*
X0402393Y0118970D01*
X0401938Y0118757D01*
X0401526Y0118469D01*
X0401493Y0118412D01*
X0401415Y0118391D01*
X0401349Y0118345D01*
X0401284Y0118356D01*
X0400799Y0118226D01*
X0400343Y0118014D01*
X0400301Y0117964D01*
X0400221Y0117957D01*
X0400147Y0117923D01*
X0400086Y0117945D01*
X0399585Y0117901D01*
X0399258Y0117813D01*
X0399245Y0117800D01*
X0399208Y0117800D01*
X0398891Y0117715D01*
X0398744Y0117800D01*
X0398429Y0117800D01*
X0397617Y0117729D01*
X0397533Y0117800D01*
X0387559Y0117800D01*
X0387216Y0117626D01*
X0386683Y0117800D01*
X0386122Y0117800D01*
X0385850Y0118072D01*
X0385484Y0118192D01*
X0385230Y0118692D01*
X0384833Y0119089D01*
X0384833Y0119474D01*
X0384659Y0119817D01*
X0384833Y0120350D01*
X0384833Y0120911D01*
X0385106Y0121184D01*
X0385225Y0121550D01*
X0385726Y0121803D01*
X0386122Y0122200D01*
X0386507Y0122200D01*
X0398633Y0128351D01*
X0398633Y0129446D01*
X0376035Y0118191D01*
X0375645Y0117800D01*
X0375251Y0117800D01*
X0374898Y0117624D01*
X0374375Y0117800D01*
X0371413Y0117800D01*
X0371125Y0117637D01*
X0370535Y0117800D01*
X0369922Y0117800D01*
X0369688Y0118034D01*
X0369369Y0118123D01*
X0369067Y0118656D01*
X0368633Y0119089D01*
X0368633Y0119420D01*
X0368470Y0119708D01*
X0368633Y0120299D01*
X0368633Y0120911D01*
X0368868Y0121146D01*
X0368956Y0121465D01*
X0369489Y0121767D01*
X0369922Y0122200D01*
X0370253Y0122200D01*
X0398633Y0138282D01*
X0398633Y0139225D01*
X0361578Y0118233D01*
X0361145Y0117800D01*
X0360813Y0117800D01*
X0360525Y0117637D01*
X0359935Y0117800D01*
X0356342Y0117800D01*
X0356082Y0117644D01*
X0355461Y0117800D01*
X0354822Y0117800D01*
X0354608Y0118014D01*
X0354314Y0118088D01*
X0353985Y0118637D01*
X0353533Y0119089D01*
X0353533Y0119392D01*
X0353378Y0119652D01*
X0353533Y0120272D01*
X0353533Y0120911D01*
X0353748Y0121126D01*
X0353821Y0121420D01*
X0354370Y0121748D01*
X0354822Y0122200D01*
X0355125Y0122200D01*
X0398633Y0148247D01*
X0398633Y0149136D01*
X0346594Y0118249D01*
X0346145Y0117800D01*
X0345837Y0117800D01*
X0345573Y0117643D01*
X0344957Y0117800D01*
X0341356Y0117800D01*
X0341111Y0117649D01*
X0340475Y0117800D01*
X0339822Y0117800D01*
X0339618Y0118004D01*
X0339338Y0118071D01*
X0338995Y0118627D01*
X0338533Y0119089D01*
X0338533Y0119377D01*
X0338382Y0119623D01*
X0338533Y0120258D01*
X0338533Y0120911D01*
X0338737Y0121115D01*
X0338804Y0121396D01*
X0339360Y0121738D01*
X0339822Y0122200D01*
X0340110Y0122200D01*
X0398633Y0158229D01*
X0398633Y0159084D01*
X0331603Y0118258D01*
X0331145Y0117800D01*
X0330851Y0117800D01*
X0330599Y0117647D01*
X0329970Y0117800D01*
X0326365Y0117800D01*
X0326128Y0117652D01*
X0325483Y0117800D01*
X0324822Y0117800D01*
X0324624Y0117998D01*
X0324352Y0118060D01*
X0324001Y0118621D01*
X0323533Y0119089D01*
X0323533Y0119368D01*
X0323385Y0119605D01*
X0323533Y0120250D01*
X0323533Y0120911D01*
X0323731Y0121109D01*
X0323794Y0121381D01*
X0324354Y0121732D01*
X0324822Y0122200D01*
X0325102Y0122200D01*
X0398633Y0168218D01*
X0398633Y0169038D01*
X0317111Y0118266D01*
X0316645Y0117800D01*
X0316362Y0117800D01*
X0316123Y0117651D01*
X0315481Y0117800D01*
X0311371Y0117800D01*
X0311139Y0117654D01*
X0310489Y0117800D01*
X0309822Y0117800D01*
X0309628Y0117994D01*
X0309361Y0118054D01*
X0309005Y0118617D01*
X0308533Y0119089D01*
X0308533Y0119363D01*
X0308387Y0119594D01*
X0308533Y0120244D01*
X0308533Y0120911D01*
X0308727Y0121105D01*
X0308787Y0121372D01*
X0309351Y0121728D01*
X0309822Y0122200D01*
X0310096Y0122200D01*
X0398633Y0178211D01*
X0398633Y0179024D01*
X0305228Y0120452D01*
X0304495Y0119964D01*
X0304460Y0119971D01*
X0304430Y0119952D01*
X0303572Y0120149D01*
X0302708Y0120321D01*
X0302688Y0120351D01*
X0302654Y0120359D01*
X0302404Y0120757D01*
X0302273Y0120801D01*
X0301927Y0121494D01*
X0301926Y0121496D01*
X0301829Y0121537D01*
X0301726Y0121795D01*
X0301497Y0122138D01*
X0301528Y0122290D01*
X0301525Y0122298D01*
X0301158Y0123031D01*
X0301166Y0123056D01*
X0300933Y0123289D01*
X0300933Y0123776D01*
X0300752Y0124229D01*
X0300848Y0124452D01*
X0300758Y0124631D01*
X0300933Y0125157D01*
X0300933Y0125711D01*
X0301210Y0125988D01*
X0301334Y0126360D01*
X0301830Y0126608D01*
X0302222Y0127000D01*
X0302539Y0127000D01*
X0387116Y0180300D01*
X0385957Y0180300D01*
X0305109Y0130426D01*
X0304774Y0130010D01*
X0304364Y0129966D01*
X0304013Y0129749D01*
X0303493Y0129872D01*
X0302962Y0129815D01*
X0302641Y0130074D01*
X0302239Y0130169D01*
X0301959Y0130624D01*
X0301543Y0130960D01*
X0301499Y0131370D01*
X0301283Y0131720D01*
X0301406Y0132240D01*
X0301199Y0134168D01*
X0300983Y0134517D01*
X0301106Y0135039D01*
X0301049Y0135572D01*
X0301307Y0135891D01*
X0301401Y0136291D01*
X0301856Y0136573D01*
X0302193Y0136990D01*
X0302601Y0137034D01*
X0372499Y0180300D01*
X0370948Y0180300D01*
X0305103Y0140418D01*
X0304774Y0140010D01*
X0304354Y0139965D01*
X0303994Y0139746D01*
X0303484Y0139871D01*
X0302962Y0139815D01*
X0302633Y0140080D01*
X0302224Y0140181D01*
X0301952Y0140630D01*
X0301543Y0140960D01*
X0301498Y0141379D01*
X0301279Y0141740D01*
X0301405Y0142250D01*
X0301199Y0144173D01*
X0300981Y0144528D01*
X0301105Y0145044D01*
X0301049Y0145572D01*
X0301310Y0145896D01*
X0301407Y0146300D01*
X0301860Y0146577D01*
X0302193Y0146990D01*
X0302607Y0147035D01*
X0356928Y0180300D01*
X0355932Y0180300D01*
X0305094Y0150407D01*
X0304774Y0150010D01*
X0304339Y0149963D01*
X0303963Y0149742D01*
X0303469Y0149870D01*
X0302962Y0149815D01*
X0302622Y0150090D01*
X0302199Y0150199D01*
X0301940Y0150639D01*
X0301543Y0150960D01*
X0301496Y0151394D01*
X0301275Y0151770D01*
X0301403Y0152264D01*
X0301197Y0154188D01*
X0300977Y0154558D01*
X0301104Y0155059D01*
X0301049Y0155572D01*
X0301319Y0155907D01*
X0301425Y0156325D01*
X0301869Y0156589D01*
X0302193Y0156990D01*
X0302621Y0157036D01*
X0341731Y0180300D01*
X0340904Y0180300D01*
X0305077Y0160385D01*
X0304774Y0160010D01*
X0304312Y0159960D01*
X0303906Y0159734D01*
X0303442Y0159867D01*
X0302962Y0159815D01*
X0302600Y0160107D01*
X0302153Y0160235D01*
X0301919Y0160657D01*
X0301543Y0160960D01*
X0301493Y0161422D01*
X0301268Y0161828D01*
X0301400Y0162292D01*
X0301194Y0164217D01*
X0300969Y0164619D01*
X0301101Y0165088D01*
X0301049Y0165572D01*
X0301338Y0165930D01*
X0301463Y0166374D01*
X0301887Y0166612D01*
X0302193Y0166990D01*
X0302651Y0167039D01*
X0326309Y0180300D01*
X0325820Y0180300D01*
X0304914Y0170569D01*
X0304545Y0170200D01*
X0304120Y0170200D01*
X0303735Y0170021D01*
X0303245Y0170200D01*
X0302722Y0170200D01*
X0302422Y0170500D01*
X0302023Y0170645D01*
X0301803Y0171119D01*
X0301433Y0171489D01*
X0301433Y0171913D01*
X0301254Y0172298D01*
X0301433Y0172789D01*
X0301433Y0174126D01*
X0301253Y0174525D01*
X0301433Y0175002D01*
X0301433Y0175511D01*
X0301743Y0175821D01*
X0301898Y0176230D01*
X0302362Y0176440D01*
X0302722Y0176800D01*
X0303160Y0176800D01*
X0310913Y0180300D01*
X0309773Y0180300D01*
X0304490Y0178099D01*
X0304049Y0177729D01*
X0303680Y0177761D01*
X0303338Y0177619D01*
X0302807Y0177838D01*
X0302234Y0177888D01*
X0301996Y0178172D01*
X0301653Y0178313D01*
X0301432Y0178843D01*
X0301062Y0179284D01*
X0301095Y0179653D01*
X0300952Y0179995D01*
X0301127Y0180421D01*
X0301048Y0180557D01*
X0301234Y0181252D01*
X0301278Y0181752D01*
X0301256Y0181814D01*
X0301290Y0181887D01*
X0301297Y0181968D01*
X0301347Y0182010D01*
X0301560Y0182465D01*
X0301690Y0182951D01*
X0301678Y0183015D01*
X0301725Y0183082D01*
X0301746Y0183160D01*
X0301802Y0183192D01*
X0302091Y0183604D01*
X0302303Y0184060D01*
X0302303Y0184125D01*
X0302360Y0184182D01*
X0302394Y0184256D01*
X0302456Y0184278D01*
X0302811Y0184633D01*
X0303100Y0185045D01*
X0303111Y0185110D01*
X0303177Y0185156D01*
X0303224Y0185222D01*
X0303288Y0185234D01*
X0303700Y0185522D01*
X0304055Y0185877D01*
X0304078Y0185939D01*
X0304151Y0185973D01*
X0304208Y0186030D01*
X0304274Y0186030D01*
X0304729Y0186243D01*
X0305141Y0186531D01*
X0305174Y0186588D01*
X0305252Y0186609D01*
X0305318Y0186655D01*
X0305382Y0186644D01*
X0305868Y0186774D01*
X0306323Y0186986D01*
X0306366Y0187036D01*
X0306446Y0187043D01*
X0306519Y0187077D01*
X0306581Y0187055D01*
X0307082Y0187099D01*
X0307409Y0187186D01*
X0307422Y0187200D01*
X0307459Y0187200D01*
X0307776Y0187285D01*
X0307923Y0187200D01*
X0308237Y0187200D01*
X0309049Y0187271D01*
X0309134Y0187200D01*
X0348233Y0187200D01*
X0348233Y0190517D01*
X0348629Y0191473D01*
X0349361Y0192204D01*
X0350316Y0192600D01*
X0434756Y0192600D01*
X0450733Y0208577D01*
X0450733Y0370517D01*
X0451129Y0371473D01*
X0451861Y0372204D01*
X0493233Y0413577D01*
X0493233Y0415570D01*
X0492677Y0415014D01*
X0488989Y0415014D01*
X0488333Y0415670D01*
X0487677Y0415014D01*
X0483989Y0415014D01*
X0483333Y0415670D01*
X0482677Y0415014D01*
X0478989Y0415014D01*
X0478333Y0415670D01*
X0477783Y0415120D01*
X0477783Y0401837D01*
X0476846Y0400900D01*
X0473646Y0400900D01*
X0469821Y0400900D01*
X0468883Y0401837D01*
X0468883Y0415120D01*
X0468333Y0415670D01*
X0467783Y0415120D01*
X0467783Y0401837D01*
X0466846Y0400900D01*
X0459821Y0400900D01*
X0458883Y0401837D01*
X0458883Y0415120D01*
X0458052Y0415951D01*
X0458052Y0418050D01*
X0447526Y0418050D01*
X0446383Y0419192D01*
X0446383Y0439192D01*
X0405026Y0480550D01*
X0404370Y0481205D01*
X0403697Y0481205D01*
X0402186Y0481831D01*
X0401030Y0482987D01*
X0400577Y0484080D01*
X0400125Y0482987D01*
X0398968Y0481831D01*
X0397458Y0481205D01*
X0395823Y0481205D01*
X0394312Y0481831D01*
X0393156Y0482987D01*
X0392703Y0484080D01*
X0392251Y0482987D01*
X0391094Y0481831D01*
X0389584Y0481205D01*
X0387949Y0481205D01*
X0386438Y0481831D01*
X0385282Y0482987D01*
X0384829Y0484080D01*
X0384377Y0482987D01*
X0383220Y0481831D01*
X0381710Y0481205D01*
X0380075Y0481205D01*
X0378564Y0481831D01*
X0377408Y0482987D01*
X0376955Y0484080D01*
X0376503Y0482987D01*
X0375346Y0481831D01*
X0373836Y0481205D01*
X0372201Y0481205D01*
X0370690Y0481831D01*
X0369534Y0482987D01*
X0369081Y0484080D01*
X0368628Y0482987D01*
X0367472Y0481831D01*
X0365962Y0481205D01*
X0364327Y0481205D01*
X0362816Y0481831D01*
X0361660Y0482987D01*
X0361207Y0484080D01*
X0360754Y0482987D01*
X0359598Y0481831D01*
X0358088Y0481205D01*
X0357386Y0481205D01*
X0432149Y0406442D01*
X0431959Y0406770D01*
X0431390Y0410000D01*
X0431959Y0413230D01*
X0433599Y0416070D01*
X0433599Y0416070D01*
X0433599Y0416070D01*
X0436112Y0418178D01*
X0436112Y0418178D01*
X0439193Y0419300D01*
X0442473Y0419300D01*
X0445555Y0418178D01*
X0445555Y0418178D01*
X0448067Y0416070D01*
X0448067Y0416070D01*
X0449707Y0413230D01*
X0449707Y0413230D01*
X0450277Y0410000D01*
X0450277Y0410000D01*
X0449707Y0406770D01*
X0449707Y0406770D01*
X0448067Y0403930D01*
X0448067Y0403930D01*
X0448067Y0403930D01*
X0445555Y0401822D01*
X0445555Y0401822D01*
X0442473Y0400700D01*
X0439193Y0400700D01*
X0436112Y0401822D01*
X0436112Y0401822D01*
X0433599Y0403930D01*
X0433599Y0403930D01*
X0432783Y0405343D01*
X0432783Y0286692D01*
X0431641Y0285550D01*
X0430283Y0284192D01*
X0430283Y0224192D01*
X0429141Y0223050D01*
X0426390Y0220299D01*
X0426390Y0216581D01*
X0425453Y0215644D01*
X0419403Y0215644D01*
X0418466Y0216581D01*
X0418466Y0223419D01*
X0419403Y0224356D01*
X0424932Y0224356D01*
X0426383Y0225808D01*
X0426383Y0285343D01*
X0425567Y0283930D01*
X0425567Y0283930D01*
X0425567Y0283930D01*
X0423055Y0281822D01*
X0423055Y0281822D01*
X0419973Y0280700D01*
X0416693Y0280700D01*
X0413612Y0281822D01*
X0413612Y0281822D01*
X0411099Y0283930D01*
X0411099Y0283930D01*
X0409459Y0286770D01*
X0409459Y0286770D01*
X0408890Y0290000D01*
X0408890Y0290000D01*
X0409459Y0293230D01*
X0409459Y0293230D01*
X0411099Y0296070D01*
X0411099Y0296070D01*
X0411099Y0296070D01*
X0413612Y0298178D01*
X0413612Y0298178D01*
X0416693Y0299300D01*
X0419973Y0299300D01*
X0423055Y0298178D01*
X0423055Y0298178D01*
X0425567Y0296070D01*
X0425567Y0296070D01*
X0427207Y0293230D01*
X0427207Y0293230D01*
X0427777Y0290000D01*
X0427777Y0290000D01*
X0427207Y0286770D01*
X0427207Y0286770D01*
X0427018Y0286442D01*
X0428883Y0288308D01*
X0428883Y0404192D01*
X0352526Y0480550D01*
X0351385Y0481690D01*
X0350214Y0481205D01*
X0348579Y0481205D01*
X0347068Y0481831D01*
X0345912Y0482987D01*
X0345459Y0484080D01*
X0345006Y0482987D01*
X0343850Y0481831D01*
X0342340Y0481205D01*
X0340705Y0481205D01*
X0339194Y0481831D01*
X0338038Y0482987D01*
X0337585Y0484080D01*
X0337132Y0482987D01*
X0335976Y0481831D01*
X0334466Y0481205D01*
X0332831Y0481205D01*
X0331320Y0481831D01*
X0330164Y0482987D01*
X0329711Y0484080D01*
X0329258Y0482987D01*
X0328102Y0481831D01*
X0326592Y0481205D01*
X0324957Y0481205D01*
X0323446Y0481831D01*
X0322290Y0482987D01*
X0321837Y0484080D01*
X0321384Y0482987D01*
X0320228Y0481831D01*
X0318718Y0481205D01*
X0317083Y0481205D01*
X0315572Y0481831D01*
X0314416Y0482987D01*
X0313963Y0484080D01*
X0313510Y0482987D01*
X0312354Y0481831D01*
X0310844Y0481205D01*
X0309209Y0481205D01*
X0307698Y0481831D01*
X0306542Y0482987D01*
X0306089Y0484080D01*
X0305636Y0482987D01*
X0304480Y0481831D01*
X0302970Y0481205D01*
X0301335Y0481205D01*
X0299824Y0481831D01*
X0298668Y0482987D01*
X0298215Y0484080D01*
X0297762Y0482987D01*
X0296606Y0481831D01*
X0295096Y0481205D01*
X0293461Y0481205D01*
X0291950Y0481831D01*
X0290794Y0482987D01*
X0290341Y0484080D01*
X0290283Y0483940D01*
X0290283Y0483308D01*
X0295283Y0478308D01*
X0295283Y0221950D01*
X0378466Y0221950D01*
X0378466Y0223419D01*
X0379403Y0224356D01*
X0385453Y0224356D01*
X0386390Y0223419D01*
X0386390Y0216581D01*
X0385453Y0215644D01*
X0379403Y0215644D01*
X0378466Y0216581D01*
X0378466Y0218050D01*
X0292783Y0218050D01*
X0292783Y0201950D01*
X0378466Y0201950D01*
X0378466Y0203419D01*
X0379403Y0204356D01*
X0385453Y0204356D01*
X0386390Y0203419D01*
X0386390Y0196581D01*
X0385453Y0195644D01*
X0379403Y0195644D01*
X0378466Y0196581D01*
X0378466Y0198050D01*
X0290026Y0198050D01*
X0288883Y0199192D01*
X0288883Y0441692D01*
X0280026Y0450550D01*
X0278883Y0451692D01*
X0278883Y0481205D01*
X0277713Y0481205D01*
X0276202Y0481831D01*
X0275046Y0482987D01*
X0274593Y0484080D01*
X0274140Y0482987D01*
X0272984Y0481831D01*
X0271474Y0481205D01*
X0269839Y0481205D01*
X0268328Y0481831D01*
X0267172Y0482987D01*
X0266719Y0484080D01*
X0266266Y0482987D01*
X0265110Y0481831D01*
X0263600Y0481205D01*
X0261965Y0481205D01*
X0260454Y0481831D01*
X0259298Y0482987D01*
X0258845Y0484080D01*
X0258392Y0482987D01*
X0257236Y0481831D01*
X0255726Y0481205D01*
X0254091Y0481205D01*
X0252580Y0481831D01*
X0251424Y0482987D01*
X0250971Y0484080D01*
X0250518Y0482987D01*
X0249362Y0481831D01*
X0247852Y0481205D01*
X0246217Y0481205D01*
X0244706Y0481831D01*
X0243550Y0482987D01*
X0242924Y0484497D01*
X0242924Y0486132D01*
X0243550Y0487643D01*
X0244706Y0488799D01*
X0245799Y0489252D01*
X0244706Y0489705D01*
X0243550Y0490861D01*
X0242924Y0492371D01*
X0242924Y0494006D01*
X0243550Y0495517D01*
X0244706Y0496673D01*
X0246217Y0497299D01*
X0247852Y0497299D01*
X0249362Y0496673D01*
X0250518Y0495517D01*
X0250971Y0494424D01*
X0251424Y0495517D01*
X0252580Y0496673D01*
X0254091Y0497299D01*
X0255726Y0497299D01*
X0257236Y0496673D01*
X0258392Y0495517D01*
X0258845Y0494424D01*
X0259298Y0495517D01*
X0260454Y0496673D01*
X0261965Y0497299D01*
X0263600Y0497299D01*
X0265110Y0496673D01*
X0266266Y0495517D01*
X0266719Y0494424D01*
X0267172Y0495517D01*
X0268328Y0496673D01*
X0269839Y0497299D01*
X0271474Y0497299D01*
X0272984Y0496673D01*
X0274140Y0495517D01*
X0274593Y0494424D01*
X0275046Y0495517D01*
X0276202Y0496673D01*
X0276383Y0496748D01*
X0276383Y0500808D01*
X0277526Y0501950D01*
X0349141Y0501950D01*
X0350283Y0500808D01*
X0354680Y0496411D01*
X0354942Y0496673D01*
X0356453Y0497299D01*
X0358088Y0497299D01*
X0359598Y0496673D01*
X0360754Y0495517D01*
X0361207Y0494424D01*
X0361660Y0495517D01*
X0362816Y0496673D01*
X0364327Y0497299D01*
X0365962Y0497299D01*
X0367472Y0496673D01*
X0368628Y0495517D01*
X0369081Y0494424D01*
X0369534Y0495517D01*
X0370690Y0496673D01*
X0372201Y0497299D01*
X0373836Y0497299D01*
X0375346Y0496673D01*
X0376503Y0495517D01*
X0376955Y0494424D01*
X0377408Y0495517D01*
X0378564Y0496673D01*
X0380075Y0497299D01*
X0381710Y0497299D01*
X0383220Y0496673D01*
X0384377Y0495517D01*
X0384829Y0494424D01*
X0385282Y0495517D01*
X0386438Y0496673D01*
X0387949Y0497299D01*
X0389584Y0497299D01*
X0391094Y0496673D01*
X0392251Y0495517D01*
X0392703Y0494424D01*
X0393156Y0495517D01*
X0394312Y0496673D01*
X0395823Y0497299D01*
X0397458Y0497299D01*
X0398968Y0496673D01*
X0400125Y0495517D01*
X0400577Y0494424D01*
X0401030Y0495517D01*
X0402186Y0496673D01*
X0403697Y0497299D01*
X0405332Y0497299D01*
X0406842Y0496673D01*
X0407999Y0495517D01*
X0408451Y0494424D01*
X0408883Y0495466D01*
X0408883Y0502900D01*
X0218333Y0502900D01*
X0217097Y0502803D01*
X0214747Y0502039D01*
X0212747Y0500586D01*
X0211294Y0498587D01*
X0210531Y0496236D01*
X0210433Y0495000D01*
X0210433Y0494882D02*
X0211990Y0494882D01*
X0211959Y0494830D02*
X0211959Y0494830D01*
X0211390Y0491600D01*
X0211959Y0488370D01*
X0213599Y0485530D01*
X0216112Y0483422D01*
X0219193Y0482300D01*
X0220005Y0482300D01*
X0222473Y0482300D01*
X0225555Y0483422D01*
X0228067Y0485530D01*
X0228067Y0485530D01*
X0229707Y0488370D01*
X0229707Y0488370D01*
X0230277Y0491600D01*
X0229707Y0494830D01*
X0228067Y0497670D01*
X0225555Y0499778D01*
X0222473Y0500900D01*
X0219193Y0500900D01*
X0216112Y0499778D01*
X0216112Y0499778D01*
X0213599Y0497670D01*
X0211959Y0494830D01*
X0211828Y0494084D02*
X0210433Y0494084D01*
X0210433Y0493285D02*
X0211687Y0493285D01*
X0211546Y0492487D02*
X0210433Y0492487D01*
X0210433Y0491688D02*
X0211405Y0491688D01*
X0211390Y0491600D02*
X0211390Y0491600D01*
X0211515Y0490890D02*
X0210433Y0490890D01*
X0210433Y0490091D02*
X0211656Y0490091D01*
X0211797Y0489293D02*
X0210433Y0489293D01*
X0210433Y0488494D02*
X0211937Y0488494D01*
X0211959Y0488370D02*
X0211959Y0488370D01*
X0212349Y0487696D02*
X0210433Y0487696D01*
X0210433Y0486897D02*
X0212810Y0486897D01*
X0213271Y0486099D02*
X0210433Y0486099D01*
X0210433Y0485300D02*
X0213873Y0485300D01*
X0213599Y0485530D02*
X0213599Y0485530D01*
X0214824Y0484502D02*
X0210433Y0484502D01*
X0210433Y0483703D02*
X0215776Y0483703D01*
X0216112Y0483422D02*
X0216112Y0483422D01*
X0217532Y0482905D02*
X0210433Y0482905D01*
X0210433Y0482106D02*
X0244431Y0482106D01*
X0243632Y0482905D02*
X0224135Y0482905D01*
X0222473Y0482300D02*
X0222473Y0482300D01*
X0225891Y0483703D02*
X0243253Y0483703D01*
X0242924Y0484502D02*
X0226842Y0484502D01*
X0227794Y0485300D02*
X0242924Y0485300D01*
X0242924Y0486099D02*
X0228396Y0486099D01*
X0228857Y0486897D02*
X0243241Y0486897D01*
X0243603Y0487696D02*
X0229318Y0487696D01*
X0229729Y0488494D02*
X0244401Y0488494D01*
X0245701Y0489293D02*
X0229870Y0489293D01*
X0230011Y0490091D02*
X0244320Y0490091D01*
X0243538Y0490890D02*
X0230152Y0490890D01*
X0230277Y0491600D02*
X0230277Y0491600D01*
X0230261Y0491688D02*
X0243207Y0491688D01*
X0242924Y0492487D02*
X0230120Y0492487D01*
X0229980Y0493285D02*
X0242924Y0493285D01*
X0242956Y0494084D02*
X0229839Y0494084D01*
X0229707Y0494830D02*
X0229707Y0494830D01*
X0229677Y0494882D02*
X0243287Y0494882D01*
X0243714Y0495681D02*
X0229216Y0495681D01*
X0228755Y0496479D02*
X0244512Y0496479D01*
X0246166Y0497278D02*
X0228294Y0497278D01*
X0228067Y0497670D02*
X0228067Y0497670D01*
X0227583Y0498077D02*
X0276383Y0498077D01*
X0276383Y0498875D02*
X0226632Y0498875D01*
X0225680Y0499674D02*
X0276383Y0499674D01*
X0276383Y0500472D02*
X0223649Y0500472D01*
X0225555Y0499778D02*
X0225555Y0499778D01*
X0218018Y0500472D02*
X0212664Y0500472D01*
X0212084Y0499674D02*
X0215987Y0499674D01*
X0215035Y0498875D02*
X0211504Y0498875D01*
X0211129Y0498077D02*
X0214084Y0498077D01*
X0213599Y0497670D02*
X0213599Y0497670D01*
X0213599Y0497670D01*
X0213373Y0497278D02*
X0210869Y0497278D01*
X0210610Y0496479D02*
X0212912Y0496479D01*
X0212451Y0495681D02*
X0210487Y0495681D01*
X0213689Y0501271D02*
X0276846Y0501271D01*
X0276383Y0497278D02*
X0271524Y0497278D01*
X0269788Y0497278D02*
X0263650Y0497278D01*
X0261914Y0497278D02*
X0255776Y0497278D01*
X0254040Y0497278D02*
X0247902Y0497278D01*
X0249556Y0496479D02*
X0252386Y0496479D01*
X0251588Y0495681D02*
X0250354Y0495681D01*
X0250781Y0494882D02*
X0251161Y0494882D01*
X0251127Y0483703D02*
X0250815Y0483703D01*
X0250436Y0482905D02*
X0251506Y0482905D01*
X0252305Y0482106D02*
X0249638Y0482106D01*
X0248099Y0481308D02*
X0253843Y0481308D01*
X0255973Y0481308D02*
X0261717Y0481308D01*
X0260179Y0482106D02*
X0257512Y0482106D01*
X0258310Y0482905D02*
X0259380Y0482905D01*
X0259001Y0483703D02*
X0258689Y0483703D01*
X0263847Y0481308D02*
X0269591Y0481308D01*
X0268053Y0482106D02*
X0265386Y0482106D01*
X0266184Y0482905D02*
X0267254Y0482905D01*
X0266875Y0483703D02*
X0266563Y0483703D01*
X0271721Y0481308D02*
X0277465Y0481308D01*
X0278883Y0480509D02*
X0210433Y0480509D01*
X0210433Y0479711D02*
X0278883Y0479711D01*
X0278883Y0478912D02*
X0210433Y0478912D01*
X0210433Y0478114D02*
X0278883Y0478114D01*
X0278883Y0477315D02*
X0210433Y0477315D01*
X0210433Y0476517D02*
X0278883Y0476517D01*
X0278883Y0475718D02*
X0210433Y0475718D01*
X0210433Y0474920D02*
X0278883Y0474920D01*
X0278883Y0474121D02*
X0210433Y0474121D01*
X0210433Y0473323D02*
X0278883Y0473323D01*
X0278883Y0472524D02*
X0210433Y0472524D01*
X0210433Y0471726D02*
X0278883Y0471726D01*
X0278883Y0470927D02*
X0210433Y0470927D01*
X0210433Y0470129D02*
X0278883Y0470129D01*
X0278883Y0469330D02*
X0210433Y0469330D01*
X0210433Y0468532D02*
X0278883Y0468532D01*
X0278883Y0467733D02*
X0210433Y0467733D01*
X0210433Y0466935D02*
X0278883Y0466935D01*
X0278883Y0466136D02*
X0210433Y0466136D01*
X0210433Y0465338D02*
X0278883Y0465338D01*
X0278883Y0464539D02*
X0210433Y0464539D01*
X0210433Y0463741D02*
X0278883Y0463741D01*
X0278883Y0462942D02*
X0210433Y0462942D01*
X0210433Y0462143D02*
X0278883Y0462143D01*
X0278883Y0461345D02*
X0210433Y0461345D01*
X0210433Y0460546D02*
X0278883Y0460546D01*
X0278883Y0459748D02*
X0210433Y0459748D01*
X0210433Y0458949D02*
X0278883Y0458949D01*
X0278883Y0458151D02*
X0210433Y0458151D01*
X0210433Y0457352D02*
X0278883Y0457352D01*
X0278883Y0456554D02*
X0210433Y0456554D01*
X0210433Y0455755D02*
X0278883Y0455755D01*
X0278883Y0454957D02*
X0210433Y0454957D01*
X0210433Y0454158D02*
X0278883Y0454158D01*
X0278883Y0453360D02*
X0210433Y0453360D01*
X0210433Y0452561D02*
X0278883Y0452561D01*
X0278883Y0451763D02*
X0210433Y0451763D01*
X0210433Y0450964D02*
X0279611Y0450964D01*
X0280410Y0450166D02*
X0210433Y0450166D01*
X0210433Y0449367D02*
X0281208Y0449367D01*
X0282007Y0448569D02*
X0210433Y0448569D01*
X0210433Y0447770D02*
X0282805Y0447770D01*
X0283604Y0446972D02*
X0210433Y0446972D01*
X0210433Y0446173D02*
X0284402Y0446173D01*
X0285201Y0445375D02*
X0210433Y0445375D01*
X0210433Y0444576D02*
X0285999Y0444576D01*
X0286798Y0443778D02*
X0210433Y0443778D01*
X0210433Y0442979D02*
X0287596Y0442979D01*
X0288395Y0442181D02*
X0210433Y0442181D01*
X0210433Y0441382D02*
X0288883Y0441382D01*
X0288883Y0440584D02*
X0210433Y0440584D01*
X0210433Y0439785D02*
X0288883Y0439785D01*
X0288883Y0438987D02*
X0210433Y0438987D01*
X0210433Y0438188D02*
X0288883Y0438188D01*
X0288883Y0437390D02*
X0210433Y0437390D01*
X0210433Y0436591D02*
X0288883Y0436591D01*
X0288883Y0435793D02*
X0210433Y0435793D01*
X0210433Y0434994D02*
X0288883Y0434994D01*
X0288883Y0434196D02*
X0210433Y0434196D01*
X0210433Y0433397D02*
X0288883Y0433397D01*
X0288883Y0432599D02*
X0210433Y0432599D01*
X0210433Y0431800D02*
X0288883Y0431800D01*
X0288883Y0431002D02*
X0210433Y0431002D01*
X0210433Y0430203D02*
X0288883Y0430203D01*
X0288883Y0429405D02*
X0210433Y0429405D01*
X0210433Y0428606D02*
X0288883Y0428606D01*
X0288883Y0427808D02*
X0210433Y0427808D01*
X0210433Y0427009D02*
X0288883Y0427009D01*
X0288883Y0426210D02*
X0210433Y0426210D01*
X0210433Y0425412D02*
X0288883Y0425412D01*
X0288883Y0424613D02*
X0210433Y0424613D01*
X0210433Y0423815D02*
X0288883Y0423815D01*
X0288883Y0423016D02*
X0210433Y0423016D01*
X0210433Y0422218D02*
X0288883Y0422218D01*
X0288883Y0421419D02*
X0210433Y0421419D01*
X0210433Y0420621D02*
X0288883Y0420621D01*
X0288883Y0419822D02*
X0210433Y0419822D01*
X0210433Y0419024D02*
X0253435Y0419024D01*
X0254193Y0419300D02*
X0251112Y0418178D01*
X0251112Y0418178D01*
X0248599Y0416070D01*
X0246959Y0413230D01*
X0246390Y0410000D01*
X0246959Y0406770D01*
X0248599Y0403930D01*
X0251112Y0401822D01*
X0254193Y0400700D01*
X0256662Y0400700D01*
X0257473Y0400700D01*
X0257473Y0400700D01*
X0260555Y0401822D01*
X0263067Y0403930D01*
X0264707Y0406770D01*
X0264707Y0406770D01*
X0265277Y0410000D01*
X0264707Y0413230D01*
X0263067Y0416070D01*
X0260555Y0418178D01*
X0257473Y0419300D01*
X0254193Y0419300D01*
X0251241Y0418225D02*
X0210433Y0418225D01*
X0210433Y0417427D02*
X0250216Y0417427D01*
X0249264Y0416628D02*
X0210433Y0416628D01*
X0210433Y0415830D02*
X0248460Y0415830D01*
X0248599Y0416070D02*
X0248599Y0416070D01*
X0248599Y0416070D01*
X0247999Y0415031D02*
X0210433Y0415031D01*
X0210433Y0414233D02*
X0247538Y0414233D01*
X0247077Y0413434D02*
X0210433Y0413434D01*
X0210433Y0412636D02*
X0246855Y0412636D01*
X0246959Y0413230D02*
X0246959Y0413230D01*
X0246714Y0411837D02*
X0210433Y0411837D01*
X0210433Y0411039D02*
X0246573Y0411039D01*
X0246432Y0410240D02*
X0210433Y0410240D01*
X0210433Y0409442D02*
X0246488Y0409442D01*
X0246390Y0410000D02*
X0246390Y0410000D01*
X0246629Y0408643D02*
X0210433Y0408643D01*
X0210433Y0407845D02*
X0246770Y0407845D01*
X0246911Y0407046D02*
X0210433Y0407046D01*
X0210433Y0406248D02*
X0247261Y0406248D01*
X0246959Y0406770D02*
X0246959Y0406770D01*
X0247722Y0405449D02*
X0210433Y0405449D01*
X0210433Y0404651D02*
X0248183Y0404651D01*
X0248599Y0403930D02*
X0248599Y0403930D01*
X0248692Y0403852D02*
X0210433Y0403852D01*
X0210433Y0403054D02*
X0249643Y0403054D01*
X0250595Y0402255D02*
X0210433Y0402255D01*
X0210433Y0401457D02*
X0252115Y0401457D01*
X0251112Y0401822D02*
X0251112Y0401822D01*
X0259552Y0401457D02*
X0269147Y0401457D01*
X0269288Y0402255D02*
X0261072Y0402255D01*
X0260555Y0401822D02*
X0260555Y0401822D01*
X0262023Y0403054D02*
X0269428Y0403054D01*
X0269459Y0403230D02*
X0268890Y0400000D01*
X0269459Y0396770D01*
X0271099Y0393930D01*
X0273612Y0391822D01*
X0276693Y0390700D01*
X0277505Y0390700D01*
X0279973Y0390700D01*
X0283055Y0391822D01*
X0285567Y0393930D01*
X0287207Y0396770D01*
X0287207Y0396770D01*
X0287777Y0400000D01*
X0287207Y0403230D01*
X0285567Y0406070D01*
X0283055Y0408178D01*
X0279973Y0409300D01*
X0276693Y0409300D01*
X0273612Y0408178D01*
X0273612Y0408178D01*
X0271099Y0406070D01*
X0269459Y0403230D01*
X0269459Y0403230D01*
X0269819Y0403852D02*
X0262975Y0403852D01*
X0263067Y0403930D02*
X0263067Y0403930D01*
X0263067Y0403930D01*
X0263484Y0404651D02*
X0270280Y0404651D01*
X0270741Y0405449D02*
X0263945Y0405449D01*
X0264406Y0406248D02*
X0271311Y0406248D01*
X0271099Y0406070D02*
X0271099Y0406070D01*
X0271099Y0406070D01*
X0272262Y0407046D02*
X0264756Y0407046D01*
X0264897Y0407845D02*
X0273214Y0407845D01*
X0274889Y0408643D02*
X0265038Y0408643D01*
X0265178Y0409442D02*
X0288883Y0409442D01*
X0288883Y0410240D02*
X0265234Y0410240D01*
X0265277Y0410000D02*
X0265277Y0410000D01*
X0265094Y0411039D02*
X0288883Y0411039D01*
X0288883Y0411837D02*
X0264953Y0411837D01*
X0264812Y0412636D02*
X0288883Y0412636D01*
X0288883Y0413434D02*
X0264589Y0413434D01*
X0264707Y0413230D02*
X0264707Y0413230D01*
X0264128Y0414233D02*
X0288883Y0414233D01*
X0288883Y0415031D02*
X0263667Y0415031D01*
X0263206Y0415830D02*
X0288883Y0415830D01*
X0288883Y0416628D02*
X0262402Y0416628D01*
X0263067Y0416070D02*
X0263067Y0416070D01*
X0261451Y0417427D02*
X0288883Y0417427D01*
X0288883Y0418225D02*
X0260426Y0418225D01*
X0260555Y0418178D02*
X0260555Y0418178D01*
X0258232Y0419024D02*
X0288883Y0419024D01*
X0295283Y0419024D02*
X0414052Y0419024D01*
X0414850Y0418225D02*
X0295283Y0418225D01*
X0295283Y0417427D02*
X0415649Y0417427D01*
X0416447Y0416628D02*
X0295283Y0416628D01*
X0295283Y0415830D02*
X0417246Y0415830D01*
X0418044Y0415031D02*
X0295283Y0415031D01*
X0295283Y0414233D02*
X0418843Y0414233D01*
X0419641Y0413434D02*
X0295283Y0413434D01*
X0295283Y0412636D02*
X0420440Y0412636D01*
X0421238Y0411837D02*
X0295283Y0411837D01*
X0295283Y0411039D02*
X0422037Y0411039D01*
X0422835Y0410240D02*
X0404532Y0410240D01*
X0404388Y0410300D02*
X0402279Y0410300D01*
X0400331Y0409493D01*
X0398840Y0408002D01*
X0398333Y0406778D01*
X0397826Y0408002D01*
X0396336Y0409493D01*
X0394388Y0410300D01*
X0392279Y0410300D01*
X0390331Y0409493D01*
X0388840Y0408002D01*
X0388333Y0406778D01*
X0387826Y0408002D01*
X0386336Y0409493D01*
X0384388Y0410300D01*
X0382279Y0410300D01*
X0380331Y0409493D01*
X0378840Y0408002D01*
X0378333Y0406778D01*
X0377826Y0408002D01*
X0376336Y0409493D01*
X0374388Y0410300D01*
X0372279Y0410300D01*
X0370331Y0409493D01*
X0368840Y0408002D01*
X0368333Y0406778D01*
X0367826Y0408002D01*
X0366336Y0409493D01*
X0364388Y0410300D01*
X0362279Y0410300D01*
X0360331Y0409493D01*
X0358840Y0408002D01*
X0358333Y0406778D01*
X0357826Y0408002D01*
X0356336Y0409493D01*
X0354388Y0410300D01*
X0352279Y0410300D01*
X0350331Y0409493D01*
X0348840Y0408002D01*
X0348213Y0406487D01*
X0348060Y0406958D01*
X0347695Y0407673D01*
X0347223Y0408322D01*
X0346656Y0408890D01*
X0346006Y0409362D01*
X0345291Y0409726D01*
X0344528Y0409974D01*
X0343735Y0410100D01*
X0343733Y0410100D01*
X0343733Y0405400D01*
X0342933Y0405400D01*
X0342933Y0404600D01*
X0338233Y0404600D01*
X0338233Y0404599D01*
X0338359Y0403806D01*
X0338607Y0403042D01*
X0338971Y0402327D01*
X0339443Y0401678D01*
X0340011Y0401110D01*
X0340660Y0400638D01*
X0341376Y0400274D01*
X0342139Y0400026D01*
X0342932Y0399900D01*
X0342933Y0399900D01*
X0342933Y0404600D01*
X0343733Y0404600D01*
X0343733Y0399900D01*
X0343735Y0399900D01*
X0344528Y0400026D01*
X0345291Y0400274D01*
X0346006Y0400638D01*
X0346656Y0401110D01*
X0347223Y0401678D01*
X0347695Y0402327D01*
X0348060Y0403042D01*
X0348213Y0403513D01*
X0348840Y0401998D01*
X0350331Y0400507D01*
X0352279Y0399700D01*
X0354388Y0399700D01*
X0356336Y0400507D01*
X0357826Y0401998D01*
X0358333Y0403222D01*
X0358840Y0401998D01*
X0360331Y0400507D01*
X0360533Y0400423D01*
X0360533Y0296943D01*
X0360960Y0295914D01*
X0361747Y0295126D01*
X0368033Y0288840D01*
X0368033Y0287009D01*
X0367695Y0287673D01*
X0367223Y0288322D01*
X0366656Y0288890D01*
X0366006Y0289362D01*
X0365291Y0289726D01*
X0364528Y0289974D01*
X0363735Y0290100D01*
X0363733Y0290100D01*
X0363733Y0285400D01*
X0362933Y0285400D01*
X0362933Y0290100D01*
X0362932Y0290100D01*
X0362139Y0289974D01*
X0361376Y0289726D01*
X0360660Y0289362D01*
X0360011Y0288890D01*
X0359443Y0288322D01*
X0358971Y0287673D01*
X0358607Y0286958D01*
X0358454Y0286487D01*
X0357826Y0288002D01*
X0356336Y0289493D01*
X0354388Y0290300D01*
X0352279Y0290300D01*
X0350331Y0289493D01*
X0348840Y0288002D01*
X0348333Y0286778D01*
X0347826Y0288002D01*
X0346336Y0289493D01*
X0344388Y0290300D01*
X0342279Y0290300D01*
X0340331Y0289493D01*
X0338840Y0288002D01*
X0338333Y0286778D01*
X0337826Y0288002D01*
X0336336Y0289493D01*
X0334388Y0290300D01*
X0332279Y0290300D01*
X0330331Y0289493D01*
X0328840Y0288002D01*
X0328333Y0286778D01*
X0327826Y0288002D01*
X0326336Y0289493D01*
X0324388Y0290300D01*
X0322279Y0290300D01*
X0320331Y0289493D01*
X0318840Y0288002D01*
X0318333Y0286778D01*
X0317826Y0288002D01*
X0316336Y0289493D01*
X0314388Y0290300D01*
X0312279Y0290300D01*
X0310331Y0289493D01*
X0308840Y0288002D01*
X0308333Y0286778D01*
X0307826Y0288002D01*
X0306336Y0289493D01*
X0304388Y0290300D01*
X0302279Y0290300D01*
X0300331Y0289493D01*
X0298840Y0288002D01*
X0298033Y0286054D01*
X0298033Y0283946D01*
X0298840Y0281998D01*
X0300331Y0280507D01*
X0302279Y0279700D01*
X0304388Y0279700D01*
X0306336Y0280507D01*
X0307826Y0281998D01*
X0308333Y0283222D01*
X0308840Y0281998D01*
X0310331Y0280507D01*
X0312279Y0279700D01*
X0314388Y0279700D01*
X0316336Y0280507D01*
X0317826Y0281998D01*
X0318333Y0283222D01*
X0318840Y0281998D01*
X0320331Y0280507D01*
X0322279Y0279700D01*
X0324388Y0279700D01*
X0326336Y0280507D01*
X0327826Y0281998D01*
X0328333Y0283222D01*
X0328840Y0281998D01*
X0330331Y0280507D01*
X0332279Y0279700D01*
X0334388Y0279700D01*
X0336336Y0280507D01*
X0337826Y0281998D01*
X0338333Y0283222D01*
X0338840Y0281998D01*
X0340331Y0280507D01*
X0342279Y0279700D01*
X0344388Y0279700D01*
X0346336Y0280507D01*
X0347826Y0281998D01*
X0348333Y0283222D01*
X0348840Y0281998D01*
X0350331Y0280507D01*
X0352279Y0279700D01*
X0354388Y0279700D01*
X0356336Y0280507D01*
X0357826Y0281998D01*
X0358454Y0283513D01*
X0358607Y0283042D01*
X0358971Y0282327D01*
X0359443Y0281678D01*
X0360011Y0281110D01*
X0360660Y0280638D01*
X0361376Y0280274D01*
X0362139Y0280026D01*
X0362932Y0279900D01*
X0362933Y0279900D01*
X0362933Y0284600D01*
X0363733Y0284600D01*
X0363733Y0279900D01*
X0363735Y0279900D01*
X0364528Y0280026D01*
X0365291Y0280274D01*
X0366006Y0280638D01*
X0366656Y0281110D01*
X0367223Y0281678D01*
X0367695Y0282327D01*
X0368060Y0283042D01*
X0368213Y0283513D01*
X0368840Y0281998D01*
X0370331Y0280507D01*
X0372279Y0279700D01*
X0374388Y0279700D01*
X0376336Y0280507D01*
X0377826Y0281998D01*
X0378333Y0283222D01*
X0378840Y0281998D01*
X0380331Y0280507D01*
X0382279Y0279700D01*
X0384388Y0279700D01*
X0386336Y0280507D01*
X0387826Y0281998D01*
X0388333Y0283222D01*
X0388840Y0281998D01*
X0390331Y0280507D01*
X0392279Y0279700D01*
X0394388Y0279700D01*
X0396336Y0280507D01*
X0397826Y0281998D01*
X0398633Y0283946D01*
X0398633Y0286054D01*
X0398197Y0287106D01*
X0403883Y0292792D01*
X0403883Y0199192D01*
X0405026Y0198050D01*
X0418466Y0198050D01*
X0418466Y0196581D01*
X0419403Y0195644D01*
X0425453Y0195644D01*
X0426390Y0196581D01*
X0426390Y0203419D01*
X0425453Y0204356D01*
X0419403Y0204356D01*
X0418466Y0203419D01*
X0418466Y0201950D01*
X0407783Y0201950D01*
X0407783Y0307637D01*
X0408419Y0308272D01*
X0408883Y0309393D01*
X0408883Y0310607D01*
X0408419Y0311728D01*
X0407561Y0312586D01*
X0406440Y0313050D01*
X0405283Y0313050D01*
X0405283Y0400071D01*
X0406336Y0400507D01*
X0407826Y0401998D01*
X0408633Y0403946D01*
X0408633Y0406054D01*
X0407826Y0408002D01*
X0406336Y0409493D01*
X0404388Y0410300D01*
X0406387Y0409442D02*
X0423634Y0409442D01*
X0424432Y0408643D02*
X0421778Y0408643D01*
X0423055Y0408178D02*
X0419973Y0409300D01*
X0416693Y0409300D01*
X0413612Y0408178D01*
X0413612Y0408178D01*
X0411099Y0406070D01*
X0409459Y0403230D01*
X0408890Y0400000D01*
X0409459Y0396770D01*
X0411099Y0393930D01*
X0413612Y0391822D01*
X0416693Y0390700D01*
X0417505Y0390700D01*
X0419973Y0390700D01*
X0423055Y0391822D01*
X0425567Y0393930D01*
X0427207Y0396770D01*
X0427207Y0396770D01*
X0427777Y0400000D01*
X0427207Y0403230D01*
X0425567Y0406070D01*
X0423055Y0408178D01*
X0423055Y0408178D01*
X0423453Y0407845D02*
X0425231Y0407845D01*
X0426029Y0407046D02*
X0424404Y0407046D01*
X0425356Y0406248D02*
X0426828Y0406248D01*
X0427626Y0405449D02*
X0425926Y0405449D01*
X0425567Y0406070D02*
X0425567Y0406070D01*
X0426387Y0404651D02*
X0428425Y0404651D01*
X0428883Y0403852D02*
X0426848Y0403852D01*
X0427207Y0403230D02*
X0427207Y0403230D01*
X0427238Y0403054D02*
X0428883Y0403054D01*
X0428883Y0402255D02*
X0427379Y0402255D01*
X0427520Y0401457D02*
X0428883Y0401457D01*
X0428883Y0400658D02*
X0427661Y0400658D01*
X0427777Y0400000D02*
X0427777Y0400000D01*
X0427752Y0399860D02*
X0428883Y0399860D01*
X0428883Y0399061D02*
X0427611Y0399061D01*
X0427470Y0398263D02*
X0428883Y0398263D01*
X0428883Y0397464D02*
X0427330Y0397464D01*
X0427147Y0396666D02*
X0428883Y0396666D01*
X0428883Y0395867D02*
X0426686Y0395867D01*
X0426225Y0395069D02*
X0428883Y0395069D01*
X0428883Y0394270D02*
X0425764Y0394270D01*
X0425567Y0393930D02*
X0425567Y0393930D01*
X0425567Y0393930D01*
X0425021Y0393472D02*
X0428883Y0393472D01*
X0428883Y0392673D02*
X0424070Y0392673D01*
X0423118Y0391874D02*
X0428883Y0391874D01*
X0428883Y0391076D02*
X0421006Y0391076D01*
X0423055Y0391822D02*
X0423055Y0391822D01*
X0428883Y0390277D02*
X0405283Y0390277D01*
X0405283Y0389479D02*
X0428883Y0389479D01*
X0428883Y0388680D02*
X0405283Y0388680D01*
X0405283Y0387882D02*
X0428883Y0387882D01*
X0428883Y0387083D02*
X0405283Y0387083D01*
X0405283Y0386285D02*
X0428883Y0386285D01*
X0428883Y0385486D02*
X0405283Y0385486D01*
X0405283Y0384688D02*
X0428883Y0384688D01*
X0428883Y0383889D02*
X0405283Y0383889D01*
X0405283Y0383091D02*
X0428883Y0383091D01*
X0428883Y0382292D02*
X0405283Y0382292D01*
X0405283Y0381494D02*
X0428883Y0381494D01*
X0428883Y0380695D02*
X0405283Y0380695D01*
X0405283Y0379897D02*
X0428883Y0379897D01*
X0428883Y0379098D02*
X0405283Y0379098D01*
X0405283Y0378300D02*
X0428883Y0378300D01*
X0428883Y0377501D02*
X0405283Y0377501D01*
X0405283Y0376703D02*
X0428883Y0376703D01*
X0428883Y0375904D02*
X0405283Y0375904D01*
X0405283Y0375106D02*
X0428883Y0375106D01*
X0428883Y0374307D02*
X0405283Y0374307D01*
X0405283Y0373509D02*
X0428883Y0373509D01*
X0428883Y0372710D02*
X0405283Y0372710D01*
X0405283Y0371912D02*
X0428883Y0371912D01*
X0428883Y0371113D02*
X0405283Y0371113D01*
X0405283Y0370315D02*
X0428883Y0370315D01*
X0428883Y0369516D02*
X0405283Y0369516D01*
X0405283Y0368718D02*
X0428883Y0368718D01*
X0428883Y0367919D02*
X0405283Y0367919D01*
X0405283Y0367121D02*
X0428883Y0367121D01*
X0428883Y0366322D02*
X0405283Y0366322D01*
X0405283Y0365524D02*
X0428883Y0365524D01*
X0428883Y0364725D02*
X0405283Y0364725D01*
X0405283Y0363927D02*
X0428883Y0363927D01*
X0428883Y0363128D02*
X0405283Y0363128D01*
X0405283Y0362330D02*
X0428883Y0362330D01*
X0428883Y0361531D02*
X0405283Y0361531D01*
X0405283Y0360733D02*
X0428883Y0360733D01*
X0428883Y0359934D02*
X0405283Y0359934D01*
X0405283Y0359136D02*
X0428883Y0359136D01*
X0428883Y0358337D02*
X0405283Y0358337D01*
X0405283Y0357539D02*
X0428883Y0357539D01*
X0428883Y0356740D02*
X0405283Y0356740D01*
X0405283Y0355941D02*
X0428883Y0355941D01*
X0428883Y0355143D02*
X0405283Y0355143D01*
X0405283Y0354344D02*
X0428883Y0354344D01*
X0428883Y0353546D02*
X0405283Y0353546D01*
X0405283Y0352747D02*
X0428883Y0352747D01*
X0428883Y0351949D02*
X0405283Y0351949D01*
X0405283Y0351150D02*
X0428883Y0351150D01*
X0428883Y0350352D02*
X0405283Y0350352D01*
X0405283Y0349553D02*
X0428883Y0349553D01*
X0428883Y0348755D02*
X0405283Y0348755D01*
X0405283Y0347956D02*
X0428883Y0347956D01*
X0428883Y0347158D02*
X0405283Y0347158D01*
X0405283Y0346359D02*
X0428883Y0346359D01*
X0428883Y0345561D02*
X0405283Y0345561D01*
X0405283Y0344762D02*
X0428883Y0344762D01*
X0428883Y0343964D02*
X0405283Y0343964D01*
X0405283Y0343165D02*
X0428883Y0343165D01*
X0428883Y0342367D02*
X0405283Y0342367D01*
X0405283Y0341568D02*
X0428883Y0341568D01*
X0428883Y0340770D02*
X0405283Y0340770D01*
X0405283Y0339971D02*
X0428883Y0339971D01*
X0428883Y0339173D02*
X0405283Y0339173D01*
X0405283Y0338374D02*
X0428883Y0338374D01*
X0428883Y0337576D02*
X0405283Y0337576D01*
X0405283Y0336777D02*
X0428883Y0336777D01*
X0428883Y0335979D02*
X0405283Y0335979D01*
X0405283Y0335180D02*
X0428883Y0335180D01*
X0428883Y0334382D02*
X0405283Y0334382D01*
X0405283Y0333583D02*
X0428883Y0333583D01*
X0428883Y0332785D02*
X0405283Y0332785D01*
X0405283Y0331986D02*
X0428883Y0331986D01*
X0428883Y0331188D02*
X0405283Y0331188D01*
X0405283Y0330389D02*
X0428883Y0330389D01*
X0428883Y0329591D02*
X0405283Y0329591D01*
X0405283Y0328792D02*
X0428883Y0328792D01*
X0428883Y0327994D02*
X0405283Y0327994D01*
X0405283Y0327195D02*
X0428883Y0327195D01*
X0428883Y0326397D02*
X0405283Y0326397D01*
X0405283Y0325598D02*
X0428883Y0325598D01*
X0428883Y0324800D02*
X0405283Y0324800D01*
X0405283Y0324001D02*
X0428883Y0324001D01*
X0428883Y0323203D02*
X0405283Y0323203D01*
X0405283Y0322404D02*
X0428883Y0322404D01*
X0428883Y0321605D02*
X0405283Y0321605D01*
X0405283Y0320807D02*
X0428883Y0320807D01*
X0428883Y0320008D02*
X0405283Y0320008D01*
X0405283Y0319210D02*
X0428883Y0319210D01*
X0428883Y0318411D02*
X0405283Y0318411D01*
X0405283Y0317613D02*
X0428883Y0317613D01*
X0428883Y0316814D02*
X0405283Y0316814D01*
X0405283Y0316016D02*
X0428883Y0316016D01*
X0428883Y0315217D02*
X0405283Y0315217D01*
X0405283Y0314419D02*
X0428883Y0314419D01*
X0428883Y0313620D02*
X0405283Y0313620D01*
X0406991Y0312822D02*
X0428883Y0312822D01*
X0428883Y0312023D02*
X0408123Y0312023D01*
X0408627Y0311225D02*
X0428883Y0311225D01*
X0428883Y0310426D02*
X0408883Y0310426D01*
X0408883Y0309628D02*
X0428883Y0309628D01*
X0428883Y0308829D02*
X0408650Y0308829D01*
X0408177Y0308031D02*
X0428883Y0308031D01*
X0428883Y0307232D02*
X0407783Y0307232D01*
X0407783Y0306434D02*
X0428883Y0306434D01*
X0428883Y0305635D02*
X0407783Y0305635D01*
X0407783Y0304837D02*
X0428883Y0304837D01*
X0428883Y0304038D02*
X0407783Y0304038D01*
X0407783Y0303240D02*
X0428883Y0303240D01*
X0428883Y0302441D02*
X0407783Y0302441D01*
X0407783Y0301643D02*
X0428883Y0301643D01*
X0428883Y0300844D02*
X0407783Y0300844D01*
X0407783Y0300046D02*
X0428883Y0300046D01*
X0428883Y0299247D02*
X0420118Y0299247D01*
X0422312Y0298449D02*
X0428883Y0298449D01*
X0428883Y0297650D02*
X0423684Y0297650D01*
X0424636Y0296852D02*
X0428883Y0296852D01*
X0428883Y0296053D02*
X0425577Y0296053D01*
X0426038Y0295255D02*
X0428883Y0295255D01*
X0428883Y0294456D02*
X0426499Y0294456D01*
X0426960Y0293658D02*
X0428883Y0293658D01*
X0428883Y0292859D02*
X0427273Y0292859D01*
X0427413Y0292061D02*
X0428883Y0292061D01*
X0428883Y0291262D02*
X0427554Y0291262D01*
X0427695Y0290464D02*
X0428883Y0290464D01*
X0428883Y0289665D02*
X0427718Y0289665D01*
X0427577Y0288867D02*
X0428883Y0288867D01*
X0428644Y0288068D02*
X0427436Y0288068D01*
X0427295Y0287270D02*
X0427845Y0287270D01*
X0427047Y0286471D02*
X0427035Y0286471D01*
X0426383Y0284874D02*
X0426113Y0284874D01*
X0426383Y0284075D02*
X0425651Y0284075D01*
X0426383Y0283277D02*
X0424789Y0283277D01*
X0423838Y0282478D02*
X0426383Y0282478D01*
X0426383Y0281680D02*
X0422666Y0281680D01*
X0420472Y0280881D02*
X0426383Y0280881D01*
X0426383Y0280083D02*
X0407783Y0280083D01*
X0407783Y0280881D02*
X0416195Y0280881D01*
X0414001Y0281680D02*
X0407783Y0281680D01*
X0407783Y0282478D02*
X0412829Y0282478D01*
X0411877Y0283277D02*
X0407783Y0283277D01*
X0407783Y0284075D02*
X0411015Y0284075D01*
X0410554Y0284874D02*
X0407783Y0284874D01*
X0407783Y0285672D02*
X0410093Y0285672D01*
X0409632Y0286471D02*
X0407783Y0286471D01*
X0407783Y0287270D02*
X0409371Y0287270D01*
X0409231Y0288068D02*
X0407783Y0288068D01*
X0407783Y0288867D02*
X0409090Y0288867D01*
X0408949Y0289665D02*
X0407783Y0289665D01*
X0407783Y0290464D02*
X0408972Y0290464D01*
X0409112Y0291262D02*
X0407783Y0291262D01*
X0407783Y0292061D02*
X0409253Y0292061D01*
X0409394Y0292859D02*
X0407783Y0292859D01*
X0407783Y0293658D02*
X0409706Y0293658D01*
X0410167Y0294456D02*
X0407783Y0294456D01*
X0407783Y0295255D02*
X0410628Y0295255D01*
X0411089Y0296053D02*
X0407783Y0296053D01*
X0407783Y0296852D02*
X0412031Y0296852D01*
X0412982Y0297650D02*
X0407783Y0297650D01*
X0407783Y0298449D02*
X0414355Y0298449D01*
X0416548Y0299247D02*
X0407783Y0299247D01*
X0403883Y0292061D02*
X0403152Y0292061D01*
X0403883Y0291262D02*
X0402353Y0291262D01*
X0401555Y0290464D02*
X0403883Y0290464D01*
X0403883Y0289665D02*
X0400756Y0289665D01*
X0399958Y0288867D02*
X0403883Y0288867D01*
X0403883Y0288068D02*
X0399159Y0288068D01*
X0398361Y0287270D02*
X0403883Y0287270D01*
X0403883Y0286471D02*
X0398461Y0286471D01*
X0398633Y0285672D02*
X0403883Y0285672D01*
X0403883Y0284874D02*
X0398633Y0284874D01*
X0398633Y0284075D02*
X0403883Y0284075D01*
X0403883Y0283277D02*
X0398356Y0283277D01*
X0398026Y0282478D02*
X0403883Y0282478D01*
X0403883Y0281680D02*
X0397509Y0281680D01*
X0396710Y0280881D02*
X0403883Y0280881D01*
X0403883Y0280083D02*
X0395312Y0280083D01*
X0391355Y0280083D02*
X0385312Y0280083D01*
X0386710Y0280881D02*
X0389957Y0280881D01*
X0389158Y0281680D02*
X0387509Y0281680D01*
X0388026Y0282478D02*
X0388641Y0282478D01*
X0381355Y0280083D02*
X0375312Y0280083D01*
X0376710Y0280881D02*
X0379957Y0280881D01*
X0379158Y0281680D02*
X0377509Y0281680D01*
X0378026Y0282478D02*
X0378641Y0282478D01*
X0371355Y0280083D02*
X0364704Y0280083D01*
X0363733Y0280083D02*
X0362933Y0280083D01*
X0362933Y0280881D02*
X0363733Y0280881D01*
X0363733Y0281680D02*
X0362933Y0281680D01*
X0362933Y0282478D02*
X0363733Y0282478D01*
X0363733Y0283277D02*
X0362933Y0283277D01*
X0362933Y0284075D02*
X0363733Y0284075D01*
X0363733Y0285672D02*
X0362933Y0285672D01*
X0362933Y0286471D02*
X0363733Y0286471D01*
X0363733Y0287270D02*
X0362933Y0287270D01*
X0362933Y0288068D02*
X0363733Y0288068D01*
X0363733Y0288867D02*
X0362933Y0288867D01*
X0362933Y0289665D02*
X0363733Y0289665D01*
X0365411Y0289665D02*
X0367208Y0289665D01*
X0366679Y0288867D02*
X0368007Y0288867D01*
X0368033Y0288068D02*
X0367408Y0288068D01*
X0367901Y0287270D02*
X0368033Y0287270D01*
X0366410Y0290464D02*
X0295283Y0290464D01*
X0295283Y0291262D02*
X0365611Y0291262D01*
X0364813Y0292061D02*
X0295283Y0292061D01*
X0295283Y0292859D02*
X0364014Y0292859D01*
X0363216Y0293658D02*
X0295283Y0293658D01*
X0295283Y0294456D02*
X0362417Y0294456D01*
X0361619Y0295255D02*
X0295283Y0295255D01*
X0295283Y0296053D02*
X0360902Y0296053D01*
X0360571Y0296852D02*
X0295283Y0296852D01*
X0295283Y0297650D02*
X0360533Y0297650D01*
X0360533Y0298449D02*
X0295283Y0298449D01*
X0295283Y0299247D02*
X0360533Y0299247D01*
X0360533Y0300046D02*
X0295283Y0300046D01*
X0295283Y0300844D02*
X0360533Y0300844D01*
X0360533Y0301643D02*
X0295283Y0301643D01*
X0295283Y0302441D02*
X0360533Y0302441D01*
X0360533Y0303240D02*
X0295283Y0303240D01*
X0295283Y0304038D02*
X0360533Y0304038D01*
X0360533Y0304837D02*
X0295283Y0304837D01*
X0295283Y0305635D02*
X0360533Y0305635D01*
X0360533Y0306434D02*
X0295283Y0306434D01*
X0295283Y0307232D02*
X0360533Y0307232D01*
X0360533Y0308031D02*
X0295283Y0308031D01*
X0295283Y0308829D02*
X0360533Y0308829D01*
X0360533Y0309628D02*
X0295283Y0309628D01*
X0295283Y0310426D02*
X0360533Y0310426D01*
X0360533Y0311225D02*
X0295283Y0311225D01*
X0295283Y0312023D02*
X0360533Y0312023D01*
X0360533Y0312822D02*
X0295283Y0312822D01*
X0295283Y0313620D02*
X0360533Y0313620D01*
X0360533Y0314419D02*
X0295283Y0314419D01*
X0295283Y0315217D02*
X0360533Y0315217D01*
X0360533Y0316016D02*
X0295283Y0316016D01*
X0295283Y0316814D02*
X0360533Y0316814D01*
X0360533Y0317613D02*
X0295283Y0317613D01*
X0295283Y0318411D02*
X0360533Y0318411D01*
X0360533Y0319210D02*
X0295283Y0319210D01*
X0295283Y0320008D02*
X0360533Y0320008D01*
X0360533Y0320807D02*
X0295283Y0320807D01*
X0295283Y0321605D02*
X0360533Y0321605D01*
X0360533Y0322404D02*
X0295283Y0322404D01*
X0295283Y0323203D02*
X0360533Y0323203D01*
X0360533Y0324001D02*
X0295283Y0324001D01*
X0295283Y0324800D02*
X0360533Y0324800D01*
X0360533Y0325598D02*
X0295283Y0325598D01*
X0295283Y0326397D02*
X0360533Y0326397D01*
X0360533Y0327195D02*
X0295283Y0327195D01*
X0295283Y0327994D02*
X0360533Y0327994D01*
X0360533Y0328792D02*
X0295283Y0328792D01*
X0295283Y0329591D02*
X0360533Y0329591D01*
X0360533Y0330389D02*
X0295283Y0330389D01*
X0295283Y0331188D02*
X0360533Y0331188D01*
X0360533Y0331986D02*
X0295283Y0331986D01*
X0295283Y0332785D02*
X0360533Y0332785D01*
X0360533Y0333583D02*
X0295283Y0333583D01*
X0295283Y0334382D02*
X0360533Y0334382D01*
X0360533Y0335180D02*
X0295283Y0335180D01*
X0295283Y0335979D02*
X0360533Y0335979D01*
X0360533Y0336777D02*
X0295283Y0336777D01*
X0295283Y0337576D02*
X0360533Y0337576D01*
X0360533Y0338374D02*
X0295283Y0338374D01*
X0295283Y0339173D02*
X0360533Y0339173D01*
X0360533Y0339971D02*
X0295283Y0339971D01*
X0295283Y0340770D02*
X0360533Y0340770D01*
X0360533Y0341568D02*
X0295283Y0341568D01*
X0295283Y0342367D02*
X0360533Y0342367D01*
X0360533Y0343165D02*
X0295283Y0343165D01*
X0295283Y0343964D02*
X0360533Y0343964D01*
X0360533Y0344762D02*
X0295283Y0344762D01*
X0295283Y0345561D02*
X0360533Y0345561D01*
X0360533Y0346359D02*
X0295283Y0346359D01*
X0295283Y0347158D02*
X0360533Y0347158D01*
X0360533Y0347956D02*
X0295283Y0347956D01*
X0295283Y0348755D02*
X0360533Y0348755D01*
X0360533Y0349553D02*
X0295283Y0349553D01*
X0295283Y0350352D02*
X0360533Y0350352D01*
X0360533Y0351150D02*
X0295283Y0351150D01*
X0295283Y0351949D02*
X0360533Y0351949D01*
X0360533Y0352747D02*
X0295283Y0352747D01*
X0295283Y0353546D02*
X0360533Y0353546D01*
X0360533Y0354344D02*
X0295283Y0354344D01*
X0295283Y0355143D02*
X0360533Y0355143D01*
X0360533Y0355941D02*
X0295283Y0355941D01*
X0295283Y0356740D02*
X0360533Y0356740D01*
X0360533Y0357539D02*
X0295283Y0357539D01*
X0295283Y0358337D02*
X0360533Y0358337D01*
X0360533Y0359136D02*
X0295283Y0359136D01*
X0295283Y0359934D02*
X0360533Y0359934D01*
X0360533Y0360733D02*
X0295283Y0360733D01*
X0295283Y0361531D02*
X0360533Y0361531D01*
X0360533Y0362330D02*
X0295283Y0362330D01*
X0295283Y0363128D02*
X0360533Y0363128D01*
X0360533Y0363927D02*
X0295283Y0363927D01*
X0295283Y0364725D02*
X0360533Y0364725D01*
X0360533Y0365524D02*
X0295283Y0365524D01*
X0295283Y0366322D02*
X0360533Y0366322D01*
X0360533Y0367121D02*
X0295283Y0367121D01*
X0295283Y0367919D02*
X0360533Y0367919D01*
X0360533Y0368718D02*
X0295283Y0368718D01*
X0295283Y0369516D02*
X0360533Y0369516D01*
X0360533Y0370315D02*
X0295283Y0370315D01*
X0295283Y0371113D02*
X0360533Y0371113D01*
X0360533Y0371912D02*
X0295283Y0371912D01*
X0295283Y0372710D02*
X0360533Y0372710D01*
X0360533Y0373509D02*
X0295283Y0373509D01*
X0295283Y0374307D02*
X0360533Y0374307D01*
X0360533Y0375106D02*
X0295283Y0375106D01*
X0295283Y0375904D02*
X0360533Y0375904D01*
X0360533Y0376703D02*
X0295283Y0376703D01*
X0295283Y0377501D02*
X0360533Y0377501D01*
X0360533Y0378300D02*
X0295283Y0378300D01*
X0295283Y0379098D02*
X0360533Y0379098D01*
X0360533Y0379897D02*
X0295283Y0379897D01*
X0295283Y0380695D02*
X0360533Y0380695D01*
X0360533Y0381494D02*
X0295283Y0381494D01*
X0295283Y0382292D02*
X0360533Y0382292D01*
X0360533Y0383091D02*
X0295283Y0383091D01*
X0295283Y0383889D02*
X0360533Y0383889D01*
X0360533Y0384688D02*
X0295283Y0384688D01*
X0295283Y0385486D02*
X0360533Y0385486D01*
X0360533Y0386285D02*
X0295283Y0386285D01*
X0295283Y0387083D02*
X0360533Y0387083D01*
X0360533Y0387882D02*
X0295283Y0387882D01*
X0295283Y0388680D02*
X0360533Y0388680D01*
X0360533Y0389479D02*
X0295283Y0389479D01*
X0295283Y0390277D02*
X0360533Y0390277D01*
X0360533Y0391076D02*
X0295283Y0391076D01*
X0295283Y0391874D02*
X0360533Y0391874D01*
X0360533Y0392673D02*
X0295283Y0392673D01*
X0295283Y0393472D02*
X0360533Y0393472D01*
X0360533Y0394270D02*
X0295283Y0394270D01*
X0295283Y0395069D02*
X0360533Y0395069D01*
X0360533Y0395867D02*
X0295283Y0395867D01*
X0295283Y0396666D02*
X0360533Y0396666D01*
X0360533Y0397464D02*
X0295283Y0397464D01*
X0295283Y0398263D02*
X0360533Y0398263D01*
X0360533Y0399061D02*
X0295283Y0399061D01*
X0295283Y0399860D02*
X0351894Y0399860D01*
X0350180Y0400658D02*
X0346034Y0400658D01*
X0347002Y0401457D02*
X0349381Y0401457D01*
X0348734Y0402255D02*
X0347643Y0402255D01*
X0348063Y0403054D02*
X0348403Y0403054D01*
X0348444Y0407046D02*
X0348015Y0407046D01*
X0347570Y0407845D02*
X0348775Y0407845D01*
X0349481Y0408643D02*
X0346903Y0408643D01*
X0345850Y0409442D02*
X0350280Y0409442D01*
X0352135Y0410240D02*
X0295283Y0410240D01*
X0295283Y0409442D02*
X0340817Y0409442D01*
X0340660Y0409362D02*
X0340011Y0408890D01*
X0339443Y0408322D01*
X0338971Y0407673D01*
X0338607Y0406958D01*
X0338359Y0406194D01*
X0338233Y0405401D01*
X0338233Y0405400D01*
X0342933Y0405400D01*
X0342933Y0410100D01*
X0342932Y0410100D01*
X0342139Y0409974D01*
X0341376Y0409726D01*
X0340660Y0409362D01*
X0339764Y0408643D02*
X0295283Y0408643D01*
X0295283Y0407845D02*
X0339096Y0407845D01*
X0338652Y0407046D02*
X0295283Y0407046D01*
X0295283Y0406248D02*
X0338376Y0406248D01*
X0338241Y0405449D02*
X0295283Y0405449D01*
X0295283Y0404651D02*
X0342933Y0404651D01*
X0342933Y0405449D02*
X0343733Y0405449D01*
X0343733Y0406248D02*
X0342933Y0406248D01*
X0342933Y0407046D02*
X0343733Y0407046D01*
X0343733Y0407845D02*
X0342933Y0407845D01*
X0342933Y0408643D02*
X0343733Y0408643D01*
X0343733Y0409442D02*
X0342933Y0409442D01*
X0342933Y0403852D02*
X0343733Y0403852D01*
X0343733Y0403054D02*
X0342933Y0403054D01*
X0342933Y0402255D02*
X0343733Y0402255D01*
X0343733Y0401457D02*
X0342933Y0401457D01*
X0342933Y0400658D02*
X0343733Y0400658D01*
X0340633Y0400658D02*
X0295283Y0400658D01*
X0295283Y0401457D02*
X0339664Y0401457D01*
X0339024Y0402255D02*
X0295283Y0402255D01*
X0295283Y0403054D02*
X0338603Y0403054D01*
X0338352Y0403852D02*
X0295283Y0403852D01*
X0288883Y0403852D02*
X0286848Y0403852D01*
X0287207Y0403230D02*
X0287207Y0403230D01*
X0287238Y0403054D02*
X0288883Y0403054D01*
X0288883Y0402255D02*
X0287379Y0402255D01*
X0287520Y0401457D02*
X0288883Y0401457D01*
X0288883Y0400658D02*
X0287661Y0400658D01*
X0287777Y0400000D02*
X0287777Y0400000D01*
X0287752Y0399860D02*
X0288883Y0399860D01*
X0288883Y0399061D02*
X0287611Y0399061D01*
X0287470Y0398263D02*
X0288883Y0398263D01*
X0288883Y0397464D02*
X0287330Y0397464D01*
X0287147Y0396666D02*
X0288883Y0396666D01*
X0288883Y0395867D02*
X0286686Y0395867D01*
X0286225Y0395069D02*
X0288883Y0395069D01*
X0288883Y0394270D02*
X0285764Y0394270D01*
X0285567Y0393930D02*
X0285567Y0393930D01*
X0285567Y0393930D01*
X0285021Y0393472D02*
X0288883Y0393472D01*
X0288883Y0392673D02*
X0284070Y0392673D01*
X0283118Y0391874D02*
X0288883Y0391874D01*
X0288883Y0391076D02*
X0281006Y0391076D01*
X0275660Y0391076D02*
X0210433Y0391076D01*
X0210433Y0391874D02*
X0273549Y0391874D01*
X0273612Y0391822D02*
X0273612Y0391822D01*
X0272597Y0392673D02*
X0210433Y0392673D01*
X0210433Y0393472D02*
X0271645Y0393472D01*
X0271099Y0393930D02*
X0271099Y0393930D01*
X0270903Y0394270D02*
X0210433Y0394270D01*
X0210433Y0395069D02*
X0270442Y0395069D01*
X0269981Y0395867D02*
X0210433Y0395867D01*
X0210433Y0396666D02*
X0269520Y0396666D01*
X0269459Y0396770D02*
X0269459Y0396770D01*
X0269337Y0397464D02*
X0210433Y0397464D01*
X0210433Y0398263D02*
X0269196Y0398263D01*
X0269055Y0399061D02*
X0210433Y0399061D01*
X0210433Y0399860D02*
X0268915Y0399860D01*
X0268890Y0400000D02*
X0268890Y0400000D01*
X0269006Y0400658D02*
X0210433Y0400658D01*
X0210433Y0390277D02*
X0288883Y0390277D01*
X0288883Y0389479D02*
X0210433Y0389479D01*
X0210433Y0388680D02*
X0288883Y0388680D01*
X0288883Y0387882D02*
X0210433Y0387882D01*
X0210433Y0387083D02*
X0288883Y0387083D01*
X0288883Y0386285D02*
X0210433Y0386285D01*
X0210433Y0385486D02*
X0288883Y0385486D01*
X0288883Y0384688D02*
X0210433Y0384688D01*
X0210433Y0383889D02*
X0288883Y0383889D01*
X0288883Y0383091D02*
X0210433Y0383091D01*
X0210433Y0382292D02*
X0288883Y0382292D01*
X0288883Y0381494D02*
X0210433Y0381494D01*
X0210433Y0380695D02*
X0288883Y0380695D01*
X0288883Y0379897D02*
X0210433Y0379897D01*
X0210433Y0379098D02*
X0288883Y0379098D01*
X0288883Y0378300D02*
X0210433Y0378300D01*
X0210433Y0377501D02*
X0288883Y0377501D01*
X0288883Y0376703D02*
X0210433Y0376703D01*
X0210433Y0375904D02*
X0288883Y0375904D01*
X0288883Y0375106D02*
X0210433Y0375106D01*
X0210433Y0374307D02*
X0288883Y0374307D01*
X0288883Y0373509D02*
X0210433Y0373509D01*
X0210433Y0372710D02*
X0288883Y0372710D01*
X0288883Y0371912D02*
X0210433Y0371912D01*
X0210433Y0371113D02*
X0288883Y0371113D01*
X0288883Y0370315D02*
X0210433Y0370315D01*
X0210433Y0369516D02*
X0288883Y0369516D01*
X0288883Y0368718D02*
X0210433Y0368718D01*
X0210433Y0367919D02*
X0288883Y0367919D01*
X0288883Y0367121D02*
X0210433Y0367121D01*
X0210433Y0366322D02*
X0288883Y0366322D01*
X0288883Y0365524D02*
X0210433Y0365524D01*
X0210433Y0364725D02*
X0288883Y0364725D01*
X0288883Y0363927D02*
X0210433Y0363927D01*
X0210433Y0363128D02*
X0288883Y0363128D01*
X0288883Y0362330D02*
X0210433Y0362330D01*
X0210433Y0361531D02*
X0288883Y0361531D01*
X0288883Y0360733D02*
X0210433Y0360733D01*
X0210433Y0359934D02*
X0288883Y0359934D01*
X0288883Y0359136D02*
X0210433Y0359136D01*
X0210433Y0358337D02*
X0288883Y0358337D01*
X0288883Y0357539D02*
X0210433Y0357539D01*
X0210433Y0356740D02*
X0288883Y0356740D01*
X0288883Y0355941D02*
X0210433Y0355941D01*
X0210433Y0355143D02*
X0288883Y0355143D01*
X0288883Y0354344D02*
X0210433Y0354344D01*
X0210433Y0353546D02*
X0288883Y0353546D01*
X0288883Y0352747D02*
X0210433Y0352747D01*
X0210433Y0351949D02*
X0288883Y0351949D01*
X0288883Y0351150D02*
X0210433Y0351150D01*
X0210433Y0350352D02*
X0288883Y0350352D01*
X0288883Y0349553D02*
X0210433Y0349553D01*
X0210433Y0348755D02*
X0288883Y0348755D01*
X0288883Y0347956D02*
X0210433Y0347956D01*
X0210433Y0347158D02*
X0288883Y0347158D01*
X0288883Y0346359D02*
X0210433Y0346359D01*
X0210433Y0345561D02*
X0288883Y0345561D01*
X0288883Y0344762D02*
X0210433Y0344762D01*
X0210433Y0343964D02*
X0288883Y0343964D01*
X0288883Y0343165D02*
X0210433Y0343165D01*
X0210433Y0342367D02*
X0288883Y0342367D01*
X0288883Y0341568D02*
X0210433Y0341568D01*
X0210433Y0340770D02*
X0288883Y0340770D01*
X0288883Y0339971D02*
X0210433Y0339971D01*
X0210433Y0339173D02*
X0288883Y0339173D01*
X0288883Y0338374D02*
X0210433Y0338374D01*
X0210433Y0337576D02*
X0288883Y0337576D01*
X0288883Y0336777D02*
X0210433Y0336777D01*
X0210433Y0335979D02*
X0288883Y0335979D01*
X0288883Y0335180D02*
X0210433Y0335180D01*
X0210433Y0334382D02*
X0288883Y0334382D01*
X0288883Y0333583D02*
X0210433Y0333583D01*
X0210433Y0332785D02*
X0288883Y0332785D01*
X0288883Y0331986D02*
X0210433Y0331986D01*
X0210433Y0331188D02*
X0288883Y0331188D01*
X0288883Y0330389D02*
X0210433Y0330389D01*
X0210433Y0329591D02*
X0288883Y0329591D01*
X0288883Y0328792D02*
X0210433Y0328792D01*
X0210433Y0327994D02*
X0288883Y0327994D01*
X0288883Y0327195D02*
X0210433Y0327195D01*
X0210433Y0326397D02*
X0288883Y0326397D01*
X0288883Y0325598D02*
X0210433Y0325598D01*
X0210433Y0324800D02*
X0288883Y0324800D01*
X0288883Y0324001D02*
X0210433Y0324001D01*
X0210433Y0323203D02*
X0288883Y0323203D01*
X0288883Y0322404D02*
X0210433Y0322404D01*
X0210433Y0321605D02*
X0288883Y0321605D01*
X0288883Y0320807D02*
X0210433Y0320807D01*
X0210433Y0320008D02*
X0288883Y0320008D01*
X0288883Y0319210D02*
X0210433Y0319210D01*
X0210433Y0318411D02*
X0288883Y0318411D01*
X0288883Y0317613D02*
X0210433Y0317613D01*
X0210433Y0316814D02*
X0288883Y0316814D01*
X0288883Y0316016D02*
X0210433Y0316016D01*
X0210433Y0315217D02*
X0288883Y0315217D01*
X0288883Y0314419D02*
X0210433Y0314419D01*
X0210433Y0313620D02*
X0288883Y0313620D01*
X0288883Y0312822D02*
X0210433Y0312822D01*
X0210433Y0312023D02*
X0288883Y0312023D01*
X0288883Y0311225D02*
X0210433Y0311225D01*
X0210433Y0310426D02*
X0288883Y0310426D01*
X0288883Y0309628D02*
X0210433Y0309628D01*
X0210433Y0308829D02*
X0288883Y0308829D01*
X0288883Y0308031D02*
X0210433Y0308031D01*
X0210433Y0307232D02*
X0288883Y0307232D01*
X0288883Y0306434D02*
X0210433Y0306434D01*
X0210433Y0305635D02*
X0288883Y0305635D01*
X0288883Y0304837D02*
X0210433Y0304837D01*
X0210433Y0304038D02*
X0288883Y0304038D01*
X0288883Y0303240D02*
X0210433Y0303240D01*
X0210433Y0302441D02*
X0288883Y0302441D01*
X0288883Y0301643D02*
X0210433Y0301643D01*
X0210433Y0300844D02*
X0288883Y0300844D01*
X0288883Y0300046D02*
X0210433Y0300046D01*
X0210433Y0299247D02*
X0276548Y0299247D01*
X0276693Y0299300D02*
X0273612Y0298178D01*
X0271099Y0296070D01*
X0269459Y0293230D01*
X0268890Y0290000D01*
X0269459Y0286770D01*
X0271099Y0283930D01*
X0273612Y0281822D01*
X0276693Y0280700D01*
X0277505Y0280700D01*
X0279973Y0280700D01*
X0283055Y0281822D01*
X0285567Y0283930D01*
X0287207Y0286770D01*
X0287207Y0286770D01*
X0287777Y0290000D01*
X0287207Y0293230D01*
X0285567Y0296070D01*
X0283055Y0298178D01*
X0279973Y0299300D01*
X0276693Y0299300D01*
X0274355Y0298449D02*
X0210433Y0298449D01*
X0210433Y0297650D02*
X0272982Y0297650D01*
X0273612Y0298178D02*
X0273612Y0298178D01*
X0272031Y0296852D02*
X0210433Y0296852D01*
X0210433Y0296053D02*
X0271089Y0296053D01*
X0271099Y0296070D02*
X0271099Y0296070D01*
X0270628Y0295255D02*
X0210433Y0295255D01*
X0210433Y0294456D02*
X0270167Y0294456D01*
X0269706Y0293658D02*
X0210433Y0293658D01*
X0210433Y0292859D02*
X0269394Y0292859D01*
X0269253Y0292061D02*
X0210433Y0292061D01*
X0210433Y0291262D02*
X0269112Y0291262D01*
X0268972Y0290464D02*
X0210433Y0290464D01*
X0210433Y0289665D02*
X0268949Y0289665D01*
X0268890Y0290000D02*
X0268890Y0290000D01*
X0269090Y0288867D02*
X0258664Y0288867D01*
X0257473Y0289300D02*
X0254193Y0289300D01*
X0251112Y0288178D01*
X0251112Y0288178D01*
X0248599Y0286070D01*
X0246959Y0283230D01*
X0246390Y0280000D01*
X0246959Y0276770D01*
X0248599Y0273930D01*
X0248599Y0273930D01*
X0251112Y0271822D01*
X0251112Y0271822D01*
X0254193Y0270700D01*
X0255005Y0270700D01*
X0257473Y0270700D01*
X0260555Y0271822D01*
X0263067Y0273930D01*
X0264707Y0276770D01*
X0264707Y0276770D01*
X0265277Y0280000D01*
X0264707Y0283230D01*
X0263067Y0286070D01*
X0260555Y0288178D01*
X0257473Y0289300D01*
X0260555Y0288178D02*
X0260555Y0288178D01*
X0260686Y0288068D02*
X0269231Y0288068D01*
X0269371Y0287270D02*
X0261638Y0287270D01*
X0262590Y0286471D02*
X0269632Y0286471D01*
X0269459Y0286770D02*
X0269459Y0286770D01*
X0270093Y0285672D02*
X0263297Y0285672D01*
X0263067Y0286070D02*
X0263067Y0286070D01*
X0263758Y0284874D02*
X0270554Y0284874D01*
X0271015Y0284075D02*
X0264219Y0284075D01*
X0264680Y0283277D02*
X0271877Y0283277D01*
X0271099Y0283930D02*
X0271099Y0283930D01*
X0272829Y0282478D02*
X0264840Y0282478D01*
X0264707Y0283230D02*
X0264707Y0283230D01*
X0264981Y0281680D02*
X0274001Y0281680D01*
X0273612Y0281822D02*
X0273612Y0281822D01*
X0276195Y0280881D02*
X0265121Y0280881D01*
X0265262Y0280083D02*
X0288883Y0280083D01*
X0288883Y0280881D02*
X0280472Y0280881D01*
X0282666Y0281680D02*
X0288883Y0281680D01*
X0288883Y0282478D02*
X0283838Y0282478D01*
X0283055Y0281822D02*
X0283055Y0281822D01*
X0284789Y0283277D02*
X0288883Y0283277D01*
X0288883Y0284075D02*
X0285651Y0284075D01*
X0285567Y0283930D02*
X0285567Y0283930D01*
X0285567Y0283930D01*
X0286113Y0284874D02*
X0288883Y0284874D01*
X0288883Y0285672D02*
X0286574Y0285672D01*
X0287035Y0286471D02*
X0288883Y0286471D01*
X0288883Y0287270D02*
X0287295Y0287270D01*
X0287436Y0288068D02*
X0288883Y0288068D01*
X0288883Y0288867D02*
X0287577Y0288867D01*
X0287718Y0289665D02*
X0288883Y0289665D01*
X0288883Y0290464D02*
X0287695Y0290464D01*
X0287777Y0290000D02*
X0287777Y0290000D01*
X0287554Y0291262D02*
X0288883Y0291262D01*
X0288883Y0292061D02*
X0287413Y0292061D01*
X0287273Y0292859D02*
X0288883Y0292859D01*
X0288883Y0293658D02*
X0286960Y0293658D01*
X0287207Y0293230D02*
X0287207Y0293230D01*
X0286499Y0294456D02*
X0288883Y0294456D01*
X0288883Y0295255D02*
X0286038Y0295255D01*
X0285577Y0296053D02*
X0288883Y0296053D01*
X0288883Y0296852D02*
X0284636Y0296852D01*
X0285567Y0296070D02*
X0285567Y0296070D01*
X0283684Y0297650D02*
X0288883Y0297650D01*
X0288883Y0298449D02*
X0282312Y0298449D01*
X0283055Y0298178D02*
X0283055Y0298178D01*
X0280118Y0299247D02*
X0288883Y0299247D01*
X0295283Y0289665D02*
X0300746Y0289665D01*
X0299705Y0288867D02*
X0295283Y0288867D01*
X0295283Y0288068D02*
X0298906Y0288068D01*
X0298537Y0287270D02*
X0295283Y0287270D01*
X0295283Y0286471D02*
X0298206Y0286471D01*
X0298033Y0285672D02*
X0295283Y0285672D01*
X0295283Y0284874D02*
X0298033Y0284874D01*
X0298033Y0284075D02*
X0295283Y0284075D01*
X0295283Y0283277D02*
X0298310Y0283277D01*
X0298641Y0282478D02*
X0295283Y0282478D01*
X0295283Y0281680D02*
X0299158Y0281680D01*
X0299957Y0280881D02*
X0295283Y0280881D01*
X0295283Y0280083D02*
X0301355Y0280083D01*
X0305312Y0280083D02*
X0311355Y0280083D01*
X0309957Y0280881D02*
X0306710Y0280881D01*
X0307509Y0281680D02*
X0309158Y0281680D01*
X0308641Y0282478D02*
X0308026Y0282478D01*
X0308130Y0287270D02*
X0308537Y0287270D01*
X0308906Y0288068D02*
X0307761Y0288068D01*
X0306962Y0288867D02*
X0309705Y0288867D01*
X0310746Y0289665D02*
X0305920Y0289665D01*
X0315920Y0289665D02*
X0320746Y0289665D01*
X0319705Y0288867D02*
X0316962Y0288867D01*
X0317761Y0288068D02*
X0318906Y0288068D01*
X0318537Y0287270D02*
X0318130Y0287270D01*
X0318026Y0282478D02*
X0318641Y0282478D01*
X0319158Y0281680D02*
X0317509Y0281680D01*
X0316710Y0280881D02*
X0319957Y0280881D01*
X0321355Y0280083D02*
X0315312Y0280083D01*
X0325312Y0280083D02*
X0331355Y0280083D01*
X0329957Y0280881D02*
X0326710Y0280881D01*
X0327509Y0281680D02*
X0329158Y0281680D01*
X0328641Y0282478D02*
X0328026Y0282478D01*
X0328130Y0287270D02*
X0328537Y0287270D01*
X0328906Y0288068D02*
X0327761Y0288068D01*
X0326962Y0288867D02*
X0329705Y0288867D01*
X0330746Y0289665D02*
X0325920Y0289665D01*
X0335920Y0289665D02*
X0340746Y0289665D01*
X0339705Y0288867D02*
X0336962Y0288867D01*
X0337761Y0288068D02*
X0338906Y0288068D01*
X0338537Y0287270D02*
X0338130Y0287270D01*
X0338026Y0282478D02*
X0338641Y0282478D01*
X0339158Y0281680D02*
X0337509Y0281680D01*
X0336710Y0280881D02*
X0339957Y0280881D01*
X0341355Y0280083D02*
X0335312Y0280083D01*
X0342314Y0267022D02*
X0341233Y0264412D01*
X0341233Y0261588D01*
X0342314Y0258978D01*
X0344311Y0256981D01*
X0346921Y0255900D01*
X0349746Y0255900D01*
X0352355Y0256981D01*
X0354352Y0258978D01*
X0355433Y0261588D01*
X0355433Y0264412D01*
X0354352Y0267022D01*
X0352355Y0269019D01*
X0349746Y0270100D01*
X0346921Y0270100D01*
X0344311Y0269019D01*
X0342314Y0267022D01*
X0342599Y0267307D02*
X0295283Y0267307D01*
X0295283Y0268105D02*
X0343398Y0268105D01*
X0344196Y0268904D02*
X0295283Y0268904D01*
X0295283Y0269702D02*
X0345961Y0269702D01*
X0350706Y0269702D02*
X0403883Y0269702D01*
X0403883Y0268904D02*
X0352470Y0268904D01*
X0353269Y0268105D02*
X0403883Y0268105D01*
X0403883Y0267307D02*
X0354068Y0267307D01*
X0354565Y0266508D02*
X0403883Y0266508D01*
X0403883Y0265710D02*
X0354896Y0265710D01*
X0355227Y0264911D02*
X0403883Y0264911D01*
X0403883Y0264113D02*
X0355433Y0264113D01*
X0355433Y0263314D02*
X0403883Y0263314D01*
X0403883Y0262516D02*
X0355433Y0262516D01*
X0355433Y0261717D02*
X0403883Y0261717D01*
X0403883Y0260919D02*
X0355156Y0260919D01*
X0354825Y0260120D02*
X0403883Y0260120D01*
X0403883Y0259322D02*
X0354495Y0259322D01*
X0353897Y0258523D02*
X0403883Y0258523D01*
X0403883Y0257725D02*
X0353099Y0257725D01*
X0352223Y0256926D02*
X0403883Y0256926D01*
X0403883Y0256128D02*
X0350295Y0256128D01*
X0346372Y0256128D02*
X0295283Y0256128D01*
X0295283Y0256926D02*
X0344444Y0256926D01*
X0343568Y0257725D02*
X0295283Y0257725D01*
X0295283Y0258523D02*
X0342769Y0258523D01*
X0342172Y0259322D02*
X0295283Y0259322D01*
X0295283Y0260120D02*
X0341841Y0260120D01*
X0341510Y0260919D02*
X0295283Y0260919D01*
X0295283Y0261717D02*
X0341233Y0261717D01*
X0341233Y0262516D02*
X0295283Y0262516D01*
X0295283Y0263314D02*
X0341233Y0263314D01*
X0341233Y0264113D02*
X0295283Y0264113D01*
X0295283Y0264911D02*
X0341440Y0264911D01*
X0341771Y0265710D02*
X0295283Y0265710D01*
X0295283Y0266508D02*
X0342102Y0266508D01*
X0345312Y0280083D02*
X0351355Y0280083D01*
X0349957Y0280881D02*
X0346710Y0280881D01*
X0347509Y0281680D02*
X0349158Y0281680D01*
X0348641Y0282478D02*
X0348026Y0282478D01*
X0348130Y0287270D02*
X0348537Y0287270D01*
X0348906Y0288068D02*
X0347761Y0288068D01*
X0346962Y0288867D02*
X0349705Y0288867D01*
X0350746Y0289665D02*
X0345920Y0289665D01*
X0355920Y0289665D02*
X0361255Y0289665D01*
X0359987Y0288867D02*
X0356962Y0288867D01*
X0357761Y0288068D02*
X0359258Y0288068D01*
X0358766Y0287270D02*
X0358130Y0287270D01*
X0358356Y0283277D02*
X0358531Y0283277D01*
X0358894Y0282478D02*
X0358026Y0282478D01*
X0357509Y0281680D02*
X0359442Y0281680D01*
X0360325Y0280881D02*
X0356710Y0280881D01*
X0355312Y0280083D02*
X0361963Y0280083D01*
X0366341Y0280881D02*
X0369957Y0280881D01*
X0369158Y0281680D02*
X0367225Y0281680D01*
X0367772Y0282478D02*
X0368641Y0282478D01*
X0368310Y0283277D02*
X0368136Y0283277D01*
X0403883Y0279284D02*
X0295283Y0279284D01*
X0295283Y0278486D02*
X0403883Y0278486D01*
X0403883Y0277687D02*
X0295283Y0277687D01*
X0295283Y0276889D02*
X0403883Y0276889D01*
X0403883Y0276090D02*
X0295283Y0276090D01*
X0295283Y0275292D02*
X0403883Y0275292D01*
X0403883Y0274493D02*
X0295283Y0274493D01*
X0295283Y0273695D02*
X0403883Y0273695D01*
X0403883Y0272896D02*
X0295283Y0272896D01*
X0295283Y0272098D02*
X0403883Y0272098D01*
X0403883Y0271299D02*
X0295283Y0271299D01*
X0295283Y0270501D02*
X0403883Y0270501D01*
X0407783Y0270501D02*
X0426383Y0270501D01*
X0426383Y0271299D02*
X0407783Y0271299D01*
X0407783Y0272098D02*
X0426383Y0272098D01*
X0426383Y0272896D02*
X0407783Y0272896D01*
X0407783Y0273695D02*
X0426383Y0273695D01*
X0426383Y0274493D02*
X0407783Y0274493D01*
X0407783Y0275292D02*
X0426383Y0275292D01*
X0426383Y0276090D02*
X0407783Y0276090D01*
X0407783Y0276889D02*
X0426383Y0276889D01*
X0426383Y0277687D02*
X0407783Y0277687D01*
X0407783Y0278486D02*
X0426383Y0278486D01*
X0426383Y0279284D02*
X0407783Y0279284D01*
X0407783Y0269702D02*
X0426383Y0269702D01*
X0426383Y0268904D02*
X0407783Y0268904D01*
X0407783Y0268105D02*
X0426383Y0268105D01*
X0426383Y0267307D02*
X0407783Y0267307D01*
X0407783Y0266508D02*
X0426383Y0266508D01*
X0426383Y0265710D02*
X0407783Y0265710D01*
X0407783Y0264911D02*
X0426383Y0264911D01*
X0426383Y0264113D02*
X0407783Y0264113D01*
X0407783Y0263314D02*
X0426383Y0263314D01*
X0426383Y0262516D02*
X0407783Y0262516D01*
X0407783Y0261717D02*
X0426383Y0261717D01*
X0426383Y0260919D02*
X0407783Y0260919D01*
X0407783Y0260120D02*
X0426383Y0260120D01*
X0426383Y0259322D02*
X0407783Y0259322D01*
X0407783Y0258523D02*
X0426383Y0258523D01*
X0426383Y0257725D02*
X0407783Y0257725D01*
X0407783Y0256926D02*
X0426383Y0256926D01*
X0426383Y0256128D02*
X0407783Y0256128D01*
X0407783Y0255329D02*
X0426383Y0255329D01*
X0426383Y0254531D02*
X0407783Y0254531D01*
X0407783Y0253732D02*
X0426383Y0253732D01*
X0426383Y0252934D02*
X0407783Y0252934D01*
X0407783Y0252135D02*
X0426383Y0252135D01*
X0426383Y0251337D02*
X0407783Y0251337D01*
X0407783Y0250538D02*
X0426383Y0250538D01*
X0426383Y0249739D02*
X0407783Y0249739D01*
X0407783Y0248941D02*
X0426383Y0248941D01*
X0426383Y0248142D02*
X0407783Y0248142D01*
X0407783Y0247344D02*
X0426383Y0247344D01*
X0426383Y0246545D02*
X0407783Y0246545D01*
X0407783Y0245747D02*
X0426383Y0245747D01*
X0426383Y0244948D02*
X0407783Y0244948D01*
X0407783Y0244150D02*
X0426383Y0244150D01*
X0426383Y0243351D02*
X0407783Y0243351D01*
X0407783Y0242553D02*
X0426383Y0242553D01*
X0426383Y0241754D02*
X0407783Y0241754D01*
X0407783Y0240956D02*
X0426383Y0240956D01*
X0426383Y0240157D02*
X0407783Y0240157D01*
X0407783Y0239359D02*
X0426383Y0239359D01*
X0426383Y0238560D02*
X0407783Y0238560D01*
X0407783Y0237762D02*
X0426383Y0237762D01*
X0426383Y0236963D02*
X0407783Y0236963D01*
X0407783Y0236165D02*
X0426383Y0236165D01*
X0426383Y0235366D02*
X0407783Y0235366D01*
X0407783Y0234568D02*
X0426383Y0234568D01*
X0426383Y0233769D02*
X0407783Y0233769D01*
X0407783Y0232971D02*
X0426383Y0232971D01*
X0426383Y0232172D02*
X0407783Y0232172D01*
X0407783Y0231374D02*
X0426383Y0231374D01*
X0426383Y0230575D02*
X0407783Y0230575D01*
X0407783Y0229777D02*
X0426383Y0229777D01*
X0426383Y0228978D02*
X0407783Y0228978D01*
X0407783Y0228180D02*
X0426383Y0228180D01*
X0426383Y0227381D02*
X0407783Y0227381D01*
X0407783Y0226583D02*
X0426383Y0226583D01*
X0426360Y0225784D02*
X0407783Y0225784D01*
X0407783Y0224986D02*
X0425561Y0224986D01*
X0428681Y0222590D02*
X0430477Y0222590D01*
X0430477Y0222940D02*
X0430477Y0220400D01*
X0433839Y0220400D01*
X0433839Y0224156D01*
X0431692Y0224156D01*
X0431336Y0224060D01*
X0431017Y0223876D01*
X0430756Y0223616D01*
X0430572Y0223296D01*
X0430477Y0222940D01*
X0430625Y0223389D02*
X0429480Y0223389D01*
X0430278Y0224187D02*
X0450733Y0224187D01*
X0450733Y0223389D02*
X0437852Y0223389D01*
X0437906Y0223296D02*
X0437721Y0223616D01*
X0437461Y0223876D01*
X0437141Y0224060D01*
X0436785Y0224156D01*
X0434639Y0224156D01*
X0434639Y0220400D01*
X0438001Y0220400D01*
X0438001Y0222940D01*
X0437906Y0223296D01*
X0438001Y0222590D02*
X0450733Y0222590D01*
X0450733Y0221792D02*
X0438001Y0221792D01*
X0438001Y0220993D02*
X0450733Y0220993D01*
X0450733Y0220195D02*
X0434639Y0220195D01*
X0434639Y0220400D02*
X0434639Y0219600D01*
X0438001Y0219600D01*
X0438001Y0217060D01*
X0437906Y0216704D01*
X0437721Y0216384D01*
X0437461Y0216124D01*
X0437141Y0215940D01*
X0436785Y0215844D01*
X0434639Y0215844D01*
X0434639Y0219600D01*
X0433839Y0219600D01*
X0433839Y0215844D01*
X0431692Y0215844D01*
X0431336Y0215940D01*
X0431017Y0216124D01*
X0430756Y0216384D01*
X0430572Y0216704D01*
X0430477Y0217060D01*
X0430477Y0219600D01*
X0433839Y0219600D01*
X0433839Y0220400D01*
X0434639Y0220400D01*
X0434639Y0220993D02*
X0433839Y0220993D01*
X0433839Y0220195D02*
X0426390Y0220195D01*
X0426390Y0219396D02*
X0430477Y0219396D01*
X0430477Y0218598D02*
X0426390Y0218598D01*
X0426390Y0217799D02*
X0430477Y0217799D01*
X0430493Y0217001D02*
X0426390Y0217001D01*
X0426011Y0216202D02*
X0430939Y0216202D01*
X0433839Y0216202D02*
X0434639Y0216202D01*
X0434639Y0217001D02*
X0433839Y0217001D01*
X0433839Y0217799D02*
X0434639Y0217799D01*
X0434639Y0218598D02*
X0433839Y0218598D01*
X0433839Y0219396D02*
X0434639Y0219396D01*
X0434639Y0221792D02*
X0433839Y0221792D01*
X0433839Y0222590D02*
X0434639Y0222590D01*
X0434639Y0223389D02*
X0433839Y0223389D01*
X0430477Y0221792D02*
X0427883Y0221792D01*
X0427084Y0220993D02*
X0430477Y0220993D01*
X0430283Y0224986D02*
X0450733Y0224986D01*
X0450733Y0225784D02*
X0430283Y0225784D01*
X0430283Y0226583D02*
X0450733Y0226583D01*
X0450733Y0227381D02*
X0430283Y0227381D01*
X0430283Y0228180D02*
X0450733Y0228180D01*
X0450733Y0228978D02*
X0430283Y0228978D01*
X0430283Y0229777D02*
X0450733Y0229777D01*
X0450733Y0230575D02*
X0430283Y0230575D01*
X0430283Y0231374D02*
X0450733Y0231374D01*
X0450733Y0232172D02*
X0430283Y0232172D01*
X0430283Y0232971D02*
X0450733Y0232971D01*
X0450733Y0233769D02*
X0430283Y0233769D01*
X0430283Y0234568D02*
X0450733Y0234568D01*
X0450733Y0235366D02*
X0430283Y0235366D01*
X0430283Y0236165D02*
X0450733Y0236165D01*
X0450733Y0236963D02*
X0430283Y0236963D01*
X0430283Y0237762D02*
X0450733Y0237762D01*
X0450733Y0238560D02*
X0430283Y0238560D01*
X0430283Y0239359D02*
X0450733Y0239359D01*
X0450733Y0240157D02*
X0430283Y0240157D01*
X0430283Y0240956D02*
X0450733Y0240956D01*
X0450733Y0241754D02*
X0430283Y0241754D01*
X0430283Y0242553D02*
X0450733Y0242553D01*
X0450733Y0243351D02*
X0430283Y0243351D01*
X0430283Y0244150D02*
X0450733Y0244150D01*
X0450733Y0244948D02*
X0430283Y0244948D01*
X0430283Y0245747D02*
X0450733Y0245747D01*
X0450733Y0246545D02*
X0430283Y0246545D01*
X0430283Y0247344D02*
X0450733Y0247344D01*
X0450733Y0248142D02*
X0430283Y0248142D01*
X0430283Y0248941D02*
X0450733Y0248941D01*
X0450733Y0249739D02*
X0430283Y0249739D01*
X0430283Y0250538D02*
X0450733Y0250538D01*
X0450733Y0251337D02*
X0430283Y0251337D01*
X0430283Y0252135D02*
X0450733Y0252135D01*
X0450733Y0252934D02*
X0430283Y0252934D01*
X0430283Y0253732D02*
X0450733Y0253732D01*
X0450733Y0254531D02*
X0430283Y0254531D01*
X0430283Y0255329D02*
X0450733Y0255329D01*
X0450733Y0256128D02*
X0430283Y0256128D01*
X0430283Y0256926D02*
X0450733Y0256926D01*
X0450733Y0257725D02*
X0430283Y0257725D01*
X0430283Y0258523D02*
X0450733Y0258523D01*
X0450733Y0259322D02*
X0430283Y0259322D01*
X0430283Y0260120D02*
X0450733Y0260120D01*
X0450733Y0260919D02*
X0430283Y0260919D01*
X0430283Y0261717D02*
X0450733Y0261717D01*
X0450733Y0262516D02*
X0430283Y0262516D01*
X0430283Y0263314D02*
X0450733Y0263314D01*
X0450733Y0264113D02*
X0430283Y0264113D01*
X0430283Y0264911D02*
X0450733Y0264911D01*
X0450733Y0265710D02*
X0430283Y0265710D01*
X0430283Y0266508D02*
X0450733Y0266508D01*
X0450733Y0267307D02*
X0430283Y0267307D01*
X0430283Y0268105D02*
X0450733Y0268105D01*
X0450733Y0268904D02*
X0430283Y0268904D01*
X0430283Y0269702D02*
X0450733Y0269702D01*
X0450733Y0270501D02*
X0430283Y0270501D01*
X0430283Y0271299D02*
X0437547Y0271299D01*
X0436112Y0271822D02*
X0439193Y0270700D01*
X0440005Y0270700D01*
X0442473Y0270700D01*
X0445555Y0271822D01*
X0448067Y0273930D01*
X0449707Y0276770D01*
X0449707Y0276770D01*
X0450277Y0280000D01*
X0450277Y0280000D01*
X0449707Y0283230D01*
X0448067Y0286070D01*
X0445555Y0288178D01*
X0442473Y0289300D01*
X0439193Y0289300D01*
X0436112Y0288178D01*
X0436112Y0288178D01*
X0433599Y0286070D01*
X0431959Y0283230D01*
X0431390Y0280000D01*
X0431959Y0276770D01*
X0433599Y0273930D01*
X0436112Y0271822D01*
X0436112Y0271822D01*
X0435783Y0272098D02*
X0430283Y0272098D01*
X0430283Y0272896D02*
X0434831Y0272896D01*
X0433879Y0273695D02*
X0430283Y0273695D01*
X0430283Y0274493D02*
X0433274Y0274493D01*
X0433599Y0273930D02*
X0433599Y0273930D01*
X0432813Y0275292D02*
X0430283Y0275292D01*
X0430283Y0276090D02*
X0432352Y0276090D01*
X0431959Y0276770D02*
X0431959Y0276770D01*
X0431938Y0276889D02*
X0430283Y0276889D01*
X0430283Y0277687D02*
X0431798Y0277687D01*
X0431657Y0278486D02*
X0430283Y0278486D01*
X0430283Y0279284D02*
X0431516Y0279284D01*
X0431390Y0280000D02*
X0431390Y0280000D01*
X0431404Y0280083D02*
X0430283Y0280083D01*
X0430283Y0280881D02*
X0431545Y0280881D01*
X0431686Y0281680D02*
X0430283Y0281680D01*
X0430283Y0282478D02*
X0431827Y0282478D01*
X0431959Y0283230D02*
X0431959Y0283230D01*
X0431987Y0283277D02*
X0430283Y0283277D01*
X0430283Y0284075D02*
X0432448Y0284075D01*
X0432909Y0284874D02*
X0430965Y0284874D01*
X0431764Y0285672D02*
X0433370Y0285672D01*
X0433599Y0286070D02*
X0433599Y0286070D01*
X0433599Y0286070D01*
X0434077Y0286471D02*
X0432562Y0286471D01*
X0432783Y0287270D02*
X0435029Y0287270D01*
X0435980Y0288068D02*
X0432783Y0288068D01*
X0432783Y0288867D02*
X0438003Y0288867D01*
X0432783Y0289665D02*
X0450733Y0289665D01*
X0450733Y0288867D02*
X0443664Y0288867D01*
X0445555Y0288178D02*
X0445555Y0288178D01*
X0445686Y0288068D02*
X0450733Y0288068D01*
X0450733Y0287270D02*
X0446638Y0287270D01*
X0447590Y0286471D02*
X0450733Y0286471D01*
X0450733Y0285672D02*
X0448297Y0285672D01*
X0448067Y0286070D02*
X0448067Y0286070D01*
X0448758Y0284874D02*
X0450733Y0284874D01*
X0450733Y0284075D02*
X0449219Y0284075D01*
X0449680Y0283277D02*
X0450733Y0283277D01*
X0450733Y0282478D02*
X0449840Y0282478D01*
X0449981Y0281680D02*
X0450733Y0281680D01*
X0450733Y0280881D02*
X0450121Y0280881D01*
X0450262Y0280083D02*
X0450733Y0280083D01*
X0450733Y0279284D02*
X0450151Y0279284D01*
X0450010Y0278486D02*
X0450733Y0278486D01*
X0450733Y0277687D02*
X0449869Y0277687D01*
X0449728Y0276889D02*
X0450733Y0276889D01*
X0450733Y0276090D02*
X0449315Y0276090D01*
X0448854Y0275292D02*
X0450733Y0275292D01*
X0450733Y0274493D02*
X0448393Y0274493D01*
X0448067Y0273930D02*
X0448067Y0273930D01*
X0448067Y0273930D01*
X0447787Y0273695D02*
X0450733Y0273695D01*
X0450733Y0272896D02*
X0446836Y0272896D01*
X0445884Y0272098D02*
X0450733Y0272098D01*
X0450733Y0271299D02*
X0444120Y0271299D01*
X0445555Y0271822D02*
X0445555Y0271822D01*
X0455933Y0272098D02*
X0496233Y0272098D01*
X0496233Y0272896D02*
X0455933Y0272896D01*
X0455933Y0273695D02*
X0496233Y0273695D01*
X0496233Y0274493D02*
X0455933Y0274493D01*
X0455933Y0275292D02*
X0496233Y0275292D01*
X0496233Y0276090D02*
X0455933Y0276090D01*
X0455933Y0276889D02*
X0496233Y0276889D01*
X0496233Y0277687D02*
X0455933Y0277687D01*
X0455933Y0278486D02*
X0496233Y0278486D01*
X0496233Y0279284D02*
X0455933Y0279284D01*
X0455933Y0280083D02*
X0496233Y0280083D01*
X0496233Y0280881D02*
X0455933Y0280881D01*
X0455933Y0281680D02*
X0496233Y0281680D01*
X0496233Y0282478D02*
X0455933Y0282478D01*
X0455933Y0283277D02*
X0496233Y0283277D01*
X0496233Y0284075D02*
X0455933Y0284075D01*
X0455933Y0284874D02*
X0496233Y0284874D01*
X0496233Y0285672D02*
X0455933Y0285672D01*
X0455933Y0286471D02*
X0496233Y0286471D01*
X0496233Y0287270D02*
X0455933Y0287270D01*
X0455933Y0288068D02*
X0496233Y0288068D01*
X0496233Y0288867D02*
X0455933Y0288867D01*
X0455933Y0289665D02*
X0496233Y0289665D01*
X0496233Y0290464D02*
X0455933Y0290464D01*
X0455933Y0291262D02*
X0496233Y0291262D01*
X0496233Y0292061D02*
X0455933Y0292061D01*
X0455933Y0292859D02*
X0496233Y0292859D01*
X0496233Y0293658D02*
X0455933Y0293658D01*
X0455933Y0294456D02*
X0496233Y0294456D01*
X0496233Y0295255D02*
X0455933Y0295255D01*
X0455933Y0296053D02*
X0496233Y0296053D01*
X0496233Y0296852D02*
X0455933Y0296852D01*
X0455933Y0297650D02*
X0496233Y0297650D01*
X0496233Y0298449D02*
X0455933Y0298449D01*
X0455933Y0299247D02*
X0496233Y0299247D01*
X0496233Y0300046D02*
X0455933Y0300046D01*
X0455933Y0300844D02*
X0496233Y0300844D01*
X0496233Y0301643D02*
X0455933Y0301643D01*
X0455933Y0302441D02*
X0496233Y0302441D01*
X0496233Y0303240D02*
X0455933Y0303240D01*
X0455933Y0304038D02*
X0496233Y0304038D01*
X0496233Y0304837D02*
X0455933Y0304837D01*
X0455933Y0305635D02*
X0496233Y0305635D01*
X0496233Y0306434D02*
X0455933Y0306434D01*
X0455933Y0307232D02*
X0496233Y0307232D01*
X0496233Y0308031D02*
X0455933Y0308031D01*
X0455933Y0308829D02*
X0496233Y0308829D01*
X0496233Y0309628D02*
X0455933Y0309628D01*
X0455933Y0310426D02*
X0496233Y0310426D01*
X0496233Y0311225D02*
X0455933Y0311225D01*
X0455933Y0312023D02*
X0496233Y0312023D01*
X0496233Y0312822D02*
X0455933Y0312822D01*
X0455933Y0313620D02*
X0496233Y0313620D01*
X0496233Y0314419D02*
X0455933Y0314419D01*
X0455933Y0315217D02*
X0496233Y0315217D01*
X0496233Y0316016D02*
X0455933Y0316016D01*
X0455933Y0316814D02*
X0496233Y0316814D01*
X0496233Y0317613D02*
X0455933Y0317613D01*
X0455933Y0318411D02*
X0496233Y0318411D01*
X0496233Y0319210D02*
X0455933Y0319210D01*
X0455933Y0320008D02*
X0496233Y0320008D01*
X0496233Y0320807D02*
X0455933Y0320807D01*
X0455933Y0321605D02*
X0496233Y0321605D01*
X0496233Y0322404D02*
X0455933Y0322404D01*
X0455933Y0323203D02*
X0496233Y0323203D01*
X0496233Y0324001D02*
X0455933Y0324001D01*
X0455933Y0324800D02*
X0496233Y0324800D01*
X0496233Y0325598D02*
X0455933Y0325598D01*
X0455933Y0326397D02*
X0496233Y0326397D01*
X0496233Y0327195D02*
X0455933Y0327195D01*
X0455933Y0327994D02*
X0496233Y0327994D01*
X0496233Y0328792D02*
X0455933Y0328792D01*
X0455933Y0329591D02*
X0496233Y0329591D01*
X0496233Y0330389D02*
X0455933Y0330389D01*
X0455933Y0331188D02*
X0496233Y0331188D01*
X0496233Y0331986D02*
X0455933Y0331986D01*
X0455933Y0332785D02*
X0496233Y0332785D01*
X0496233Y0333583D02*
X0455933Y0333583D01*
X0455933Y0334382D02*
X0496233Y0334382D01*
X0496233Y0335180D02*
X0455933Y0335180D01*
X0455933Y0335979D02*
X0496233Y0335979D01*
X0496233Y0336777D02*
X0455933Y0336777D01*
X0455933Y0337576D02*
X0496233Y0337576D01*
X0496233Y0338374D02*
X0455933Y0338374D01*
X0455933Y0339173D02*
X0496233Y0339173D01*
X0496233Y0339971D02*
X0455933Y0339971D01*
X0455933Y0340770D02*
X0496233Y0340770D01*
X0496233Y0341568D02*
X0455933Y0341568D01*
X0455933Y0342367D02*
X0496233Y0342367D01*
X0496233Y0343165D02*
X0455933Y0343165D01*
X0455933Y0343964D02*
X0496233Y0343964D01*
X0496233Y0344762D02*
X0455933Y0344762D01*
X0455933Y0345561D02*
X0496233Y0345561D01*
X0496233Y0346359D02*
X0455933Y0346359D01*
X0455933Y0347158D02*
X0496233Y0347158D01*
X0496233Y0347956D02*
X0455933Y0347956D01*
X0455933Y0348755D02*
X0496233Y0348755D01*
X0496233Y0349553D02*
X0455933Y0349553D01*
X0455933Y0350352D02*
X0496233Y0350352D01*
X0496233Y0351150D02*
X0455933Y0351150D01*
X0455933Y0351949D02*
X0496233Y0351949D01*
X0496233Y0352747D02*
X0455933Y0352747D01*
X0455933Y0353546D02*
X0496233Y0353546D01*
X0496233Y0354344D02*
X0455933Y0354344D01*
X0455933Y0355143D02*
X0496233Y0355143D01*
X0496233Y0355941D02*
X0455933Y0355941D01*
X0455933Y0356740D02*
X0496233Y0356740D01*
X0496233Y0357539D02*
X0455933Y0357539D01*
X0455933Y0358337D02*
X0496233Y0358337D01*
X0496233Y0359136D02*
X0455933Y0359136D01*
X0455933Y0359934D02*
X0496233Y0359934D01*
X0496233Y0360733D02*
X0455933Y0360733D01*
X0455933Y0361531D02*
X0496233Y0361531D01*
X0496233Y0362330D02*
X0455933Y0362330D01*
X0455933Y0363128D02*
X0496233Y0363128D01*
X0496233Y0363927D02*
X0455933Y0363927D01*
X0455933Y0364725D02*
X0496233Y0364725D01*
X0496233Y0365524D02*
X0455933Y0365524D01*
X0455933Y0366322D02*
X0496233Y0366322D01*
X0496233Y0367121D02*
X0455933Y0367121D01*
X0455933Y0367919D02*
X0496233Y0367919D01*
X0496233Y0368718D02*
X0455933Y0368718D01*
X0456526Y0369516D02*
X0496233Y0369516D01*
X0496233Y0370315D02*
X0457325Y0370315D01*
X0458123Y0371113D02*
X0496233Y0371113D01*
X0496233Y0371912D02*
X0458922Y0371912D01*
X0459720Y0372710D02*
X0496233Y0372710D01*
X0496233Y0373509D02*
X0460519Y0373509D01*
X0461318Y0374307D02*
X0496233Y0374307D01*
X0496233Y0375106D02*
X0462116Y0375106D01*
X0462915Y0375904D02*
X0496233Y0375904D01*
X0496233Y0376703D02*
X0463713Y0376703D01*
X0464512Y0377501D02*
X0496233Y0377501D01*
X0496233Y0378300D02*
X0465310Y0378300D01*
X0466109Y0379098D02*
X0496233Y0379098D01*
X0496233Y0379897D02*
X0466907Y0379897D01*
X0467706Y0380695D02*
X0496233Y0380695D01*
X0496233Y0381494D02*
X0468504Y0381494D01*
X0469303Y0382292D02*
X0496233Y0382292D01*
X0496233Y0383091D02*
X0470101Y0383091D01*
X0470900Y0383889D02*
X0496233Y0383889D01*
X0496233Y0384688D02*
X0471698Y0384688D01*
X0472497Y0385486D02*
X0496233Y0385486D01*
X0496233Y0386285D02*
X0473295Y0386285D01*
X0474094Y0387083D02*
X0496233Y0387083D01*
X0496233Y0387882D02*
X0474892Y0387882D01*
X0475691Y0388680D02*
X0496233Y0388680D01*
X0496233Y0389479D02*
X0476489Y0389479D01*
X0477288Y0390277D02*
X0496233Y0390277D01*
X0496233Y0391076D02*
X0478086Y0391076D01*
X0478885Y0391874D02*
X0496233Y0391874D01*
X0496233Y0392673D02*
X0479683Y0392673D01*
X0480482Y0393472D02*
X0496233Y0393472D01*
X0496233Y0394270D02*
X0481280Y0394270D01*
X0482079Y0395069D02*
X0496233Y0395069D01*
X0496233Y0395867D02*
X0482877Y0395867D01*
X0483676Y0396666D02*
X0496233Y0396666D01*
X0496233Y0397464D02*
X0484474Y0397464D01*
X0485273Y0398263D02*
X0496233Y0398263D01*
X0496233Y0399061D02*
X0486071Y0399061D01*
X0486870Y0399860D02*
X0496233Y0399860D01*
X0496233Y0400658D02*
X0487668Y0400658D01*
X0488467Y0401457D02*
X0496233Y0401457D01*
X0496233Y0402255D02*
X0489265Y0402255D01*
X0490064Y0403054D02*
X0496233Y0403054D01*
X0496233Y0403852D02*
X0490862Y0403852D01*
X0491661Y0404651D02*
X0496233Y0404651D01*
X0496233Y0405449D02*
X0492459Y0405449D01*
X0493258Y0406248D02*
X0496233Y0406248D01*
X0496233Y0407046D02*
X0494056Y0407046D01*
X0494855Y0407845D02*
X0496233Y0407845D01*
X0496233Y0408643D02*
X0495653Y0408643D01*
X0492292Y0412636D02*
X0477783Y0412636D01*
X0477783Y0413434D02*
X0493091Y0413434D01*
X0493233Y0414233D02*
X0477783Y0414233D01*
X0477783Y0415031D02*
X0478972Y0415031D01*
X0477783Y0411837D02*
X0491494Y0411837D01*
X0490695Y0411039D02*
X0477783Y0411039D01*
X0477783Y0410240D02*
X0489897Y0410240D01*
X0489098Y0409442D02*
X0477783Y0409442D01*
X0477783Y0408643D02*
X0488300Y0408643D01*
X0487501Y0407845D02*
X0477783Y0407845D01*
X0477783Y0407046D02*
X0486703Y0407046D01*
X0485904Y0406248D02*
X0477783Y0406248D01*
X0477783Y0405449D02*
X0485106Y0405449D01*
X0484307Y0404651D02*
X0477783Y0404651D01*
X0477783Y0403852D02*
X0483509Y0403852D01*
X0482710Y0403054D02*
X0477783Y0403054D01*
X0477783Y0402255D02*
X0481912Y0402255D01*
X0481113Y0401457D02*
X0477403Y0401457D01*
X0479516Y0399860D02*
X0432783Y0399860D01*
X0432783Y0400658D02*
X0480315Y0400658D01*
X0478717Y0399061D02*
X0432783Y0399061D01*
X0432783Y0398263D02*
X0477919Y0398263D01*
X0477120Y0397464D02*
X0432783Y0397464D01*
X0432783Y0396666D02*
X0476322Y0396666D01*
X0475523Y0395867D02*
X0432783Y0395867D01*
X0432783Y0395069D02*
X0474725Y0395069D01*
X0473926Y0394270D02*
X0432783Y0394270D01*
X0432783Y0393472D02*
X0473128Y0393472D01*
X0472329Y0392673D02*
X0432783Y0392673D01*
X0432783Y0391874D02*
X0471531Y0391874D01*
X0470732Y0391076D02*
X0432783Y0391076D01*
X0432783Y0390277D02*
X0469934Y0390277D01*
X0469135Y0389479D02*
X0432783Y0389479D01*
X0432783Y0388680D02*
X0468337Y0388680D01*
X0467538Y0387882D02*
X0432783Y0387882D01*
X0432783Y0387083D02*
X0466740Y0387083D01*
X0465941Y0386285D02*
X0432783Y0386285D01*
X0432783Y0385486D02*
X0465143Y0385486D01*
X0464344Y0384688D02*
X0432783Y0384688D01*
X0432783Y0383889D02*
X0463546Y0383889D01*
X0462747Y0383091D02*
X0432783Y0383091D01*
X0432783Y0382292D02*
X0461949Y0382292D01*
X0461150Y0381494D02*
X0432783Y0381494D01*
X0432783Y0380695D02*
X0460352Y0380695D01*
X0459553Y0379897D02*
X0432783Y0379897D01*
X0432783Y0379098D02*
X0458755Y0379098D01*
X0457956Y0378300D02*
X0432783Y0378300D01*
X0432783Y0377501D02*
X0457158Y0377501D01*
X0456359Y0376703D02*
X0432783Y0376703D01*
X0432783Y0375904D02*
X0455561Y0375904D01*
X0454762Y0375106D02*
X0432783Y0375106D01*
X0432783Y0374307D02*
X0453964Y0374307D01*
X0453165Y0373509D02*
X0432783Y0373509D01*
X0432783Y0372710D02*
X0452367Y0372710D01*
X0451568Y0371912D02*
X0432783Y0371912D01*
X0432783Y0371113D02*
X0450980Y0371113D01*
X0450733Y0370315D02*
X0432783Y0370315D01*
X0432783Y0369516D02*
X0450733Y0369516D01*
X0450733Y0368718D02*
X0432783Y0368718D01*
X0432783Y0367919D02*
X0450733Y0367919D01*
X0450733Y0367121D02*
X0432783Y0367121D01*
X0432783Y0366322D02*
X0450733Y0366322D01*
X0450733Y0365524D02*
X0432783Y0365524D01*
X0432783Y0364725D02*
X0450733Y0364725D01*
X0450733Y0363927D02*
X0432783Y0363927D01*
X0432783Y0363128D02*
X0450733Y0363128D01*
X0450733Y0362330D02*
X0432783Y0362330D01*
X0432783Y0361531D02*
X0450733Y0361531D01*
X0450733Y0360733D02*
X0432783Y0360733D01*
X0432783Y0359934D02*
X0450733Y0359934D01*
X0450733Y0359136D02*
X0432783Y0359136D01*
X0432783Y0358337D02*
X0450733Y0358337D01*
X0450733Y0357539D02*
X0432783Y0357539D01*
X0432783Y0356740D02*
X0450733Y0356740D01*
X0450733Y0355941D02*
X0432783Y0355941D01*
X0432783Y0355143D02*
X0450733Y0355143D01*
X0450733Y0354344D02*
X0432783Y0354344D01*
X0432783Y0353546D02*
X0450733Y0353546D01*
X0450733Y0352747D02*
X0432783Y0352747D01*
X0432783Y0351949D02*
X0450733Y0351949D01*
X0450733Y0351150D02*
X0432783Y0351150D01*
X0432783Y0350352D02*
X0450733Y0350352D01*
X0450733Y0349553D02*
X0432783Y0349553D01*
X0432783Y0348755D02*
X0450733Y0348755D01*
X0450733Y0347956D02*
X0432783Y0347956D01*
X0432783Y0347158D02*
X0450733Y0347158D01*
X0450733Y0346359D02*
X0432783Y0346359D01*
X0432783Y0345561D02*
X0450733Y0345561D01*
X0450733Y0344762D02*
X0432783Y0344762D01*
X0432783Y0343964D02*
X0450733Y0343964D01*
X0450733Y0343165D02*
X0432783Y0343165D01*
X0432783Y0342367D02*
X0450733Y0342367D01*
X0450733Y0341568D02*
X0432783Y0341568D01*
X0432783Y0340770D02*
X0450733Y0340770D01*
X0450733Y0339971D02*
X0432783Y0339971D01*
X0432783Y0339173D02*
X0450733Y0339173D01*
X0450733Y0338374D02*
X0432783Y0338374D01*
X0432783Y0337576D02*
X0450733Y0337576D01*
X0450733Y0336777D02*
X0432783Y0336777D01*
X0432783Y0335979D02*
X0450733Y0335979D01*
X0450733Y0335180D02*
X0432783Y0335180D01*
X0432783Y0334382D02*
X0450733Y0334382D01*
X0450733Y0333583D02*
X0432783Y0333583D01*
X0432783Y0332785D02*
X0450733Y0332785D01*
X0450733Y0331986D02*
X0432783Y0331986D01*
X0432783Y0331188D02*
X0450733Y0331188D01*
X0450733Y0330389D02*
X0432783Y0330389D01*
X0432783Y0329591D02*
X0450733Y0329591D01*
X0450733Y0328792D02*
X0432783Y0328792D01*
X0432783Y0327994D02*
X0450733Y0327994D01*
X0450733Y0327195D02*
X0432783Y0327195D01*
X0432783Y0326397D02*
X0450733Y0326397D01*
X0450733Y0325598D02*
X0432783Y0325598D01*
X0432783Y0324800D02*
X0450733Y0324800D01*
X0450733Y0324001D02*
X0432783Y0324001D01*
X0432783Y0323203D02*
X0450733Y0323203D01*
X0450733Y0322404D02*
X0432783Y0322404D01*
X0432783Y0321605D02*
X0450733Y0321605D01*
X0450733Y0320807D02*
X0432783Y0320807D01*
X0432783Y0320008D02*
X0450733Y0320008D01*
X0450733Y0319210D02*
X0432783Y0319210D01*
X0432783Y0318411D02*
X0450733Y0318411D01*
X0450733Y0317613D02*
X0432783Y0317613D01*
X0432783Y0316814D02*
X0450733Y0316814D01*
X0450733Y0316016D02*
X0432783Y0316016D01*
X0432783Y0315217D02*
X0450733Y0315217D01*
X0450733Y0314419D02*
X0432783Y0314419D01*
X0432783Y0313620D02*
X0450733Y0313620D01*
X0450733Y0312822D02*
X0432783Y0312822D01*
X0432783Y0312023D02*
X0450733Y0312023D01*
X0450733Y0311225D02*
X0432783Y0311225D01*
X0432783Y0310426D02*
X0450733Y0310426D01*
X0450733Y0309628D02*
X0432783Y0309628D01*
X0432783Y0308829D02*
X0450733Y0308829D01*
X0450733Y0308031D02*
X0432783Y0308031D01*
X0432783Y0307232D02*
X0450733Y0307232D01*
X0450733Y0306434D02*
X0432783Y0306434D01*
X0432783Y0305635D02*
X0450733Y0305635D01*
X0450733Y0304837D02*
X0432783Y0304837D01*
X0432783Y0304038D02*
X0450733Y0304038D01*
X0450733Y0303240D02*
X0432783Y0303240D01*
X0432783Y0302441D02*
X0450733Y0302441D01*
X0450733Y0301643D02*
X0432783Y0301643D01*
X0432783Y0300844D02*
X0450733Y0300844D01*
X0450733Y0300046D02*
X0432783Y0300046D01*
X0432783Y0299247D02*
X0450733Y0299247D01*
X0450733Y0298449D02*
X0432783Y0298449D01*
X0432783Y0297650D02*
X0450733Y0297650D01*
X0450733Y0296852D02*
X0432783Y0296852D01*
X0432783Y0296053D02*
X0450733Y0296053D01*
X0450733Y0295255D02*
X0432783Y0295255D01*
X0432783Y0294456D02*
X0450733Y0294456D01*
X0450733Y0293658D02*
X0432783Y0293658D01*
X0432783Y0292859D02*
X0450733Y0292859D01*
X0450733Y0292061D02*
X0432783Y0292061D01*
X0432783Y0291262D02*
X0450733Y0291262D01*
X0450733Y0290464D02*
X0432783Y0290464D01*
X0455933Y0271299D02*
X0496233Y0271299D01*
X0496233Y0270501D02*
X0455933Y0270501D01*
X0455933Y0269702D02*
X0496233Y0269702D01*
X0496233Y0268904D02*
X0455933Y0268904D01*
X0455933Y0268105D02*
X0496233Y0268105D01*
X0496233Y0267307D02*
X0455933Y0267307D01*
X0455933Y0266508D02*
X0496233Y0266508D01*
X0496233Y0265710D02*
X0455933Y0265710D01*
X0455933Y0264911D02*
X0496233Y0264911D01*
X0496233Y0264113D02*
X0455933Y0264113D01*
X0455933Y0263314D02*
X0496233Y0263314D01*
X0496233Y0262516D02*
X0455933Y0262516D01*
X0455933Y0261717D02*
X0496233Y0261717D01*
X0496233Y0260919D02*
X0455933Y0260919D01*
X0455933Y0260120D02*
X0496233Y0260120D01*
X0496233Y0259322D02*
X0455933Y0259322D01*
X0455933Y0258523D02*
X0496233Y0258523D01*
X0496233Y0257725D02*
X0455933Y0257725D01*
X0455933Y0256926D02*
X0496233Y0256926D01*
X0496233Y0256128D02*
X0455933Y0256128D01*
X0455933Y0255329D02*
X0496233Y0255329D01*
X0496233Y0254531D02*
X0455933Y0254531D01*
X0455933Y0253732D02*
X0496233Y0253732D01*
X0496233Y0252934D02*
X0455933Y0252934D01*
X0455933Y0252135D02*
X0496233Y0252135D01*
X0496233Y0251337D02*
X0455933Y0251337D01*
X0455933Y0250538D02*
X0496233Y0250538D01*
X0496233Y0249739D02*
X0455933Y0249739D01*
X0455933Y0248941D02*
X0496233Y0248941D01*
X0496233Y0248142D02*
X0455933Y0248142D01*
X0455933Y0247344D02*
X0496233Y0247344D01*
X0496233Y0246545D02*
X0455933Y0246545D01*
X0455933Y0245747D02*
X0496233Y0245747D01*
X0496233Y0244948D02*
X0455933Y0244948D01*
X0455933Y0244150D02*
X0496233Y0244150D01*
X0496233Y0243351D02*
X0455933Y0243351D01*
X0455933Y0242553D02*
X0496233Y0242553D01*
X0496233Y0241754D02*
X0455933Y0241754D01*
X0455933Y0240956D02*
X0496233Y0240956D01*
X0496233Y0240157D02*
X0455933Y0240157D01*
X0455933Y0239359D02*
X0496233Y0239359D01*
X0496233Y0238560D02*
X0455933Y0238560D01*
X0455933Y0237762D02*
X0496233Y0237762D01*
X0496233Y0236963D02*
X0455933Y0236963D01*
X0455933Y0236165D02*
X0496233Y0236165D01*
X0496233Y0235366D02*
X0455933Y0235366D01*
X0455933Y0234568D02*
X0496233Y0234568D01*
X0496233Y0233769D02*
X0455933Y0233769D01*
X0455933Y0232971D02*
X0496233Y0232971D01*
X0496233Y0232172D02*
X0455933Y0232172D01*
X0455933Y0231374D02*
X0496233Y0231374D01*
X0496233Y0230575D02*
X0455933Y0230575D01*
X0455933Y0229777D02*
X0496233Y0229777D01*
X0496233Y0228978D02*
X0455933Y0228978D01*
X0455933Y0228180D02*
X0496233Y0228180D01*
X0496233Y0227381D02*
X0455933Y0227381D01*
X0455933Y0226583D02*
X0496233Y0226583D01*
X0496233Y0225784D02*
X0455933Y0225784D01*
X0455933Y0224986D02*
X0496233Y0224986D01*
X0496233Y0224187D02*
X0455933Y0224187D01*
X0455933Y0223389D02*
X0496233Y0223389D01*
X0496233Y0222590D02*
X0455933Y0222590D01*
X0455933Y0221792D02*
X0496233Y0221792D01*
X0496233Y0220993D02*
X0455933Y0220993D01*
X0455933Y0220195D02*
X0496233Y0220195D01*
X0496233Y0219396D02*
X0455933Y0219396D01*
X0455933Y0218598D02*
X0496233Y0218598D01*
X0496233Y0217799D02*
X0455933Y0217799D01*
X0455933Y0217001D02*
X0496233Y0217001D01*
X0496233Y0216202D02*
X0455933Y0216202D01*
X0455933Y0215403D02*
X0496233Y0215403D01*
X0496233Y0214605D02*
X0455933Y0214605D01*
X0455933Y0213806D02*
X0496233Y0213806D01*
X0496233Y0213008D02*
X0455933Y0213008D01*
X0455933Y0212209D02*
X0496233Y0212209D01*
X0496233Y0211411D02*
X0455933Y0211411D01*
X0455933Y0210612D02*
X0496233Y0210612D01*
X0496233Y0209814D02*
X0455933Y0209814D01*
X0455933Y0209015D02*
X0496233Y0209015D01*
X0496233Y0208217D02*
X0455933Y0208217D01*
X0455933Y0207418D02*
X0496233Y0207418D01*
X0496233Y0206620D02*
X0455783Y0206620D01*
X0455332Y0205821D02*
X0496233Y0205821D01*
X0496233Y0205023D02*
X0454533Y0205023D01*
X0453735Y0204224D02*
X0496233Y0204224D01*
X0496233Y0203426D02*
X0452936Y0203426D01*
X0452138Y0202627D02*
X0496233Y0202627D01*
X0496233Y0201829D02*
X0451339Y0201829D01*
X0450541Y0201030D02*
X0496233Y0201030D01*
X0496233Y0200232D02*
X0449742Y0200232D01*
X0448944Y0199433D02*
X0496233Y0199433D01*
X0496233Y0198635D02*
X0448145Y0198635D01*
X0447347Y0197836D02*
X0496233Y0197836D01*
X0496233Y0197038D02*
X0446548Y0197038D01*
X0445749Y0196239D02*
X0496233Y0196239D01*
X0496233Y0195441D02*
X0444951Y0195441D01*
X0444152Y0194642D02*
X0496233Y0194642D01*
X0496233Y0193844D02*
X0443354Y0193844D01*
X0442555Y0193045D02*
X0496233Y0193045D01*
X0496233Y0192247D02*
X0441757Y0192247D01*
X0440958Y0191448D02*
X0496233Y0191448D01*
X0496233Y0190650D02*
X0440160Y0190650D01*
X0439361Y0189851D02*
X0496233Y0189851D01*
X0496233Y0189053D02*
X0438563Y0189053D01*
X0437764Y0188254D02*
X0496233Y0188254D01*
X0496233Y0187456D02*
X0436485Y0187456D01*
X0435202Y0193045D02*
X0210433Y0193045D01*
X0210433Y0192247D02*
X0349463Y0192247D01*
X0348619Y0191448D02*
X0210433Y0191448D01*
X0210433Y0190650D02*
X0348288Y0190650D01*
X0348233Y0189851D02*
X0210433Y0189851D01*
X0210433Y0189053D02*
X0348233Y0189053D01*
X0348233Y0188254D02*
X0210433Y0188254D01*
X0210433Y0187456D02*
X0348233Y0187456D01*
X0353163Y0178672D02*
X0354270Y0178672D01*
X0354521Y0179470D02*
X0355574Y0179470D01*
X0355879Y0180269D02*
X0356878Y0180269D01*
X0352966Y0177873D02*
X0351805Y0177873D01*
X0351662Y0177075D02*
X0350447Y0177075D01*
X0350358Y0176276D02*
X0349089Y0176276D01*
X0349054Y0175478D02*
X0347731Y0175478D01*
X0347750Y0174679D02*
X0346373Y0174679D01*
X0346446Y0173881D02*
X0345015Y0173881D01*
X0345142Y0173082D02*
X0343658Y0173082D01*
X0343838Y0172284D02*
X0342300Y0172284D01*
X0342534Y0171485D02*
X0340942Y0171485D01*
X0341230Y0170687D02*
X0339584Y0170687D01*
X0339926Y0169888D02*
X0338226Y0169888D01*
X0338622Y0169090D02*
X0336868Y0169090D01*
X0337318Y0168291D02*
X0335510Y0168291D01*
X0336014Y0167493D02*
X0334152Y0167493D01*
X0334710Y0166694D02*
X0332794Y0166694D01*
X0333406Y0165896D02*
X0331436Y0165896D01*
X0332102Y0165097D02*
X0330078Y0165097D01*
X0330798Y0164299D02*
X0328720Y0164299D01*
X0329495Y0163500D02*
X0327362Y0163500D01*
X0328191Y0162702D02*
X0326004Y0162702D01*
X0326887Y0161903D02*
X0324646Y0161903D01*
X0325583Y0161105D02*
X0323288Y0161105D01*
X0324279Y0160306D02*
X0321930Y0160306D01*
X0322975Y0159508D02*
X0320572Y0159508D01*
X0321671Y0158709D02*
X0319214Y0158709D01*
X0320367Y0157911D02*
X0317856Y0157911D01*
X0319063Y0157112D02*
X0316498Y0157112D01*
X0317759Y0156314D02*
X0315140Y0156314D01*
X0316455Y0155515D02*
X0313782Y0155515D01*
X0312424Y0154717D02*
X0315151Y0154717D01*
X0313847Y0153918D02*
X0311066Y0153918D01*
X0309708Y0153120D02*
X0312543Y0153120D01*
X0311239Y0152321D02*
X0308350Y0152321D01*
X0306992Y0151523D02*
X0309935Y0151523D01*
X0308631Y0150724D02*
X0305634Y0150724D01*
X0304276Y0149926D02*
X0307327Y0149926D01*
X0306023Y0149127D02*
X0210433Y0149127D01*
X0210433Y0148329D02*
X0304719Y0148329D01*
X0303415Y0147530D02*
X0210433Y0147530D01*
X0210433Y0146732D02*
X0301984Y0146732D01*
X0301319Y0145933D02*
X0210433Y0145933D01*
X0210433Y0145134D02*
X0301096Y0145134D01*
X0301099Y0144336D02*
X0210433Y0144336D01*
X0210433Y0143537D02*
X0301267Y0143537D01*
X0301352Y0142739D02*
X0210433Y0142739D01*
X0210433Y0141940D02*
X0301329Y0141940D01*
X0301523Y0141142D02*
X0210433Y0141142D01*
X0210433Y0140343D02*
X0302125Y0140343D01*
X0305043Y0140343D02*
X0307947Y0140343D01*
X0306657Y0139545D02*
X0210433Y0139545D01*
X0210433Y0138746D02*
X0305367Y0138746D01*
X0304077Y0137948D02*
X0210433Y0137948D01*
X0210433Y0137149D02*
X0302787Y0137149D01*
X0301497Y0136351D02*
X0210433Y0136351D01*
X0210433Y0135552D02*
X0301051Y0135552D01*
X0301039Y0134754D02*
X0210433Y0134754D01*
X0210433Y0133955D02*
X0301222Y0133955D01*
X0301308Y0133157D02*
X0210433Y0133157D01*
X0210433Y0132358D02*
X0301393Y0132358D01*
X0301382Y0131560D02*
X0210433Y0131560D01*
X0210433Y0130761D02*
X0301789Y0130761D01*
X0302779Y0129963D02*
X0210433Y0129963D01*
X0210433Y0129164D02*
X0216321Y0129164D01*
X0214127Y0128366D02*
X0210433Y0128366D01*
X0210433Y0127567D02*
X0212883Y0127567D01*
X0211932Y0126769D02*
X0210433Y0126769D01*
X0210433Y0125970D02*
X0211042Y0125970D01*
X0210581Y0125172D02*
X0210433Y0125172D01*
X0220346Y0129164D02*
X0305974Y0129164D01*
X0307241Y0129963D02*
X0304359Y0129963D01*
X0305653Y0130761D02*
X0308508Y0130761D01*
X0309775Y0131560D02*
X0306948Y0131560D01*
X0308242Y0132358D02*
X0311042Y0132358D01*
X0312309Y0133157D02*
X0309537Y0133157D01*
X0310831Y0133955D02*
X0313576Y0133955D01*
X0314843Y0134754D02*
X0312126Y0134754D01*
X0313420Y0135552D02*
X0316110Y0135552D01*
X0317377Y0136351D02*
X0314714Y0136351D01*
X0316009Y0137149D02*
X0318644Y0137149D01*
X0319911Y0137948D02*
X0317303Y0137948D01*
X0318598Y0138746D02*
X0321179Y0138746D01*
X0322446Y0139545D02*
X0319892Y0139545D01*
X0321186Y0140343D02*
X0323713Y0140343D01*
X0322481Y0141142D02*
X0324980Y0141142D01*
X0323775Y0141940D02*
X0326247Y0141940D01*
X0325070Y0142739D02*
X0327514Y0142739D01*
X0326364Y0143537D02*
X0328781Y0143537D01*
X0327658Y0144336D02*
X0330048Y0144336D01*
X0328953Y0145134D02*
X0331315Y0145134D01*
X0330247Y0145933D02*
X0332582Y0145933D01*
X0331542Y0146732D02*
X0333849Y0146732D01*
X0332836Y0147530D02*
X0335116Y0147530D01*
X0334131Y0148329D02*
X0336384Y0148329D01*
X0335425Y0149127D02*
X0337651Y0149127D01*
X0336719Y0149926D02*
X0338918Y0149926D01*
X0338014Y0150724D02*
X0340185Y0150724D01*
X0339308Y0151523D02*
X0341452Y0151523D01*
X0340603Y0152321D02*
X0342719Y0152321D01*
X0341897Y0153120D02*
X0343986Y0153120D01*
X0343191Y0153918D02*
X0345253Y0153918D01*
X0344486Y0154717D02*
X0346520Y0154717D01*
X0345780Y0155515D02*
X0347787Y0155515D01*
X0347075Y0156314D02*
X0349054Y0156314D01*
X0348369Y0157112D02*
X0350321Y0157112D01*
X0349663Y0157911D02*
X0351589Y0157911D01*
X0350958Y0158709D02*
X0352856Y0158709D01*
X0352252Y0159508D02*
X0354123Y0159508D01*
X0353547Y0160306D02*
X0355390Y0160306D01*
X0354841Y0161105D02*
X0356657Y0161105D01*
X0356136Y0161903D02*
X0357924Y0161903D01*
X0357430Y0162702D02*
X0359191Y0162702D01*
X0358724Y0163500D02*
X0360458Y0163500D01*
X0360019Y0164299D02*
X0361725Y0164299D01*
X0361313Y0165097D02*
X0362992Y0165097D01*
X0362608Y0165896D02*
X0364259Y0165896D01*
X0363902Y0166694D02*
X0365526Y0166694D01*
X0365196Y0167493D02*
X0366794Y0167493D01*
X0366491Y0168291D02*
X0368061Y0168291D01*
X0367785Y0169090D02*
X0369328Y0169090D01*
X0369080Y0169888D02*
X0370595Y0169888D01*
X0370374Y0170687D02*
X0371862Y0170687D01*
X0371669Y0171485D02*
X0373129Y0171485D01*
X0372963Y0172284D02*
X0374396Y0172284D01*
X0374257Y0173082D02*
X0375663Y0173082D01*
X0375552Y0173881D02*
X0376930Y0173881D01*
X0376846Y0174679D02*
X0378197Y0174679D01*
X0378141Y0175478D02*
X0379464Y0175478D01*
X0379435Y0176276D02*
X0380731Y0176276D01*
X0380729Y0177075D02*
X0381999Y0177075D01*
X0382024Y0177873D02*
X0383266Y0177873D01*
X0383318Y0178672D02*
X0384533Y0178672D01*
X0384613Y0179470D02*
X0385800Y0179470D01*
X0385907Y0180269D02*
X0387067Y0180269D01*
X0390432Y0173881D02*
X0391788Y0173881D01*
X0391705Y0174679D02*
X0393050Y0174679D01*
X0392979Y0175478D02*
X0394312Y0175478D01*
X0394252Y0176276D02*
X0395575Y0176276D01*
X0395526Y0177075D02*
X0396837Y0177075D01*
X0396799Y0177873D02*
X0398099Y0177873D01*
X0398072Y0178672D02*
X0398633Y0178672D01*
X0405533Y0178672D02*
X0496233Y0178672D01*
X0496233Y0179470D02*
X0405588Y0179470D01*
X0405533Y0180269D02*
X0496233Y0180269D01*
X0496233Y0181068D02*
X0405482Y0181068D01*
X0405387Y0181866D02*
X0496233Y0181866D01*
X0496233Y0182665D02*
X0405054Y0182665D01*
X0404675Y0183463D02*
X0496233Y0183463D01*
X0496233Y0184262D02*
X0404256Y0184262D01*
X0403564Y0185060D02*
X0496233Y0185060D01*
X0496233Y0185859D02*
X0402630Y0185859D01*
X0401234Y0186657D02*
X0496233Y0186657D01*
X0496233Y0177873D02*
X0405533Y0177873D01*
X0405533Y0177075D02*
X0496233Y0177075D01*
X0496233Y0176276D02*
X0405533Y0176276D01*
X0405533Y0175478D02*
X0496233Y0175478D01*
X0496233Y0174679D02*
X0405533Y0174679D01*
X0405533Y0173881D02*
X0496233Y0173881D01*
X0496233Y0173082D02*
X0405533Y0173082D01*
X0405533Y0172284D02*
X0496233Y0172284D01*
X0496233Y0171485D02*
X0405533Y0171485D01*
X0405533Y0170687D02*
X0496233Y0170687D01*
X0496233Y0169888D02*
X0405533Y0169888D01*
X0405533Y0169090D02*
X0496233Y0169090D01*
X0496233Y0168291D02*
X0405533Y0168291D01*
X0405533Y0167493D02*
X0496233Y0167493D01*
X0496233Y0166694D02*
X0405533Y0166694D01*
X0405533Y0165896D02*
X0496233Y0165896D01*
X0496233Y0165097D02*
X0405533Y0165097D01*
X0405533Y0164299D02*
X0496233Y0164299D01*
X0496233Y0163500D02*
X0405533Y0163500D01*
X0405533Y0162702D02*
X0496233Y0162702D01*
X0496233Y0161903D02*
X0405533Y0161903D01*
X0405533Y0161105D02*
X0496233Y0161105D01*
X0496233Y0160306D02*
X0405533Y0160306D01*
X0405533Y0159508D02*
X0496233Y0159508D01*
X0496233Y0158709D02*
X0405533Y0158709D01*
X0405533Y0157911D02*
X0496233Y0157911D01*
X0496233Y0157112D02*
X0405533Y0157112D01*
X0405533Y0156314D02*
X0496233Y0156314D01*
X0496233Y0155515D02*
X0405533Y0155515D01*
X0405533Y0154717D02*
X0496233Y0154717D01*
X0496233Y0153918D02*
X0405533Y0153918D01*
X0405533Y0153120D02*
X0496233Y0153120D01*
X0496233Y0152321D02*
X0405533Y0152321D01*
X0405533Y0151523D02*
X0496233Y0151523D01*
X0496233Y0150724D02*
X0405533Y0150724D01*
X0405533Y0149926D02*
X0496233Y0149926D01*
X0496233Y0149127D02*
X0405533Y0149127D01*
X0405533Y0148329D02*
X0496233Y0148329D01*
X0496233Y0147530D02*
X0405533Y0147530D01*
X0405533Y0146732D02*
X0496233Y0146732D01*
X0496233Y0145933D02*
X0405533Y0145933D01*
X0405533Y0145134D02*
X0496233Y0145134D01*
X0496233Y0144336D02*
X0405533Y0144336D01*
X0405533Y0143537D02*
X0496233Y0143537D01*
X0496233Y0142739D02*
X0405533Y0142739D01*
X0405533Y0141940D02*
X0496233Y0141940D01*
X0496233Y0141142D02*
X0405533Y0141142D01*
X0405533Y0140343D02*
X0496233Y0140343D01*
X0496233Y0139545D02*
X0405533Y0139545D01*
X0405533Y0138746D02*
X0496233Y0138746D01*
X0496233Y0137948D02*
X0405533Y0137948D01*
X0405533Y0137149D02*
X0496233Y0137149D01*
X0496233Y0136351D02*
X0405533Y0136351D01*
X0405533Y0135552D02*
X0496233Y0135552D01*
X0496233Y0134754D02*
X0405533Y0134754D01*
X0405533Y0133955D02*
X0496233Y0133955D01*
X0496233Y0133157D02*
X0405533Y0133157D01*
X0405533Y0132358D02*
X0496233Y0132358D01*
X0496233Y0131560D02*
X0405533Y0131560D01*
X0405533Y0130761D02*
X0496233Y0130761D01*
X0496233Y0129963D02*
X0405533Y0129963D01*
X0405533Y0129164D02*
X0486321Y0129164D01*
X0484127Y0128366D02*
X0405533Y0128366D01*
X0405533Y0127567D02*
X0482883Y0127567D01*
X0481932Y0126769D02*
X0405533Y0126769D01*
X0405533Y0125970D02*
X0481042Y0125970D01*
X0480581Y0125172D02*
X0405557Y0125172D01*
X0405600Y0124373D02*
X0480120Y0124373D01*
X0479658Y0123575D02*
X0405417Y0123575D01*
X0405220Y0122776D02*
X0479379Y0122776D01*
X0479239Y0121978D02*
X0404983Y0121978D01*
X0404475Y0121179D02*
X0479098Y0121179D01*
X0478957Y0120381D02*
X0403869Y0120381D01*
X0403115Y0119582D02*
X0478964Y0119582D01*
X0479104Y0118784D02*
X0401994Y0118784D01*
X0400319Y0117985D02*
X0479245Y0117985D01*
X0479386Y0117187D02*
X0227281Y0117187D01*
X0227421Y0117985D02*
X0309637Y0117985D01*
X0308838Y0118784D02*
X0227562Y0118784D01*
X0227703Y0119582D02*
X0308394Y0119582D01*
X0308533Y0120381D02*
X0305120Y0120381D01*
X0306387Y0121179D02*
X0308744Y0121179D01*
X0309600Y0121978D02*
X0307660Y0121978D01*
X0308934Y0122776D02*
X0311007Y0122776D01*
X0310207Y0123575D02*
X0312269Y0123575D01*
X0311481Y0124373D02*
X0313531Y0124373D01*
X0312754Y0125172D02*
X0314793Y0125172D01*
X0314027Y0125970D02*
X0316055Y0125970D01*
X0315301Y0126769D02*
X0317318Y0126769D01*
X0316574Y0127567D02*
X0318580Y0127567D01*
X0317848Y0128366D02*
X0319842Y0128366D01*
X0319121Y0129164D02*
X0321104Y0129164D01*
X0320394Y0129963D02*
X0322367Y0129963D01*
X0321668Y0130761D02*
X0323629Y0130761D01*
X0322941Y0131560D02*
X0324891Y0131560D01*
X0324215Y0132358D02*
X0326153Y0132358D01*
X0325488Y0133157D02*
X0327415Y0133157D01*
X0326762Y0133955D02*
X0328678Y0133955D01*
X0328035Y0134754D02*
X0329940Y0134754D01*
X0329308Y0135552D02*
X0331202Y0135552D01*
X0330582Y0136351D02*
X0332464Y0136351D01*
X0331855Y0137149D02*
X0333726Y0137149D01*
X0333129Y0137948D02*
X0334989Y0137948D01*
X0334402Y0138746D02*
X0336251Y0138746D01*
X0335675Y0139545D02*
X0337513Y0139545D01*
X0336949Y0140343D02*
X0338775Y0140343D01*
X0338222Y0141142D02*
X0340037Y0141142D01*
X0339496Y0141940D02*
X0341300Y0141940D01*
X0340769Y0142739D02*
X0342562Y0142739D01*
X0342042Y0143537D02*
X0343824Y0143537D01*
X0343316Y0144336D02*
X0345086Y0144336D01*
X0344589Y0145134D02*
X0346348Y0145134D01*
X0345863Y0145933D02*
X0347611Y0145933D01*
X0347136Y0146732D02*
X0348873Y0146732D01*
X0348409Y0147530D02*
X0350135Y0147530D01*
X0349683Y0148329D02*
X0351397Y0148329D01*
X0350956Y0149127D02*
X0352660Y0149127D01*
X0352230Y0149926D02*
X0353922Y0149926D01*
X0353503Y0150724D02*
X0355184Y0150724D01*
X0354777Y0151523D02*
X0356446Y0151523D01*
X0356050Y0152321D02*
X0357708Y0152321D01*
X0357323Y0153120D02*
X0358971Y0153120D01*
X0358597Y0153918D02*
X0360233Y0153918D01*
X0359870Y0154717D02*
X0361495Y0154717D01*
X0361144Y0155515D02*
X0362757Y0155515D01*
X0362417Y0156314D02*
X0364019Y0156314D01*
X0363690Y0157112D02*
X0365282Y0157112D01*
X0364964Y0157911D02*
X0366544Y0157911D01*
X0366237Y0158709D02*
X0367806Y0158709D01*
X0367511Y0159508D02*
X0369068Y0159508D01*
X0368784Y0160306D02*
X0370330Y0160306D01*
X0370057Y0161105D02*
X0371593Y0161105D01*
X0371331Y0161903D02*
X0372855Y0161903D01*
X0372604Y0162702D02*
X0374117Y0162702D01*
X0373878Y0163500D02*
X0375379Y0163500D01*
X0375151Y0164299D02*
X0376641Y0164299D01*
X0376424Y0165097D02*
X0377904Y0165097D01*
X0377698Y0165896D02*
X0379166Y0165896D01*
X0378971Y0166694D02*
X0380428Y0166694D01*
X0380245Y0167493D02*
X0381690Y0167493D01*
X0381518Y0168291D02*
X0382953Y0168291D01*
X0382791Y0169090D02*
X0384215Y0169090D01*
X0384065Y0169888D02*
X0385477Y0169888D01*
X0385338Y0170687D02*
X0386739Y0170687D01*
X0386612Y0171485D02*
X0388001Y0171485D01*
X0387885Y0172284D02*
X0389264Y0172284D01*
X0389159Y0173082D02*
X0390526Y0173082D01*
X0394870Y0166694D02*
X0396198Y0166694D01*
X0396152Y0167493D02*
X0397474Y0167493D01*
X0397434Y0168291D02*
X0398633Y0168291D01*
X0394922Y0165896D02*
X0393588Y0165896D01*
X0393646Y0165097D02*
X0392306Y0165097D01*
X0392370Y0164299D02*
X0391024Y0164299D01*
X0391094Y0163500D02*
X0389741Y0163500D01*
X0389818Y0162702D02*
X0388459Y0162702D01*
X0388542Y0161903D02*
X0387177Y0161903D01*
X0387266Y0161105D02*
X0385895Y0161105D01*
X0385991Y0160306D02*
X0384613Y0160306D01*
X0384715Y0159508D02*
X0383331Y0159508D01*
X0383439Y0158709D02*
X0382049Y0158709D01*
X0382163Y0157911D02*
X0380766Y0157911D01*
X0380887Y0157112D02*
X0379484Y0157112D01*
X0379611Y0156314D02*
X0378202Y0156314D01*
X0378335Y0155515D02*
X0376920Y0155515D01*
X0377059Y0154717D02*
X0375638Y0154717D01*
X0375783Y0153918D02*
X0374356Y0153918D01*
X0374507Y0153120D02*
X0373074Y0153120D01*
X0373231Y0152321D02*
X0371792Y0152321D01*
X0371955Y0151523D02*
X0370509Y0151523D01*
X0370680Y0150724D02*
X0369227Y0150724D01*
X0369404Y0149926D02*
X0367945Y0149926D01*
X0368128Y0149127D02*
X0366663Y0149127D01*
X0366852Y0148329D02*
X0365381Y0148329D01*
X0365576Y0147530D02*
X0364099Y0147530D01*
X0364300Y0146732D02*
X0362817Y0146732D01*
X0363024Y0145933D02*
X0361534Y0145933D01*
X0361748Y0145134D02*
X0360252Y0145134D01*
X0360472Y0144336D02*
X0358970Y0144336D01*
X0359196Y0143537D02*
X0357688Y0143537D01*
X0357920Y0142739D02*
X0356406Y0142739D01*
X0356644Y0141940D02*
X0355124Y0141940D01*
X0355368Y0141142D02*
X0353842Y0141142D01*
X0354093Y0140343D02*
X0352559Y0140343D01*
X0352817Y0139545D02*
X0351277Y0139545D01*
X0351541Y0138746D02*
X0349995Y0138746D01*
X0350265Y0137948D02*
X0348713Y0137948D01*
X0348989Y0137149D02*
X0347431Y0137149D01*
X0347713Y0136351D02*
X0346149Y0136351D01*
X0346437Y0135552D02*
X0344867Y0135552D01*
X0345161Y0134754D02*
X0343584Y0134754D01*
X0343885Y0133955D02*
X0342302Y0133955D01*
X0342609Y0133157D02*
X0341020Y0133157D01*
X0341333Y0132358D02*
X0339738Y0132358D01*
X0340057Y0131560D02*
X0338456Y0131560D01*
X0338782Y0130761D02*
X0337174Y0130761D01*
X0337506Y0129963D02*
X0335892Y0129963D01*
X0336230Y0129164D02*
X0334610Y0129164D01*
X0334954Y0128366D02*
X0333327Y0128366D01*
X0333678Y0127567D02*
X0332045Y0127567D01*
X0332402Y0126769D02*
X0330763Y0126769D01*
X0331126Y0125970D02*
X0329481Y0125970D01*
X0329850Y0125172D02*
X0328199Y0125172D01*
X0328574Y0124373D02*
X0326917Y0124373D01*
X0327298Y0123575D02*
X0325635Y0123575D01*
X0326022Y0122776D02*
X0324352Y0122776D01*
X0324600Y0121978D02*
X0323070Y0121978D01*
X0323747Y0121179D02*
X0321788Y0121179D01*
X0320506Y0120381D02*
X0323533Y0120381D01*
X0323400Y0119582D02*
X0319224Y0119582D01*
X0317942Y0118784D02*
X0323838Y0118784D01*
X0324637Y0117985D02*
X0316830Y0117985D01*
X0331330Y0117985D02*
X0339637Y0117985D01*
X0338838Y0118784D02*
X0332466Y0118784D01*
X0333777Y0119582D02*
X0338407Y0119582D01*
X0338533Y0120381D02*
X0335088Y0120381D01*
X0336399Y0121179D02*
X0338752Y0121179D01*
X0339600Y0121978D02*
X0337710Y0121978D01*
X0339021Y0122776D02*
X0341046Y0122776D01*
X0340332Y0123575D02*
X0342343Y0123575D01*
X0341643Y0124373D02*
X0343640Y0124373D01*
X0342954Y0125172D02*
X0344937Y0125172D01*
X0344265Y0125970D02*
X0346234Y0125970D01*
X0345576Y0126769D02*
X0347532Y0126769D01*
X0346887Y0127567D02*
X0348829Y0127567D01*
X0348198Y0128366D02*
X0350126Y0128366D01*
X0349509Y0129164D02*
X0351423Y0129164D01*
X0350820Y0129963D02*
X0352720Y0129963D01*
X0352131Y0130761D02*
X0354017Y0130761D01*
X0353442Y0131560D02*
X0355314Y0131560D01*
X0354753Y0132358D02*
X0356611Y0132358D01*
X0356064Y0133157D02*
X0357908Y0133157D01*
X0357375Y0133955D02*
X0359205Y0133955D01*
X0358686Y0134754D02*
X0360502Y0134754D01*
X0359997Y0135552D02*
X0361799Y0135552D01*
X0361308Y0136351D02*
X0363096Y0136351D01*
X0362620Y0137149D02*
X0364393Y0137149D01*
X0363931Y0137948D02*
X0365690Y0137948D01*
X0365242Y0138746D02*
X0366987Y0138746D01*
X0366553Y0139545D02*
X0368284Y0139545D01*
X0367864Y0140343D02*
X0369581Y0140343D01*
X0369175Y0141142D02*
X0370878Y0141142D01*
X0370486Y0141940D02*
X0372175Y0141940D01*
X0371797Y0142739D02*
X0373472Y0142739D01*
X0373108Y0143537D02*
X0374769Y0143537D01*
X0374419Y0144336D02*
X0376066Y0144336D01*
X0375730Y0145134D02*
X0377363Y0145134D01*
X0377041Y0145933D02*
X0378661Y0145933D01*
X0378352Y0146732D02*
X0379958Y0146732D01*
X0379663Y0147530D02*
X0381255Y0147530D01*
X0380974Y0148329D02*
X0382552Y0148329D01*
X0382285Y0149127D02*
X0383849Y0149127D01*
X0383596Y0149926D02*
X0385146Y0149926D01*
X0384907Y0150724D02*
X0386443Y0150724D01*
X0386218Y0151523D02*
X0387740Y0151523D01*
X0387529Y0152321D02*
X0389037Y0152321D01*
X0388840Y0153120D02*
X0390334Y0153120D01*
X0390151Y0153918D02*
X0391631Y0153918D01*
X0391462Y0154717D02*
X0392928Y0154717D01*
X0392774Y0155515D02*
X0394225Y0155515D01*
X0394085Y0156314D02*
X0395522Y0156314D01*
X0395396Y0157112D02*
X0396819Y0157112D01*
X0396707Y0157911D02*
X0398116Y0157911D01*
X0398018Y0158709D02*
X0398633Y0158709D01*
X0398618Y0149127D02*
X0398633Y0149127D01*
X0398633Y0148329D02*
X0397273Y0148329D01*
X0397436Y0147530D02*
X0395928Y0147530D01*
X0396102Y0146732D02*
X0394582Y0146732D01*
X0394768Y0145933D02*
X0393237Y0145933D01*
X0393434Y0145134D02*
X0391891Y0145134D01*
X0392100Y0144336D02*
X0390546Y0144336D01*
X0390767Y0143537D02*
X0389201Y0143537D01*
X0389433Y0142739D02*
X0387855Y0142739D01*
X0388099Y0141940D02*
X0386510Y0141940D01*
X0386765Y0141142D02*
X0385165Y0141142D01*
X0385431Y0140343D02*
X0383819Y0140343D01*
X0384098Y0139545D02*
X0382474Y0139545D01*
X0382764Y0138746D02*
X0381129Y0138746D01*
X0381430Y0137948D02*
X0379783Y0137948D01*
X0380096Y0137149D02*
X0378438Y0137149D01*
X0378762Y0136351D02*
X0377092Y0136351D01*
X0377429Y0135552D02*
X0375747Y0135552D01*
X0376095Y0134754D02*
X0374402Y0134754D01*
X0374761Y0133955D02*
X0373056Y0133955D01*
X0373427Y0133157D02*
X0371711Y0133157D01*
X0372093Y0132358D02*
X0370366Y0132358D01*
X0370759Y0131560D02*
X0369020Y0131560D01*
X0369426Y0130761D02*
X0367675Y0130761D01*
X0368092Y0129963D02*
X0366329Y0129963D01*
X0366758Y0129164D02*
X0364984Y0129164D01*
X0365424Y0128366D02*
X0363639Y0128366D01*
X0364090Y0127567D02*
X0362293Y0127567D01*
X0362757Y0126769D02*
X0360948Y0126769D01*
X0361423Y0125970D02*
X0359603Y0125970D01*
X0360089Y0125172D02*
X0358257Y0125172D01*
X0358755Y0124373D02*
X0356912Y0124373D01*
X0357421Y0123575D02*
X0355566Y0123575D01*
X0356088Y0122776D02*
X0354221Y0122776D01*
X0354600Y0121978D02*
X0352876Y0121978D01*
X0353761Y0121179D02*
X0351530Y0121179D01*
X0350185Y0120381D02*
X0353533Y0120381D01*
X0353419Y0119582D02*
X0348840Y0119582D01*
X0347494Y0118784D02*
X0353838Y0118784D01*
X0354637Y0117985D02*
X0346330Y0117985D01*
X0361330Y0117985D02*
X0369737Y0117985D01*
X0368938Y0118784D02*
X0362549Y0118784D01*
X0363959Y0119582D02*
X0368541Y0119582D01*
X0368633Y0120381D02*
X0365369Y0120381D01*
X0366778Y0121179D02*
X0368877Y0121179D01*
X0368188Y0121978D02*
X0369700Y0121978D01*
X0369597Y0122776D02*
X0371270Y0122776D01*
X0371007Y0123575D02*
X0372679Y0123575D01*
X0372416Y0124373D02*
X0374088Y0124373D01*
X0373826Y0125172D02*
X0375498Y0125172D01*
X0375235Y0125970D02*
X0376907Y0125970D01*
X0376645Y0126769D02*
X0378316Y0126769D01*
X0378054Y0127567D02*
X0379725Y0127567D01*
X0379464Y0128366D02*
X0381134Y0128366D01*
X0380874Y0129164D02*
X0382543Y0129164D01*
X0382283Y0129963D02*
X0383952Y0129963D01*
X0383693Y0130761D02*
X0385362Y0130761D01*
X0385102Y0131560D02*
X0386771Y0131560D01*
X0386512Y0132358D02*
X0388180Y0132358D01*
X0387921Y0133157D02*
X0389589Y0133157D01*
X0389331Y0133955D02*
X0390998Y0133955D01*
X0390740Y0134754D02*
X0392407Y0134754D01*
X0392150Y0135552D02*
X0393816Y0135552D01*
X0393559Y0136351D02*
X0395225Y0136351D01*
X0394969Y0137149D02*
X0396635Y0137149D01*
X0396379Y0137948D02*
X0398044Y0137948D01*
X0397788Y0138746D02*
X0398633Y0138746D01*
X0398633Y0129164D02*
X0398067Y0129164D01*
X0398633Y0128366D02*
X0396464Y0128366D01*
X0397088Y0127567D02*
X0394861Y0127567D01*
X0395514Y0126769D02*
X0393257Y0126769D01*
X0393940Y0125970D02*
X0391654Y0125970D01*
X0392366Y0125172D02*
X0390051Y0125172D01*
X0390792Y0124373D02*
X0388448Y0124373D01*
X0389217Y0123575D02*
X0386845Y0123575D01*
X0387643Y0122776D02*
X0385242Y0122776D01*
X0385900Y0121978D02*
X0383638Y0121978D01*
X0385101Y0121179D02*
X0382035Y0121179D01*
X0380432Y0120381D02*
X0384833Y0120381D01*
X0384778Y0119582D02*
X0378829Y0119582D01*
X0377226Y0118784D02*
X0385138Y0118784D01*
X0385937Y0117985D02*
X0375830Y0117985D01*
X0346648Y0164299D02*
X0344530Y0164299D01*
X0345358Y0163500D02*
X0343211Y0163500D01*
X0344068Y0162702D02*
X0341893Y0162702D01*
X0342778Y0161903D02*
X0340575Y0161903D01*
X0341488Y0161105D02*
X0339256Y0161105D01*
X0340198Y0160306D02*
X0337938Y0160306D01*
X0338908Y0159508D02*
X0336620Y0159508D01*
X0337618Y0158709D02*
X0335301Y0158709D01*
X0336328Y0157911D02*
X0333983Y0157911D01*
X0335038Y0157112D02*
X0332665Y0157112D01*
X0333748Y0156314D02*
X0331346Y0156314D01*
X0332458Y0155515D02*
X0330028Y0155515D01*
X0331168Y0154717D02*
X0328710Y0154717D01*
X0329878Y0153918D02*
X0327391Y0153918D01*
X0328588Y0153120D02*
X0326073Y0153120D01*
X0327298Y0152321D02*
X0324755Y0152321D01*
X0326008Y0151523D02*
X0323436Y0151523D01*
X0324718Y0150724D02*
X0322118Y0150724D01*
X0323428Y0149926D02*
X0320800Y0149926D01*
X0319481Y0149127D02*
X0322138Y0149127D01*
X0320848Y0148329D02*
X0318163Y0148329D01*
X0316845Y0147530D02*
X0319558Y0147530D01*
X0318268Y0146732D02*
X0315526Y0146732D01*
X0314208Y0145933D02*
X0316978Y0145933D01*
X0315688Y0145134D02*
X0312890Y0145134D01*
X0311571Y0144336D02*
X0314398Y0144336D01*
X0313108Y0143537D02*
X0310253Y0143537D01*
X0308935Y0142739D02*
X0311818Y0142739D01*
X0310528Y0141940D02*
X0307616Y0141940D01*
X0306298Y0141142D02*
X0309238Y0141142D01*
X0302825Y0149926D02*
X0210433Y0149926D01*
X0210433Y0150724D02*
X0301835Y0150724D01*
X0301421Y0151523D02*
X0210433Y0151523D01*
X0210433Y0152321D02*
X0301397Y0152321D01*
X0301311Y0153120D02*
X0210433Y0153120D01*
X0210433Y0153918D02*
X0301226Y0153918D01*
X0301017Y0154717D02*
X0210433Y0154717D01*
X0210433Y0155515D02*
X0301055Y0155515D01*
X0301423Y0156314D02*
X0210433Y0156314D01*
X0210433Y0157112D02*
X0302749Y0157112D01*
X0304091Y0157911D02*
X0210433Y0157911D01*
X0210433Y0158709D02*
X0305434Y0158709D01*
X0306776Y0159508D02*
X0210433Y0159508D01*
X0210433Y0160306D02*
X0302113Y0160306D01*
X0301527Y0161105D02*
X0210433Y0161105D01*
X0210433Y0161903D02*
X0301289Y0161903D01*
X0301356Y0162702D02*
X0210433Y0162702D01*
X0210433Y0163500D02*
X0301271Y0163500D01*
X0301148Y0164299D02*
X0210433Y0164299D01*
X0210433Y0165097D02*
X0301100Y0165097D01*
X0301310Y0165896D02*
X0210433Y0165896D01*
X0210433Y0166694D02*
X0301954Y0166694D01*
X0303460Y0167493D02*
X0210433Y0167493D01*
X0210433Y0168291D02*
X0304884Y0168291D01*
X0306309Y0169090D02*
X0210433Y0169090D01*
X0210433Y0169888D02*
X0307734Y0169888D01*
X0309158Y0170687D02*
X0305166Y0170687D01*
X0306882Y0171485D02*
X0310583Y0171485D01*
X0310313Y0173082D02*
X0313432Y0173082D01*
X0312029Y0173881D02*
X0314857Y0173881D01*
X0313744Y0174679D02*
X0316281Y0174679D01*
X0315460Y0175478D02*
X0317706Y0175478D01*
X0317176Y0176276D02*
X0319130Y0176276D01*
X0318891Y0177075D02*
X0320555Y0177075D01*
X0320607Y0177873D02*
X0321980Y0177873D01*
X0322322Y0178672D02*
X0323404Y0178672D01*
X0324038Y0179470D02*
X0324829Y0179470D01*
X0325754Y0180269D02*
X0326254Y0180269D01*
X0329356Y0173881D02*
X0330940Y0173881D01*
X0330792Y0174679D02*
X0332282Y0174679D01*
X0332229Y0175478D02*
X0333625Y0175478D01*
X0333665Y0176276D02*
X0334967Y0176276D01*
X0335102Y0177075D02*
X0336310Y0177075D01*
X0336538Y0177873D02*
X0337652Y0177873D01*
X0337975Y0178672D02*
X0338994Y0178672D01*
X0339411Y0179470D02*
X0340337Y0179470D01*
X0340848Y0180269D02*
X0341679Y0180269D01*
X0329597Y0173082D02*
X0327919Y0173082D01*
X0328255Y0172284D02*
X0326483Y0172284D01*
X0326913Y0171485D02*
X0325046Y0171485D01*
X0325570Y0170687D02*
X0323609Y0170687D01*
X0324228Y0169888D02*
X0322173Y0169888D01*
X0322885Y0169090D02*
X0320736Y0169090D01*
X0321543Y0168291D02*
X0319300Y0168291D01*
X0320200Y0167493D02*
X0317863Y0167493D01*
X0318858Y0166694D02*
X0316427Y0166694D01*
X0317516Y0165896D02*
X0314990Y0165896D01*
X0316173Y0165097D02*
X0313554Y0165097D01*
X0314831Y0164299D02*
X0312117Y0164299D01*
X0313488Y0163500D02*
X0310681Y0163500D01*
X0310804Y0161903D02*
X0307808Y0161903D01*
X0308119Y0160306D02*
X0305013Y0160306D01*
X0306371Y0161105D02*
X0309461Y0161105D01*
X0309244Y0162702D02*
X0312146Y0162702D01*
X0312007Y0172284D02*
X0308597Y0172284D01*
X0305538Y0177873D02*
X0304222Y0177873D01*
X0303769Y0177075D02*
X0210433Y0177075D01*
X0210433Y0177873D02*
X0302398Y0177873D01*
X0301503Y0178672D02*
X0210433Y0178672D01*
X0210433Y0179470D02*
X0301079Y0179470D01*
X0301065Y0180269D02*
X0210433Y0180269D01*
X0210433Y0181068D02*
X0301185Y0181068D01*
X0301280Y0181866D02*
X0210433Y0181866D01*
X0210433Y0182665D02*
X0301613Y0182665D01*
X0301992Y0183463D02*
X0210433Y0183463D01*
X0210433Y0184262D02*
X0302411Y0184262D01*
X0303102Y0185060D02*
X0210433Y0185060D01*
X0210433Y0185859D02*
X0304036Y0185859D01*
X0305433Y0186657D02*
X0210433Y0186657D01*
X0210433Y0193844D02*
X0436000Y0193844D01*
X0436799Y0194642D02*
X0210433Y0194642D01*
X0210433Y0195441D02*
X0437597Y0195441D01*
X0437141Y0195940D02*
X0437461Y0196124D01*
X0437721Y0196384D01*
X0437906Y0196704D01*
X0438001Y0197060D01*
X0438001Y0199600D01*
X0434639Y0199600D01*
X0434639Y0200400D01*
X0438001Y0200400D01*
X0438001Y0202940D01*
X0437906Y0203296D01*
X0437721Y0203616D01*
X0437461Y0203876D01*
X0437141Y0204060D01*
X0436785Y0204156D01*
X0434639Y0204156D01*
X0434639Y0200400D01*
X0433839Y0200400D01*
X0433839Y0204156D01*
X0431692Y0204156D01*
X0431336Y0204060D01*
X0431017Y0203876D01*
X0430756Y0203616D01*
X0430572Y0203296D01*
X0430477Y0202940D01*
X0430477Y0200400D01*
X0433839Y0200400D01*
X0433839Y0199600D01*
X0434639Y0199600D01*
X0434639Y0195844D01*
X0436785Y0195844D01*
X0437141Y0195940D01*
X0437576Y0196239D02*
X0438396Y0196239D01*
X0437995Y0197038D02*
X0439194Y0197038D01*
X0439993Y0197836D02*
X0438001Y0197836D01*
X0438001Y0198635D02*
X0440791Y0198635D01*
X0441590Y0199433D02*
X0438001Y0199433D01*
X0438001Y0201030D02*
X0443187Y0201030D01*
X0443985Y0201829D02*
X0438001Y0201829D01*
X0438001Y0202627D02*
X0444784Y0202627D01*
X0445582Y0203426D02*
X0437831Y0203426D01*
X0434639Y0203426D02*
X0433839Y0203426D01*
X0433839Y0202627D02*
X0434639Y0202627D01*
X0434639Y0201829D02*
X0433839Y0201829D01*
X0433839Y0201030D02*
X0434639Y0201030D01*
X0434639Y0200232D02*
X0442388Y0200232D01*
X0446381Y0204224D02*
X0425584Y0204224D01*
X0426383Y0203426D02*
X0430647Y0203426D01*
X0430477Y0202627D02*
X0426390Y0202627D01*
X0426390Y0201829D02*
X0430477Y0201829D01*
X0430477Y0201030D02*
X0426390Y0201030D01*
X0426390Y0200232D02*
X0433839Y0200232D01*
X0433839Y0199600D02*
X0430477Y0199600D01*
X0430477Y0197060D01*
X0430572Y0196704D01*
X0430756Y0196384D01*
X0431017Y0196124D01*
X0431336Y0195940D01*
X0431692Y0195844D01*
X0433839Y0195844D01*
X0433839Y0199600D01*
X0433839Y0199433D02*
X0434639Y0199433D01*
X0434639Y0198635D02*
X0433839Y0198635D01*
X0433839Y0197836D02*
X0434639Y0197836D01*
X0434639Y0197038D02*
X0433839Y0197038D01*
X0433839Y0196239D02*
X0434639Y0196239D01*
X0430902Y0196239D02*
X0426048Y0196239D01*
X0426390Y0197038D02*
X0430483Y0197038D01*
X0430477Y0197836D02*
X0426390Y0197836D01*
X0426390Y0198635D02*
X0430477Y0198635D01*
X0430477Y0199433D02*
X0426390Y0199433D01*
X0418466Y0197836D02*
X0398001Y0197836D01*
X0398001Y0197060D02*
X0398001Y0199600D01*
X0394639Y0199600D01*
X0394639Y0200400D01*
X0398001Y0200400D01*
X0398001Y0202940D01*
X0397906Y0203296D01*
X0397721Y0203616D01*
X0397461Y0203876D01*
X0397141Y0204060D01*
X0396785Y0204156D01*
X0394639Y0204156D01*
X0394639Y0200400D01*
X0393839Y0200400D01*
X0393839Y0204156D01*
X0391692Y0204156D01*
X0391336Y0204060D01*
X0391017Y0203876D01*
X0390756Y0203616D01*
X0390572Y0203296D01*
X0390477Y0202940D01*
X0390477Y0200400D01*
X0393839Y0200400D01*
X0393839Y0199600D01*
X0394639Y0199600D01*
X0394639Y0195844D01*
X0396785Y0195844D01*
X0397141Y0195940D01*
X0397461Y0196124D01*
X0397721Y0196384D01*
X0397906Y0196704D01*
X0398001Y0197060D01*
X0397995Y0197038D02*
X0418466Y0197038D01*
X0418808Y0196239D02*
X0397576Y0196239D01*
X0398001Y0198635D02*
X0404441Y0198635D01*
X0403883Y0199433D02*
X0398001Y0199433D01*
X0398001Y0201030D02*
X0403883Y0201030D01*
X0403883Y0200232D02*
X0394639Y0200232D01*
X0394639Y0201030D02*
X0393839Y0201030D01*
X0393839Y0200232D02*
X0386390Y0200232D01*
X0386390Y0201030D02*
X0390477Y0201030D01*
X0390477Y0201829D02*
X0386390Y0201829D01*
X0386390Y0202627D02*
X0390477Y0202627D01*
X0390647Y0203426D02*
X0386383Y0203426D01*
X0385584Y0204224D02*
X0403883Y0204224D01*
X0403883Y0203426D02*
X0397831Y0203426D01*
X0398001Y0202627D02*
X0403883Y0202627D01*
X0403883Y0201829D02*
X0398001Y0201829D01*
X0394639Y0201829D02*
X0393839Y0201829D01*
X0393839Y0202627D02*
X0394639Y0202627D01*
X0394639Y0203426D02*
X0393839Y0203426D01*
X0393839Y0199600D02*
X0390477Y0199600D01*
X0390477Y0197060D01*
X0390572Y0196704D01*
X0390756Y0196384D01*
X0391017Y0196124D01*
X0391336Y0195940D01*
X0391692Y0195844D01*
X0393839Y0195844D01*
X0393839Y0199600D01*
X0393839Y0199433D02*
X0394639Y0199433D01*
X0394639Y0198635D02*
X0393839Y0198635D01*
X0393839Y0197836D02*
X0394639Y0197836D01*
X0394639Y0197038D02*
X0393839Y0197038D01*
X0393839Y0196239D02*
X0394639Y0196239D01*
X0390902Y0196239D02*
X0386048Y0196239D01*
X0386390Y0197038D02*
X0390483Y0197038D01*
X0390477Y0197836D02*
X0386390Y0197836D01*
X0386390Y0198635D02*
X0390477Y0198635D01*
X0390477Y0199433D02*
X0386390Y0199433D01*
X0378466Y0197836D02*
X0210433Y0197836D01*
X0210433Y0197038D02*
X0378466Y0197038D01*
X0378808Y0196239D02*
X0210433Y0196239D01*
X0210433Y0198635D02*
X0289441Y0198635D01*
X0288883Y0199433D02*
X0210433Y0199433D01*
X0210433Y0200232D02*
X0288883Y0200232D01*
X0288883Y0201030D02*
X0210433Y0201030D01*
X0210433Y0201829D02*
X0288883Y0201829D01*
X0288883Y0202627D02*
X0210433Y0202627D01*
X0210433Y0203426D02*
X0288883Y0203426D01*
X0288883Y0204224D02*
X0210433Y0204224D01*
X0210433Y0205023D02*
X0288883Y0205023D01*
X0288883Y0205821D02*
X0210433Y0205821D01*
X0210433Y0206620D02*
X0288883Y0206620D01*
X0288883Y0207418D02*
X0210433Y0207418D01*
X0210433Y0208217D02*
X0288883Y0208217D01*
X0288883Y0209015D02*
X0210433Y0209015D01*
X0210433Y0209814D02*
X0288883Y0209814D01*
X0288883Y0210612D02*
X0210433Y0210612D01*
X0210433Y0211411D02*
X0288883Y0211411D01*
X0288883Y0212209D02*
X0210433Y0212209D01*
X0210433Y0213008D02*
X0288883Y0213008D01*
X0288883Y0213806D02*
X0210433Y0213806D01*
X0210433Y0214605D02*
X0288883Y0214605D01*
X0288883Y0215403D02*
X0210433Y0215403D01*
X0210433Y0216202D02*
X0288883Y0216202D01*
X0288883Y0217001D02*
X0210433Y0217001D01*
X0210433Y0217799D02*
X0288883Y0217799D01*
X0288883Y0218598D02*
X0210433Y0218598D01*
X0210433Y0219396D02*
X0288883Y0219396D01*
X0288883Y0220195D02*
X0210433Y0220195D01*
X0210433Y0220993D02*
X0288883Y0220993D01*
X0288883Y0221792D02*
X0210433Y0221792D01*
X0210433Y0222590D02*
X0288883Y0222590D01*
X0288883Y0223389D02*
X0210433Y0223389D01*
X0210433Y0224187D02*
X0288883Y0224187D01*
X0288883Y0224986D02*
X0210433Y0224986D01*
X0210433Y0225784D02*
X0288883Y0225784D01*
X0288883Y0226583D02*
X0210433Y0226583D01*
X0210433Y0227381D02*
X0288883Y0227381D01*
X0288883Y0228180D02*
X0210433Y0228180D01*
X0210433Y0228978D02*
X0288883Y0228978D01*
X0288883Y0229777D02*
X0210433Y0229777D01*
X0210433Y0230575D02*
X0288883Y0230575D01*
X0288883Y0231374D02*
X0210433Y0231374D01*
X0210433Y0232172D02*
X0288883Y0232172D01*
X0288883Y0232971D02*
X0210433Y0232971D01*
X0210433Y0233769D02*
X0288883Y0233769D01*
X0288883Y0234568D02*
X0210433Y0234568D01*
X0210433Y0235366D02*
X0288883Y0235366D01*
X0288883Y0236165D02*
X0210433Y0236165D01*
X0210433Y0236963D02*
X0288883Y0236963D01*
X0288883Y0237762D02*
X0210433Y0237762D01*
X0210433Y0238560D02*
X0288883Y0238560D01*
X0288883Y0239359D02*
X0210433Y0239359D01*
X0210433Y0240157D02*
X0288883Y0240157D01*
X0288883Y0240956D02*
X0210433Y0240956D01*
X0210433Y0241754D02*
X0288883Y0241754D01*
X0288883Y0242553D02*
X0210433Y0242553D01*
X0210433Y0243351D02*
X0288883Y0243351D01*
X0288883Y0244150D02*
X0210433Y0244150D01*
X0210433Y0244948D02*
X0288883Y0244948D01*
X0288883Y0245747D02*
X0210433Y0245747D01*
X0210433Y0246545D02*
X0288883Y0246545D01*
X0288883Y0247344D02*
X0210433Y0247344D01*
X0210433Y0248142D02*
X0288883Y0248142D01*
X0288883Y0248941D02*
X0210433Y0248941D01*
X0210433Y0249739D02*
X0288883Y0249739D01*
X0288883Y0250538D02*
X0210433Y0250538D01*
X0210433Y0251337D02*
X0288883Y0251337D01*
X0288883Y0252135D02*
X0210433Y0252135D01*
X0210433Y0252934D02*
X0288883Y0252934D01*
X0288883Y0253732D02*
X0210433Y0253732D01*
X0210433Y0254531D02*
X0288883Y0254531D01*
X0288883Y0255329D02*
X0210433Y0255329D01*
X0210433Y0256128D02*
X0288883Y0256128D01*
X0288883Y0256926D02*
X0210433Y0256926D01*
X0210433Y0257725D02*
X0288883Y0257725D01*
X0288883Y0258523D02*
X0210433Y0258523D01*
X0210433Y0259322D02*
X0288883Y0259322D01*
X0288883Y0260120D02*
X0210433Y0260120D01*
X0210433Y0260919D02*
X0288883Y0260919D01*
X0288883Y0261717D02*
X0210433Y0261717D01*
X0210433Y0262516D02*
X0288883Y0262516D01*
X0288883Y0263314D02*
X0210433Y0263314D01*
X0210433Y0264113D02*
X0288883Y0264113D01*
X0288883Y0264911D02*
X0210433Y0264911D01*
X0210433Y0265710D02*
X0288883Y0265710D01*
X0288883Y0266508D02*
X0210433Y0266508D01*
X0210433Y0267307D02*
X0288883Y0267307D01*
X0288883Y0268105D02*
X0210433Y0268105D01*
X0210433Y0268904D02*
X0288883Y0268904D01*
X0288883Y0269702D02*
X0210433Y0269702D01*
X0210433Y0270501D02*
X0288883Y0270501D01*
X0288883Y0271299D02*
X0259120Y0271299D01*
X0260555Y0271822D02*
X0260555Y0271822D01*
X0260884Y0272098D02*
X0288883Y0272098D01*
X0288883Y0272896D02*
X0261836Y0272896D01*
X0262787Y0273695D02*
X0288883Y0273695D01*
X0288883Y0274493D02*
X0263393Y0274493D01*
X0263067Y0273930D02*
X0263067Y0273930D01*
X0263067Y0273930D01*
X0263854Y0275292D02*
X0288883Y0275292D01*
X0288883Y0276090D02*
X0264315Y0276090D01*
X0264728Y0276889D02*
X0288883Y0276889D01*
X0288883Y0277687D02*
X0264869Y0277687D01*
X0265010Y0278486D02*
X0288883Y0278486D01*
X0288883Y0279284D02*
X0265151Y0279284D01*
X0265277Y0280000D02*
X0265277Y0280000D01*
X0253003Y0288867D02*
X0210433Y0288867D01*
X0210433Y0288068D02*
X0250980Y0288068D01*
X0250029Y0287270D02*
X0210433Y0287270D01*
X0210433Y0286471D02*
X0249077Y0286471D01*
X0248599Y0286070D02*
X0248599Y0286070D01*
X0248599Y0286070D01*
X0248370Y0285672D02*
X0210433Y0285672D01*
X0210433Y0284874D02*
X0247909Y0284874D01*
X0247448Y0284075D02*
X0210433Y0284075D01*
X0210433Y0283277D02*
X0246987Y0283277D01*
X0246959Y0283230D02*
X0246959Y0283230D01*
X0246827Y0282478D02*
X0210433Y0282478D01*
X0210433Y0281680D02*
X0246686Y0281680D01*
X0246545Y0280881D02*
X0210433Y0280881D01*
X0210433Y0280083D02*
X0246404Y0280083D01*
X0246390Y0280000D02*
X0246390Y0280000D01*
X0246516Y0279284D02*
X0210433Y0279284D01*
X0210433Y0278486D02*
X0246657Y0278486D01*
X0246798Y0277687D02*
X0210433Y0277687D01*
X0210433Y0276889D02*
X0246938Y0276889D01*
X0246959Y0276770D02*
X0246959Y0276770D01*
X0247352Y0276090D02*
X0210433Y0276090D01*
X0210433Y0275292D02*
X0247813Y0275292D01*
X0248274Y0274493D02*
X0210433Y0274493D01*
X0210433Y0273695D02*
X0248879Y0273695D01*
X0249831Y0272896D02*
X0210433Y0272896D01*
X0210433Y0272098D02*
X0250783Y0272098D01*
X0252547Y0271299D02*
X0210433Y0271299D01*
X0210433Y0176276D02*
X0302000Y0176276D01*
X0301433Y0175478D02*
X0210433Y0175478D01*
X0210433Y0174679D02*
X0301311Y0174679D01*
X0301433Y0173881D02*
X0210433Y0173881D01*
X0210433Y0173082D02*
X0301433Y0173082D01*
X0301261Y0172284D02*
X0210433Y0172284D01*
X0210433Y0171485D02*
X0301437Y0171485D01*
X0302004Y0170687D02*
X0210433Y0170687D01*
X0222540Y0128366D02*
X0304706Y0128366D01*
X0303439Y0127567D02*
X0223783Y0127567D01*
X0224735Y0126769D02*
X0301991Y0126769D01*
X0301192Y0125970D02*
X0225625Y0125970D01*
X0226086Y0125172D02*
X0300933Y0125172D01*
X0300814Y0124373D02*
X0226547Y0124373D01*
X0227008Y0123575D02*
X0300933Y0123575D01*
X0301286Y0122776D02*
X0227287Y0122776D01*
X0227428Y0121978D02*
X0301604Y0121978D01*
X0302084Y0121179D02*
X0227569Y0121179D01*
X0227710Y0120381D02*
X0302640Y0120381D01*
X0305866Y0178672D02*
X0307307Y0178672D01*
X0307782Y0179470D02*
X0309075Y0179470D01*
X0309699Y0180269D02*
X0310844Y0180269D01*
X0292783Y0202627D02*
X0378466Y0202627D01*
X0378473Y0203426D02*
X0292783Y0203426D01*
X0292783Y0204224D02*
X0379271Y0204224D01*
X0378845Y0216202D02*
X0292783Y0216202D01*
X0292783Y0215403D02*
X0403883Y0215403D01*
X0403883Y0214605D02*
X0292783Y0214605D01*
X0292783Y0213806D02*
X0403883Y0213806D01*
X0403883Y0213008D02*
X0292783Y0213008D01*
X0292783Y0212209D02*
X0403883Y0212209D01*
X0403883Y0211411D02*
X0292783Y0211411D01*
X0292783Y0210612D02*
X0403883Y0210612D01*
X0403883Y0209814D02*
X0292783Y0209814D01*
X0292783Y0209015D02*
X0403883Y0209015D01*
X0403883Y0208217D02*
X0292783Y0208217D01*
X0292783Y0207418D02*
X0403883Y0207418D01*
X0403883Y0206620D02*
X0292783Y0206620D01*
X0292783Y0205821D02*
X0403883Y0205821D01*
X0403883Y0205023D02*
X0292783Y0205023D01*
X0292783Y0217001D02*
X0378466Y0217001D01*
X0378466Y0217799D02*
X0292783Y0217799D01*
X0295283Y0222590D02*
X0378466Y0222590D01*
X0378466Y0223389D02*
X0295283Y0223389D01*
X0295283Y0224187D02*
X0379234Y0224187D01*
X0385622Y0224187D02*
X0403883Y0224187D01*
X0403883Y0223389D02*
X0397852Y0223389D01*
X0397906Y0223296D02*
X0397721Y0223616D01*
X0397461Y0223876D01*
X0397141Y0224060D01*
X0396785Y0224156D01*
X0394639Y0224156D01*
X0394639Y0220400D01*
X0398001Y0220400D01*
X0398001Y0222940D01*
X0397906Y0223296D01*
X0398001Y0222590D02*
X0403883Y0222590D01*
X0403883Y0221792D02*
X0398001Y0221792D01*
X0398001Y0220993D02*
X0403883Y0220993D01*
X0403883Y0220195D02*
X0394639Y0220195D01*
X0394639Y0220400D02*
X0394639Y0219600D01*
X0398001Y0219600D01*
X0398001Y0217060D01*
X0397906Y0216704D01*
X0397721Y0216384D01*
X0397461Y0216124D01*
X0397141Y0215940D01*
X0396785Y0215844D01*
X0394639Y0215844D01*
X0394639Y0219600D01*
X0393839Y0219600D01*
X0393839Y0215844D01*
X0391692Y0215844D01*
X0391336Y0215940D01*
X0391017Y0216124D01*
X0390756Y0216384D01*
X0390572Y0216704D01*
X0390477Y0217060D01*
X0390477Y0219600D01*
X0393839Y0219600D01*
X0393839Y0220400D01*
X0393839Y0224156D01*
X0391692Y0224156D01*
X0391336Y0224060D01*
X0391017Y0223876D01*
X0390756Y0223616D01*
X0390572Y0223296D01*
X0390477Y0222940D01*
X0390477Y0220400D01*
X0393839Y0220400D01*
X0394639Y0220400D01*
X0394639Y0220993D02*
X0393839Y0220993D01*
X0393839Y0220195D02*
X0386390Y0220195D01*
X0386390Y0220993D02*
X0390477Y0220993D01*
X0390477Y0221792D02*
X0386390Y0221792D01*
X0386390Y0222590D02*
X0390477Y0222590D01*
X0390625Y0223389D02*
X0386390Y0223389D01*
X0386390Y0219396D02*
X0390477Y0219396D01*
X0390477Y0218598D02*
X0386390Y0218598D01*
X0386390Y0217799D02*
X0390477Y0217799D01*
X0390493Y0217001D02*
X0386390Y0217001D01*
X0386011Y0216202D02*
X0390939Y0216202D01*
X0393839Y0216202D02*
X0394639Y0216202D01*
X0394639Y0217001D02*
X0393839Y0217001D01*
X0393839Y0217799D02*
X0394639Y0217799D01*
X0394639Y0218598D02*
X0393839Y0218598D01*
X0393839Y0219396D02*
X0394639Y0219396D01*
X0394639Y0221792D02*
X0393839Y0221792D01*
X0393839Y0222590D02*
X0394639Y0222590D01*
X0394639Y0223389D02*
X0393839Y0223389D01*
X0398001Y0219396D02*
X0403883Y0219396D01*
X0403883Y0218598D02*
X0398001Y0218598D01*
X0398001Y0217799D02*
X0403883Y0217799D01*
X0403883Y0217001D02*
X0397985Y0217001D01*
X0397539Y0216202D02*
X0403883Y0216202D01*
X0407783Y0216202D02*
X0418845Y0216202D01*
X0418466Y0217001D02*
X0407783Y0217001D01*
X0407783Y0217799D02*
X0418466Y0217799D01*
X0418466Y0218598D02*
X0407783Y0218598D01*
X0407783Y0219396D02*
X0418466Y0219396D01*
X0418466Y0220195D02*
X0407783Y0220195D01*
X0407783Y0220993D02*
X0418466Y0220993D01*
X0418466Y0221792D02*
X0407783Y0221792D01*
X0407783Y0222590D02*
X0418466Y0222590D01*
X0418466Y0223389D02*
X0407783Y0223389D01*
X0407783Y0224187D02*
X0419234Y0224187D01*
X0407783Y0215403D02*
X0450733Y0215403D01*
X0450733Y0214605D02*
X0407783Y0214605D01*
X0407783Y0213806D02*
X0450733Y0213806D01*
X0450733Y0213008D02*
X0407783Y0213008D01*
X0407783Y0212209D02*
X0450733Y0212209D01*
X0450733Y0211411D02*
X0407783Y0211411D01*
X0407783Y0210612D02*
X0450733Y0210612D01*
X0450733Y0209814D02*
X0407783Y0209814D01*
X0407783Y0209015D02*
X0450733Y0209015D01*
X0450373Y0208217D02*
X0407783Y0208217D01*
X0407783Y0207418D02*
X0449575Y0207418D01*
X0448776Y0206620D02*
X0407783Y0206620D01*
X0407783Y0205821D02*
X0447978Y0205821D01*
X0447179Y0205023D02*
X0407783Y0205023D01*
X0407783Y0204224D02*
X0419271Y0204224D01*
X0418473Y0203426D02*
X0407783Y0203426D01*
X0407783Y0202627D02*
X0418466Y0202627D01*
X0437539Y0216202D02*
X0450733Y0216202D01*
X0450733Y0217001D02*
X0437985Y0217001D01*
X0438001Y0217799D02*
X0450733Y0217799D01*
X0450733Y0218598D02*
X0438001Y0218598D01*
X0438001Y0219396D02*
X0450733Y0219396D01*
X0403883Y0224986D02*
X0295283Y0224986D01*
X0295283Y0225784D02*
X0403883Y0225784D01*
X0403883Y0226583D02*
X0295283Y0226583D01*
X0295283Y0227381D02*
X0403883Y0227381D01*
X0403883Y0228180D02*
X0295283Y0228180D01*
X0295283Y0228978D02*
X0403883Y0228978D01*
X0403883Y0229777D02*
X0295283Y0229777D01*
X0295283Y0230575D02*
X0403883Y0230575D01*
X0403883Y0231374D02*
X0295283Y0231374D01*
X0295283Y0232172D02*
X0403883Y0232172D01*
X0403883Y0232971D02*
X0295283Y0232971D01*
X0295283Y0233769D02*
X0403883Y0233769D01*
X0403883Y0234568D02*
X0295283Y0234568D01*
X0295283Y0235366D02*
X0403883Y0235366D01*
X0403883Y0236165D02*
X0295283Y0236165D01*
X0295283Y0236963D02*
X0403883Y0236963D01*
X0403883Y0237762D02*
X0295283Y0237762D01*
X0295283Y0238560D02*
X0403883Y0238560D01*
X0403883Y0239359D02*
X0295283Y0239359D01*
X0295283Y0240157D02*
X0403883Y0240157D01*
X0403883Y0240956D02*
X0295283Y0240956D01*
X0295283Y0241754D02*
X0403883Y0241754D01*
X0403883Y0242553D02*
X0295283Y0242553D01*
X0295283Y0243351D02*
X0403883Y0243351D01*
X0403883Y0244150D02*
X0295283Y0244150D01*
X0295283Y0244948D02*
X0403883Y0244948D01*
X0403883Y0245747D02*
X0295283Y0245747D01*
X0295283Y0246545D02*
X0403883Y0246545D01*
X0403883Y0247344D02*
X0295283Y0247344D01*
X0295283Y0248142D02*
X0403883Y0248142D01*
X0403883Y0248941D02*
X0295283Y0248941D01*
X0295283Y0249739D02*
X0403883Y0249739D01*
X0403883Y0250538D02*
X0295283Y0250538D01*
X0295283Y0251337D02*
X0403883Y0251337D01*
X0403883Y0252135D02*
X0295283Y0252135D01*
X0295283Y0252934D02*
X0403883Y0252934D01*
X0403883Y0253732D02*
X0295283Y0253732D01*
X0295283Y0254531D02*
X0403883Y0254531D01*
X0403883Y0255329D02*
X0295283Y0255329D01*
X0351121Y0168291D02*
X0353099Y0168291D01*
X0352440Y0169090D02*
X0354389Y0169090D01*
X0353758Y0169888D02*
X0355679Y0169888D01*
X0355076Y0170687D02*
X0356969Y0170687D01*
X0356395Y0171485D02*
X0358259Y0171485D01*
X0357713Y0172284D02*
X0359549Y0172284D01*
X0359031Y0173082D02*
X0360839Y0173082D01*
X0360350Y0173881D02*
X0362129Y0173881D01*
X0361668Y0174679D02*
X0363419Y0174679D01*
X0362986Y0175478D02*
X0364709Y0175478D01*
X0364305Y0176276D02*
X0365999Y0176276D01*
X0365623Y0177075D02*
X0367289Y0177075D01*
X0366941Y0177873D02*
X0368579Y0177873D01*
X0368260Y0178672D02*
X0369869Y0178672D01*
X0369578Y0179470D02*
X0371159Y0179470D01*
X0370896Y0180269D02*
X0372449Y0180269D01*
X0351809Y0167493D02*
X0349803Y0167493D01*
X0350519Y0166694D02*
X0348485Y0166694D01*
X0349229Y0165896D02*
X0347166Y0165896D01*
X0347938Y0165097D02*
X0345848Y0165097D01*
X0226987Y0116388D02*
X0479680Y0116388D01*
X0480141Y0115590D02*
X0226526Y0115590D01*
X0226065Y0114791D02*
X0480602Y0114791D01*
X0481063Y0113993D02*
X0225604Y0113993D01*
X0224691Y0113194D02*
X0481976Y0113194D01*
X0482928Y0112396D02*
X0223739Y0112396D01*
X0405283Y0391076D02*
X0415660Y0391076D01*
X0413612Y0391822D02*
X0413612Y0391822D01*
X0413549Y0391874D02*
X0405283Y0391874D01*
X0405283Y0392673D02*
X0412597Y0392673D01*
X0411645Y0393472D02*
X0405283Y0393472D01*
X0405283Y0394270D02*
X0410903Y0394270D01*
X0411099Y0393930D02*
X0411099Y0393930D01*
X0410442Y0395069D02*
X0405283Y0395069D01*
X0405283Y0395867D02*
X0409981Y0395867D01*
X0409520Y0396666D02*
X0405283Y0396666D01*
X0405283Y0397464D02*
X0409337Y0397464D01*
X0409459Y0396770D02*
X0409459Y0396770D01*
X0409196Y0398263D02*
X0405283Y0398263D01*
X0405283Y0399061D02*
X0409055Y0399061D01*
X0408915Y0399860D02*
X0405283Y0399860D01*
X0406487Y0400658D02*
X0409006Y0400658D01*
X0408890Y0400000D02*
X0408890Y0400000D01*
X0409147Y0401457D02*
X0407285Y0401457D01*
X0407933Y0402255D02*
X0409288Y0402255D01*
X0409428Y0403054D02*
X0408264Y0403054D01*
X0408595Y0403852D02*
X0409819Y0403852D01*
X0409459Y0403230D02*
X0409459Y0403230D01*
X0410280Y0404651D02*
X0408633Y0404651D01*
X0408633Y0405449D02*
X0410741Y0405449D01*
X0411099Y0406070D02*
X0411099Y0406070D01*
X0411099Y0406070D01*
X0411311Y0406248D02*
X0408553Y0406248D01*
X0408222Y0407046D02*
X0412262Y0407046D01*
X0413214Y0407845D02*
X0407892Y0407845D01*
X0407185Y0408643D02*
X0414889Y0408643D01*
X0421963Y0416628D02*
X0434264Y0416628D01*
X0433460Y0415830D02*
X0422761Y0415830D01*
X0423560Y0415031D02*
X0432999Y0415031D01*
X0432538Y0414233D02*
X0424358Y0414233D01*
X0425157Y0413434D02*
X0432077Y0413434D01*
X0431855Y0412636D02*
X0425955Y0412636D01*
X0426754Y0411837D02*
X0431714Y0411837D01*
X0431573Y0411039D02*
X0427552Y0411039D01*
X0428351Y0410240D02*
X0431432Y0410240D01*
X0431488Y0409442D02*
X0429149Y0409442D01*
X0429948Y0408643D02*
X0431629Y0408643D01*
X0431770Y0407845D02*
X0430746Y0407845D01*
X0431545Y0407046D02*
X0431911Y0407046D01*
X0432783Y0404651D02*
X0433183Y0404651D01*
X0432783Y0403852D02*
X0433692Y0403852D01*
X0432783Y0403054D02*
X0434643Y0403054D01*
X0435595Y0402255D02*
X0432783Y0402255D01*
X0432783Y0401457D02*
X0437115Y0401457D01*
X0444552Y0401457D02*
X0459264Y0401457D01*
X0458883Y0402255D02*
X0446072Y0402255D01*
X0447023Y0403054D02*
X0458883Y0403054D01*
X0458883Y0403852D02*
X0447975Y0403852D01*
X0448484Y0404651D02*
X0458883Y0404651D01*
X0458883Y0405449D02*
X0448945Y0405449D01*
X0449406Y0406248D02*
X0458883Y0406248D01*
X0458883Y0407046D02*
X0449756Y0407046D01*
X0449897Y0407845D02*
X0458883Y0407845D01*
X0458883Y0408643D02*
X0450038Y0408643D01*
X0450178Y0409442D02*
X0458883Y0409442D01*
X0458883Y0410240D02*
X0450234Y0410240D01*
X0450094Y0411039D02*
X0458883Y0411039D01*
X0458883Y0411837D02*
X0449953Y0411837D01*
X0449812Y0412636D02*
X0458883Y0412636D01*
X0458883Y0413434D02*
X0449589Y0413434D01*
X0449128Y0414233D02*
X0458883Y0414233D01*
X0458883Y0415031D02*
X0448667Y0415031D01*
X0448206Y0415830D02*
X0458174Y0415830D01*
X0458052Y0416628D02*
X0447402Y0416628D01*
X0446451Y0417427D02*
X0458052Y0417427D01*
X0467783Y0415031D02*
X0468883Y0415031D01*
X0468883Y0414233D02*
X0467783Y0414233D01*
X0467783Y0413434D02*
X0468883Y0413434D01*
X0468883Y0412636D02*
X0467783Y0412636D01*
X0467783Y0411837D02*
X0468883Y0411837D01*
X0468883Y0411039D02*
X0467783Y0411039D01*
X0467783Y0410240D02*
X0468883Y0410240D01*
X0468883Y0409442D02*
X0467783Y0409442D01*
X0467783Y0408643D02*
X0468883Y0408643D01*
X0468883Y0407845D02*
X0467783Y0407845D01*
X0467783Y0407046D02*
X0468883Y0407046D01*
X0468883Y0406248D02*
X0467783Y0406248D01*
X0467783Y0405449D02*
X0468883Y0405449D01*
X0468883Y0404651D02*
X0467783Y0404651D01*
X0467783Y0403852D02*
X0468883Y0403852D01*
X0468883Y0403054D02*
X0467783Y0403054D01*
X0467783Y0402255D02*
X0468883Y0402255D01*
X0469264Y0401457D02*
X0467403Y0401457D01*
X0482694Y0415031D02*
X0483972Y0415031D01*
X0487694Y0415031D02*
X0488972Y0415031D01*
X0492694Y0415031D02*
X0493233Y0415031D01*
X0463883Y0434708D02*
X0462783Y0435808D01*
X0461641Y0436950D01*
X0452783Y0436950D01*
X0452783Y0440808D01*
X0412386Y0481205D01*
X0413206Y0481205D01*
X0414716Y0481831D01*
X0415873Y0482987D01*
X0416325Y0484080D01*
X0416778Y0482987D01*
X0417934Y0481831D01*
X0419445Y0481205D01*
X0421080Y0481205D01*
X0422590Y0481831D01*
X0423747Y0482987D01*
X0424199Y0484080D01*
X0424652Y0482987D01*
X0425808Y0481831D01*
X0427319Y0481205D01*
X0428954Y0481205D01*
X0430465Y0481831D01*
X0431621Y0482987D01*
X0432073Y0484080D01*
X0432526Y0482987D01*
X0433682Y0481831D01*
X0435193Y0481205D01*
X0436828Y0481205D01*
X0438339Y0481831D01*
X0439495Y0482987D01*
X0439947Y0484080D01*
X0440400Y0482987D01*
X0441556Y0481831D01*
X0443067Y0481205D01*
X0444702Y0481205D01*
X0446213Y0481831D01*
X0447369Y0482987D01*
X0447822Y0484080D01*
X0448274Y0482987D01*
X0449430Y0481831D01*
X0450941Y0481205D01*
X0452576Y0481205D01*
X0453883Y0481747D01*
X0453883Y0454192D01*
X0463540Y0444536D01*
X0463177Y0444173D01*
X0463135Y0444245D01*
X0462874Y0444506D01*
X0462555Y0444690D01*
X0462199Y0444786D01*
X0461024Y0444786D01*
X0461024Y0441214D01*
X0460643Y0441214D01*
X0460643Y0440833D01*
X0461024Y0440833D01*
X0461024Y0437261D01*
X0462199Y0437261D01*
X0462555Y0437357D01*
X0462874Y0437541D01*
X0463135Y0437802D01*
X0463177Y0437874D01*
X0463883Y0437168D01*
X0463883Y0434708D01*
X0463883Y0434994D02*
X0463597Y0434994D01*
X0463883Y0435793D02*
X0462798Y0435793D01*
X0462000Y0436591D02*
X0463883Y0436591D01*
X0463661Y0437390D02*
X0462612Y0437390D01*
X0461024Y0437390D02*
X0460643Y0437390D01*
X0460643Y0437261D02*
X0460643Y0440833D01*
X0458252Y0440833D01*
X0458252Y0438477D01*
X0458348Y0438121D01*
X0458532Y0437802D01*
X0458793Y0437541D01*
X0459112Y0437357D01*
X0459468Y0437261D01*
X0460643Y0437261D01*
X0460643Y0438188D02*
X0461024Y0438188D01*
X0461024Y0438987D02*
X0460643Y0438987D01*
X0460643Y0439785D02*
X0461024Y0439785D01*
X0461024Y0440584D02*
X0460643Y0440584D01*
X0460643Y0441214D02*
X0458252Y0441214D01*
X0458252Y0443570D01*
X0458348Y0443926D01*
X0458532Y0444245D01*
X0458793Y0444506D01*
X0459112Y0444690D01*
X0459468Y0444786D01*
X0460643Y0444786D01*
X0460643Y0441214D01*
X0460643Y0441382D02*
X0461024Y0441382D01*
X0461024Y0442181D02*
X0460643Y0442181D01*
X0460643Y0442979D02*
X0461024Y0442979D01*
X0461024Y0443778D02*
X0460643Y0443778D01*
X0460643Y0444576D02*
X0461024Y0444576D01*
X0462753Y0444576D02*
X0463499Y0444576D01*
X0462701Y0445375D02*
X0448216Y0445375D01*
X0447418Y0446173D02*
X0461902Y0446173D01*
X0461104Y0446972D02*
X0446619Y0446972D01*
X0445821Y0447770D02*
X0460305Y0447770D01*
X0459507Y0448569D02*
X0445022Y0448569D01*
X0444224Y0449367D02*
X0458708Y0449367D01*
X0457910Y0450166D02*
X0443425Y0450166D01*
X0442627Y0450964D02*
X0457111Y0450964D01*
X0456313Y0451763D02*
X0441828Y0451763D01*
X0441030Y0452561D02*
X0455514Y0452561D01*
X0454716Y0453360D02*
X0440231Y0453360D01*
X0439433Y0454158D02*
X0453917Y0454158D01*
X0453883Y0454957D02*
X0438634Y0454957D01*
X0437836Y0455755D02*
X0453883Y0455755D01*
X0453883Y0456554D02*
X0437037Y0456554D01*
X0436239Y0457352D02*
X0453883Y0457352D01*
X0453883Y0458151D02*
X0435440Y0458151D01*
X0434642Y0458949D02*
X0453883Y0458949D01*
X0453883Y0459748D02*
X0433843Y0459748D01*
X0433045Y0460546D02*
X0453883Y0460546D01*
X0453883Y0461345D02*
X0432246Y0461345D01*
X0431448Y0462143D02*
X0453883Y0462143D01*
X0453883Y0462942D02*
X0430649Y0462942D01*
X0429851Y0463741D02*
X0453883Y0463741D01*
X0453883Y0464539D02*
X0429052Y0464539D01*
X0428253Y0465338D02*
X0453883Y0465338D01*
X0453883Y0466136D02*
X0427455Y0466136D01*
X0426656Y0466935D02*
X0453883Y0466935D01*
X0453883Y0467733D02*
X0425858Y0467733D01*
X0425059Y0468532D02*
X0453883Y0468532D01*
X0453883Y0469330D02*
X0424261Y0469330D01*
X0423462Y0470129D02*
X0453883Y0470129D01*
X0453883Y0470927D02*
X0422664Y0470927D01*
X0421865Y0471726D02*
X0453883Y0471726D01*
X0453883Y0472524D02*
X0421067Y0472524D01*
X0420268Y0473323D02*
X0453883Y0473323D01*
X0453883Y0474121D02*
X0419470Y0474121D01*
X0418671Y0474920D02*
X0453883Y0474920D01*
X0453883Y0475718D02*
X0417873Y0475718D01*
X0417074Y0476517D02*
X0453883Y0476517D01*
X0453883Y0477315D02*
X0416276Y0477315D01*
X0415477Y0478114D02*
X0453883Y0478114D01*
X0453883Y0478912D02*
X0414679Y0478912D01*
X0413880Y0479711D02*
X0453883Y0479711D01*
X0453883Y0480509D02*
X0413082Y0480509D01*
X0413454Y0481308D02*
X0419197Y0481308D01*
X0417659Y0482106D02*
X0414992Y0482106D01*
X0415790Y0482905D02*
X0416860Y0482905D01*
X0416482Y0483703D02*
X0416169Y0483703D01*
X0421328Y0481308D02*
X0427071Y0481308D01*
X0425533Y0482106D02*
X0422866Y0482106D01*
X0423664Y0482905D02*
X0424734Y0482905D01*
X0424356Y0483703D02*
X0424043Y0483703D01*
X0429202Y0481308D02*
X0434945Y0481308D01*
X0433407Y0482106D02*
X0430740Y0482106D01*
X0431538Y0482905D02*
X0432608Y0482905D01*
X0432230Y0483703D02*
X0431917Y0483703D01*
X0437076Y0481308D02*
X0442819Y0481308D01*
X0441281Y0482106D02*
X0438614Y0482106D01*
X0439412Y0482905D02*
X0440482Y0482905D01*
X0440104Y0483703D02*
X0439791Y0483703D01*
X0444950Y0481308D02*
X0450693Y0481308D01*
X0449155Y0482106D02*
X0446488Y0482106D01*
X0447287Y0482905D02*
X0448357Y0482905D01*
X0447978Y0483703D02*
X0447665Y0483703D01*
X0452824Y0481308D02*
X0453883Y0481308D01*
X0429022Y0456554D02*
X0382037Y0456554D01*
X0381239Y0457352D02*
X0428223Y0457352D01*
X0427425Y0458151D02*
X0380440Y0458151D01*
X0379642Y0458949D02*
X0426626Y0458949D01*
X0425828Y0459748D02*
X0378843Y0459748D01*
X0378045Y0460546D02*
X0425029Y0460546D01*
X0424231Y0461345D02*
X0377246Y0461345D01*
X0376448Y0462143D02*
X0423432Y0462143D01*
X0422634Y0462942D02*
X0375649Y0462942D01*
X0374851Y0463741D02*
X0421835Y0463741D01*
X0421037Y0464539D02*
X0374052Y0464539D01*
X0373253Y0465338D02*
X0420238Y0465338D01*
X0419440Y0466136D02*
X0372455Y0466136D01*
X0371656Y0466935D02*
X0418641Y0466935D01*
X0417843Y0467733D02*
X0370858Y0467733D01*
X0370059Y0468532D02*
X0417044Y0468532D01*
X0416246Y0469330D02*
X0369261Y0469330D01*
X0368462Y0470129D02*
X0415447Y0470129D01*
X0414648Y0470927D02*
X0367664Y0470927D01*
X0366865Y0471726D02*
X0413850Y0471726D01*
X0413051Y0472524D02*
X0366067Y0472524D01*
X0365268Y0473323D02*
X0412253Y0473323D01*
X0411454Y0474121D02*
X0364470Y0474121D01*
X0363671Y0474920D02*
X0410656Y0474920D01*
X0409857Y0475718D02*
X0362873Y0475718D01*
X0362074Y0476517D02*
X0409059Y0476517D01*
X0408260Y0477315D02*
X0361276Y0477315D01*
X0360477Y0478114D02*
X0407462Y0478114D01*
X0406663Y0478912D02*
X0359679Y0478912D01*
X0358880Y0479711D02*
X0405865Y0479711D01*
X0405066Y0480509D02*
X0358082Y0480509D01*
X0358336Y0481308D02*
X0364079Y0481308D01*
X0362541Y0482106D02*
X0359874Y0482106D01*
X0360672Y0482905D02*
X0361742Y0482905D01*
X0361363Y0483703D02*
X0361051Y0483703D01*
X0366210Y0481308D02*
X0371953Y0481308D01*
X0370415Y0482106D02*
X0367748Y0482106D01*
X0368546Y0482905D02*
X0369616Y0482905D01*
X0369237Y0483703D02*
X0368925Y0483703D01*
X0374084Y0481308D02*
X0379827Y0481308D01*
X0378289Y0482106D02*
X0375622Y0482106D01*
X0376420Y0482905D02*
X0377490Y0482905D01*
X0377111Y0483703D02*
X0376799Y0483703D01*
X0381958Y0481308D02*
X0387701Y0481308D01*
X0386163Y0482106D02*
X0383496Y0482106D01*
X0384294Y0482905D02*
X0385364Y0482905D01*
X0384986Y0483703D02*
X0384673Y0483703D01*
X0389832Y0481308D02*
X0395575Y0481308D01*
X0394037Y0482106D02*
X0391370Y0482106D01*
X0392168Y0482905D02*
X0393238Y0482905D01*
X0392860Y0483703D02*
X0392547Y0483703D01*
X0397706Y0481308D02*
X0403449Y0481308D01*
X0401911Y0482106D02*
X0399244Y0482106D01*
X0400042Y0482905D02*
X0401112Y0482905D01*
X0400734Y0483703D02*
X0400421Y0483703D01*
X0400387Y0494882D02*
X0400767Y0494882D01*
X0401194Y0495681D02*
X0399961Y0495681D01*
X0399162Y0496479D02*
X0401993Y0496479D01*
X0403647Y0497278D02*
X0397508Y0497278D01*
X0395773Y0497278D02*
X0389634Y0497278D01*
X0387899Y0497278D02*
X0381760Y0497278D01*
X0380025Y0497278D02*
X0373886Y0497278D01*
X0372151Y0497278D02*
X0366012Y0497278D01*
X0364277Y0497278D02*
X0358138Y0497278D01*
X0356403Y0497278D02*
X0353813Y0497278D01*
X0353015Y0498077D02*
X0408883Y0498077D01*
X0408883Y0498875D02*
X0352216Y0498875D01*
X0351418Y0499674D02*
X0408883Y0499674D01*
X0408883Y0500472D02*
X0350619Y0500472D01*
X0349820Y0501271D02*
X0408883Y0501271D01*
X0408883Y0502069D02*
X0214839Y0502069D01*
X0217921Y0502868D02*
X0408883Y0502868D01*
X0408883Y0497278D02*
X0405382Y0497278D01*
X0407036Y0496479D02*
X0408883Y0496479D01*
X0408883Y0495681D02*
X0407835Y0495681D01*
X0408261Y0494882D02*
X0408641Y0494882D01*
X0394119Y0496479D02*
X0391288Y0496479D01*
X0392087Y0495681D02*
X0393320Y0495681D01*
X0392893Y0494882D02*
X0392513Y0494882D01*
X0386245Y0496479D02*
X0383414Y0496479D01*
X0384213Y0495681D02*
X0385446Y0495681D01*
X0385019Y0494882D02*
X0384639Y0494882D01*
X0378371Y0496479D02*
X0375540Y0496479D01*
X0376339Y0495681D02*
X0377572Y0495681D01*
X0377145Y0494882D02*
X0376765Y0494882D01*
X0370497Y0496479D02*
X0367666Y0496479D01*
X0368465Y0495681D02*
X0369698Y0495681D01*
X0369271Y0494882D02*
X0368891Y0494882D01*
X0362623Y0496479D02*
X0359792Y0496479D01*
X0360591Y0495681D02*
X0361824Y0495681D01*
X0361397Y0494882D02*
X0361017Y0494882D01*
X0354749Y0496479D02*
X0354612Y0496479D01*
X0351768Y0481308D02*
X0350462Y0481308D01*
X0348331Y0481308D02*
X0342588Y0481308D01*
X0344126Y0482106D02*
X0346793Y0482106D01*
X0345994Y0482905D02*
X0344924Y0482905D01*
X0345303Y0483703D02*
X0345615Y0483703D01*
X0340457Y0481308D02*
X0334714Y0481308D01*
X0336252Y0482106D02*
X0338919Y0482106D01*
X0338120Y0482905D02*
X0337050Y0482905D01*
X0337429Y0483703D02*
X0337741Y0483703D01*
X0332583Y0481308D02*
X0326840Y0481308D01*
X0328378Y0482106D02*
X0331045Y0482106D01*
X0330246Y0482905D02*
X0329176Y0482905D01*
X0329555Y0483703D02*
X0329867Y0483703D01*
X0324709Y0481308D02*
X0318966Y0481308D01*
X0320504Y0482106D02*
X0323171Y0482106D01*
X0322372Y0482905D02*
X0321302Y0482905D01*
X0321681Y0483703D02*
X0321993Y0483703D01*
X0316835Y0481308D02*
X0311092Y0481308D01*
X0312630Y0482106D02*
X0315297Y0482106D01*
X0314498Y0482905D02*
X0313428Y0482905D01*
X0313807Y0483703D02*
X0314119Y0483703D01*
X0308961Y0481308D02*
X0303218Y0481308D01*
X0304756Y0482106D02*
X0307423Y0482106D01*
X0306624Y0482905D02*
X0305554Y0482905D01*
X0305933Y0483703D02*
X0306245Y0483703D01*
X0301087Y0481308D02*
X0295344Y0481308D01*
X0296882Y0482106D02*
X0299549Y0482106D01*
X0298750Y0482905D02*
X0297680Y0482905D01*
X0298059Y0483703D02*
X0298371Y0483703D01*
X0293213Y0481308D02*
X0292283Y0481308D01*
X0291675Y0482106D02*
X0291485Y0482106D01*
X0290876Y0482905D02*
X0290686Y0482905D01*
X0290497Y0483703D02*
X0290283Y0483703D01*
X0293082Y0480509D02*
X0352566Y0480509D01*
X0353365Y0479711D02*
X0293880Y0479711D01*
X0294679Y0478912D02*
X0354163Y0478912D01*
X0354962Y0478114D02*
X0295283Y0478114D01*
X0295283Y0477315D02*
X0355760Y0477315D01*
X0356559Y0476517D02*
X0295283Y0476517D01*
X0295283Y0475718D02*
X0357357Y0475718D01*
X0358156Y0474920D02*
X0295283Y0474920D01*
X0295283Y0474121D02*
X0358954Y0474121D01*
X0359753Y0473323D02*
X0295283Y0473323D01*
X0295283Y0472524D02*
X0360551Y0472524D01*
X0361350Y0471726D02*
X0295283Y0471726D01*
X0295283Y0470927D02*
X0362148Y0470927D01*
X0362947Y0470129D02*
X0295283Y0470129D01*
X0295283Y0469330D02*
X0363746Y0469330D01*
X0364544Y0468532D02*
X0295283Y0468532D01*
X0295283Y0467733D02*
X0365343Y0467733D01*
X0366141Y0466935D02*
X0295283Y0466935D01*
X0295283Y0466136D02*
X0366940Y0466136D01*
X0367738Y0465338D02*
X0295283Y0465338D01*
X0295283Y0464539D02*
X0368537Y0464539D01*
X0369335Y0463741D02*
X0295283Y0463741D01*
X0295283Y0462942D02*
X0370134Y0462942D01*
X0370932Y0462143D02*
X0295283Y0462143D01*
X0295283Y0461345D02*
X0371731Y0461345D01*
X0372529Y0460546D02*
X0295283Y0460546D01*
X0295283Y0459748D02*
X0373328Y0459748D01*
X0374126Y0458949D02*
X0295283Y0458949D01*
X0295283Y0458151D02*
X0374925Y0458151D01*
X0375723Y0457352D02*
X0295283Y0457352D01*
X0295283Y0456554D02*
X0376522Y0456554D01*
X0377320Y0455755D02*
X0295283Y0455755D01*
X0295283Y0454957D02*
X0378119Y0454957D01*
X0378917Y0454158D02*
X0295283Y0454158D01*
X0295283Y0453360D02*
X0379716Y0453360D01*
X0380514Y0452561D02*
X0295283Y0452561D01*
X0295283Y0451763D02*
X0381313Y0451763D01*
X0382111Y0450964D02*
X0295283Y0450964D01*
X0295283Y0450166D02*
X0382910Y0450166D01*
X0383708Y0449367D02*
X0295283Y0449367D01*
X0295283Y0448569D02*
X0384507Y0448569D01*
X0385305Y0447770D02*
X0295283Y0447770D01*
X0295283Y0446972D02*
X0386104Y0446972D01*
X0386902Y0446173D02*
X0295283Y0446173D01*
X0295283Y0445375D02*
X0387701Y0445375D01*
X0388499Y0444576D02*
X0295283Y0444576D01*
X0295283Y0443778D02*
X0389298Y0443778D01*
X0390096Y0442979D02*
X0295283Y0442979D01*
X0295283Y0442181D02*
X0390895Y0442181D01*
X0391693Y0441382D02*
X0295283Y0441382D01*
X0295283Y0440584D02*
X0392492Y0440584D01*
X0393290Y0439785D02*
X0295283Y0439785D01*
X0295283Y0438987D02*
X0394089Y0438987D01*
X0394887Y0438188D02*
X0295283Y0438188D01*
X0295283Y0437390D02*
X0395686Y0437390D01*
X0396484Y0436591D02*
X0295283Y0436591D01*
X0295283Y0435793D02*
X0397283Y0435793D01*
X0398081Y0434994D02*
X0295283Y0434994D01*
X0295283Y0434196D02*
X0398880Y0434196D01*
X0399679Y0433397D02*
X0351443Y0433397D01*
X0352355Y0433019D02*
X0349746Y0434100D01*
X0346921Y0434100D01*
X0344311Y0433019D01*
X0342314Y0431022D01*
X0341233Y0428412D01*
X0341233Y0425588D01*
X0342314Y0422978D01*
X0344311Y0420981D01*
X0346921Y0419900D01*
X0349746Y0419900D01*
X0352355Y0420981D01*
X0354352Y0422978D01*
X0355433Y0425588D01*
X0355433Y0428412D01*
X0354352Y0431022D01*
X0352355Y0433019D01*
X0352776Y0432599D02*
X0400477Y0432599D01*
X0401276Y0431800D02*
X0353574Y0431800D01*
X0354361Y0431002D02*
X0402074Y0431002D01*
X0402873Y0430203D02*
X0354692Y0430203D01*
X0355022Y0429405D02*
X0403671Y0429405D01*
X0404470Y0428606D02*
X0355353Y0428606D01*
X0355433Y0427808D02*
X0405268Y0427808D01*
X0406067Y0427009D02*
X0355433Y0427009D01*
X0355433Y0426210D02*
X0406865Y0426210D01*
X0407664Y0425412D02*
X0355361Y0425412D01*
X0355030Y0424613D02*
X0408462Y0424613D01*
X0409261Y0423815D02*
X0354699Y0423815D01*
X0354368Y0423016D02*
X0410059Y0423016D01*
X0410858Y0422218D02*
X0353592Y0422218D01*
X0352794Y0421419D02*
X0411656Y0421419D01*
X0412455Y0420621D02*
X0351486Y0420621D01*
X0345181Y0420621D02*
X0295283Y0420621D01*
X0295283Y0421419D02*
X0343873Y0421419D01*
X0343074Y0422218D02*
X0295283Y0422218D01*
X0295283Y0423016D02*
X0342298Y0423016D01*
X0341968Y0423815D02*
X0295283Y0423815D01*
X0295283Y0424613D02*
X0341637Y0424613D01*
X0341306Y0425412D02*
X0295283Y0425412D01*
X0295283Y0426210D02*
X0341233Y0426210D01*
X0341233Y0427009D02*
X0295283Y0427009D01*
X0295283Y0427808D02*
X0341233Y0427808D01*
X0341314Y0428606D02*
X0295283Y0428606D01*
X0295283Y0429405D02*
X0341644Y0429405D01*
X0341975Y0430203D02*
X0295283Y0430203D01*
X0295283Y0431002D02*
X0342306Y0431002D01*
X0343092Y0431800D02*
X0295283Y0431800D01*
X0295283Y0432599D02*
X0343891Y0432599D01*
X0345224Y0433397D02*
X0295283Y0433397D01*
X0295283Y0419822D02*
X0413253Y0419822D01*
X0416373Y0422218D02*
X0446383Y0422218D01*
X0446383Y0423016D02*
X0415575Y0423016D01*
X0414776Y0423815D02*
X0446383Y0423815D01*
X0446383Y0424613D02*
X0413978Y0424613D01*
X0413179Y0425412D02*
X0446383Y0425412D01*
X0446383Y0426210D02*
X0412381Y0426210D01*
X0411582Y0427009D02*
X0446383Y0427009D01*
X0446383Y0427808D02*
X0410784Y0427808D01*
X0409985Y0428606D02*
X0446383Y0428606D01*
X0446383Y0429405D02*
X0409186Y0429405D01*
X0408388Y0430203D02*
X0446383Y0430203D01*
X0446383Y0431002D02*
X0407589Y0431002D01*
X0406791Y0431800D02*
X0446383Y0431800D01*
X0446383Y0432599D02*
X0405992Y0432599D01*
X0405194Y0433397D02*
X0446383Y0433397D01*
X0446383Y0434196D02*
X0404395Y0434196D01*
X0403597Y0434994D02*
X0446383Y0434994D01*
X0446383Y0435793D02*
X0402798Y0435793D01*
X0402000Y0436591D02*
X0446383Y0436591D01*
X0446383Y0437390D02*
X0401201Y0437390D01*
X0400403Y0438188D02*
X0446383Y0438188D01*
X0446383Y0438987D02*
X0399604Y0438987D01*
X0398806Y0439785D02*
X0445790Y0439785D01*
X0444992Y0440584D02*
X0398007Y0440584D01*
X0397209Y0441382D02*
X0444193Y0441382D01*
X0443395Y0442181D02*
X0396410Y0442181D01*
X0395612Y0442979D02*
X0442596Y0442979D01*
X0441798Y0443778D02*
X0394813Y0443778D01*
X0394015Y0444576D02*
X0440999Y0444576D01*
X0440201Y0445375D02*
X0393216Y0445375D01*
X0392418Y0446173D02*
X0439402Y0446173D01*
X0438604Y0446972D02*
X0391619Y0446972D01*
X0390821Y0447770D02*
X0437805Y0447770D01*
X0437007Y0448569D02*
X0390022Y0448569D01*
X0389224Y0449367D02*
X0436208Y0449367D01*
X0435410Y0450166D02*
X0388425Y0450166D01*
X0387627Y0450964D02*
X0434611Y0450964D01*
X0433813Y0451763D02*
X0386828Y0451763D01*
X0386030Y0452561D02*
X0433014Y0452561D01*
X0432216Y0453360D02*
X0385231Y0453360D01*
X0384433Y0454158D02*
X0431417Y0454158D01*
X0430619Y0454957D02*
X0383634Y0454957D01*
X0382836Y0455755D02*
X0429820Y0455755D01*
X0449015Y0444576D02*
X0458914Y0444576D01*
X0458308Y0443778D02*
X0449813Y0443778D01*
X0450612Y0442979D02*
X0458252Y0442979D01*
X0458252Y0442181D02*
X0451410Y0442181D01*
X0452209Y0441382D02*
X0458252Y0441382D01*
X0458252Y0440584D02*
X0452783Y0440584D01*
X0452783Y0439785D02*
X0458252Y0439785D01*
X0458252Y0438987D02*
X0452783Y0438987D01*
X0452783Y0438188D02*
X0458330Y0438188D01*
X0459055Y0437390D02*
X0452783Y0437390D01*
X0446383Y0421419D02*
X0417172Y0421419D01*
X0417970Y0420621D02*
X0446383Y0420621D01*
X0446383Y0419822D02*
X0418769Y0419822D01*
X0419567Y0419024D02*
X0438435Y0419024D01*
X0436241Y0418225D02*
X0420366Y0418225D01*
X0421164Y0417427D02*
X0435216Y0417427D01*
X0443232Y0419024D02*
X0446552Y0419024D01*
X0447350Y0418225D02*
X0445426Y0418225D01*
X0402135Y0410240D02*
X0394532Y0410240D01*
X0396387Y0409442D02*
X0400280Y0409442D01*
X0399481Y0408643D02*
X0397185Y0408643D01*
X0397892Y0407845D02*
X0398775Y0407845D01*
X0398444Y0407046D02*
X0398222Y0407046D01*
X0392135Y0410240D02*
X0384532Y0410240D01*
X0386387Y0409442D02*
X0390280Y0409442D01*
X0389481Y0408643D02*
X0387185Y0408643D01*
X0387892Y0407845D02*
X0388775Y0407845D01*
X0388444Y0407046D02*
X0388222Y0407046D01*
X0382135Y0410240D02*
X0374532Y0410240D01*
X0376387Y0409442D02*
X0380280Y0409442D01*
X0379481Y0408643D02*
X0377185Y0408643D01*
X0377892Y0407845D02*
X0378775Y0407845D01*
X0378444Y0407046D02*
X0378222Y0407046D01*
X0372135Y0410240D02*
X0364532Y0410240D01*
X0366387Y0409442D02*
X0370280Y0409442D01*
X0369481Y0408643D02*
X0367185Y0408643D01*
X0367892Y0407845D02*
X0368775Y0407845D01*
X0368444Y0407046D02*
X0368222Y0407046D01*
X0362135Y0410240D02*
X0354532Y0410240D01*
X0356387Y0409442D02*
X0360280Y0409442D01*
X0359481Y0408643D02*
X0357185Y0408643D01*
X0357892Y0407845D02*
X0358775Y0407845D01*
X0358444Y0407046D02*
X0358222Y0407046D01*
X0358264Y0403054D02*
X0358403Y0403054D01*
X0358734Y0402255D02*
X0357933Y0402255D01*
X0357285Y0401457D02*
X0359381Y0401457D01*
X0360180Y0400658D02*
X0356487Y0400658D01*
X0354773Y0399860D02*
X0360533Y0399860D01*
X0288883Y0404651D02*
X0286387Y0404651D01*
X0285926Y0405449D02*
X0288883Y0405449D01*
X0288883Y0406248D02*
X0285356Y0406248D01*
X0285567Y0406070D02*
X0285567Y0406070D01*
X0284404Y0407046D02*
X0288883Y0407046D01*
X0288883Y0407845D02*
X0283453Y0407845D01*
X0283055Y0408178D02*
X0283055Y0408178D01*
X0281778Y0408643D02*
X0288883Y0408643D01*
X0275927Y0482106D02*
X0273260Y0482106D01*
X0274058Y0482905D02*
X0275128Y0482905D01*
X0274749Y0483703D02*
X0274437Y0483703D01*
X0274403Y0494882D02*
X0274783Y0494882D01*
X0275210Y0495681D02*
X0273976Y0495681D01*
X0273178Y0496479D02*
X0276009Y0496479D01*
X0268134Y0496479D02*
X0265304Y0496479D01*
X0266102Y0495681D02*
X0267336Y0495681D01*
X0266909Y0494882D02*
X0266529Y0494882D01*
X0260260Y0496479D02*
X0257430Y0496479D01*
X0258228Y0495681D02*
X0259462Y0495681D01*
X0259035Y0494882D02*
X0258655Y0494882D01*
X0245969Y0481308D02*
X0210433Y0481308D01*
X0490346Y0129164D02*
X0496233Y0129164D01*
X0496233Y0128366D02*
X0492540Y0128366D01*
X0493783Y0127567D02*
X0496233Y0127567D01*
X0496233Y0126769D02*
X0494735Y0126769D01*
X0495625Y0125970D02*
X0496233Y0125970D01*
X0496233Y0125172D02*
X0496086Y0125172D01*
D20*
X0448333Y0470000D03*
D21*
X0455833Y0455000D02*
X0468333Y0442500D01*
X0468333Y0440000D01*
X0465833Y0437500D01*
X0465833Y0435000D01*
X0480833Y0420000D01*
X0480833Y0418976D01*
X0475833Y0418976D02*
X0475833Y0420000D01*
X0460833Y0435000D01*
X0450833Y0435000D01*
X0450833Y0440000D01*
X0408333Y0482500D01*
X0408333Y0490000D01*
X0405833Y0492500D01*
X0404514Y0493189D01*
X0410833Y0495000D02*
X0410833Y0502500D01*
X0455833Y0502500D01*
X0458333Y0500000D01*
X0470833Y0500000D01*
X0473333Y0497500D01*
X0473333Y0487500D01*
X0475833Y0485000D01*
X0475833Y0455000D01*
X0476733Y0455000D01*
X0475833Y0455000D02*
X0475833Y0441024D01*
X0470833Y0441024D02*
X0470833Y0435000D01*
X0485833Y0420000D01*
X0485833Y0418976D01*
X0475833Y0418976D02*
X0475833Y0405000D01*
X0474933Y0405000D01*
X0471733Y0405000D02*
X0470833Y0405000D01*
X0470833Y0418976D01*
X0465833Y0418976D02*
X0465833Y0405000D01*
X0464933Y0405000D01*
X0461733Y0405000D02*
X0460833Y0405000D01*
X0460833Y0418976D01*
X0460833Y0420000D01*
X0448333Y0420000D01*
X0448333Y0440000D01*
X0405833Y0482500D01*
X0405833Y0485000D01*
X0404514Y0485315D01*
X0412388Y0493189D02*
X0410833Y0495000D01*
X0420262Y0493189D02*
X0420833Y0495000D01*
X0425833Y0500000D01*
X0455833Y0500000D01*
X0455833Y0455000D01*
X0465833Y0441024D02*
X0465833Y0437500D01*
X0480833Y0441024D02*
X0480833Y0455000D01*
X0479933Y0455000D01*
X0485833Y0455000D02*
X0485833Y0441024D01*
X0490833Y0441024D02*
X0490833Y0450000D01*
X0490833Y0455000D01*
X0489933Y0455000D01*
X0486733Y0455000D02*
X0485833Y0455000D01*
X0430833Y0405000D02*
X0353333Y0482500D01*
X0353333Y0495000D01*
X0348333Y0500000D01*
X0278333Y0500000D01*
X0278333Y0495000D01*
X0278530Y0493189D01*
X0278530Y0485315D02*
X0280833Y0485000D01*
X0280833Y0452500D01*
X0290833Y0442500D01*
X0290833Y0200000D01*
X0382428Y0200000D01*
X0382428Y0220000D02*
X0293333Y0220000D01*
X0293333Y0477500D01*
X0288333Y0482500D01*
X0288333Y0485000D01*
X0286404Y0485315D01*
X0373333Y0405000D02*
X0373333Y0295000D01*
X0383333Y0285000D01*
X0393333Y0285000D02*
X0403333Y0295000D01*
X0403333Y0405000D01*
X0430833Y0405000D02*
X0430833Y0287500D01*
X0428333Y0285000D01*
X0428333Y0225000D01*
X0423333Y0220000D01*
X0422428Y0220000D01*
X0422428Y0200000D02*
X0405833Y0200000D01*
X0405833Y0310000D01*
D22*
X0405833Y0310000D03*
X0480833Y0430000D03*
X0470833Y0435000D03*
X0490833Y0450000D03*
X0478333Y0477500D03*
D23*
X0495833Y0460000D01*
X0495833Y0412500D01*
X0453333Y0370000D01*
X0453333Y0207500D01*
X0435833Y0190000D01*
X0350833Y0190000D01*
X0350833Y0182500D01*
X0350633Y0182700D01*
D24*
X0490833Y0418976D02*
X0490833Y0420000D01*
X0480833Y0430000D01*
X0248333Y0487500D02*
X0247034Y0485315D01*
X0248333Y0487500D02*
X0248333Y0492500D01*
X0247034Y0493189D01*
M02*
