G75*
%MOIN*%
%OFA0B0*%
%FSLAX25Y25*%
%IPPOS*%
%LPD*%
%AMOC8*
5,1,8,0,0,1.08239X$1,22.5*
%
%ADD10C,0.01900*%
%ADD11C,0.00800*%
%ADD12R,0.00157X0.13858*%
%ADD13R,0.00157X0.14331*%
%ADD14R,0.00157X0.14646*%
%ADD15R,0.00157X0.14961*%
%ADD16R,0.00157X0.15118*%
%ADD17R,0.00157X0.15276*%
%ADD18R,0.00157X0.15433*%
%ADD19R,0.00157X0.02835*%
%ADD20R,0.00157X0.11969*%
%ADD21R,0.00157X0.02520*%
%ADD22R,0.00157X0.01102*%
%ADD23R,0.00157X0.03150*%
%ADD24R,0.00157X0.04567*%
%ADD25R,0.00157X0.02205*%
%ADD26R,0.00157X0.00787*%
%ADD27R,0.00157X0.02677*%
%ADD28R,0.00157X0.04409*%
%ADD29R,0.00157X0.02047*%
%ADD30R,0.00157X0.00630*%
%ADD31R,0.00157X0.01890*%
%ADD32R,0.00157X0.01732*%
%ADD33R,0.00157X0.01575*%
%ADD34R,0.00157X0.00945*%
%ADD35R,0.00157X0.02362*%
%ADD36R,0.00157X0.01260*%
%ADD37R,0.00157X0.01417*%
%ADD38R,0.00157X0.04252*%
%ADD39R,0.00157X0.00315*%
%ADD40R,0.00157X0.04094*%
%ADD41R,0.00157X0.00472*%
%ADD42R,0.00157X0.03937*%
%ADD43R,0.00157X0.03307*%
%ADD44R,0.00157X0.03780*%
%ADD45R,0.00157X0.03465*%
%ADD46R,0.00157X0.02992*%
%ADD47R,0.00157X0.12913*%
%ADD48R,0.00157X0.13386*%
%ADD49R,0.00157X0.13701*%
%ADD50R,0.00157X0.14016*%
%ADD51R,0.00157X0.14173*%
%ADD52R,0.00157X0.14488*%
%ADD53R,0.00157X0.07087*%
%ADD54R,0.00157X0.04882*%
%ADD55R,0.00157X0.05039*%
%ADD56R,0.00157X0.05197*%
%ADD57R,0.00157X0.03622*%
%ADD58R,0.00157X0.00157*%
%ADD59R,0.00157X0.11024*%
%ADD60R,0.07205X0.00118*%
%ADD61R,0.07913X0.00118*%
%ADD62R,0.08386X0.00079*%
%ADD63R,0.08858X0.00157*%
%ADD64R,0.09094X0.00118*%
%ADD65R,0.09331X0.00118*%
%ADD66R,0.09567X0.00079*%
%ADD67R,0.03661X0.00118*%
%ADD68R,0.02126X0.00118*%
%ADD69R,0.02953X0.00118*%
%ADD70R,0.02244X0.00157*%
%ADD71R,0.00591X0.00157*%
%ADD72R,0.01535X0.00157*%
%ADD73R,0.02598X0.00157*%
%ADD74R,0.02244X0.00118*%
%ADD75R,0.00472X0.00118*%
%ADD76R,0.01181X0.00118*%
%ADD77R,0.02362X0.00118*%
%ADD78R,0.00945X0.00118*%
%ADD79R,0.00354X0.00118*%
%ADD80R,0.00827X0.00118*%
%ADD81R,0.02480X0.00157*%
%ADD82R,0.00354X0.00157*%
%ADD83R,0.00236X0.00157*%
%ADD84R,0.02480X0.00118*%
%ADD85R,0.02598X0.00118*%
%ADD86R,0.01063X0.00118*%
%ADD87R,0.02835X0.00118*%
%ADD88R,0.00472X0.00157*%
%ADD89R,0.04252X0.00157*%
%ADD90R,0.04370X0.00118*%
%ADD91R,0.00591X0.00118*%
%ADD92R,0.04488X0.00118*%
%ADD93R,0.00709X0.00157*%
%ADD94R,0.04488X0.00157*%
%ADD95R,0.00236X0.00118*%
%ADD96R,0.00118X0.00118*%
%ADD97R,0.00118X0.00157*%
%ADD98R,0.04370X0.00157*%
%ADD99R,0.04252X0.00118*%
%ADD100R,0.02717X0.00118*%
%ADD101R,0.03071X0.00157*%
%ADD102R,0.03425X0.00118*%
%ADD103R,0.09567X0.00118*%
%ADD104R,0.08858X0.00118*%
%ADD105R,0.08386X0.00118*%
%ADD106R,0.00157X0.12756*%
%ADD107R,0.00157X0.11181*%
%ADD108R,0.00157X0.11496*%
%ADD109R,0.00157X0.11654*%
%ADD110R,0.00157X0.13071*%
%ADD111R,0.00157X0.13228*%
%ADD112R,0.00157X0.11811*%
%ADD113R,0.00157X0.14803*%
%ADD114R,0.00157X0.15906*%
%ADD115R,0.00157X0.16063*%
%ADD116R,0.00157X0.16220*%
%ADD117R,0.00157X0.16378*%
%ADD118R,0.00157X0.09921*%
%ADD119R,0.09803X0.00118*%
%ADD120R,0.10276X0.00079*%
%ADD121R,0.10748X0.00157*%
%ADD122R,0.10984X0.00118*%
%ADD123R,0.11220X0.00118*%
%ADD124R,0.11457X0.00079*%
%ADD125R,0.08150X0.00118*%
%ADD126R,0.01063X0.00157*%
%ADD127R,0.01417X0.00157*%
%ADD128R,0.00709X0.00118*%
%ADD129R,0.04016X0.00118*%
%ADD130R,0.00945X0.00157*%
%ADD131R,0.03898X0.00157*%
%ADD132R,0.03189X0.00118*%
%ADD133R,0.02717X0.00157*%
%ADD134R,0.01654X0.00118*%
%ADD135R,0.02126X0.00157*%
%ADD136R,0.01299X0.00118*%
%ADD137R,0.02008X0.00118*%
%ADD138R,0.01890X0.00118*%
%ADD139R,0.02008X0.00157*%
%ADD140R,0.01890X0.00157*%
%ADD141R,0.11457X0.00118*%
%ADD142R,0.10748X0.00118*%
%ADD143R,0.10276X0.00118*%
%ADD144R,0.15236X0.00118*%
%ADD145R,0.15945X0.00118*%
%ADD146R,0.16417X0.00079*%
%ADD147R,0.16890X0.00157*%
%ADD148R,0.17126X0.00118*%
%ADD149R,0.17362X0.00118*%
%ADD150R,0.17598X0.00079*%
%ADD151R,0.11929X0.00118*%
%ADD152R,0.05551X0.00118*%
%ADD153R,0.01299X0.00157*%
%ADD154R,0.02362X0.00157*%
%ADD155R,0.04134X0.00118*%
%ADD156R,0.04134X0.00157*%
%ADD157R,0.02953X0.00157*%
%ADD158R,0.03071X0.00118*%
%ADD159R,0.00827X0.00157*%
%ADD160R,0.01181X0.00157*%
%ADD161R,0.01417X0.00118*%
%ADD162R,0.01535X0.00118*%
%ADD163R,0.17598X0.00118*%
%ADD164R,0.16890X0.00118*%
%ADD165R,0.16417X0.00118*%
%ADD166R,0.10748X0.00079*%
%ADD167R,0.11220X0.00157*%
%ADD168R,0.11693X0.00118*%
%ADD169R,0.11929X0.00079*%
%ADD170R,0.03307X0.00118*%
%ADD171R,0.03543X0.00157*%
%ADD172R,0.03543X0.00118*%
%ADD173R,0.03189X0.00157*%
%ADD174R,0.00118X0.17598*%
%ADD175R,0.00118X0.17480*%
%ADD176R,0.00079X0.17362*%
%ADD177R,0.00157X0.17244*%
%ADD178R,0.00118X0.17126*%
%ADD179R,0.00118X0.17008*%
%ADD180R,0.00079X0.16890*%
%ADD181R,0.00118X0.11220*%
%ADD182R,0.00118X0.05197*%
%ADD183R,0.00157X0.00354*%
%ADD184R,0.00157X0.01299*%
%ADD185R,0.00157X0.00709*%
%ADD186R,0.00157X0.01535*%
%ADD187R,0.00118X0.01417*%
%ADD188R,0.00118X0.00236*%
%ADD189R,0.00118X0.01181*%
%ADD190R,0.00118X0.01063*%
%ADD191R,0.00118X0.00591*%
%ADD192R,0.00118X0.00945*%
%ADD193R,0.00118X0.00354*%
%ADD194R,0.00118X0.01299*%
%ADD195R,0.00118X0.00709*%
%ADD196R,0.00157X0.00236*%
%ADD197R,0.00157X0.01063*%
%ADD198R,0.00118X0.00827*%
%ADD199R,0.00118X0.01890*%
%ADD200R,0.00118X0.00472*%
%ADD201R,0.00118X0.02480*%
%ADD202R,0.00118X0.02362*%
%ADD203R,0.00157X0.00591*%
%ADD204R,0.00157X0.02126*%
%ADD205R,0.00157X0.02244*%
%ADD206R,0.00118X0.02126*%
%ADD207R,0.00118X0.02244*%
%ADD208R,0.00157X0.00118*%
%ADD209R,0.00118X0.02008*%
%ADD210R,0.00118X0.02598*%
%ADD211R,0.00157X0.00827*%
%ADD212R,0.00157X0.02008*%
%ADD213R,0.00157X0.01181*%
%ADD214R,0.00118X0.01535*%
%ADD215R,0.00118X0.01772*%
%ADD216R,0.00118X0.16890*%
%ADD217R,0.00118X0.17244*%
%ADD218R,0.00118X0.17362*%
%ADD219R,0.00157X0.15748*%
%ADD220R,0.00157X0.15591*%
%ADD221R,0.00157X0.02953*%
%ADD222R,0.00118X0.03071*%
%ADD223R,0.00118X0.02953*%
%ADD224R,0.00118X0.01654*%
%ADD225R,0.00157X0.02480*%
%ADD226R,0.00118X0.02717*%
%ADD227R,0.00118X0.02835*%
%ADD228R,0.12402X0.00157*%
%ADD229R,0.12638X0.00118*%
%ADD230R,0.12874X0.00118*%
%ADD231R,0.13110X0.00079*%
%ADD232R,0.04961X0.00118*%
%ADD233R,0.05079X0.00118*%
%ADD234R,0.02835X0.00157*%
%ADD235R,0.13110X0.00118*%
%ADD236R,0.12402X0.00118*%
%ADD237R,0.00157X0.10551*%
%ADD238R,0.00157X0.07874*%
%ADD239R,0.00157X0.08031*%
%ADD240R,0.00157X0.08346*%
%ADD241R,0.00157X0.08504*%
%ADD242R,0.00157X0.09606*%
%ADD243R,0.00157X0.09764*%
%ADD244R,0.00157X0.10079*%
%ADD245R,0.00157X0.08661*%
%ADD246C,0.00300*%
%ADD247R,0.00118X0.20079*%
%ADD248R,0.00118X0.20197*%
%ADD249R,0.00079X0.20433*%
%ADD250R,0.00157X0.20551*%
%ADD251R,0.00118X0.20669*%
%ADD252R,0.00118X0.20787*%
%ADD253R,0.00079X0.08504*%
%ADD254R,0.00079X0.11929*%
%ADD255R,0.00118X0.04252*%
%ADD256R,0.00118X0.03189*%
%ADD257R,0.00157X0.01654*%
%ADD258R,0.00157X0.01772*%
%ADD259R,0.00118X0.07087*%
%ADD260R,0.00118X0.13228*%
%ADD261R,0.00118X0.07205*%
%ADD262R,0.00118X0.20551*%
%ADD263R,0.00118X0.20433*%
%ADD264R,0.00118X0.22559*%
%ADD265R,0.00118X0.22441*%
%ADD266R,0.00079X0.22323*%
%ADD267R,0.00157X0.22205*%
%ADD268R,0.00118X0.22087*%
%ADD269R,0.00118X0.21969*%
%ADD270R,0.00079X0.09449*%
%ADD271R,0.00079X0.12047*%
%ADD272R,0.00118X0.04961*%
%ADD273R,0.00118X0.05787*%
%ADD274R,0.00157X0.02598*%
%ADD275R,0.00118X0.08031*%
%ADD276R,0.00118X0.08386*%
%ADD277R,0.00118X0.13346*%
%ADD278R,0.00118X0.22205*%
%ADD279R,0.00118X0.22323*%
D10*
X0059794Y0212200D02*
X0059794Y0222809D01*
X0063330Y0222809D02*
X0063330Y0212200D01*
X0065098Y0215736D02*
X0058025Y0215736D01*
X0058025Y0219273D02*
X0063330Y0219273D01*
X0065098Y0219273D01*
X0069535Y0217505D02*
X0069535Y0213968D01*
X0071303Y0212200D01*
X0074840Y0212200D01*
X0076608Y0213968D01*
X0076608Y0215736D01*
X0074840Y0217505D01*
X0069535Y0217505D01*
X0073072Y0221041D01*
X0076608Y0222809D01*
X0081045Y0222809D02*
X0088118Y0222809D01*
X0088118Y0221041D01*
X0081045Y0213968D01*
X0081045Y0212200D01*
X0092555Y0212200D02*
X0099628Y0212200D01*
X0096091Y0212200D02*
X0096091Y0222809D01*
X0092555Y0219273D01*
D11*
X0064381Y0061101D02*
X0065082Y0060400D01*
X0066483Y0060400D01*
X0067184Y0061101D01*
X0067184Y0062502D01*
X0065783Y0062502D01*
X0067184Y0063903D02*
X0066483Y0064604D01*
X0065082Y0064604D01*
X0064381Y0063903D01*
X0064381Y0061101D01*
X0068985Y0061801D02*
X0071087Y0061801D01*
X0071788Y0062502D01*
X0071788Y0063903D01*
X0071087Y0064604D01*
X0068985Y0064604D01*
X0068985Y0060400D01*
X0073589Y0061101D02*
X0074290Y0060400D01*
X0075691Y0060400D01*
X0076392Y0061101D01*
X0076392Y0061801D01*
X0075691Y0062502D01*
X0074290Y0062502D01*
X0073589Y0063202D01*
X0073589Y0063903D01*
X0074290Y0064604D01*
X0075691Y0064604D01*
X0076392Y0063903D01*
X0078193Y0062502D02*
X0080996Y0062502D01*
X0082797Y0061801D02*
X0084899Y0061801D01*
X0085599Y0062502D01*
X0085599Y0063903D01*
X0084899Y0064604D01*
X0082797Y0064604D01*
X0082797Y0060400D01*
X0084198Y0061801D02*
X0085599Y0060400D01*
X0088802Y0060400D02*
X0088802Y0064604D01*
X0087401Y0064604D02*
X0090203Y0064604D01*
X0092005Y0064604D02*
X0092005Y0060400D01*
X0092005Y0061801D02*
X0094807Y0064604D01*
X0092706Y0062502D02*
X0094807Y0060400D01*
X0144777Y0060400D02*
X0146879Y0060400D01*
X0147580Y0061101D01*
X0147580Y0063903D01*
X0146879Y0064604D01*
X0144777Y0064604D01*
X0144777Y0060400D01*
X0149381Y0060400D02*
X0152184Y0060400D01*
X0153985Y0061801D02*
X0155386Y0060400D01*
X0156788Y0061801D01*
X0156788Y0064604D01*
X0158589Y0062502D02*
X0161392Y0062502D01*
X0163193Y0063202D02*
X0164594Y0064604D01*
X0164594Y0060400D01*
X0163193Y0060400D02*
X0165996Y0060400D01*
X0167797Y0061101D02*
X0168498Y0060400D01*
X0169899Y0060400D01*
X0170599Y0061101D01*
X0170599Y0062502D01*
X0169899Y0063202D01*
X0169198Y0063202D01*
X0167797Y0062502D01*
X0167797Y0064604D01*
X0170599Y0064604D01*
X0172401Y0063903D02*
X0173102Y0064604D01*
X0174503Y0064604D01*
X0175203Y0063903D01*
X0172401Y0061101D01*
X0173102Y0060400D01*
X0174503Y0060400D01*
X0175203Y0061101D01*
X0175203Y0063903D01*
X0177005Y0063903D02*
X0177005Y0061101D01*
X0179807Y0063903D01*
X0179807Y0061101D01*
X0179107Y0060400D01*
X0177705Y0060400D01*
X0177005Y0061101D01*
X0177005Y0063903D02*
X0177705Y0064604D01*
X0179107Y0064604D01*
X0179807Y0063903D01*
X0181609Y0064604D02*
X0181609Y0062502D01*
X0183010Y0063202D01*
X0183711Y0063202D01*
X0184411Y0062502D01*
X0184411Y0061101D01*
X0183711Y0060400D01*
X0182309Y0060400D01*
X0181609Y0061101D01*
X0181609Y0064604D02*
X0184411Y0064604D01*
X0172401Y0063903D02*
X0172401Y0061101D01*
X0153985Y0061801D02*
X0153985Y0064604D01*
X0152184Y0064604D02*
X0149381Y0064604D01*
X0149381Y0060400D01*
X0149381Y0062502D02*
X0150783Y0062502D01*
D12*
X0154446Y0090319D03*
X0160745Y0090319D03*
D13*
X0160587Y0090555D03*
X0165233Y0090555D03*
X0169957Y0090555D03*
X0154603Y0090555D03*
X0150745Y0090713D03*
X0150587Y0090713D03*
X0150430Y0090713D03*
X0150272Y0090713D03*
X0150115Y0090713D03*
X0149957Y0090713D03*
X0149800Y0090713D03*
X0145390Y0090713D03*
X0145233Y0090713D03*
X0145075Y0090713D03*
X0144918Y0090713D03*
X0144760Y0090713D03*
X0144603Y0090713D03*
X0144446Y0090713D03*
X0120587Y0090343D03*
X0114603Y0090343D03*
X0099800Y0090555D03*
X0095390Y0090555D03*
X0134446Y0189213D03*
X0134603Y0189213D03*
X0134760Y0189213D03*
X0134918Y0189213D03*
X0135075Y0189213D03*
X0135233Y0189213D03*
X0135390Y0189213D03*
X0139800Y0189213D03*
X0139957Y0189213D03*
X0140115Y0189213D03*
X0140272Y0189213D03*
X0140430Y0189213D03*
X0140587Y0189213D03*
X0140745Y0189213D03*
X0174918Y0189740D03*
X0180272Y0189740D03*
D14*
X0179957Y0189583D03*
X0175233Y0189583D03*
X0160430Y0090713D03*
X0154760Y0090713D03*
X0120430Y0090500D03*
X0114760Y0090500D03*
X0100115Y0090713D03*
X0095075Y0090713D03*
D15*
X0094760Y0090870D03*
X0089800Y0090370D03*
X0085390Y0090370D03*
X0100430Y0090870D03*
X0120115Y0090657D03*
X0154918Y0090870D03*
X0160272Y0090870D03*
D16*
X0160115Y0090949D03*
X0155075Y0090949D03*
X0100587Y0090949D03*
X0094603Y0090949D03*
X0089957Y0090449D03*
X0085233Y0090449D03*
D17*
X0085075Y0090528D03*
X0090115Y0090528D03*
X0094446Y0091028D03*
X0100745Y0091028D03*
X0134446Y0091028D03*
X0134603Y0091028D03*
X0134760Y0091028D03*
X0134918Y0091028D03*
X0135075Y0091028D03*
X0135233Y0091028D03*
X0135390Y0091028D03*
X0139800Y0091028D03*
X0139957Y0091028D03*
X0140115Y0091028D03*
X0140272Y0091028D03*
X0140430Y0091028D03*
X0140587Y0091028D03*
X0140745Y0091028D03*
X0155233Y0091028D03*
X0159957Y0091028D03*
X0120745Y0189028D03*
X0120587Y0189028D03*
X0120430Y0189028D03*
X0120272Y0189028D03*
X0120115Y0189028D03*
X0119957Y0189028D03*
X0119800Y0189028D03*
X0115390Y0189028D03*
X0115233Y0189028D03*
X0115075Y0189028D03*
X0114918Y0189028D03*
X0114760Y0189028D03*
X0114603Y0189028D03*
X0114446Y0189028D03*
D18*
X0090272Y0090606D03*
X0084918Y0090606D03*
X0155390Y0091106D03*
X0159800Y0091106D03*
D19*
X0167123Y0090949D03*
X0167280Y0090949D03*
X0167438Y0090949D03*
X0167595Y0090949D03*
X0167753Y0090949D03*
X0167910Y0090949D03*
X0168068Y0090949D03*
X0168225Y0090949D03*
X0169642Y0096618D03*
X0169485Y0096776D03*
X0169327Y0096776D03*
X0159485Y0097720D03*
X0159327Y0097720D03*
X0145548Y0096461D03*
X0139485Y0097248D03*
X0136808Y0087799D03*
X0139485Y0084807D03*
X0145548Y0084965D03*
X0147123Y0084965D03*
X0147280Y0084965D03*
X0147438Y0084965D03*
X0147595Y0084965D03*
X0147753Y0084965D03*
X0147910Y0084965D03*
X0155548Y0084807D03*
X0157910Y0084807D03*
X0165548Y0084807D03*
X0109957Y0093571D03*
X0107595Y0089949D03*
X0099327Y0091264D03*
X0098225Y0092839D03*
X0196020Y0160327D03*
X0196020Y0163791D03*
X0198068Y0163791D03*
X0198225Y0173083D03*
X0196020Y0173083D03*
X0176150Y0166012D03*
X0137910Y0183465D03*
X0137753Y0183465D03*
X0137595Y0183465D03*
X0137438Y0183465D03*
X0137280Y0183465D03*
X0137123Y0183465D03*
X0135548Y0183465D03*
X0129642Y0191087D03*
X0125548Y0192819D03*
X0128383Y0195181D03*
X0128540Y0195181D03*
X0135548Y0194961D03*
X0148225Y0191457D03*
X0148698Y0187992D03*
X0148540Y0187835D03*
X0148383Y0187835D03*
X0177123Y0190449D03*
X0177280Y0190449D03*
X0177438Y0190449D03*
X0177595Y0190449D03*
X0177753Y0190449D03*
X0177910Y0190449D03*
X0178068Y0190449D03*
X0178225Y0190449D03*
X0178068Y0195488D03*
X0177280Y0195488D03*
X0119485Y0195248D03*
X0116808Y0185799D03*
X0119485Y0182807D03*
D20*
X0155548Y0092996D03*
D21*
X0149485Y0092366D03*
X0149485Y0089059D03*
X0149642Y0084807D03*
X0155705Y0084650D03*
X0139327Y0084650D03*
X0136020Y0084650D03*
X0118540Y0084437D03*
X0099012Y0091106D03*
X0098855Y0091106D03*
X0098698Y0091106D03*
X0089642Y0096433D03*
X0136020Y0097406D03*
X0139327Y0097406D03*
X0149642Y0096618D03*
X0169642Y0088587D03*
X0169642Y0084650D03*
X0195863Y0160327D03*
X0198383Y0163634D03*
X0196020Y0167413D03*
X0179642Y0188087D03*
X0178383Y0195646D03*
X0176965Y0195646D03*
X0149800Y0188937D03*
X0149170Y0188307D03*
X0149012Y0188150D03*
X0148068Y0191457D03*
X0147910Y0191457D03*
X0139485Y0190866D03*
X0139485Y0187559D03*
X0139642Y0183307D03*
X0125705Y0192819D03*
X0127753Y0195339D03*
X0127910Y0195339D03*
X0119327Y0195406D03*
X0116020Y0195406D03*
X0139642Y0195118D03*
X0119327Y0182650D03*
X0116020Y0182650D03*
D22*
X0117280Y0184618D03*
X0116650Y0185248D03*
X0116493Y0189343D03*
X0118855Y0188870D03*
X0118540Y0192965D03*
X0116808Y0192965D03*
X0128540Y0188961D03*
X0135705Y0186693D03*
X0137280Y0187165D03*
X0136808Y0185276D03*
X0136965Y0185118D03*
X0138383Y0185276D03*
X0138540Y0185276D03*
X0137280Y0189213D03*
X0137123Y0189213D03*
X0135705Y0191732D03*
X0136965Y0192992D03*
X0136808Y0193150D03*
X0138383Y0193150D03*
X0138540Y0193150D03*
X0175705Y0191472D03*
X0176650Y0190055D03*
X0176178Y0188008D03*
X0176335Y0187850D03*
X0176650Y0187693D03*
X0177280Y0187378D03*
X0178540Y0186118D03*
X0179170Y0188008D03*
X0195863Y0181823D03*
X0199327Y0181823D03*
X0199170Y0176941D03*
X0199012Y0176941D03*
X0198855Y0176941D03*
X0198698Y0176941D03*
X0198540Y0176941D03*
X0198383Y0176941D03*
X0198225Y0176941D03*
X0198068Y0176941D03*
X0197910Y0176941D03*
X0197753Y0176941D03*
X0197595Y0176941D03*
X0197438Y0176941D03*
X0197280Y0176941D03*
X0197123Y0176941D03*
X0196965Y0176941D03*
X0196808Y0176941D03*
X0196650Y0176941D03*
X0196493Y0176941D03*
X0196808Y0174421D03*
X0196965Y0174421D03*
X0197123Y0174421D03*
X0197280Y0174421D03*
X0198855Y0174264D03*
X0199170Y0174421D03*
X0199327Y0174421D03*
X0199327Y0172217D03*
X0199170Y0172217D03*
X0199012Y0172217D03*
X0198855Y0172217D03*
X0198698Y0172217D03*
X0199485Y0172217D03*
X0197438Y0172217D03*
X0197280Y0172217D03*
X0197123Y0172217D03*
X0196965Y0172217D03*
X0196808Y0172217D03*
X0196650Y0172217D03*
X0198383Y0168437D03*
X0198540Y0168437D03*
X0198698Y0168280D03*
X0196965Y0166547D03*
X0196808Y0166390D03*
X0196493Y0166547D03*
X0195548Y0167335D03*
X0196965Y0165130D03*
X0197123Y0165130D03*
X0197438Y0164972D03*
X0196808Y0164972D03*
X0196808Y0162925D03*
X0196965Y0162925D03*
X0197123Y0162925D03*
X0197280Y0162925D03*
X0197438Y0162925D03*
X0196650Y0162925D03*
X0198698Y0162925D03*
X0198855Y0162925D03*
X0199012Y0162925D03*
X0199170Y0162925D03*
X0199327Y0162925D03*
X0198698Y0161350D03*
X0198540Y0161350D03*
X0198383Y0161350D03*
X0198225Y0161350D03*
X0198225Y0158831D03*
X0198068Y0158831D03*
X0197910Y0158831D03*
X0197595Y0158673D03*
X0197280Y0158831D03*
X0197123Y0158831D03*
X0195548Y0160406D03*
X0148540Y0094650D03*
X0148383Y0094650D03*
X0146965Y0094492D03*
X0146808Y0094650D03*
X0145705Y0093232D03*
X0147123Y0090713D03*
X0147280Y0090713D03*
X0147280Y0088665D03*
X0145705Y0088193D03*
X0146808Y0086776D03*
X0146965Y0086618D03*
X0148383Y0086776D03*
X0148540Y0086776D03*
X0155705Y0088035D03*
X0158540Y0086618D03*
X0166178Y0088508D03*
X0166335Y0088350D03*
X0166650Y0088193D03*
X0167280Y0087878D03*
X0168540Y0086618D03*
X0169170Y0088508D03*
X0166650Y0090555D03*
X0165705Y0091972D03*
X0159485Y0091657D03*
X0138855Y0090870D03*
X0136493Y0091343D03*
X0136650Y0087248D03*
X0137280Y0086618D03*
X0128855Y0088350D03*
X0126493Y0088823D03*
X0117910Y0090500D03*
X0117753Y0090500D03*
X0109957Y0087823D03*
X0109800Y0086248D03*
X0106808Y0087508D03*
X0097438Y0086776D03*
X0095863Y0088350D03*
X0096808Y0090398D03*
X0097280Y0090398D03*
X0097438Y0090398D03*
X0097753Y0092445D03*
X0098540Y0093862D03*
X0097438Y0095437D03*
X0098540Y0095909D03*
X0096020Y0092130D03*
X0089012Y0086276D03*
X0088855Y0086276D03*
X0087438Y0086276D03*
X0136808Y0094965D03*
X0138540Y0094965D03*
D23*
X0129485Y0094728D03*
X0129327Y0094728D03*
X0129170Y0094728D03*
X0129012Y0094728D03*
X0128855Y0094728D03*
X0128698Y0094728D03*
X0128540Y0094728D03*
X0128383Y0094728D03*
X0128225Y0094728D03*
X0128068Y0094728D03*
X0127910Y0094728D03*
X0127753Y0094728D03*
X0127595Y0094728D03*
X0127438Y0094728D03*
X0127280Y0094728D03*
X0127123Y0094728D03*
X0126965Y0094728D03*
X0126808Y0094728D03*
X0126650Y0094728D03*
X0126493Y0094728D03*
X0116965Y0098295D03*
X0109642Y0093728D03*
X0106965Y0094988D03*
X0099642Y0095988D03*
X0118698Y0084752D03*
X0139642Y0084965D03*
X0155705Y0092366D03*
X0159012Y0097720D03*
X0196335Y0160169D03*
X0199012Y0160327D03*
X0197753Y0163949D03*
X0197595Y0163949D03*
X0196493Y0163949D03*
X0196493Y0173240D03*
X0196335Y0173240D03*
X0197595Y0173240D03*
X0197753Y0173240D03*
X0179170Y0183205D03*
X0179012Y0183205D03*
X0178855Y0183047D03*
X0179327Y0183362D03*
X0177753Y0195331D03*
X0177595Y0195331D03*
X0148540Y0191772D03*
X0147753Y0195079D03*
X0148068Y0187677D03*
X0129170Y0195024D03*
X0129012Y0195024D03*
X0119642Y0182965D03*
D24*
X0156335Y0097169D03*
X0156020Y0097012D03*
X0155705Y0096854D03*
X0156808Y0097327D03*
X0118855Y0097114D03*
X0108068Y0094437D03*
X0107910Y0094437D03*
X0107753Y0094437D03*
X0107595Y0094437D03*
X0107438Y0094437D03*
D25*
X0099327Y0096146D03*
X0097123Y0094886D03*
X0098068Y0092681D03*
X0089485Y0096433D03*
X0117595Y0092941D03*
X0117753Y0092941D03*
X0118855Y0092941D03*
X0119012Y0092941D03*
X0119170Y0092941D03*
X0119327Y0092941D03*
X0119485Y0092941D03*
X0119642Y0092941D03*
X0119800Y0092941D03*
X0119327Y0097823D03*
X0129642Y0091264D03*
X0136178Y0084492D03*
X0136335Y0084492D03*
X0139012Y0084492D03*
X0145863Y0084650D03*
X0146965Y0084650D03*
X0149485Y0084650D03*
X0155863Y0084492D03*
X0157595Y0084492D03*
X0156965Y0087484D03*
X0149327Y0089059D03*
X0149327Y0092366D03*
X0147753Y0093154D03*
X0147595Y0093154D03*
X0147595Y0096776D03*
X0145863Y0096776D03*
X0149485Y0096776D03*
X0156020Y0092524D03*
X0159485Y0094256D03*
X0166965Y0087484D03*
X0167595Y0084492D03*
X0165863Y0084492D03*
X0139012Y0097563D03*
X0136335Y0097563D03*
X0118383Y0084280D03*
X0195863Y0167413D03*
X0198225Y0170248D03*
X0198383Y0170248D03*
X0198540Y0170248D03*
X0198698Y0170248D03*
X0195705Y0172925D03*
X0197280Y0180327D03*
X0198068Y0180327D03*
X0176965Y0186984D03*
X0176650Y0195803D03*
X0175548Y0195803D03*
X0178698Y0195803D03*
X0148068Y0195551D03*
X0146650Y0195551D03*
X0139485Y0195276D03*
X0137595Y0195276D03*
X0135863Y0195276D03*
X0137595Y0191654D03*
X0137753Y0191654D03*
X0139327Y0190866D03*
X0139327Y0187559D03*
X0147753Y0191457D03*
X0139485Y0183150D03*
X0136965Y0183150D03*
X0135863Y0183150D03*
X0129642Y0187150D03*
X0126965Y0189984D03*
X0126808Y0189984D03*
X0129327Y0191244D03*
X0126020Y0192819D03*
X0125863Y0192819D03*
X0125548Y0195496D03*
X0127123Y0195496D03*
X0127280Y0195496D03*
X0119012Y0195563D03*
X0116335Y0195563D03*
X0116335Y0182492D03*
X0116178Y0182492D03*
X0119012Y0182492D03*
D26*
X0118698Y0185248D03*
X0116650Y0186823D03*
X0115863Y0186823D03*
X0116965Y0189500D03*
X0118383Y0188713D03*
X0118540Y0188713D03*
X0119642Y0191075D03*
X0126493Y0190535D03*
X0128698Y0188961D03*
X0135863Y0186693D03*
X0136965Y0187165D03*
X0136650Y0185276D03*
X0138698Y0185276D03*
X0137595Y0189213D03*
X0137438Y0189213D03*
X0136808Y0191417D03*
X0136650Y0191417D03*
X0135863Y0191732D03*
X0136650Y0193150D03*
X0138698Y0193150D03*
X0147438Y0191063D03*
X0149170Y0191063D03*
X0149012Y0192323D03*
X0149800Y0192480D03*
X0149170Y0193740D03*
X0176178Y0193362D03*
X0176808Y0191472D03*
X0178698Y0190055D03*
X0178855Y0188008D03*
X0179012Y0188008D03*
X0177438Y0187535D03*
X0179012Y0193362D03*
X0195705Y0181823D03*
X0199642Y0179618D03*
X0199642Y0176941D03*
X0199642Y0174421D03*
X0199642Y0172217D03*
X0198540Y0166390D03*
X0199642Y0162925D03*
X0196650Y0161193D03*
X0148698Y0094650D03*
X0146650Y0094650D03*
X0145863Y0093232D03*
X0146650Y0092917D03*
X0146808Y0092917D03*
X0147438Y0090713D03*
X0147595Y0090713D03*
X0146965Y0088665D03*
X0145863Y0088193D03*
X0146650Y0086776D03*
X0148698Y0086776D03*
X0155863Y0088193D03*
X0156493Y0088193D03*
X0157438Y0088193D03*
X0159327Y0088193D03*
X0167438Y0088035D03*
X0168855Y0088508D03*
X0169012Y0088508D03*
X0168698Y0090555D03*
X0166808Y0091972D03*
X0157595Y0092602D03*
X0157438Y0092602D03*
X0139642Y0093075D03*
X0138540Y0090713D03*
X0138383Y0090713D03*
X0136965Y0091500D03*
X0136650Y0088823D03*
X0135863Y0088823D03*
X0138698Y0087248D03*
X0128383Y0088193D03*
X0126965Y0088980D03*
X0126808Y0088980D03*
X0119170Y0086091D03*
X0117438Y0086091D03*
X0118383Y0090657D03*
X0118540Y0090657D03*
X0118540Y0093650D03*
X0118383Y0093650D03*
X0118225Y0093650D03*
X0118068Y0093650D03*
X0109170Y0088925D03*
X0108383Y0087823D03*
X0107438Y0088925D03*
X0106965Y0087508D03*
X0107438Y0086091D03*
X0108225Y0086091D03*
X0109170Y0086091D03*
X0109327Y0086091D03*
X0098068Y0088508D03*
X0096178Y0088508D03*
X0085705Y0087535D03*
X0086178Y0093677D03*
X0089012Y0093677D03*
X0096178Y0092130D03*
X0097595Y0092287D03*
X0096650Y0093862D03*
X0098698Y0093862D03*
X0097910Y0095594D03*
X0097753Y0095594D03*
X0098225Y0095752D03*
D27*
X0099485Y0096067D03*
X0096965Y0094807D03*
X0095705Y0096067D03*
X0085548Y0096354D03*
X0099170Y0091185D03*
X0099170Y0087563D03*
X0099327Y0087563D03*
X0099485Y0087563D03*
X0099012Y0087563D03*
X0098855Y0087563D03*
X0098698Y0087563D03*
X0107753Y0090028D03*
X0117595Y0087035D03*
X0135863Y0084728D03*
X0155863Y0092445D03*
X0166965Y0091028D03*
X0168383Y0091028D03*
X0167910Y0084728D03*
X0159642Y0084728D03*
X0135863Y0097327D03*
X0199327Y0160406D03*
X0198225Y0163713D03*
X0195863Y0163713D03*
X0196178Y0167335D03*
X0196335Y0167335D03*
X0199170Y0167335D03*
X0195863Y0173004D03*
X0178383Y0190528D03*
X0176965Y0190528D03*
X0177123Y0195567D03*
X0178225Y0195567D03*
X0149957Y0189173D03*
X0148855Y0188071D03*
X0147910Y0195315D03*
X0128225Y0195260D03*
X0128068Y0195260D03*
X0115863Y0195327D03*
X0115863Y0182728D03*
D28*
X0156493Y0097248D03*
X0156650Y0097248D03*
X0156965Y0097406D03*
X0157123Y0097406D03*
X0156178Y0097091D03*
X0155863Y0096933D03*
X0119012Y0097035D03*
X0108225Y0094358D03*
X0107280Y0094516D03*
D29*
X0105705Y0094437D03*
X0099170Y0096067D03*
X0096020Y0096067D03*
X0089327Y0096354D03*
X0087753Y0095094D03*
X0087595Y0095094D03*
X0085863Y0096354D03*
X0089642Y0091315D03*
X0089642Y0083913D03*
X0099642Y0084413D03*
X0108698Y0088138D03*
X0108855Y0088295D03*
X0109957Y0090500D03*
X0116650Y0087823D03*
X0117910Y0087193D03*
X0119957Y0089083D03*
X0117438Y0093020D03*
X0119485Y0097744D03*
X0136493Y0097642D03*
X0138698Y0097642D03*
X0138855Y0097642D03*
X0146020Y0096854D03*
X0147438Y0096854D03*
X0149327Y0096854D03*
X0147438Y0093232D03*
X0147280Y0093232D03*
X0149170Y0092287D03*
X0149170Y0089138D03*
X0146178Y0090713D03*
X0146020Y0090713D03*
X0156178Y0092602D03*
X0159327Y0094177D03*
X0159327Y0084413D03*
X0159170Y0084413D03*
X0158383Y0084413D03*
X0157438Y0084413D03*
X0157280Y0084413D03*
X0156178Y0084413D03*
X0156020Y0084413D03*
X0149327Y0084571D03*
X0146020Y0084571D03*
X0138855Y0084413D03*
X0138698Y0084413D03*
X0136493Y0084413D03*
X0119800Y0084201D03*
X0118225Y0084201D03*
X0116808Y0084201D03*
X0166020Y0084413D03*
X0166178Y0084413D03*
X0167438Y0084413D03*
X0168383Y0084413D03*
X0169327Y0084413D03*
X0198540Y0163398D03*
X0197280Y0167020D03*
X0197910Y0167807D03*
X0199485Y0167335D03*
X0198855Y0170327D03*
X0197910Y0180248D03*
X0197438Y0180248D03*
X0179642Y0195882D03*
X0178855Y0195882D03*
X0176493Y0195882D03*
X0175705Y0195882D03*
X0149800Y0195630D03*
X0147438Y0195630D03*
X0146808Y0195630D03*
X0139327Y0195354D03*
X0137438Y0195354D03*
X0136020Y0195354D03*
X0137280Y0191732D03*
X0137438Y0191732D03*
X0139170Y0190787D03*
X0139170Y0187638D03*
X0136178Y0189213D03*
X0136020Y0189213D03*
X0129485Y0187071D03*
X0128540Y0187071D03*
X0128068Y0187071D03*
X0125863Y0187071D03*
X0125705Y0187071D03*
X0126650Y0189906D03*
X0129170Y0191165D03*
X0126965Y0195575D03*
X0126808Y0195575D03*
X0118855Y0195642D03*
X0118698Y0195642D03*
X0116493Y0195642D03*
X0116493Y0182413D03*
X0118698Y0182413D03*
X0118855Y0182413D03*
X0136020Y0183071D03*
X0139327Y0183071D03*
X0145863Y0188228D03*
D30*
X0147595Y0192244D03*
X0147438Y0193819D03*
X0136493Y0191496D03*
X0136335Y0191496D03*
X0136020Y0191654D03*
X0127753Y0192819D03*
X0127595Y0192819D03*
X0125705Y0190614D03*
X0128068Y0189039D03*
X0136020Y0186772D03*
X0136335Y0186929D03*
X0136650Y0187087D03*
X0136808Y0187087D03*
X0119327Y0186902D03*
X0117280Y0186902D03*
X0116493Y0186902D03*
X0116335Y0186902D03*
X0116178Y0186902D03*
X0116020Y0186902D03*
X0118225Y0188634D03*
X0117123Y0189579D03*
X0115705Y0191154D03*
X0118698Y0192728D03*
X0119485Y0191154D03*
X0175863Y0191551D03*
X0176650Y0191551D03*
X0176335Y0193283D03*
X0178855Y0193283D03*
X0178540Y0191551D03*
X0178540Y0187929D03*
X0178698Y0187929D03*
X0176493Y0186197D03*
X0199642Y0181744D03*
X0138698Y0094728D03*
X0139485Y0093154D03*
X0138225Y0090634D03*
X0137123Y0091579D03*
X0135705Y0093154D03*
X0136020Y0088902D03*
X0136178Y0088902D03*
X0136335Y0088902D03*
X0136493Y0088902D03*
X0137280Y0088902D03*
X0139327Y0088902D03*
X0146020Y0088272D03*
X0146335Y0088429D03*
X0146650Y0088587D03*
X0146808Y0088587D03*
X0156020Y0088272D03*
X0156178Y0088272D03*
X0156335Y0088272D03*
X0157595Y0088272D03*
X0159170Y0088272D03*
X0158698Y0090004D03*
X0159012Y0091894D03*
X0159170Y0091894D03*
X0158855Y0092051D03*
X0158225Y0092366D03*
X0157910Y0092524D03*
X0157753Y0092524D03*
X0157910Y0094256D03*
X0165863Y0092051D03*
X0166650Y0092051D03*
X0168540Y0092051D03*
X0168540Y0088429D03*
X0168698Y0088429D03*
X0166493Y0086697D03*
X0156493Y0086697D03*
X0146493Y0092996D03*
X0146335Y0092996D03*
X0146020Y0093154D03*
X0129642Y0086539D03*
X0129485Y0086539D03*
X0128225Y0088114D03*
X0127123Y0089059D03*
X0126335Y0090634D03*
X0125863Y0086539D03*
X0125705Y0086539D03*
X0119957Y0090894D03*
X0118855Y0090736D03*
X0118698Y0090736D03*
X0118540Y0087587D03*
X0118383Y0087587D03*
X0109012Y0087587D03*
X0108225Y0087744D03*
X0107123Y0087587D03*
X0106650Y0089949D03*
X0097910Y0088587D03*
X0097753Y0088587D03*
X0096493Y0088587D03*
X0096335Y0088587D03*
X0085863Y0087614D03*
X0086335Y0093598D03*
X0088855Y0093598D03*
X0096335Y0092209D03*
X0097438Y0092366D03*
X0096493Y0093783D03*
X0098068Y0095673D03*
D31*
X0096178Y0095988D03*
X0095705Y0092051D03*
X0089485Y0091394D03*
X0089642Y0088717D03*
X0088383Y0088559D03*
X0088225Y0088559D03*
X0088068Y0088559D03*
X0088068Y0083835D03*
X0088225Y0083835D03*
X0088383Y0083835D03*
X0088540Y0083835D03*
X0088698Y0083835D03*
X0088855Y0083835D03*
X0089012Y0083835D03*
X0089170Y0083835D03*
X0089327Y0083835D03*
X0089485Y0083835D03*
X0087910Y0083835D03*
X0087753Y0083835D03*
X0087595Y0083835D03*
X0087438Y0083835D03*
X0087280Y0083835D03*
X0087123Y0083835D03*
X0086965Y0083835D03*
X0086808Y0083835D03*
X0086650Y0083835D03*
X0086493Y0083835D03*
X0086335Y0083835D03*
X0086178Y0083835D03*
X0086020Y0083835D03*
X0085863Y0083835D03*
X0085705Y0083835D03*
X0095705Y0084335D03*
X0095863Y0084335D03*
X0096020Y0084335D03*
X0096178Y0084335D03*
X0096335Y0084335D03*
X0096493Y0084335D03*
X0096650Y0084335D03*
X0096808Y0084335D03*
X0096965Y0084335D03*
X0097123Y0084335D03*
X0097280Y0084335D03*
X0097438Y0084335D03*
X0097595Y0084335D03*
X0097753Y0084335D03*
X0097910Y0084335D03*
X0098068Y0084335D03*
X0098225Y0084335D03*
X0098383Y0084335D03*
X0098540Y0084335D03*
X0098698Y0084335D03*
X0098855Y0084335D03*
X0099012Y0084335D03*
X0099170Y0084335D03*
X0099327Y0084335D03*
X0099485Y0084335D03*
X0106650Y0083965D03*
X0106808Y0083965D03*
X0106965Y0083965D03*
X0107123Y0083965D03*
X0107280Y0083965D03*
X0107438Y0083965D03*
X0107595Y0083965D03*
X0107753Y0083965D03*
X0107910Y0083965D03*
X0108068Y0083965D03*
X0108225Y0083965D03*
X0108383Y0083965D03*
X0108540Y0083965D03*
X0108698Y0083965D03*
X0108855Y0083965D03*
X0109012Y0083965D03*
X0109170Y0083965D03*
X0109327Y0083965D03*
X0109485Y0083965D03*
X0109642Y0083965D03*
X0109800Y0083965D03*
X0109957Y0083965D03*
X0116965Y0084122D03*
X0117123Y0084122D03*
X0118068Y0084122D03*
X0119012Y0084122D03*
X0119642Y0084122D03*
X0125705Y0084492D03*
X0129485Y0084492D03*
X0129642Y0084492D03*
X0129642Y0088587D03*
X0129485Y0091264D03*
X0129327Y0091264D03*
X0129170Y0091264D03*
X0129012Y0091264D03*
X0128855Y0091264D03*
X0128698Y0091264D03*
X0128540Y0091264D03*
X0128383Y0091264D03*
X0128225Y0091264D03*
X0128068Y0091264D03*
X0127910Y0091264D03*
X0127753Y0091264D03*
X0127595Y0091264D03*
X0127438Y0091264D03*
X0127280Y0091264D03*
X0127123Y0091264D03*
X0126965Y0091264D03*
X0126808Y0091264D03*
X0126650Y0091264D03*
X0126493Y0091264D03*
X0125705Y0088587D03*
X0116650Y0090264D03*
X0105548Y0094358D03*
X0115705Y0097823D03*
X0119642Y0097665D03*
X0136650Y0097720D03*
X0136808Y0097720D03*
X0138383Y0097720D03*
X0138540Y0097720D03*
X0146178Y0096933D03*
X0146335Y0096933D03*
X0147123Y0096933D03*
X0147280Y0096933D03*
X0147753Y0096933D03*
X0147910Y0096933D03*
X0149170Y0096933D03*
X0147123Y0093311D03*
X0146335Y0090791D03*
X0139642Y0091106D03*
X0135705Y0091106D03*
X0136650Y0084335D03*
X0136808Y0084335D03*
X0136965Y0084335D03*
X0138225Y0084335D03*
X0138383Y0084335D03*
X0138540Y0084335D03*
X0146178Y0084492D03*
X0146335Y0084492D03*
X0146493Y0084492D03*
X0146650Y0084492D03*
X0146808Y0084492D03*
X0148225Y0084492D03*
X0149170Y0084492D03*
X0156335Y0084335D03*
X0156493Y0084335D03*
X0156650Y0084335D03*
X0156808Y0084335D03*
X0156965Y0084335D03*
X0157123Y0084335D03*
X0158540Y0084335D03*
X0158698Y0084335D03*
X0158855Y0084335D03*
X0159012Y0084335D03*
X0157123Y0087642D03*
X0166335Y0084335D03*
X0166493Y0084335D03*
X0166650Y0084335D03*
X0166808Y0084335D03*
X0166965Y0084335D03*
X0167123Y0084335D03*
X0167280Y0084335D03*
X0168540Y0084335D03*
X0168698Y0084335D03*
X0169012Y0084335D03*
X0169170Y0084335D03*
X0167123Y0087642D03*
X0169485Y0088587D03*
X0159170Y0094256D03*
X0089170Y0096276D03*
X0087910Y0095173D03*
X0087438Y0095173D03*
X0086020Y0096276D03*
X0078068Y0089323D03*
X0077123Y0089323D03*
X0077123Y0086606D03*
X0078068Y0086606D03*
X0078540Y0086606D03*
X0195705Y0160327D03*
X0197438Y0160957D03*
X0197595Y0160957D03*
X0197753Y0160957D03*
X0195705Y0167413D03*
X0198068Y0170248D03*
X0197753Y0180169D03*
X0197595Y0180169D03*
X0179485Y0188087D03*
X0177123Y0187142D03*
X0176335Y0195961D03*
X0176178Y0195961D03*
X0176020Y0195961D03*
X0175863Y0195961D03*
X0179012Y0195961D03*
X0179170Y0195961D03*
X0179327Y0195961D03*
X0179485Y0195961D03*
X0159012Y0186638D03*
X0158540Y0186638D03*
X0145705Y0188307D03*
X0139170Y0182992D03*
X0138225Y0182992D03*
X0136808Y0182992D03*
X0136650Y0182992D03*
X0136493Y0182992D03*
X0136335Y0182992D03*
X0136178Y0182992D03*
X0128698Y0186992D03*
X0126965Y0186992D03*
X0126808Y0186992D03*
X0126650Y0186992D03*
X0126493Y0186992D03*
X0126335Y0186992D03*
X0126178Y0186992D03*
X0126020Y0186992D03*
X0129012Y0191244D03*
X0126335Y0192819D03*
X0126178Y0192819D03*
X0126493Y0195654D03*
X0126650Y0195654D03*
X0125705Y0195654D03*
X0118540Y0195720D03*
X0118383Y0195720D03*
X0116808Y0195720D03*
X0116650Y0195720D03*
X0115705Y0189106D03*
X0119642Y0189106D03*
X0118540Y0182335D03*
X0118383Y0182335D03*
X0118225Y0182335D03*
X0116965Y0182335D03*
X0116808Y0182335D03*
X0116650Y0182335D03*
X0136335Y0189291D03*
X0137123Y0191811D03*
X0137123Y0195433D03*
X0137280Y0195433D03*
X0137753Y0195433D03*
X0137910Y0195433D03*
X0139170Y0195433D03*
X0136335Y0195433D03*
X0136178Y0195433D03*
X0146965Y0195709D03*
X0147123Y0195709D03*
X0147280Y0195709D03*
X0148225Y0195709D03*
X0149642Y0195709D03*
X0168068Y0179051D03*
D32*
X0175863Y0188165D03*
X0149485Y0195787D03*
X0149327Y0195787D03*
X0148540Y0195787D03*
X0148383Y0195787D03*
X0145863Y0195787D03*
X0145075Y0195787D03*
X0139012Y0195512D03*
X0138855Y0195512D03*
X0138698Y0195512D03*
X0138540Y0195512D03*
X0138383Y0195512D03*
X0138225Y0195512D03*
X0138068Y0195512D03*
X0136965Y0195512D03*
X0136808Y0195512D03*
X0136650Y0195512D03*
X0136493Y0195512D03*
X0138855Y0190787D03*
X0139012Y0190787D03*
X0136493Y0189213D03*
X0138855Y0187638D03*
X0139012Y0187638D03*
X0145548Y0188386D03*
X0139012Y0182913D03*
X0138855Y0182913D03*
X0138698Y0182913D03*
X0138540Y0182913D03*
X0138383Y0182913D03*
X0129327Y0186913D03*
X0129170Y0186913D03*
X0128855Y0186913D03*
X0127910Y0186913D03*
X0127753Y0186913D03*
X0127595Y0186913D03*
X0127438Y0186913D03*
X0127280Y0186913D03*
X0127123Y0186913D03*
X0128855Y0191165D03*
X0126493Y0192898D03*
X0126335Y0195732D03*
X0126178Y0195732D03*
X0125863Y0195732D03*
X0118225Y0195799D03*
X0118068Y0195799D03*
X0117910Y0195799D03*
X0117753Y0195799D03*
X0117595Y0195799D03*
X0117438Y0195799D03*
X0117280Y0195799D03*
X0117123Y0195799D03*
X0116965Y0195799D03*
X0119485Y0189028D03*
X0118068Y0182256D03*
X0117910Y0182256D03*
X0117753Y0182256D03*
X0117595Y0182256D03*
X0117438Y0182256D03*
X0117280Y0182256D03*
X0117123Y0182256D03*
X0197910Y0161035D03*
X0199642Y0160406D03*
X0138225Y0097799D03*
X0138068Y0097799D03*
X0137910Y0097799D03*
X0137753Y0097799D03*
X0137595Y0097799D03*
X0137438Y0097799D03*
X0137280Y0097799D03*
X0137123Y0097799D03*
X0136965Y0097799D03*
X0146493Y0097012D03*
X0146650Y0097012D03*
X0146808Y0097012D03*
X0146965Y0097012D03*
X0148068Y0097012D03*
X0148225Y0097012D03*
X0148383Y0097012D03*
X0148540Y0097012D03*
X0148698Y0097012D03*
X0148855Y0097012D03*
X0149012Y0097012D03*
X0149012Y0092287D03*
X0148855Y0092287D03*
X0146493Y0090713D03*
X0148855Y0089138D03*
X0149012Y0089138D03*
X0156335Y0092602D03*
X0157438Y0090398D03*
X0157595Y0090398D03*
X0157753Y0090398D03*
X0159642Y0091500D03*
X0159012Y0094177D03*
X0165863Y0088665D03*
X0168855Y0084256D03*
X0149012Y0084413D03*
X0148855Y0084413D03*
X0148698Y0084413D03*
X0148540Y0084413D03*
X0148383Y0084413D03*
X0138068Y0084256D03*
X0137910Y0084256D03*
X0137753Y0084256D03*
X0137595Y0084256D03*
X0137438Y0084256D03*
X0137280Y0084256D03*
X0137123Y0084256D03*
X0129327Y0084413D03*
X0129170Y0084413D03*
X0129012Y0084413D03*
X0128855Y0084413D03*
X0128698Y0084413D03*
X0128540Y0084413D03*
X0128383Y0084413D03*
X0128225Y0084413D03*
X0128068Y0084413D03*
X0127910Y0084413D03*
X0127753Y0084413D03*
X0127595Y0084413D03*
X0127438Y0084413D03*
X0127280Y0084413D03*
X0127123Y0084413D03*
X0126965Y0084413D03*
X0126808Y0084413D03*
X0126650Y0084413D03*
X0126493Y0084413D03*
X0126335Y0084413D03*
X0126178Y0084413D03*
X0126020Y0084413D03*
X0125863Y0084413D03*
X0119485Y0084043D03*
X0119327Y0084043D03*
X0119170Y0084043D03*
X0117910Y0084043D03*
X0117753Y0084043D03*
X0117595Y0084043D03*
X0117438Y0084043D03*
X0117280Y0084043D03*
X0115863Y0084043D03*
X0115075Y0084043D03*
X0116808Y0087823D03*
X0119642Y0089083D03*
X0119800Y0089083D03*
X0125705Y0095437D03*
X0126335Y0095437D03*
X0119800Y0097587D03*
X0115548Y0097744D03*
X0105390Y0094280D03*
X0108068Y0090500D03*
X0106650Y0087508D03*
X0105863Y0083886D03*
X0105075Y0083886D03*
X0098540Y0088035D03*
X0098540Y0091657D03*
X0096650Y0095594D03*
X0096493Y0095752D03*
X0096335Y0095909D03*
X0099012Y0096067D03*
X0089012Y0096197D03*
X0088855Y0096039D03*
X0088698Y0095882D03*
X0088540Y0095724D03*
X0088383Y0095567D03*
X0088225Y0095409D03*
X0088068Y0095252D03*
X0087280Y0095252D03*
X0086178Y0096197D03*
X0086493Y0091315D03*
X0086650Y0091315D03*
X0086808Y0091315D03*
X0086965Y0091315D03*
X0087123Y0091315D03*
X0087280Y0091315D03*
X0087438Y0091315D03*
X0087595Y0091315D03*
X0087753Y0091315D03*
X0087910Y0091315D03*
X0088068Y0091315D03*
X0088225Y0091315D03*
X0088383Y0091315D03*
X0088540Y0091315D03*
X0088698Y0091315D03*
X0088855Y0091315D03*
X0089012Y0091315D03*
X0089170Y0091315D03*
X0089327Y0091315D03*
X0088855Y0088638D03*
X0088698Y0088638D03*
X0088540Y0088638D03*
X0087910Y0088638D03*
X0087753Y0088638D03*
X0086493Y0088638D03*
X0139485Y0091028D03*
D33*
X0135863Y0091106D03*
X0138068Y0087012D03*
X0138225Y0087012D03*
X0129485Y0088587D03*
X0125863Y0088587D03*
X0116965Y0087902D03*
X0116965Y0090264D03*
X0116808Y0090264D03*
X0109800Y0090579D03*
X0107438Y0090579D03*
X0105075Y0094043D03*
X0105233Y0094201D03*
X0098855Y0095988D03*
X0097280Y0095201D03*
X0097910Y0092524D03*
X0089485Y0088717D03*
X0089327Y0088717D03*
X0089170Y0088717D03*
X0089012Y0088717D03*
X0087595Y0088717D03*
X0087438Y0088717D03*
X0087280Y0088717D03*
X0087123Y0088717D03*
X0086965Y0088717D03*
X0086808Y0088717D03*
X0086650Y0088717D03*
X0089642Y0086354D03*
X0087123Y0095331D03*
X0086965Y0095488D03*
X0086808Y0095646D03*
X0086650Y0095803D03*
X0086493Y0095961D03*
X0086335Y0096118D03*
X0105233Y0083807D03*
X0105390Y0083807D03*
X0105548Y0083807D03*
X0105705Y0083807D03*
X0115233Y0083965D03*
X0115390Y0083965D03*
X0115548Y0083965D03*
X0115705Y0083965D03*
X0125863Y0095516D03*
X0126020Y0095516D03*
X0126178Y0095516D03*
X0119957Y0097508D03*
X0115390Y0097665D03*
X0115075Y0097350D03*
X0137280Y0095201D03*
X0137438Y0095201D03*
X0137595Y0095201D03*
X0137753Y0095201D03*
X0137910Y0095201D03*
X0146650Y0090791D03*
X0148225Y0092524D03*
X0148540Y0092366D03*
X0148698Y0092366D03*
X0148698Y0089059D03*
X0148540Y0089059D03*
X0147595Y0088587D03*
X0157123Y0090319D03*
X0157280Y0090319D03*
X0157910Y0090319D03*
X0158068Y0090319D03*
X0158225Y0090319D03*
X0156650Y0092681D03*
X0156493Y0092681D03*
X0158855Y0094256D03*
X0166808Y0090634D03*
X0169327Y0088587D03*
X0198698Y0159224D03*
X0198068Y0161114D03*
X0197280Y0160957D03*
X0195548Y0163476D03*
X0198068Y0168043D03*
X0179327Y0188087D03*
X0176808Y0190134D03*
X0149957Y0192402D03*
X0146650Y0192402D03*
X0145705Y0195866D03*
X0145548Y0195866D03*
X0145390Y0195866D03*
X0145233Y0195866D03*
X0148698Y0195866D03*
X0148855Y0195866D03*
X0149012Y0195866D03*
X0149170Y0195866D03*
X0138698Y0190866D03*
X0138540Y0190866D03*
X0138225Y0191024D03*
X0136650Y0189291D03*
X0137595Y0187087D03*
X0138540Y0187559D03*
X0138698Y0187559D03*
X0129012Y0186835D03*
X0127123Y0190457D03*
X0128698Y0191244D03*
X0126650Y0192819D03*
X0126020Y0195811D03*
X0117910Y0193201D03*
X0117753Y0193201D03*
X0117595Y0193201D03*
X0117438Y0193201D03*
X0117280Y0193201D03*
X0115863Y0189106D03*
X0118068Y0185012D03*
X0118225Y0185012D03*
X0145390Y0188465D03*
D34*
X0146808Y0192402D03*
X0149012Y0193661D03*
X0137123Y0187087D03*
X0127438Y0192819D03*
X0127280Y0192819D03*
X0118698Y0188791D03*
X0116808Y0189421D03*
X0116650Y0189421D03*
X0116650Y0192886D03*
X0119485Y0186902D03*
X0117910Y0184539D03*
X0117753Y0184539D03*
X0117595Y0184539D03*
X0117438Y0184539D03*
X0156178Y0179079D03*
X0157123Y0178016D03*
X0157595Y0184512D03*
X0176650Y0186197D03*
X0176493Y0187772D03*
X0178698Y0186197D03*
X0179485Y0191551D03*
X0179327Y0193441D03*
X0179170Y0193441D03*
X0176020Y0193441D03*
X0199485Y0181902D03*
X0199485Y0179697D03*
X0199327Y0179697D03*
X0199170Y0179697D03*
X0199012Y0179697D03*
X0198855Y0179697D03*
X0198698Y0179697D03*
X0198540Y0179697D03*
X0198383Y0179697D03*
X0196965Y0179697D03*
X0196808Y0179697D03*
X0196650Y0179697D03*
X0196493Y0179697D03*
X0196335Y0179697D03*
X0196178Y0179697D03*
X0196020Y0179697D03*
X0195863Y0179697D03*
X0195705Y0179697D03*
X0199327Y0176862D03*
X0199485Y0176862D03*
X0199485Y0174500D03*
X0196493Y0168043D03*
X0196650Y0166469D03*
X0197280Y0165051D03*
X0199485Y0162846D03*
X0197753Y0158752D03*
X0197438Y0158752D03*
X0177095Y0160343D03*
X0177095Y0162941D03*
X0077595Y0098654D03*
X0076650Y0091803D03*
X0086020Y0093756D03*
X0089170Y0093756D03*
X0089327Y0093756D03*
X0096650Y0090319D03*
X0096020Y0088429D03*
X0096650Y0086697D03*
X0098225Y0088429D03*
X0107595Y0086169D03*
X0107753Y0086169D03*
X0107910Y0086169D03*
X0108068Y0086169D03*
X0109485Y0086169D03*
X0109642Y0086169D03*
X0109012Y0088846D03*
X0118068Y0090579D03*
X0118225Y0090579D03*
X0118225Y0087587D03*
X0119012Y0086012D03*
X0119957Y0087114D03*
X0126650Y0088902D03*
X0128540Y0088272D03*
X0128698Y0088272D03*
X0136650Y0091421D03*
X0136808Y0091421D03*
X0138698Y0090791D03*
X0139485Y0088902D03*
X0137910Y0086539D03*
X0137753Y0086539D03*
X0137595Y0086539D03*
X0137438Y0086539D03*
X0147123Y0088587D03*
X0156650Y0088114D03*
X0156650Y0086697D03*
X0158698Y0086697D03*
X0159485Y0088114D03*
X0156650Y0090004D03*
X0157123Y0092681D03*
X0157280Y0092681D03*
X0159327Y0091736D03*
X0166493Y0088272D03*
X0166650Y0086697D03*
X0168698Y0086697D03*
X0169485Y0092051D03*
X0136650Y0094886D03*
X0118698Y0093571D03*
X0117910Y0093571D03*
X0098383Y0095831D03*
X0097595Y0095516D03*
X0088698Y0086197D03*
X0086650Y0086197D03*
D35*
X0085705Y0096354D03*
X0095863Y0096067D03*
X0105863Y0094437D03*
X0107910Y0090185D03*
X0117753Y0087035D03*
X0116650Y0084358D03*
X0119957Y0084358D03*
X0119957Y0093020D03*
X0115863Y0097744D03*
X0136178Y0097484D03*
X0139170Y0097484D03*
X0145705Y0096697D03*
X0147910Y0093075D03*
X0145863Y0090713D03*
X0145705Y0090713D03*
X0156808Y0087406D03*
X0157753Y0084571D03*
X0159485Y0084571D03*
X0165705Y0084571D03*
X0167753Y0084571D03*
X0169485Y0084571D03*
X0166808Y0087406D03*
X0165705Y0088665D03*
X0159642Y0094177D03*
X0145705Y0084728D03*
X0139170Y0084571D03*
X0199485Y0160406D03*
X0195705Y0163555D03*
X0197438Y0167335D03*
X0197595Y0167492D03*
X0197753Y0167650D03*
X0199327Y0167335D03*
X0198225Y0180406D03*
X0197123Y0180406D03*
X0176808Y0186906D03*
X0175705Y0188165D03*
X0176808Y0195724D03*
X0178540Y0195724D03*
X0149957Y0195472D03*
X0137910Y0191575D03*
X0135863Y0189213D03*
X0135705Y0189213D03*
X0129485Y0191165D03*
X0127595Y0195417D03*
X0127438Y0195417D03*
X0135705Y0195197D03*
X0149327Y0188386D03*
X0149485Y0188543D03*
X0149642Y0188701D03*
X0135705Y0183228D03*
X0119170Y0182571D03*
X0119170Y0195484D03*
X0116178Y0195484D03*
X0157123Y0175654D03*
X0158068Y0175654D03*
D36*
X0145075Y0188622D03*
X0147595Y0191142D03*
X0138225Y0193071D03*
X0136965Y0191496D03*
X0136965Y0189291D03*
X0138068Y0187402D03*
X0137753Y0187244D03*
X0137438Y0187087D03*
X0138225Y0185197D03*
X0128225Y0191087D03*
X0128068Y0191087D03*
X0127910Y0190929D03*
X0127753Y0190929D03*
X0127595Y0190772D03*
X0127438Y0190772D03*
X0127123Y0192819D03*
X0126965Y0192819D03*
X0118383Y0193043D03*
X0116965Y0193043D03*
X0116335Y0189264D03*
X0115705Y0186744D03*
X0118540Y0185169D03*
X0119642Y0186744D03*
X0119170Y0188949D03*
X0119012Y0188949D03*
X0176020Y0188087D03*
X0178383Y0186039D03*
X0179642Y0191394D03*
X0179485Y0193441D03*
X0175863Y0193441D03*
X0196020Y0181744D03*
X0199170Y0181744D03*
X0199012Y0174343D03*
X0198698Y0174185D03*
X0197438Y0174343D03*
X0196650Y0174343D03*
X0198225Y0168358D03*
X0198698Y0166469D03*
X0196650Y0164894D03*
X0196808Y0158909D03*
X0196965Y0158909D03*
X0198383Y0158909D03*
X0198540Y0159067D03*
X0148225Y0094571D03*
X0146965Y0092996D03*
X0146965Y0090791D03*
X0148068Y0088902D03*
X0147753Y0088744D03*
X0147438Y0088587D03*
X0148225Y0086697D03*
X0139642Y0088744D03*
X0138540Y0087169D03*
X0135705Y0088744D03*
X0136335Y0091264D03*
X0139012Y0090949D03*
X0139170Y0090949D03*
X0138383Y0095043D03*
X0136965Y0095043D03*
X0129012Y0088429D03*
X0126335Y0088744D03*
X0126178Y0088744D03*
X0118068Y0087429D03*
X0117595Y0090421D03*
X0117438Y0090421D03*
X0109485Y0090736D03*
X0109327Y0090736D03*
X0109170Y0090736D03*
X0109012Y0090736D03*
X0108855Y0090736D03*
X0108698Y0090736D03*
X0108540Y0090736D03*
X0108383Y0090736D03*
X0108540Y0087902D03*
X0109957Y0086169D03*
X0098383Y0088272D03*
X0097280Y0086854D03*
X0097123Y0086854D03*
X0096965Y0086854D03*
X0096808Y0086854D03*
X0096965Y0090476D03*
X0097123Y0090476D03*
X0098698Y0095988D03*
X0089485Y0093756D03*
X0085863Y0093756D03*
X0086808Y0086354D03*
X0086965Y0086354D03*
X0087123Y0086354D03*
X0087280Y0086354D03*
X0089170Y0086354D03*
X0089327Y0086354D03*
X0089485Y0086354D03*
X0156808Y0090161D03*
X0158540Y0090161D03*
X0157280Y0087957D03*
X0158383Y0086539D03*
X0166020Y0088587D03*
X0168383Y0086539D03*
X0169642Y0091894D03*
X0156965Y0092681D03*
X0156808Y0092681D03*
D37*
X0156965Y0090240D03*
X0158383Y0090240D03*
X0159642Y0088035D03*
X0168540Y0090555D03*
X0148383Y0088980D03*
X0148225Y0088980D03*
X0147910Y0088823D03*
X0146808Y0090713D03*
X0148383Y0092445D03*
X0139327Y0091028D03*
X0136178Y0091185D03*
X0136020Y0091185D03*
X0138383Y0087091D03*
X0129327Y0088508D03*
X0129170Y0088508D03*
X0126020Y0088665D03*
X0119485Y0089083D03*
X0119327Y0089083D03*
X0117438Y0087665D03*
X0117280Y0087823D03*
X0117123Y0087823D03*
X0117123Y0090343D03*
X0117280Y0090343D03*
X0109642Y0090657D03*
X0108225Y0090657D03*
X0107280Y0090657D03*
X0098383Y0091972D03*
X0098383Y0093705D03*
X0095863Y0092130D03*
X0089642Y0093835D03*
X0085705Y0093835D03*
X0076178Y0091685D03*
X0076178Y0084244D03*
X0076650Y0084244D03*
X0077123Y0084244D03*
X0077595Y0084244D03*
X0078068Y0084244D03*
X0078540Y0084244D03*
X0079012Y0084244D03*
X0095705Y0088193D03*
X0115233Y0097587D03*
X0137123Y0095122D03*
X0138068Y0095122D03*
X0138225Y0095122D03*
X0196650Y0159146D03*
X0197123Y0166705D03*
X0199642Y0167335D03*
X0195548Y0172846D03*
X0196965Y0181035D03*
X0196808Y0181193D03*
X0196650Y0181350D03*
X0196493Y0181508D03*
X0196335Y0181508D03*
X0196178Y0181665D03*
X0198383Y0181035D03*
X0198540Y0181193D03*
X0198698Y0181350D03*
X0198855Y0181508D03*
X0199012Y0181665D03*
X0178540Y0190055D03*
X0179642Y0193520D03*
X0175705Y0193520D03*
X0169012Y0192161D03*
X0168068Y0193579D03*
X0159012Y0191598D03*
X0158068Y0190063D03*
X0158540Y0184276D03*
X0156650Y0182976D03*
X0166650Y0182949D03*
X0168540Y0178815D03*
X0145233Y0188543D03*
X0149012Y0191063D03*
X0138383Y0190945D03*
X0136808Y0189213D03*
X0137910Y0187323D03*
X0138225Y0187480D03*
X0138383Y0187480D03*
X0128540Y0191165D03*
X0128383Y0191165D03*
X0127280Y0190535D03*
X0126808Y0192898D03*
X0119327Y0189028D03*
X0116178Y0189185D03*
X0116020Y0189185D03*
X0117123Y0193122D03*
X0118068Y0193122D03*
X0118225Y0193122D03*
X0118383Y0185091D03*
X0176623Y0162350D03*
D38*
X0177910Y0183441D03*
X0157438Y0097484D03*
X0157280Y0097484D03*
X0108540Y0094280D03*
X0108383Y0094280D03*
D39*
X0107123Y0090106D03*
X0106808Y0089949D03*
X0107280Y0087587D03*
X0107438Y0087587D03*
X0107595Y0087587D03*
X0107753Y0087587D03*
X0107910Y0087587D03*
X0109170Y0087587D03*
X0109327Y0087587D03*
X0109485Y0087587D03*
X0109642Y0087744D03*
X0119012Y0087429D03*
X0119170Y0087429D03*
X0119642Y0087272D03*
X0119642Y0090894D03*
X0119485Y0090894D03*
X0119327Y0090894D03*
X0119800Y0090894D03*
X0117280Y0093886D03*
X0117123Y0093886D03*
X0116965Y0093886D03*
X0116808Y0093886D03*
X0127438Y0089217D03*
X0127595Y0089217D03*
X0127753Y0087957D03*
X0137753Y0090476D03*
X0137910Y0090476D03*
X0137595Y0091736D03*
X0146493Y0094728D03*
X0157438Y0094256D03*
X0157595Y0094256D03*
X0166178Y0092209D03*
X0166335Y0092209D03*
X0169012Y0092209D03*
X0169170Y0092209D03*
X0167910Y0088272D03*
X0158383Y0088429D03*
X0146493Y0086854D03*
X0096965Y0092209D03*
X0096808Y0092209D03*
X0088540Y0093441D03*
X0086808Y0093441D03*
X0086178Y0092024D03*
X0086020Y0092024D03*
X0085863Y0092024D03*
X0086335Y0087929D03*
X0086178Y0087772D03*
X0199800Y0160327D03*
X0199800Y0167413D03*
X0195548Y0179697D03*
X0177910Y0187772D03*
X0179012Y0191709D03*
X0179170Y0191709D03*
X0178540Y0193126D03*
X0176808Y0193126D03*
X0176335Y0191709D03*
X0176178Y0191709D03*
X0149485Y0192402D03*
X0149327Y0192402D03*
X0147280Y0192402D03*
X0136493Y0193228D03*
X0128068Y0192819D03*
X0127910Y0192819D03*
X0117595Y0189736D03*
X0117753Y0188476D03*
X0117910Y0188476D03*
X0136493Y0185354D03*
D40*
X0146650Y0188465D03*
X0195863Y0176862D03*
X0196020Y0176862D03*
X0157753Y0097563D03*
X0157595Y0097563D03*
X0119170Y0097035D03*
X0108698Y0094201D03*
D41*
X0097280Y0092287D03*
X0097123Y0092287D03*
X0096650Y0092130D03*
X0096493Y0092130D03*
X0088698Y0093520D03*
X0086650Y0093520D03*
X0086493Y0093520D03*
X0086335Y0091945D03*
X0085705Y0092102D03*
X0086020Y0087693D03*
X0096650Y0088665D03*
X0096808Y0088665D03*
X0096965Y0088665D03*
X0097123Y0088665D03*
X0097280Y0088665D03*
X0097438Y0088665D03*
X0097595Y0088665D03*
X0108068Y0087665D03*
X0109800Y0087823D03*
X0118383Y0089083D03*
X0118540Y0089083D03*
X0118698Y0087508D03*
X0118855Y0087508D03*
X0119800Y0087193D03*
X0119170Y0090815D03*
X0119012Y0090815D03*
X0116650Y0093965D03*
X0125705Y0090555D03*
X0125863Y0090555D03*
X0126020Y0090555D03*
X0126178Y0090555D03*
X0127280Y0089138D03*
X0127910Y0088035D03*
X0128068Y0088035D03*
X0128068Y0086618D03*
X0128225Y0086618D03*
X0128383Y0086618D03*
X0128540Y0086618D03*
X0128698Y0086618D03*
X0128855Y0086618D03*
X0129012Y0086618D03*
X0129170Y0086618D03*
X0129327Y0086618D03*
X0127910Y0086618D03*
X0127753Y0086618D03*
X0127595Y0086618D03*
X0127438Y0086618D03*
X0127280Y0086618D03*
X0127123Y0086618D03*
X0126965Y0086618D03*
X0126808Y0086618D03*
X0126650Y0086618D03*
X0126493Y0086618D03*
X0126335Y0086618D03*
X0126178Y0086618D03*
X0126020Y0086618D03*
X0137438Y0088980D03*
X0137595Y0088980D03*
X0137753Y0088980D03*
X0137910Y0088980D03*
X0138068Y0088980D03*
X0138225Y0088980D03*
X0138383Y0088980D03*
X0138540Y0088980D03*
X0138698Y0088980D03*
X0138855Y0088980D03*
X0139012Y0088980D03*
X0139170Y0088980D03*
X0138068Y0090555D03*
X0137438Y0091657D03*
X0137280Y0091657D03*
X0137280Y0093075D03*
X0137123Y0093075D03*
X0136965Y0093075D03*
X0136808Y0093075D03*
X0136650Y0093075D03*
X0136493Y0093075D03*
X0136335Y0093075D03*
X0136178Y0093075D03*
X0136020Y0093075D03*
X0135863Y0093075D03*
X0137438Y0093075D03*
X0137595Y0093075D03*
X0137753Y0093075D03*
X0137910Y0093075D03*
X0138068Y0093075D03*
X0138225Y0093075D03*
X0138383Y0093075D03*
X0138540Y0093075D03*
X0138698Y0093075D03*
X0138855Y0093075D03*
X0139012Y0093075D03*
X0139170Y0093075D03*
X0139327Y0093075D03*
X0146178Y0093075D03*
X0147753Y0090713D03*
X0147910Y0090713D03*
X0146493Y0088508D03*
X0146178Y0088350D03*
X0157753Y0088350D03*
X0157910Y0088350D03*
X0158068Y0088350D03*
X0158225Y0088350D03*
X0158540Y0088350D03*
X0158698Y0088350D03*
X0158855Y0088350D03*
X0159012Y0088350D03*
X0167595Y0088193D03*
X0167753Y0088193D03*
X0168068Y0088350D03*
X0168225Y0088350D03*
X0168383Y0088350D03*
X0168698Y0092130D03*
X0168855Y0092130D03*
X0169327Y0092130D03*
X0166493Y0092130D03*
X0166020Y0092130D03*
X0158698Y0092130D03*
X0158540Y0092287D03*
X0158383Y0092287D03*
X0158068Y0092445D03*
X0157753Y0094177D03*
X0078068Y0091331D03*
X0076178Y0090150D03*
X0198383Y0166390D03*
X0196650Y0168122D03*
X0195548Y0181823D03*
X0178383Y0187850D03*
X0178225Y0187850D03*
X0178068Y0187850D03*
X0177753Y0187693D03*
X0177595Y0187693D03*
X0176493Y0191630D03*
X0176020Y0191630D03*
X0176493Y0193205D03*
X0176650Y0193205D03*
X0178698Y0193205D03*
X0178698Y0191630D03*
X0178855Y0191630D03*
X0179327Y0191630D03*
X0169012Y0188382D03*
X0168068Y0187201D03*
X0168068Y0185902D03*
X0166178Y0188382D03*
X0158068Y0185929D03*
X0156650Y0184748D03*
X0156650Y0179315D03*
X0168540Y0182476D03*
X0158540Y0191598D03*
X0157595Y0194197D03*
X0149642Y0192480D03*
X0149170Y0192323D03*
X0147438Y0192323D03*
X0147123Y0192480D03*
X0146965Y0192480D03*
X0137910Y0189213D03*
X0137753Y0189213D03*
X0136493Y0187008D03*
X0136178Y0186850D03*
X0136178Y0191575D03*
X0126335Y0190535D03*
X0126178Y0190535D03*
X0126020Y0190535D03*
X0125863Y0190535D03*
X0119327Y0191075D03*
X0119170Y0191075D03*
X0119012Y0191075D03*
X0118855Y0191075D03*
X0118698Y0191075D03*
X0118540Y0191075D03*
X0118383Y0191075D03*
X0118225Y0191075D03*
X0118068Y0191075D03*
X0117910Y0191075D03*
X0117753Y0191075D03*
X0117595Y0191075D03*
X0117438Y0191075D03*
X0117280Y0191075D03*
X0117123Y0191075D03*
X0116965Y0191075D03*
X0116808Y0191075D03*
X0116650Y0191075D03*
X0116493Y0191075D03*
X0116335Y0191075D03*
X0116178Y0191075D03*
X0116020Y0191075D03*
X0115863Y0191075D03*
X0117280Y0189657D03*
X0117438Y0189657D03*
X0118068Y0188555D03*
X0118068Y0186980D03*
X0118225Y0186980D03*
X0118383Y0186980D03*
X0118540Y0186980D03*
X0118698Y0186980D03*
X0118855Y0186980D03*
X0119012Y0186980D03*
X0119170Y0186980D03*
X0117910Y0186980D03*
X0117753Y0186980D03*
X0117595Y0186980D03*
X0117438Y0186980D03*
D42*
X0175548Y0192417D03*
X0177753Y0183283D03*
X0195705Y0176941D03*
X0196178Y0176941D03*
X0158068Y0097642D03*
X0157910Y0097642D03*
X0117910Y0098059D03*
X0108855Y0094122D03*
D43*
X0109485Y0093807D03*
X0107123Y0095067D03*
X0117123Y0098374D03*
X0117280Y0098374D03*
X0129642Y0094650D03*
X0139642Y0097012D03*
X0158855Y0097799D03*
X0165548Y0088665D03*
X0168068Y0085043D03*
X0158068Y0085043D03*
X0135548Y0085043D03*
X0118855Y0084831D03*
X0095548Y0095909D03*
X0196493Y0160091D03*
X0198855Y0160248D03*
X0178698Y0183126D03*
X0178540Y0183126D03*
X0176650Y0183126D03*
X0176493Y0183126D03*
X0176335Y0183126D03*
X0176178Y0183283D03*
X0176020Y0183283D03*
X0175863Y0183441D03*
X0175548Y0188165D03*
X0147910Y0187756D03*
X0147753Y0187756D03*
X0147595Y0187756D03*
X0147595Y0195000D03*
X0129485Y0194945D03*
X0129327Y0194945D03*
X0119642Y0195012D03*
X0128225Y0187701D03*
X0115548Y0183043D03*
D44*
X0146808Y0188307D03*
X0148698Y0192087D03*
X0148855Y0192244D03*
X0175548Y0183835D03*
X0177595Y0183205D03*
X0196335Y0176862D03*
X0158383Y0097720D03*
X0158225Y0097720D03*
X0158225Y0085280D03*
X0118068Y0098138D03*
X0109012Y0094043D03*
D45*
X0109327Y0093886D03*
X0118383Y0097980D03*
X0118540Y0097980D03*
X0118698Y0097823D03*
X0099642Y0091421D03*
X0148068Y0085280D03*
X0158540Y0097720D03*
X0158698Y0097720D03*
X0195548Y0176862D03*
X0179642Y0183677D03*
X0179485Y0183520D03*
X0177280Y0183047D03*
X0177123Y0183047D03*
X0176965Y0183047D03*
X0176808Y0183047D03*
X0175705Y0183520D03*
X0147438Y0187835D03*
X0147280Y0187835D03*
X0138068Y0183780D03*
X0128383Y0187780D03*
X0129642Y0194866D03*
D46*
X0128855Y0195102D03*
X0128698Y0195102D03*
X0138068Y0191890D03*
X0139642Y0190945D03*
X0139642Y0187480D03*
X0148225Y0187756D03*
X0148383Y0191535D03*
X0177438Y0195409D03*
X0177910Y0195409D03*
X0196178Y0173161D03*
X0197910Y0173161D03*
X0198068Y0173161D03*
X0198383Y0173161D03*
X0198540Y0173161D03*
X0198855Y0167335D03*
X0199012Y0167335D03*
X0197910Y0163870D03*
X0196335Y0163870D03*
X0196178Y0163870D03*
X0196178Y0160248D03*
X0199170Y0160406D03*
X0117123Y0185720D03*
X0116965Y0185720D03*
X0115705Y0182886D03*
X0115705Y0195169D03*
X0116650Y0098217D03*
X0116808Y0098217D03*
X0109800Y0093650D03*
X0106808Y0094909D03*
X0106650Y0094909D03*
X0096808Y0094807D03*
X0099485Y0091343D03*
X0099642Y0087563D03*
X0135705Y0084886D03*
X0136965Y0087720D03*
X0137123Y0087720D03*
X0148068Y0093390D03*
X0149642Y0092445D03*
X0149642Y0088980D03*
X0159170Y0097799D03*
X0159642Y0097484D03*
X0169012Y0096854D03*
X0169170Y0096854D03*
X0135705Y0097169D03*
D47*
X0164446Y0089846D03*
X0170745Y0089846D03*
X0106178Y0089476D03*
D48*
X0164603Y0090083D03*
X0170587Y0090083D03*
D49*
X0170430Y0090240D03*
X0164760Y0090240D03*
X0174603Y0190055D03*
X0180587Y0190055D03*
D50*
X0180430Y0189898D03*
X0174760Y0189898D03*
X0170272Y0090398D03*
X0164918Y0090398D03*
D51*
X0165075Y0090476D03*
X0170115Y0090476D03*
X0120745Y0090264D03*
X0114446Y0090264D03*
D52*
X0099957Y0090634D03*
X0095233Y0090634D03*
X0165390Y0090634D03*
X0169800Y0090634D03*
X0175075Y0189661D03*
X0180115Y0189661D03*
D53*
X0135548Y0189213D03*
X0165548Y0094492D03*
X0145548Y0090713D03*
D54*
X0165705Y0095752D03*
X0165863Y0095752D03*
X0166020Y0095909D03*
X0166178Y0095909D03*
X0178068Y0183756D03*
D55*
X0117438Y0097508D03*
X0166335Y0095988D03*
X0166493Y0095988D03*
X0166650Y0095988D03*
X0168540Y0095988D03*
X0168698Y0095988D03*
X0168855Y0095988D03*
D56*
X0168383Y0096067D03*
X0168225Y0096067D03*
X0168068Y0096067D03*
X0167910Y0096067D03*
X0167753Y0096067D03*
X0167595Y0096067D03*
X0167438Y0096067D03*
X0167280Y0096067D03*
X0167123Y0096067D03*
X0166965Y0096067D03*
X0166808Y0096067D03*
X0117753Y0097429D03*
X0117595Y0097429D03*
X0178225Y0183913D03*
X0125548Y0188646D03*
D57*
X0146965Y0188071D03*
X0147123Y0187913D03*
X0177438Y0183126D03*
X0178383Y0183126D03*
X0118225Y0098059D03*
X0109170Y0093965D03*
X0168225Y0085201D03*
D58*
X0148225Y0090713D03*
X0148068Y0090713D03*
X0137753Y0091815D03*
X0137595Y0090398D03*
X0127753Y0089295D03*
X0127595Y0087878D03*
X0119485Y0087350D03*
X0119327Y0087350D03*
X0118225Y0089083D03*
X0118068Y0089083D03*
X0106965Y0090028D03*
X0088383Y0093362D03*
X0086965Y0093362D03*
X0196808Y0161193D03*
X0138225Y0189213D03*
X0138068Y0189213D03*
X0117753Y0189815D03*
X0117595Y0188398D03*
X0176965Y0193047D03*
X0178383Y0193047D03*
D59*
X0115548Y0191154D03*
X0135548Y0093154D03*
X0110745Y0088531D03*
X0104446Y0088531D03*
D60*
X0062705Y0169657D03*
X0062705Y0174343D03*
D61*
X0062705Y0174224D03*
X0062705Y0169776D03*
D62*
X0062705Y0174126D03*
D63*
X0062705Y0174008D03*
D64*
X0062705Y0173870D03*
X0062705Y0170091D03*
X0164150Y0119843D03*
X0164150Y0115157D03*
D65*
X0062705Y0170209D03*
X0062705Y0173752D03*
D66*
X0062705Y0173654D03*
D67*
X0059635Y0173555D03*
X0168638Y0117835D03*
D68*
X0164918Y0116220D03*
X0169205Y0123720D03*
X0169312Y0103780D03*
X0169312Y0101220D03*
X0169194Y0100945D03*
X0164823Y0102835D03*
X0156201Y0100945D03*
X0153485Y0100945D03*
X0063237Y0173555D03*
D69*
X0066131Y0173555D03*
X0168965Y0110610D03*
X0169253Y0102717D03*
X0169253Y0102638D03*
X0169253Y0102362D03*
X0169253Y0102283D03*
D70*
X0164764Y0102500D03*
X0153426Y0101083D03*
X0153426Y0103917D03*
X0158808Y0108583D03*
X0158808Y0111417D03*
X0159308Y0116083D03*
X0159308Y0118917D03*
X0164977Y0116083D03*
X0168965Y0108583D03*
X0157808Y0123583D03*
X0157808Y0126417D03*
X0058808Y0170583D03*
X0058808Y0173417D03*
D71*
X0060934Y0173417D03*
X0062942Y0172945D03*
X0165485Y0125472D03*
X0165686Y0117500D03*
X0161997Y0111417D03*
X0161575Y0102972D03*
X0162875Y0101555D03*
X0165591Y0101083D03*
D72*
X0063060Y0173417D03*
D73*
X0066426Y0173417D03*
X0058631Y0172472D03*
X0058631Y0172000D03*
X0058631Y0171528D03*
X0157631Y0125472D03*
X0157631Y0125000D03*
X0157631Y0124528D03*
X0160938Y0123583D03*
X0159131Y0117972D03*
X0159131Y0117500D03*
X0159131Y0117028D03*
X0168816Y0116083D03*
X0169052Y0118445D03*
X0168816Y0118917D03*
X0169323Y0125000D03*
X0169024Y0109055D03*
X0158631Y0109528D03*
X0158631Y0110000D03*
X0158631Y0110472D03*
X0153249Y0102972D03*
X0153249Y0102500D03*
X0153249Y0102028D03*
D74*
X0153426Y0101220D03*
X0153426Y0103780D03*
X0158926Y0108445D03*
X0158808Y0108720D03*
X0158808Y0111280D03*
X0159426Y0115945D03*
X0159308Y0116220D03*
X0159308Y0118780D03*
X0162142Y0115945D03*
X0168965Y0111280D03*
X0168965Y0108720D03*
X0168847Y0108445D03*
X0169371Y0103701D03*
X0169371Y0103583D03*
X0169371Y0101417D03*
X0169371Y0101339D03*
X0164764Y0102165D03*
X0164764Y0102283D03*
X0164764Y0102362D03*
X0164764Y0102638D03*
X0164764Y0102717D03*
X0169028Y0123445D03*
X0169264Y0123839D03*
X0169264Y0123917D03*
X0157926Y0123445D03*
X0157808Y0123720D03*
X0157808Y0126280D03*
X0066603Y0170720D03*
X0058926Y0170445D03*
X0058808Y0170720D03*
X0058808Y0173280D03*
D75*
X0060875Y0173280D03*
X0060875Y0173201D03*
X0061820Y0172807D03*
X0061820Y0172728D03*
X0062646Y0172217D03*
X0062883Y0172807D03*
X0060875Y0171390D03*
X0161174Y0126201D03*
X0161528Y0125138D03*
X0162591Y0125610D03*
X0163418Y0124390D03*
X0163418Y0124272D03*
X0164245Y0125335D03*
X0164245Y0125610D03*
X0165544Y0125610D03*
X0165544Y0125728D03*
X0165544Y0125807D03*
X0166808Y0118307D03*
X0165745Y0117638D03*
X0162910Y0117362D03*
X0162910Y0117283D03*
X0162910Y0118307D03*
X0162056Y0111280D03*
X0162816Y0103228D03*
X0162816Y0103110D03*
X0161635Y0102835D03*
X0162816Y0101890D03*
X0162816Y0101772D03*
X0165650Y0101693D03*
X0165650Y0101220D03*
X0165650Y0103228D03*
X0159745Y0100945D03*
D76*
X0161280Y0103780D03*
X0164469Y0103110D03*
X0162883Y0108720D03*
X0162883Y0108839D03*
X0162883Y0108917D03*
X0162883Y0110138D03*
X0162883Y0110217D03*
X0162883Y0110335D03*
X0162883Y0110610D03*
X0162883Y0110728D03*
X0161111Y0108445D03*
X0165863Y0117283D03*
X0166961Y0123445D03*
X0165190Y0123720D03*
X0165190Y0123839D03*
X0063001Y0173280D03*
D77*
X0061820Y0171272D03*
X0058749Y0170917D03*
X0058749Y0170839D03*
X0058749Y0173083D03*
X0058749Y0173201D03*
X0066544Y0173280D03*
X0066662Y0173201D03*
X0066662Y0173083D03*
X0066662Y0170917D03*
X0066662Y0170839D03*
X0157749Y0126201D03*
X0157749Y0126083D03*
X0157749Y0123917D03*
X0157749Y0123839D03*
X0160820Y0124193D03*
X0159249Y0118701D03*
X0159249Y0118583D03*
X0159249Y0116417D03*
X0159249Y0116339D03*
X0158749Y0111201D03*
X0158749Y0111083D03*
X0158749Y0108917D03*
X0158749Y0108839D03*
X0169024Y0108839D03*
X0169024Y0108917D03*
X0169024Y0111083D03*
X0169024Y0111201D03*
X0168788Y0111555D03*
X0168934Y0116220D03*
X0169052Y0116417D03*
X0169170Y0116693D03*
X0169170Y0116772D03*
X0153367Y0103701D03*
X0153367Y0103583D03*
X0153367Y0101417D03*
X0153367Y0101339D03*
D78*
X0161162Y0101339D03*
X0161162Y0101417D03*
X0163052Y0101220D03*
X0163052Y0103701D03*
X0165532Y0100945D03*
X0161111Y0108720D03*
X0161111Y0108839D03*
X0161111Y0110217D03*
X0161111Y0110335D03*
X0161111Y0110610D03*
X0166662Y0111280D03*
X0162674Y0116890D03*
X0161611Y0117717D03*
X0161611Y0117835D03*
X0161611Y0118110D03*
X0164327Y0117835D03*
X0163418Y0123720D03*
X0163418Y0123839D03*
X0165308Y0124272D03*
X0165308Y0124390D03*
X0166961Y0123720D03*
X0166961Y0125335D03*
X0164245Y0126201D03*
X0164245Y0126280D03*
X0162591Y0126280D03*
X0162591Y0126201D03*
X0160111Y0125610D03*
X0160111Y0125335D03*
X0160111Y0125217D03*
X0063001Y0173201D03*
D79*
X0062823Y0172728D03*
X0062823Y0172610D03*
X0062705Y0172335D03*
X0062823Y0171390D03*
X0061760Y0172610D03*
X0060816Y0172610D03*
X0060816Y0172728D03*
X0060816Y0172807D03*
X0060816Y0173083D03*
X0060816Y0171862D03*
X0060816Y0171783D03*
X0060816Y0171665D03*
X0161233Y0126083D03*
X0161351Y0125807D03*
X0161469Y0125335D03*
X0161469Y0125217D03*
X0162532Y0125335D03*
X0165603Y0126083D03*
X0165603Y0126201D03*
X0165603Y0126280D03*
X0165568Y0118307D03*
X0165568Y0118228D03*
X0165686Y0117835D03*
X0165686Y0117717D03*
X0162969Y0117717D03*
X0162969Y0117638D03*
X0162969Y0117835D03*
X0162969Y0118110D03*
X0162969Y0118228D03*
X0162115Y0111201D03*
X0166485Y0110807D03*
X0166485Y0110728D03*
X0166485Y0109193D03*
X0165709Y0103701D03*
X0165709Y0103583D03*
X0165709Y0103307D03*
X0165709Y0101417D03*
X0165709Y0101339D03*
X0162757Y0102165D03*
X0162757Y0102283D03*
X0162757Y0102362D03*
X0162757Y0102638D03*
X0162757Y0102717D03*
X0162757Y0102835D03*
X0161694Y0102717D03*
X0161694Y0102638D03*
X0160867Y0102165D03*
X0159686Y0103307D03*
X0156969Y0103307D03*
D80*
X0156733Y0102165D03*
X0159449Y0102165D03*
X0159449Y0102717D03*
X0161457Y0103307D03*
X0162993Y0101339D03*
X0164528Y0103228D03*
X0161052Y0108917D03*
X0161052Y0110138D03*
X0161552Y0117638D03*
X0162733Y0118780D03*
X0164268Y0118110D03*
X0164268Y0117717D03*
X0164268Y0117638D03*
X0165804Y0117362D03*
X0166867Y0116772D03*
X0165568Y0118701D03*
X0166902Y0123839D03*
X0166902Y0123917D03*
X0166902Y0125138D03*
X0166902Y0125217D03*
X0166902Y0125610D03*
X0165367Y0124783D03*
X0165367Y0124665D03*
X0164186Y0126083D03*
X0162532Y0126083D03*
X0161469Y0124665D03*
X0160052Y0125138D03*
X0064477Y0172728D03*
X0062942Y0173083D03*
X0061052Y0172217D03*
D81*
X0061879Y0171055D03*
X0058690Y0171055D03*
X0058690Y0172945D03*
X0066721Y0172945D03*
X0066721Y0171055D03*
X0066485Y0170583D03*
X0157690Y0125945D03*
X0157690Y0124055D03*
X0160879Y0124055D03*
X0159190Y0118445D03*
X0159190Y0116555D03*
X0169111Y0116555D03*
X0169229Y0117028D03*
X0169264Y0124055D03*
X0169383Y0125472D03*
X0169264Y0125945D03*
X0169083Y0110945D03*
X0158690Y0110945D03*
X0158690Y0109055D03*
X0153308Y0103445D03*
X0153308Y0101555D03*
D82*
X0157087Y0103917D03*
X0159686Y0101555D03*
X0159804Y0101083D03*
X0162757Y0102028D03*
X0162757Y0102500D03*
X0162757Y0102972D03*
X0165709Y0103445D03*
X0165709Y0101555D03*
X0165304Y0110945D03*
X0165422Y0111417D03*
X0162969Y0117500D03*
X0162969Y0117972D03*
X0161469Y0125472D03*
X0165603Y0125945D03*
X0060816Y0171528D03*
X0060816Y0172945D03*
D83*
X0061820Y0172945D03*
X0161292Y0125945D03*
X0164245Y0125000D03*
X0165627Y0117972D03*
X0162292Y0110945D03*
X0159745Y0103445D03*
X0161753Y0102500D03*
X0157028Y0103445D03*
D84*
X0153308Y0103307D03*
X0153308Y0103228D03*
X0153308Y0101772D03*
X0153308Y0101693D03*
X0158690Y0109193D03*
X0158690Y0109272D03*
X0158690Y0110728D03*
X0158690Y0110807D03*
X0168993Y0116339D03*
X0169229Y0116890D03*
X0169229Y0117165D03*
X0168993Y0118583D03*
X0168993Y0118701D03*
X0168875Y0118780D03*
X0159190Y0118307D03*
X0159190Y0118228D03*
X0159190Y0116772D03*
X0159190Y0116693D03*
X0160879Y0123917D03*
X0157690Y0124193D03*
X0157690Y0124272D03*
X0157690Y0125728D03*
X0157690Y0125807D03*
X0169146Y0126083D03*
X0169264Y0125807D03*
X0169264Y0125728D03*
X0169383Y0125610D03*
X0169383Y0125335D03*
X0169383Y0125217D03*
X0169383Y0125138D03*
X0169264Y0124193D03*
X0169371Y0103307D03*
X0061879Y0171193D03*
X0058690Y0171193D03*
X0058690Y0171272D03*
X0058690Y0172728D03*
X0058690Y0172807D03*
X0066721Y0172807D03*
D85*
X0066662Y0172728D03*
X0066662Y0171193D03*
X0066308Y0170445D03*
X0061938Y0170917D03*
X0058631Y0171390D03*
X0058631Y0171665D03*
X0058631Y0171783D03*
X0058631Y0171862D03*
X0058631Y0172138D03*
X0058631Y0172217D03*
X0058631Y0172335D03*
X0058631Y0172610D03*
X0157631Y0125610D03*
X0157631Y0125335D03*
X0157631Y0125217D03*
X0157631Y0125138D03*
X0157631Y0124862D03*
X0157631Y0124783D03*
X0157631Y0124665D03*
X0157631Y0124390D03*
X0160938Y0123839D03*
X0160938Y0123720D03*
X0168969Y0126280D03*
X0169087Y0126201D03*
X0169323Y0124862D03*
X0169205Y0124272D03*
X0169170Y0117362D03*
X0169170Y0117283D03*
X0165036Y0115945D03*
X0159131Y0116890D03*
X0159131Y0117165D03*
X0159131Y0117283D03*
X0159131Y0117362D03*
X0159131Y0117638D03*
X0159131Y0117717D03*
X0159131Y0117835D03*
X0159131Y0118110D03*
X0158631Y0110610D03*
X0158631Y0110335D03*
X0158631Y0110217D03*
X0158631Y0110138D03*
X0158631Y0109862D03*
X0158631Y0109783D03*
X0158631Y0109665D03*
X0158631Y0109390D03*
X0169024Y0110807D03*
X0153249Y0103110D03*
X0153249Y0102835D03*
X0153249Y0102717D03*
X0153249Y0102638D03*
X0153249Y0102362D03*
X0153249Y0102283D03*
X0153249Y0102165D03*
X0153249Y0101890D03*
D86*
X0161221Y0101220D03*
X0161339Y0103583D03*
X0161339Y0103701D03*
X0163111Y0103780D03*
X0164528Y0101772D03*
X0166721Y0108445D03*
X0166749Y0116890D03*
X0165449Y0116890D03*
X0165568Y0118780D03*
X0165249Y0123917D03*
X0165249Y0124193D03*
X0064477Y0171272D03*
X0064477Y0172610D03*
X0061170Y0172335D03*
D87*
X0062056Y0170720D03*
X0066662Y0172610D03*
X0160938Y0123445D03*
X0169205Y0124665D03*
X0168579Y0119055D03*
X0168934Y0118228D03*
X0169052Y0117638D03*
X0168906Y0109272D03*
D88*
X0166544Y0109055D03*
X0166544Y0110945D03*
X0159745Y0103917D03*
X0160926Y0102028D03*
X0162910Y0118445D03*
X0165627Y0118445D03*
X0163418Y0124528D03*
X0164245Y0125472D03*
X0165544Y0126417D03*
X0162591Y0125472D03*
X0161528Y0125000D03*
X0060875Y0172000D03*
X0060875Y0172472D03*
X0061583Y0172472D03*
X0062764Y0172472D03*
D89*
X0065953Y0172472D03*
D90*
X0065894Y0172335D03*
X0065894Y0172217D03*
X0065894Y0171665D03*
D91*
X0064477Y0171193D03*
X0062587Y0172138D03*
X0060934Y0172138D03*
X0161115Y0126280D03*
X0161469Y0124862D03*
X0162532Y0125728D03*
X0165485Y0125335D03*
X0165485Y0125217D03*
X0165568Y0118583D03*
X0166867Y0118228D03*
X0166867Y0116693D03*
X0162851Y0117165D03*
X0162851Y0118583D03*
X0166603Y0111083D03*
X0166603Y0108917D03*
X0165591Y0103780D03*
X0165591Y0103110D03*
X0165591Y0101772D03*
X0164528Y0101693D03*
X0162875Y0101693D03*
X0162875Y0103307D03*
X0160985Y0101890D03*
X0160985Y0101772D03*
D92*
X0065835Y0171783D03*
X0065835Y0171862D03*
X0065835Y0172138D03*
D93*
X0062528Y0172000D03*
X0162591Y0125945D03*
X0164245Y0125945D03*
X0165426Y0125000D03*
X0166843Y0124055D03*
X0163418Y0124055D03*
X0162792Y0117028D03*
X0165532Y0103917D03*
X0162934Y0103445D03*
X0159509Y0102500D03*
X0156792Y0102500D03*
D94*
X0065835Y0172000D03*
D95*
X0062764Y0171862D03*
X0161410Y0125728D03*
X0161410Y0125610D03*
X0162591Y0125217D03*
X0162591Y0125138D03*
X0163418Y0124862D03*
X0163418Y0124783D03*
X0163418Y0124665D03*
X0164245Y0125138D03*
X0164245Y0125217D03*
X0165627Y0118110D03*
X0165363Y0111280D03*
X0165363Y0111201D03*
X0165363Y0111083D03*
X0166426Y0110610D03*
X0166426Y0109272D03*
X0162174Y0111083D03*
X0159745Y0103780D03*
X0159745Y0103701D03*
X0159745Y0103583D03*
X0160808Y0102362D03*
X0160808Y0102283D03*
X0159745Y0101417D03*
X0159745Y0101339D03*
X0159745Y0101220D03*
X0157028Y0103583D03*
X0157028Y0103701D03*
X0157028Y0103780D03*
D96*
X0161812Y0102362D03*
X0166367Y0109390D03*
X0077733Y0092217D03*
X0175540Y0159811D03*
X0175540Y0163945D03*
X0166394Y0179346D03*
X0166316Y0179346D03*
X0166985Y0180882D03*
X0168205Y0180882D03*
X0158875Y0179374D03*
X0158205Y0180909D03*
X0156985Y0180909D03*
X0157379Y0186579D03*
X0167379Y0186551D03*
X0062823Y0171783D03*
X0062823Y0171665D03*
D97*
X0062823Y0171528D03*
X0162532Y0125000D03*
X0166367Y0110472D03*
X0160749Y0102500D03*
D98*
X0065894Y0171528D03*
D99*
X0065953Y0171390D03*
D100*
X0066603Y0171272D03*
X0061997Y0170839D03*
X0169264Y0124783D03*
X0169264Y0124390D03*
X0168993Y0118307D03*
X0168638Y0115945D03*
X0168965Y0110728D03*
X0168965Y0109193D03*
D101*
X0168906Y0110472D03*
X0062174Y0170583D03*
D102*
X0062233Y0170445D03*
X0168729Y0110138D03*
X0168729Y0109783D03*
D103*
X0163886Y0107657D03*
X0162587Y0111555D03*
X0163886Y0112343D03*
X0062705Y0170327D03*
D104*
X0062705Y0170012D03*
D105*
X0062705Y0169894D03*
D106*
X0106020Y0089398D03*
X0124446Y0089925D03*
X0124603Y0089925D03*
X0124760Y0089925D03*
X0124918Y0089925D03*
X0125075Y0089925D03*
X0125233Y0089925D03*
X0125390Y0089925D03*
X0125548Y0089925D03*
X0129800Y0089925D03*
X0129957Y0089925D03*
X0130115Y0089925D03*
X0130272Y0089925D03*
X0130430Y0089925D03*
X0130587Y0089925D03*
X0130745Y0089925D03*
D107*
X0110587Y0088610D03*
X0104603Y0088610D03*
D108*
X0104760Y0088768D03*
X0110430Y0088768D03*
D109*
X0110272Y0088846D03*
X0104918Y0088846D03*
D110*
X0106335Y0089555D03*
D111*
X0106493Y0089634D03*
X0174446Y0190291D03*
X0180745Y0190291D03*
D112*
X0110115Y0088925D03*
X0085548Y0088795D03*
D113*
X0094918Y0090791D03*
X0100272Y0090791D03*
X0114918Y0090579D03*
X0120272Y0090579D03*
X0175390Y0189504D03*
X0179800Y0189504D03*
D114*
X0116020Y0091130D03*
X0090745Y0090843D03*
X0084446Y0090843D03*
D115*
X0116178Y0091209D03*
D116*
X0116335Y0091287D03*
D117*
X0116493Y0091366D03*
D118*
X0095548Y0088350D03*
X0146335Y0191693D03*
D119*
X0164150Y0119724D03*
X0164150Y0115276D03*
D120*
X0164150Y0119626D03*
D121*
X0164150Y0119508D03*
D122*
X0164150Y0119370D03*
X0164150Y0115591D03*
D123*
X0164150Y0115709D03*
X0164150Y0119252D03*
X0163886Y0108012D03*
D124*
X0164150Y0119154D03*
D125*
X0162379Y0119055D03*
D126*
X0162615Y0118917D03*
X0163359Y0123583D03*
X0165249Y0124055D03*
X0166721Y0111417D03*
D127*
X0164890Y0108583D03*
X0162764Y0109528D03*
X0161280Y0103917D03*
X0165509Y0118917D03*
D128*
X0164209Y0118228D03*
X0162792Y0118701D03*
X0161493Y0118228D03*
X0163418Y0123917D03*
X0163418Y0124193D03*
X0164245Y0125728D03*
X0164245Y0125807D03*
X0165426Y0125138D03*
X0165426Y0124862D03*
X0166843Y0124193D03*
X0166843Y0125728D03*
X0162591Y0125807D03*
X0161528Y0124783D03*
X0159993Y0125728D03*
X0166662Y0111201D03*
X0166662Y0108839D03*
X0166662Y0108720D03*
X0160993Y0109193D03*
X0160993Y0110728D03*
X0162934Y0103583D03*
X0161516Y0103228D03*
X0161516Y0103110D03*
X0161044Y0101693D03*
X0159509Y0102283D03*
X0159509Y0102362D03*
X0159509Y0102638D03*
X0156792Y0102638D03*
X0156792Y0102717D03*
X0156792Y0102362D03*
X0156792Y0102283D03*
X0162934Y0101417D03*
D129*
X0168603Y0101693D03*
X0168603Y0101772D03*
X0168603Y0103228D03*
X0168461Y0118110D03*
D130*
X0164327Y0117972D03*
X0161611Y0117972D03*
X0161410Y0124528D03*
X0160111Y0125472D03*
X0161056Y0126417D03*
X0166961Y0125472D03*
X0166961Y0123583D03*
X0161111Y0110472D03*
X0161111Y0108583D03*
X0166662Y0108583D03*
X0161398Y0103445D03*
D131*
X0168520Y0117972D03*
D132*
X0168875Y0117717D03*
X0168847Y0110335D03*
D133*
X0169111Y0117500D03*
D134*
X0165981Y0117165D03*
X0161174Y0124272D03*
D135*
X0169205Y0123583D03*
X0166099Y0117028D03*
X0169312Y0103917D03*
X0169312Y0101083D03*
X0164823Y0102028D03*
X0164823Y0102972D03*
D136*
X0164831Y0108720D03*
X0164831Y0108839D03*
X0164831Y0108917D03*
X0164831Y0109193D03*
X0164831Y0109272D03*
X0164831Y0109390D03*
X0164831Y0109665D03*
X0164831Y0109783D03*
X0164831Y0109862D03*
X0164831Y0110138D03*
X0164831Y0110217D03*
X0164831Y0110335D03*
X0164831Y0110610D03*
X0164831Y0110728D03*
X0164831Y0110807D03*
X0162823Y0110807D03*
X0162823Y0109862D03*
X0162823Y0109783D03*
X0162823Y0109272D03*
X0162823Y0109193D03*
X0162497Y0116772D03*
X0165213Y0116772D03*
X0163359Y0123445D03*
X0161351Y0124390D03*
D137*
X0162142Y0116693D03*
X0162142Y0116417D03*
X0162142Y0116339D03*
X0162142Y0116220D03*
X0164859Y0116339D03*
X0164883Y0101890D03*
D138*
X0158918Y0101890D03*
X0158918Y0101772D03*
X0158918Y0101693D03*
X0158918Y0102835D03*
X0158918Y0103110D03*
X0158918Y0103228D03*
X0156201Y0103228D03*
X0156201Y0103110D03*
X0156201Y0102835D03*
X0156201Y0101890D03*
X0156201Y0101772D03*
X0156201Y0101693D03*
X0156201Y0101417D03*
X0156201Y0101339D03*
X0156201Y0101220D03*
X0164800Y0116417D03*
X0164800Y0116693D03*
D139*
X0162142Y0116555D03*
X0162142Y0116083D03*
X0156260Y0101083D03*
D140*
X0156201Y0101555D03*
X0156201Y0102028D03*
X0156201Y0102972D03*
X0158918Y0102972D03*
X0158918Y0102028D03*
X0164800Y0116555D03*
D141*
X0164150Y0115827D03*
X0163886Y0111870D03*
X0163886Y0108091D03*
X0163477Y0122776D03*
X0163477Y0127224D03*
D142*
X0163477Y0127343D03*
X0163477Y0122657D03*
X0164150Y0115512D03*
X0163886Y0107894D03*
D143*
X0163886Y0107776D03*
X0163886Y0112224D03*
X0164150Y0115394D03*
D144*
X0161339Y0104843D03*
X0161339Y0100157D03*
D145*
X0161339Y0100276D03*
X0161339Y0104724D03*
D146*
X0161339Y0104626D03*
D147*
X0161339Y0104508D03*
D148*
X0161339Y0104370D03*
X0161339Y0100591D03*
D149*
X0161339Y0100709D03*
X0161339Y0104252D03*
D150*
X0161339Y0104154D03*
D151*
X0158386Y0104055D03*
X0163886Y0108327D03*
X0163477Y0122894D03*
D152*
X0167481Y0104055D03*
D153*
X0163229Y0103917D03*
X0161221Y0101083D03*
X0162823Y0109055D03*
X0164831Y0109055D03*
X0164831Y0109528D03*
X0164831Y0110000D03*
X0164831Y0110472D03*
D154*
X0168906Y0111417D03*
X0169430Y0103445D03*
X0169430Y0101555D03*
D155*
X0168662Y0101890D03*
X0168662Y0102835D03*
X0168662Y0103110D03*
D156*
X0168662Y0102972D03*
X0168662Y0102028D03*
D157*
X0169253Y0102500D03*
D158*
X0169194Y0102165D03*
X0168906Y0109390D03*
X0163418Y0126555D03*
D159*
X0165367Y0124528D03*
X0161052Y0109055D03*
X0161103Y0101555D03*
D160*
X0163170Y0101083D03*
X0162883Y0108583D03*
X0162883Y0110000D03*
X0162883Y0110472D03*
X0165190Y0123583D03*
X0164245Y0126417D03*
X0162591Y0126417D03*
D161*
X0165190Y0123445D03*
X0162764Y0109665D03*
X0162764Y0109390D03*
X0162883Y0108445D03*
X0161280Y0100945D03*
D162*
X0163229Y0100945D03*
X0164831Y0108445D03*
D163*
X0161339Y0100827D03*
D164*
X0161339Y0100512D03*
D165*
X0161339Y0100394D03*
D166*
X0163886Y0112126D03*
D167*
X0163886Y0112008D03*
D168*
X0163886Y0111752D03*
X0163886Y0108209D03*
D169*
X0163886Y0111654D03*
X0163477Y0127126D03*
D170*
X0168788Y0110217D03*
X0168788Y0109665D03*
D171*
X0168670Y0110000D03*
D172*
X0168670Y0109862D03*
D173*
X0168847Y0109528D03*
D174*
X0079938Y0092335D03*
X0075253Y0092335D03*
D175*
X0075371Y0092276D03*
X0079820Y0092276D03*
D176*
X0075469Y0092217D03*
D177*
X0075587Y0092157D03*
D178*
X0075725Y0092098D03*
X0079505Y0092098D03*
D179*
X0079386Y0092039D03*
X0075843Y0092039D03*
D180*
X0075942Y0091980D03*
D181*
X0076040Y0089146D03*
D182*
X0076040Y0097709D03*
X0156040Y0187228D03*
D183*
X0157123Y0188469D03*
X0158068Y0188469D03*
X0156178Y0184807D03*
X0158540Y0179374D03*
X0159012Y0179374D03*
X0166178Y0179346D03*
X0166650Y0179346D03*
X0169012Y0182417D03*
X0166650Y0184661D03*
X0166178Y0184780D03*
X0166650Y0188441D03*
X0167123Y0188441D03*
X0167595Y0188441D03*
X0168068Y0188441D03*
X0168540Y0188441D03*
X0167123Y0189504D03*
X0166650Y0189504D03*
X0167595Y0191866D03*
X0168068Y0191984D03*
X0158540Y0194256D03*
X0158068Y0194256D03*
X0157123Y0191776D03*
X0078540Y0096114D03*
X0076650Y0096114D03*
X0077123Y0093161D03*
X0077595Y0093161D03*
X0078068Y0093161D03*
X0079012Y0090209D03*
X0078540Y0090091D03*
X0076178Y0087492D03*
D184*
X0079012Y0091626D03*
X0076178Y0093634D03*
X0169012Y0178756D03*
X0158068Y0182445D03*
X0168540Y0184189D03*
X0166650Y0186551D03*
X0157123Y0190122D03*
X0156178Y0188823D03*
X0156650Y0186579D03*
X0167123Y0193638D03*
X0167123Y0195764D03*
X0167595Y0195764D03*
X0168068Y0195764D03*
X0159012Y0195791D03*
X0158540Y0195791D03*
X0158068Y0195791D03*
X0157595Y0195791D03*
X0157123Y0195791D03*
X0156650Y0195791D03*
X0156178Y0195791D03*
D185*
X0159012Y0194079D03*
X0169012Y0189681D03*
X0157123Y0184630D03*
X0158540Y0180969D03*
X0168540Y0180823D03*
X0178512Y0166012D03*
X0175678Y0164004D03*
X0175678Y0161996D03*
X0177095Y0161996D03*
X0177568Y0161996D03*
X0178040Y0161996D03*
X0178512Y0161996D03*
X0178512Y0160933D03*
X0178512Y0158571D03*
X0076178Y0095937D03*
X0076650Y0093339D03*
X0077595Y0089913D03*
X0077595Y0087197D03*
D186*
X0076178Y0099421D03*
X0079012Y0099421D03*
X0176623Y0159811D03*
X0177568Y0163591D03*
X0167595Y0176630D03*
X0166178Y0175567D03*
X0159012Y0176067D03*
X0156178Y0176067D03*
X0159012Y0180909D03*
X0157123Y0182681D03*
X0166178Y0180882D03*
X0169012Y0180882D03*
X0157595Y0190122D03*
X0156178Y0191539D03*
X0166650Y0195646D03*
X0168540Y0195646D03*
X0167595Y0193638D03*
D187*
X0167260Y0193579D03*
X0167260Y0191453D03*
X0167930Y0190035D03*
X0166512Y0186492D03*
X0168678Y0184130D03*
X0168757Y0184130D03*
X0167930Y0182358D03*
X0166512Y0183067D03*
X0166394Y0183067D03*
X0166316Y0180823D03*
X0158678Y0184276D03*
X0156867Y0182858D03*
X0156512Y0183094D03*
X0156394Y0183094D03*
X0156316Y0180969D03*
X0156512Y0186638D03*
X0159150Y0188882D03*
X0157260Y0190063D03*
X0157930Y0192307D03*
X0157260Y0193724D03*
X0159150Y0195732D03*
X0166867Y0195705D03*
X0166985Y0195705D03*
X0168205Y0195705D03*
X0168323Y0195705D03*
X0168402Y0195705D03*
X0177705Y0163650D03*
X0176485Y0159752D03*
X0078875Y0099362D03*
X0076316Y0099362D03*
X0079150Y0091685D03*
X0079150Y0084244D03*
X0078875Y0084244D03*
X0078757Y0084244D03*
X0078678Y0084244D03*
X0078402Y0084244D03*
X0078323Y0084244D03*
X0078205Y0084244D03*
X0077930Y0084244D03*
X0077812Y0084244D03*
X0077733Y0084244D03*
X0077457Y0084244D03*
X0077379Y0084244D03*
X0077260Y0084244D03*
X0076985Y0084244D03*
X0076867Y0084244D03*
X0076788Y0084244D03*
X0076512Y0084244D03*
X0076394Y0084244D03*
X0076316Y0084244D03*
D188*
X0076316Y0087433D03*
X0076394Y0087433D03*
X0076512Y0087433D03*
X0076512Y0090150D03*
X0076394Y0090150D03*
X0076316Y0090150D03*
X0077733Y0091213D03*
X0077812Y0091213D03*
X0078678Y0090150D03*
X0078757Y0090150D03*
X0078875Y0090150D03*
X0175540Y0161996D03*
X0166512Y0179287D03*
X0168875Y0182476D03*
X0166394Y0184720D03*
X0166316Y0184720D03*
X0167733Y0185783D03*
X0167812Y0185783D03*
X0167733Y0187319D03*
X0157812Y0188409D03*
X0157733Y0188409D03*
X0157457Y0188409D03*
X0157733Y0185811D03*
X0158875Y0182504D03*
X0158757Y0179315D03*
X0167812Y0191925D03*
D189*
X0166316Y0192161D03*
X0168205Y0184248D03*
X0168323Y0184248D03*
X0166394Y0180823D03*
X0158757Y0180969D03*
X0157812Y0179669D03*
X0157930Y0179551D03*
X0159150Y0178016D03*
X0156394Y0180969D03*
X0157930Y0184394D03*
X0166512Y0175744D03*
X0166394Y0175626D03*
X0176288Y0162232D03*
X0176367Y0162232D03*
X0176288Y0159752D03*
X0078678Y0099244D03*
X0076512Y0099244D03*
X0076985Y0094874D03*
X0076316Y0091685D03*
D190*
X0076394Y0091744D03*
X0076512Y0091744D03*
X0076316Y0093516D03*
X0078323Y0094933D03*
X0078875Y0091626D03*
X0077930Y0098594D03*
X0076788Y0099067D03*
X0178178Y0163827D03*
X0157457Y0179728D03*
X0157379Y0179728D03*
X0156512Y0180909D03*
X0158205Y0182445D03*
X0157812Y0184453D03*
X0157733Y0184453D03*
X0156788Y0186579D03*
X0156985Y0190122D03*
X0158323Y0190122D03*
X0158875Y0191539D03*
X0159150Y0194020D03*
X0166985Y0193638D03*
X0168323Y0193638D03*
X0168875Y0192102D03*
X0166788Y0186551D03*
X0167930Y0184307D03*
X0168205Y0182417D03*
X0168757Y0180882D03*
X0166512Y0180882D03*
D191*
X0166788Y0180882D03*
X0168402Y0180882D03*
X0166985Y0184543D03*
X0168205Y0185961D03*
X0168205Y0187142D03*
X0166316Y0189622D03*
X0167457Y0191748D03*
X0168678Y0192102D03*
X0168402Y0193638D03*
X0158875Y0194138D03*
X0156788Y0194138D03*
X0156316Y0194138D03*
X0156788Y0191657D03*
X0158205Y0191776D03*
X0158402Y0190122D03*
X0158678Y0188587D03*
X0158205Y0185988D03*
X0156867Y0184689D03*
X0156788Y0184689D03*
X0156788Y0180909D03*
X0156867Y0179492D03*
X0158402Y0179374D03*
X0159150Y0179374D03*
X0158402Y0180909D03*
X0178650Y0166071D03*
X0178650Y0163945D03*
X0178650Y0161937D03*
X0178650Y0158630D03*
X0078323Y0095996D03*
X0078402Y0094933D03*
X0078402Y0093280D03*
X0076788Y0093280D03*
X0078205Y0091390D03*
X0078323Y0091390D03*
X0076985Y0095996D03*
X0076316Y0095996D03*
D192*
X0076394Y0093457D03*
X0078875Y0093457D03*
X0078757Y0091567D03*
X0078678Y0091567D03*
X0079150Y0095937D03*
X0077812Y0098654D03*
X0077733Y0098654D03*
X0077457Y0098654D03*
X0077379Y0098654D03*
X0176012Y0159752D03*
X0176957Y0159280D03*
X0177233Y0159161D03*
X0177312Y0160461D03*
X0176012Y0162114D03*
X0178257Y0163886D03*
X0178375Y0163886D03*
X0158875Y0178016D03*
X0158757Y0178016D03*
X0157379Y0178016D03*
X0157260Y0178016D03*
X0156985Y0178016D03*
X0157260Y0179669D03*
X0158205Y0179433D03*
X0158678Y0180969D03*
X0158323Y0182504D03*
X0157457Y0184512D03*
X0156316Y0188764D03*
X0156394Y0191598D03*
X0157812Y0192071D03*
X0158205Y0192898D03*
X0157379Y0193961D03*
X0166394Y0192161D03*
X0167379Y0191689D03*
X0168205Y0190626D03*
X0167812Y0189799D03*
X0169150Y0189681D03*
X0167812Y0184366D03*
X0167733Y0184366D03*
X0168678Y0180823D03*
D193*
X0168323Y0180882D03*
X0166867Y0180882D03*
X0168678Y0182535D03*
X0168757Y0182535D03*
X0169150Y0182299D03*
X0166512Y0184661D03*
X0167930Y0185843D03*
X0167260Y0186551D03*
X0167812Y0187260D03*
X0167930Y0187260D03*
X0167930Y0188441D03*
X0167812Y0188441D03*
X0167733Y0188441D03*
X0167457Y0188441D03*
X0167379Y0188441D03*
X0167260Y0188441D03*
X0166985Y0188441D03*
X0166867Y0188441D03*
X0166788Y0188441D03*
X0166512Y0188441D03*
X0166394Y0188441D03*
X0166316Y0188441D03*
X0166788Y0189504D03*
X0166867Y0189504D03*
X0166985Y0189504D03*
X0167260Y0189504D03*
X0167379Y0189504D03*
X0168323Y0189504D03*
X0168402Y0189504D03*
X0168678Y0189504D03*
X0168757Y0189504D03*
X0168757Y0188441D03*
X0168678Y0188441D03*
X0168875Y0188441D03*
X0168402Y0188441D03*
X0168323Y0188441D03*
X0168205Y0188441D03*
X0158323Y0188469D03*
X0158205Y0188469D03*
X0157930Y0188469D03*
X0157379Y0188469D03*
X0157260Y0188469D03*
X0156985Y0188469D03*
X0157733Y0187406D03*
X0157812Y0187406D03*
X0157260Y0186579D03*
X0157812Y0185870D03*
X0157930Y0185870D03*
X0156394Y0184807D03*
X0156316Y0184807D03*
X0158678Y0182563D03*
X0158757Y0182563D03*
X0159150Y0182445D03*
X0158323Y0180909D03*
X0156867Y0180909D03*
X0156512Y0179256D03*
X0158678Y0179374D03*
X0157379Y0191776D03*
X0157260Y0191776D03*
X0157812Y0194256D03*
X0157930Y0194256D03*
X0158205Y0194256D03*
X0158323Y0194256D03*
X0158402Y0194256D03*
X0158678Y0194256D03*
X0167733Y0191866D03*
X0167930Y0191984D03*
X0168205Y0191984D03*
X0168323Y0191984D03*
X0078757Y0096114D03*
X0078678Y0096114D03*
X0076788Y0096114D03*
X0076512Y0096114D03*
X0076394Y0096114D03*
X0077260Y0093161D03*
X0077379Y0093161D03*
X0077457Y0093161D03*
X0077733Y0093161D03*
X0077812Y0093161D03*
X0077930Y0093161D03*
X0077457Y0092098D03*
X0077379Y0092098D03*
X0077930Y0091272D03*
X0076788Y0090091D03*
X0076788Y0087374D03*
D194*
X0076394Y0099303D03*
X0078757Y0099303D03*
X0176367Y0159811D03*
X0176485Y0162291D03*
X0177823Y0163709D03*
X0177902Y0163709D03*
X0166316Y0175567D03*
X0168678Y0178756D03*
X0168757Y0178756D03*
X0168875Y0178756D03*
X0168875Y0180882D03*
X0168402Y0184189D03*
X0158402Y0184335D03*
X0158323Y0184335D03*
X0158205Y0184335D03*
X0157930Y0182445D03*
X0158875Y0180909D03*
X0157733Y0179728D03*
X0158205Y0190122D03*
X0156316Y0191539D03*
X0156316Y0195791D03*
X0156394Y0195791D03*
X0156512Y0195791D03*
X0156788Y0195791D03*
X0156867Y0195791D03*
X0156985Y0195791D03*
X0157260Y0195791D03*
X0157379Y0195791D03*
X0157457Y0195791D03*
X0157733Y0195791D03*
X0157812Y0195791D03*
X0157930Y0195791D03*
X0158205Y0195791D03*
X0158323Y0195791D03*
X0158402Y0195791D03*
X0158678Y0195791D03*
X0158757Y0195791D03*
X0158875Y0195791D03*
X0167260Y0195764D03*
X0167379Y0195764D03*
X0167457Y0195764D03*
X0167733Y0195764D03*
X0167812Y0195764D03*
X0167930Y0195764D03*
X0168205Y0193638D03*
D195*
X0166867Y0193579D03*
X0166788Y0191925D03*
X0166867Y0190744D03*
X0167733Y0189681D03*
X0168402Y0190744D03*
X0168323Y0187083D03*
X0168323Y0186020D03*
X0166985Y0186492D03*
X0167260Y0184484D03*
X0167379Y0184484D03*
X0168402Y0182476D03*
X0158402Y0182504D03*
X0156985Y0184630D03*
X0158323Y0186047D03*
X0158323Y0187228D03*
X0158205Y0187228D03*
X0156985Y0186638D03*
X0156512Y0188646D03*
X0156867Y0190063D03*
X0157733Y0191953D03*
X0158678Y0191598D03*
X0158402Y0193016D03*
X0157457Y0194079D03*
X0156867Y0194079D03*
X0156867Y0193016D03*
X0158757Y0188646D03*
X0158323Y0179433D03*
X0156985Y0179551D03*
X0156316Y0179079D03*
X0158402Y0177898D03*
X0178375Y0166012D03*
X0178375Y0161996D03*
X0178257Y0161996D03*
X0178178Y0161996D03*
X0177902Y0161996D03*
X0177823Y0161996D03*
X0177705Y0161996D03*
X0177430Y0161996D03*
X0177312Y0161996D03*
X0177233Y0161996D03*
X0175816Y0159752D03*
X0078678Y0093339D03*
X0078402Y0091449D03*
X0076985Y0091921D03*
X0076867Y0091921D03*
X0076512Y0093339D03*
X0077457Y0089913D03*
X0077733Y0089913D03*
X0077812Y0089913D03*
X0077812Y0087197D03*
X0077733Y0087197D03*
X0077457Y0087197D03*
X0077379Y0087197D03*
D196*
X0076650Y0087433D03*
X0076650Y0090150D03*
X0077595Y0092157D03*
X0159012Y0182504D03*
X0157595Y0187465D03*
X0157595Y0188409D03*
X0168540Y0189445D03*
D197*
X0159012Y0188823D03*
X0168068Y0184307D03*
X0159012Y0178075D03*
X0158068Y0179492D03*
X0166650Y0175803D03*
X0176150Y0162173D03*
X0176150Y0159811D03*
X0078540Y0099185D03*
X0076650Y0099185D03*
D198*
X0076867Y0094933D03*
X0078757Y0093398D03*
X0076788Y0091862D03*
X0077379Y0089854D03*
X0077930Y0089854D03*
X0077930Y0087138D03*
X0175894Y0159811D03*
X0176957Y0160283D03*
X0177233Y0160402D03*
X0178178Y0160874D03*
X0178257Y0160874D03*
X0178375Y0160992D03*
X0177312Y0159102D03*
X0178178Y0158748D03*
X0178257Y0158630D03*
X0178375Y0158630D03*
X0175894Y0162055D03*
X0175816Y0162055D03*
X0175816Y0163945D03*
X0175894Y0163945D03*
X0176012Y0163945D03*
X0176288Y0163945D03*
X0176367Y0163945D03*
X0176485Y0163945D03*
X0176760Y0163945D03*
X0176879Y0163945D03*
X0176957Y0163945D03*
X0176957Y0166071D03*
X0176879Y0166071D03*
X0176760Y0166071D03*
X0176485Y0166071D03*
X0176367Y0166071D03*
X0176288Y0166071D03*
X0177233Y0166071D03*
X0177312Y0166071D03*
X0177430Y0166071D03*
X0177705Y0166071D03*
X0177823Y0166071D03*
X0177902Y0166071D03*
X0178178Y0166071D03*
X0178257Y0166071D03*
X0158678Y0177957D03*
X0157457Y0177957D03*
X0156867Y0177957D03*
X0157260Y0184571D03*
X0157379Y0184571D03*
X0156867Y0186579D03*
X0156394Y0188705D03*
X0158875Y0188705D03*
X0158757Y0191539D03*
X0158323Y0192957D03*
X0156512Y0191657D03*
X0166512Y0192102D03*
X0166867Y0191866D03*
X0168323Y0190685D03*
X0168757Y0192102D03*
X0166867Y0186551D03*
X0167457Y0184425D03*
X0168323Y0182417D03*
D199*
X0166040Y0183067D03*
X0167260Y0179051D03*
X0166867Y0176453D03*
X0168323Y0176453D03*
X0158678Y0175890D03*
X0156512Y0175890D03*
X0156040Y0180969D03*
X0156040Y0183094D03*
X0158402Y0186638D03*
X0158678Y0186638D03*
X0158757Y0186638D03*
X0158875Y0186638D03*
X0169150Y0192161D03*
X0168875Y0195469D03*
X0078402Y0089323D03*
X0078323Y0089323D03*
X0078205Y0089323D03*
X0077260Y0089323D03*
X0076985Y0089323D03*
X0076867Y0089323D03*
X0076867Y0086606D03*
X0076985Y0086606D03*
X0077260Y0086606D03*
X0078205Y0086606D03*
X0078323Y0086606D03*
X0078402Y0086606D03*
X0078678Y0086606D03*
X0078757Y0086606D03*
X0078875Y0086606D03*
D200*
X0079150Y0090150D03*
X0077260Y0092039D03*
X0076985Y0093220D03*
X0076867Y0093220D03*
X0078205Y0093220D03*
X0078323Y0093220D03*
X0078402Y0096055D03*
X0078875Y0096055D03*
X0076867Y0096055D03*
X0178650Y0160933D03*
X0156788Y0179433D03*
X0156394Y0179197D03*
X0156512Y0184748D03*
X0157930Y0187346D03*
X0158402Y0188528D03*
X0156867Y0188528D03*
X0156788Y0188528D03*
X0156867Y0191717D03*
X0156985Y0191717D03*
X0157457Y0191835D03*
X0158323Y0191717D03*
X0158402Y0191717D03*
X0156788Y0193016D03*
X0156512Y0194197D03*
X0156394Y0194197D03*
X0157733Y0194197D03*
X0158757Y0194197D03*
X0166788Y0190744D03*
X0166512Y0189563D03*
X0166394Y0189563D03*
X0167457Y0189563D03*
X0168205Y0189563D03*
X0168875Y0189563D03*
X0169150Y0188382D03*
X0166867Y0184602D03*
X0166788Y0184602D03*
X0168402Y0192043D03*
D201*
X0168875Y0176157D03*
X0157930Y0175594D03*
X0157812Y0175594D03*
X0157733Y0175594D03*
X0157457Y0175594D03*
X0157379Y0175594D03*
X0157260Y0175594D03*
X0078323Y0098240D03*
X0076867Y0098240D03*
D202*
X0076985Y0098181D03*
X0078205Y0098181D03*
X0177430Y0159752D03*
X0168757Y0176217D03*
X0156040Y0191480D03*
X0166040Y0192161D03*
D203*
X0168540Y0192102D03*
X0167595Y0189622D03*
X0167123Y0186551D03*
X0167123Y0184543D03*
X0158540Y0182563D03*
X0157123Y0186579D03*
X0158068Y0187287D03*
X0158540Y0188587D03*
X0156650Y0188587D03*
X0156650Y0191657D03*
X0157595Y0191894D03*
X0156650Y0194138D03*
X0175678Y0159811D03*
X0079012Y0095996D03*
X0078540Y0093280D03*
X0077123Y0091980D03*
D204*
X0077123Y0095228D03*
X0078068Y0095228D03*
X0168540Y0176335D03*
X0166178Y0195350D03*
D205*
X0167595Y0179228D03*
X0078068Y0098122D03*
X0077123Y0098122D03*
X0077595Y0095169D03*
D206*
X0077260Y0095228D03*
X0077260Y0098063D03*
X0079150Y0086606D03*
X0156788Y0175772D03*
X0158402Y0175772D03*
X0167457Y0179169D03*
X0167733Y0179169D03*
X0159150Y0186638D03*
D207*
X0169150Y0195291D03*
X0168678Y0176276D03*
X0158323Y0175713D03*
X0158205Y0175713D03*
X0156985Y0175713D03*
X0156867Y0175713D03*
X0077930Y0095169D03*
X0077812Y0095169D03*
X0077733Y0095169D03*
X0077457Y0095169D03*
X0077379Y0095169D03*
D208*
X0077595Y0091154D03*
X0157595Y0185752D03*
X0167595Y0185724D03*
X0167595Y0187378D03*
D209*
X0169150Y0186551D03*
X0167930Y0179110D03*
X0167812Y0179110D03*
X0167379Y0179110D03*
X0166788Y0176394D03*
X0168402Y0176394D03*
X0166316Y0195409D03*
X0078205Y0095287D03*
D210*
X0078402Y0098299D03*
X0177705Y0159752D03*
X0175540Y0166012D03*
X0166040Y0195114D03*
D211*
X0166650Y0191984D03*
X0166178Y0189622D03*
X0167595Y0184425D03*
X0166650Y0180882D03*
X0158540Y0177957D03*
X0157123Y0179610D03*
X0156650Y0180909D03*
X0156178Y0194020D03*
X0176623Y0166071D03*
X0177095Y0166071D03*
X0177568Y0166071D03*
X0178040Y0166071D03*
X0178512Y0163945D03*
X0177095Y0163945D03*
X0176623Y0163945D03*
X0176150Y0163945D03*
X0177095Y0159220D03*
X0078540Y0091508D03*
D212*
X0079012Y0086665D03*
X0156650Y0175831D03*
X0158540Y0175831D03*
X0156178Y0186579D03*
X0166178Y0186551D03*
X0169012Y0186551D03*
X0169012Y0195409D03*
D213*
X0158068Y0184394D03*
X0168068Y0182358D03*
X0157595Y0179787D03*
X0178040Y0163768D03*
X0079012Y0093575D03*
D214*
X0079150Y0093634D03*
X0176760Y0162409D03*
X0176879Y0162409D03*
X0167930Y0176630D03*
X0167812Y0176630D03*
X0167733Y0176630D03*
X0167457Y0176630D03*
X0167379Y0176630D03*
X0167260Y0176630D03*
X0166788Y0178874D03*
X0168402Y0178874D03*
X0167812Y0182299D03*
X0166867Y0182772D03*
X0166788Y0182890D03*
X0166316Y0183126D03*
X0168875Y0184071D03*
X0166394Y0186551D03*
X0158875Y0184217D03*
X0158757Y0184217D03*
X0157812Y0182445D03*
X0156985Y0182799D03*
X0156788Y0182917D03*
X0156316Y0183154D03*
X0156394Y0186579D03*
X0157379Y0190122D03*
X0157457Y0190122D03*
X0157733Y0190122D03*
X0157812Y0190122D03*
X0157930Y0190122D03*
X0167379Y0193638D03*
X0167457Y0193638D03*
X0167733Y0193638D03*
X0167812Y0193638D03*
X0167930Y0193638D03*
X0166788Y0195646D03*
X0159150Y0176185D03*
D215*
X0158757Y0175949D03*
X0156394Y0175949D03*
X0159150Y0180909D03*
X0157457Y0182445D03*
X0166040Y0180882D03*
X0167260Y0182535D03*
X0167457Y0182417D03*
X0167733Y0182299D03*
X0169150Y0180882D03*
X0168205Y0178992D03*
X0168205Y0176512D03*
X0166985Y0176512D03*
X0169150Y0184071D03*
X0168875Y0186551D03*
X0168757Y0186551D03*
X0168678Y0186551D03*
X0168402Y0186551D03*
X0166316Y0186551D03*
X0166985Y0191276D03*
X0159150Y0191539D03*
X0156985Y0193547D03*
X0156316Y0186579D03*
X0166394Y0195528D03*
X0168757Y0195528D03*
X0177233Y0163472D03*
X0176879Y0159811D03*
X0079150Y0099421D03*
D216*
X0079268Y0091980D03*
D217*
X0079583Y0092157D03*
D218*
X0079701Y0092217D03*
D219*
X0084603Y0090764D03*
X0090587Y0090764D03*
D220*
X0090430Y0090685D03*
X0084760Y0090685D03*
D221*
X0178040Y0159811D03*
X0175678Y0166071D03*
D222*
X0175816Y0166012D03*
X0175894Y0166012D03*
D223*
X0176012Y0166071D03*
D224*
X0177312Y0163531D03*
X0177430Y0163531D03*
X0176957Y0162469D03*
X0176760Y0159752D03*
X0158875Y0176008D03*
X0156316Y0176008D03*
X0157733Y0182386D03*
X0157379Y0182504D03*
X0157260Y0182622D03*
X0159150Y0184157D03*
X0166985Y0182713D03*
X0167379Y0182476D03*
X0166985Y0178933D03*
X0166867Y0178933D03*
X0168323Y0178933D03*
X0169150Y0178815D03*
X0168678Y0195587D03*
X0166512Y0195587D03*
D225*
X0157595Y0175594D03*
X0177568Y0159811D03*
D226*
X0177823Y0159811D03*
D227*
X0177902Y0159752D03*
X0169150Y0176098D03*
D228*
X0163477Y0127008D03*
D229*
X0163477Y0126870D03*
X0163477Y0123091D03*
D230*
X0163477Y0123209D03*
X0163477Y0126752D03*
D231*
X0163477Y0126654D03*
D232*
X0159284Y0126555D03*
D233*
X0167611Y0126555D03*
D234*
X0168851Y0126417D03*
X0169205Y0124528D03*
D235*
X0163477Y0123327D03*
D236*
X0163477Y0123012D03*
D237*
X0130745Y0191323D03*
X0130587Y0191323D03*
X0130430Y0191323D03*
X0130272Y0191323D03*
X0130115Y0191323D03*
X0129957Y0191323D03*
X0129800Y0191323D03*
X0125390Y0191323D03*
X0125233Y0191323D03*
X0125075Y0191323D03*
X0124918Y0191323D03*
X0124760Y0191323D03*
X0124603Y0191323D03*
X0124446Y0191323D03*
D238*
X0144446Y0192717D03*
X0150745Y0192717D03*
D239*
X0150587Y0192638D03*
X0144603Y0192638D03*
D240*
X0144760Y0192480D03*
X0150430Y0192480D03*
D241*
X0150272Y0192402D03*
X0144918Y0192402D03*
D242*
X0146020Y0191850D03*
D243*
X0146178Y0191772D03*
D244*
X0146493Y0191614D03*
D245*
X0150115Y0192323D03*
D246*
X0183792Y0174693D02*
X0183989Y0175008D01*
X0184343Y0175323D01*
X0184776Y0175598D01*
X0187556Y0175598D01*
X0187414Y0175677D02*
X0186666Y0175874D01*
X0185997Y0175913D01*
X0185367Y0175795D01*
X0184776Y0175598D01*
X0184317Y0175300D02*
X0188093Y0175300D01*
X0188123Y0175283D02*
X0187414Y0175677D01*
X0188123Y0175283D02*
X0188477Y0175008D01*
X0188792Y0174693D01*
X0189068Y0174378D01*
X0189304Y0173984D01*
X0189461Y0173591D01*
X0189579Y0173157D01*
X0189658Y0172685D01*
X0189658Y0171937D01*
X0189698Y0171701D01*
X0189934Y0171307D01*
X0190327Y0170913D01*
X0190879Y0170441D01*
X0191351Y0169969D01*
X0191587Y0169772D01*
X0191784Y0169575D01*
X0191981Y0169457D01*
X0192178Y0169260D01*
X0186784Y0169260D01*
X0186469Y0169299D01*
X0186194Y0169378D01*
X0185800Y0169614D01*
X0185642Y0169811D01*
X0185524Y0169969D01*
X0185446Y0170165D01*
X0185406Y0170362D01*
X0185367Y0170598D01*
X0185367Y0171071D01*
X0185446Y0171228D01*
X0185485Y0171189D01*
X0185564Y0171031D01*
X0185603Y0170913D01*
X0185839Y0170677D01*
X0185957Y0170638D01*
X0186115Y0170638D01*
X0186233Y0170677D01*
X0186351Y0170756D01*
X0186587Y0170992D01*
X0186666Y0171189D01*
X0186705Y0171386D01*
X0186705Y0171701D01*
X0186627Y0172016D01*
X0186469Y0172252D01*
X0186272Y0172409D01*
X0186036Y0172488D01*
X0185760Y0172488D01*
X0185446Y0172370D01*
X0185170Y0172094D01*
X0184816Y0171780D01*
X0184501Y0171504D01*
X0184146Y0171307D01*
X0183792Y0171228D01*
X0183477Y0171228D01*
X0183123Y0171346D01*
X0182808Y0171543D01*
X0182532Y0171898D01*
X0182296Y0172331D01*
X0182217Y0172764D01*
X0182217Y0173157D01*
X0182296Y0173512D01*
X0182572Y0174063D01*
X0182690Y0174220D01*
X0182729Y0174260D01*
X0182729Y0174220D01*
X0182690Y0174142D01*
X0182690Y0173906D01*
X0182729Y0173748D01*
X0182768Y0173551D01*
X0182847Y0173394D01*
X0182965Y0173236D01*
X0183083Y0173157D01*
X0183162Y0173118D01*
X0183280Y0173079D01*
X0183516Y0173079D01*
X0183674Y0173118D01*
X0183910Y0173276D01*
X0184146Y0173512D01*
X0184264Y0173669D01*
X0184343Y0173787D01*
X0184422Y0173945D01*
X0184501Y0174260D01*
X0184501Y0174378D01*
X0184461Y0174496D01*
X0184343Y0174614D01*
X0184264Y0174654D01*
X0184146Y0174693D01*
X0183792Y0174693D01*
X0183798Y0174703D02*
X0188782Y0174703D01*
X0189045Y0174404D02*
X0184492Y0174404D01*
X0184462Y0174106D02*
X0189231Y0174106D01*
X0189375Y0173807D02*
X0184353Y0173807D01*
X0184143Y0173509D02*
X0189484Y0173509D01*
X0189565Y0173210D02*
X0183812Y0173210D01*
X0183004Y0173210D02*
X0182229Y0173210D01*
X0182217Y0172912D02*
X0189620Y0172912D01*
X0189658Y0172613D02*
X0182245Y0172613D01*
X0182305Y0172315D02*
X0185390Y0172315D01*
X0185082Y0172016D02*
X0182467Y0172016D01*
X0182672Y0171718D02*
X0184745Y0171718D01*
X0184348Y0171419D02*
X0183006Y0171419D01*
X0182790Y0173509D02*
X0182295Y0173509D01*
X0182444Y0173807D02*
X0182714Y0173807D01*
X0182690Y0174106D02*
X0182604Y0174106D01*
X0183985Y0175001D02*
X0188484Y0175001D01*
X0186278Y0175897D02*
X0185908Y0175897D01*
X0186391Y0172315D02*
X0189658Y0172315D01*
X0189658Y0172016D02*
X0186626Y0172016D01*
X0186701Y0171718D02*
X0189695Y0171718D01*
X0189866Y0171419D02*
X0186705Y0171419D01*
X0186639Y0171121D02*
X0190120Y0171121D01*
X0190434Y0170822D02*
X0186417Y0170822D01*
X0185694Y0170822D02*
X0185367Y0170822D01*
X0185379Y0170524D02*
X0190782Y0170524D01*
X0191094Y0170225D02*
X0185434Y0170225D01*
X0185556Y0169927D02*
X0191401Y0169927D01*
X0191731Y0169628D02*
X0185789Y0169628D01*
X0186363Y0169330D02*
X0192108Y0169330D01*
X0185519Y0171121D02*
X0185392Y0171121D01*
D247*
X0159938Y0186402D03*
X0155253Y0186402D03*
D248*
X0155371Y0186343D03*
X0159820Y0186343D03*
D249*
X0155469Y0186224D03*
D250*
X0155587Y0186165D03*
D251*
X0155725Y0186106D03*
X0159505Y0186106D03*
D252*
X0155843Y0186047D03*
D253*
X0155942Y0179787D03*
D254*
X0155942Y0190476D03*
D255*
X0156040Y0177543D03*
D256*
X0156040Y0194846D03*
D257*
X0157123Y0193606D03*
X0158068Y0192425D03*
X0166178Y0192161D03*
X0167123Y0191335D03*
X0168068Y0190154D03*
X0169012Y0184130D03*
X0167123Y0182594D03*
X0166178Y0183067D03*
X0159012Y0184157D03*
X0156178Y0183094D03*
X0156178Y0180969D03*
X0167123Y0176571D03*
X0168068Y0176571D03*
D258*
X0167123Y0178992D03*
X0167595Y0182299D03*
X0157595Y0182327D03*
X0168540Y0186551D03*
D259*
X0159268Y0179079D03*
D260*
X0159268Y0189827D03*
X0159386Y0189827D03*
X0169268Y0189799D03*
D261*
X0159386Y0179256D03*
D262*
X0159583Y0186165D03*
D263*
X0159701Y0186224D03*
D264*
X0165253Y0185134D03*
X0169938Y0185134D03*
D265*
X0169820Y0185193D03*
X0165371Y0185193D03*
D266*
X0165469Y0185252D03*
D267*
X0165587Y0185311D03*
D268*
X0165725Y0185370D03*
X0169505Y0185370D03*
D269*
X0165843Y0185429D03*
D270*
X0165942Y0179287D03*
D271*
X0165942Y0190390D03*
D272*
X0166040Y0177161D03*
D273*
X0166040Y0187496D03*
D274*
X0169012Y0176098D03*
D275*
X0169268Y0178579D03*
D276*
X0169386Y0178638D03*
D277*
X0169386Y0189740D03*
D278*
X0169583Y0185311D03*
D279*
X0169701Y0185252D03*
M02*
