G75*
%MOIN*%
%OFA0B0*%
%FSLAX25Y25*%
%IPPOS*%
%LPD*%
%AMOC8*
5,1,8,0,0,1.08239X$1,22.5*
%
%ADD10C,0.00800*%
%ADD11C,0.00600*%
%ADD12C,0.01500*%
%ADD13C,0.01100*%
%ADD14C,0.01000*%
%ADD15C,0.00000*%
%ADD16C,0.00079*%
D10*
X0043342Y0028750D02*
X0043342Y0158750D01*
X0203342Y0158750D01*
X0205342Y0158750D02*
X0365342Y0158750D01*
X0205342Y0158750D02*
X0205342Y0028750D01*
X0205342Y0160750D02*
X0205342Y0290750D01*
X0365342Y0290750D01*
X0203342Y0290750D02*
X0043342Y0290750D01*
X0043342Y0160750D01*
D11*
X0203342Y0160750D01*
X0203342Y0290750D01*
X0365342Y0290750D02*
X0365342Y0160750D01*
X0205342Y0160750D01*
X0203342Y0158750D02*
X0203342Y0028750D01*
X0043342Y0028750D01*
X0205342Y0028750D02*
X0365342Y0028750D01*
X0365342Y0158750D01*
D12*
X0417342Y0159750D02*
X0016342Y0159750D01*
X0016342Y0027750D02*
X0417342Y0027750D01*
X0366342Y0001750D02*
X0366342Y0342750D01*
X0417342Y0291750D02*
X0016342Y0291750D01*
X0042342Y0342750D02*
X0042342Y0001750D01*
X0204342Y0001750D02*
X0204342Y0342750D01*
D13*
X0205563Y0348800D02*
X0206874Y0348800D01*
X0205563Y0348800D02*
X0205501Y0348802D01*
X0205440Y0348808D01*
X0205379Y0348817D01*
X0205319Y0348831D01*
X0205259Y0348848D01*
X0205201Y0348869D01*
X0205144Y0348894D01*
X0205089Y0348922D01*
X0205036Y0348953D01*
X0204985Y0348988D01*
X0204936Y0349026D01*
X0204890Y0349066D01*
X0204846Y0349110D01*
X0204806Y0349156D01*
X0204768Y0349205D01*
X0204733Y0349256D01*
X0204702Y0349309D01*
X0204674Y0349364D01*
X0204649Y0349421D01*
X0204628Y0349479D01*
X0204611Y0349539D01*
X0204597Y0349599D01*
X0204588Y0349660D01*
X0204582Y0349721D01*
X0204580Y0349783D01*
X0204580Y0351750D01*
X0204582Y0351812D01*
X0204588Y0351873D01*
X0204597Y0351934D01*
X0204611Y0351994D01*
X0204628Y0352054D01*
X0204649Y0352112D01*
X0204674Y0352169D01*
X0204702Y0352224D01*
X0204733Y0352277D01*
X0204768Y0352328D01*
X0204806Y0352377D01*
X0204846Y0352423D01*
X0204890Y0352467D01*
X0204936Y0352507D01*
X0204985Y0352545D01*
X0205036Y0352580D01*
X0205089Y0352611D01*
X0205144Y0352639D01*
X0205201Y0352664D01*
X0205259Y0352685D01*
X0205319Y0352702D01*
X0205379Y0352716D01*
X0205440Y0352725D01*
X0205501Y0352731D01*
X0205563Y0352733D01*
X0206874Y0352733D01*
X0209287Y0351422D02*
X0209287Y0350111D01*
X0209289Y0350040D01*
X0209295Y0349969D01*
X0209304Y0349899D01*
X0209318Y0349829D01*
X0209335Y0349760D01*
X0209356Y0349692D01*
X0209380Y0349626D01*
X0209408Y0349561D01*
X0209440Y0349497D01*
X0209475Y0349435D01*
X0209513Y0349375D01*
X0209554Y0349318D01*
X0209599Y0349262D01*
X0209646Y0349209D01*
X0209696Y0349159D01*
X0209749Y0349112D01*
X0209805Y0349067D01*
X0209862Y0349026D01*
X0209922Y0348988D01*
X0209984Y0348953D01*
X0210048Y0348921D01*
X0210113Y0348893D01*
X0210179Y0348869D01*
X0210247Y0348848D01*
X0210316Y0348831D01*
X0210386Y0348817D01*
X0210456Y0348808D01*
X0210527Y0348802D01*
X0210598Y0348800D01*
X0210669Y0348802D01*
X0210740Y0348808D01*
X0210810Y0348817D01*
X0210880Y0348831D01*
X0210949Y0348848D01*
X0211017Y0348869D01*
X0211083Y0348893D01*
X0211148Y0348921D01*
X0211212Y0348953D01*
X0211274Y0348988D01*
X0211334Y0349026D01*
X0211391Y0349067D01*
X0211447Y0349112D01*
X0211500Y0349159D01*
X0211550Y0349209D01*
X0211597Y0349262D01*
X0211642Y0349318D01*
X0211683Y0349375D01*
X0211721Y0349435D01*
X0211756Y0349497D01*
X0211788Y0349561D01*
X0211816Y0349626D01*
X0211840Y0349692D01*
X0211861Y0349760D01*
X0211878Y0349829D01*
X0211892Y0349899D01*
X0211901Y0349969D01*
X0211907Y0350040D01*
X0211909Y0350111D01*
X0211910Y0350111D02*
X0211910Y0351422D01*
X0211909Y0351422D02*
X0211907Y0351493D01*
X0211901Y0351564D01*
X0211892Y0351634D01*
X0211878Y0351704D01*
X0211861Y0351773D01*
X0211840Y0351841D01*
X0211816Y0351907D01*
X0211788Y0351972D01*
X0211756Y0352036D01*
X0211721Y0352098D01*
X0211683Y0352158D01*
X0211642Y0352215D01*
X0211597Y0352271D01*
X0211550Y0352324D01*
X0211500Y0352374D01*
X0211447Y0352421D01*
X0211391Y0352466D01*
X0211334Y0352507D01*
X0211274Y0352545D01*
X0211212Y0352580D01*
X0211148Y0352612D01*
X0211083Y0352640D01*
X0211017Y0352664D01*
X0210949Y0352685D01*
X0210880Y0352702D01*
X0210810Y0352716D01*
X0210740Y0352725D01*
X0210669Y0352731D01*
X0210598Y0352733D01*
X0210527Y0352731D01*
X0210456Y0352725D01*
X0210386Y0352716D01*
X0210316Y0352702D01*
X0210247Y0352685D01*
X0210179Y0352664D01*
X0210113Y0352640D01*
X0210048Y0352612D01*
X0209984Y0352580D01*
X0209922Y0352545D01*
X0209862Y0352507D01*
X0209805Y0352466D01*
X0209749Y0352421D01*
X0209696Y0352374D01*
X0209646Y0352324D01*
X0209599Y0352271D01*
X0209554Y0352215D01*
X0209513Y0352158D01*
X0209475Y0352098D01*
X0209440Y0352036D01*
X0209408Y0351972D01*
X0209380Y0351907D01*
X0209356Y0351841D01*
X0209335Y0351773D01*
X0209318Y0351704D01*
X0209304Y0351634D01*
X0209295Y0351564D01*
X0209289Y0351493D01*
X0209287Y0351422D01*
X0214876Y0352733D02*
X0214876Y0348800D01*
X0216843Y0352078D02*
X0216843Y0352733D01*
X0214876Y0352733D01*
X0218929Y0351422D02*
X0218929Y0349783D01*
X0218931Y0349721D01*
X0218937Y0349660D01*
X0218946Y0349599D01*
X0218960Y0349539D01*
X0218977Y0349479D01*
X0218998Y0349421D01*
X0219023Y0349364D01*
X0219051Y0349309D01*
X0219082Y0349256D01*
X0219117Y0349205D01*
X0219155Y0349156D01*
X0219195Y0349110D01*
X0219239Y0349066D01*
X0219285Y0349026D01*
X0219334Y0348988D01*
X0219385Y0348953D01*
X0219438Y0348922D01*
X0219493Y0348894D01*
X0219550Y0348869D01*
X0219608Y0348848D01*
X0219668Y0348831D01*
X0219728Y0348817D01*
X0219789Y0348808D01*
X0219850Y0348802D01*
X0219912Y0348800D01*
X0221551Y0348800D01*
X0221551Y0350767D02*
X0218929Y0350767D01*
X0218929Y0351422D02*
X0218931Y0351493D01*
X0218937Y0351564D01*
X0218946Y0351634D01*
X0218960Y0351704D01*
X0218977Y0351773D01*
X0218998Y0351841D01*
X0219022Y0351907D01*
X0219050Y0351972D01*
X0219082Y0352036D01*
X0219117Y0352098D01*
X0219155Y0352158D01*
X0219196Y0352215D01*
X0219241Y0352271D01*
X0219288Y0352324D01*
X0219338Y0352374D01*
X0219391Y0352421D01*
X0219447Y0352466D01*
X0219504Y0352507D01*
X0219564Y0352545D01*
X0219626Y0352580D01*
X0219690Y0352612D01*
X0219755Y0352640D01*
X0219821Y0352664D01*
X0219889Y0352685D01*
X0219958Y0352702D01*
X0220028Y0352716D01*
X0220098Y0352725D01*
X0220169Y0352731D01*
X0220240Y0352733D01*
X0220311Y0352731D01*
X0220382Y0352725D01*
X0220452Y0352716D01*
X0220522Y0352702D01*
X0220591Y0352685D01*
X0220659Y0352664D01*
X0220725Y0352640D01*
X0220790Y0352612D01*
X0220854Y0352580D01*
X0220916Y0352545D01*
X0220976Y0352507D01*
X0221033Y0352466D01*
X0221089Y0352421D01*
X0221142Y0352374D01*
X0221192Y0352324D01*
X0221239Y0352271D01*
X0221284Y0352215D01*
X0221325Y0352158D01*
X0221363Y0352098D01*
X0221398Y0352036D01*
X0221430Y0351972D01*
X0221458Y0351907D01*
X0221482Y0351841D01*
X0221503Y0351773D01*
X0221520Y0351704D01*
X0221534Y0351634D01*
X0221543Y0351564D01*
X0221549Y0351493D01*
X0221551Y0351422D01*
X0221551Y0350767D01*
X0201366Y0350439D02*
X0199727Y0351094D01*
X0199727Y0351095D02*
X0199675Y0351118D01*
X0199624Y0351145D01*
X0199575Y0351175D01*
X0199528Y0351208D01*
X0199483Y0351244D01*
X0199441Y0351284D01*
X0199402Y0351326D01*
X0199366Y0351370D01*
X0199333Y0351417D01*
X0199303Y0351467D01*
X0199276Y0351518D01*
X0199253Y0351570D01*
X0199234Y0351624D01*
X0199218Y0351680D01*
X0199206Y0351736D01*
X0199198Y0351793D01*
X0199194Y0351850D01*
X0199193Y0351908D01*
X0199197Y0351965D01*
X0199204Y0352022D01*
X0199216Y0352079D01*
X0199231Y0352134D01*
X0199249Y0352189D01*
X0199272Y0352242D01*
X0199298Y0352293D01*
X0199327Y0352342D01*
X0199360Y0352390D01*
X0199396Y0352435D01*
X0199434Y0352477D01*
X0199476Y0352517D01*
X0199520Y0352554D01*
X0199567Y0352588D01*
X0199615Y0352619D01*
X0199666Y0352646D01*
X0199718Y0352670D01*
X0199772Y0352690D01*
X0199827Y0352706D01*
X0199883Y0352719D01*
X0199940Y0352728D01*
X0199998Y0352733D01*
X0200055Y0352734D01*
X0199236Y0349128D02*
X0199370Y0349082D01*
X0199505Y0349039D01*
X0199641Y0349000D01*
X0199778Y0348964D01*
X0199915Y0348932D01*
X0200054Y0348903D01*
X0200193Y0348877D01*
X0200333Y0348856D01*
X0200474Y0348837D01*
X0200614Y0348823D01*
X0200756Y0348812D01*
X0200897Y0348804D01*
X0201039Y0348801D01*
X0201039Y0348800D02*
X0201096Y0348801D01*
X0201154Y0348806D01*
X0201211Y0348815D01*
X0201267Y0348828D01*
X0201322Y0348844D01*
X0201376Y0348864D01*
X0201428Y0348888D01*
X0201479Y0348915D01*
X0201527Y0348946D01*
X0201574Y0348980D01*
X0201618Y0349017D01*
X0201660Y0349057D01*
X0201698Y0349099D01*
X0201734Y0349144D01*
X0201767Y0349192D01*
X0201796Y0349241D01*
X0201822Y0349292D01*
X0201845Y0349345D01*
X0201863Y0349400D01*
X0201878Y0349455D01*
X0201890Y0349512D01*
X0201897Y0349569D01*
X0201901Y0349626D01*
X0201900Y0349684D01*
X0201896Y0349741D01*
X0201888Y0349798D01*
X0201876Y0349854D01*
X0201860Y0349910D01*
X0201841Y0349964D01*
X0201818Y0350016D01*
X0201791Y0350067D01*
X0201761Y0350117D01*
X0201728Y0350164D01*
X0201692Y0350208D01*
X0201653Y0350250D01*
X0201611Y0350290D01*
X0201566Y0350326D01*
X0201519Y0350359D01*
X0201470Y0350389D01*
X0201419Y0350416D01*
X0201367Y0350439D01*
X0201530Y0352405D02*
X0201423Y0352451D01*
X0201314Y0352494D01*
X0201204Y0352534D01*
X0201092Y0352570D01*
X0200980Y0352602D01*
X0200866Y0352631D01*
X0200752Y0352657D01*
X0200637Y0352678D01*
X0200522Y0352697D01*
X0200405Y0352711D01*
X0200289Y0352722D01*
X0200172Y0352729D01*
X0200055Y0352733D01*
X0196359Y0351094D02*
X0192426Y0351094D01*
X0189755Y0352733D02*
X0188444Y0348800D01*
X0187133Y0352733D01*
X0059551Y0351422D02*
X0059551Y0350767D01*
X0056929Y0350767D01*
X0056929Y0351422D02*
X0056929Y0349783D01*
X0056931Y0349721D01*
X0056937Y0349660D01*
X0056946Y0349599D01*
X0056960Y0349539D01*
X0056977Y0349479D01*
X0056998Y0349421D01*
X0057023Y0349364D01*
X0057051Y0349309D01*
X0057082Y0349256D01*
X0057117Y0349205D01*
X0057155Y0349156D01*
X0057195Y0349110D01*
X0057239Y0349066D01*
X0057285Y0349026D01*
X0057334Y0348988D01*
X0057385Y0348953D01*
X0057438Y0348922D01*
X0057493Y0348894D01*
X0057550Y0348869D01*
X0057608Y0348848D01*
X0057668Y0348831D01*
X0057728Y0348817D01*
X0057789Y0348808D01*
X0057850Y0348802D01*
X0057912Y0348800D01*
X0059551Y0348800D01*
X0059551Y0351422D02*
X0059549Y0351493D01*
X0059543Y0351564D01*
X0059534Y0351634D01*
X0059520Y0351704D01*
X0059503Y0351773D01*
X0059482Y0351841D01*
X0059458Y0351907D01*
X0059430Y0351972D01*
X0059398Y0352036D01*
X0059363Y0352098D01*
X0059325Y0352158D01*
X0059284Y0352215D01*
X0059239Y0352271D01*
X0059192Y0352324D01*
X0059142Y0352374D01*
X0059089Y0352421D01*
X0059033Y0352466D01*
X0058976Y0352507D01*
X0058916Y0352545D01*
X0058854Y0352580D01*
X0058790Y0352612D01*
X0058725Y0352640D01*
X0058659Y0352664D01*
X0058591Y0352685D01*
X0058522Y0352702D01*
X0058452Y0352716D01*
X0058382Y0352725D01*
X0058311Y0352731D01*
X0058240Y0352733D01*
X0058169Y0352731D01*
X0058098Y0352725D01*
X0058028Y0352716D01*
X0057958Y0352702D01*
X0057889Y0352685D01*
X0057821Y0352664D01*
X0057755Y0352640D01*
X0057690Y0352612D01*
X0057626Y0352580D01*
X0057564Y0352545D01*
X0057504Y0352507D01*
X0057447Y0352466D01*
X0057391Y0352421D01*
X0057338Y0352374D01*
X0057288Y0352324D01*
X0057241Y0352271D01*
X0057196Y0352215D01*
X0057155Y0352158D01*
X0057117Y0352098D01*
X0057082Y0352036D01*
X0057050Y0351972D01*
X0057022Y0351907D01*
X0056998Y0351841D01*
X0056977Y0351773D01*
X0056960Y0351704D01*
X0056946Y0351634D01*
X0056937Y0351564D01*
X0056931Y0351493D01*
X0056929Y0351422D01*
X0054843Y0352078D02*
X0054843Y0352733D01*
X0052876Y0352733D01*
X0052876Y0348800D01*
X0049910Y0350111D02*
X0049910Y0351422D01*
X0049909Y0351422D02*
X0049907Y0351493D01*
X0049901Y0351564D01*
X0049892Y0351634D01*
X0049878Y0351704D01*
X0049861Y0351773D01*
X0049840Y0351841D01*
X0049816Y0351907D01*
X0049788Y0351972D01*
X0049756Y0352036D01*
X0049721Y0352098D01*
X0049683Y0352158D01*
X0049642Y0352215D01*
X0049597Y0352271D01*
X0049550Y0352324D01*
X0049500Y0352374D01*
X0049447Y0352421D01*
X0049391Y0352466D01*
X0049334Y0352507D01*
X0049274Y0352545D01*
X0049212Y0352580D01*
X0049148Y0352612D01*
X0049083Y0352640D01*
X0049017Y0352664D01*
X0048949Y0352685D01*
X0048880Y0352702D01*
X0048810Y0352716D01*
X0048740Y0352725D01*
X0048669Y0352731D01*
X0048598Y0352733D01*
X0048527Y0352731D01*
X0048456Y0352725D01*
X0048386Y0352716D01*
X0048316Y0352702D01*
X0048247Y0352685D01*
X0048179Y0352664D01*
X0048113Y0352640D01*
X0048048Y0352612D01*
X0047984Y0352580D01*
X0047922Y0352545D01*
X0047862Y0352507D01*
X0047805Y0352466D01*
X0047749Y0352421D01*
X0047696Y0352374D01*
X0047646Y0352324D01*
X0047599Y0352271D01*
X0047554Y0352215D01*
X0047513Y0352158D01*
X0047475Y0352098D01*
X0047440Y0352036D01*
X0047408Y0351972D01*
X0047380Y0351907D01*
X0047356Y0351841D01*
X0047335Y0351773D01*
X0047318Y0351704D01*
X0047304Y0351634D01*
X0047295Y0351564D01*
X0047289Y0351493D01*
X0047287Y0351422D01*
X0047287Y0350111D01*
X0047289Y0350040D01*
X0047295Y0349969D01*
X0047304Y0349899D01*
X0047318Y0349829D01*
X0047335Y0349760D01*
X0047356Y0349692D01*
X0047380Y0349626D01*
X0047408Y0349561D01*
X0047440Y0349497D01*
X0047475Y0349435D01*
X0047513Y0349375D01*
X0047554Y0349318D01*
X0047599Y0349262D01*
X0047646Y0349209D01*
X0047696Y0349159D01*
X0047749Y0349112D01*
X0047805Y0349067D01*
X0047862Y0349026D01*
X0047922Y0348988D01*
X0047984Y0348953D01*
X0048048Y0348921D01*
X0048113Y0348893D01*
X0048179Y0348869D01*
X0048247Y0348848D01*
X0048316Y0348831D01*
X0048386Y0348817D01*
X0048456Y0348808D01*
X0048527Y0348802D01*
X0048598Y0348800D01*
X0048669Y0348802D01*
X0048740Y0348808D01*
X0048810Y0348817D01*
X0048880Y0348831D01*
X0048949Y0348848D01*
X0049017Y0348869D01*
X0049083Y0348893D01*
X0049148Y0348921D01*
X0049212Y0348953D01*
X0049274Y0348988D01*
X0049334Y0349026D01*
X0049391Y0349067D01*
X0049447Y0349112D01*
X0049500Y0349159D01*
X0049550Y0349209D01*
X0049597Y0349262D01*
X0049642Y0349318D01*
X0049683Y0349375D01*
X0049721Y0349435D01*
X0049756Y0349497D01*
X0049788Y0349561D01*
X0049816Y0349626D01*
X0049840Y0349692D01*
X0049861Y0349760D01*
X0049878Y0349829D01*
X0049892Y0349899D01*
X0049901Y0349969D01*
X0049907Y0350040D01*
X0049909Y0350111D01*
X0044874Y0348800D02*
X0043563Y0348800D01*
X0043501Y0348802D01*
X0043440Y0348808D01*
X0043379Y0348817D01*
X0043319Y0348831D01*
X0043259Y0348848D01*
X0043201Y0348869D01*
X0043144Y0348894D01*
X0043089Y0348922D01*
X0043036Y0348953D01*
X0042985Y0348988D01*
X0042936Y0349026D01*
X0042890Y0349066D01*
X0042846Y0349110D01*
X0042806Y0349156D01*
X0042768Y0349205D01*
X0042733Y0349256D01*
X0042702Y0349309D01*
X0042674Y0349364D01*
X0042649Y0349421D01*
X0042628Y0349479D01*
X0042611Y0349539D01*
X0042597Y0349599D01*
X0042588Y0349660D01*
X0042582Y0349721D01*
X0042580Y0349783D01*
X0042580Y0351750D01*
X0042582Y0351812D01*
X0042588Y0351873D01*
X0042597Y0351934D01*
X0042611Y0351994D01*
X0042628Y0352054D01*
X0042649Y0352112D01*
X0042674Y0352169D01*
X0042702Y0352224D01*
X0042733Y0352277D01*
X0042768Y0352328D01*
X0042806Y0352377D01*
X0042846Y0352423D01*
X0042890Y0352467D01*
X0042936Y0352507D01*
X0042985Y0352545D01*
X0043036Y0352580D01*
X0043089Y0352611D01*
X0043144Y0352639D01*
X0043201Y0352664D01*
X0043259Y0352685D01*
X0043319Y0352702D01*
X0043379Y0352716D01*
X0043440Y0352725D01*
X0043501Y0352731D01*
X0043563Y0352733D01*
X0044874Y0352733D01*
X0039366Y0350439D02*
X0037727Y0351094D01*
X0037727Y0351095D02*
X0037675Y0351118D01*
X0037624Y0351145D01*
X0037575Y0351175D01*
X0037528Y0351208D01*
X0037483Y0351244D01*
X0037441Y0351284D01*
X0037402Y0351326D01*
X0037366Y0351370D01*
X0037333Y0351417D01*
X0037303Y0351467D01*
X0037276Y0351518D01*
X0037253Y0351570D01*
X0037234Y0351624D01*
X0037218Y0351680D01*
X0037206Y0351736D01*
X0037198Y0351793D01*
X0037194Y0351850D01*
X0037193Y0351908D01*
X0037197Y0351965D01*
X0037204Y0352022D01*
X0037216Y0352079D01*
X0037231Y0352134D01*
X0037249Y0352189D01*
X0037272Y0352242D01*
X0037298Y0352293D01*
X0037327Y0352342D01*
X0037360Y0352390D01*
X0037396Y0352435D01*
X0037434Y0352477D01*
X0037476Y0352517D01*
X0037520Y0352554D01*
X0037567Y0352588D01*
X0037615Y0352619D01*
X0037666Y0352646D01*
X0037718Y0352670D01*
X0037772Y0352690D01*
X0037827Y0352706D01*
X0037883Y0352719D01*
X0037940Y0352728D01*
X0037998Y0352733D01*
X0038055Y0352734D01*
X0037236Y0349128D02*
X0037370Y0349082D01*
X0037505Y0349039D01*
X0037641Y0349000D01*
X0037778Y0348964D01*
X0037915Y0348932D01*
X0038054Y0348903D01*
X0038193Y0348877D01*
X0038333Y0348856D01*
X0038474Y0348837D01*
X0038614Y0348823D01*
X0038756Y0348812D01*
X0038897Y0348804D01*
X0039039Y0348801D01*
X0039039Y0348800D02*
X0039096Y0348801D01*
X0039154Y0348806D01*
X0039211Y0348815D01*
X0039267Y0348828D01*
X0039322Y0348844D01*
X0039376Y0348864D01*
X0039428Y0348888D01*
X0039479Y0348915D01*
X0039527Y0348946D01*
X0039574Y0348980D01*
X0039618Y0349017D01*
X0039660Y0349057D01*
X0039698Y0349099D01*
X0039734Y0349144D01*
X0039767Y0349192D01*
X0039796Y0349241D01*
X0039822Y0349292D01*
X0039845Y0349345D01*
X0039863Y0349400D01*
X0039878Y0349455D01*
X0039890Y0349512D01*
X0039897Y0349569D01*
X0039901Y0349626D01*
X0039900Y0349684D01*
X0039896Y0349741D01*
X0039888Y0349798D01*
X0039876Y0349854D01*
X0039860Y0349910D01*
X0039841Y0349964D01*
X0039818Y0350016D01*
X0039791Y0350067D01*
X0039761Y0350117D01*
X0039728Y0350164D01*
X0039692Y0350208D01*
X0039653Y0350250D01*
X0039611Y0350290D01*
X0039566Y0350326D01*
X0039519Y0350359D01*
X0039470Y0350389D01*
X0039419Y0350416D01*
X0039367Y0350439D01*
X0039530Y0352405D02*
X0039423Y0352451D01*
X0039314Y0352494D01*
X0039204Y0352534D01*
X0039092Y0352570D01*
X0038980Y0352602D01*
X0038866Y0352631D01*
X0038752Y0352657D01*
X0038637Y0352678D01*
X0038522Y0352697D01*
X0038405Y0352711D01*
X0038289Y0352722D01*
X0038172Y0352729D01*
X0038055Y0352733D01*
X0034359Y0351094D02*
X0030426Y0351094D01*
X0027755Y0352733D02*
X0026444Y0348800D01*
X0025133Y0352733D01*
X0349133Y0352733D02*
X0350444Y0348800D01*
X0351755Y0352733D01*
X0354426Y0351094D02*
X0358359Y0351094D01*
X0361727Y0351094D02*
X0363366Y0350439D01*
X0363367Y0350439D02*
X0363419Y0350416D01*
X0363470Y0350389D01*
X0363519Y0350359D01*
X0363566Y0350326D01*
X0363611Y0350290D01*
X0363653Y0350250D01*
X0363692Y0350208D01*
X0363728Y0350164D01*
X0363761Y0350117D01*
X0363791Y0350067D01*
X0363818Y0350016D01*
X0363841Y0349964D01*
X0363860Y0349910D01*
X0363876Y0349854D01*
X0363888Y0349798D01*
X0363896Y0349741D01*
X0363900Y0349684D01*
X0363901Y0349626D01*
X0363897Y0349569D01*
X0363890Y0349512D01*
X0363878Y0349455D01*
X0363863Y0349400D01*
X0363845Y0349345D01*
X0363822Y0349292D01*
X0363796Y0349241D01*
X0363767Y0349192D01*
X0363734Y0349144D01*
X0363698Y0349099D01*
X0363660Y0349057D01*
X0363618Y0349017D01*
X0363574Y0348980D01*
X0363527Y0348946D01*
X0363479Y0348915D01*
X0363428Y0348888D01*
X0363376Y0348864D01*
X0363322Y0348844D01*
X0363267Y0348828D01*
X0363211Y0348815D01*
X0363154Y0348806D01*
X0363096Y0348801D01*
X0363039Y0348800D01*
X0363530Y0352405D02*
X0363423Y0352451D01*
X0363314Y0352494D01*
X0363204Y0352534D01*
X0363092Y0352570D01*
X0362980Y0352602D01*
X0362866Y0352631D01*
X0362752Y0352657D01*
X0362637Y0352678D01*
X0362522Y0352697D01*
X0362405Y0352711D01*
X0362289Y0352722D01*
X0362172Y0352729D01*
X0362055Y0352733D01*
X0362055Y0352734D02*
X0361998Y0352733D01*
X0361940Y0352728D01*
X0361883Y0352719D01*
X0361827Y0352706D01*
X0361772Y0352690D01*
X0361718Y0352670D01*
X0361666Y0352646D01*
X0361615Y0352619D01*
X0361567Y0352588D01*
X0361520Y0352554D01*
X0361476Y0352517D01*
X0361434Y0352477D01*
X0361396Y0352435D01*
X0361360Y0352390D01*
X0361327Y0352342D01*
X0361298Y0352293D01*
X0361272Y0352242D01*
X0361249Y0352189D01*
X0361231Y0352134D01*
X0361216Y0352079D01*
X0361204Y0352022D01*
X0361197Y0351965D01*
X0361193Y0351908D01*
X0361194Y0351850D01*
X0361198Y0351793D01*
X0361206Y0351736D01*
X0361218Y0351680D01*
X0361234Y0351624D01*
X0361253Y0351570D01*
X0361276Y0351518D01*
X0361303Y0351467D01*
X0361333Y0351417D01*
X0361366Y0351370D01*
X0361402Y0351326D01*
X0361441Y0351284D01*
X0361483Y0351244D01*
X0361528Y0351208D01*
X0361575Y0351175D01*
X0361624Y0351145D01*
X0361675Y0351118D01*
X0361727Y0351095D01*
X0361236Y0349128D02*
X0361370Y0349082D01*
X0361505Y0349039D01*
X0361641Y0349000D01*
X0361778Y0348964D01*
X0361915Y0348932D01*
X0362054Y0348903D01*
X0362193Y0348877D01*
X0362333Y0348856D01*
X0362474Y0348837D01*
X0362614Y0348823D01*
X0362756Y0348812D01*
X0362897Y0348804D01*
X0363039Y0348801D01*
X0366580Y0349783D02*
X0366580Y0351750D01*
X0366582Y0351812D01*
X0366588Y0351873D01*
X0366597Y0351934D01*
X0366611Y0351994D01*
X0366628Y0352054D01*
X0366649Y0352112D01*
X0366674Y0352169D01*
X0366702Y0352224D01*
X0366733Y0352277D01*
X0366768Y0352328D01*
X0366806Y0352377D01*
X0366846Y0352423D01*
X0366890Y0352467D01*
X0366936Y0352507D01*
X0366985Y0352545D01*
X0367036Y0352580D01*
X0367089Y0352611D01*
X0367144Y0352639D01*
X0367201Y0352664D01*
X0367259Y0352685D01*
X0367319Y0352702D01*
X0367379Y0352716D01*
X0367440Y0352725D01*
X0367501Y0352731D01*
X0367563Y0352733D01*
X0368874Y0352733D01*
X0371287Y0351422D02*
X0371287Y0350111D01*
X0371289Y0350040D01*
X0371295Y0349969D01*
X0371304Y0349899D01*
X0371318Y0349829D01*
X0371335Y0349760D01*
X0371356Y0349692D01*
X0371380Y0349626D01*
X0371408Y0349561D01*
X0371440Y0349497D01*
X0371475Y0349435D01*
X0371513Y0349375D01*
X0371554Y0349318D01*
X0371599Y0349262D01*
X0371646Y0349209D01*
X0371696Y0349159D01*
X0371749Y0349112D01*
X0371805Y0349067D01*
X0371862Y0349026D01*
X0371922Y0348988D01*
X0371984Y0348953D01*
X0372048Y0348921D01*
X0372113Y0348893D01*
X0372179Y0348869D01*
X0372247Y0348848D01*
X0372316Y0348831D01*
X0372386Y0348817D01*
X0372456Y0348808D01*
X0372527Y0348802D01*
X0372598Y0348800D01*
X0372669Y0348802D01*
X0372740Y0348808D01*
X0372810Y0348817D01*
X0372880Y0348831D01*
X0372949Y0348848D01*
X0373017Y0348869D01*
X0373083Y0348893D01*
X0373148Y0348921D01*
X0373212Y0348953D01*
X0373274Y0348988D01*
X0373334Y0349026D01*
X0373391Y0349067D01*
X0373447Y0349112D01*
X0373500Y0349159D01*
X0373550Y0349209D01*
X0373597Y0349262D01*
X0373642Y0349318D01*
X0373683Y0349375D01*
X0373721Y0349435D01*
X0373756Y0349497D01*
X0373788Y0349561D01*
X0373816Y0349626D01*
X0373840Y0349692D01*
X0373861Y0349760D01*
X0373878Y0349829D01*
X0373892Y0349899D01*
X0373901Y0349969D01*
X0373907Y0350040D01*
X0373909Y0350111D01*
X0373910Y0350111D02*
X0373910Y0351422D01*
X0373909Y0351422D02*
X0373907Y0351493D01*
X0373901Y0351564D01*
X0373892Y0351634D01*
X0373878Y0351704D01*
X0373861Y0351773D01*
X0373840Y0351841D01*
X0373816Y0351907D01*
X0373788Y0351972D01*
X0373756Y0352036D01*
X0373721Y0352098D01*
X0373683Y0352158D01*
X0373642Y0352215D01*
X0373597Y0352271D01*
X0373550Y0352324D01*
X0373500Y0352374D01*
X0373447Y0352421D01*
X0373391Y0352466D01*
X0373334Y0352507D01*
X0373274Y0352545D01*
X0373212Y0352580D01*
X0373148Y0352612D01*
X0373083Y0352640D01*
X0373017Y0352664D01*
X0372949Y0352685D01*
X0372880Y0352702D01*
X0372810Y0352716D01*
X0372740Y0352725D01*
X0372669Y0352731D01*
X0372598Y0352733D01*
X0372527Y0352731D01*
X0372456Y0352725D01*
X0372386Y0352716D01*
X0372316Y0352702D01*
X0372247Y0352685D01*
X0372179Y0352664D01*
X0372113Y0352640D01*
X0372048Y0352612D01*
X0371984Y0352580D01*
X0371922Y0352545D01*
X0371862Y0352507D01*
X0371805Y0352466D01*
X0371749Y0352421D01*
X0371696Y0352374D01*
X0371646Y0352324D01*
X0371599Y0352271D01*
X0371554Y0352215D01*
X0371513Y0352158D01*
X0371475Y0352098D01*
X0371440Y0352036D01*
X0371408Y0351972D01*
X0371380Y0351907D01*
X0371356Y0351841D01*
X0371335Y0351773D01*
X0371318Y0351704D01*
X0371304Y0351634D01*
X0371295Y0351564D01*
X0371289Y0351493D01*
X0371287Y0351422D01*
X0368874Y0348800D02*
X0367563Y0348800D01*
X0367501Y0348802D01*
X0367440Y0348808D01*
X0367379Y0348817D01*
X0367319Y0348831D01*
X0367259Y0348848D01*
X0367201Y0348869D01*
X0367144Y0348894D01*
X0367089Y0348922D01*
X0367036Y0348953D01*
X0366985Y0348988D01*
X0366936Y0349026D01*
X0366890Y0349066D01*
X0366846Y0349110D01*
X0366806Y0349156D01*
X0366768Y0349205D01*
X0366733Y0349256D01*
X0366702Y0349309D01*
X0366674Y0349364D01*
X0366649Y0349421D01*
X0366628Y0349479D01*
X0366611Y0349539D01*
X0366597Y0349599D01*
X0366588Y0349660D01*
X0366582Y0349721D01*
X0366580Y0349783D01*
X0376876Y0348800D02*
X0376876Y0352733D01*
X0378843Y0352733D01*
X0378843Y0352078D01*
X0380929Y0351422D02*
X0380929Y0349783D01*
X0380931Y0349721D01*
X0380937Y0349660D01*
X0380946Y0349599D01*
X0380960Y0349539D01*
X0380977Y0349479D01*
X0380998Y0349421D01*
X0381023Y0349364D01*
X0381051Y0349309D01*
X0381082Y0349256D01*
X0381117Y0349205D01*
X0381155Y0349156D01*
X0381195Y0349110D01*
X0381239Y0349066D01*
X0381285Y0349026D01*
X0381334Y0348988D01*
X0381385Y0348953D01*
X0381438Y0348922D01*
X0381493Y0348894D01*
X0381550Y0348869D01*
X0381608Y0348848D01*
X0381668Y0348831D01*
X0381728Y0348817D01*
X0381789Y0348808D01*
X0381850Y0348802D01*
X0381912Y0348800D01*
X0383551Y0348800D01*
X0383551Y0350767D02*
X0380929Y0350767D01*
X0380929Y0351422D02*
X0380931Y0351493D01*
X0380937Y0351564D01*
X0380946Y0351634D01*
X0380960Y0351704D01*
X0380977Y0351773D01*
X0380998Y0351841D01*
X0381022Y0351907D01*
X0381050Y0351972D01*
X0381082Y0352036D01*
X0381117Y0352098D01*
X0381155Y0352158D01*
X0381196Y0352215D01*
X0381241Y0352271D01*
X0381288Y0352324D01*
X0381338Y0352374D01*
X0381391Y0352421D01*
X0381447Y0352466D01*
X0381504Y0352507D01*
X0381564Y0352545D01*
X0381626Y0352580D01*
X0381690Y0352612D01*
X0381755Y0352640D01*
X0381821Y0352664D01*
X0381889Y0352685D01*
X0381958Y0352702D01*
X0382028Y0352716D01*
X0382098Y0352725D01*
X0382169Y0352731D01*
X0382240Y0352733D01*
X0382311Y0352731D01*
X0382382Y0352725D01*
X0382452Y0352716D01*
X0382522Y0352702D01*
X0382591Y0352685D01*
X0382659Y0352664D01*
X0382725Y0352640D01*
X0382790Y0352612D01*
X0382854Y0352580D01*
X0382916Y0352545D01*
X0382976Y0352507D01*
X0383033Y0352466D01*
X0383089Y0352421D01*
X0383142Y0352374D01*
X0383192Y0352324D01*
X0383239Y0352271D01*
X0383284Y0352215D01*
X0383325Y0352158D01*
X0383363Y0352098D01*
X0383398Y0352036D01*
X0383430Y0351972D01*
X0383458Y0351907D01*
X0383482Y0351841D01*
X0383503Y0351773D01*
X0383520Y0351704D01*
X0383534Y0351634D01*
X0383543Y0351564D01*
X0383549Y0351493D01*
X0383551Y0351422D01*
X0383551Y0350767D01*
X0430133Y0292733D02*
X0431444Y0288800D01*
X0432755Y0292733D01*
X0435426Y0291094D02*
X0439359Y0291094D01*
X0442727Y0291094D02*
X0444366Y0290439D01*
X0444367Y0290439D02*
X0444419Y0290416D01*
X0444470Y0290389D01*
X0444519Y0290359D01*
X0444566Y0290326D01*
X0444611Y0290290D01*
X0444653Y0290250D01*
X0444692Y0290208D01*
X0444728Y0290164D01*
X0444761Y0290117D01*
X0444791Y0290067D01*
X0444818Y0290016D01*
X0444841Y0289964D01*
X0444860Y0289910D01*
X0444876Y0289854D01*
X0444888Y0289798D01*
X0444896Y0289741D01*
X0444900Y0289684D01*
X0444901Y0289626D01*
X0444897Y0289569D01*
X0444890Y0289512D01*
X0444878Y0289455D01*
X0444863Y0289400D01*
X0444845Y0289345D01*
X0444822Y0289292D01*
X0444796Y0289241D01*
X0444767Y0289192D01*
X0444734Y0289144D01*
X0444698Y0289099D01*
X0444660Y0289057D01*
X0444618Y0289017D01*
X0444574Y0288980D01*
X0444527Y0288946D01*
X0444479Y0288915D01*
X0444428Y0288888D01*
X0444376Y0288864D01*
X0444322Y0288844D01*
X0444267Y0288828D01*
X0444211Y0288815D01*
X0444154Y0288806D01*
X0444096Y0288801D01*
X0444039Y0288800D01*
X0444530Y0292405D02*
X0444423Y0292451D01*
X0444314Y0292494D01*
X0444204Y0292534D01*
X0444092Y0292570D01*
X0443980Y0292602D01*
X0443866Y0292631D01*
X0443752Y0292657D01*
X0443637Y0292678D01*
X0443522Y0292697D01*
X0443405Y0292711D01*
X0443289Y0292722D01*
X0443172Y0292729D01*
X0443055Y0292733D01*
X0443055Y0292734D02*
X0442998Y0292733D01*
X0442940Y0292728D01*
X0442883Y0292719D01*
X0442827Y0292706D01*
X0442772Y0292690D01*
X0442718Y0292670D01*
X0442666Y0292646D01*
X0442615Y0292619D01*
X0442567Y0292588D01*
X0442520Y0292554D01*
X0442476Y0292517D01*
X0442434Y0292477D01*
X0442396Y0292435D01*
X0442360Y0292390D01*
X0442327Y0292342D01*
X0442298Y0292293D01*
X0442272Y0292242D01*
X0442249Y0292189D01*
X0442231Y0292134D01*
X0442216Y0292079D01*
X0442204Y0292022D01*
X0442197Y0291965D01*
X0442193Y0291908D01*
X0442194Y0291850D01*
X0442198Y0291793D01*
X0442206Y0291736D01*
X0442218Y0291680D01*
X0442234Y0291624D01*
X0442253Y0291570D01*
X0442276Y0291518D01*
X0442303Y0291467D01*
X0442333Y0291417D01*
X0442366Y0291370D01*
X0442402Y0291326D01*
X0442441Y0291284D01*
X0442483Y0291244D01*
X0442528Y0291208D01*
X0442575Y0291175D01*
X0442624Y0291145D01*
X0442675Y0291118D01*
X0442727Y0291095D01*
X0442236Y0289128D02*
X0442370Y0289082D01*
X0442505Y0289039D01*
X0442641Y0289000D01*
X0442778Y0288964D01*
X0442915Y0288932D01*
X0443054Y0288903D01*
X0443193Y0288877D01*
X0443333Y0288856D01*
X0443474Y0288837D01*
X0443614Y0288823D01*
X0443756Y0288812D01*
X0443897Y0288804D01*
X0444039Y0288801D01*
X0447580Y0289783D02*
X0447580Y0291750D01*
X0447582Y0291812D01*
X0447588Y0291873D01*
X0447597Y0291934D01*
X0447611Y0291994D01*
X0447628Y0292054D01*
X0447649Y0292112D01*
X0447674Y0292169D01*
X0447702Y0292224D01*
X0447733Y0292277D01*
X0447768Y0292328D01*
X0447806Y0292377D01*
X0447846Y0292423D01*
X0447890Y0292467D01*
X0447936Y0292507D01*
X0447985Y0292545D01*
X0448036Y0292580D01*
X0448089Y0292611D01*
X0448144Y0292639D01*
X0448201Y0292664D01*
X0448259Y0292685D01*
X0448319Y0292702D01*
X0448379Y0292716D01*
X0448440Y0292725D01*
X0448501Y0292731D01*
X0448563Y0292733D01*
X0449874Y0292733D01*
X0452287Y0291422D02*
X0452287Y0290111D01*
X0452289Y0290040D01*
X0452295Y0289969D01*
X0452304Y0289899D01*
X0452318Y0289829D01*
X0452335Y0289760D01*
X0452356Y0289692D01*
X0452380Y0289626D01*
X0452408Y0289561D01*
X0452440Y0289497D01*
X0452475Y0289435D01*
X0452513Y0289375D01*
X0452554Y0289318D01*
X0452599Y0289262D01*
X0452646Y0289209D01*
X0452696Y0289159D01*
X0452749Y0289112D01*
X0452805Y0289067D01*
X0452862Y0289026D01*
X0452922Y0288988D01*
X0452984Y0288953D01*
X0453048Y0288921D01*
X0453113Y0288893D01*
X0453179Y0288869D01*
X0453247Y0288848D01*
X0453316Y0288831D01*
X0453386Y0288817D01*
X0453456Y0288808D01*
X0453527Y0288802D01*
X0453598Y0288800D01*
X0453669Y0288802D01*
X0453740Y0288808D01*
X0453810Y0288817D01*
X0453880Y0288831D01*
X0453949Y0288848D01*
X0454017Y0288869D01*
X0454083Y0288893D01*
X0454148Y0288921D01*
X0454212Y0288953D01*
X0454274Y0288988D01*
X0454334Y0289026D01*
X0454391Y0289067D01*
X0454447Y0289112D01*
X0454500Y0289159D01*
X0454550Y0289209D01*
X0454597Y0289262D01*
X0454642Y0289318D01*
X0454683Y0289375D01*
X0454721Y0289435D01*
X0454756Y0289497D01*
X0454788Y0289561D01*
X0454816Y0289626D01*
X0454840Y0289692D01*
X0454861Y0289760D01*
X0454878Y0289829D01*
X0454892Y0289899D01*
X0454901Y0289969D01*
X0454907Y0290040D01*
X0454909Y0290111D01*
X0454910Y0290111D02*
X0454910Y0291422D01*
X0454909Y0291422D02*
X0454907Y0291493D01*
X0454901Y0291564D01*
X0454892Y0291634D01*
X0454878Y0291704D01*
X0454861Y0291773D01*
X0454840Y0291841D01*
X0454816Y0291907D01*
X0454788Y0291972D01*
X0454756Y0292036D01*
X0454721Y0292098D01*
X0454683Y0292158D01*
X0454642Y0292215D01*
X0454597Y0292271D01*
X0454550Y0292324D01*
X0454500Y0292374D01*
X0454447Y0292421D01*
X0454391Y0292466D01*
X0454334Y0292507D01*
X0454274Y0292545D01*
X0454212Y0292580D01*
X0454148Y0292612D01*
X0454083Y0292640D01*
X0454017Y0292664D01*
X0453949Y0292685D01*
X0453880Y0292702D01*
X0453810Y0292716D01*
X0453740Y0292725D01*
X0453669Y0292731D01*
X0453598Y0292733D01*
X0453527Y0292731D01*
X0453456Y0292725D01*
X0453386Y0292716D01*
X0453316Y0292702D01*
X0453247Y0292685D01*
X0453179Y0292664D01*
X0453113Y0292640D01*
X0453048Y0292612D01*
X0452984Y0292580D01*
X0452922Y0292545D01*
X0452862Y0292507D01*
X0452805Y0292466D01*
X0452749Y0292421D01*
X0452696Y0292374D01*
X0452646Y0292324D01*
X0452599Y0292271D01*
X0452554Y0292215D01*
X0452513Y0292158D01*
X0452475Y0292098D01*
X0452440Y0292036D01*
X0452408Y0291972D01*
X0452380Y0291907D01*
X0452356Y0291841D01*
X0452335Y0291773D01*
X0452318Y0291704D01*
X0452304Y0291634D01*
X0452295Y0291564D01*
X0452289Y0291493D01*
X0452287Y0291422D01*
X0449874Y0288800D02*
X0448563Y0288800D01*
X0448501Y0288802D01*
X0448440Y0288808D01*
X0448379Y0288817D01*
X0448319Y0288831D01*
X0448259Y0288848D01*
X0448201Y0288869D01*
X0448144Y0288894D01*
X0448089Y0288922D01*
X0448036Y0288953D01*
X0447985Y0288988D01*
X0447936Y0289026D01*
X0447890Y0289066D01*
X0447846Y0289110D01*
X0447806Y0289156D01*
X0447768Y0289205D01*
X0447733Y0289256D01*
X0447702Y0289309D01*
X0447674Y0289364D01*
X0447649Y0289421D01*
X0447628Y0289479D01*
X0447611Y0289539D01*
X0447597Y0289599D01*
X0447588Y0289660D01*
X0447582Y0289721D01*
X0447580Y0289783D01*
X0457876Y0288800D02*
X0457876Y0292733D01*
X0459843Y0292733D01*
X0459843Y0292078D01*
X0461929Y0291422D02*
X0461929Y0289783D01*
X0461931Y0289721D01*
X0461937Y0289660D01*
X0461946Y0289599D01*
X0461960Y0289539D01*
X0461977Y0289479D01*
X0461998Y0289421D01*
X0462023Y0289364D01*
X0462051Y0289309D01*
X0462082Y0289256D01*
X0462117Y0289205D01*
X0462155Y0289156D01*
X0462195Y0289110D01*
X0462239Y0289066D01*
X0462285Y0289026D01*
X0462334Y0288988D01*
X0462385Y0288953D01*
X0462438Y0288922D01*
X0462493Y0288894D01*
X0462550Y0288869D01*
X0462608Y0288848D01*
X0462668Y0288831D01*
X0462728Y0288817D01*
X0462789Y0288808D01*
X0462850Y0288802D01*
X0462912Y0288800D01*
X0464551Y0288800D01*
X0464551Y0290767D02*
X0461929Y0290767D01*
X0461929Y0291422D02*
X0461931Y0291493D01*
X0461937Y0291564D01*
X0461946Y0291634D01*
X0461960Y0291704D01*
X0461977Y0291773D01*
X0461998Y0291841D01*
X0462022Y0291907D01*
X0462050Y0291972D01*
X0462082Y0292036D01*
X0462117Y0292098D01*
X0462155Y0292158D01*
X0462196Y0292215D01*
X0462241Y0292271D01*
X0462288Y0292324D01*
X0462338Y0292374D01*
X0462391Y0292421D01*
X0462447Y0292466D01*
X0462504Y0292507D01*
X0462564Y0292545D01*
X0462626Y0292580D01*
X0462690Y0292612D01*
X0462755Y0292640D01*
X0462821Y0292664D01*
X0462889Y0292685D01*
X0462958Y0292702D01*
X0463028Y0292716D01*
X0463098Y0292725D01*
X0463169Y0292731D01*
X0463240Y0292733D01*
X0463311Y0292731D01*
X0463382Y0292725D01*
X0463452Y0292716D01*
X0463522Y0292702D01*
X0463591Y0292685D01*
X0463659Y0292664D01*
X0463725Y0292640D01*
X0463790Y0292612D01*
X0463854Y0292580D01*
X0463916Y0292545D01*
X0463976Y0292507D01*
X0464033Y0292466D01*
X0464089Y0292421D01*
X0464142Y0292374D01*
X0464192Y0292324D01*
X0464239Y0292271D01*
X0464284Y0292215D01*
X0464325Y0292158D01*
X0464363Y0292098D01*
X0464398Y0292036D01*
X0464430Y0291972D01*
X0464458Y0291907D01*
X0464482Y0291841D01*
X0464503Y0291773D01*
X0464520Y0291704D01*
X0464534Y0291634D01*
X0464543Y0291564D01*
X0464549Y0291493D01*
X0464551Y0291422D01*
X0464551Y0290767D01*
X0442236Y0157128D02*
X0442370Y0157082D01*
X0442505Y0157039D01*
X0442641Y0157000D01*
X0442778Y0156964D01*
X0442915Y0156932D01*
X0443054Y0156903D01*
X0443193Y0156877D01*
X0443333Y0156856D01*
X0443474Y0156837D01*
X0443614Y0156823D01*
X0443756Y0156812D01*
X0443897Y0156804D01*
X0444039Y0156801D01*
X0444039Y0156800D02*
X0444096Y0156801D01*
X0444154Y0156806D01*
X0444211Y0156815D01*
X0444267Y0156828D01*
X0444322Y0156844D01*
X0444376Y0156864D01*
X0444428Y0156888D01*
X0444479Y0156915D01*
X0444527Y0156946D01*
X0444574Y0156980D01*
X0444618Y0157017D01*
X0444660Y0157057D01*
X0444698Y0157099D01*
X0444734Y0157144D01*
X0444767Y0157192D01*
X0444796Y0157241D01*
X0444822Y0157292D01*
X0444845Y0157345D01*
X0444863Y0157400D01*
X0444878Y0157455D01*
X0444890Y0157512D01*
X0444897Y0157569D01*
X0444901Y0157626D01*
X0444900Y0157684D01*
X0444896Y0157741D01*
X0444888Y0157798D01*
X0444876Y0157854D01*
X0444860Y0157910D01*
X0444841Y0157964D01*
X0444818Y0158016D01*
X0444791Y0158067D01*
X0444761Y0158117D01*
X0444728Y0158164D01*
X0444692Y0158208D01*
X0444653Y0158250D01*
X0444611Y0158290D01*
X0444566Y0158326D01*
X0444519Y0158359D01*
X0444470Y0158389D01*
X0444419Y0158416D01*
X0444367Y0158439D01*
X0444366Y0158439D02*
X0442727Y0159094D01*
X0442727Y0159095D02*
X0442675Y0159118D01*
X0442624Y0159145D01*
X0442575Y0159175D01*
X0442528Y0159208D01*
X0442483Y0159244D01*
X0442441Y0159284D01*
X0442402Y0159326D01*
X0442366Y0159370D01*
X0442333Y0159417D01*
X0442303Y0159467D01*
X0442276Y0159518D01*
X0442253Y0159570D01*
X0442234Y0159624D01*
X0442218Y0159680D01*
X0442206Y0159736D01*
X0442198Y0159793D01*
X0442194Y0159850D01*
X0442193Y0159908D01*
X0442197Y0159965D01*
X0442204Y0160022D01*
X0442216Y0160079D01*
X0442231Y0160134D01*
X0442249Y0160189D01*
X0442272Y0160242D01*
X0442298Y0160293D01*
X0442327Y0160342D01*
X0442360Y0160390D01*
X0442396Y0160435D01*
X0442434Y0160477D01*
X0442476Y0160517D01*
X0442520Y0160554D01*
X0442567Y0160588D01*
X0442615Y0160619D01*
X0442666Y0160646D01*
X0442718Y0160670D01*
X0442772Y0160690D01*
X0442827Y0160706D01*
X0442883Y0160719D01*
X0442940Y0160728D01*
X0442998Y0160733D01*
X0443055Y0160734D01*
X0443055Y0160733D02*
X0443172Y0160729D01*
X0443289Y0160722D01*
X0443405Y0160711D01*
X0443522Y0160697D01*
X0443637Y0160678D01*
X0443752Y0160657D01*
X0443866Y0160631D01*
X0443980Y0160602D01*
X0444092Y0160570D01*
X0444204Y0160534D01*
X0444314Y0160494D01*
X0444423Y0160451D01*
X0444530Y0160405D01*
X0447580Y0159750D02*
X0447580Y0157783D01*
X0447582Y0157721D01*
X0447588Y0157660D01*
X0447597Y0157599D01*
X0447611Y0157539D01*
X0447628Y0157479D01*
X0447649Y0157421D01*
X0447674Y0157364D01*
X0447702Y0157309D01*
X0447733Y0157256D01*
X0447768Y0157205D01*
X0447806Y0157156D01*
X0447846Y0157110D01*
X0447890Y0157066D01*
X0447936Y0157026D01*
X0447985Y0156988D01*
X0448036Y0156953D01*
X0448089Y0156922D01*
X0448144Y0156894D01*
X0448201Y0156869D01*
X0448259Y0156848D01*
X0448319Y0156831D01*
X0448379Y0156817D01*
X0448440Y0156808D01*
X0448501Y0156802D01*
X0448563Y0156800D01*
X0449874Y0156800D01*
X0452287Y0158111D02*
X0452287Y0159422D01*
X0452289Y0159493D01*
X0452295Y0159564D01*
X0452304Y0159634D01*
X0452318Y0159704D01*
X0452335Y0159773D01*
X0452356Y0159841D01*
X0452380Y0159907D01*
X0452408Y0159972D01*
X0452440Y0160036D01*
X0452475Y0160098D01*
X0452513Y0160158D01*
X0452554Y0160215D01*
X0452599Y0160271D01*
X0452646Y0160324D01*
X0452696Y0160374D01*
X0452749Y0160421D01*
X0452805Y0160466D01*
X0452862Y0160507D01*
X0452922Y0160545D01*
X0452984Y0160580D01*
X0453048Y0160612D01*
X0453113Y0160640D01*
X0453179Y0160664D01*
X0453247Y0160685D01*
X0453316Y0160702D01*
X0453386Y0160716D01*
X0453456Y0160725D01*
X0453527Y0160731D01*
X0453598Y0160733D01*
X0453669Y0160731D01*
X0453740Y0160725D01*
X0453810Y0160716D01*
X0453880Y0160702D01*
X0453949Y0160685D01*
X0454017Y0160664D01*
X0454083Y0160640D01*
X0454148Y0160612D01*
X0454212Y0160580D01*
X0454274Y0160545D01*
X0454334Y0160507D01*
X0454391Y0160466D01*
X0454447Y0160421D01*
X0454500Y0160374D01*
X0454550Y0160324D01*
X0454597Y0160271D01*
X0454642Y0160215D01*
X0454683Y0160158D01*
X0454721Y0160098D01*
X0454756Y0160036D01*
X0454788Y0159972D01*
X0454816Y0159907D01*
X0454840Y0159841D01*
X0454861Y0159773D01*
X0454878Y0159704D01*
X0454892Y0159634D01*
X0454901Y0159564D01*
X0454907Y0159493D01*
X0454909Y0159422D01*
X0454910Y0159422D02*
X0454910Y0158111D01*
X0454909Y0158111D02*
X0454907Y0158040D01*
X0454901Y0157969D01*
X0454892Y0157899D01*
X0454878Y0157829D01*
X0454861Y0157760D01*
X0454840Y0157692D01*
X0454816Y0157626D01*
X0454788Y0157561D01*
X0454756Y0157497D01*
X0454721Y0157435D01*
X0454683Y0157375D01*
X0454642Y0157318D01*
X0454597Y0157262D01*
X0454550Y0157209D01*
X0454500Y0157159D01*
X0454447Y0157112D01*
X0454391Y0157067D01*
X0454334Y0157026D01*
X0454274Y0156988D01*
X0454212Y0156953D01*
X0454148Y0156921D01*
X0454083Y0156893D01*
X0454017Y0156869D01*
X0453949Y0156848D01*
X0453880Y0156831D01*
X0453810Y0156817D01*
X0453740Y0156808D01*
X0453669Y0156802D01*
X0453598Y0156800D01*
X0453527Y0156802D01*
X0453456Y0156808D01*
X0453386Y0156817D01*
X0453316Y0156831D01*
X0453247Y0156848D01*
X0453179Y0156869D01*
X0453113Y0156893D01*
X0453048Y0156921D01*
X0452984Y0156953D01*
X0452922Y0156988D01*
X0452862Y0157026D01*
X0452805Y0157067D01*
X0452749Y0157112D01*
X0452696Y0157159D01*
X0452646Y0157209D01*
X0452599Y0157262D01*
X0452554Y0157318D01*
X0452513Y0157375D01*
X0452475Y0157435D01*
X0452440Y0157497D01*
X0452408Y0157561D01*
X0452380Y0157626D01*
X0452356Y0157692D01*
X0452335Y0157760D01*
X0452318Y0157829D01*
X0452304Y0157899D01*
X0452295Y0157969D01*
X0452289Y0158040D01*
X0452287Y0158111D01*
X0449874Y0160733D02*
X0448563Y0160733D01*
X0448501Y0160731D01*
X0448440Y0160725D01*
X0448379Y0160716D01*
X0448319Y0160702D01*
X0448259Y0160685D01*
X0448201Y0160664D01*
X0448144Y0160639D01*
X0448089Y0160611D01*
X0448036Y0160580D01*
X0447985Y0160545D01*
X0447936Y0160507D01*
X0447890Y0160467D01*
X0447846Y0160423D01*
X0447806Y0160377D01*
X0447768Y0160328D01*
X0447733Y0160277D01*
X0447702Y0160224D01*
X0447674Y0160169D01*
X0447649Y0160112D01*
X0447628Y0160054D01*
X0447611Y0159994D01*
X0447597Y0159934D01*
X0447588Y0159873D01*
X0447582Y0159812D01*
X0447580Y0159750D01*
X0439359Y0159094D02*
X0435426Y0159094D01*
X0432755Y0160733D02*
X0431444Y0156800D01*
X0430133Y0160733D01*
X0457876Y0160733D02*
X0457876Y0156800D01*
X0459843Y0160078D02*
X0459843Y0160733D01*
X0457876Y0160733D01*
X0461929Y0159422D02*
X0461929Y0157783D01*
X0461931Y0157721D01*
X0461937Y0157660D01*
X0461946Y0157599D01*
X0461960Y0157539D01*
X0461977Y0157479D01*
X0461998Y0157421D01*
X0462023Y0157364D01*
X0462051Y0157309D01*
X0462082Y0157256D01*
X0462117Y0157205D01*
X0462155Y0157156D01*
X0462195Y0157110D01*
X0462239Y0157066D01*
X0462285Y0157026D01*
X0462334Y0156988D01*
X0462385Y0156953D01*
X0462438Y0156922D01*
X0462493Y0156894D01*
X0462550Y0156869D01*
X0462608Y0156848D01*
X0462668Y0156831D01*
X0462728Y0156817D01*
X0462789Y0156808D01*
X0462850Y0156802D01*
X0462912Y0156800D01*
X0464551Y0156800D01*
X0464551Y0158767D02*
X0461929Y0158767D01*
X0461929Y0159422D02*
X0461931Y0159493D01*
X0461937Y0159564D01*
X0461946Y0159634D01*
X0461960Y0159704D01*
X0461977Y0159773D01*
X0461998Y0159841D01*
X0462022Y0159907D01*
X0462050Y0159972D01*
X0462082Y0160036D01*
X0462117Y0160098D01*
X0462155Y0160158D01*
X0462196Y0160215D01*
X0462241Y0160271D01*
X0462288Y0160324D01*
X0462338Y0160374D01*
X0462391Y0160421D01*
X0462447Y0160466D01*
X0462504Y0160507D01*
X0462564Y0160545D01*
X0462626Y0160580D01*
X0462690Y0160612D01*
X0462755Y0160640D01*
X0462821Y0160664D01*
X0462889Y0160685D01*
X0462958Y0160702D01*
X0463028Y0160716D01*
X0463098Y0160725D01*
X0463169Y0160731D01*
X0463240Y0160733D01*
X0463311Y0160731D01*
X0463382Y0160725D01*
X0463452Y0160716D01*
X0463522Y0160702D01*
X0463591Y0160685D01*
X0463659Y0160664D01*
X0463725Y0160640D01*
X0463790Y0160612D01*
X0463854Y0160580D01*
X0463916Y0160545D01*
X0463976Y0160507D01*
X0464033Y0160466D01*
X0464089Y0160421D01*
X0464142Y0160374D01*
X0464192Y0160324D01*
X0464239Y0160271D01*
X0464284Y0160215D01*
X0464325Y0160158D01*
X0464363Y0160098D01*
X0464398Y0160036D01*
X0464430Y0159972D01*
X0464458Y0159907D01*
X0464482Y0159841D01*
X0464503Y0159773D01*
X0464520Y0159704D01*
X0464534Y0159634D01*
X0464543Y0159564D01*
X0464549Y0159493D01*
X0464551Y0159422D01*
X0464551Y0158767D01*
X0442236Y0025128D02*
X0442370Y0025082D01*
X0442505Y0025039D01*
X0442641Y0025000D01*
X0442778Y0024964D01*
X0442915Y0024932D01*
X0443054Y0024903D01*
X0443193Y0024877D01*
X0443333Y0024856D01*
X0443474Y0024837D01*
X0443614Y0024823D01*
X0443756Y0024812D01*
X0443897Y0024804D01*
X0444039Y0024801D01*
X0444039Y0024800D02*
X0444096Y0024801D01*
X0444154Y0024806D01*
X0444211Y0024815D01*
X0444267Y0024828D01*
X0444322Y0024844D01*
X0444376Y0024864D01*
X0444428Y0024888D01*
X0444479Y0024915D01*
X0444527Y0024946D01*
X0444574Y0024980D01*
X0444618Y0025017D01*
X0444660Y0025057D01*
X0444698Y0025099D01*
X0444734Y0025144D01*
X0444767Y0025192D01*
X0444796Y0025241D01*
X0444822Y0025292D01*
X0444845Y0025345D01*
X0444863Y0025400D01*
X0444878Y0025455D01*
X0444890Y0025512D01*
X0444897Y0025569D01*
X0444901Y0025626D01*
X0444900Y0025684D01*
X0444896Y0025741D01*
X0444888Y0025798D01*
X0444876Y0025854D01*
X0444860Y0025910D01*
X0444841Y0025964D01*
X0444818Y0026016D01*
X0444791Y0026067D01*
X0444761Y0026117D01*
X0444728Y0026164D01*
X0444692Y0026208D01*
X0444653Y0026250D01*
X0444611Y0026290D01*
X0444566Y0026326D01*
X0444519Y0026359D01*
X0444470Y0026389D01*
X0444419Y0026416D01*
X0444367Y0026439D01*
X0444366Y0026439D02*
X0442727Y0027094D01*
X0442727Y0027095D02*
X0442675Y0027118D01*
X0442624Y0027145D01*
X0442575Y0027175D01*
X0442528Y0027208D01*
X0442483Y0027244D01*
X0442441Y0027284D01*
X0442402Y0027326D01*
X0442366Y0027370D01*
X0442333Y0027417D01*
X0442303Y0027467D01*
X0442276Y0027518D01*
X0442253Y0027570D01*
X0442234Y0027624D01*
X0442218Y0027680D01*
X0442206Y0027736D01*
X0442198Y0027793D01*
X0442194Y0027850D01*
X0442193Y0027908D01*
X0442197Y0027965D01*
X0442204Y0028022D01*
X0442216Y0028079D01*
X0442231Y0028134D01*
X0442249Y0028189D01*
X0442272Y0028242D01*
X0442298Y0028293D01*
X0442327Y0028342D01*
X0442360Y0028390D01*
X0442396Y0028435D01*
X0442434Y0028477D01*
X0442476Y0028517D01*
X0442520Y0028554D01*
X0442567Y0028588D01*
X0442615Y0028619D01*
X0442666Y0028646D01*
X0442718Y0028670D01*
X0442772Y0028690D01*
X0442827Y0028706D01*
X0442883Y0028719D01*
X0442940Y0028728D01*
X0442998Y0028733D01*
X0443055Y0028734D01*
X0443055Y0028733D02*
X0443172Y0028729D01*
X0443289Y0028722D01*
X0443405Y0028711D01*
X0443522Y0028697D01*
X0443637Y0028678D01*
X0443752Y0028657D01*
X0443866Y0028631D01*
X0443980Y0028602D01*
X0444092Y0028570D01*
X0444204Y0028534D01*
X0444314Y0028494D01*
X0444423Y0028451D01*
X0444530Y0028405D01*
X0447580Y0027750D02*
X0447580Y0025783D01*
X0447582Y0025721D01*
X0447588Y0025660D01*
X0447597Y0025599D01*
X0447611Y0025539D01*
X0447628Y0025479D01*
X0447649Y0025421D01*
X0447674Y0025364D01*
X0447702Y0025309D01*
X0447733Y0025256D01*
X0447768Y0025205D01*
X0447806Y0025156D01*
X0447846Y0025110D01*
X0447890Y0025066D01*
X0447936Y0025026D01*
X0447985Y0024988D01*
X0448036Y0024953D01*
X0448089Y0024922D01*
X0448144Y0024894D01*
X0448201Y0024869D01*
X0448259Y0024848D01*
X0448319Y0024831D01*
X0448379Y0024817D01*
X0448440Y0024808D01*
X0448501Y0024802D01*
X0448563Y0024800D01*
X0449874Y0024800D01*
X0452287Y0026111D02*
X0452287Y0027422D01*
X0452289Y0027493D01*
X0452295Y0027564D01*
X0452304Y0027634D01*
X0452318Y0027704D01*
X0452335Y0027773D01*
X0452356Y0027841D01*
X0452380Y0027907D01*
X0452408Y0027972D01*
X0452440Y0028036D01*
X0452475Y0028098D01*
X0452513Y0028158D01*
X0452554Y0028215D01*
X0452599Y0028271D01*
X0452646Y0028324D01*
X0452696Y0028374D01*
X0452749Y0028421D01*
X0452805Y0028466D01*
X0452862Y0028507D01*
X0452922Y0028545D01*
X0452984Y0028580D01*
X0453048Y0028612D01*
X0453113Y0028640D01*
X0453179Y0028664D01*
X0453247Y0028685D01*
X0453316Y0028702D01*
X0453386Y0028716D01*
X0453456Y0028725D01*
X0453527Y0028731D01*
X0453598Y0028733D01*
X0453669Y0028731D01*
X0453740Y0028725D01*
X0453810Y0028716D01*
X0453880Y0028702D01*
X0453949Y0028685D01*
X0454017Y0028664D01*
X0454083Y0028640D01*
X0454148Y0028612D01*
X0454212Y0028580D01*
X0454274Y0028545D01*
X0454334Y0028507D01*
X0454391Y0028466D01*
X0454447Y0028421D01*
X0454500Y0028374D01*
X0454550Y0028324D01*
X0454597Y0028271D01*
X0454642Y0028215D01*
X0454683Y0028158D01*
X0454721Y0028098D01*
X0454756Y0028036D01*
X0454788Y0027972D01*
X0454816Y0027907D01*
X0454840Y0027841D01*
X0454861Y0027773D01*
X0454878Y0027704D01*
X0454892Y0027634D01*
X0454901Y0027564D01*
X0454907Y0027493D01*
X0454909Y0027422D01*
X0454910Y0027422D02*
X0454910Y0026111D01*
X0454909Y0026111D02*
X0454907Y0026040D01*
X0454901Y0025969D01*
X0454892Y0025899D01*
X0454878Y0025829D01*
X0454861Y0025760D01*
X0454840Y0025692D01*
X0454816Y0025626D01*
X0454788Y0025561D01*
X0454756Y0025497D01*
X0454721Y0025435D01*
X0454683Y0025375D01*
X0454642Y0025318D01*
X0454597Y0025262D01*
X0454550Y0025209D01*
X0454500Y0025159D01*
X0454447Y0025112D01*
X0454391Y0025067D01*
X0454334Y0025026D01*
X0454274Y0024988D01*
X0454212Y0024953D01*
X0454148Y0024921D01*
X0454083Y0024893D01*
X0454017Y0024869D01*
X0453949Y0024848D01*
X0453880Y0024831D01*
X0453810Y0024817D01*
X0453740Y0024808D01*
X0453669Y0024802D01*
X0453598Y0024800D01*
X0453527Y0024802D01*
X0453456Y0024808D01*
X0453386Y0024817D01*
X0453316Y0024831D01*
X0453247Y0024848D01*
X0453179Y0024869D01*
X0453113Y0024893D01*
X0453048Y0024921D01*
X0452984Y0024953D01*
X0452922Y0024988D01*
X0452862Y0025026D01*
X0452805Y0025067D01*
X0452749Y0025112D01*
X0452696Y0025159D01*
X0452646Y0025209D01*
X0452599Y0025262D01*
X0452554Y0025318D01*
X0452513Y0025375D01*
X0452475Y0025435D01*
X0452440Y0025497D01*
X0452408Y0025561D01*
X0452380Y0025626D01*
X0452356Y0025692D01*
X0452335Y0025760D01*
X0452318Y0025829D01*
X0452304Y0025899D01*
X0452295Y0025969D01*
X0452289Y0026040D01*
X0452287Y0026111D01*
X0449874Y0028733D02*
X0448563Y0028733D01*
X0448501Y0028731D01*
X0448440Y0028725D01*
X0448379Y0028716D01*
X0448319Y0028702D01*
X0448259Y0028685D01*
X0448201Y0028664D01*
X0448144Y0028639D01*
X0448089Y0028611D01*
X0448036Y0028580D01*
X0447985Y0028545D01*
X0447936Y0028507D01*
X0447890Y0028467D01*
X0447846Y0028423D01*
X0447806Y0028377D01*
X0447768Y0028328D01*
X0447733Y0028277D01*
X0447702Y0028224D01*
X0447674Y0028169D01*
X0447649Y0028112D01*
X0447628Y0028054D01*
X0447611Y0027994D01*
X0447597Y0027934D01*
X0447588Y0027873D01*
X0447582Y0027812D01*
X0447580Y0027750D01*
X0439359Y0027094D02*
X0435426Y0027094D01*
X0432755Y0028733D02*
X0431444Y0024800D01*
X0430133Y0028733D01*
X0457876Y0028733D02*
X0457876Y0024800D01*
X0459843Y0028078D02*
X0459843Y0028733D01*
X0457876Y0028733D01*
X0461929Y0027422D02*
X0461929Y0025783D01*
X0461931Y0025721D01*
X0461937Y0025660D01*
X0461946Y0025599D01*
X0461960Y0025539D01*
X0461977Y0025479D01*
X0461998Y0025421D01*
X0462023Y0025364D01*
X0462051Y0025309D01*
X0462082Y0025256D01*
X0462117Y0025205D01*
X0462155Y0025156D01*
X0462195Y0025110D01*
X0462239Y0025066D01*
X0462285Y0025026D01*
X0462334Y0024988D01*
X0462385Y0024953D01*
X0462438Y0024922D01*
X0462493Y0024894D01*
X0462550Y0024869D01*
X0462608Y0024848D01*
X0462668Y0024831D01*
X0462728Y0024817D01*
X0462789Y0024808D01*
X0462850Y0024802D01*
X0462912Y0024800D01*
X0464551Y0024800D01*
X0464551Y0026767D02*
X0461929Y0026767D01*
X0461929Y0027422D02*
X0461931Y0027493D01*
X0461937Y0027564D01*
X0461946Y0027634D01*
X0461960Y0027704D01*
X0461977Y0027773D01*
X0461998Y0027841D01*
X0462022Y0027907D01*
X0462050Y0027972D01*
X0462082Y0028036D01*
X0462117Y0028098D01*
X0462155Y0028158D01*
X0462196Y0028215D01*
X0462241Y0028271D01*
X0462288Y0028324D01*
X0462338Y0028374D01*
X0462391Y0028421D01*
X0462447Y0028466D01*
X0462504Y0028507D01*
X0462564Y0028545D01*
X0462626Y0028580D01*
X0462690Y0028612D01*
X0462755Y0028640D01*
X0462821Y0028664D01*
X0462889Y0028685D01*
X0462958Y0028702D01*
X0463028Y0028716D01*
X0463098Y0028725D01*
X0463169Y0028731D01*
X0463240Y0028733D01*
X0463311Y0028731D01*
X0463382Y0028725D01*
X0463452Y0028716D01*
X0463522Y0028702D01*
X0463591Y0028685D01*
X0463659Y0028664D01*
X0463725Y0028640D01*
X0463790Y0028612D01*
X0463854Y0028580D01*
X0463916Y0028545D01*
X0463976Y0028507D01*
X0464033Y0028466D01*
X0464089Y0028421D01*
X0464142Y0028374D01*
X0464192Y0028324D01*
X0464239Y0028271D01*
X0464284Y0028215D01*
X0464325Y0028158D01*
X0464363Y0028098D01*
X0464398Y0028036D01*
X0464430Y0027972D01*
X0464458Y0027907D01*
X0464482Y0027841D01*
X0464503Y0027773D01*
X0464520Y0027704D01*
X0464534Y0027634D01*
X0464543Y0027564D01*
X0464549Y0027493D01*
X0464551Y0027422D01*
X0464551Y0026767D01*
D14*
X0016342Y0026750D02*
X0016342Y0001750D01*
X0392342Y0001750D01*
X0392342Y0026750D01*
X0016342Y0026750D01*
X0016342Y0028750D02*
X0016342Y0290750D01*
X0041342Y0290750D01*
X0041342Y0028750D01*
X0016342Y0028750D01*
X0016342Y0292750D02*
X0016342Y0317750D01*
X0392342Y0317750D01*
X0392342Y0292750D01*
X0016342Y0292750D01*
X0367342Y0290750D02*
X0367342Y0028750D01*
X0392342Y0028750D01*
X0392342Y0290750D01*
X0367342Y0290750D01*
D15*
X0348842Y0280750D02*
X0348844Y0280911D01*
X0348850Y0281071D01*
X0348860Y0281232D01*
X0348874Y0281392D01*
X0348892Y0281552D01*
X0348913Y0281711D01*
X0348939Y0281870D01*
X0348969Y0282028D01*
X0349002Y0282185D01*
X0349040Y0282342D01*
X0349081Y0282497D01*
X0349126Y0282651D01*
X0349175Y0282804D01*
X0349228Y0282956D01*
X0349284Y0283107D01*
X0349345Y0283256D01*
X0349408Y0283404D01*
X0349476Y0283550D01*
X0349547Y0283694D01*
X0349621Y0283836D01*
X0349699Y0283977D01*
X0349781Y0284115D01*
X0349866Y0284252D01*
X0349954Y0284386D01*
X0350046Y0284518D01*
X0350141Y0284648D01*
X0350239Y0284776D01*
X0350340Y0284901D01*
X0350444Y0285023D01*
X0350551Y0285143D01*
X0350661Y0285260D01*
X0350774Y0285375D01*
X0350890Y0285486D01*
X0351009Y0285595D01*
X0351130Y0285700D01*
X0351254Y0285803D01*
X0351380Y0285903D01*
X0351508Y0285999D01*
X0351639Y0286092D01*
X0351773Y0286182D01*
X0351908Y0286269D01*
X0352046Y0286352D01*
X0352185Y0286432D01*
X0352327Y0286508D01*
X0352470Y0286581D01*
X0352615Y0286650D01*
X0352762Y0286716D01*
X0352910Y0286778D01*
X0353060Y0286836D01*
X0353211Y0286891D01*
X0353364Y0286942D01*
X0353518Y0286989D01*
X0353673Y0287032D01*
X0353829Y0287071D01*
X0353985Y0287107D01*
X0354143Y0287138D01*
X0354301Y0287166D01*
X0354460Y0287190D01*
X0354620Y0287210D01*
X0354780Y0287226D01*
X0354940Y0287238D01*
X0355101Y0287246D01*
X0355262Y0287250D01*
X0355422Y0287250D01*
X0355583Y0287246D01*
X0355744Y0287238D01*
X0355904Y0287226D01*
X0356064Y0287210D01*
X0356224Y0287190D01*
X0356383Y0287166D01*
X0356541Y0287138D01*
X0356699Y0287107D01*
X0356855Y0287071D01*
X0357011Y0287032D01*
X0357166Y0286989D01*
X0357320Y0286942D01*
X0357473Y0286891D01*
X0357624Y0286836D01*
X0357774Y0286778D01*
X0357922Y0286716D01*
X0358069Y0286650D01*
X0358214Y0286581D01*
X0358357Y0286508D01*
X0358499Y0286432D01*
X0358638Y0286352D01*
X0358776Y0286269D01*
X0358911Y0286182D01*
X0359045Y0286092D01*
X0359176Y0285999D01*
X0359304Y0285903D01*
X0359430Y0285803D01*
X0359554Y0285700D01*
X0359675Y0285595D01*
X0359794Y0285486D01*
X0359910Y0285375D01*
X0360023Y0285260D01*
X0360133Y0285143D01*
X0360240Y0285023D01*
X0360344Y0284901D01*
X0360445Y0284776D01*
X0360543Y0284648D01*
X0360638Y0284518D01*
X0360730Y0284386D01*
X0360818Y0284252D01*
X0360903Y0284115D01*
X0360985Y0283977D01*
X0361063Y0283836D01*
X0361137Y0283694D01*
X0361208Y0283550D01*
X0361276Y0283404D01*
X0361339Y0283256D01*
X0361400Y0283107D01*
X0361456Y0282956D01*
X0361509Y0282804D01*
X0361558Y0282651D01*
X0361603Y0282497D01*
X0361644Y0282342D01*
X0361682Y0282185D01*
X0361715Y0282028D01*
X0361745Y0281870D01*
X0361771Y0281711D01*
X0361792Y0281552D01*
X0361810Y0281392D01*
X0361824Y0281232D01*
X0361834Y0281071D01*
X0361840Y0280911D01*
X0361842Y0280750D01*
X0361840Y0280589D01*
X0361834Y0280429D01*
X0361824Y0280268D01*
X0361810Y0280108D01*
X0361792Y0279948D01*
X0361771Y0279789D01*
X0361745Y0279630D01*
X0361715Y0279472D01*
X0361682Y0279315D01*
X0361644Y0279158D01*
X0361603Y0279003D01*
X0361558Y0278849D01*
X0361509Y0278696D01*
X0361456Y0278544D01*
X0361400Y0278393D01*
X0361339Y0278244D01*
X0361276Y0278096D01*
X0361208Y0277950D01*
X0361137Y0277806D01*
X0361063Y0277664D01*
X0360985Y0277523D01*
X0360903Y0277385D01*
X0360818Y0277248D01*
X0360730Y0277114D01*
X0360638Y0276982D01*
X0360543Y0276852D01*
X0360445Y0276724D01*
X0360344Y0276599D01*
X0360240Y0276477D01*
X0360133Y0276357D01*
X0360023Y0276240D01*
X0359910Y0276125D01*
X0359794Y0276014D01*
X0359675Y0275905D01*
X0359554Y0275800D01*
X0359430Y0275697D01*
X0359304Y0275597D01*
X0359176Y0275501D01*
X0359045Y0275408D01*
X0358911Y0275318D01*
X0358776Y0275231D01*
X0358638Y0275148D01*
X0358499Y0275068D01*
X0358357Y0274992D01*
X0358214Y0274919D01*
X0358069Y0274850D01*
X0357922Y0274784D01*
X0357774Y0274722D01*
X0357624Y0274664D01*
X0357473Y0274609D01*
X0357320Y0274558D01*
X0357166Y0274511D01*
X0357011Y0274468D01*
X0356855Y0274429D01*
X0356699Y0274393D01*
X0356541Y0274362D01*
X0356383Y0274334D01*
X0356224Y0274310D01*
X0356064Y0274290D01*
X0355904Y0274274D01*
X0355744Y0274262D01*
X0355583Y0274254D01*
X0355422Y0274250D01*
X0355262Y0274250D01*
X0355101Y0274254D01*
X0354940Y0274262D01*
X0354780Y0274274D01*
X0354620Y0274290D01*
X0354460Y0274310D01*
X0354301Y0274334D01*
X0354143Y0274362D01*
X0353985Y0274393D01*
X0353829Y0274429D01*
X0353673Y0274468D01*
X0353518Y0274511D01*
X0353364Y0274558D01*
X0353211Y0274609D01*
X0353060Y0274664D01*
X0352910Y0274722D01*
X0352762Y0274784D01*
X0352615Y0274850D01*
X0352470Y0274919D01*
X0352327Y0274992D01*
X0352185Y0275068D01*
X0352046Y0275148D01*
X0351908Y0275231D01*
X0351773Y0275318D01*
X0351639Y0275408D01*
X0351508Y0275501D01*
X0351380Y0275597D01*
X0351254Y0275697D01*
X0351130Y0275800D01*
X0351009Y0275905D01*
X0350890Y0276014D01*
X0350774Y0276125D01*
X0350661Y0276240D01*
X0350551Y0276357D01*
X0350444Y0276477D01*
X0350340Y0276599D01*
X0350239Y0276724D01*
X0350141Y0276852D01*
X0350046Y0276982D01*
X0349954Y0277114D01*
X0349866Y0277248D01*
X0349781Y0277385D01*
X0349699Y0277523D01*
X0349621Y0277664D01*
X0349547Y0277806D01*
X0349476Y0277950D01*
X0349408Y0278096D01*
X0349345Y0278244D01*
X0349284Y0278393D01*
X0349228Y0278544D01*
X0349175Y0278696D01*
X0349126Y0278849D01*
X0349081Y0279003D01*
X0349040Y0279158D01*
X0349002Y0279315D01*
X0348969Y0279472D01*
X0348939Y0279630D01*
X0348913Y0279789D01*
X0348892Y0279948D01*
X0348874Y0280108D01*
X0348860Y0280268D01*
X0348850Y0280429D01*
X0348844Y0280589D01*
X0348842Y0280750D01*
X0208842Y0280750D02*
X0208844Y0280911D01*
X0208850Y0281071D01*
X0208860Y0281232D01*
X0208874Y0281392D01*
X0208892Y0281552D01*
X0208913Y0281711D01*
X0208939Y0281870D01*
X0208969Y0282028D01*
X0209002Y0282185D01*
X0209040Y0282342D01*
X0209081Y0282497D01*
X0209126Y0282651D01*
X0209175Y0282804D01*
X0209228Y0282956D01*
X0209284Y0283107D01*
X0209345Y0283256D01*
X0209408Y0283404D01*
X0209476Y0283550D01*
X0209547Y0283694D01*
X0209621Y0283836D01*
X0209699Y0283977D01*
X0209781Y0284115D01*
X0209866Y0284252D01*
X0209954Y0284386D01*
X0210046Y0284518D01*
X0210141Y0284648D01*
X0210239Y0284776D01*
X0210340Y0284901D01*
X0210444Y0285023D01*
X0210551Y0285143D01*
X0210661Y0285260D01*
X0210774Y0285375D01*
X0210890Y0285486D01*
X0211009Y0285595D01*
X0211130Y0285700D01*
X0211254Y0285803D01*
X0211380Y0285903D01*
X0211508Y0285999D01*
X0211639Y0286092D01*
X0211773Y0286182D01*
X0211908Y0286269D01*
X0212046Y0286352D01*
X0212185Y0286432D01*
X0212327Y0286508D01*
X0212470Y0286581D01*
X0212615Y0286650D01*
X0212762Y0286716D01*
X0212910Y0286778D01*
X0213060Y0286836D01*
X0213211Y0286891D01*
X0213364Y0286942D01*
X0213518Y0286989D01*
X0213673Y0287032D01*
X0213829Y0287071D01*
X0213985Y0287107D01*
X0214143Y0287138D01*
X0214301Y0287166D01*
X0214460Y0287190D01*
X0214620Y0287210D01*
X0214780Y0287226D01*
X0214940Y0287238D01*
X0215101Y0287246D01*
X0215262Y0287250D01*
X0215422Y0287250D01*
X0215583Y0287246D01*
X0215744Y0287238D01*
X0215904Y0287226D01*
X0216064Y0287210D01*
X0216224Y0287190D01*
X0216383Y0287166D01*
X0216541Y0287138D01*
X0216699Y0287107D01*
X0216855Y0287071D01*
X0217011Y0287032D01*
X0217166Y0286989D01*
X0217320Y0286942D01*
X0217473Y0286891D01*
X0217624Y0286836D01*
X0217774Y0286778D01*
X0217922Y0286716D01*
X0218069Y0286650D01*
X0218214Y0286581D01*
X0218357Y0286508D01*
X0218499Y0286432D01*
X0218638Y0286352D01*
X0218776Y0286269D01*
X0218911Y0286182D01*
X0219045Y0286092D01*
X0219176Y0285999D01*
X0219304Y0285903D01*
X0219430Y0285803D01*
X0219554Y0285700D01*
X0219675Y0285595D01*
X0219794Y0285486D01*
X0219910Y0285375D01*
X0220023Y0285260D01*
X0220133Y0285143D01*
X0220240Y0285023D01*
X0220344Y0284901D01*
X0220445Y0284776D01*
X0220543Y0284648D01*
X0220638Y0284518D01*
X0220730Y0284386D01*
X0220818Y0284252D01*
X0220903Y0284115D01*
X0220985Y0283977D01*
X0221063Y0283836D01*
X0221137Y0283694D01*
X0221208Y0283550D01*
X0221276Y0283404D01*
X0221339Y0283256D01*
X0221400Y0283107D01*
X0221456Y0282956D01*
X0221509Y0282804D01*
X0221558Y0282651D01*
X0221603Y0282497D01*
X0221644Y0282342D01*
X0221682Y0282185D01*
X0221715Y0282028D01*
X0221745Y0281870D01*
X0221771Y0281711D01*
X0221792Y0281552D01*
X0221810Y0281392D01*
X0221824Y0281232D01*
X0221834Y0281071D01*
X0221840Y0280911D01*
X0221842Y0280750D01*
X0221840Y0280589D01*
X0221834Y0280429D01*
X0221824Y0280268D01*
X0221810Y0280108D01*
X0221792Y0279948D01*
X0221771Y0279789D01*
X0221745Y0279630D01*
X0221715Y0279472D01*
X0221682Y0279315D01*
X0221644Y0279158D01*
X0221603Y0279003D01*
X0221558Y0278849D01*
X0221509Y0278696D01*
X0221456Y0278544D01*
X0221400Y0278393D01*
X0221339Y0278244D01*
X0221276Y0278096D01*
X0221208Y0277950D01*
X0221137Y0277806D01*
X0221063Y0277664D01*
X0220985Y0277523D01*
X0220903Y0277385D01*
X0220818Y0277248D01*
X0220730Y0277114D01*
X0220638Y0276982D01*
X0220543Y0276852D01*
X0220445Y0276724D01*
X0220344Y0276599D01*
X0220240Y0276477D01*
X0220133Y0276357D01*
X0220023Y0276240D01*
X0219910Y0276125D01*
X0219794Y0276014D01*
X0219675Y0275905D01*
X0219554Y0275800D01*
X0219430Y0275697D01*
X0219304Y0275597D01*
X0219176Y0275501D01*
X0219045Y0275408D01*
X0218911Y0275318D01*
X0218776Y0275231D01*
X0218638Y0275148D01*
X0218499Y0275068D01*
X0218357Y0274992D01*
X0218214Y0274919D01*
X0218069Y0274850D01*
X0217922Y0274784D01*
X0217774Y0274722D01*
X0217624Y0274664D01*
X0217473Y0274609D01*
X0217320Y0274558D01*
X0217166Y0274511D01*
X0217011Y0274468D01*
X0216855Y0274429D01*
X0216699Y0274393D01*
X0216541Y0274362D01*
X0216383Y0274334D01*
X0216224Y0274310D01*
X0216064Y0274290D01*
X0215904Y0274274D01*
X0215744Y0274262D01*
X0215583Y0274254D01*
X0215422Y0274250D01*
X0215262Y0274250D01*
X0215101Y0274254D01*
X0214940Y0274262D01*
X0214780Y0274274D01*
X0214620Y0274290D01*
X0214460Y0274310D01*
X0214301Y0274334D01*
X0214143Y0274362D01*
X0213985Y0274393D01*
X0213829Y0274429D01*
X0213673Y0274468D01*
X0213518Y0274511D01*
X0213364Y0274558D01*
X0213211Y0274609D01*
X0213060Y0274664D01*
X0212910Y0274722D01*
X0212762Y0274784D01*
X0212615Y0274850D01*
X0212470Y0274919D01*
X0212327Y0274992D01*
X0212185Y0275068D01*
X0212046Y0275148D01*
X0211908Y0275231D01*
X0211773Y0275318D01*
X0211639Y0275408D01*
X0211508Y0275501D01*
X0211380Y0275597D01*
X0211254Y0275697D01*
X0211130Y0275800D01*
X0211009Y0275905D01*
X0210890Y0276014D01*
X0210774Y0276125D01*
X0210661Y0276240D01*
X0210551Y0276357D01*
X0210444Y0276477D01*
X0210340Y0276599D01*
X0210239Y0276724D01*
X0210141Y0276852D01*
X0210046Y0276982D01*
X0209954Y0277114D01*
X0209866Y0277248D01*
X0209781Y0277385D01*
X0209699Y0277523D01*
X0209621Y0277664D01*
X0209547Y0277806D01*
X0209476Y0277950D01*
X0209408Y0278096D01*
X0209345Y0278244D01*
X0209284Y0278393D01*
X0209228Y0278544D01*
X0209175Y0278696D01*
X0209126Y0278849D01*
X0209081Y0279003D01*
X0209040Y0279158D01*
X0209002Y0279315D01*
X0208969Y0279472D01*
X0208939Y0279630D01*
X0208913Y0279789D01*
X0208892Y0279948D01*
X0208874Y0280108D01*
X0208860Y0280268D01*
X0208850Y0280429D01*
X0208844Y0280589D01*
X0208842Y0280750D01*
X0186842Y0280750D02*
X0186844Y0280911D01*
X0186850Y0281071D01*
X0186860Y0281232D01*
X0186874Y0281392D01*
X0186892Y0281552D01*
X0186913Y0281711D01*
X0186939Y0281870D01*
X0186969Y0282028D01*
X0187002Y0282185D01*
X0187040Y0282342D01*
X0187081Y0282497D01*
X0187126Y0282651D01*
X0187175Y0282804D01*
X0187228Y0282956D01*
X0187284Y0283107D01*
X0187345Y0283256D01*
X0187408Y0283404D01*
X0187476Y0283550D01*
X0187547Y0283694D01*
X0187621Y0283836D01*
X0187699Y0283977D01*
X0187781Y0284115D01*
X0187866Y0284252D01*
X0187954Y0284386D01*
X0188046Y0284518D01*
X0188141Y0284648D01*
X0188239Y0284776D01*
X0188340Y0284901D01*
X0188444Y0285023D01*
X0188551Y0285143D01*
X0188661Y0285260D01*
X0188774Y0285375D01*
X0188890Y0285486D01*
X0189009Y0285595D01*
X0189130Y0285700D01*
X0189254Y0285803D01*
X0189380Y0285903D01*
X0189508Y0285999D01*
X0189639Y0286092D01*
X0189773Y0286182D01*
X0189908Y0286269D01*
X0190046Y0286352D01*
X0190185Y0286432D01*
X0190327Y0286508D01*
X0190470Y0286581D01*
X0190615Y0286650D01*
X0190762Y0286716D01*
X0190910Y0286778D01*
X0191060Y0286836D01*
X0191211Y0286891D01*
X0191364Y0286942D01*
X0191518Y0286989D01*
X0191673Y0287032D01*
X0191829Y0287071D01*
X0191985Y0287107D01*
X0192143Y0287138D01*
X0192301Y0287166D01*
X0192460Y0287190D01*
X0192620Y0287210D01*
X0192780Y0287226D01*
X0192940Y0287238D01*
X0193101Y0287246D01*
X0193262Y0287250D01*
X0193422Y0287250D01*
X0193583Y0287246D01*
X0193744Y0287238D01*
X0193904Y0287226D01*
X0194064Y0287210D01*
X0194224Y0287190D01*
X0194383Y0287166D01*
X0194541Y0287138D01*
X0194699Y0287107D01*
X0194855Y0287071D01*
X0195011Y0287032D01*
X0195166Y0286989D01*
X0195320Y0286942D01*
X0195473Y0286891D01*
X0195624Y0286836D01*
X0195774Y0286778D01*
X0195922Y0286716D01*
X0196069Y0286650D01*
X0196214Y0286581D01*
X0196357Y0286508D01*
X0196499Y0286432D01*
X0196638Y0286352D01*
X0196776Y0286269D01*
X0196911Y0286182D01*
X0197045Y0286092D01*
X0197176Y0285999D01*
X0197304Y0285903D01*
X0197430Y0285803D01*
X0197554Y0285700D01*
X0197675Y0285595D01*
X0197794Y0285486D01*
X0197910Y0285375D01*
X0198023Y0285260D01*
X0198133Y0285143D01*
X0198240Y0285023D01*
X0198344Y0284901D01*
X0198445Y0284776D01*
X0198543Y0284648D01*
X0198638Y0284518D01*
X0198730Y0284386D01*
X0198818Y0284252D01*
X0198903Y0284115D01*
X0198985Y0283977D01*
X0199063Y0283836D01*
X0199137Y0283694D01*
X0199208Y0283550D01*
X0199276Y0283404D01*
X0199339Y0283256D01*
X0199400Y0283107D01*
X0199456Y0282956D01*
X0199509Y0282804D01*
X0199558Y0282651D01*
X0199603Y0282497D01*
X0199644Y0282342D01*
X0199682Y0282185D01*
X0199715Y0282028D01*
X0199745Y0281870D01*
X0199771Y0281711D01*
X0199792Y0281552D01*
X0199810Y0281392D01*
X0199824Y0281232D01*
X0199834Y0281071D01*
X0199840Y0280911D01*
X0199842Y0280750D01*
X0199840Y0280589D01*
X0199834Y0280429D01*
X0199824Y0280268D01*
X0199810Y0280108D01*
X0199792Y0279948D01*
X0199771Y0279789D01*
X0199745Y0279630D01*
X0199715Y0279472D01*
X0199682Y0279315D01*
X0199644Y0279158D01*
X0199603Y0279003D01*
X0199558Y0278849D01*
X0199509Y0278696D01*
X0199456Y0278544D01*
X0199400Y0278393D01*
X0199339Y0278244D01*
X0199276Y0278096D01*
X0199208Y0277950D01*
X0199137Y0277806D01*
X0199063Y0277664D01*
X0198985Y0277523D01*
X0198903Y0277385D01*
X0198818Y0277248D01*
X0198730Y0277114D01*
X0198638Y0276982D01*
X0198543Y0276852D01*
X0198445Y0276724D01*
X0198344Y0276599D01*
X0198240Y0276477D01*
X0198133Y0276357D01*
X0198023Y0276240D01*
X0197910Y0276125D01*
X0197794Y0276014D01*
X0197675Y0275905D01*
X0197554Y0275800D01*
X0197430Y0275697D01*
X0197304Y0275597D01*
X0197176Y0275501D01*
X0197045Y0275408D01*
X0196911Y0275318D01*
X0196776Y0275231D01*
X0196638Y0275148D01*
X0196499Y0275068D01*
X0196357Y0274992D01*
X0196214Y0274919D01*
X0196069Y0274850D01*
X0195922Y0274784D01*
X0195774Y0274722D01*
X0195624Y0274664D01*
X0195473Y0274609D01*
X0195320Y0274558D01*
X0195166Y0274511D01*
X0195011Y0274468D01*
X0194855Y0274429D01*
X0194699Y0274393D01*
X0194541Y0274362D01*
X0194383Y0274334D01*
X0194224Y0274310D01*
X0194064Y0274290D01*
X0193904Y0274274D01*
X0193744Y0274262D01*
X0193583Y0274254D01*
X0193422Y0274250D01*
X0193262Y0274250D01*
X0193101Y0274254D01*
X0192940Y0274262D01*
X0192780Y0274274D01*
X0192620Y0274290D01*
X0192460Y0274310D01*
X0192301Y0274334D01*
X0192143Y0274362D01*
X0191985Y0274393D01*
X0191829Y0274429D01*
X0191673Y0274468D01*
X0191518Y0274511D01*
X0191364Y0274558D01*
X0191211Y0274609D01*
X0191060Y0274664D01*
X0190910Y0274722D01*
X0190762Y0274784D01*
X0190615Y0274850D01*
X0190470Y0274919D01*
X0190327Y0274992D01*
X0190185Y0275068D01*
X0190046Y0275148D01*
X0189908Y0275231D01*
X0189773Y0275318D01*
X0189639Y0275408D01*
X0189508Y0275501D01*
X0189380Y0275597D01*
X0189254Y0275697D01*
X0189130Y0275800D01*
X0189009Y0275905D01*
X0188890Y0276014D01*
X0188774Y0276125D01*
X0188661Y0276240D01*
X0188551Y0276357D01*
X0188444Y0276477D01*
X0188340Y0276599D01*
X0188239Y0276724D01*
X0188141Y0276852D01*
X0188046Y0276982D01*
X0187954Y0277114D01*
X0187866Y0277248D01*
X0187781Y0277385D01*
X0187699Y0277523D01*
X0187621Y0277664D01*
X0187547Y0277806D01*
X0187476Y0277950D01*
X0187408Y0278096D01*
X0187345Y0278244D01*
X0187284Y0278393D01*
X0187228Y0278544D01*
X0187175Y0278696D01*
X0187126Y0278849D01*
X0187081Y0279003D01*
X0187040Y0279158D01*
X0187002Y0279315D01*
X0186969Y0279472D01*
X0186939Y0279630D01*
X0186913Y0279789D01*
X0186892Y0279948D01*
X0186874Y0280108D01*
X0186860Y0280268D01*
X0186850Y0280429D01*
X0186844Y0280589D01*
X0186842Y0280750D01*
X0046842Y0280750D02*
X0046844Y0280911D01*
X0046850Y0281071D01*
X0046860Y0281232D01*
X0046874Y0281392D01*
X0046892Y0281552D01*
X0046913Y0281711D01*
X0046939Y0281870D01*
X0046969Y0282028D01*
X0047002Y0282185D01*
X0047040Y0282342D01*
X0047081Y0282497D01*
X0047126Y0282651D01*
X0047175Y0282804D01*
X0047228Y0282956D01*
X0047284Y0283107D01*
X0047345Y0283256D01*
X0047408Y0283404D01*
X0047476Y0283550D01*
X0047547Y0283694D01*
X0047621Y0283836D01*
X0047699Y0283977D01*
X0047781Y0284115D01*
X0047866Y0284252D01*
X0047954Y0284386D01*
X0048046Y0284518D01*
X0048141Y0284648D01*
X0048239Y0284776D01*
X0048340Y0284901D01*
X0048444Y0285023D01*
X0048551Y0285143D01*
X0048661Y0285260D01*
X0048774Y0285375D01*
X0048890Y0285486D01*
X0049009Y0285595D01*
X0049130Y0285700D01*
X0049254Y0285803D01*
X0049380Y0285903D01*
X0049508Y0285999D01*
X0049639Y0286092D01*
X0049773Y0286182D01*
X0049908Y0286269D01*
X0050046Y0286352D01*
X0050185Y0286432D01*
X0050327Y0286508D01*
X0050470Y0286581D01*
X0050615Y0286650D01*
X0050762Y0286716D01*
X0050910Y0286778D01*
X0051060Y0286836D01*
X0051211Y0286891D01*
X0051364Y0286942D01*
X0051518Y0286989D01*
X0051673Y0287032D01*
X0051829Y0287071D01*
X0051985Y0287107D01*
X0052143Y0287138D01*
X0052301Y0287166D01*
X0052460Y0287190D01*
X0052620Y0287210D01*
X0052780Y0287226D01*
X0052940Y0287238D01*
X0053101Y0287246D01*
X0053262Y0287250D01*
X0053422Y0287250D01*
X0053583Y0287246D01*
X0053744Y0287238D01*
X0053904Y0287226D01*
X0054064Y0287210D01*
X0054224Y0287190D01*
X0054383Y0287166D01*
X0054541Y0287138D01*
X0054699Y0287107D01*
X0054855Y0287071D01*
X0055011Y0287032D01*
X0055166Y0286989D01*
X0055320Y0286942D01*
X0055473Y0286891D01*
X0055624Y0286836D01*
X0055774Y0286778D01*
X0055922Y0286716D01*
X0056069Y0286650D01*
X0056214Y0286581D01*
X0056357Y0286508D01*
X0056499Y0286432D01*
X0056638Y0286352D01*
X0056776Y0286269D01*
X0056911Y0286182D01*
X0057045Y0286092D01*
X0057176Y0285999D01*
X0057304Y0285903D01*
X0057430Y0285803D01*
X0057554Y0285700D01*
X0057675Y0285595D01*
X0057794Y0285486D01*
X0057910Y0285375D01*
X0058023Y0285260D01*
X0058133Y0285143D01*
X0058240Y0285023D01*
X0058344Y0284901D01*
X0058445Y0284776D01*
X0058543Y0284648D01*
X0058638Y0284518D01*
X0058730Y0284386D01*
X0058818Y0284252D01*
X0058903Y0284115D01*
X0058985Y0283977D01*
X0059063Y0283836D01*
X0059137Y0283694D01*
X0059208Y0283550D01*
X0059276Y0283404D01*
X0059339Y0283256D01*
X0059400Y0283107D01*
X0059456Y0282956D01*
X0059509Y0282804D01*
X0059558Y0282651D01*
X0059603Y0282497D01*
X0059644Y0282342D01*
X0059682Y0282185D01*
X0059715Y0282028D01*
X0059745Y0281870D01*
X0059771Y0281711D01*
X0059792Y0281552D01*
X0059810Y0281392D01*
X0059824Y0281232D01*
X0059834Y0281071D01*
X0059840Y0280911D01*
X0059842Y0280750D01*
X0059840Y0280589D01*
X0059834Y0280429D01*
X0059824Y0280268D01*
X0059810Y0280108D01*
X0059792Y0279948D01*
X0059771Y0279789D01*
X0059745Y0279630D01*
X0059715Y0279472D01*
X0059682Y0279315D01*
X0059644Y0279158D01*
X0059603Y0279003D01*
X0059558Y0278849D01*
X0059509Y0278696D01*
X0059456Y0278544D01*
X0059400Y0278393D01*
X0059339Y0278244D01*
X0059276Y0278096D01*
X0059208Y0277950D01*
X0059137Y0277806D01*
X0059063Y0277664D01*
X0058985Y0277523D01*
X0058903Y0277385D01*
X0058818Y0277248D01*
X0058730Y0277114D01*
X0058638Y0276982D01*
X0058543Y0276852D01*
X0058445Y0276724D01*
X0058344Y0276599D01*
X0058240Y0276477D01*
X0058133Y0276357D01*
X0058023Y0276240D01*
X0057910Y0276125D01*
X0057794Y0276014D01*
X0057675Y0275905D01*
X0057554Y0275800D01*
X0057430Y0275697D01*
X0057304Y0275597D01*
X0057176Y0275501D01*
X0057045Y0275408D01*
X0056911Y0275318D01*
X0056776Y0275231D01*
X0056638Y0275148D01*
X0056499Y0275068D01*
X0056357Y0274992D01*
X0056214Y0274919D01*
X0056069Y0274850D01*
X0055922Y0274784D01*
X0055774Y0274722D01*
X0055624Y0274664D01*
X0055473Y0274609D01*
X0055320Y0274558D01*
X0055166Y0274511D01*
X0055011Y0274468D01*
X0054855Y0274429D01*
X0054699Y0274393D01*
X0054541Y0274362D01*
X0054383Y0274334D01*
X0054224Y0274310D01*
X0054064Y0274290D01*
X0053904Y0274274D01*
X0053744Y0274262D01*
X0053583Y0274254D01*
X0053422Y0274250D01*
X0053262Y0274250D01*
X0053101Y0274254D01*
X0052940Y0274262D01*
X0052780Y0274274D01*
X0052620Y0274290D01*
X0052460Y0274310D01*
X0052301Y0274334D01*
X0052143Y0274362D01*
X0051985Y0274393D01*
X0051829Y0274429D01*
X0051673Y0274468D01*
X0051518Y0274511D01*
X0051364Y0274558D01*
X0051211Y0274609D01*
X0051060Y0274664D01*
X0050910Y0274722D01*
X0050762Y0274784D01*
X0050615Y0274850D01*
X0050470Y0274919D01*
X0050327Y0274992D01*
X0050185Y0275068D01*
X0050046Y0275148D01*
X0049908Y0275231D01*
X0049773Y0275318D01*
X0049639Y0275408D01*
X0049508Y0275501D01*
X0049380Y0275597D01*
X0049254Y0275697D01*
X0049130Y0275800D01*
X0049009Y0275905D01*
X0048890Y0276014D01*
X0048774Y0276125D01*
X0048661Y0276240D01*
X0048551Y0276357D01*
X0048444Y0276477D01*
X0048340Y0276599D01*
X0048239Y0276724D01*
X0048141Y0276852D01*
X0048046Y0276982D01*
X0047954Y0277114D01*
X0047866Y0277248D01*
X0047781Y0277385D01*
X0047699Y0277523D01*
X0047621Y0277664D01*
X0047547Y0277806D01*
X0047476Y0277950D01*
X0047408Y0278096D01*
X0047345Y0278244D01*
X0047284Y0278393D01*
X0047228Y0278544D01*
X0047175Y0278696D01*
X0047126Y0278849D01*
X0047081Y0279003D01*
X0047040Y0279158D01*
X0047002Y0279315D01*
X0046969Y0279472D01*
X0046939Y0279630D01*
X0046913Y0279789D01*
X0046892Y0279948D01*
X0046874Y0280108D01*
X0046860Y0280268D01*
X0046850Y0280429D01*
X0046844Y0280589D01*
X0046842Y0280750D01*
X0046842Y0170750D02*
X0046844Y0170911D01*
X0046850Y0171071D01*
X0046860Y0171232D01*
X0046874Y0171392D01*
X0046892Y0171552D01*
X0046913Y0171711D01*
X0046939Y0171870D01*
X0046969Y0172028D01*
X0047002Y0172185D01*
X0047040Y0172342D01*
X0047081Y0172497D01*
X0047126Y0172651D01*
X0047175Y0172804D01*
X0047228Y0172956D01*
X0047284Y0173107D01*
X0047345Y0173256D01*
X0047408Y0173404D01*
X0047476Y0173550D01*
X0047547Y0173694D01*
X0047621Y0173836D01*
X0047699Y0173977D01*
X0047781Y0174115D01*
X0047866Y0174252D01*
X0047954Y0174386D01*
X0048046Y0174518D01*
X0048141Y0174648D01*
X0048239Y0174776D01*
X0048340Y0174901D01*
X0048444Y0175023D01*
X0048551Y0175143D01*
X0048661Y0175260D01*
X0048774Y0175375D01*
X0048890Y0175486D01*
X0049009Y0175595D01*
X0049130Y0175700D01*
X0049254Y0175803D01*
X0049380Y0175903D01*
X0049508Y0175999D01*
X0049639Y0176092D01*
X0049773Y0176182D01*
X0049908Y0176269D01*
X0050046Y0176352D01*
X0050185Y0176432D01*
X0050327Y0176508D01*
X0050470Y0176581D01*
X0050615Y0176650D01*
X0050762Y0176716D01*
X0050910Y0176778D01*
X0051060Y0176836D01*
X0051211Y0176891D01*
X0051364Y0176942D01*
X0051518Y0176989D01*
X0051673Y0177032D01*
X0051829Y0177071D01*
X0051985Y0177107D01*
X0052143Y0177138D01*
X0052301Y0177166D01*
X0052460Y0177190D01*
X0052620Y0177210D01*
X0052780Y0177226D01*
X0052940Y0177238D01*
X0053101Y0177246D01*
X0053262Y0177250D01*
X0053422Y0177250D01*
X0053583Y0177246D01*
X0053744Y0177238D01*
X0053904Y0177226D01*
X0054064Y0177210D01*
X0054224Y0177190D01*
X0054383Y0177166D01*
X0054541Y0177138D01*
X0054699Y0177107D01*
X0054855Y0177071D01*
X0055011Y0177032D01*
X0055166Y0176989D01*
X0055320Y0176942D01*
X0055473Y0176891D01*
X0055624Y0176836D01*
X0055774Y0176778D01*
X0055922Y0176716D01*
X0056069Y0176650D01*
X0056214Y0176581D01*
X0056357Y0176508D01*
X0056499Y0176432D01*
X0056638Y0176352D01*
X0056776Y0176269D01*
X0056911Y0176182D01*
X0057045Y0176092D01*
X0057176Y0175999D01*
X0057304Y0175903D01*
X0057430Y0175803D01*
X0057554Y0175700D01*
X0057675Y0175595D01*
X0057794Y0175486D01*
X0057910Y0175375D01*
X0058023Y0175260D01*
X0058133Y0175143D01*
X0058240Y0175023D01*
X0058344Y0174901D01*
X0058445Y0174776D01*
X0058543Y0174648D01*
X0058638Y0174518D01*
X0058730Y0174386D01*
X0058818Y0174252D01*
X0058903Y0174115D01*
X0058985Y0173977D01*
X0059063Y0173836D01*
X0059137Y0173694D01*
X0059208Y0173550D01*
X0059276Y0173404D01*
X0059339Y0173256D01*
X0059400Y0173107D01*
X0059456Y0172956D01*
X0059509Y0172804D01*
X0059558Y0172651D01*
X0059603Y0172497D01*
X0059644Y0172342D01*
X0059682Y0172185D01*
X0059715Y0172028D01*
X0059745Y0171870D01*
X0059771Y0171711D01*
X0059792Y0171552D01*
X0059810Y0171392D01*
X0059824Y0171232D01*
X0059834Y0171071D01*
X0059840Y0170911D01*
X0059842Y0170750D01*
X0059840Y0170589D01*
X0059834Y0170429D01*
X0059824Y0170268D01*
X0059810Y0170108D01*
X0059792Y0169948D01*
X0059771Y0169789D01*
X0059745Y0169630D01*
X0059715Y0169472D01*
X0059682Y0169315D01*
X0059644Y0169158D01*
X0059603Y0169003D01*
X0059558Y0168849D01*
X0059509Y0168696D01*
X0059456Y0168544D01*
X0059400Y0168393D01*
X0059339Y0168244D01*
X0059276Y0168096D01*
X0059208Y0167950D01*
X0059137Y0167806D01*
X0059063Y0167664D01*
X0058985Y0167523D01*
X0058903Y0167385D01*
X0058818Y0167248D01*
X0058730Y0167114D01*
X0058638Y0166982D01*
X0058543Y0166852D01*
X0058445Y0166724D01*
X0058344Y0166599D01*
X0058240Y0166477D01*
X0058133Y0166357D01*
X0058023Y0166240D01*
X0057910Y0166125D01*
X0057794Y0166014D01*
X0057675Y0165905D01*
X0057554Y0165800D01*
X0057430Y0165697D01*
X0057304Y0165597D01*
X0057176Y0165501D01*
X0057045Y0165408D01*
X0056911Y0165318D01*
X0056776Y0165231D01*
X0056638Y0165148D01*
X0056499Y0165068D01*
X0056357Y0164992D01*
X0056214Y0164919D01*
X0056069Y0164850D01*
X0055922Y0164784D01*
X0055774Y0164722D01*
X0055624Y0164664D01*
X0055473Y0164609D01*
X0055320Y0164558D01*
X0055166Y0164511D01*
X0055011Y0164468D01*
X0054855Y0164429D01*
X0054699Y0164393D01*
X0054541Y0164362D01*
X0054383Y0164334D01*
X0054224Y0164310D01*
X0054064Y0164290D01*
X0053904Y0164274D01*
X0053744Y0164262D01*
X0053583Y0164254D01*
X0053422Y0164250D01*
X0053262Y0164250D01*
X0053101Y0164254D01*
X0052940Y0164262D01*
X0052780Y0164274D01*
X0052620Y0164290D01*
X0052460Y0164310D01*
X0052301Y0164334D01*
X0052143Y0164362D01*
X0051985Y0164393D01*
X0051829Y0164429D01*
X0051673Y0164468D01*
X0051518Y0164511D01*
X0051364Y0164558D01*
X0051211Y0164609D01*
X0051060Y0164664D01*
X0050910Y0164722D01*
X0050762Y0164784D01*
X0050615Y0164850D01*
X0050470Y0164919D01*
X0050327Y0164992D01*
X0050185Y0165068D01*
X0050046Y0165148D01*
X0049908Y0165231D01*
X0049773Y0165318D01*
X0049639Y0165408D01*
X0049508Y0165501D01*
X0049380Y0165597D01*
X0049254Y0165697D01*
X0049130Y0165800D01*
X0049009Y0165905D01*
X0048890Y0166014D01*
X0048774Y0166125D01*
X0048661Y0166240D01*
X0048551Y0166357D01*
X0048444Y0166477D01*
X0048340Y0166599D01*
X0048239Y0166724D01*
X0048141Y0166852D01*
X0048046Y0166982D01*
X0047954Y0167114D01*
X0047866Y0167248D01*
X0047781Y0167385D01*
X0047699Y0167523D01*
X0047621Y0167664D01*
X0047547Y0167806D01*
X0047476Y0167950D01*
X0047408Y0168096D01*
X0047345Y0168244D01*
X0047284Y0168393D01*
X0047228Y0168544D01*
X0047175Y0168696D01*
X0047126Y0168849D01*
X0047081Y0169003D01*
X0047040Y0169158D01*
X0047002Y0169315D01*
X0046969Y0169472D01*
X0046939Y0169630D01*
X0046913Y0169789D01*
X0046892Y0169948D01*
X0046874Y0170108D01*
X0046860Y0170268D01*
X0046850Y0170429D01*
X0046844Y0170589D01*
X0046842Y0170750D01*
X0046842Y0148750D02*
X0046844Y0148911D01*
X0046850Y0149071D01*
X0046860Y0149232D01*
X0046874Y0149392D01*
X0046892Y0149552D01*
X0046913Y0149711D01*
X0046939Y0149870D01*
X0046969Y0150028D01*
X0047002Y0150185D01*
X0047040Y0150342D01*
X0047081Y0150497D01*
X0047126Y0150651D01*
X0047175Y0150804D01*
X0047228Y0150956D01*
X0047284Y0151107D01*
X0047345Y0151256D01*
X0047408Y0151404D01*
X0047476Y0151550D01*
X0047547Y0151694D01*
X0047621Y0151836D01*
X0047699Y0151977D01*
X0047781Y0152115D01*
X0047866Y0152252D01*
X0047954Y0152386D01*
X0048046Y0152518D01*
X0048141Y0152648D01*
X0048239Y0152776D01*
X0048340Y0152901D01*
X0048444Y0153023D01*
X0048551Y0153143D01*
X0048661Y0153260D01*
X0048774Y0153375D01*
X0048890Y0153486D01*
X0049009Y0153595D01*
X0049130Y0153700D01*
X0049254Y0153803D01*
X0049380Y0153903D01*
X0049508Y0153999D01*
X0049639Y0154092D01*
X0049773Y0154182D01*
X0049908Y0154269D01*
X0050046Y0154352D01*
X0050185Y0154432D01*
X0050327Y0154508D01*
X0050470Y0154581D01*
X0050615Y0154650D01*
X0050762Y0154716D01*
X0050910Y0154778D01*
X0051060Y0154836D01*
X0051211Y0154891D01*
X0051364Y0154942D01*
X0051518Y0154989D01*
X0051673Y0155032D01*
X0051829Y0155071D01*
X0051985Y0155107D01*
X0052143Y0155138D01*
X0052301Y0155166D01*
X0052460Y0155190D01*
X0052620Y0155210D01*
X0052780Y0155226D01*
X0052940Y0155238D01*
X0053101Y0155246D01*
X0053262Y0155250D01*
X0053422Y0155250D01*
X0053583Y0155246D01*
X0053744Y0155238D01*
X0053904Y0155226D01*
X0054064Y0155210D01*
X0054224Y0155190D01*
X0054383Y0155166D01*
X0054541Y0155138D01*
X0054699Y0155107D01*
X0054855Y0155071D01*
X0055011Y0155032D01*
X0055166Y0154989D01*
X0055320Y0154942D01*
X0055473Y0154891D01*
X0055624Y0154836D01*
X0055774Y0154778D01*
X0055922Y0154716D01*
X0056069Y0154650D01*
X0056214Y0154581D01*
X0056357Y0154508D01*
X0056499Y0154432D01*
X0056638Y0154352D01*
X0056776Y0154269D01*
X0056911Y0154182D01*
X0057045Y0154092D01*
X0057176Y0153999D01*
X0057304Y0153903D01*
X0057430Y0153803D01*
X0057554Y0153700D01*
X0057675Y0153595D01*
X0057794Y0153486D01*
X0057910Y0153375D01*
X0058023Y0153260D01*
X0058133Y0153143D01*
X0058240Y0153023D01*
X0058344Y0152901D01*
X0058445Y0152776D01*
X0058543Y0152648D01*
X0058638Y0152518D01*
X0058730Y0152386D01*
X0058818Y0152252D01*
X0058903Y0152115D01*
X0058985Y0151977D01*
X0059063Y0151836D01*
X0059137Y0151694D01*
X0059208Y0151550D01*
X0059276Y0151404D01*
X0059339Y0151256D01*
X0059400Y0151107D01*
X0059456Y0150956D01*
X0059509Y0150804D01*
X0059558Y0150651D01*
X0059603Y0150497D01*
X0059644Y0150342D01*
X0059682Y0150185D01*
X0059715Y0150028D01*
X0059745Y0149870D01*
X0059771Y0149711D01*
X0059792Y0149552D01*
X0059810Y0149392D01*
X0059824Y0149232D01*
X0059834Y0149071D01*
X0059840Y0148911D01*
X0059842Y0148750D01*
X0059840Y0148589D01*
X0059834Y0148429D01*
X0059824Y0148268D01*
X0059810Y0148108D01*
X0059792Y0147948D01*
X0059771Y0147789D01*
X0059745Y0147630D01*
X0059715Y0147472D01*
X0059682Y0147315D01*
X0059644Y0147158D01*
X0059603Y0147003D01*
X0059558Y0146849D01*
X0059509Y0146696D01*
X0059456Y0146544D01*
X0059400Y0146393D01*
X0059339Y0146244D01*
X0059276Y0146096D01*
X0059208Y0145950D01*
X0059137Y0145806D01*
X0059063Y0145664D01*
X0058985Y0145523D01*
X0058903Y0145385D01*
X0058818Y0145248D01*
X0058730Y0145114D01*
X0058638Y0144982D01*
X0058543Y0144852D01*
X0058445Y0144724D01*
X0058344Y0144599D01*
X0058240Y0144477D01*
X0058133Y0144357D01*
X0058023Y0144240D01*
X0057910Y0144125D01*
X0057794Y0144014D01*
X0057675Y0143905D01*
X0057554Y0143800D01*
X0057430Y0143697D01*
X0057304Y0143597D01*
X0057176Y0143501D01*
X0057045Y0143408D01*
X0056911Y0143318D01*
X0056776Y0143231D01*
X0056638Y0143148D01*
X0056499Y0143068D01*
X0056357Y0142992D01*
X0056214Y0142919D01*
X0056069Y0142850D01*
X0055922Y0142784D01*
X0055774Y0142722D01*
X0055624Y0142664D01*
X0055473Y0142609D01*
X0055320Y0142558D01*
X0055166Y0142511D01*
X0055011Y0142468D01*
X0054855Y0142429D01*
X0054699Y0142393D01*
X0054541Y0142362D01*
X0054383Y0142334D01*
X0054224Y0142310D01*
X0054064Y0142290D01*
X0053904Y0142274D01*
X0053744Y0142262D01*
X0053583Y0142254D01*
X0053422Y0142250D01*
X0053262Y0142250D01*
X0053101Y0142254D01*
X0052940Y0142262D01*
X0052780Y0142274D01*
X0052620Y0142290D01*
X0052460Y0142310D01*
X0052301Y0142334D01*
X0052143Y0142362D01*
X0051985Y0142393D01*
X0051829Y0142429D01*
X0051673Y0142468D01*
X0051518Y0142511D01*
X0051364Y0142558D01*
X0051211Y0142609D01*
X0051060Y0142664D01*
X0050910Y0142722D01*
X0050762Y0142784D01*
X0050615Y0142850D01*
X0050470Y0142919D01*
X0050327Y0142992D01*
X0050185Y0143068D01*
X0050046Y0143148D01*
X0049908Y0143231D01*
X0049773Y0143318D01*
X0049639Y0143408D01*
X0049508Y0143501D01*
X0049380Y0143597D01*
X0049254Y0143697D01*
X0049130Y0143800D01*
X0049009Y0143905D01*
X0048890Y0144014D01*
X0048774Y0144125D01*
X0048661Y0144240D01*
X0048551Y0144357D01*
X0048444Y0144477D01*
X0048340Y0144599D01*
X0048239Y0144724D01*
X0048141Y0144852D01*
X0048046Y0144982D01*
X0047954Y0145114D01*
X0047866Y0145248D01*
X0047781Y0145385D01*
X0047699Y0145523D01*
X0047621Y0145664D01*
X0047547Y0145806D01*
X0047476Y0145950D01*
X0047408Y0146096D01*
X0047345Y0146244D01*
X0047284Y0146393D01*
X0047228Y0146544D01*
X0047175Y0146696D01*
X0047126Y0146849D01*
X0047081Y0147003D01*
X0047040Y0147158D01*
X0047002Y0147315D01*
X0046969Y0147472D01*
X0046939Y0147630D01*
X0046913Y0147789D01*
X0046892Y0147948D01*
X0046874Y0148108D01*
X0046860Y0148268D01*
X0046850Y0148429D01*
X0046844Y0148589D01*
X0046842Y0148750D01*
X0046842Y0038750D02*
X0046844Y0038911D01*
X0046850Y0039071D01*
X0046860Y0039232D01*
X0046874Y0039392D01*
X0046892Y0039552D01*
X0046913Y0039711D01*
X0046939Y0039870D01*
X0046969Y0040028D01*
X0047002Y0040185D01*
X0047040Y0040342D01*
X0047081Y0040497D01*
X0047126Y0040651D01*
X0047175Y0040804D01*
X0047228Y0040956D01*
X0047284Y0041107D01*
X0047345Y0041256D01*
X0047408Y0041404D01*
X0047476Y0041550D01*
X0047547Y0041694D01*
X0047621Y0041836D01*
X0047699Y0041977D01*
X0047781Y0042115D01*
X0047866Y0042252D01*
X0047954Y0042386D01*
X0048046Y0042518D01*
X0048141Y0042648D01*
X0048239Y0042776D01*
X0048340Y0042901D01*
X0048444Y0043023D01*
X0048551Y0043143D01*
X0048661Y0043260D01*
X0048774Y0043375D01*
X0048890Y0043486D01*
X0049009Y0043595D01*
X0049130Y0043700D01*
X0049254Y0043803D01*
X0049380Y0043903D01*
X0049508Y0043999D01*
X0049639Y0044092D01*
X0049773Y0044182D01*
X0049908Y0044269D01*
X0050046Y0044352D01*
X0050185Y0044432D01*
X0050327Y0044508D01*
X0050470Y0044581D01*
X0050615Y0044650D01*
X0050762Y0044716D01*
X0050910Y0044778D01*
X0051060Y0044836D01*
X0051211Y0044891D01*
X0051364Y0044942D01*
X0051518Y0044989D01*
X0051673Y0045032D01*
X0051829Y0045071D01*
X0051985Y0045107D01*
X0052143Y0045138D01*
X0052301Y0045166D01*
X0052460Y0045190D01*
X0052620Y0045210D01*
X0052780Y0045226D01*
X0052940Y0045238D01*
X0053101Y0045246D01*
X0053262Y0045250D01*
X0053422Y0045250D01*
X0053583Y0045246D01*
X0053744Y0045238D01*
X0053904Y0045226D01*
X0054064Y0045210D01*
X0054224Y0045190D01*
X0054383Y0045166D01*
X0054541Y0045138D01*
X0054699Y0045107D01*
X0054855Y0045071D01*
X0055011Y0045032D01*
X0055166Y0044989D01*
X0055320Y0044942D01*
X0055473Y0044891D01*
X0055624Y0044836D01*
X0055774Y0044778D01*
X0055922Y0044716D01*
X0056069Y0044650D01*
X0056214Y0044581D01*
X0056357Y0044508D01*
X0056499Y0044432D01*
X0056638Y0044352D01*
X0056776Y0044269D01*
X0056911Y0044182D01*
X0057045Y0044092D01*
X0057176Y0043999D01*
X0057304Y0043903D01*
X0057430Y0043803D01*
X0057554Y0043700D01*
X0057675Y0043595D01*
X0057794Y0043486D01*
X0057910Y0043375D01*
X0058023Y0043260D01*
X0058133Y0043143D01*
X0058240Y0043023D01*
X0058344Y0042901D01*
X0058445Y0042776D01*
X0058543Y0042648D01*
X0058638Y0042518D01*
X0058730Y0042386D01*
X0058818Y0042252D01*
X0058903Y0042115D01*
X0058985Y0041977D01*
X0059063Y0041836D01*
X0059137Y0041694D01*
X0059208Y0041550D01*
X0059276Y0041404D01*
X0059339Y0041256D01*
X0059400Y0041107D01*
X0059456Y0040956D01*
X0059509Y0040804D01*
X0059558Y0040651D01*
X0059603Y0040497D01*
X0059644Y0040342D01*
X0059682Y0040185D01*
X0059715Y0040028D01*
X0059745Y0039870D01*
X0059771Y0039711D01*
X0059792Y0039552D01*
X0059810Y0039392D01*
X0059824Y0039232D01*
X0059834Y0039071D01*
X0059840Y0038911D01*
X0059842Y0038750D01*
X0059840Y0038589D01*
X0059834Y0038429D01*
X0059824Y0038268D01*
X0059810Y0038108D01*
X0059792Y0037948D01*
X0059771Y0037789D01*
X0059745Y0037630D01*
X0059715Y0037472D01*
X0059682Y0037315D01*
X0059644Y0037158D01*
X0059603Y0037003D01*
X0059558Y0036849D01*
X0059509Y0036696D01*
X0059456Y0036544D01*
X0059400Y0036393D01*
X0059339Y0036244D01*
X0059276Y0036096D01*
X0059208Y0035950D01*
X0059137Y0035806D01*
X0059063Y0035664D01*
X0058985Y0035523D01*
X0058903Y0035385D01*
X0058818Y0035248D01*
X0058730Y0035114D01*
X0058638Y0034982D01*
X0058543Y0034852D01*
X0058445Y0034724D01*
X0058344Y0034599D01*
X0058240Y0034477D01*
X0058133Y0034357D01*
X0058023Y0034240D01*
X0057910Y0034125D01*
X0057794Y0034014D01*
X0057675Y0033905D01*
X0057554Y0033800D01*
X0057430Y0033697D01*
X0057304Y0033597D01*
X0057176Y0033501D01*
X0057045Y0033408D01*
X0056911Y0033318D01*
X0056776Y0033231D01*
X0056638Y0033148D01*
X0056499Y0033068D01*
X0056357Y0032992D01*
X0056214Y0032919D01*
X0056069Y0032850D01*
X0055922Y0032784D01*
X0055774Y0032722D01*
X0055624Y0032664D01*
X0055473Y0032609D01*
X0055320Y0032558D01*
X0055166Y0032511D01*
X0055011Y0032468D01*
X0054855Y0032429D01*
X0054699Y0032393D01*
X0054541Y0032362D01*
X0054383Y0032334D01*
X0054224Y0032310D01*
X0054064Y0032290D01*
X0053904Y0032274D01*
X0053744Y0032262D01*
X0053583Y0032254D01*
X0053422Y0032250D01*
X0053262Y0032250D01*
X0053101Y0032254D01*
X0052940Y0032262D01*
X0052780Y0032274D01*
X0052620Y0032290D01*
X0052460Y0032310D01*
X0052301Y0032334D01*
X0052143Y0032362D01*
X0051985Y0032393D01*
X0051829Y0032429D01*
X0051673Y0032468D01*
X0051518Y0032511D01*
X0051364Y0032558D01*
X0051211Y0032609D01*
X0051060Y0032664D01*
X0050910Y0032722D01*
X0050762Y0032784D01*
X0050615Y0032850D01*
X0050470Y0032919D01*
X0050327Y0032992D01*
X0050185Y0033068D01*
X0050046Y0033148D01*
X0049908Y0033231D01*
X0049773Y0033318D01*
X0049639Y0033408D01*
X0049508Y0033501D01*
X0049380Y0033597D01*
X0049254Y0033697D01*
X0049130Y0033800D01*
X0049009Y0033905D01*
X0048890Y0034014D01*
X0048774Y0034125D01*
X0048661Y0034240D01*
X0048551Y0034357D01*
X0048444Y0034477D01*
X0048340Y0034599D01*
X0048239Y0034724D01*
X0048141Y0034852D01*
X0048046Y0034982D01*
X0047954Y0035114D01*
X0047866Y0035248D01*
X0047781Y0035385D01*
X0047699Y0035523D01*
X0047621Y0035664D01*
X0047547Y0035806D01*
X0047476Y0035950D01*
X0047408Y0036096D01*
X0047345Y0036244D01*
X0047284Y0036393D01*
X0047228Y0036544D01*
X0047175Y0036696D01*
X0047126Y0036849D01*
X0047081Y0037003D01*
X0047040Y0037158D01*
X0047002Y0037315D01*
X0046969Y0037472D01*
X0046939Y0037630D01*
X0046913Y0037789D01*
X0046892Y0037948D01*
X0046874Y0038108D01*
X0046860Y0038268D01*
X0046850Y0038429D01*
X0046844Y0038589D01*
X0046842Y0038750D01*
X0186842Y0038750D02*
X0186844Y0038911D01*
X0186850Y0039071D01*
X0186860Y0039232D01*
X0186874Y0039392D01*
X0186892Y0039552D01*
X0186913Y0039711D01*
X0186939Y0039870D01*
X0186969Y0040028D01*
X0187002Y0040185D01*
X0187040Y0040342D01*
X0187081Y0040497D01*
X0187126Y0040651D01*
X0187175Y0040804D01*
X0187228Y0040956D01*
X0187284Y0041107D01*
X0187345Y0041256D01*
X0187408Y0041404D01*
X0187476Y0041550D01*
X0187547Y0041694D01*
X0187621Y0041836D01*
X0187699Y0041977D01*
X0187781Y0042115D01*
X0187866Y0042252D01*
X0187954Y0042386D01*
X0188046Y0042518D01*
X0188141Y0042648D01*
X0188239Y0042776D01*
X0188340Y0042901D01*
X0188444Y0043023D01*
X0188551Y0043143D01*
X0188661Y0043260D01*
X0188774Y0043375D01*
X0188890Y0043486D01*
X0189009Y0043595D01*
X0189130Y0043700D01*
X0189254Y0043803D01*
X0189380Y0043903D01*
X0189508Y0043999D01*
X0189639Y0044092D01*
X0189773Y0044182D01*
X0189908Y0044269D01*
X0190046Y0044352D01*
X0190185Y0044432D01*
X0190327Y0044508D01*
X0190470Y0044581D01*
X0190615Y0044650D01*
X0190762Y0044716D01*
X0190910Y0044778D01*
X0191060Y0044836D01*
X0191211Y0044891D01*
X0191364Y0044942D01*
X0191518Y0044989D01*
X0191673Y0045032D01*
X0191829Y0045071D01*
X0191985Y0045107D01*
X0192143Y0045138D01*
X0192301Y0045166D01*
X0192460Y0045190D01*
X0192620Y0045210D01*
X0192780Y0045226D01*
X0192940Y0045238D01*
X0193101Y0045246D01*
X0193262Y0045250D01*
X0193422Y0045250D01*
X0193583Y0045246D01*
X0193744Y0045238D01*
X0193904Y0045226D01*
X0194064Y0045210D01*
X0194224Y0045190D01*
X0194383Y0045166D01*
X0194541Y0045138D01*
X0194699Y0045107D01*
X0194855Y0045071D01*
X0195011Y0045032D01*
X0195166Y0044989D01*
X0195320Y0044942D01*
X0195473Y0044891D01*
X0195624Y0044836D01*
X0195774Y0044778D01*
X0195922Y0044716D01*
X0196069Y0044650D01*
X0196214Y0044581D01*
X0196357Y0044508D01*
X0196499Y0044432D01*
X0196638Y0044352D01*
X0196776Y0044269D01*
X0196911Y0044182D01*
X0197045Y0044092D01*
X0197176Y0043999D01*
X0197304Y0043903D01*
X0197430Y0043803D01*
X0197554Y0043700D01*
X0197675Y0043595D01*
X0197794Y0043486D01*
X0197910Y0043375D01*
X0198023Y0043260D01*
X0198133Y0043143D01*
X0198240Y0043023D01*
X0198344Y0042901D01*
X0198445Y0042776D01*
X0198543Y0042648D01*
X0198638Y0042518D01*
X0198730Y0042386D01*
X0198818Y0042252D01*
X0198903Y0042115D01*
X0198985Y0041977D01*
X0199063Y0041836D01*
X0199137Y0041694D01*
X0199208Y0041550D01*
X0199276Y0041404D01*
X0199339Y0041256D01*
X0199400Y0041107D01*
X0199456Y0040956D01*
X0199509Y0040804D01*
X0199558Y0040651D01*
X0199603Y0040497D01*
X0199644Y0040342D01*
X0199682Y0040185D01*
X0199715Y0040028D01*
X0199745Y0039870D01*
X0199771Y0039711D01*
X0199792Y0039552D01*
X0199810Y0039392D01*
X0199824Y0039232D01*
X0199834Y0039071D01*
X0199840Y0038911D01*
X0199842Y0038750D01*
X0199840Y0038589D01*
X0199834Y0038429D01*
X0199824Y0038268D01*
X0199810Y0038108D01*
X0199792Y0037948D01*
X0199771Y0037789D01*
X0199745Y0037630D01*
X0199715Y0037472D01*
X0199682Y0037315D01*
X0199644Y0037158D01*
X0199603Y0037003D01*
X0199558Y0036849D01*
X0199509Y0036696D01*
X0199456Y0036544D01*
X0199400Y0036393D01*
X0199339Y0036244D01*
X0199276Y0036096D01*
X0199208Y0035950D01*
X0199137Y0035806D01*
X0199063Y0035664D01*
X0198985Y0035523D01*
X0198903Y0035385D01*
X0198818Y0035248D01*
X0198730Y0035114D01*
X0198638Y0034982D01*
X0198543Y0034852D01*
X0198445Y0034724D01*
X0198344Y0034599D01*
X0198240Y0034477D01*
X0198133Y0034357D01*
X0198023Y0034240D01*
X0197910Y0034125D01*
X0197794Y0034014D01*
X0197675Y0033905D01*
X0197554Y0033800D01*
X0197430Y0033697D01*
X0197304Y0033597D01*
X0197176Y0033501D01*
X0197045Y0033408D01*
X0196911Y0033318D01*
X0196776Y0033231D01*
X0196638Y0033148D01*
X0196499Y0033068D01*
X0196357Y0032992D01*
X0196214Y0032919D01*
X0196069Y0032850D01*
X0195922Y0032784D01*
X0195774Y0032722D01*
X0195624Y0032664D01*
X0195473Y0032609D01*
X0195320Y0032558D01*
X0195166Y0032511D01*
X0195011Y0032468D01*
X0194855Y0032429D01*
X0194699Y0032393D01*
X0194541Y0032362D01*
X0194383Y0032334D01*
X0194224Y0032310D01*
X0194064Y0032290D01*
X0193904Y0032274D01*
X0193744Y0032262D01*
X0193583Y0032254D01*
X0193422Y0032250D01*
X0193262Y0032250D01*
X0193101Y0032254D01*
X0192940Y0032262D01*
X0192780Y0032274D01*
X0192620Y0032290D01*
X0192460Y0032310D01*
X0192301Y0032334D01*
X0192143Y0032362D01*
X0191985Y0032393D01*
X0191829Y0032429D01*
X0191673Y0032468D01*
X0191518Y0032511D01*
X0191364Y0032558D01*
X0191211Y0032609D01*
X0191060Y0032664D01*
X0190910Y0032722D01*
X0190762Y0032784D01*
X0190615Y0032850D01*
X0190470Y0032919D01*
X0190327Y0032992D01*
X0190185Y0033068D01*
X0190046Y0033148D01*
X0189908Y0033231D01*
X0189773Y0033318D01*
X0189639Y0033408D01*
X0189508Y0033501D01*
X0189380Y0033597D01*
X0189254Y0033697D01*
X0189130Y0033800D01*
X0189009Y0033905D01*
X0188890Y0034014D01*
X0188774Y0034125D01*
X0188661Y0034240D01*
X0188551Y0034357D01*
X0188444Y0034477D01*
X0188340Y0034599D01*
X0188239Y0034724D01*
X0188141Y0034852D01*
X0188046Y0034982D01*
X0187954Y0035114D01*
X0187866Y0035248D01*
X0187781Y0035385D01*
X0187699Y0035523D01*
X0187621Y0035664D01*
X0187547Y0035806D01*
X0187476Y0035950D01*
X0187408Y0036096D01*
X0187345Y0036244D01*
X0187284Y0036393D01*
X0187228Y0036544D01*
X0187175Y0036696D01*
X0187126Y0036849D01*
X0187081Y0037003D01*
X0187040Y0037158D01*
X0187002Y0037315D01*
X0186969Y0037472D01*
X0186939Y0037630D01*
X0186913Y0037789D01*
X0186892Y0037948D01*
X0186874Y0038108D01*
X0186860Y0038268D01*
X0186850Y0038429D01*
X0186844Y0038589D01*
X0186842Y0038750D01*
X0208842Y0038750D02*
X0208844Y0038911D01*
X0208850Y0039071D01*
X0208860Y0039232D01*
X0208874Y0039392D01*
X0208892Y0039552D01*
X0208913Y0039711D01*
X0208939Y0039870D01*
X0208969Y0040028D01*
X0209002Y0040185D01*
X0209040Y0040342D01*
X0209081Y0040497D01*
X0209126Y0040651D01*
X0209175Y0040804D01*
X0209228Y0040956D01*
X0209284Y0041107D01*
X0209345Y0041256D01*
X0209408Y0041404D01*
X0209476Y0041550D01*
X0209547Y0041694D01*
X0209621Y0041836D01*
X0209699Y0041977D01*
X0209781Y0042115D01*
X0209866Y0042252D01*
X0209954Y0042386D01*
X0210046Y0042518D01*
X0210141Y0042648D01*
X0210239Y0042776D01*
X0210340Y0042901D01*
X0210444Y0043023D01*
X0210551Y0043143D01*
X0210661Y0043260D01*
X0210774Y0043375D01*
X0210890Y0043486D01*
X0211009Y0043595D01*
X0211130Y0043700D01*
X0211254Y0043803D01*
X0211380Y0043903D01*
X0211508Y0043999D01*
X0211639Y0044092D01*
X0211773Y0044182D01*
X0211908Y0044269D01*
X0212046Y0044352D01*
X0212185Y0044432D01*
X0212327Y0044508D01*
X0212470Y0044581D01*
X0212615Y0044650D01*
X0212762Y0044716D01*
X0212910Y0044778D01*
X0213060Y0044836D01*
X0213211Y0044891D01*
X0213364Y0044942D01*
X0213518Y0044989D01*
X0213673Y0045032D01*
X0213829Y0045071D01*
X0213985Y0045107D01*
X0214143Y0045138D01*
X0214301Y0045166D01*
X0214460Y0045190D01*
X0214620Y0045210D01*
X0214780Y0045226D01*
X0214940Y0045238D01*
X0215101Y0045246D01*
X0215262Y0045250D01*
X0215422Y0045250D01*
X0215583Y0045246D01*
X0215744Y0045238D01*
X0215904Y0045226D01*
X0216064Y0045210D01*
X0216224Y0045190D01*
X0216383Y0045166D01*
X0216541Y0045138D01*
X0216699Y0045107D01*
X0216855Y0045071D01*
X0217011Y0045032D01*
X0217166Y0044989D01*
X0217320Y0044942D01*
X0217473Y0044891D01*
X0217624Y0044836D01*
X0217774Y0044778D01*
X0217922Y0044716D01*
X0218069Y0044650D01*
X0218214Y0044581D01*
X0218357Y0044508D01*
X0218499Y0044432D01*
X0218638Y0044352D01*
X0218776Y0044269D01*
X0218911Y0044182D01*
X0219045Y0044092D01*
X0219176Y0043999D01*
X0219304Y0043903D01*
X0219430Y0043803D01*
X0219554Y0043700D01*
X0219675Y0043595D01*
X0219794Y0043486D01*
X0219910Y0043375D01*
X0220023Y0043260D01*
X0220133Y0043143D01*
X0220240Y0043023D01*
X0220344Y0042901D01*
X0220445Y0042776D01*
X0220543Y0042648D01*
X0220638Y0042518D01*
X0220730Y0042386D01*
X0220818Y0042252D01*
X0220903Y0042115D01*
X0220985Y0041977D01*
X0221063Y0041836D01*
X0221137Y0041694D01*
X0221208Y0041550D01*
X0221276Y0041404D01*
X0221339Y0041256D01*
X0221400Y0041107D01*
X0221456Y0040956D01*
X0221509Y0040804D01*
X0221558Y0040651D01*
X0221603Y0040497D01*
X0221644Y0040342D01*
X0221682Y0040185D01*
X0221715Y0040028D01*
X0221745Y0039870D01*
X0221771Y0039711D01*
X0221792Y0039552D01*
X0221810Y0039392D01*
X0221824Y0039232D01*
X0221834Y0039071D01*
X0221840Y0038911D01*
X0221842Y0038750D01*
X0221840Y0038589D01*
X0221834Y0038429D01*
X0221824Y0038268D01*
X0221810Y0038108D01*
X0221792Y0037948D01*
X0221771Y0037789D01*
X0221745Y0037630D01*
X0221715Y0037472D01*
X0221682Y0037315D01*
X0221644Y0037158D01*
X0221603Y0037003D01*
X0221558Y0036849D01*
X0221509Y0036696D01*
X0221456Y0036544D01*
X0221400Y0036393D01*
X0221339Y0036244D01*
X0221276Y0036096D01*
X0221208Y0035950D01*
X0221137Y0035806D01*
X0221063Y0035664D01*
X0220985Y0035523D01*
X0220903Y0035385D01*
X0220818Y0035248D01*
X0220730Y0035114D01*
X0220638Y0034982D01*
X0220543Y0034852D01*
X0220445Y0034724D01*
X0220344Y0034599D01*
X0220240Y0034477D01*
X0220133Y0034357D01*
X0220023Y0034240D01*
X0219910Y0034125D01*
X0219794Y0034014D01*
X0219675Y0033905D01*
X0219554Y0033800D01*
X0219430Y0033697D01*
X0219304Y0033597D01*
X0219176Y0033501D01*
X0219045Y0033408D01*
X0218911Y0033318D01*
X0218776Y0033231D01*
X0218638Y0033148D01*
X0218499Y0033068D01*
X0218357Y0032992D01*
X0218214Y0032919D01*
X0218069Y0032850D01*
X0217922Y0032784D01*
X0217774Y0032722D01*
X0217624Y0032664D01*
X0217473Y0032609D01*
X0217320Y0032558D01*
X0217166Y0032511D01*
X0217011Y0032468D01*
X0216855Y0032429D01*
X0216699Y0032393D01*
X0216541Y0032362D01*
X0216383Y0032334D01*
X0216224Y0032310D01*
X0216064Y0032290D01*
X0215904Y0032274D01*
X0215744Y0032262D01*
X0215583Y0032254D01*
X0215422Y0032250D01*
X0215262Y0032250D01*
X0215101Y0032254D01*
X0214940Y0032262D01*
X0214780Y0032274D01*
X0214620Y0032290D01*
X0214460Y0032310D01*
X0214301Y0032334D01*
X0214143Y0032362D01*
X0213985Y0032393D01*
X0213829Y0032429D01*
X0213673Y0032468D01*
X0213518Y0032511D01*
X0213364Y0032558D01*
X0213211Y0032609D01*
X0213060Y0032664D01*
X0212910Y0032722D01*
X0212762Y0032784D01*
X0212615Y0032850D01*
X0212470Y0032919D01*
X0212327Y0032992D01*
X0212185Y0033068D01*
X0212046Y0033148D01*
X0211908Y0033231D01*
X0211773Y0033318D01*
X0211639Y0033408D01*
X0211508Y0033501D01*
X0211380Y0033597D01*
X0211254Y0033697D01*
X0211130Y0033800D01*
X0211009Y0033905D01*
X0210890Y0034014D01*
X0210774Y0034125D01*
X0210661Y0034240D01*
X0210551Y0034357D01*
X0210444Y0034477D01*
X0210340Y0034599D01*
X0210239Y0034724D01*
X0210141Y0034852D01*
X0210046Y0034982D01*
X0209954Y0035114D01*
X0209866Y0035248D01*
X0209781Y0035385D01*
X0209699Y0035523D01*
X0209621Y0035664D01*
X0209547Y0035806D01*
X0209476Y0035950D01*
X0209408Y0036096D01*
X0209345Y0036244D01*
X0209284Y0036393D01*
X0209228Y0036544D01*
X0209175Y0036696D01*
X0209126Y0036849D01*
X0209081Y0037003D01*
X0209040Y0037158D01*
X0209002Y0037315D01*
X0208969Y0037472D01*
X0208939Y0037630D01*
X0208913Y0037789D01*
X0208892Y0037948D01*
X0208874Y0038108D01*
X0208860Y0038268D01*
X0208850Y0038429D01*
X0208844Y0038589D01*
X0208842Y0038750D01*
X0208842Y0148750D02*
X0208844Y0148911D01*
X0208850Y0149071D01*
X0208860Y0149232D01*
X0208874Y0149392D01*
X0208892Y0149552D01*
X0208913Y0149711D01*
X0208939Y0149870D01*
X0208969Y0150028D01*
X0209002Y0150185D01*
X0209040Y0150342D01*
X0209081Y0150497D01*
X0209126Y0150651D01*
X0209175Y0150804D01*
X0209228Y0150956D01*
X0209284Y0151107D01*
X0209345Y0151256D01*
X0209408Y0151404D01*
X0209476Y0151550D01*
X0209547Y0151694D01*
X0209621Y0151836D01*
X0209699Y0151977D01*
X0209781Y0152115D01*
X0209866Y0152252D01*
X0209954Y0152386D01*
X0210046Y0152518D01*
X0210141Y0152648D01*
X0210239Y0152776D01*
X0210340Y0152901D01*
X0210444Y0153023D01*
X0210551Y0153143D01*
X0210661Y0153260D01*
X0210774Y0153375D01*
X0210890Y0153486D01*
X0211009Y0153595D01*
X0211130Y0153700D01*
X0211254Y0153803D01*
X0211380Y0153903D01*
X0211508Y0153999D01*
X0211639Y0154092D01*
X0211773Y0154182D01*
X0211908Y0154269D01*
X0212046Y0154352D01*
X0212185Y0154432D01*
X0212327Y0154508D01*
X0212470Y0154581D01*
X0212615Y0154650D01*
X0212762Y0154716D01*
X0212910Y0154778D01*
X0213060Y0154836D01*
X0213211Y0154891D01*
X0213364Y0154942D01*
X0213518Y0154989D01*
X0213673Y0155032D01*
X0213829Y0155071D01*
X0213985Y0155107D01*
X0214143Y0155138D01*
X0214301Y0155166D01*
X0214460Y0155190D01*
X0214620Y0155210D01*
X0214780Y0155226D01*
X0214940Y0155238D01*
X0215101Y0155246D01*
X0215262Y0155250D01*
X0215422Y0155250D01*
X0215583Y0155246D01*
X0215744Y0155238D01*
X0215904Y0155226D01*
X0216064Y0155210D01*
X0216224Y0155190D01*
X0216383Y0155166D01*
X0216541Y0155138D01*
X0216699Y0155107D01*
X0216855Y0155071D01*
X0217011Y0155032D01*
X0217166Y0154989D01*
X0217320Y0154942D01*
X0217473Y0154891D01*
X0217624Y0154836D01*
X0217774Y0154778D01*
X0217922Y0154716D01*
X0218069Y0154650D01*
X0218214Y0154581D01*
X0218357Y0154508D01*
X0218499Y0154432D01*
X0218638Y0154352D01*
X0218776Y0154269D01*
X0218911Y0154182D01*
X0219045Y0154092D01*
X0219176Y0153999D01*
X0219304Y0153903D01*
X0219430Y0153803D01*
X0219554Y0153700D01*
X0219675Y0153595D01*
X0219794Y0153486D01*
X0219910Y0153375D01*
X0220023Y0153260D01*
X0220133Y0153143D01*
X0220240Y0153023D01*
X0220344Y0152901D01*
X0220445Y0152776D01*
X0220543Y0152648D01*
X0220638Y0152518D01*
X0220730Y0152386D01*
X0220818Y0152252D01*
X0220903Y0152115D01*
X0220985Y0151977D01*
X0221063Y0151836D01*
X0221137Y0151694D01*
X0221208Y0151550D01*
X0221276Y0151404D01*
X0221339Y0151256D01*
X0221400Y0151107D01*
X0221456Y0150956D01*
X0221509Y0150804D01*
X0221558Y0150651D01*
X0221603Y0150497D01*
X0221644Y0150342D01*
X0221682Y0150185D01*
X0221715Y0150028D01*
X0221745Y0149870D01*
X0221771Y0149711D01*
X0221792Y0149552D01*
X0221810Y0149392D01*
X0221824Y0149232D01*
X0221834Y0149071D01*
X0221840Y0148911D01*
X0221842Y0148750D01*
X0221840Y0148589D01*
X0221834Y0148429D01*
X0221824Y0148268D01*
X0221810Y0148108D01*
X0221792Y0147948D01*
X0221771Y0147789D01*
X0221745Y0147630D01*
X0221715Y0147472D01*
X0221682Y0147315D01*
X0221644Y0147158D01*
X0221603Y0147003D01*
X0221558Y0146849D01*
X0221509Y0146696D01*
X0221456Y0146544D01*
X0221400Y0146393D01*
X0221339Y0146244D01*
X0221276Y0146096D01*
X0221208Y0145950D01*
X0221137Y0145806D01*
X0221063Y0145664D01*
X0220985Y0145523D01*
X0220903Y0145385D01*
X0220818Y0145248D01*
X0220730Y0145114D01*
X0220638Y0144982D01*
X0220543Y0144852D01*
X0220445Y0144724D01*
X0220344Y0144599D01*
X0220240Y0144477D01*
X0220133Y0144357D01*
X0220023Y0144240D01*
X0219910Y0144125D01*
X0219794Y0144014D01*
X0219675Y0143905D01*
X0219554Y0143800D01*
X0219430Y0143697D01*
X0219304Y0143597D01*
X0219176Y0143501D01*
X0219045Y0143408D01*
X0218911Y0143318D01*
X0218776Y0143231D01*
X0218638Y0143148D01*
X0218499Y0143068D01*
X0218357Y0142992D01*
X0218214Y0142919D01*
X0218069Y0142850D01*
X0217922Y0142784D01*
X0217774Y0142722D01*
X0217624Y0142664D01*
X0217473Y0142609D01*
X0217320Y0142558D01*
X0217166Y0142511D01*
X0217011Y0142468D01*
X0216855Y0142429D01*
X0216699Y0142393D01*
X0216541Y0142362D01*
X0216383Y0142334D01*
X0216224Y0142310D01*
X0216064Y0142290D01*
X0215904Y0142274D01*
X0215744Y0142262D01*
X0215583Y0142254D01*
X0215422Y0142250D01*
X0215262Y0142250D01*
X0215101Y0142254D01*
X0214940Y0142262D01*
X0214780Y0142274D01*
X0214620Y0142290D01*
X0214460Y0142310D01*
X0214301Y0142334D01*
X0214143Y0142362D01*
X0213985Y0142393D01*
X0213829Y0142429D01*
X0213673Y0142468D01*
X0213518Y0142511D01*
X0213364Y0142558D01*
X0213211Y0142609D01*
X0213060Y0142664D01*
X0212910Y0142722D01*
X0212762Y0142784D01*
X0212615Y0142850D01*
X0212470Y0142919D01*
X0212327Y0142992D01*
X0212185Y0143068D01*
X0212046Y0143148D01*
X0211908Y0143231D01*
X0211773Y0143318D01*
X0211639Y0143408D01*
X0211508Y0143501D01*
X0211380Y0143597D01*
X0211254Y0143697D01*
X0211130Y0143800D01*
X0211009Y0143905D01*
X0210890Y0144014D01*
X0210774Y0144125D01*
X0210661Y0144240D01*
X0210551Y0144357D01*
X0210444Y0144477D01*
X0210340Y0144599D01*
X0210239Y0144724D01*
X0210141Y0144852D01*
X0210046Y0144982D01*
X0209954Y0145114D01*
X0209866Y0145248D01*
X0209781Y0145385D01*
X0209699Y0145523D01*
X0209621Y0145664D01*
X0209547Y0145806D01*
X0209476Y0145950D01*
X0209408Y0146096D01*
X0209345Y0146244D01*
X0209284Y0146393D01*
X0209228Y0146544D01*
X0209175Y0146696D01*
X0209126Y0146849D01*
X0209081Y0147003D01*
X0209040Y0147158D01*
X0209002Y0147315D01*
X0208969Y0147472D01*
X0208939Y0147630D01*
X0208913Y0147789D01*
X0208892Y0147948D01*
X0208874Y0148108D01*
X0208860Y0148268D01*
X0208850Y0148429D01*
X0208844Y0148589D01*
X0208842Y0148750D01*
X0186842Y0148750D02*
X0186844Y0148911D01*
X0186850Y0149071D01*
X0186860Y0149232D01*
X0186874Y0149392D01*
X0186892Y0149552D01*
X0186913Y0149711D01*
X0186939Y0149870D01*
X0186969Y0150028D01*
X0187002Y0150185D01*
X0187040Y0150342D01*
X0187081Y0150497D01*
X0187126Y0150651D01*
X0187175Y0150804D01*
X0187228Y0150956D01*
X0187284Y0151107D01*
X0187345Y0151256D01*
X0187408Y0151404D01*
X0187476Y0151550D01*
X0187547Y0151694D01*
X0187621Y0151836D01*
X0187699Y0151977D01*
X0187781Y0152115D01*
X0187866Y0152252D01*
X0187954Y0152386D01*
X0188046Y0152518D01*
X0188141Y0152648D01*
X0188239Y0152776D01*
X0188340Y0152901D01*
X0188444Y0153023D01*
X0188551Y0153143D01*
X0188661Y0153260D01*
X0188774Y0153375D01*
X0188890Y0153486D01*
X0189009Y0153595D01*
X0189130Y0153700D01*
X0189254Y0153803D01*
X0189380Y0153903D01*
X0189508Y0153999D01*
X0189639Y0154092D01*
X0189773Y0154182D01*
X0189908Y0154269D01*
X0190046Y0154352D01*
X0190185Y0154432D01*
X0190327Y0154508D01*
X0190470Y0154581D01*
X0190615Y0154650D01*
X0190762Y0154716D01*
X0190910Y0154778D01*
X0191060Y0154836D01*
X0191211Y0154891D01*
X0191364Y0154942D01*
X0191518Y0154989D01*
X0191673Y0155032D01*
X0191829Y0155071D01*
X0191985Y0155107D01*
X0192143Y0155138D01*
X0192301Y0155166D01*
X0192460Y0155190D01*
X0192620Y0155210D01*
X0192780Y0155226D01*
X0192940Y0155238D01*
X0193101Y0155246D01*
X0193262Y0155250D01*
X0193422Y0155250D01*
X0193583Y0155246D01*
X0193744Y0155238D01*
X0193904Y0155226D01*
X0194064Y0155210D01*
X0194224Y0155190D01*
X0194383Y0155166D01*
X0194541Y0155138D01*
X0194699Y0155107D01*
X0194855Y0155071D01*
X0195011Y0155032D01*
X0195166Y0154989D01*
X0195320Y0154942D01*
X0195473Y0154891D01*
X0195624Y0154836D01*
X0195774Y0154778D01*
X0195922Y0154716D01*
X0196069Y0154650D01*
X0196214Y0154581D01*
X0196357Y0154508D01*
X0196499Y0154432D01*
X0196638Y0154352D01*
X0196776Y0154269D01*
X0196911Y0154182D01*
X0197045Y0154092D01*
X0197176Y0153999D01*
X0197304Y0153903D01*
X0197430Y0153803D01*
X0197554Y0153700D01*
X0197675Y0153595D01*
X0197794Y0153486D01*
X0197910Y0153375D01*
X0198023Y0153260D01*
X0198133Y0153143D01*
X0198240Y0153023D01*
X0198344Y0152901D01*
X0198445Y0152776D01*
X0198543Y0152648D01*
X0198638Y0152518D01*
X0198730Y0152386D01*
X0198818Y0152252D01*
X0198903Y0152115D01*
X0198985Y0151977D01*
X0199063Y0151836D01*
X0199137Y0151694D01*
X0199208Y0151550D01*
X0199276Y0151404D01*
X0199339Y0151256D01*
X0199400Y0151107D01*
X0199456Y0150956D01*
X0199509Y0150804D01*
X0199558Y0150651D01*
X0199603Y0150497D01*
X0199644Y0150342D01*
X0199682Y0150185D01*
X0199715Y0150028D01*
X0199745Y0149870D01*
X0199771Y0149711D01*
X0199792Y0149552D01*
X0199810Y0149392D01*
X0199824Y0149232D01*
X0199834Y0149071D01*
X0199840Y0148911D01*
X0199842Y0148750D01*
X0199840Y0148589D01*
X0199834Y0148429D01*
X0199824Y0148268D01*
X0199810Y0148108D01*
X0199792Y0147948D01*
X0199771Y0147789D01*
X0199745Y0147630D01*
X0199715Y0147472D01*
X0199682Y0147315D01*
X0199644Y0147158D01*
X0199603Y0147003D01*
X0199558Y0146849D01*
X0199509Y0146696D01*
X0199456Y0146544D01*
X0199400Y0146393D01*
X0199339Y0146244D01*
X0199276Y0146096D01*
X0199208Y0145950D01*
X0199137Y0145806D01*
X0199063Y0145664D01*
X0198985Y0145523D01*
X0198903Y0145385D01*
X0198818Y0145248D01*
X0198730Y0145114D01*
X0198638Y0144982D01*
X0198543Y0144852D01*
X0198445Y0144724D01*
X0198344Y0144599D01*
X0198240Y0144477D01*
X0198133Y0144357D01*
X0198023Y0144240D01*
X0197910Y0144125D01*
X0197794Y0144014D01*
X0197675Y0143905D01*
X0197554Y0143800D01*
X0197430Y0143697D01*
X0197304Y0143597D01*
X0197176Y0143501D01*
X0197045Y0143408D01*
X0196911Y0143318D01*
X0196776Y0143231D01*
X0196638Y0143148D01*
X0196499Y0143068D01*
X0196357Y0142992D01*
X0196214Y0142919D01*
X0196069Y0142850D01*
X0195922Y0142784D01*
X0195774Y0142722D01*
X0195624Y0142664D01*
X0195473Y0142609D01*
X0195320Y0142558D01*
X0195166Y0142511D01*
X0195011Y0142468D01*
X0194855Y0142429D01*
X0194699Y0142393D01*
X0194541Y0142362D01*
X0194383Y0142334D01*
X0194224Y0142310D01*
X0194064Y0142290D01*
X0193904Y0142274D01*
X0193744Y0142262D01*
X0193583Y0142254D01*
X0193422Y0142250D01*
X0193262Y0142250D01*
X0193101Y0142254D01*
X0192940Y0142262D01*
X0192780Y0142274D01*
X0192620Y0142290D01*
X0192460Y0142310D01*
X0192301Y0142334D01*
X0192143Y0142362D01*
X0191985Y0142393D01*
X0191829Y0142429D01*
X0191673Y0142468D01*
X0191518Y0142511D01*
X0191364Y0142558D01*
X0191211Y0142609D01*
X0191060Y0142664D01*
X0190910Y0142722D01*
X0190762Y0142784D01*
X0190615Y0142850D01*
X0190470Y0142919D01*
X0190327Y0142992D01*
X0190185Y0143068D01*
X0190046Y0143148D01*
X0189908Y0143231D01*
X0189773Y0143318D01*
X0189639Y0143408D01*
X0189508Y0143501D01*
X0189380Y0143597D01*
X0189254Y0143697D01*
X0189130Y0143800D01*
X0189009Y0143905D01*
X0188890Y0144014D01*
X0188774Y0144125D01*
X0188661Y0144240D01*
X0188551Y0144357D01*
X0188444Y0144477D01*
X0188340Y0144599D01*
X0188239Y0144724D01*
X0188141Y0144852D01*
X0188046Y0144982D01*
X0187954Y0145114D01*
X0187866Y0145248D01*
X0187781Y0145385D01*
X0187699Y0145523D01*
X0187621Y0145664D01*
X0187547Y0145806D01*
X0187476Y0145950D01*
X0187408Y0146096D01*
X0187345Y0146244D01*
X0187284Y0146393D01*
X0187228Y0146544D01*
X0187175Y0146696D01*
X0187126Y0146849D01*
X0187081Y0147003D01*
X0187040Y0147158D01*
X0187002Y0147315D01*
X0186969Y0147472D01*
X0186939Y0147630D01*
X0186913Y0147789D01*
X0186892Y0147948D01*
X0186874Y0148108D01*
X0186860Y0148268D01*
X0186850Y0148429D01*
X0186844Y0148589D01*
X0186842Y0148750D01*
X0186842Y0170750D02*
X0186844Y0170911D01*
X0186850Y0171071D01*
X0186860Y0171232D01*
X0186874Y0171392D01*
X0186892Y0171552D01*
X0186913Y0171711D01*
X0186939Y0171870D01*
X0186969Y0172028D01*
X0187002Y0172185D01*
X0187040Y0172342D01*
X0187081Y0172497D01*
X0187126Y0172651D01*
X0187175Y0172804D01*
X0187228Y0172956D01*
X0187284Y0173107D01*
X0187345Y0173256D01*
X0187408Y0173404D01*
X0187476Y0173550D01*
X0187547Y0173694D01*
X0187621Y0173836D01*
X0187699Y0173977D01*
X0187781Y0174115D01*
X0187866Y0174252D01*
X0187954Y0174386D01*
X0188046Y0174518D01*
X0188141Y0174648D01*
X0188239Y0174776D01*
X0188340Y0174901D01*
X0188444Y0175023D01*
X0188551Y0175143D01*
X0188661Y0175260D01*
X0188774Y0175375D01*
X0188890Y0175486D01*
X0189009Y0175595D01*
X0189130Y0175700D01*
X0189254Y0175803D01*
X0189380Y0175903D01*
X0189508Y0175999D01*
X0189639Y0176092D01*
X0189773Y0176182D01*
X0189908Y0176269D01*
X0190046Y0176352D01*
X0190185Y0176432D01*
X0190327Y0176508D01*
X0190470Y0176581D01*
X0190615Y0176650D01*
X0190762Y0176716D01*
X0190910Y0176778D01*
X0191060Y0176836D01*
X0191211Y0176891D01*
X0191364Y0176942D01*
X0191518Y0176989D01*
X0191673Y0177032D01*
X0191829Y0177071D01*
X0191985Y0177107D01*
X0192143Y0177138D01*
X0192301Y0177166D01*
X0192460Y0177190D01*
X0192620Y0177210D01*
X0192780Y0177226D01*
X0192940Y0177238D01*
X0193101Y0177246D01*
X0193262Y0177250D01*
X0193422Y0177250D01*
X0193583Y0177246D01*
X0193744Y0177238D01*
X0193904Y0177226D01*
X0194064Y0177210D01*
X0194224Y0177190D01*
X0194383Y0177166D01*
X0194541Y0177138D01*
X0194699Y0177107D01*
X0194855Y0177071D01*
X0195011Y0177032D01*
X0195166Y0176989D01*
X0195320Y0176942D01*
X0195473Y0176891D01*
X0195624Y0176836D01*
X0195774Y0176778D01*
X0195922Y0176716D01*
X0196069Y0176650D01*
X0196214Y0176581D01*
X0196357Y0176508D01*
X0196499Y0176432D01*
X0196638Y0176352D01*
X0196776Y0176269D01*
X0196911Y0176182D01*
X0197045Y0176092D01*
X0197176Y0175999D01*
X0197304Y0175903D01*
X0197430Y0175803D01*
X0197554Y0175700D01*
X0197675Y0175595D01*
X0197794Y0175486D01*
X0197910Y0175375D01*
X0198023Y0175260D01*
X0198133Y0175143D01*
X0198240Y0175023D01*
X0198344Y0174901D01*
X0198445Y0174776D01*
X0198543Y0174648D01*
X0198638Y0174518D01*
X0198730Y0174386D01*
X0198818Y0174252D01*
X0198903Y0174115D01*
X0198985Y0173977D01*
X0199063Y0173836D01*
X0199137Y0173694D01*
X0199208Y0173550D01*
X0199276Y0173404D01*
X0199339Y0173256D01*
X0199400Y0173107D01*
X0199456Y0172956D01*
X0199509Y0172804D01*
X0199558Y0172651D01*
X0199603Y0172497D01*
X0199644Y0172342D01*
X0199682Y0172185D01*
X0199715Y0172028D01*
X0199745Y0171870D01*
X0199771Y0171711D01*
X0199792Y0171552D01*
X0199810Y0171392D01*
X0199824Y0171232D01*
X0199834Y0171071D01*
X0199840Y0170911D01*
X0199842Y0170750D01*
X0199840Y0170589D01*
X0199834Y0170429D01*
X0199824Y0170268D01*
X0199810Y0170108D01*
X0199792Y0169948D01*
X0199771Y0169789D01*
X0199745Y0169630D01*
X0199715Y0169472D01*
X0199682Y0169315D01*
X0199644Y0169158D01*
X0199603Y0169003D01*
X0199558Y0168849D01*
X0199509Y0168696D01*
X0199456Y0168544D01*
X0199400Y0168393D01*
X0199339Y0168244D01*
X0199276Y0168096D01*
X0199208Y0167950D01*
X0199137Y0167806D01*
X0199063Y0167664D01*
X0198985Y0167523D01*
X0198903Y0167385D01*
X0198818Y0167248D01*
X0198730Y0167114D01*
X0198638Y0166982D01*
X0198543Y0166852D01*
X0198445Y0166724D01*
X0198344Y0166599D01*
X0198240Y0166477D01*
X0198133Y0166357D01*
X0198023Y0166240D01*
X0197910Y0166125D01*
X0197794Y0166014D01*
X0197675Y0165905D01*
X0197554Y0165800D01*
X0197430Y0165697D01*
X0197304Y0165597D01*
X0197176Y0165501D01*
X0197045Y0165408D01*
X0196911Y0165318D01*
X0196776Y0165231D01*
X0196638Y0165148D01*
X0196499Y0165068D01*
X0196357Y0164992D01*
X0196214Y0164919D01*
X0196069Y0164850D01*
X0195922Y0164784D01*
X0195774Y0164722D01*
X0195624Y0164664D01*
X0195473Y0164609D01*
X0195320Y0164558D01*
X0195166Y0164511D01*
X0195011Y0164468D01*
X0194855Y0164429D01*
X0194699Y0164393D01*
X0194541Y0164362D01*
X0194383Y0164334D01*
X0194224Y0164310D01*
X0194064Y0164290D01*
X0193904Y0164274D01*
X0193744Y0164262D01*
X0193583Y0164254D01*
X0193422Y0164250D01*
X0193262Y0164250D01*
X0193101Y0164254D01*
X0192940Y0164262D01*
X0192780Y0164274D01*
X0192620Y0164290D01*
X0192460Y0164310D01*
X0192301Y0164334D01*
X0192143Y0164362D01*
X0191985Y0164393D01*
X0191829Y0164429D01*
X0191673Y0164468D01*
X0191518Y0164511D01*
X0191364Y0164558D01*
X0191211Y0164609D01*
X0191060Y0164664D01*
X0190910Y0164722D01*
X0190762Y0164784D01*
X0190615Y0164850D01*
X0190470Y0164919D01*
X0190327Y0164992D01*
X0190185Y0165068D01*
X0190046Y0165148D01*
X0189908Y0165231D01*
X0189773Y0165318D01*
X0189639Y0165408D01*
X0189508Y0165501D01*
X0189380Y0165597D01*
X0189254Y0165697D01*
X0189130Y0165800D01*
X0189009Y0165905D01*
X0188890Y0166014D01*
X0188774Y0166125D01*
X0188661Y0166240D01*
X0188551Y0166357D01*
X0188444Y0166477D01*
X0188340Y0166599D01*
X0188239Y0166724D01*
X0188141Y0166852D01*
X0188046Y0166982D01*
X0187954Y0167114D01*
X0187866Y0167248D01*
X0187781Y0167385D01*
X0187699Y0167523D01*
X0187621Y0167664D01*
X0187547Y0167806D01*
X0187476Y0167950D01*
X0187408Y0168096D01*
X0187345Y0168244D01*
X0187284Y0168393D01*
X0187228Y0168544D01*
X0187175Y0168696D01*
X0187126Y0168849D01*
X0187081Y0169003D01*
X0187040Y0169158D01*
X0187002Y0169315D01*
X0186969Y0169472D01*
X0186939Y0169630D01*
X0186913Y0169789D01*
X0186892Y0169948D01*
X0186874Y0170108D01*
X0186860Y0170268D01*
X0186850Y0170429D01*
X0186844Y0170589D01*
X0186842Y0170750D01*
X0208842Y0170750D02*
X0208844Y0170911D01*
X0208850Y0171071D01*
X0208860Y0171232D01*
X0208874Y0171392D01*
X0208892Y0171552D01*
X0208913Y0171711D01*
X0208939Y0171870D01*
X0208969Y0172028D01*
X0209002Y0172185D01*
X0209040Y0172342D01*
X0209081Y0172497D01*
X0209126Y0172651D01*
X0209175Y0172804D01*
X0209228Y0172956D01*
X0209284Y0173107D01*
X0209345Y0173256D01*
X0209408Y0173404D01*
X0209476Y0173550D01*
X0209547Y0173694D01*
X0209621Y0173836D01*
X0209699Y0173977D01*
X0209781Y0174115D01*
X0209866Y0174252D01*
X0209954Y0174386D01*
X0210046Y0174518D01*
X0210141Y0174648D01*
X0210239Y0174776D01*
X0210340Y0174901D01*
X0210444Y0175023D01*
X0210551Y0175143D01*
X0210661Y0175260D01*
X0210774Y0175375D01*
X0210890Y0175486D01*
X0211009Y0175595D01*
X0211130Y0175700D01*
X0211254Y0175803D01*
X0211380Y0175903D01*
X0211508Y0175999D01*
X0211639Y0176092D01*
X0211773Y0176182D01*
X0211908Y0176269D01*
X0212046Y0176352D01*
X0212185Y0176432D01*
X0212327Y0176508D01*
X0212470Y0176581D01*
X0212615Y0176650D01*
X0212762Y0176716D01*
X0212910Y0176778D01*
X0213060Y0176836D01*
X0213211Y0176891D01*
X0213364Y0176942D01*
X0213518Y0176989D01*
X0213673Y0177032D01*
X0213829Y0177071D01*
X0213985Y0177107D01*
X0214143Y0177138D01*
X0214301Y0177166D01*
X0214460Y0177190D01*
X0214620Y0177210D01*
X0214780Y0177226D01*
X0214940Y0177238D01*
X0215101Y0177246D01*
X0215262Y0177250D01*
X0215422Y0177250D01*
X0215583Y0177246D01*
X0215744Y0177238D01*
X0215904Y0177226D01*
X0216064Y0177210D01*
X0216224Y0177190D01*
X0216383Y0177166D01*
X0216541Y0177138D01*
X0216699Y0177107D01*
X0216855Y0177071D01*
X0217011Y0177032D01*
X0217166Y0176989D01*
X0217320Y0176942D01*
X0217473Y0176891D01*
X0217624Y0176836D01*
X0217774Y0176778D01*
X0217922Y0176716D01*
X0218069Y0176650D01*
X0218214Y0176581D01*
X0218357Y0176508D01*
X0218499Y0176432D01*
X0218638Y0176352D01*
X0218776Y0176269D01*
X0218911Y0176182D01*
X0219045Y0176092D01*
X0219176Y0175999D01*
X0219304Y0175903D01*
X0219430Y0175803D01*
X0219554Y0175700D01*
X0219675Y0175595D01*
X0219794Y0175486D01*
X0219910Y0175375D01*
X0220023Y0175260D01*
X0220133Y0175143D01*
X0220240Y0175023D01*
X0220344Y0174901D01*
X0220445Y0174776D01*
X0220543Y0174648D01*
X0220638Y0174518D01*
X0220730Y0174386D01*
X0220818Y0174252D01*
X0220903Y0174115D01*
X0220985Y0173977D01*
X0221063Y0173836D01*
X0221137Y0173694D01*
X0221208Y0173550D01*
X0221276Y0173404D01*
X0221339Y0173256D01*
X0221400Y0173107D01*
X0221456Y0172956D01*
X0221509Y0172804D01*
X0221558Y0172651D01*
X0221603Y0172497D01*
X0221644Y0172342D01*
X0221682Y0172185D01*
X0221715Y0172028D01*
X0221745Y0171870D01*
X0221771Y0171711D01*
X0221792Y0171552D01*
X0221810Y0171392D01*
X0221824Y0171232D01*
X0221834Y0171071D01*
X0221840Y0170911D01*
X0221842Y0170750D01*
X0221840Y0170589D01*
X0221834Y0170429D01*
X0221824Y0170268D01*
X0221810Y0170108D01*
X0221792Y0169948D01*
X0221771Y0169789D01*
X0221745Y0169630D01*
X0221715Y0169472D01*
X0221682Y0169315D01*
X0221644Y0169158D01*
X0221603Y0169003D01*
X0221558Y0168849D01*
X0221509Y0168696D01*
X0221456Y0168544D01*
X0221400Y0168393D01*
X0221339Y0168244D01*
X0221276Y0168096D01*
X0221208Y0167950D01*
X0221137Y0167806D01*
X0221063Y0167664D01*
X0220985Y0167523D01*
X0220903Y0167385D01*
X0220818Y0167248D01*
X0220730Y0167114D01*
X0220638Y0166982D01*
X0220543Y0166852D01*
X0220445Y0166724D01*
X0220344Y0166599D01*
X0220240Y0166477D01*
X0220133Y0166357D01*
X0220023Y0166240D01*
X0219910Y0166125D01*
X0219794Y0166014D01*
X0219675Y0165905D01*
X0219554Y0165800D01*
X0219430Y0165697D01*
X0219304Y0165597D01*
X0219176Y0165501D01*
X0219045Y0165408D01*
X0218911Y0165318D01*
X0218776Y0165231D01*
X0218638Y0165148D01*
X0218499Y0165068D01*
X0218357Y0164992D01*
X0218214Y0164919D01*
X0218069Y0164850D01*
X0217922Y0164784D01*
X0217774Y0164722D01*
X0217624Y0164664D01*
X0217473Y0164609D01*
X0217320Y0164558D01*
X0217166Y0164511D01*
X0217011Y0164468D01*
X0216855Y0164429D01*
X0216699Y0164393D01*
X0216541Y0164362D01*
X0216383Y0164334D01*
X0216224Y0164310D01*
X0216064Y0164290D01*
X0215904Y0164274D01*
X0215744Y0164262D01*
X0215583Y0164254D01*
X0215422Y0164250D01*
X0215262Y0164250D01*
X0215101Y0164254D01*
X0214940Y0164262D01*
X0214780Y0164274D01*
X0214620Y0164290D01*
X0214460Y0164310D01*
X0214301Y0164334D01*
X0214143Y0164362D01*
X0213985Y0164393D01*
X0213829Y0164429D01*
X0213673Y0164468D01*
X0213518Y0164511D01*
X0213364Y0164558D01*
X0213211Y0164609D01*
X0213060Y0164664D01*
X0212910Y0164722D01*
X0212762Y0164784D01*
X0212615Y0164850D01*
X0212470Y0164919D01*
X0212327Y0164992D01*
X0212185Y0165068D01*
X0212046Y0165148D01*
X0211908Y0165231D01*
X0211773Y0165318D01*
X0211639Y0165408D01*
X0211508Y0165501D01*
X0211380Y0165597D01*
X0211254Y0165697D01*
X0211130Y0165800D01*
X0211009Y0165905D01*
X0210890Y0166014D01*
X0210774Y0166125D01*
X0210661Y0166240D01*
X0210551Y0166357D01*
X0210444Y0166477D01*
X0210340Y0166599D01*
X0210239Y0166724D01*
X0210141Y0166852D01*
X0210046Y0166982D01*
X0209954Y0167114D01*
X0209866Y0167248D01*
X0209781Y0167385D01*
X0209699Y0167523D01*
X0209621Y0167664D01*
X0209547Y0167806D01*
X0209476Y0167950D01*
X0209408Y0168096D01*
X0209345Y0168244D01*
X0209284Y0168393D01*
X0209228Y0168544D01*
X0209175Y0168696D01*
X0209126Y0168849D01*
X0209081Y0169003D01*
X0209040Y0169158D01*
X0209002Y0169315D01*
X0208969Y0169472D01*
X0208939Y0169630D01*
X0208913Y0169789D01*
X0208892Y0169948D01*
X0208874Y0170108D01*
X0208860Y0170268D01*
X0208850Y0170429D01*
X0208844Y0170589D01*
X0208842Y0170750D01*
X0348842Y0170750D02*
X0348844Y0170911D01*
X0348850Y0171071D01*
X0348860Y0171232D01*
X0348874Y0171392D01*
X0348892Y0171552D01*
X0348913Y0171711D01*
X0348939Y0171870D01*
X0348969Y0172028D01*
X0349002Y0172185D01*
X0349040Y0172342D01*
X0349081Y0172497D01*
X0349126Y0172651D01*
X0349175Y0172804D01*
X0349228Y0172956D01*
X0349284Y0173107D01*
X0349345Y0173256D01*
X0349408Y0173404D01*
X0349476Y0173550D01*
X0349547Y0173694D01*
X0349621Y0173836D01*
X0349699Y0173977D01*
X0349781Y0174115D01*
X0349866Y0174252D01*
X0349954Y0174386D01*
X0350046Y0174518D01*
X0350141Y0174648D01*
X0350239Y0174776D01*
X0350340Y0174901D01*
X0350444Y0175023D01*
X0350551Y0175143D01*
X0350661Y0175260D01*
X0350774Y0175375D01*
X0350890Y0175486D01*
X0351009Y0175595D01*
X0351130Y0175700D01*
X0351254Y0175803D01*
X0351380Y0175903D01*
X0351508Y0175999D01*
X0351639Y0176092D01*
X0351773Y0176182D01*
X0351908Y0176269D01*
X0352046Y0176352D01*
X0352185Y0176432D01*
X0352327Y0176508D01*
X0352470Y0176581D01*
X0352615Y0176650D01*
X0352762Y0176716D01*
X0352910Y0176778D01*
X0353060Y0176836D01*
X0353211Y0176891D01*
X0353364Y0176942D01*
X0353518Y0176989D01*
X0353673Y0177032D01*
X0353829Y0177071D01*
X0353985Y0177107D01*
X0354143Y0177138D01*
X0354301Y0177166D01*
X0354460Y0177190D01*
X0354620Y0177210D01*
X0354780Y0177226D01*
X0354940Y0177238D01*
X0355101Y0177246D01*
X0355262Y0177250D01*
X0355422Y0177250D01*
X0355583Y0177246D01*
X0355744Y0177238D01*
X0355904Y0177226D01*
X0356064Y0177210D01*
X0356224Y0177190D01*
X0356383Y0177166D01*
X0356541Y0177138D01*
X0356699Y0177107D01*
X0356855Y0177071D01*
X0357011Y0177032D01*
X0357166Y0176989D01*
X0357320Y0176942D01*
X0357473Y0176891D01*
X0357624Y0176836D01*
X0357774Y0176778D01*
X0357922Y0176716D01*
X0358069Y0176650D01*
X0358214Y0176581D01*
X0358357Y0176508D01*
X0358499Y0176432D01*
X0358638Y0176352D01*
X0358776Y0176269D01*
X0358911Y0176182D01*
X0359045Y0176092D01*
X0359176Y0175999D01*
X0359304Y0175903D01*
X0359430Y0175803D01*
X0359554Y0175700D01*
X0359675Y0175595D01*
X0359794Y0175486D01*
X0359910Y0175375D01*
X0360023Y0175260D01*
X0360133Y0175143D01*
X0360240Y0175023D01*
X0360344Y0174901D01*
X0360445Y0174776D01*
X0360543Y0174648D01*
X0360638Y0174518D01*
X0360730Y0174386D01*
X0360818Y0174252D01*
X0360903Y0174115D01*
X0360985Y0173977D01*
X0361063Y0173836D01*
X0361137Y0173694D01*
X0361208Y0173550D01*
X0361276Y0173404D01*
X0361339Y0173256D01*
X0361400Y0173107D01*
X0361456Y0172956D01*
X0361509Y0172804D01*
X0361558Y0172651D01*
X0361603Y0172497D01*
X0361644Y0172342D01*
X0361682Y0172185D01*
X0361715Y0172028D01*
X0361745Y0171870D01*
X0361771Y0171711D01*
X0361792Y0171552D01*
X0361810Y0171392D01*
X0361824Y0171232D01*
X0361834Y0171071D01*
X0361840Y0170911D01*
X0361842Y0170750D01*
X0361840Y0170589D01*
X0361834Y0170429D01*
X0361824Y0170268D01*
X0361810Y0170108D01*
X0361792Y0169948D01*
X0361771Y0169789D01*
X0361745Y0169630D01*
X0361715Y0169472D01*
X0361682Y0169315D01*
X0361644Y0169158D01*
X0361603Y0169003D01*
X0361558Y0168849D01*
X0361509Y0168696D01*
X0361456Y0168544D01*
X0361400Y0168393D01*
X0361339Y0168244D01*
X0361276Y0168096D01*
X0361208Y0167950D01*
X0361137Y0167806D01*
X0361063Y0167664D01*
X0360985Y0167523D01*
X0360903Y0167385D01*
X0360818Y0167248D01*
X0360730Y0167114D01*
X0360638Y0166982D01*
X0360543Y0166852D01*
X0360445Y0166724D01*
X0360344Y0166599D01*
X0360240Y0166477D01*
X0360133Y0166357D01*
X0360023Y0166240D01*
X0359910Y0166125D01*
X0359794Y0166014D01*
X0359675Y0165905D01*
X0359554Y0165800D01*
X0359430Y0165697D01*
X0359304Y0165597D01*
X0359176Y0165501D01*
X0359045Y0165408D01*
X0358911Y0165318D01*
X0358776Y0165231D01*
X0358638Y0165148D01*
X0358499Y0165068D01*
X0358357Y0164992D01*
X0358214Y0164919D01*
X0358069Y0164850D01*
X0357922Y0164784D01*
X0357774Y0164722D01*
X0357624Y0164664D01*
X0357473Y0164609D01*
X0357320Y0164558D01*
X0357166Y0164511D01*
X0357011Y0164468D01*
X0356855Y0164429D01*
X0356699Y0164393D01*
X0356541Y0164362D01*
X0356383Y0164334D01*
X0356224Y0164310D01*
X0356064Y0164290D01*
X0355904Y0164274D01*
X0355744Y0164262D01*
X0355583Y0164254D01*
X0355422Y0164250D01*
X0355262Y0164250D01*
X0355101Y0164254D01*
X0354940Y0164262D01*
X0354780Y0164274D01*
X0354620Y0164290D01*
X0354460Y0164310D01*
X0354301Y0164334D01*
X0354143Y0164362D01*
X0353985Y0164393D01*
X0353829Y0164429D01*
X0353673Y0164468D01*
X0353518Y0164511D01*
X0353364Y0164558D01*
X0353211Y0164609D01*
X0353060Y0164664D01*
X0352910Y0164722D01*
X0352762Y0164784D01*
X0352615Y0164850D01*
X0352470Y0164919D01*
X0352327Y0164992D01*
X0352185Y0165068D01*
X0352046Y0165148D01*
X0351908Y0165231D01*
X0351773Y0165318D01*
X0351639Y0165408D01*
X0351508Y0165501D01*
X0351380Y0165597D01*
X0351254Y0165697D01*
X0351130Y0165800D01*
X0351009Y0165905D01*
X0350890Y0166014D01*
X0350774Y0166125D01*
X0350661Y0166240D01*
X0350551Y0166357D01*
X0350444Y0166477D01*
X0350340Y0166599D01*
X0350239Y0166724D01*
X0350141Y0166852D01*
X0350046Y0166982D01*
X0349954Y0167114D01*
X0349866Y0167248D01*
X0349781Y0167385D01*
X0349699Y0167523D01*
X0349621Y0167664D01*
X0349547Y0167806D01*
X0349476Y0167950D01*
X0349408Y0168096D01*
X0349345Y0168244D01*
X0349284Y0168393D01*
X0349228Y0168544D01*
X0349175Y0168696D01*
X0349126Y0168849D01*
X0349081Y0169003D01*
X0349040Y0169158D01*
X0349002Y0169315D01*
X0348969Y0169472D01*
X0348939Y0169630D01*
X0348913Y0169789D01*
X0348892Y0169948D01*
X0348874Y0170108D01*
X0348860Y0170268D01*
X0348850Y0170429D01*
X0348844Y0170589D01*
X0348842Y0170750D01*
X0348842Y0148750D02*
X0348844Y0148911D01*
X0348850Y0149071D01*
X0348860Y0149232D01*
X0348874Y0149392D01*
X0348892Y0149552D01*
X0348913Y0149711D01*
X0348939Y0149870D01*
X0348969Y0150028D01*
X0349002Y0150185D01*
X0349040Y0150342D01*
X0349081Y0150497D01*
X0349126Y0150651D01*
X0349175Y0150804D01*
X0349228Y0150956D01*
X0349284Y0151107D01*
X0349345Y0151256D01*
X0349408Y0151404D01*
X0349476Y0151550D01*
X0349547Y0151694D01*
X0349621Y0151836D01*
X0349699Y0151977D01*
X0349781Y0152115D01*
X0349866Y0152252D01*
X0349954Y0152386D01*
X0350046Y0152518D01*
X0350141Y0152648D01*
X0350239Y0152776D01*
X0350340Y0152901D01*
X0350444Y0153023D01*
X0350551Y0153143D01*
X0350661Y0153260D01*
X0350774Y0153375D01*
X0350890Y0153486D01*
X0351009Y0153595D01*
X0351130Y0153700D01*
X0351254Y0153803D01*
X0351380Y0153903D01*
X0351508Y0153999D01*
X0351639Y0154092D01*
X0351773Y0154182D01*
X0351908Y0154269D01*
X0352046Y0154352D01*
X0352185Y0154432D01*
X0352327Y0154508D01*
X0352470Y0154581D01*
X0352615Y0154650D01*
X0352762Y0154716D01*
X0352910Y0154778D01*
X0353060Y0154836D01*
X0353211Y0154891D01*
X0353364Y0154942D01*
X0353518Y0154989D01*
X0353673Y0155032D01*
X0353829Y0155071D01*
X0353985Y0155107D01*
X0354143Y0155138D01*
X0354301Y0155166D01*
X0354460Y0155190D01*
X0354620Y0155210D01*
X0354780Y0155226D01*
X0354940Y0155238D01*
X0355101Y0155246D01*
X0355262Y0155250D01*
X0355422Y0155250D01*
X0355583Y0155246D01*
X0355744Y0155238D01*
X0355904Y0155226D01*
X0356064Y0155210D01*
X0356224Y0155190D01*
X0356383Y0155166D01*
X0356541Y0155138D01*
X0356699Y0155107D01*
X0356855Y0155071D01*
X0357011Y0155032D01*
X0357166Y0154989D01*
X0357320Y0154942D01*
X0357473Y0154891D01*
X0357624Y0154836D01*
X0357774Y0154778D01*
X0357922Y0154716D01*
X0358069Y0154650D01*
X0358214Y0154581D01*
X0358357Y0154508D01*
X0358499Y0154432D01*
X0358638Y0154352D01*
X0358776Y0154269D01*
X0358911Y0154182D01*
X0359045Y0154092D01*
X0359176Y0153999D01*
X0359304Y0153903D01*
X0359430Y0153803D01*
X0359554Y0153700D01*
X0359675Y0153595D01*
X0359794Y0153486D01*
X0359910Y0153375D01*
X0360023Y0153260D01*
X0360133Y0153143D01*
X0360240Y0153023D01*
X0360344Y0152901D01*
X0360445Y0152776D01*
X0360543Y0152648D01*
X0360638Y0152518D01*
X0360730Y0152386D01*
X0360818Y0152252D01*
X0360903Y0152115D01*
X0360985Y0151977D01*
X0361063Y0151836D01*
X0361137Y0151694D01*
X0361208Y0151550D01*
X0361276Y0151404D01*
X0361339Y0151256D01*
X0361400Y0151107D01*
X0361456Y0150956D01*
X0361509Y0150804D01*
X0361558Y0150651D01*
X0361603Y0150497D01*
X0361644Y0150342D01*
X0361682Y0150185D01*
X0361715Y0150028D01*
X0361745Y0149870D01*
X0361771Y0149711D01*
X0361792Y0149552D01*
X0361810Y0149392D01*
X0361824Y0149232D01*
X0361834Y0149071D01*
X0361840Y0148911D01*
X0361842Y0148750D01*
X0361840Y0148589D01*
X0361834Y0148429D01*
X0361824Y0148268D01*
X0361810Y0148108D01*
X0361792Y0147948D01*
X0361771Y0147789D01*
X0361745Y0147630D01*
X0361715Y0147472D01*
X0361682Y0147315D01*
X0361644Y0147158D01*
X0361603Y0147003D01*
X0361558Y0146849D01*
X0361509Y0146696D01*
X0361456Y0146544D01*
X0361400Y0146393D01*
X0361339Y0146244D01*
X0361276Y0146096D01*
X0361208Y0145950D01*
X0361137Y0145806D01*
X0361063Y0145664D01*
X0360985Y0145523D01*
X0360903Y0145385D01*
X0360818Y0145248D01*
X0360730Y0145114D01*
X0360638Y0144982D01*
X0360543Y0144852D01*
X0360445Y0144724D01*
X0360344Y0144599D01*
X0360240Y0144477D01*
X0360133Y0144357D01*
X0360023Y0144240D01*
X0359910Y0144125D01*
X0359794Y0144014D01*
X0359675Y0143905D01*
X0359554Y0143800D01*
X0359430Y0143697D01*
X0359304Y0143597D01*
X0359176Y0143501D01*
X0359045Y0143408D01*
X0358911Y0143318D01*
X0358776Y0143231D01*
X0358638Y0143148D01*
X0358499Y0143068D01*
X0358357Y0142992D01*
X0358214Y0142919D01*
X0358069Y0142850D01*
X0357922Y0142784D01*
X0357774Y0142722D01*
X0357624Y0142664D01*
X0357473Y0142609D01*
X0357320Y0142558D01*
X0357166Y0142511D01*
X0357011Y0142468D01*
X0356855Y0142429D01*
X0356699Y0142393D01*
X0356541Y0142362D01*
X0356383Y0142334D01*
X0356224Y0142310D01*
X0356064Y0142290D01*
X0355904Y0142274D01*
X0355744Y0142262D01*
X0355583Y0142254D01*
X0355422Y0142250D01*
X0355262Y0142250D01*
X0355101Y0142254D01*
X0354940Y0142262D01*
X0354780Y0142274D01*
X0354620Y0142290D01*
X0354460Y0142310D01*
X0354301Y0142334D01*
X0354143Y0142362D01*
X0353985Y0142393D01*
X0353829Y0142429D01*
X0353673Y0142468D01*
X0353518Y0142511D01*
X0353364Y0142558D01*
X0353211Y0142609D01*
X0353060Y0142664D01*
X0352910Y0142722D01*
X0352762Y0142784D01*
X0352615Y0142850D01*
X0352470Y0142919D01*
X0352327Y0142992D01*
X0352185Y0143068D01*
X0352046Y0143148D01*
X0351908Y0143231D01*
X0351773Y0143318D01*
X0351639Y0143408D01*
X0351508Y0143501D01*
X0351380Y0143597D01*
X0351254Y0143697D01*
X0351130Y0143800D01*
X0351009Y0143905D01*
X0350890Y0144014D01*
X0350774Y0144125D01*
X0350661Y0144240D01*
X0350551Y0144357D01*
X0350444Y0144477D01*
X0350340Y0144599D01*
X0350239Y0144724D01*
X0350141Y0144852D01*
X0350046Y0144982D01*
X0349954Y0145114D01*
X0349866Y0145248D01*
X0349781Y0145385D01*
X0349699Y0145523D01*
X0349621Y0145664D01*
X0349547Y0145806D01*
X0349476Y0145950D01*
X0349408Y0146096D01*
X0349345Y0146244D01*
X0349284Y0146393D01*
X0349228Y0146544D01*
X0349175Y0146696D01*
X0349126Y0146849D01*
X0349081Y0147003D01*
X0349040Y0147158D01*
X0349002Y0147315D01*
X0348969Y0147472D01*
X0348939Y0147630D01*
X0348913Y0147789D01*
X0348892Y0147948D01*
X0348874Y0148108D01*
X0348860Y0148268D01*
X0348850Y0148429D01*
X0348844Y0148589D01*
X0348842Y0148750D01*
X0348842Y0038750D02*
X0348844Y0038911D01*
X0348850Y0039071D01*
X0348860Y0039232D01*
X0348874Y0039392D01*
X0348892Y0039552D01*
X0348913Y0039711D01*
X0348939Y0039870D01*
X0348969Y0040028D01*
X0349002Y0040185D01*
X0349040Y0040342D01*
X0349081Y0040497D01*
X0349126Y0040651D01*
X0349175Y0040804D01*
X0349228Y0040956D01*
X0349284Y0041107D01*
X0349345Y0041256D01*
X0349408Y0041404D01*
X0349476Y0041550D01*
X0349547Y0041694D01*
X0349621Y0041836D01*
X0349699Y0041977D01*
X0349781Y0042115D01*
X0349866Y0042252D01*
X0349954Y0042386D01*
X0350046Y0042518D01*
X0350141Y0042648D01*
X0350239Y0042776D01*
X0350340Y0042901D01*
X0350444Y0043023D01*
X0350551Y0043143D01*
X0350661Y0043260D01*
X0350774Y0043375D01*
X0350890Y0043486D01*
X0351009Y0043595D01*
X0351130Y0043700D01*
X0351254Y0043803D01*
X0351380Y0043903D01*
X0351508Y0043999D01*
X0351639Y0044092D01*
X0351773Y0044182D01*
X0351908Y0044269D01*
X0352046Y0044352D01*
X0352185Y0044432D01*
X0352327Y0044508D01*
X0352470Y0044581D01*
X0352615Y0044650D01*
X0352762Y0044716D01*
X0352910Y0044778D01*
X0353060Y0044836D01*
X0353211Y0044891D01*
X0353364Y0044942D01*
X0353518Y0044989D01*
X0353673Y0045032D01*
X0353829Y0045071D01*
X0353985Y0045107D01*
X0354143Y0045138D01*
X0354301Y0045166D01*
X0354460Y0045190D01*
X0354620Y0045210D01*
X0354780Y0045226D01*
X0354940Y0045238D01*
X0355101Y0045246D01*
X0355262Y0045250D01*
X0355422Y0045250D01*
X0355583Y0045246D01*
X0355744Y0045238D01*
X0355904Y0045226D01*
X0356064Y0045210D01*
X0356224Y0045190D01*
X0356383Y0045166D01*
X0356541Y0045138D01*
X0356699Y0045107D01*
X0356855Y0045071D01*
X0357011Y0045032D01*
X0357166Y0044989D01*
X0357320Y0044942D01*
X0357473Y0044891D01*
X0357624Y0044836D01*
X0357774Y0044778D01*
X0357922Y0044716D01*
X0358069Y0044650D01*
X0358214Y0044581D01*
X0358357Y0044508D01*
X0358499Y0044432D01*
X0358638Y0044352D01*
X0358776Y0044269D01*
X0358911Y0044182D01*
X0359045Y0044092D01*
X0359176Y0043999D01*
X0359304Y0043903D01*
X0359430Y0043803D01*
X0359554Y0043700D01*
X0359675Y0043595D01*
X0359794Y0043486D01*
X0359910Y0043375D01*
X0360023Y0043260D01*
X0360133Y0043143D01*
X0360240Y0043023D01*
X0360344Y0042901D01*
X0360445Y0042776D01*
X0360543Y0042648D01*
X0360638Y0042518D01*
X0360730Y0042386D01*
X0360818Y0042252D01*
X0360903Y0042115D01*
X0360985Y0041977D01*
X0361063Y0041836D01*
X0361137Y0041694D01*
X0361208Y0041550D01*
X0361276Y0041404D01*
X0361339Y0041256D01*
X0361400Y0041107D01*
X0361456Y0040956D01*
X0361509Y0040804D01*
X0361558Y0040651D01*
X0361603Y0040497D01*
X0361644Y0040342D01*
X0361682Y0040185D01*
X0361715Y0040028D01*
X0361745Y0039870D01*
X0361771Y0039711D01*
X0361792Y0039552D01*
X0361810Y0039392D01*
X0361824Y0039232D01*
X0361834Y0039071D01*
X0361840Y0038911D01*
X0361842Y0038750D01*
X0361840Y0038589D01*
X0361834Y0038429D01*
X0361824Y0038268D01*
X0361810Y0038108D01*
X0361792Y0037948D01*
X0361771Y0037789D01*
X0361745Y0037630D01*
X0361715Y0037472D01*
X0361682Y0037315D01*
X0361644Y0037158D01*
X0361603Y0037003D01*
X0361558Y0036849D01*
X0361509Y0036696D01*
X0361456Y0036544D01*
X0361400Y0036393D01*
X0361339Y0036244D01*
X0361276Y0036096D01*
X0361208Y0035950D01*
X0361137Y0035806D01*
X0361063Y0035664D01*
X0360985Y0035523D01*
X0360903Y0035385D01*
X0360818Y0035248D01*
X0360730Y0035114D01*
X0360638Y0034982D01*
X0360543Y0034852D01*
X0360445Y0034724D01*
X0360344Y0034599D01*
X0360240Y0034477D01*
X0360133Y0034357D01*
X0360023Y0034240D01*
X0359910Y0034125D01*
X0359794Y0034014D01*
X0359675Y0033905D01*
X0359554Y0033800D01*
X0359430Y0033697D01*
X0359304Y0033597D01*
X0359176Y0033501D01*
X0359045Y0033408D01*
X0358911Y0033318D01*
X0358776Y0033231D01*
X0358638Y0033148D01*
X0358499Y0033068D01*
X0358357Y0032992D01*
X0358214Y0032919D01*
X0358069Y0032850D01*
X0357922Y0032784D01*
X0357774Y0032722D01*
X0357624Y0032664D01*
X0357473Y0032609D01*
X0357320Y0032558D01*
X0357166Y0032511D01*
X0357011Y0032468D01*
X0356855Y0032429D01*
X0356699Y0032393D01*
X0356541Y0032362D01*
X0356383Y0032334D01*
X0356224Y0032310D01*
X0356064Y0032290D01*
X0355904Y0032274D01*
X0355744Y0032262D01*
X0355583Y0032254D01*
X0355422Y0032250D01*
X0355262Y0032250D01*
X0355101Y0032254D01*
X0354940Y0032262D01*
X0354780Y0032274D01*
X0354620Y0032290D01*
X0354460Y0032310D01*
X0354301Y0032334D01*
X0354143Y0032362D01*
X0353985Y0032393D01*
X0353829Y0032429D01*
X0353673Y0032468D01*
X0353518Y0032511D01*
X0353364Y0032558D01*
X0353211Y0032609D01*
X0353060Y0032664D01*
X0352910Y0032722D01*
X0352762Y0032784D01*
X0352615Y0032850D01*
X0352470Y0032919D01*
X0352327Y0032992D01*
X0352185Y0033068D01*
X0352046Y0033148D01*
X0351908Y0033231D01*
X0351773Y0033318D01*
X0351639Y0033408D01*
X0351508Y0033501D01*
X0351380Y0033597D01*
X0351254Y0033697D01*
X0351130Y0033800D01*
X0351009Y0033905D01*
X0350890Y0034014D01*
X0350774Y0034125D01*
X0350661Y0034240D01*
X0350551Y0034357D01*
X0350444Y0034477D01*
X0350340Y0034599D01*
X0350239Y0034724D01*
X0350141Y0034852D01*
X0350046Y0034982D01*
X0349954Y0035114D01*
X0349866Y0035248D01*
X0349781Y0035385D01*
X0349699Y0035523D01*
X0349621Y0035664D01*
X0349547Y0035806D01*
X0349476Y0035950D01*
X0349408Y0036096D01*
X0349345Y0036244D01*
X0349284Y0036393D01*
X0349228Y0036544D01*
X0349175Y0036696D01*
X0349126Y0036849D01*
X0349081Y0037003D01*
X0349040Y0037158D01*
X0349002Y0037315D01*
X0348969Y0037472D01*
X0348939Y0037630D01*
X0348913Y0037789D01*
X0348892Y0037948D01*
X0348874Y0038108D01*
X0348860Y0038268D01*
X0348850Y0038429D01*
X0348844Y0038589D01*
X0348842Y0038750D01*
D16*
X0256188Y0137156D02*
X0256188Y0138730D01*
X0256189Y0138730D02*
X0256184Y0138802D01*
X0256175Y0138874D01*
X0256162Y0138945D01*
X0256145Y0139016D01*
X0256125Y0139085D01*
X0256100Y0139153D01*
X0256073Y0139220D01*
X0256041Y0139285D01*
X0256006Y0139349D01*
X0255968Y0139410D01*
X0255927Y0139469D01*
X0255882Y0139526D01*
X0255834Y0139581D01*
X0255784Y0139632D01*
X0255730Y0139681D01*
X0255675Y0139727D01*
X0255616Y0139770D01*
X0255556Y0139810D01*
X0255493Y0139846D01*
X0255429Y0139879D01*
X0255363Y0139909D01*
X0255295Y0139934D01*
X0255226Y0139957D01*
X0255156Y0139975D01*
X0255085Y0139989D01*
X0255014Y0140000D01*
X0254942Y0140007D01*
X0254869Y0140010D01*
X0254869Y0140009D02*
X0254802Y0140011D01*
X0254735Y0140009D01*
X0254668Y0140003D01*
X0254601Y0139993D01*
X0254535Y0139980D01*
X0254470Y0139963D01*
X0254406Y0139942D01*
X0254344Y0139917D01*
X0254282Y0139889D01*
X0254223Y0139857D01*
X0254165Y0139823D01*
X0254110Y0139785D01*
X0254057Y0139743D01*
X0254006Y0139699D01*
X0253958Y0139652D01*
X0253912Y0139603D01*
X0253870Y0139550D01*
X0253830Y0139496D01*
X0253794Y0139439D01*
X0253761Y0139381D01*
X0253731Y0139320D01*
X0253705Y0139258D01*
X0253683Y0139195D01*
X0253664Y0139130D01*
X0253648Y0139065D01*
X0253637Y0138998D01*
X0253629Y0138932D01*
X0253625Y0138864D01*
X0253625Y0138797D01*
X0253629Y0138730D01*
X0253629Y0137156D01*
X0253631Y0137087D01*
X0253637Y0137018D01*
X0253646Y0136949D01*
X0253659Y0136881D01*
X0253676Y0136814D01*
X0253696Y0136747D01*
X0253720Y0136682D01*
X0253747Y0136619D01*
X0253778Y0136556D01*
X0253812Y0136496D01*
X0253850Y0136438D01*
X0253890Y0136381D01*
X0253933Y0136327D01*
X0253980Y0136276D01*
X0254029Y0136227D01*
X0254080Y0136180D01*
X0254134Y0136137D01*
X0254191Y0136097D01*
X0254249Y0136059D01*
X0254309Y0136025D01*
X0254372Y0135994D01*
X0254435Y0135967D01*
X0254500Y0135943D01*
X0254567Y0135923D01*
X0254634Y0135906D01*
X0254702Y0135893D01*
X0254771Y0135884D01*
X0254840Y0135878D01*
X0254909Y0135876D01*
X0254979Y0135877D01*
X0255048Y0135882D01*
X0255117Y0135890D01*
X0255186Y0135902D01*
X0255253Y0135918D01*
X0255320Y0135938D01*
X0255386Y0135962D01*
X0255450Y0135989D01*
X0255512Y0136019D01*
X0255573Y0136053D01*
X0255632Y0136090D01*
X0255689Y0136131D01*
X0255743Y0136174D01*
X0255795Y0136221D01*
X0255844Y0136270D01*
X0255891Y0136322D01*
X0255934Y0136376D01*
X0255975Y0136433D01*
X0256012Y0136492D01*
X0256046Y0136553D01*
X0256076Y0136615D01*
X0256103Y0136679D01*
X0256127Y0136745D01*
X0256147Y0136812D01*
X0256163Y0136879D01*
X0256175Y0136948D01*
X0256183Y0137017D01*
X0256188Y0137086D01*
X0256189Y0137156D01*
X0257468Y0148691D02*
X0257468Y0151053D01*
X0257467Y0151053D02*
X0257457Y0151124D01*
X0257443Y0151193D01*
X0257425Y0151262D01*
X0257404Y0151330D01*
X0257379Y0151397D01*
X0257350Y0151462D01*
X0257318Y0151526D01*
X0257283Y0151587D01*
X0257245Y0151647D01*
X0257203Y0151705D01*
X0257158Y0151760D01*
X0257111Y0151814D01*
X0257061Y0151864D01*
X0257008Y0151912D01*
X0256953Y0151957D01*
X0256895Y0151998D01*
X0256836Y0152037D01*
X0256774Y0152073D01*
X0256711Y0152105D01*
X0256645Y0152134D01*
X0256579Y0152159D01*
X0256511Y0152181D01*
X0256442Y0152199D01*
X0256373Y0152214D01*
X0256303Y0152224D01*
X0256232Y0152231D01*
X0256161Y0152235D01*
X0256090Y0152234D01*
X0256089Y0152234D02*
X0256018Y0152235D01*
X0255947Y0152231D01*
X0255876Y0152224D01*
X0255806Y0152214D01*
X0255737Y0152199D01*
X0255668Y0152181D01*
X0255600Y0152159D01*
X0255534Y0152134D01*
X0255468Y0152105D01*
X0255405Y0152073D01*
X0255343Y0152037D01*
X0255284Y0151998D01*
X0255226Y0151957D01*
X0255171Y0151912D01*
X0255118Y0151864D01*
X0255068Y0151814D01*
X0255021Y0151760D01*
X0254976Y0151705D01*
X0254934Y0151647D01*
X0254896Y0151587D01*
X0254861Y0151526D01*
X0254829Y0151462D01*
X0254800Y0151397D01*
X0254775Y0151330D01*
X0254754Y0151262D01*
X0254736Y0151193D01*
X0254722Y0151124D01*
X0254712Y0151053D01*
X0254712Y0148691D01*
X0254722Y0148620D01*
X0254736Y0148551D01*
X0254754Y0148482D01*
X0254775Y0148414D01*
X0254800Y0148347D01*
X0254829Y0148282D01*
X0254861Y0148218D01*
X0254896Y0148157D01*
X0254934Y0148097D01*
X0254976Y0148039D01*
X0255021Y0147984D01*
X0255068Y0147930D01*
X0255118Y0147880D01*
X0255171Y0147832D01*
X0255226Y0147787D01*
X0255284Y0147746D01*
X0255343Y0147707D01*
X0255405Y0147671D01*
X0255468Y0147639D01*
X0255534Y0147610D01*
X0255600Y0147585D01*
X0255668Y0147563D01*
X0255737Y0147545D01*
X0255806Y0147530D01*
X0255876Y0147520D01*
X0255947Y0147513D01*
X0256018Y0147509D01*
X0256089Y0147510D01*
X0256090Y0147510D02*
X0256161Y0147509D01*
X0256232Y0147513D01*
X0256303Y0147520D01*
X0256373Y0147530D01*
X0256442Y0147545D01*
X0256511Y0147563D01*
X0256579Y0147585D01*
X0256645Y0147610D01*
X0256711Y0147639D01*
X0256774Y0147671D01*
X0256836Y0147707D01*
X0256895Y0147746D01*
X0256953Y0147787D01*
X0257008Y0147832D01*
X0257061Y0147880D01*
X0257111Y0147930D01*
X0257158Y0147984D01*
X0257203Y0148039D01*
X0257245Y0148097D01*
X0257283Y0148157D01*
X0257318Y0148218D01*
X0257350Y0148282D01*
X0257379Y0148347D01*
X0257404Y0148414D01*
X0257425Y0148482D01*
X0257443Y0148551D01*
X0257457Y0148620D01*
X0257467Y0148691D01*
X0235972Y0148691D02*
X0235972Y0151053D01*
X0235971Y0151053D02*
X0235961Y0151124D01*
X0235947Y0151193D01*
X0235929Y0151262D01*
X0235908Y0151330D01*
X0235883Y0151397D01*
X0235854Y0151462D01*
X0235822Y0151526D01*
X0235787Y0151587D01*
X0235749Y0151647D01*
X0235707Y0151705D01*
X0235662Y0151760D01*
X0235615Y0151814D01*
X0235565Y0151864D01*
X0235512Y0151912D01*
X0235457Y0151957D01*
X0235399Y0151998D01*
X0235340Y0152037D01*
X0235278Y0152073D01*
X0235215Y0152105D01*
X0235149Y0152134D01*
X0235083Y0152159D01*
X0235015Y0152181D01*
X0234946Y0152199D01*
X0234877Y0152214D01*
X0234807Y0152224D01*
X0234736Y0152231D01*
X0234665Y0152235D01*
X0234594Y0152234D01*
X0234593Y0152234D02*
X0234522Y0152235D01*
X0234451Y0152231D01*
X0234380Y0152224D01*
X0234310Y0152214D01*
X0234241Y0152199D01*
X0234172Y0152181D01*
X0234104Y0152159D01*
X0234038Y0152134D01*
X0233972Y0152105D01*
X0233909Y0152073D01*
X0233847Y0152037D01*
X0233788Y0151998D01*
X0233730Y0151957D01*
X0233675Y0151912D01*
X0233622Y0151864D01*
X0233572Y0151814D01*
X0233525Y0151760D01*
X0233480Y0151705D01*
X0233438Y0151647D01*
X0233400Y0151587D01*
X0233365Y0151526D01*
X0233333Y0151462D01*
X0233304Y0151397D01*
X0233279Y0151330D01*
X0233258Y0151262D01*
X0233240Y0151193D01*
X0233226Y0151124D01*
X0233216Y0151053D01*
X0233216Y0148691D01*
X0233226Y0148620D01*
X0233240Y0148551D01*
X0233258Y0148482D01*
X0233279Y0148414D01*
X0233304Y0148347D01*
X0233333Y0148282D01*
X0233365Y0148218D01*
X0233400Y0148157D01*
X0233438Y0148097D01*
X0233480Y0148039D01*
X0233525Y0147984D01*
X0233572Y0147930D01*
X0233622Y0147880D01*
X0233675Y0147832D01*
X0233730Y0147787D01*
X0233788Y0147746D01*
X0233847Y0147707D01*
X0233909Y0147671D01*
X0233972Y0147639D01*
X0234038Y0147610D01*
X0234104Y0147585D01*
X0234172Y0147563D01*
X0234241Y0147545D01*
X0234310Y0147530D01*
X0234380Y0147520D01*
X0234451Y0147513D01*
X0234522Y0147509D01*
X0234593Y0147510D01*
X0234594Y0147510D02*
X0234665Y0147509D01*
X0234736Y0147513D01*
X0234807Y0147520D01*
X0234877Y0147530D01*
X0234946Y0147545D01*
X0235015Y0147563D01*
X0235083Y0147585D01*
X0235149Y0147610D01*
X0235215Y0147639D01*
X0235278Y0147671D01*
X0235340Y0147707D01*
X0235399Y0147746D01*
X0235457Y0147787D01*
X0235512Y0147832D01*
X0235565Y0147880D01*
X0235615Y0147930D01*
X0235662Y0147984D01*
X0235707Y0148039D01*
X0235749Y0148097D01*
X0235787Y0148157D01*
X0235822Y0148218D01*
X0235854Y0148282D01*
X0235883Y0148347D01*
X0235908Y0148414D01*
X0235929Y0148482D01*
X0235947Y0148551D01*
X0235961Y0148620D01*
X0235971Y0148691D01*
X0235735Y0140009D02*
X0235668Y0140011D01*
X0235601Y0140009D01*
X0235534Y0140003D01*
X0235467Y0139993D01*
X0235401Y0139980D01*
X0235336Y0139963D01*
X0235272Y0139942D01*
X0235210Y0139917D01*
X0235148Y0139889D01*
X0235089Y0139857D01*
X0235031Y0139823D01*
X0234976Y0139785D01*
X0234923Y0139743D01*
X0234872Y0139699D01*
X0234824Y0139652D01*
X0234778Y0139603D01*
X0234736Y0139550D01*
X0234696Y0139496D01*
X0234660Y0139439D01*
X0234627Y0139381D01*
X0234597Y0139320D01*
X0234571Y0139258D01*
X0234549Y0139195D01*
X0234530Y0139130D01*
X0234514Y0139065D01*
X0234503Y0138998D01*
X0234495Y0138932D01*
X0234491Y0138864D01*
X0234491Y0138797D01*
X0234495Y0138730D01*
X0234495Y0137156D01*
X0234497Y0137087D01*
X0234503Y0137018D01*
X0234512Y0136949D01*
X0234525Y0136881D01*
X0234542Y0136814D01*
X0234562Y0136747D01*
X0234586Y0136682D01*
X0234613Y0136619D01*
X0234644Y0136556D01*
X0234678Y0136496D01*
X0234716Y0136438D01*
X0234756Y0136381D01*
X0234799Y0136327D01*
X0234846Y0136276D01*
X0234895Y0136227D01*
X0234946Y0136180D01*
X0235000Y0136137D01*
X0235057Y0136097D01*
X0235115Y0136059D01*
X0235175Y0136025D01*
X0235238Y0135994D01*
X0235301Y0135967D01*
X0235366Y0135943D01*
X0235433Y0135923D01*
X0235500Y0135906D01*
X0235568Y0135893D01*
X0235637Y0135884D01*
X0235706Y0135878D01*
X0235775Y0135876D01*
X0235845Y0135877D01*
X0235914Y0135882D01*
X0235983Y0135890D01*
X0236052Y0135902D01*
X0236119Y0135918D01*
X0236186Y0135938D01*
X0236252Y0135962D01*
X0236316Y0135989D01*
X0236378Y0136019D01*
X0236439Y0136053D01*
X0236498Y0136090D01*
X0236555Y0136131D01*
X0236609Y0136174D01*
X0236661Y0136221D01*
X0236710Y0136270D01*
X0236757Y0136322D01*
X0236800Y0136376D01*
X0236841Y0136433D01*
X0236878Y0136492D01*
X0236912Y0136553D01*
X0236942Y0136615D01*
X0236969Y0136679D01*
X0236993Y0136745D01*
X0237013Y0136812D01*
X0237029Y0136879D01*
X0237041Y0136948D01*
X0237049Y0137017D01*
X0237054Y0137086D01*
X0237055Y0137156D01*
X0237054Y0137156D02*
X0237054Y0138730D01*
X0237055Y0138730D02*
X0237050Y0138802D01*
X0237041Y0138874D01*
X0237028Y0138945D01*
X0237011Y0139016D01*
X0236991Y0139085D01*
X0236966Y0139153D01*
X0236939Y0139220D01*
X0236907Y0139285D01*
X0236872Y0139349D01*
X0236834Y0139410D01*
X0236793Y0139469D01*
X0236748Y0139526D01*
X0236700Y0139581D01*
X0236650Y0139632D01*
X0236596Y0139681D01*
X0236541Y0139727D01*
X0236482Y0139770D01*
X0236422Y0139810D01*
X0236359Y0139846D01*
X0236295Y0139879D01*
X0236229Y0139909D01*
X0236161Y0139934D01*
X0236092Y0139957D01*
X0236022Y0139975D01*
X0235951Y0139989D01*
X0235880Y0140000D01*
X0235808Y0140007D01*
X0235735Y0140010D01*
X0095468Y0148691D02*
X0095468Y0151053D01*
X0095467Y0151053D02*
X0095457Y0151124D01*
X0095443Y0151193D01*
X0095425Y0151262D01*
X0095404Y0151330D01*
X0095379Y0151397D01*
X0095350Y0151462D01*
X0095318Y0151526D01*
X0095283Y0151587D01*
X0095245Y0151647D01*
X0095203Y0151705D01*
X0095158Y0151760D01*
X0095111Y0151814D01*
X0095061Y0151864D01*
X0095008Y0151912D01*
X0094953Y0151957D01*
X0094895Y0151998D01*
X0094836Y0152037D01*
X0094774Y0152073D01*
X0094711Y0152105D01*
X0094645Y0152134D01*
X0094579Y0152159D01*
X0094511Y0152181D01*
X0094442Y0152199D01*
X0094373Y0152214D01*
X0094303Y0152224D01*
X0094232Y0152231D01*
X0094161Y0152235D01*
X0094090Y0152234D01*
X0094089Y0152234D02*
X0094018Y0152235D01*
X0093947Y0152231D01*
X0093876Y0152224D01*
X0093806Y0152214D01*
X0093737Y0152199D01*
X0093668Y0152181D01*
X0093600Y0152159D01*
X0093534Y0152134D01*
X0093468Y0152105D01*
X0093405Y0152073D01*
X0093343Y0152037D01*
X0093284Y0151998D01*
X0093226Y0151957D01*
X0093171Y0151912D01*
X0093118Y0151864D01*
X0093068Y0151814D01*
X0093021Y0151760D01*
X0092976Y0151705D01*
X0092934Y0151647D01*
X0092896Y0151587D01*
X0092861Y0151526D01*
X0092829Y0151462D01*
X0092800Y0151397D01*
X0092775Y0151330D01*
X0092754Y0151262D01*
X0092736Y0151193D01*
X0092722Y0151124D01*
X0092712Y0151053D01*
X0092712Y0148691D01*
X0092722Y0148620D01*
X0092736Y0148551D01*
X0092754Y0148482D01*
X0092775Y0148414D01*
X0092800Y0148347D01*
X0092829Y0148282D01*
X0092861Y0148218D01*
X0092896Y0148157D01*
X0092934Y0148097D01*
X0092976Y0148039D01*
X0093021Y0147984D01*
X0093068Y0147930D01*
X0093118Y0147880D01*
X0093171Y0147832D01*
X0093226Y0147787D01*
X0093284Y0147746D01*
X0093343Y0147707D01*
X0093405Y0147671D01*
X0093468Y0147639D01*
X0093534Y0147610D01*
X0093600Y0147585D01*
X0093668Y0147563D01*
X0093737Y0147545D01*
X0093806Y0147530D01*
X0093876Y0147520D01*
X0093947Y0147513D01*
X0094018Y0147509D01*
X0094089Y0147510D01*
X0094090Y0147510D02*
X0094161Y0147509D01*
X0094232Y0147513D01*
X0094303Y0147520D01*
X0094373Y0147530D01*
X0094442Y0147545D01*
X0094511Y0147563D01*
X0094579Y0147585D01*
X0094645Y0147610D01*
X0094711Y0147639D01*
X0094774Y0147671D01*
X0094836Y0147707D01*
X0094895Y0147746D01*
X0094953Y0147787D01*
X0095008Y0147832D01*
X0095061Y0147880D01*
X0095111Y0147930D01*
X0095158Y0147984D01*
X0095203Y0148039D01*
X0095245Y0148097D01*
X0095283Y0148157D01*
X0095318Y0148218D01*
X0095350Y0148282D01*
X0095379Y0148347D01*
X0095404Y0148414D01*
X0095425Y0148482D01*
X0095443Y0148551D01*
X0095457Y0148620D01*
X0095467Y0148691D01*
X0094188Y0138730D02*
X0094188Y0137156D01*
X0094189Y0137156D02*
X0094188Y0137086D01*
X0094183Y0137017D01*
X0094175Y0136948D01*
X0094163Y0136879D01*
X0094147Y0136812D01*
X0094127Y0136745D01*
X0094103Y0136679D01*
X0094076Y0136615D01*
X0094046Y0136553D01*
X0094012Y0136492D01*
X0093975Y0136433D01*
X0093934Y0136376D01*
X0093891Y0136322D01*
X0093844Y0136270D01*
X0093795Y0136221D01*
X0093743Y0136174D01*
X0093689Y0136131D01*
X0093632Y0136090D01*
X0093573Y0136053D01*
X0093512Y0136019D01*
X0093450Y0135989D01*
X0093386Y0135962D01*
X0093320Y0135938D01*
X0093253Y0135918D01*
X0093186Y0135902D01*
X0093117Y0135890D01*
X0093048Y0135882D01*
X0092979Y0135877D01*
X0092909Y0135876D01*
X0092840Y0135878D01*
X0092771Y0135884D01*
X0092702Y0135893D01*
X0092634Y0135906D01*
X0092567Y0135923D01*
X0092500Y0135943D01*
X0092435Y0135967D01*
X0092372Y0135994D01*
X0092309Y0136025D01*
X0092249Y0136059D01*
X0092191Y0136097D01*
X0092134Y0136137D01*
X0092080Y0136180D01*
X0092029Y0136227D01*
X0091980Y0136276D01*
X0091933Y0136327D01*
X0091890Y0136381D01*
X0091850Y0136438D01*
X0091812Y0136496D01*
X0091778Y0136556D01*
X0091747Y0136619D01*
X0091720Y0136682D01*
X0091696Y0136747D01*
X0091676Y0136814D01*
X0091659Y0136881D01*
X0091646Y0136949D01*
X0091637Y0137018D01*
X0091631Y0137087D01*
X0091629Y0137156D01*
X0091629Y0138730D01*
X0091625Y0138797D01*
X0091625Y0138864D01*
X0091629Y0138932D01*
X0091637Y0138998D01*
X0091648Y0139065D01*
X0091664Y0139130D01*
X0091683Y0139195D01*
X0091705Y0139258D01*
X0091731Y0139320D01*
X0091761Y0139381D01*
X0091794Y0139439D01*
X0091830Y0139496D01*
X0091870Y0139550D01*
X0091912Y0139603D01*
X0091958Y0139652D01*
X0092006Y0139699D01*
X0092057Y0139743D01*
X0092110Y0139785D01*
X0092165Y0139823D01*
X0092223Y0139857D01*
X0092282Y0139889D01*
X0092344Y0139917D01*
X0092406Y0139942D01*
X0092470Y0139963D01*
X0092535Y0139980D01*
X0092601Y0139993D01*
X0092668Y0140003D01*
X0092735Y0140009D01*
X0092802Y0140011D01*
X0092869Y0140009D01*
X0092869Y0140010D02*
X0092942Y0140007D01*
X0093014Y0140000D01*
X0093085Y0139989D01*
X0093156Y0139975D01*
X0093226Y0139957D01*
X0093295Y0139934D01*
X0093363Y0139909D01*
X0093429Y0139879D01*
X0093493Y0139846D01*
X0093556Y0139810D01*
X0093616Y0139770D01*
X0093675Y0139727D01*
X0093730Y0139681D01*
X0093784Y0139632D01*
X0093834Y0139581D01*
X0093882Y0139526D01*
X0093927Y0139469D01*
X0093968Y0139410D01*
X0094006Y0139349D01*
X0094041Y0139285D01*
X0094073Y0139220D01*
X0094100Y0139153D01*
X0094125Y0139085D01*
X0094145Y0139016D01*
X0094162Y0138945D01*
X0094175Y0138874D01*
X0094184Y0138802D01*
X0094189Y0138730D01*
X0075054Y0138730D02*
X0075054Y0137156D01*
X0075055Y0137156D02*
X0075054Y0137086D01*
X0075049Y0137017D01*
X0075041Y0136948D01*
X0075029Y0136879D01*
X0075013Y0136812D01*
X0074993Y0136745D01*
X0074969Y0136679D01*
X0074942Y0136615D01*
X0074912Y0136553D01*
X0074878Y0136492D01*
X0074841Y0136433D01*
X0074800Y0136376D01*
X0074757Y0136322D01*
X0074710Y0136270D01*
X0074661Y0136221D01*
X0074609Y0136174D01*
X0074555Y0136131D01*
X0074498Y0136090D01*
X0074439Y0136053D01*
X0074378Y0136019D01*
X0074316Y0135989D01*
X0074252Y0135962D01*
X0074186Y0135938D01*
X0074119Y0135918D01*
X0074052Y0135902D01*
X0073983Y0135890D01*
X0073914Y0135882D01*
X0073845Y0135877D01*
X0073775Y0135876D01*
X0073706Y0135878D01*
X0073637Y0135884D01*
X0073568Y0135893D01*
X0073500Y0135906D01*
X0073433Y0135923D01*
X0073366Y0135943D01*
X0073301Y0135967D01*
X0073238Y0135994D01*
X0073175Y0136025D01*
X0073115Y0136059D01*
X0073057Y0136097D01*
X0073000Y0136137D01*
X0072946Y0136180D01*
X0072895Y0136227D01*
X0072846Y0136276D01*
X0072799Y0136327D01*
X0072756Y0136381D01*
X0072716Y0136438D01*
X0072678Y0136496D01*
X0072644Y0136556D01*
X0072613Y0136619D01*
X0072586Y0136682D01*
X0072562Y0136747D01*
X0072542Y0136814D01*
X0072525Y0136881D01*
X0072512Y0136949D01*
X0072503Y0137018D01*
X0072497Y0137087D01*
X0072495Y0137156D01*
X0072495Y0138730D01*
X0072491Y0138797D01*
X0072491Y0138864D01*
X0072495Y0138932D01*
X0072503Y0138998D01*
X0072514Y0139065D01*
X0072530Y0139130D01*
X0072549Y0139195D01*
X0072571Y0139258D01*
X0072597Y0139320D01*
X0072627Y0139381D01*
X0072660Y0139439D01*
X0072696Y0139496D01*
X0072736Y0139550D01*
X0072778Y0139603D01*
X0072824Y0139652D01*
X0072872Y0139699D01*
X0072923Y0139743D01*
X0072976Y0139785D01*
X0073031Y0139823D01*
X0073089Y0139857D01*
X0073148Y0139889D01*
X0073210Y0139917D01*
X0073272Y0139942D01*
X0073336Y0139963D01*
X0073401Y0139980D01*
X0073467Y0139993D01*
X0073534Y0140003D01*
X0073601Y0140009D01*
X0073668Y0140011D01*
X0073735Y0140009D01*
X0073735Y0140010D02*
X0073808Y0140007D01*
X0073880Y0140000D01*
X0073951Y0139989D01*
X0074022Y0139975D01*
X0074092Y0139957D01*
X0074161Y0139934D01*
X0074229Y0139909D01*
X0074295Y0139879D01*
X0074359Y0139846D01*
X0074422Y0139810D01*
X0074482Y0139770D01*
X0074541Y0139727D01*
X0074596Y0139681D01*
X0074650Y0139632D01*
X0074700Y0139581D01*
X0074748Y0139526D01*
X0074793Y0139469D01*
X0074834Y0139410D01*
X0074872Y0139349D01*
X0074907Y0139285D01*
X0074939Y0139220D01*
X0074966Y0139153D01*
X0074991Y0139085D01*
X0075011Y0139016D01*
X0075028Y0138945D01*
X0075041Y0138874D01*
X0075050Y0138802D01*
X0075055Y0138730D01*
X0073972Y0148691D02*
X0073972Y0151053D01*
X0073971Y0151053D02*
X0073961Y0151124D01*
X0073947Y0151193D01*
X0073929Y0151262D01*
X0073908Y0151330D01*
X0073883Y0151397D01*
X0073854Y0151462D01*
X0073822Y0151526D01*
X0073787Y0151587D01*
X0073749Y0151647D01*
X0073707Y0151705D01*
X0073662Y0151760D01*
X0073615Y0151814D01*
X0073565Y0151864D01*
X0073512Y0151912D01*
X0073457Y0151957D01*
X0073399Y0151998D01*
X0073340Y0152037D01*
X0073278Y0152073D01*
X0073215Y0152105D01*
X0073149Y0152134D01*
X0073083Y0152159D01*
X0073015Y0152181D01*
X0072946Y0152199D01*
X0072877Y0152214D01*
X0072807Y0152224D01*
X0072736Y0152231D01*
X0072665Y0152235D01*
X0072594Y0152234D01*
X0072593Y0152234D02*
X0072522Y0152235D01*
X0072451Y0152231D01*
X0072380Y0152224D01*
X0072310Y0152214D01*
X0072241Y0152199D01*
X0072172Y0152181D01*
X0072104Y0152159D01*
X0072038Y0152134D01*
X0071972Y0152105D01*
X0071909Y0152073D01*
X0071847Y0152037D01*
X0071788Y0151998D01*
X0071730Y0151957D01*
X0071675Y0151912D01*
X0071622Y0151864D01*
X0071572Y0151814D01*
X0071525Y0151760D01*
X0071480Y0151705D01*
X0071438Y0151647D01*
X0071400Y0151587D01*
X0071365Y0151526D01*
X0071333Y0151462D01*
X0071304Y0151397D01*
X0071279Y0151330D01*
X0071258Y0151262D01*
X0071240Y0151193D01*
X0071226Y0151124D01*
X0071216Y0151053D01*
X0071216Y0148691D01*
X0071226Y0148620D01*
X0071240Y0148551D01*
X0071258Y0148482D01*
X0071279Y0148414D01*
X0071304Y0148347D01*
X0071333Y0148282D01*
X0071365Y0148218D01*
X0071400Y0148157D01*
X0071438Y0148097D01*
X0071480Y0148039D01*
X0071525Y0147984D01*
X0071572Y0147930D01*
X0071622Y0147880D01*
X0071675Y0147832D01*
X0071730Y0147787D01*
X0071788Y0147746D01*
X0071847Y0147707D01*
X0071909Y0147671D01*
X0071972Y0147639D01*
X0072038Y0147610D01*
X0072104Y0147585D01*
X0072172Y0147563D01*
X0072241Y0147545D01*
X0072310Y0147530D01*
X0072380Y0147520D01*
X0072451Y0147513D01*
X0072522Y0147509D01*
X0072593Y0147510D01*
X0072594Y0147510D02*
X0072665Y0147509D01*
X0072736Y0147513D01*
X0072807Y0147520D01*
X0072877Y0147530D01*
X0072946Y0147545D01*
X0073015Y0147563D01*
X0073083Y0147585D01*
X0073149Y0147610D01*
X0073215Y0147639D01*
X0073278Y0147671D01*
X0073340Y0147707D01*
X0073399Y0147746D01*
X0073457Y0147787D01*
X0073512Y0147832D01*
X0073565Y0147880D01*
X0073615Y0147930D01*
X0073662Y0147984D01*
X0073707Y0148039D01*
X0073749Y0148097D01*
X0073787Y0148157D01*
X0073822Y0148218D01*
X0073854Y0148282D01*
X0073883Y0148347D01*
X0073908Y0148414D01*
X0073929Y0148482D01*
X0073947Y0148551D01*
X0073961Y0148620D01*
X0073971Y0148691D01*
X0073775Y0267876D02*
X0073845Y0267877D01*
X0073914Y0267882D01*
X0073983Y0267890D01*
X0074052Y0267902D01*
X0074119Y0267918D01*
X0074186Y0267938D01*
X0074252Y0267962D01*
X0074316Y0267989D01*
X0074378Y0268019D01*
X0074439Y0268053D01*
X0074498Y0268090D01*
X0074555Y0268131D01*
X0074609Y0268174D01*
X0074661Y0268221D01*
X0074710Y0268270D01*
X0074757Y0268322D01*
X0074800Y0268376D01*
X0074841Y0268433D01*
X0074878Y0268492D01*
X0074912Y0268553D01*
X0074942Y0268615D01*
X0074969Y0268679D01*
X0074993Y0268745D01*
X0075013Y0268812D01*
X0075029Y0268879D01*
X0075041Y0268948D01*
X0075049Y0269017D01*
X0075054Y0269086D01*
X0075055Y0269156D01*
X0075054Y0269156D02*
X0075054Y0270730D01*
X0075055Y0270730D02*
X0075050Y0270802D01*
X0075041Y0270874D01*
X0075028Y0270945D01*
X0075011Y0271016D01*
X0074991Y0271085D01*
X0074966Y0271153D01*
X0074939Y0271220D01*
X0074907Y0271285D01*
X0074872Y0271349D01*
X0074834Y0271410D01*
X0074793Y0271469D01*
X0074748Y0271526D01*
X0074700Y0271581D01*
X0074650Y0271632D01*
X0074596Y0271681D01*
X0074541Y0271727D01*
X0074482Y0271770D01*
X0074422Y0271810D01*
X0074359Y0271846D01*
X0074295Y0271879D01*
X0074229Y0271909D01*
X0074161Y0271934D01*
X0074092Y0271957D01*
X0074022Y0271975D01*
X0073951Y0271989D01*
X0073880Y0272000D01*
X0073808Y0272007D01*
X0073735Y0272010D01*
X0073735Y0272009D02*
X0073668Y0272011D01*
X0073601Y0272009D01*
X0073534Y0272003D01*
X0073467Y0271993D01*
X0073401Y0271980D01*
X0073336Y0271963D01*
X0073272Y0271942D01*
X0073210Y0271917D01*
X0073148Y0271889D01*
X0073089Y0271857D01*
X0073031Y0271823D01*
X0072976Y0271785D01*
X0072923Y0271743D01*
X0072872Y0271699D01*
X0072824Y0271652D01*
X0072778Y0271603D01*
X0072736Y0271550D01*
X0072696Y0271496D01*
X0072660Y0271439D01*
X0072627Y0271381D01*
X0072597Y0271320D01*
X0072571Y0271258D01*
X0072549Y0271195D01*
X0072530Y0271130D01*
X0072514Y0271065D01*
X0072503Y0270998D01*
X0072495Y0270932D01*
X0072491Y0270864D01*
X0072491Y0270797D01*
X0072495Y0270730D01*
X0072495Y0269156D01*
X0072497Y0269087D01*
X0072503Y0269018D01*
X0072512Y0268949D01*
X0072525Y0268881D01*
X0072542Y0268814D01*
X0072562Y0268747D01*
X0072586Y0268682D01*
X0072613Y0268619D01*
X0072644Y0268556D01*
X0072678Y0268496D01*
X0072716Y0268438D01*
X0072756Y0268381D01*
X0072799Y0268327D01*
X0072846Y0268276D01*
X0072895Y0268227D01*
X0072946Y0268180D01*
X0073000Y0268137D01*
X0073057Y0268097D01*
X0073115Y0268059D01*
X0073175Y0268025D01*
X0073238Y0267994D01*
X0073301Y0267967D01*
X0073366Y0267943D01*
X0073433Y0267923D01*
X0073500Y0267906D01*
X0073568Y0267893D01*
X0073637Y0267884D01*
X0073706Y0267878D01*
X0073775Y0267876D01*
X0073972Y0280691D02*
X0073972Y0283053D01*
X0073971Y0283053D02*
X0073961Y0283124D01*
X0073947Y0283193D01*
X0073929Y0283262D01*
X0073908Y0283330D01*
X0073883Y0283397D01*
X0073854Y0283462D01*
X0073822Y0283526D01*
X0073787Y0283587D01*
X0073749Y0283647D01*
X0073707Y0283705D01*
X0073662Y0283760D01*
X0073615Y0283814D01*
X0073565Y0283864D01*
X0073512Y0283912D01*
X0073457Y0283957D01*
X0073399Y0283998D01*
X0073340Y0284037D01*
X0073278Y0284073D01*
X0073215Y0284105D01*
X0073149Y0284134D01*
X0073083Y0284159D01*
X0073015Y0284181D01*
X0072946Y0284199D01*
X0072877Y0284214D01*
X0072807Y0284224D01*
X0072736Y0284231D01*
X0072665Y0284235D01*
X0072594Y0284234D01*
X0072593Y0284234D02*
X0072522Y0284235D01*
X0072451Y0284231D01*
X0072380Y0284224D01*
X0072310Y0284214D01*
X0072241Y0284199D01*
X0072172Y0284181D01*
X0072104Y0284159D01*
X0072038Y0284134D01*
X0071972Y0284105D01*
X0071909Y0284073D01*
X0071847Y0284037D01*
X0071788Y0283998D01*
X0071730Y0283957D01*
X0071675Y0283912D01*
X0071622Y0283864D01*
X0071572Y0283814D01*
X0071525Y0283760D01*
X0071480Y0283705D01*
X0071438Y0283647D01*
X0071400Y0283587D01*
X0071365Y0283526D01*
X0071333Y0283462D01*
X0071304Y0283397D01*
X0071279Y0283330D01*
X0071258Y0283262D01*
X0071240Y0283193D01*
X0071226Y0283124D01*
X0071216Y0283053D01*
X0071216Y0280691D01*
X0071226Y0280620D01*
X0071240Y0280551D01*
X0071258Y0280482D01*
X0071279Y0280414D01*
X0071304Y0280347D01*
X0071333Y0280282D01*
X0071365Y0280218D01*
X0071400Y0280157D01*
X0071438Y0280097D01*
X0071480Y0280039D01*
X0071525Y0279984D01*
X0071572Y0279930D01*
X0071622Y0279880D01*
X0071675Y0279832D01*
X0071730Y0279787D01*
X0071788Y0279746D01*
X0071847Y0279707D01*
X0071909Y0279671D01*
X0071972Y0279639D01*
X0072038Y0279610D01*
X0072104Y0279585D01*
X0072172Y0279563D01*
X0072241Y0279545D01*
X0072310Y0279530D01*
X0072380Y0279520D01*
X0072451Y0279513D01*
X0072522Y0279509D01*
X0072593Y0279510D01*
X0072594Y0279510D02*
X0072665Y0279509D01*
X0072736Y0279513D01*
X0072807Y0279520D01*
X0072877Y0279530D01*
X0072946Y0279545D01*
X0073015Y0279563D01*
X0073083Y0279585D01*
X0073149Y0279610D01*
X0073215Y0279639D01*
X0073278Y0279671D01*
X0073340Y0279707D01*
X0073399Y0279746D01*
X0073457Y0279787D01*
X0073512Y0279832D01*
X0073565Y0279880D01*
X0073615Y0279930D01*
X0073662Y0279984D01*
X0073707Y0280039D01*
X0073749Y0280097D01*
X0073787Y0280157D01*
X0073822Y0280218D01*
X0073854Y0280282D01*
X0073883Y0280347D01*
X0073908Y0280414D01*
X0073929Y0280482D01*
X0073947Y0280551D01*
X0073961Y0280620D01*
X0073971Y0280691D01*
X0092712Y0280691D02*
X0092712Y0283053D01*
X0092722Y0283124D01*
X0092736Y0283193D01*
X0092754Y0283262D01*
X0092775Y0283330D01*
X0092800Y0283397D01*
X0092829Y0283462D01*
X0092861Y0283526D01*
X0092896Y0283587D01*
X0092934Y0283647D01*
X0092976Y0283705D01*
X0093021Y0283760D01*
X0093068Y0283814D01*
X0093118Y0283864D01*
X0093171Y0283912D01*
X0093226Y0283957D01*
X0093284Y0283998D01*
X0093343Y0284037D01*
X0093405Y0284073D01*
X0093468Y0284105D01*
X0093534Y0284134D01*
X0093600Y0284159D01*
X0093668Y0284181D01*
X0093737Y0284199D01*
X0093806Y0284214D01*
X0093876Y0284224D01*
X0093947Y0284231D01*
X0094018Y0284235D01*
X0094089Y0284234D01*
X0094090Y0284234D02*
X0094161Y0284235D01*
X0094232Y0284231D01*
X0094303Y0284224D01*
X0094373Y0284214D01*
X0094442Y0284199D01*
X0094511Y0284181D01*
X0094579Y0284159D01*
X0094645Y0284134D01*
X0094711Y0284105D01*
X0094774Y0284073D01*
X0094836Y0284037D01*
X0094895Y0283998D01*
X0094953Y0283957D01*
X0095008Y0283912D01*
X0095061Y0283864D01*
X0095111Y0283814D01*
X0095158Y0283760D01*
X0095203Y0283705D01*
X0095245Y0283647D01*
X0095283Y0283587D01*
X0095318Y0283526D01*
X0095350Y0283462D01*
X0095379Y0283397D01*
X0095404Y0283330D01*
X0095425Y0283262D01*
X0095443Y0283193D01*
X0095457Y0283124D01*
X0095467Y0283053D01*
X0095468Y0283053D02*
X0095468Y0280691D01*
X0095467Y0280691D02*
X0095457Y0280620D01*
X0095443Y0280551D01*
X0095425Y0280482D01*
X0095404Y0280414D01*
X0095379Y0280347D01*
X0095350Y0280282D01*
X0095318Y0280218D01*
X0095283Y0280157D01*
X0095245Y0280097D01*
X0095203Y0280039D01*
X0095158Y0279984D01*
X0095111Y0279930D01*
X0095061Y0279880D01*
X0095008Y0279832D01*
X0094953Y0279787D01*
X0094895Y0279746D01*
X0094836Y0279707D01*
X0094774Y0279671D01*
X0094711Y0279639D01*
X0094645Y0279610D01*
X0094579Y0279585D01*
X0094511Y0279563D01*
X0094442Y0279545D01*
X0094373Y0279530D01*
X0094303Y0279520D01*
X0094232Y0279513D01*
X0094161Y0279509D01*
X0094090Y0279510D01*
X0094089Y0279510D02*
X0094018Y0279509D01*
X0093947Y0279513D01*
X0093876Y0279520D01*
X0093806Y0279530D01*
X0093737Y0279545D01*
X0093668Y0279563D01*
X0093600Y0279585D01*
X0093534Y0279610D01*
X0093468Y0279639D01*
X0093405Y0279671D01*
X0093343Y0279707D01*
X0093284Y0279746D01*
X0093226Y0279787D01*
X0093171Y0279832D01*
X0093118Y0279880D01*
X0093068Y0279930D01*
X0093021Y0279984D01*
X0092976Y0280039D01*
X0092934Y0280097D01*
X0092896Y0280157D01*
X0092861Y0280218D01*
X0092829Y0280282D01*
X0092800Y0280347D01*
X0092775Y0280414D01*
X0092754Y0280482D01*
X0092736Y0280551D01*
X0092722Y0280620D01*
X0092712Y0280691D01*
X0092869Y0272009D02*
X0092802Y0272011D01*
X0092735Y0272009D01*
X0092668Y0272003D01*
X0092601Y0271993D01*
X0092535Y0271980D01*
X0092470Y0271963D01*
X0092406Y0271942D01*
X0092344Y0271917D01*
X0092282Y0271889D01*
X0092223Y0271857D01*
X0092165Y0271823D01*
X0092110Y0271785D01*
X0092057Y0271743D01*
X0092006Y0271699D01*
X0091958Y0271652D01*
X0091912Y0271603D01*
X0091870Y0271550D01*
X0091830Y0271496D01*
X0091794Y0271439D01*
X0091761Y0271381D01*
X0091731Y0271320D01*
X0091705Y0271258D01*
X0091683Y0271195D01*
X0091664Y0271130D01*
X0091648Y0271065D01*
X0091637Y0270998D01*
X0091629Y0270932D01*
X0091625Y0270864D01*
X0091625Y0270797D01*
X0091629Y0270730D01*
X0091629Y0269156D01*
X0091631Y0269087D01*
X0091637Y0269018D01*
X0091646Y0268949D01*
X0091659Y0268881D01*
X0091676Y0268814D01*
X0091696Y0268747D01*
X0091720Y0268682D01*
X0091747Y0268619D01*
X0091778Y0268556D01*
X0091812Y0268496D01*
X0091850Y0268438D01*
X0091890Y0268381D01*
X0091933Y0268327D01*
X0091980Y0268276D01*
X0092029Y0268227D01*
X0092080Y0268180D01*
X0092134Y0268137D01*
X0092191Y0268097D01*
X0092249Y0268059D01*
X0092309Y0268025D01*
X0092372Y0267994D01*
X0092435Y0267967D01*
X0092500Y0267943D01*
X0092567Y0267923D01*
X0092634Y0267906D01*
X0092702Y0267893D01*
X0092771Y0267884D01*
X0092840Y0267878D01*
X0092909Y0267876D01*
X0092979Y0267877D01*
X0093048Y0267882D01*
X0093117Y0267890D01*
X0093186Y0267902D01*
X0093253Y0267918D01*
X0093320Y0267938D01*
X0093386Y0267962D01*
X0093450Y0267989D01*
X0093512Y0268019D01*
X0093573Y0268053D01*
X0093632Y0268090D01*
X0093689Y0268131D01*
X0093743Y0268174D01*
X0093795Y0268221D01*
X0093844Y0268270D01*
X0093891Y0268322D01*
X0093934Y0268376D01*
X0093975Y0268433D01*
X0094012Y0268492D01*
X0094046Y0268553D01*
X0094076Y0268615D01*
X0094103Y0268679D01*
X0094127Y0268745D01*
X0094147Y0268812D01*
X0094163Y0268879D01*
X0094175Y0268948D01*
X0094183Y0269017D01*
X0094188Y0269086D01*
X0094189Y0269156D01*
X0094188Y0269156D02*
X0094188Y0270730D01*
X0094189Y0270730D02*
X0094184Y0270802D01*
X0094175Y0270874D01*
X0094162Y0270945D01*
X0094145Y0271016D01*
X0094125Y0271085D01*
X0094100Y0271153D01*
X0094073Y0271220D01*
X0094041Y0271285D01*
X0094006Y0271349D01*
X0093968Y0271410D01*
X0093927Y0271469D01*
X0093882Y0271526D01*
X0093834Y0271581D01*
X0093784Y0271632D01*
X0093730Y0271681D01*
X0093675Y0271727D01*
X0093616Y0271770D01*
X0093556Y0271810D01*
X0093493Y0271846D01*
X0093429Y0271879D01*
X0093363Y0271909D01*
X0093295Y0271934D01*
X0093226Y0271957D01*
X0093156Y0271975D01*
X0093085Y0271989D01*
X0093014Y0272000D01*
X0092942Y0272007D01*
X0092869Y0272010D01*
X0233216Y0280691D02*
X0233216Y0283053D01*
X0233226Y0283124D01*
X0233240Y0283193D01*
X0233258Y0283262D01*
X0233279Y0283330D01*
X0233304Y0283397D01*
X0233333Y0283462D01*
X0233365Y0283526D01*
X0233400Y0283587D01*
X0233438Y0283647D01*
X0233480Y0283705D01*
X0233525Y0283760D01*
X0233572Y0283814D01*
X0233622Y0283864D01*
X0233675Y0283912D01*
X0233730Y0283957D01*
X0233788Y0283998D01*
X0233847Y0284037D01*
X0233909Y0284073D01*
X0233972Y0284105D01*
X0234038Y0284134D01*
X0234104Y0284159D01*
X0234172Y0284181D01*
X0234241Y0284199D01*
X0234310Y0284214D01*
X0234380Y0284224D01*
X0234451Y0284231D01*
X0234522Y0284235D01*
X0234593Y0284234D01*
X0234594Y0284234D02*
X0234665Y0284235D01*
X0234736Y0284231D01*
X0234807Y0284224D01*
X0234877Y0284214D01*
X0234946Y0284199D01*
X0235015Y0284181D01*
X0235083Y0284159D01*
X0235149Y0284134D01*
X0235215Y0284105D01*
X0235278Y0284073D01*
X0235340Y0284037D01*
X0235399Y0283998D01*
X0235457Y0283957D01*
X0235512Y0283912D01*
X0235565Y0283864D01*
X0235615Y0283814D01*
X0235662Y0283760D01*
X0235707Y0283705D01*
X0235749Y0283647D01*
X0235787Y0283587D01*
X0235822Y0283526D01*
X0235854Y0283462D01*
X0235883Y0283397D01*
X0235908Y0283330D01*
X0235929Y0283262D01*
X0235947Y0283193D01*
X0235961Y0283124D01*
X0235971Y0283053D01*
X0235972Y0283053D02*
X0235972Y0280691D01*
X0235971Y0280691D02*
X0235961Y0280620D01*
X0235947Y0280551D01*
X0235929Y0280482D01*
X0235908Y0280414D01*
X0235883Y0280347D01*
X0235854Y0280282D01*
X0235822Y0280218D01*
X0235787Y0280157D01*
X0235749Y0280097D01*
X0235707Y0280039D01*
X0235662Y0279984D01*
X0235615Y0279930D01*
X0235565Y0279880D01*
X0235512Y0279832D01*
X0235457Y0279787D01*
X0235399Y0279746D01*
X0235340Y0279707D01*
X0235278Y0279671D01*
X0235215Y0279639D01*
X0235149Y0279610D01*
X0235083Y0279585D01*
X0235015Y0279563D01*
X0234946Y0279545D01*
X0234877Y0279530D01*
X0234807Y0279520D01*
X0234736Y0279513D01*
X0234665Y0279509D01*
X0234594Y0279510D01*
X0234593Y0279510D02*
X0234522Y0279509D01*
X0234451Y0279513D01*
X0234380Y0279520D01*
X0234310Y0279530D01*
X0234241Y0279545D01*
X0234172Y0279563D01*
X0234104Y0279585D01*
X0234038Y0279610D01*
X0233972Y0279639D01*
X0233909Y0279671D01*
X0233847Y0279707D01*
X0233788Y0279746D01*
X0233730Y0279787D01*
X0233675Y0279832D01*
X0233622Y0279880D01*
X0233572Y0279930D01*
X0233525Y0279984D01*
X0233480Y0280039D01*
X0233438Y0280097D01*
X0233400Y0280157D01*
X0233365Y0280218D01*
X0233333Y0280282D01*
X0233304Y0280347D01*
X0233279Y0280414D01*
X0233258Y0280482D01*
X0233240Y0280551D01*
X0233226Y0280620D01*
X0233216Y0280691D01*
X0234495Y0270730D02*
X0234495Y0269156D01*
X0234497Y0269087D01*
X0234503Y0269018D01*
X0234512Y0268949D01*
X0234525Y0268881D01*
X0234542Y0268814D01*
X0234562Y0268747D01*
X0234586Y0268682D01*
X0234613Y0268619D01*
X0234644Y0268556D01*
X0234678Y0268496D01*
X0234716Y0268438D01*
X0234756Y0268381D01*
X0234799Y0268327D01*
X0234846Y0268276D01*
X0234895Y0268227D01*
X0234946Y0268180D01*
X0235000Y0268137D01*
X0235057Y0268097D01*
X0235115Y0268059D01*
X0235175Y0268025D01*
X0235238Y0267994D01*
X0235301Y0267967D01*
X0235366Y0267943D01*
X0235433Y0267923D01*
X0235500Y0267906D01*
X0235568Y0267893D01*
X0235637Y0267884D01*
X0235706Y0267878D01*
X0235775Y0267876D01*
X0235845Y0267877D01*
X0235914Y0267882D01*
X0235983Y0267890D01*
X0236052Y0267902D01*
X0236119Y0267918D01*
X0236186Y0267938D01*
X0236252Y0267962D01*
X0236316Y0267989D01*
X0236378Y0268019D01*
X0236439Y0268053D01*
X0236498Y0268090D01*
X0236555Y0268131D01*
X0236609Y0268174D01*
X0236661Y0268221D01*
X0236710Y0268270D01*
X0236757Y0268322D01*
X0236800Y0268376D01*
X0236841Y0268433D01*
X0236878Y0268492D01*
X0236912Y0268553D01*
X0236942Y0268615D01*
X0236969Y0268679D01*
X0236993Y0268745D01*
X0237013Y0268812D01*
X0237029Y0268879D01*
X0237041Y0268948D01*
X0237049Y0269017D01*
X0237054Y0269086D01*
X0237055Y0269156D01*
X0237054Y0269156D02*
X0237054Y0270730D01*
X0237055Y0270730D02*
X0237050Y0270802D01*
X0237041Y0270874D01*
X0237028Y0270945D01*
X0237011Y0271016D01*
X0236991Y0271085D01*
X0236966Y0271153D01*
X0236939Y0271220D01*
X0236907Y0271285D01*
X0236872Y0271349D01*
X0236834Y0271410D01*
X0236793Y0271469D01*
X0236748Y0271526D01*
X0236700Y0271581D01*
X0236650Y0271632D01*
X0236596Y0271681D01*
X0236541Y0271727D01*
X0236482Y0271770D01*
X0236422Y0271810D01*
X0236359Y0271846D01*
X0236295Y0271879D01*
X0236229Y0271909D01*
X0236161Y0271934D01*
X0236092Y0271957D01*
X0236022Y0271975D01*
X0235951Y0271989D01*
X0235880Y0272000D01*
X0235808Y0272007D01*
X0235735Y0272010D01*
X0235735Y0272009D02*
X0235668Y0272011D01*
X0235601Y0272009D01*
X0235534Y0272003D01*
X0235467Y0271993D01*
X0235401Y0271980D01*
X0235336Y0271963D01*
X0235272Y0271942D01*
X0235210Y0271917D01*
X0235148Y0271889D01*
X0235089Y0271857D01*
X0235031Y0271823D01*
X0234976Y0271785D01*
X0234923Y0271743D01*
X0234872Y0271699D01*
X0234824Y0271652D01*
X0234778Y0271603D01*
X0234736Y0271550D01*
X0234696Y0271496D01*
X0234660Y0271439D01*
X0234627Y0271381D01*
X0234597Y0271320D01*
X0234571Y0271258D01*
X0234549Y0271195D01*
X0234530Y0271130D01*
X0234514Y0271065D01*
X0234503Y0270998D01*
X0234495Y0270932D01*
X0234491Y0270864D01*
X0234491Y0270797D01*
X0234495Y0270730D01*
X0253629Y0270730D02*
X0253629Y0269156D01*
X0253631Y0269087D01*
X0253637Y0269018D01*
X0253646Y0268949D01*
X0253659Y0268881D01*
X0253676Y0268814D01*
X0253696Y0268747D01*
X0253720Y0268682D01*
X0253747Y0268619D01*
X0253778Y0268556D01*
X0253812Y0268496D01*
X0253850Y0268438D01*
X0253890Y0268381D01*
X0253933Y0268327D01*
X0253980Y0268276D01*
X0254029Y0268227D01*
X0254080Y0268180D01*
X0254134Y0268137D01*
X0254191Y0268097D01*
X0254249Y0268059D01*
X0254309Y0268025D01*
X0254372Y0267994D01*
X0254435Y0267967D01*
X0254500Y0267943D01*
X0254567Y0267923D01*
X0254634Y0267906D01*
X0254702Y0267893D01*
X0254771Y0267884D01*
X0254840Y0267878D01*
X0254909Y0267876D01*
X0254979Y0267877D01*
X0255048Y0267882D01*
X0255117Y0267890D01*
X0255186Y0267902D01*
X0255253Y0267918D01*
X0255320Y0267938D01*
X0255386Y0267962D01*
X0255450Y0267989D01*
X0255512Y0268019D01*
X0255573Y0268053D01*
X0255632Y0268090D01*
X0255689Y0268131D01*
X0255743Y0268174D01*
X0255795Y0268221D01*
X0255844Y0268270D01*
X0255891Y0268322D01*
X0255934Y0268376D01*
X0255975Y0268433D01*
X0256012Y0268492D01*
X0256046Y0268553D01*
X0256076Y0268615D01*
X0256103Y0268679D01*
X0256127Y0268745D01*
X0256147Y0268812D01*
X0256163Y0268879D01*
X0256175Y0268948D01*
X0256183Y0269017D01*
X0256188Y0269086D01*
X0256189Y0269156D01*
X0256188Y0269156D02*
X0256188Y0270730D01*
X0256189Y0270730D02*
X0256184Y0270802D01*
X0256175Y0270874D01*
X0256162Y0270945D01*
X0256145Y0271016D01*
X0256125Y0271085D01*
X0256100Y0271153D01*
X0256073Y0271220D01*
X0256041Y0271285D01*
X0256006Y0271349D01*
X0255968Y0271410D01*
X0255927Y0271469D01*
X0255882Y0271526D01*
X0255834Y0271581D01*
X0255784Y0271632D01*
X0255730Y0271681D01*
X0255675Y0271727D01*
X0255616Y0271770D01*
X0255556Y0271810D01*
X0255493Y0271846D01*
X0255429Y0271879D01*
X0255363Y0271909D01*
X0255295Y0271934D01*
X0255226Y0271957D01*
X0255156Y0271975D01*
X0255085Y0271989D01*
X0255014Y0272000D01*
X0254942Y0272007D01*
X0254869Y0272010D01*
X0254869Y0272009D02*
X0254802Y0272011D01*
X0254735Y0272009D01*
X0254668Y0272003D01*
X0254601Y0271993D01*
X0254535Y0271980D01*
X0254470Y0271963D01*
X0254406Y0271942D01*
X0254344Y0271917D01*
X0254282Y0271889D01*
X0254223Y0271857D01*
X0254165Y0271823D01*
X0254110Y0271785D01*
X0254057Y0271743D01*
X0254006Y0271699D01*
X0253958Y0271652D01*
X0253912Y0271603D01*
X0253870Y0271550D01*
X0253830Y0271496D01*
X0253794Y0271439D01*
X0253761Y0271381D01*
X0253731Y0271320D01*
X0253705Y0271258D01*
X0253683Y0271195D01*
X0253664Y0271130D01*
X0253648Y0271065D01*
X0253637Y0270998D01*
X0253629Y0270932D01*
X0253625Y0270864D01*
X0253625Y0270797D01*
X0253629Y0270730D01*
X0254712Y0280691D02*
X0254712Y0283053D01*
X0254722Y0283124D01*
X0254736Y0283193D01*
X0254754Y0283262D01*
X0254775Y0283330D01*
X0254800Y0283397D01*
X0254829Y0283462D01*
X0254861Y0283526D01*
X0254896Y0283587D01*
X0254934Y0283647D01*
X0254976Y0283705D01*
X0255021Y0283760D01*
X0255068Y0283814D01*
X0255118Y0283864D01*
X0255171Y0283912D01*
X0255226Y0283957D01*
X0255284Y0283998D01*
X0255343Y0284037D01*
X0255405Y0284073D01*
X0255468Y0284105D01*
X0255534Y0284134D01*
X0255600Y0284159D01*
X0255668Y0284181D01*
X0255737Y0284199D01*
X0255806Y0284214D01*
X0255876Y0284224D01*
X0255947Y0284231D01*
X0256018Y0284235D01*
X0256089Y0284234D01*
X0256090Y0284234D02*
X0256161Y0284235D01*
X0256232Y0284231D01*
X0256303Y0284224D01*
X0256373Y0284214D01*
X0256442Y0284199D01*
X0256511Y0284181D01*
X0256579Y0284159D01*
X0256645Y0284134D01*
X0256711Y0284105D01*
X0256774Y0284073D01*
X0256836Y0284037D01*
X0256895Y0283998D01*
X0256953Y0283957D01*
X0257008Y0283912D01*
X0257061Y0283864D01*
X0257111Y0283814D01*
X0257158Y0283760D01*
X0257203Y0283705D01*
X0257245Y0283647D01*
X0257283Y0283587D01*
X0257318Y0283526D01*
X0257350Y0283462D01*
X0257379Y0283397D01*
X0257404Y0283330D01*
X0257425Y0283262D01*
X0257443Y0283193D01*
X0257457Y0283124D01*
X0257467Y0283053D01*
X0257468Y0283053D02*
X0257468Y0280691D01*
X0257467Y0280691D02*
X0257457Y0280620D01*
X0257443Y0280551D01*
X0257425Y0280482D01*
X0257404Y0280414D01*
X0257379Y0280347D01*
X0257350Y0280282D01*
X0257318Y0280218D01*
X0257283Y0280157D01*
X0257245Y0280097D01*
X0257203Y0280039D01*
X0257158Y0279984D01*
X0257111Y0279930D01*
X0257061Y0279880D01*
X0257008Y0279832D01*
X0256953Y0279787D01*
X0256895Y0279746D01*
X0256836Y0279707D01*
X0256774Y0279671D01*
X0256711Y0279639D01*
X0256645Y0279610D01*
X0256579Y0279585D01*
X0256511Y0279563D01*
X0256442Y0279545D01*
X0256373Y0279530D01*
X0256303Y0279520D01*
X0256232Y0279513D01*
X0256161Y0279509D01*
X0256090Y0279510D01*
X0256089Y0279510D02*
X0256018Y0279509D01*
X0255947Y0279513D01*
X0255876Y0279520D01*
X0255806Y0279530D01*
X0255737Y0279545D01*
X0255668Y0279563D01*
X0255600Y0279585D01*
X0255534Y0279610D01*
X0255468Y0279639D01*
X0255405Y0279671D01*
X0255343Y0279707D01*
X0255284Y0279746D01*
X0255226Y0279787D01*
X0255171Y0279832D01*
X0255118Y0279880D01*
X0255068Y0279930D01*
X0255021Y0279984D01*
X0254976Y0280039D01*
X0254934Y0280097D01*
X0254896Y0280157D01*
X0254861Y0280218D01*
X0254829Y0280282D01*
X0254800Y0280347D01*
X0254775Y0280414D01*
X0254754Y0280482D01*
X0254736Y0280551D01*
X0254722Y0280620D01*
X0254712Y0280691D01*
M02*
