%
M48
M72
T01C0.0120
T02C0.0400
T03C0.1300
%
T01
X4634Y5875
X5134Y5875
X5634Y5875
X5634Y6625
X5134Y6625
X5134Y7375
X5634Y7375
X6134Y7375
X6134Y6625
X7434Y6675
X8334Y5875
X7184Y4875
X7134Y4375
X6334Y4375
X6334Y4875
X6334Y5375
X4634Y6625
X4634Y7375
X4634Y8125
X5134Y8125
X5634Y8125
X6134Y8125
X6134Y8875
X5634Y8875
X5134Y8725
X4634Y8725
X4634Y9875
X5134Y9875
X5634Y9375
X6134Y9375
X6834Y10572
X6834Y10975
X6834Y11375
X6334Y11625
X6334Y12125
X5534Y11875
X4634Y12125
X4634Y12875
X4634Y13575
X5334Y13675
X5334Y14375
X5334Y14875
X6034Y14875
X6034Y14375
X6834Y14125
X7334Y14125
X7834Y14125
X8416Y14243
X9384Y13125
X8834Y12085
X8334Y11875
X7984Y11892
X7834Y11632
X9334Y11225
X9334Y10875
X9934Y11025
X9934Y10625
X10584Y10625
X10584Y10125
X10584Y9625
X10584Y9125
X10584Y8625
X10584Y8125
X10584Y7625
X10584Y7125
X11334Y7125
X11334Y6625
X11334Y6175
X10584Y6175
X11334Y7625
X11334Y8125
X11334Y8625
X11334Y9125
X11334Y9625
X11334Y10125
X11334Y10625
X11334Y11125
X11334Y11625
X11334Y12125
X11334Y12625
X11334Y13125
X10584Y13125
X10584Y12625
X10584Y12125
X10584Y11625
X10584Y11125
X12334Y11125
X12334Y10625
X12334Y10125
X12334Y9625
X12334Y9125
X12334Y8625
X12334Y8125
X12334Y7625
X12334Y7125
X12334Y6625
X12334Y6175
X13334Y6175
X13334Y6625
X13334Y7125
X13334Y7625
X13334Y8125
X13334Y8625
X13334Y9125
X13334Y9625
X13334Y10125
X13334Y10625
X13334Y11125
X13334Y11625
X13334Y12125
X13334Y12625
X13334Y13125
X14134Y13125
X14134Y12625
X14134Y12125
X14134Y11625
X14134Y11125
X14134Y10625
X14134Y10125
X14134Y9625
X14134Y9125
X14134Y8625
X14134Y8125
X14134Y7625
X14134Y7125
X14134Y6625
X14134Y6175
X14834Y6375
X15071Y5939
X15284Y5225
X16384Y5675
X16384Y6375
X16384Y7125
X15748Y7389
X15124Y7118
X15684Y8325
X15234Y8475
X15484Y9328
X15834Y9375
X16334Y9165
X17084Y8775
X17084Y8275
X17234Y7775
X17234Y6975
X17334Y5875
X17147Y5612
X17334Y5375
X17334Y4875
X17834Y4875
X17834Y5375
X18334Y5375
X18334Y4875
X18334Y5875
X17834Y5875
X18834Y5875
X19334Y5875
X19834Y5875
X20084Y6625
X20084Y7375
X20084Y8125
X20084Y8725
X20834Y8725
X21334Y8725
X21834Y8875
X22334Y8875
X22334Y9375
X21834Y9375
X21334Y9875
X20834Y9875
X20834Y10625
X21334Y10625
X21734Y11875
X22534Y11625
X23034Y11375
X23034Y10975
X23034Y10572
X23734Y9675
X23734Y9075
X22334Y8125
X21834Y8125
X21334Y8125
X20834Y8125
X20834Y7375
X20834Y6625
X21334Y6625
X21834Y6625
X22334Y6625
X22334Y7375
X21834Y7375
X21334Y7375
X21334Y5875
X21834Y5875
X22534Y5375
X22534Y4875
X22534Y4375
X23334Y4375
X23384Y4875
X24534Y5875
X23634Y6675
X25334Y8475
X26784Y8625
X26784Y9125
X26784Y9625
X27534Y9625
X27534Y9125
X27534Y8625
X27534Y8125
X27534Y7625
X27534Y7125
X27534Y6625
X26784Y7125
X26784Y7625
X26784Y8125
X28534Y8125
X28534Y7625
X28534Y7125
X28534Y6625
X28534Y6175
X29534Y6175
X29534Y6625
X29534Y7125
X29534Y7625
X29534Y8125
X29534Y8625
X29534Y9125
X29534Y9625
X29534Y10125
X29534Y10625
X29534Y11125
X29534Y11625
X29534Y12125
X29534Y12625
X29534Y13125
X28534Y13125
X28534Y12625
X28534Y12125
X28534Y11625
X28534Y11125
X28534Y10625
X28534Y10125
X28534Y9625
X28534Y9125
X28534Y8625
X27534Y10125
X27534Y10625
X27534Y11125
X27534Y11625
X26784Y11625
X26784Y11125
X26784Y10625
X26784Y10125
X26134Y10625
X26134Y11025
X25534Y10875
X25534Y11225
X24534Y11875
X24184Y11892
X24034Y11632
X25034Y12085
X25584Y13125
X24616Y14243
X24034Y14125
X23534Y14125
X23034Y14125
X22234Y14375
X22234Y14875
X21534Y14875
X21534Y14375
X21534Y13675
X20834Y13575
X20834Y12875
X20834Y12125
X22534Y12125
X20834Y14325
X20834Y15075
X22834Y15875
X22534Y18575
X22534Y19075
X22534Y19575
X21834Y20075
X21334Y20075
X20834Y20075
X20834Y20825
X21334Y20825
X21834Y20825
X22334Y20825
X22334Y21575
X21834Y21575
X21334Y21575
X20834Y21575
X20084Y21575
X20084Y20825
X19834Y20075
X19334Y20075
X18834Y20075
X18334Y20075
X17834Y20075
X17334Y20075
X17147Y19812
X17334Y19575
X17834Y19575
X18334Y19575
X18334Y19075
X17834Y19075
X17334Y19075
X16384Y19875
X16384Y20575
X16384Y21325
X15748Y21589
X15124Y21318
X14834Y20575
X15071Y20139
X15284Y19425
X14134Y20375
X14134Y20825
X14134Y21325
X14134Y21825
X14134Y22325
X14134Y22825
X14134Y23325
X14134Y23825
X14134Y24325
X14134Y24825
X14134Y25325
X14134Y25825
X14134Y26325
X14134Y26825
X14134Y27325
X13334Y27325
X13334Y26825
X13334Y26325
X13334Y25825
X13334Y25325
X13334Y24825
X13334Y24325
X13334Y23825
X13334Y23325
X13334Y22825
X13334Y22325
X13334Y21825
X13334Y21325
X13334Y20825
X13334Y20375
X12334Y20375
X12334Y20825
X12334Y21325
X12334Y21825
X12334Y22325
X12334Y22825
X12334Y23325
X12334Y23825
X12334Y24325
X12334Y24825
X12334Y25325
X12334Y25825
X12334Y26325
X12334Y26825
X12334Y27325
X11334Y27325
X11334Y26825
X11334Y26325
X11334Y25825
X11334Y25325
X11334Y24825
X11334Y24325
X11334Y23825
X11334Y23325
X11334Y22825
X11334Y22325
X11334Y21825
X11334Y21325
X11334Y20825
X11334Y20375
X10584Y20375
X10584Y21325
X10584Y21825
X10584Y22325
X10584Y22825
X10584Y23325
X10584Y23825
X10584Y24325
X10584Y24825
X9934Y24825
X9934Y25225
X10584Y25325
X10584Y25825
X10584Y26325
X10584Y26825
X10584Y27325
X9384Y27325
X8834Y26285
X8334Y26075
X7984Y26092
X7834Y25832
X6834Y25575
X6834Y25175
X6834Y24772
X7534Y23875
X7534Y23275
X6134Y23075
X5634Y23075
X5634Y23575
X6134Y23575
X5134Y24075
X4634Y24075
X4634Y24825
X5134Y24825
X5534Y26075
X6334Y25825
X6334Y26325
X5334Y27875
X5334Y28575
X5334Y29075
X6034Y29075
X6034Y28575
X6834Y28325
X7334Y28325
X7834Y28325
X8416Y28443
X10084Y30075
X10834Y28775
X13334Y29075
X13334Y29575
X14334Y29575
X14834Y29075
X15084Y27875
X15584Y27875
X16084Y27875
X16584Y27875
X17484Y27825
X17834Y27575
X17484Y27325
X17734Y26875
X17484Y26325
X17634Y25875
X17084Y25875
X16584Y25875
X16684Y26875
X18034Y26325
X18734Y26675
X18834Y26075
X18834Y24772
X18834Y24375
X18834Y24025
X20084Y22925
X20084Y22325
X20834Y22325
X20834Y22925
X21334Y22925
X21834Y23075
X21834Y23575
X22334Y23575
X22334Y23075
X22334Y22325
X21834Y22325
X21334Y22325
X21334Y24075
X20834Y24075
X20834Y24825
X21334Y24825
X21734Y26075
X22534Y25825
X22534Y26325
X23034Y25575
X23034Y25175
X23034Y24772
X23734Y23875
X23734Y23275
X25334Y22675
X26784Y22825
X26784Y22325
X26784Y21825
X27534Y21825
X27534Y22325
X27534Y22825
X27534Y23325
X26784Y23325
X26784Y23825
X26784Y24325
X26784Y24825
X27534Y24825
X27534Y24325
X27534Y23825
X28534Y23825
X28534Y24325
X28534Y24825
X28534Y25325
X28534Y25825
X28534Y26325
X28534Y26825
X28534Y27325
X29534Y27325
X29534Y26825
X29534Y26325
X29534Y25825
X29534Y25325
X29534Y24825
X29534Y24325
X29534Y23825
X29534Y23325
X29534Y22825
X29534Y22325
X29534Y21825
X29534Y21325
X29534Y20825
X29534Y20375
X28534Y20375
X28534Y20825
X28534Y21325
X28534Y21825
X28534Y22325
X28534Y22825
X28534Y23325
X30334Y23325
X30334Y22825
X30334Y22325
X30334Y21825
X30334Y21325
X30334Y20825
X30334Y20375
X31034Y20575
X31271Y20139
X31484Y19425
X32584Y19875
X32584Y20575
X32584Y21325
X31948Y21589
X31324Y21318
X31884Y22525
X31434Y22675
X31684Y23528
X32034Y23575
X32534Y23365
X33284Y22975
X33284Y22475
X33434Y21975
X33434Y21175
X33534Y20075
X33347Y19812
X33534Y19575
X34034Y19575
X34034Y20075
X34534Y20075
X34534Y19575
X35034Y20075
X35534Y20075
X36034Y20075
X36284Y20825
X36284Y21575
X36284Y22325
X36284Y22925
X35034Y24025
X35034Y24375
X35034Y24772
X35034Y26075
X34934Y26675
X34234Y26325
X33684Y26325
X33834Y25875
X33284Y25875
X32784Y25875
X32884Y26875
X33684Y27325
X34034Y27575
X33684Y27825
X32784Y27875
X32284Y27875
X31784Y27875
X31284Y27875
X30334Y27325
X30334Y26825
X30334Y26325
X30334Y25825
X30334Y25325
X31084Y25175
X31284Y24825
X30334Y24825
X30334Y24325
X30334Y23825
X32234Y24375
X33934Y26875
X34534Y28375
X33534Y28725
X31034Y29075
X30534Y29575
X29534Y29575
X29534Y29075
X27534Y27325
X26784Y27325
X26784Y26825
X26784Y26325
X26784Y25825
X26784Y25325
X27534Y25325
X27534Y25825
X27534Y26325
X27534Y26825
X26134Y25225
X26134Y24825
X25534Y25075
X25534Y25425
X25034Y26285
X24534Y26075
X24184Y26092
X24034Y25832
X25584Y27325
X24616Y28443
X24034Y28325
X23534Y28325
X23034Y28325
X22234Y28575
X22234Y29075
X21534Y29075
X21534Y28575
X21534Y27875
X20834Y27775
X20834Y27075
X20834Y26325
X20834Y28525
X20834Y29275
X22834Y30075
X26284Y30075
X27034Y28775
X26784Y21325
X27534Y21325
X27534Y20825
X27534Y20375
X26784Y20375
X24534Y20075
X23634Y20875
X23384Y19075
X23334Y18575
X26284Y15875
X27034Y14575
X26784Y13125
X26784Y12625
X26784Y12125
X27534Y12125
X27534Y12625
X27534Y13125
X29534Y14875
X29534Y15375
X30534Y15375
X31034Y14875
X31284Y13675
X31784Y13675
X32284Y13675
X32784Y13675
X33684Y13625
X34034Y13375
X33684Y13125
X33934Y12675
X33684Y12125
X34234Y12125
X33834Y11675
X33284Y11675
X32784Y11675
X32884Y12675
X34534Y14175
X33534Y14525
X34934Y12475
X35034Y11875
X35034Y10572
X35034Y10175
X35034Y9825
X36284Y8725
X36284Y8125
X36284Y7375
X36284Y6625
X36034Y5875
X35534Y5875
X35034Y5875
X34534Y5875
X34034Y5875
X33534Y5875
X33347Y5612
X33534Y5375
X33534Y4875
X34034Y4875
X34034Y5375
X34534Y5375
X34534Y4875
X32584Y5675
X32584Y6375
X32584Y7125
X31948Y7389
X31324Y7118
X31034Y6375
X31271Y5939
X31484Y5225
X30334Y6175
X30334Y6625
X30334Y7125
X30334Y7625
X30334Y8125
X30334Y8625
X30334Y9125
X30334Y9625
X30334Y10125
X30334Y10625
X30334Y11125
X30334Y11625
X31084Y10975
X31284Y10625
X32234Y10175
X32034Y9375
X31684Y9328
X32534Y9165
X33284Y8775
X33284Y8275
X33434Y7775
X33434Y6975
X31884Y8325
X31434Y8475
X30334Y12125
X30334Y12625
X30334Y13125
X33534Y19075
X34034Y19075
X34534Y19075
X27534Y6175
X26784Y6175
X20834Y5875
X18834Y9825
X18834Y10175
X18834Y10572
X18834Y11875
X18734Y12475
X18034Y12125
X17484Y12125
X17734Y12675
X17484Y13125
X17834Y13375
X17484Y13625
X16584Y13675
X16084Y13675
X15584Y13675
X15084Y13675
X14834Y14875
X14334Y15375
X13334Y15375
X13334Y14875
X12334Y13125
X12334Y12625
X12334Y12125
X12334Y11625
X14884Y10975
X15084Y10625
X16034Y10175
X16584Y11675
X17084Y11675
X17634Y11675
X16684Y12675
X18334Y14175
X17334Y14525
X10834Y14575
X10084Y15875
X7134Y18575
X7184Y19075
X6334Y19075
X6334Y18575
X6334Y19575
X5634Y20075
X5134Y20075
X4634Y20075
X4634Y20825
X5134Y20825
X5634Y20825
X6134Y20825
X6134Y21575
X5634Y21575
X5134Y21575
X4634Y21575
X4634Y22325
X4634Y22925
X5134Y22925
X5134Y22325
X5634Y22325
X6134Y22325
X7434Y20875
X8334Y20075
X9134Y22675
X9334Y25075
X9334Y25425
X4634Y26325
X4634Y27075
X4634Y27775
X4634Y28525
X4634Y29275
X6634Y30075
X14884Y25175
X15084Y24825
X16034Y24375
X15834Y23575
X15484Y23528
X16334Y23365
X17084Y22975
X17084Y22475
X17234Y21975
X17234Y21175
X15684Y22525
X15234Y22675
X18334Y28375
X17334Y28725
X6634Y15875
X4634Y15075
X4634Y14325
X4634Y10625
X5134Y10625
X7534Y9675
X7534Y9075
X9134Y8475
T02
X8834Y4375
X9834Y4375
X10834Y4375
X11834Y4375
X12834Y4375
X13834Y4375
X14834Y4375
X15834Y4375
X16834Y4375
X24034Y4375
X25034Y4375
X26034Y4375
X27034Y4375
X28034Y4375
X29034Y4375
X30034Y4375
X31034Y4375
X32034Y4375
X33034Y4375
X33034Y16375
X32034Y16375
X31034Y16375
X30034Y16375
X29034Y16375
X28034Y16375
X28034Y18575
X29034Y18575
X30034Y18575
X31034Y18575
X32034Y18575
X33034Y18575
X34034Y16375
X27034Y18575
X26034Y18575
X25034Y18575
X24034Y18575
X17834Y16375
X16834Y16375
X15834Y16375
X14834Y16375
X13834Y16375
X12834Y16375
X11834Y16375
X11834Y18575
X12834Y18575
X13834Y18575
X14834Y18575
X15834Y18575
X16834Y18575
X10834Y18575
X9834Y18575
X8834Y18575
X7834Y18575
X11834Y30575
X12834Y30575
X13834Y30575
X14834Y30575
X15834Y30575
X16834Y30575
X17834Y30575
X28034Y30575
X29034Y30575
X30034Y30575
X31034Y30575
X32034Y30575
X33034Y30575
X34034Y30575
X7834Y4375
T03
X5334Y4875
X5334Y15875
X5334Y19075
X5334Y30075
X19334Y30075
X21534Y30075
X21534Y19075
X19334Y19075
X19334Y15875
X21534Y15875
X21534Y4875
X19334Y4875
X35534Y4875
X35534Y15875
X35534Y19075
X35534Y30075
M30
