%
M48
M72
T01C0.0120
T02C0.0400
T03C0.1300
%
T01
X4634Y4875
X5134Y4875
X5634Y4875
X6334Y4375
X6334Y3875
X6334Y3375
X7134Y3375
X7184Y3875
X8334Y4875
X7434Y5675
X6134Y5625
X5634Y5625
X5134Y5625
X4634Y5625
X4634Y6375
X5134Y6375
X5634Y6375
X6134Y6375
X6134Y7125
X5634Y7125
X5134Y7125
X4634Y7125
X4634Y7725
X5134Y7725
X5634Y7875
X6134Y7875
X6134Y8375
X5634Y8375
X5134Y8875
X4634Y8875
X4634Y9625
X5134Y9625
X5534Y10875
X6334Y10625
X6334Y11125
X6834Y10375
X6834Y9975
X6834Y9572
X7534Y8675
X7534Y8075
X9134Y7475
X10584Y7625
X10584Y7125
X10584Y6625
X10584Y6125
X11334Y6125
X11334Y5625
X11334Y5175
X10584Y5175
X11334Y6625
X11334Y7125
X11334Y7625
X11334Y8125
X11334Y8625
X11334Y9125
X11334Y9625
X11334Y10125
X11334Y10625
X11334Y11125
X11334Y11625
X11334Y12125
X10584Y12125
X10584Y11625
X10584Y11125
X10584Y10625
X10584Y10125
X10584Y9625
X10584Y9125
X9934Y9625
X9934Y10025
X9334Y9875
X9334Y10225
X8834Y11085
X8334Y10875
X7984Y10892
X7834Y10632
X9384Y12125
X8416Y13243
X7834Y13125
X7334Y13125
X6834Y13125
X6034Y13375
X5334Y13375
X5334Y13875
X6034Y13875
X6634Y14875
X6334Y16575
X6334Y17075
X6334Y17575
X5634Y18075
X5134Y18075
X4634Y18075
X4634Y18825
X5134Y18825
X5634Y18825
X6134Y18825
X6134Y19575
X5634Y19575
X5134Y19575
X4634Y19575
X4634Y20325
X5134Y20325
X5634Y20325
X6134Y20325
X6134Y21075
X5634Y21075
X5634Y21575
X6134Y21575
X5134Y22075
X4634Y22075
X4634Y22825
X5134Y22825
X6334Y23825
X6334Y24325
X5534Y24075
X4634Y24325
X4634Y25075
X4634Y25775
X5334Y25875
X5334Y26575
X6034Y26575
X6034Y27075
X5334Y27075
X4634Y27275
X4634Y26525
X6834Y26325
X7334Y26325
X7834Y26325
X8416Y26443
X9384Y25325
X10584Y25325
X10584Y24825
X10584Y24325
X10584Y23825
X10584Y23325
X9934Y23225
X9934Y22825
X10584Y22825
X10584Y22325
X10584Y21825
X10584Y21325
X10584Y20825
X10584Y20325
X10584Y19825
X10584Y19325
X11334Y19325
X11334Y19825
X11334Y20325
X11334Y20825
X11334Y21325
X11334Y21825
X11334Y22325
X11334Y22825
X11334Y23325
X11334Y23825
X11334Y24325
X11334Y24825
X11334Y25325
X12334Y25325
X12334Y24825
X12334Y24325
X12334Y23825
X12334Y23325
X12334Y22825
X12334Y22325
X12334Y21825
X12334Y21325
X12334Y20825
X12334Y20325
X12334Y19825
X12334Y19325
X12334Y18825
X12334Y18375
X11334Y18375
X11334Y18825
X10584Y18375
X8334Y18075
X7434Y18875
X7184Y17075
X7134Y16575
X10084Y14875
X10834Y13575
X12334Y12125
X12334Y11625
X12334Y11125
X12334Y10625
X12334Y10125
X12334Y9625
X12334Y9125
X12334Y8625
X12334Y8125
X12334Y7625
X12334Y7125
X12334Y6625
X12334Y6125
X12334Y5625
X12334Y5175
X13334Y5175
X13334Y5625
X13334Y6125
X13334Y6625
X13334Y7125
X13334Y7625
X13334Y8125
X13334Y8625
X13334Y9125
X13334Y9625
X13334Y10125
X13334Y10625
X13334Y11125
X13334Y11625
X13334Y12125
X14134Y12125
X14134Y11625
X14134Y11125
X14134Y10625
X14134Y10125
X14134Y9625
X14134Y9125
X14134Y8625
X14134Y8125
X14134Y7625
X14134Y7125
X14134Y6625
X14134Y6125
X14134Y5625
X14134Y5175
X14834Y5375
X15071Y4939
X15284Y4225
X16384Y4675
X16384Y5375
X16384Y6125
X15748Y6389
X15124Y6118
X15684Y7325
X15234Y7475
X15484Y8328
X15834Y8375
X16334Y8165
X17084Y7775
X17084Y7275
X17234Y6775
X17234Y5975
X17334Y4875
X17147Y4612
X17334Y4375
X17834Y4375
X17834Y4875
X18334Y4875
X18334Y4375
X18834Y4875
X19334Y4875
X19834Y4875
X20084Y5625
X20084Y6375
X20084Y7125
X20084Y7725
X20834Y7725
X21334Y7725
X21834Y7875
X22334Y7875
X22334Y8375
X21834Y8375
X21334Y8875
X20834Y8875
X20834Y9625
X21334Y9625
X21734Y10875
X22534Y10625
X22534Y11125
X23034Y10375
X23034Y9975
X23034Y9572
X23734Y8675
X23734Y8075
X22334Y7125
X21834Y7125
X21334Y7125
X20834Y7125
X20834Y6375
X21334Y6375
X21834Y6375
X22334Y6375
X22334Y5625
X21834Y5625
X21334Y5625
X20834Y5625
X20834Y4875
X21334Y4875
X21834Y4875
X22534Y4375
X22534Y3875
X22534Y3375
X23334Y3375
X23384Y3875
X24534Y4875
X23634Y5675
X25334Y7475
X26784Y7625
X26784Y7125
X26784Y6625
X27534Y6625
X27534Y7125
X27534Y7625
X27534Y8125
X27534Y8625
X26784Y8625
X26784Y8125
X26784Y9125
X26784Y9625
X26784Y10125
X27534Y10125
X27534Y9625
X27534Y9125
X28534Y9125
X28534Y9625
X28534Y10125
X28534Y10625
X28534Y11125
X28534Y11625
X28534Y12125
X27534Y12125
X26784Y12125
X26784Y11625
X26784Y11125
X26784Y10625
X27534Y10625
X27534Y11125
X27534Y11625
X25584Y12125
X25034Y11085
X24534Y10875
X24184Y10892
X24034Y10632
X25534Y10225
X25534Y9875
X26134Y10025
X26134Y9625
X28534Y8625
X28534Y8125
X28534Y7625
X28534Y7125
X28534Y6625
X28534Y6125
X28534Y5625
X28534Y5175
X27534Y5175
X27534Y5625
X27534Y6125
X26784Y6125
X26784Y5175
X29534Y5175
X29534Y5625
X29534Y6125
X30334Y6125
X30334Y5625
X30334Y5175
X31034Y5375
X31271Y4939
X31484Y4225
X32584Y4675
X32584Y5375
X32584Y6125
X31948Y6389
X31324Y6118
X30334Y6625
X30334Y7125
X30334Y7625
X29534Y7625
X29534Y7125
X29534Y6625
X29534Y8125
X29534Y8625
X30334Y8625
X30334Y8125
X30334Y9125
X30334Y9625
X30334Y10125
X29534Y10125
X29534Y9625
X29534Y9125
X31084Y9975
X31284Y9625
X32234Y9175
X32034Y8375
X31684Y8328
X32534Y8165
X33284Y7775
X33284Y7275
X33434Y6775
X33434Y5975
X33534Y4875
X33347Y4612
X33534Y4375
X34034Y4375
X34034Y4875
X34534Y4875
X34534Y4375
X35034Y4875
X35534Y4875
X36034Y4875
X36284Y5625
X36284Y6375
X36284Y7125
X36284Y7725
X35034Y8825
X35034Y9175
X35034Y9572
X35034Y10875
X34234Y11125
X33834Y10675
X33684Y11125
X33284Y10675
X32784Y10675
X32884Y11675
X33684Y12125
X34034Y12375
X33684Y12625
X32784Y12675
X32284Y12675
X31784Y12675
X31284Y12675
X30334Y12125
X29534Y12125
X29534Y11625
X29534Y11125
X29534Y10625
X30334Y10625
X30334Y11125
X30334Y11625
X31034Y13875
X30534Y14375
X29534Y14375
X29534Y13875
X27034Y13575
X26284Y14875
X24616Y13243
X24034Y13125
X23534Y13125
X23034Y13125
X22234Y13375
X22234Y13875
X21534Y13875
X20834Y14075
X20834Y13325
X21534Y13375
X21534Y12675
X20834Y12575
X20834Y11875
X20834Y11125
X18834Y10875
X18734Y11475
X18034Y11125
X17484Y11125
X17634Y10675
X17084Y10675
X16584Y10675
X16684Y11675
X17484Y12125
X17834Y12375
X17484Y12625
X16584Y12675
X16084Y12675
X15584Y12675
X15084Y12675
X14834Y13875
X14334Y14375
X13334Y14375
X13334Y13875
X17334Y13525
X18334Y13175
X17734Y11675
X18834Y9572
X18834Y9175
X18834Y8825
X16034Y9175
X15084Y9625
X14884Y9975
X10584Y8625
X10584Y8125
X5334Y12675
X4634Y12575
X4634Y11875
X4634Y11125
X4634Y13325
X4634Y14075
X9134Y20675
X7534Y21275
X7534Y21875
X6834Y22772
X6834Y23175
X6834Y23575
X7834Y23832
X7984Y24092
X8334Y24075
X8834Y24285
X9334Y23425
X9334Y23075
X13334Y22825
X13334Y22325
X13334Y21825
X13334Y21325
X13334Y20825
X13334Y20325
X13334Y19825
X13334Y19325
X13334Y18825
X13334Y18375
X14134Y18375
X14134Y18825
X14834Y18575
X15071Y18139
X15284Y17425
X16384Y17875
X16384Y18575
X16384Y19325
X15748Y19589
X15124Y19318
X14134Y19325
X14134Y19825
X14134Y20325
X14134Y20825
X14134Y21325
X14134Y21825
X14134Y22325
X14134Y22825
X14884Y23175
X15084Y22825
X16034Y22375
X15834Y21575
X15484Y21528
X16334Y21365
X17084Y20975
X17084Y20475
X17234Y19975
X17234Y19175
X17334Y18075
X17147Y17812
X17334Y17575
X17834Y17575
X17834Y18075
X18334Y18075
X18334Y17575
X18834Y18075
X19334Y18075
X19834Y18075
X20084Y18825
X20084Y19575
X20084Y20325
X20084Y20925
X20834Y20925
X21334Y20925
X21834Y21075
X22334Y21075
X22334Y21575
X21834Y21575
X21334Y22075
X20834Y22075
X20834Y22825
X21334Y22825
X22534Y23825
X22534Y24325
X21734Y24075
X20834Y24325
X20834Y25075
X20834Y25775
X21534Y25875
X21534Y26575
X20834Y26525
X20834Y27275
X21534Y27075
X22234Y27075
X22234Y26575
X23034Y26325
X23534Y26325
X24034Y26325
X24616Y26443
X25584Y25325
X25034Y24285
X24534Y24075
X24184Y24092
X24034Y23832
X23034Y23575
X23034Y23175
X23034Y22772
X23734Y21875
X23734Y21275
X22334Y20325
X21834Y20325
X21334Y20325
X20834Y20325
X20834Y19575
X21334Y19575
X21834Y19575
X22334Y19575
X22334Y18825
X21834Y18825
X21334Y18825
X20834Y18825
X20834Y18075
X21334Y18075
X21834Y18075
X22534Y17575
X22534Y17075
X22534Y16575
X23334Y16575
X23384Y17075
X24534Y18075
X23634Y18875
X25334Y20675
X26784Y20825
X26784Y21325
X26784Y21825
X27534Y21825
X27534Y21325
X27534Y20825
X27534Y20325
X27534Y19825
X27534Y19325
X26784Y19325
X26784Y19825
X26784Y20325
X28534Y20325
X28534Y19825
X28534Y19325
X28534Y18825
X28534Y18375
X27534Y18375
X27534Y18825
X26784Y18375
X29534Y18375
X29534Y18825
X30334Y18825
X30334Y18375
X31034Y18575
X31271Y18139
X31484Y17425
X32584Y17875
X32584Y18575
X32584Y19325
X31948Y19589
X31324Y19318
X30334Y19325
X30334Y19825
X30334Y20325
X29534Y20325
X29534Y19825
X29534Y19325
X29534Y20825
X29534Y21325
X29534Y21825
X30334Y21825
X30334Y21325
X30334Y20825
X31434Y20675
X31884Y20525
X32534Y21365
X32034Y21575
X31684Y21528
X32234Y22375
X31284Y22825
X31084Y23175
X30334Y23325
X30334Y23825
X30334Y24325
X29534Y24325
X29534Y23825
X29534Y23325
X29534Y22825
X29534Y22325
X30334Y22325
X30334Y22825
X28534Y22825
X28534Y22325
X28534Y21825
X28534Y21325
X28534Y20825
X27534Y22325
X27534Y22825
X26784Y22825
X26784Y22325
X26134Y22825
X26134Y23225
X25534Y23075
X25534Y23425
X26784Y23325
X26784Y23825
X26784Y24325
X27534Y24325
X27534Y23825
X27534Y23325
X28534Y23325
X28534Y23825
X28534Y24325
X28534Y24825
X28534Y25325
X27534Y25325
X27534Y24825
X26784Y24825
X26784Y25325
X27034Y26775
X26284Y28075
X29534Y27575
X29534Y27075
X30534Y27575
X31034Y27075
X31284Y25875
X31784Y25875
X32284Y25875
X32784Y25875
X33684Y25825
X34034Y25575
X33684Y25325
X33934Y24875
X33684Y24325
X33834Y23875
X33284Y23875
X32784Y23875
X32884Y24875
X34234Y24325
X34934Y24675
X35034Y24075
X35034Y22772
X35034Y22375
X35034Y22025
X36284Y20925
X36284Y20325
X36284Y19575
X36284Y18825
X36034Y18075
X35534Y18075
X35034Y18075
X34534Y18075
X34034Y18075
X33534Y18075
X33347Y17812
X33534Y17575
X34034Y17575
X34534Y17575
X34534Y17075
X34034Y17075
X33534Y17075
X33434Y19175
X33434Y19975
X33284Y20475
X33284Y20975
X30334Y24825
X30334Y25325
X29534Y25325
X29534Y24825
X33534Y26725
X34534Y26375
X22834Y28075
X18334Y26375
X17834Y25575
X17484Y25325
X17484Y25825
X16584Y25875
X16084Y25875
X15584Y25875
X15084Y25875
X14134Y25325
X14134Y24825
X14134Y24325
X14134Y23825
X14134Y23325
X13334Y23325
X13334Y23825
X13334Y24325
X13334Y24825
X13334Y25325
X13334Y27075
X13334Y27575
X14334Y27575
X14834Y27075
X17334Y26725
X17734Y24875
X17484Y24325
X17634Y23875
X17084Y23875
X16584Y23875
X16684Y24875
X18034Y24325
X18734Y24675
X18834Y24075
X18834Y22772
X18834Y22375
X18834Y22025
X15684Y20525
X15234Y20675
X17334Y17075
X17834Y17075
X18334Y17075
X22834Y14875
X31434Y7475
X31884Y7325
X33534Y3875
X34034Y3875
X34534Y3875
X34934Y11475
X33934Y11675
X34534Y13175
X33534Y13525
X18334Y3875
X17834Y3875
X17334Y3875
X5134Y20925
X4634Y20925
X10834Y26775
X10084Y28075
X6634Y28075
T02
X11834Y28575
X12834Y28575
X13834Y28575
X14834Y28575
X15834Y28575
X16834Y28575
X17834Y28575
X28034Y28575
X29034Y28575
X30034Y28575
X31034Y28575
X32034Y28575
X33034Y28575
X34034Y28575
X33034Y16575
X32034Y16575
X31034Y16575
X30034Y16575
X29034Y16575
X28034Y16575
X27034Y16575
X26034Y16575
X25034Y16575
X24034Y16575
X28034Y15375
X29034Y15375
X30034Y15375
X31034Y15375
X32034Y15375
X33034Y15375
X34034Y15375
X33034Y3375
X32034Y3375
X31034Y3375
X30034Y3375
X29034Y3375
X28034Y3375
X27034Y3375
X26034Y3375
X25034Y3375
X24034Y3375
X16834Y3375
X15834Y3375
X14834Y3375
X13834Y3375
X12834Y3375
X11834Y3375
X10834Y3375
X9834Y3375
X8834Y3375
X7834Y3375
X11834Y15375
X12834Y15375
X13834Y15375
X14834Y15375
X15834Y15375
X16834Y15375
X17834Y15375
X16834Y16575
X15834Y16575
X14834Y16575
X13834Y16575
X12834Y16575
X11834Y16575
X10834Y16575
X9834Y16575
X8834Y16575
X7834Y16575
T03
X5334Y3875
X5334Y14875
X5334Y17075
X19334Y17075
X21534Y17075
X21534Y14875
X19334Y14875
X19334Y3875
X21534Y3875
X35534Y3875
X35534Y14875
X35534Y17075
X35534Y28075
X21534Y28075
X19334Y28075
X5334Y28075
M30
