G75*
%MOIN*%
%OFA0B0*%
%FSLAX25Y25*%
%IPPOS*%
%LPD*%
%AMOC8*
5,1,8,0,0,1.08239X$1,22.5*
%
%ADD10C,0.13800*%
%ADD11C,0.03300*%
%ADD12R,0.08674X0.05524*%
%ADD13R,0.06115X0.03162*%
%ADD14C,0.08200*%
%ADD15R,0.05131X0.04737*%
%ADD16R,0.09658X0.04146*%
%ADD17R,0.04737X0.05131*%
%ADD18R,0.03300X0.05800*%
%ADD19C,0.00500*%
%ADD20C,0.01990*%
%ADD21R,0.03280X0.04068*%
%ADD22R,0.07887X0.03950*%
%ADD23R,0.02375X0.07690*%
%ADD24R,0.08674X0.06548*%
%ADD25R,0.06410X0.10643*%
%ADD26C,0.00400*%
%ADD27R,0.09461X0.04146*%
%ADD28R,0.04934X0.04737*%
%ADD29R,0.05524X0.02965*%
%ADD30R,0.01784X0.03202*%
%ADD31R,0.01784X0.03005*%
%ADD32C,0.04737*%
%ADD33C,0.05000*%
%ADD34C,0.06706*%
D10*
X0053342Y0048750D03*
X0053342Y0158750D03*
X0053342Y0190750D03*
X0053342Y0300750D03*
X0193342Y0300750D03*
X0215342Y0300750D03*
X0215342Y0190750D03*
X0193342Y0190750D03*
X0193342Y0158750D03*
X0215342Y0158750D03*
X0215342Y0048750D03*
X0193342Y0048750D03*
X0355342Y0048750D03*
X0355342Y0158750D03*
X0355342Y0190750D03*
X0355342Y0300750D03*
D11*
X0362842Y0183250D03*
X0362842Y0041250D03*
X0207842Y0166250D03*
X0200842Y0183250D03*
X0207842Y0308250D03*
X0045842Y0308250D03*
X0045842Y0166250D03*
X0200842Y0041250D03*
D12*
X0197810Y0092726D03*
X0210873Y0092726D03*
X0210873Y0114774D03*
X0197810Y0114774D03*
X0197810Y0234726D03*
X0210873Y0234726D03*
X0210873Y0256774D03*
X0197810Y0256774D03*
X0048873Y0256774D03*
X0048873Y0234726D03*
X0048873Y0114774D03*
X0048873Y0092726D03*
X0359810Y0092726D03*
X0359810Y0114774D03*
X0359810Y0234726D03*
X0359810Y0256774D03*
D13*
X0345342Y0251656D03*
X0345342Y0247719D03*
X0345342Y0243781D03*
X0345342Y0239844D03*
X0225342Y0239844D03*
X0225342Y0243781D03*
X0225342Y0247719D03*
X0225342Y0251656D03*
X0183342Y0251656D03*
X0183342Y0247719D03*
X0183342Y0243781D03*
X0183342Y0239844D03*
X0063342Y0239844D03*
X0063342Y0243781D03*
X0063342Y0247719D03*
X0063342Y0251656D03*
X0063342Y0109656D03*
X0063342Y0105719D03*
X0063342Y0101781D03*
X0063342Y0097844D03*
X0183342Y0097844D03*
X0183342Y0101781D03*
X0183342Y0105719D03*
X0183342Y0109656D03*
X0225342Y0109656D03*
X0225342Y0105719D03*
X0225342Y0101781D03*
X0225342Y0097844D03*
X0345342Y0097844D03*
X0345342Y0101781D03*
X0345342Y0105719D03*
X0345342Y0109656D03*
D14*
X0340342Y0163750D03*
X0330342Y0163750D03*
X0320342Y0163750D03*
X0310342Y0163750D03*
X0300342Y0163750D03*
X0290342Y0163750D03*
X0280342Y0163750D03*
X0280342Y0185750D03*
X0290342Y0185750D03*
X0300342Y0185750D03*
X0310342Y0185750D03*
X0320342Y0185750D03*
X0330342Y0185750D03*
X0270342Y0185750D03*
X0260342Y0185750D03*
X0250342Y0185750D03*
X0240342Y0185750D03*
X0178342Y0163750D03*
X0168342Y0163750D03*
X0158342Y0163750D03*
X0148342Y0163750D03*
X0138342Y0163750D03*
X0128342Y0163750D03*
X0118342Y0163750D03*
X0118342Y0185750D03*
X0128342Y0185750D03*
X0138342Y0185750D03*
X0148342Y0185750D03*
X0158342Y0185750D03*
X0168342Y0185750D03*
X0108342Y0185750D03*
X0098342Y0185750D03*
X0088342Y0185750D03*
X0078342Y0185750D03*
X0118342Y0305750D03*
X0128342Y0305750D03*
X0138342Y0305750D03*
X0148342Y0305750D03*
X0158342Y0305750D03*
X0168342Y0305750D03*
X0178342Y0305750D03*
X0280342Y0305750D03*
X0290342Y0305750D03*
X0300342Y0305750D03*
X0310342Y0305750D03*
X0320342Y0305750D03*
X0330342Y0305750D03*
X0340342Y0305750D03*
X0330342Y0043750D03*
X0320342Y0043750D03*
X0310342Y0043750D03*
X0300342Y0043750D03*
X0290342Y0043750D03*
X0280342Y0043750D03*
X0270342Y0043750D03*
X0260342Y0043750D03*
X0250342Y0043750D03*
X0240342Y0043750D03*
X0168342Y0043750D03*
X0158342Y0043750D03*
X0148342Y0043750D03*
X0138342Y0043750D03*
X0128342Y0043750D03*
X0118342Y0043750D03*
X0108342Y0043750D03*
X0098342Y0043750D03*
X0088342Y0043750D03*
X0078342Y0043750D03*
D15*
X0099995Y0066250D03*
X0106688Y0066250D03*
X0086688Y0078750D03*
X0086688Y0084750D03*
X0086688Y0090750D03*
X0086688Y0096750D03*
X0086688Y0102750D03*
X0086688Y0108750D03*
X0079995Y0108750D03*
X0079995Y0102750D03*
X0079995Y0096750D03*
X0079995Y0090750D03*
X0079995Y0084750D03*
X0079995Y0078750D03*
X0155995Y0112250D03*
X0162688Y0112250D03*
X0168995Y0112250D03*
X0175688Y0112250D03*
X0189995Y0087250D03*
X0196688Y0087250D03*
X0196688Y0081250D03*
X0189995Y0081250D03*
X0189995Y0073750D03*
X0196688Y0073750D03*
X0196688Y0066250D03*
X0189995Y0066250D03*
X0241995Y0078750D03*
X0241995Y0084750D03*
X0241995Y0090750D03*
X0241995Y0096750D03*
X0241995Y0102750D03*
X0241995Y0108750D03*
X0248688Y0108750D03*
X0248688Y0102750D03*
X0248688Y0096750D03*
X0248688Y0090750D03*
X0248688Y0084750D03*
X0248688Y0078750D03*
X0261995Y0066250D03*
X0268688Y0066250D03*
X0317995Y0112250D03*
X0324688Y0112250D03*
X0330995Y0112250D03*
X0337688Y0112250D03*
X0351995Y0087250D03*
X0351995Y0081250D03*
X0358688Y0081250D03*
X0358688Y0087250D03*
X0358688Y0073750D03*
X0358688Y0066250D03*
X0351995Y0066250D03*
X0351995Y0073750D03*
X0351995Y0208250D03*
X0358688Y0208250D03*
X0358688Y0215750D03*
X0351995Y0215750D03*
X0351995Y0223250D03*
X0351995Y0229250D03*
X0358688Y0229250D03*
X0358688Y0223250D03*
X0337688Y0254250D03*
X0330995Y0254250D03*
X0324688Y0254250D03*
X0317995Y0254250D03*
X0268688Y0208250D03*
X0261995Y0208250D03*
X0248688Y0220750D03*
X0248688Y0226750D03*
X0248688Y0232750D03*
X0248688Y0238750D03*
X0248688Y0244750D03*
X0248688Y0250750D03*
X0241995Y0250750D03*
X0241995Y0244750D03*
X0241995Y0238750D03*
X0241995Y0232750D03*
X0241995Y0226750D03*
X0241995Y0220750D03*
X0196688Y0223250D03*
X0196688Y0229250D03*
X0189995Y0229250D03*
X0189995Y0223250D03*
X0189995Y0215750D03*
X0196688Y0215750D03*
X0196688Y0208250D03*
X0189995Y0208250D03*
X0175688Y0254250D03*
X0168995Y0254250D03*
X0162688Y0254250D03*
X0155995Y0254250D03*
X0106688Y0208250D03*
X0099995Y0208250D03*
X0086688Y0220750D03*
X0086688Y0226750D03*
X0086688Y0232750D03*
X0086688Y0238750D03*
X0086688Y0244750D03*
X0086688Y0250750D03*
X0079995Y0250750D03*
X0079995Y0244750D03*
X0079995Y0238750D03*
X0079995Y0232750D03*
X0079995Y0226750D03*
X0079995Y0220750D03*
D16*
G36*
X0070687Y0206882D02*
X0076225Y0198972D01*
X0072829Y0196594D01*
X0067291Y0204504D01*
X0070687Y0206882D01*
G37*
G36*
X0065849Y0203495D02*
X0071387Y0195585D01*
X0067991Y0193207D01*
X0062453Y0201117D01*
X0065849Y0203495D01*
G37*
G36*
X0070687Y0064882D02*
X0076225Y0056972D01*
X0072829Y0054594D01*
X0067291Y0062504D01*
X0070687Y0064882D01*
G37*
G36*
X0065849Y0061495D02*
X0071387Y0053585D01*
X0067991Y0051207D01*
X0062453Y0059117D01*
X0065849Y0061495D01*
G37*
G36*
X0227849Y0061495D02*
X0233387Y0053585D01*
X0229991Y0051207D01*
X0224453Y0059117D01*
X0227849Y0061495D01*
G37*
G36*
X0232687Y0064882D02*
X0238225Y0056972D01*
X0234829Y0054594D01*
X0229291Y0062504D01*
X0232687Y0064882D01*
G37*
G36*
X0227849Y0203495D02*
X0233387Y0195585D01*
X0229991Y0193207D01*
X0224453Y0201117D01*
X0227849Y0203495D01*
G37*
G36*
X0232687Y0206882D02*
X0238225Y0198972D01*
X0234829Y0196594D01*
X0229291Y0204504D01*
X0232687Y0206882D01*
G37*
D17*
X0270342Y0157096D03*
X0270342Y0150404D03*
X0250342Y0132096D03*
X0250342Y0125404D03*
X0242842Y0125404D03*
X0242842Y0132096D03*
X0235342Y0132096D03*
X0235342Y0125404D03*
X0215342Y0125404D03*
X0215342Y0132096D03*
X0175842Y0105596D03*
X0175842Y0098904D03*
X0154842Y0098904D03*
X0154842Y0105596D03*
X0155842Y0118404D03*
X0155842Y0125096D03*
X0108342Y0150404D03*
X0108342Y0157096D03*
X0088342Y0132096D03*
X0088342Y0125404D03*
X0080842Y0125404D03*
X0080842Y0132096D03*
X0073342Y0132096D03*
X0073342Y0125404D03*
X0053342Y0125404D03*
X0053342Y0132096D03*
X0154842Y0240904D03*
X0154842Y0247596D03*
X0155842Y0260404D03*
X0155842Y0267096D03*
X0175842Y0247596D03*
X0175842Y0240904D03*
X0215342Y0267404D03*
X0215342Y0274096D03*
X0235342Y0274096D03*
X0235342Y0267404D03*
X0242842Y0267404D03*
X0242842Y0274096D03*
X0250342Y0274096D03*
X0250342Y0267404D03*
X0270342Y0292404D03*
X0270342Y0299096D03*
X0317842Y0267096D03*
X0317842Y0260404D03*
X0316842Y0247596D03*
X0316842Y0240904D03*
X0337842Y0240904D03*
X0337842Y0247596D03*
X0317842Y0125096D03*
X0317842Y0118404D03*
X0316842Y0105596D03*
X0316842Y0098904D03*
X0337842Y0098904D03*
X0337842Y0105596D03*
X0108342Y0292404D03*
X0108342Y0299096D03*
X0088342Y0274096D03*
X0088342Y0267404D03*
X0080842Y0267404D03*
X0080842Y0274096D03*
X0073342Y0274096D03*
X0073342Y0267404D03*
X0053342Y0267404D03*
X0053342Y0274096D03*
D18*
X0059342Y0270750D03*
X0063342Y0270750D03*
X0067342Y0270750D03*
X0067342Y0128750D03*
X0063342Y0128750D03*
X0059342Y0128750D03*
X0221342Y0128750D03*
X0225342Y0128750D03*
X0229342Y0128750D03*
X0229342Y0270750D03*
X0225342Y0270750D03*
X0221342Y0270750D03*
D19*
X0222592Y0270558D02*
X0228092Y0270558D01*
X0228092Y0270250D02*
X0228092Y0271250D01*
X0222592Y0271250D01*
X0222592Y0270250D01*
X0228092Y0270250D01*
X0228092Y0271056D02*
X0222592Y0271056D01*
X0222592Y0129250D02*
X0228092Y0129250D01*
X0228092Y0128250D01*
X0222592Y0128250D01*
X0222592Y0129250D01*
X0222592Y0128981D02*
X0228092Y0128981D01*
X0228092Y0128482D02*
X0222592Y0128482D01*
X0066092Y0128482D02*
X0060592Y0128482D01*
X0060592Y0128250D02*
X0060592Y0129250D01*
X0066092Y0129250D01*
X0066092Y0128250D01*
X0060592Y0128250D01*
X0060592Y0128981D02*
X0066092Y0128981D01*
X0066092Y0270250D02*
X0060592Y0270250D01*
X0060592Y0271250D01*
X0066092Y0271250D01*
X0066092Y0270250D01*
X0066092Y0270558D02*
X0060592Y0270558D01*
X0060592Y0271056D02*
X0066092Y0271056D01*
D20*
X0176262Y0232123D02*
X0176262Y0229377D01*
X0173516Y0229377D01*
X0173516Y0232123D01*
X0176262Y0232123D01*
X0176262Y0231267D02*
X0173516Y0231267D01*
X0176262Y0224623D02*
X0176262Y0221877D01*
X0173516Y0221877D01*
X0173516Y0224623D01*
X0176262Y0224623D01*
X0176262Y0223767D02*
X0173516Y0223767D01*
X0176262Y0217123D02*
X0176262Y0214377D01*
X0173516Y0214377D01*
X0173516Y0217123D01*
X0176262Y0217123D01*
X0176262Y0216267D02*
X0173516Y0216267D01*
X0176262Y0209623D02*
X0176262Y0206877D01*
X0173516Y0206877D01*
X0173516Y0209623D01*
X0176262Y0209623D01*
X0176262Y0208767D02*
X0173516Y0208767D01*
X0183168Y0209623D02*
X0183168Y0206877D01*
X0180422Y0206877D01*
X0180422Y0209623D01*
X0183168Y0209623D01*
X0183168Y0208767D02*
X0180422Y0208767D01*
X0183168Y0214377D02*
X0183168Y0217123D01*
X0183168Y0214377D02*
X0180422Y0214377D01*
X0180422Y0217123D01*
X0183168Y0217123D01*
X0183168Y0216267D02*
X0180422Y0216267D01*
X0183168Y0221877D02*
X0183168Y0224623D01*
X0183168Y0221877D02*
X0180422Y0221877D01*
X0180422Y0224623D01*
X0183168Y0224623D01*
X0183168Y0223767D02*
X0180422Y0223767D01*
X0183168Y0229377D02*
X0183168Y0232123D01*
X0183168Y0229377D02*
X0180422Y0229377D01*
X0180422Y0232123D01*
X0183168Y0232123D01*
X0183168Y0231267D02*
X0180422Y0231267D01*
X0183168Y0090123D02*
X0183168Y0087377D01*
X0180422Y0087377D01*
X0180422Y0090123D01*
X0183168Y0090123D01*
X0183168Y0089267D02*
X0180422Y0089267D01*
X0176262Y0090123D02*
X0176262Y0087377D01*
X0173516Y0087377D01*
X0173516Y0090123D01*
X0176262Y0090123D01*
X0176262Y0089267D02*
X0173516Y0089267D01*
X0176262Y0082623D02*
X0176262Y0079877D01*
X0173516Y0079877D01*
X0173516Y0082623D01*
X0176262Y0082623D01*
X0176262Y0081767D02*
X0173516Y0081767D01*
X0183168Y0082623D02*
X0183168Y0079877D01*
X0180422Y0079877D01*
X0180422Y0082623D01*
X0183168Y0082623D01*
X0183168Y0081767D02*
X0180422Y0081767D01*
X0183168Y0075123D02*
X0183168Y0072377D01*
X0180422Y0072377D01*
X0180422Y0075123D01*
X0183168Y0075123D01*
X0183168Y0074267D02*
X0180422Y0074267D01*
X0176262Y0075123D02*
X0176262Y0072377D01*
X0173516Y0072377D01*
X0173516Y0075123D01*
X0176262Y0075123D01*
X0176262Y0074267D02*
X0173516Y0074267D01*
X0176262Y0067623D02*
X0176262Y0064877D01*
X0173516Y0064877D01*
X0173516Y0067623D01*
X0176262Y0067623D01*
X0176262Y0066767D02*
X0173516Y0066767D01*
X0183168Y0067623D02*
X0183168Y0064877D01*
X0180422Y0064877D01*
X0180422Y0067623D01*
X0183168Y0067623D01*
X0183168Y0066767D02*
X0180422Y0066767D01*
X0338262Y0067623D02*
X0338262Y0064877D01*
X0335516Y0064877D01*
X0335516Y0067623D01*
X0338262Y0067623D01*
X0338262Y0066767D02*
X0335516Y0066767D01*
X0338262Y0072377D02*
X0338262Y0075123D01*
X0338262Y0072377D02*
X0335516Y0072377D01*
X0335516Y0075123D01*
X0338262Y0075123D01*
X0338262Y0074267D02*
X0335516Y0074267D01*
X0338262Y0079877D02*
X0338262Y0082623D01*
X0338262Y0079877D02*
X0335516Y0079877D01*
X0335516Y0082623D01*
X0338262Y0082623D01*
X0338262Y0081767D02*
X0335516Y0081767D01*
X0338262Y0087377D02*
X0338262Y0090123D01*
X0338262Y0087377D02*
X0335516Y0087377D01*
X0335516Y0090123D01*
X0338262Y0090123D01*
X0338262Y0089267D02*
X0335516Y0089267D01*
X0345168Y0090123D02*
X0345168Y0087377D01*
X0342422Y0087377D01*
X0342422Y0090123D01*
X0345168Y0090123D01*
X0345168Y0089267D02*
X0342422Y0089267D01*
X0345168Y0082623D02*
X0345168Y0079877D01*
X0342422Y0079877D01*
X0342422Y0082623D01*
X0345168Y0082623D01*
X0345168Y0081767D02*
X0342422Y0081767D01*
X0345168Y0075123D02*
X0345168Y0072377D01*
X0342422Y0072377D01*
X0342422Y0075123D01*
X0345168Y0075123D01*
X0345168Y0074267D02*
X0342422Y0074267D01*
X0345168Y0067623D02*
X0345168Y0064877D01*
X0342422Y0064877D01*
X0342422Y0067623D01*
X0345168Y0067623D01*
X0345168Y0066767D02*
X0342422Y0066767D01*
X0345168Y0206877D02*
X0345168Y0209623D01*
X0345168Y0206877D02*
X0342422Y0206877D01*
X0342422Y0209623D01*
X0345168Y0209623D01*
X0345168Y0208767D02*
X0342422Y0208767D01*
X0338262Y0209623D02*
X0338262Y0206877D01*
X0335516Y0206877D01*
X0335516Y0209623D01*
X0338262Y0209623D01*
X0338262Y0208767D02*
X0335516Y0208767D01*
X0338262Y0214377D02*
X0338262Y0217123D01*
X0338262Y0214377D02*
X0335516Y0214377D01*
X0335516Y0217123D01*
X0338262Y0217123D01*
X0338262Y0216267D02*
X0335516Y0216267D01*
X0338262Y0221877D02*
X0338262Y0224623D01*
X0338262Y0221877D02*
X0335516Y0221877D01*
X0335516Y0224623D01*
X0338262Y0224623D01*
X0338262Y0223767D02*
X0335516Y0223767D01*
X0338262Y0229377D02*
X0338262Y0232123D01*
X0338262Y0229377D02*
X0335516Y0229377D01*
X0335516Y0232123D01*
X0338262Y0232123D01*
X0338262Y0231267D02*
X0335516Y0231267D01*
X0345168Y0232123D02*
X0345168Y0229377D01*
X0342422Y0229377D01*
X0342422Y0232123D01*
X0345168Y0232123D01*
X0345168Y0231267D02*
X0342422Y0231267D01*
X0345168Y0224623D02*
X0345168Y0221877D01*
X0342422Y0221877D01*
X0342422Y0224623D01*
X0345168Y0224623D01*
X0345168Y0223767D02*
X0342422Y0223767D01*
X0345168Y0217123D02*
X0345168Y0214377D01*
X0342422Y0214377D01*
X0342422Y0217123D01*
X0345168Y0217123D01*
X0345168Y0216267D02*
X0342422Y0216267D01*
D21*
X0249869Y0213750D03*
X0240814Y0213750D03*
X0240814Y0071750D03*
X0249869Y0071750D03*
X0087869Y0071750D03*
X0078814Y0071750D03*
X0078814Y0213750D03*
X0087869Y0213750D03*
D22*
X0099720Y0218191D03*
X0099720Y0222522D03*
X0099720Y0226852D03*
X0099720Y0231183D03*
X0099720Y0235514D03*
X0099720Y0239844D03*
X0099720Y0244175D03*
X0099720Y0255986D03*
X0099720Y0260317D03*
X0099720Y0264648D03*
X0099720Y0268978D03*
X0099720Y0273309D03*
X0146964Y0273309D03*
X0146964Y0268978D03*
X0146964Y0264648D03*
X0146964Y0260317D03*
X0146964Y0255986D03*
X0146964Y0244175D03*
X0146964Y0239844D03*
X0146964Y0235514D03*
X0146964Y0231183D03*
X0146964Y0226852D03*
X0146964Y0222522D03*
X0146964Y0218191D03*
X0146964Y0131309D03*
X0146964Y0126978D03*
X0146964Y0122648D03*
X0146964Y0118317D03*
X0146964Y0113986D03*
X0146964Y0102175D03*
X0146964Y0097844D03*
X0146964Y0093514D03*
X0146964Y0089183D03*
X0146964Y0084852D03*
X0146964Y0080522D03*
X0146964Y0076191D03*
X0099720Y0076191D03*
X0099720Y0080522D03*
X0099720Y0084852D03*
X0099720Y0089183D03*
X0099720Y0093514D03*
X0099720Y0097844D03*
X0099720Y0102175D03*
X0099720Y0113986D03*
X0099720Y0118317D03*
X0099720Y0122648D03*
X0099720Y0126978D03*
X0099720Y0131309D03*
X0261720Y0131309D03*
X0261720Y0126978D03*
X0261720Y0122648D03*
X0261720Y0118317D03*
X0261720Y0113986D03*
X0261720Y0102175D03*
X0261720Y0097844D03*
X0261720Y0093514D03*
X0261720Y0089183D03*
X0261720Y0084852D03*
X0261720Y0080522D03*
X0261720Y0076191D03*
X0308964Y0076191D03*
X0308964Y0080522D03*
X0308964Y0084852D03*
X0308964Y0089183D03*
X0308964Y0093514D03*
X0308964Y0097844D03*
X0308964Y0102175D03*
X0308964Y0113986D03*
X0308964Y0118317D03*
X0308964Y0122648D03*
X0308964Y0126978D03*
X0308964Y0131309D03*
X0308964Y0218191D03*
X0308964Y0222522D03*
X0308964Y0226852D03*
X0308964Y0231183D03*
X0308964Y0235514D03*
X0308964Y0239844D03*
X0308964Y0244175D03*
X0308964Y0255986D03*
X0308964Y0260317D03*
X0308964Y0264648D03*
X0308964Y0268978D03*
X0308964Y0273309D03*
X0261720Y0273309D03*
X0261720Y0268978D03*
X0261720Y0264648D03*
X0261720Y0260317D03*
X0261720Y0255986D03*
X0261720Y0244175D03*
X0261720Y0239844D03*
X0261720Y0235514D03*
X0261720Y0231183D03*
X0261720Y0226852D03*
X0261720Y0222522D03*
X0261720Y0218191D03*
D23*
X0250460Y0148750D03*
X0247901Y0148750D03*
X0245342Y0148750D03*
X0242783Y0148750D03*
X0240224Y0148750D03*
X0240224Y0290750D03*
X0242783Y0290750D03*
X0245342Y0290750D03*
X0247901Y0290750D03*
X0250460Y0290750D03*
X0088460Y0290750D03*
X0085901Y0290750D03*
X0083342Y0290750D03*
X0080783Y0290750D03*
X0078224Y0290750D03*
X0078224Y0148750D03*
X0080783Y0148750D03*
X0083342Y0148750D03*
X0085901Y0148750D03*
X0088460Y0148750D03*
D24*
X0094759Y0147667D03*
X0071924Y0147667D03*
X0071924Y0289667D03*
X0094759Y0289667D03*
X0233924Y0289667D03*
X0256759Y0289667D03*
X0256759Y0147667D03*
X0233924Y0147667D03*
D25*
X0241552Y0159281D03*
X0249131Y0159281D03*
X0249131Y0301281D03*
X0241552Y0301281D03*
X0087131Y0301281D03*
X0079552Y0301281D03*
X0079552Y0159281D03*
X0087131Y0159281D03*
D26*
X0091216Y0159100D02*
X0096728Y0159100D01*
X0096728Y0158702D02*
X0091216Y0158702D01*
X0091216Y0158303D02*
X0096728Y0158303D01*
X0096728Y0157905D02*
X0091216Y0157905D01*
X0091216Y0157506D02*
X0096728Y0157506D01*
X0096728Y0157108D02*
X0091216Y0157108D01*
X0091216Y0156709D02*
X0096728Y0156709D01*
X0096728Y0156311D02*
X0091216Y0156311D01*
X0091216Y0155912D02*
X0096728Y0155912D01*
X0096728Y0155514D02*
X0091216Y0155514D01*
X0091216Y0155115D02*
X0096728Y0155115D01*
X0096728Y0154717D02*
X0091216Y0154717D01*
X0091216Y0154318D02*
X0098302Y0154318D01*
X0098302Y0154360D02*
X0098302Y0151211D01*
X0091216Y0151211D01*
X0091216Y0161447D01*
X0091207Y0161758D01*
X0091267Y0162064D01*
X0091394Y0162349D01*
X0091581Y0162598D01*
X0091819Y0162800D01*
X0092095Y0162943D01*
X0092397Y0163022D01*
X0095153Y0163022D01*
X0095503Y0162982D01*
X0095836Y0162866D01*
X0096135Y0162678D01*
X0096384Y0162429D01*
X0096572Y0162130D01*
X0096688Y0161797D01*
X0096728Y0161447D01*
X0096728Y0154360D01*
X0098302Y0154360D01*
X0098302Y0153920D02*
X0091216Y0153920D01*
X0091216Y0153521D02*
X0098302Y0153521D01*
X0098302Y0153123D02*
X0091216Y0153123D01*
X0091216Y0152724D02*
X0098302Y0152724D01*
X0098302Y0152326D02*
X0091216Y0152326D01*
X0091216Y0151927D02*
X0098302Y0151927D01*
X0098302Y0151529D02*
X0091216Y0151529D01*
X0091216Y0159499D02*
X0096728Y0159499D01*
X0096728Y0159897D02*
X0091216Y0159897D01*
X0091216Y0160296D02*
X0096728Y0160296D01*
X0096728Y0160694D02*
X0091216Y0160694D01*
X0091216Y0161093D02*
X0096728Y0161093D01*
X0096723Y0161491D02*
X0091215Y0161491D01*
X0091233Y0161890D02*
X0096656Y0161890D01*
X0096472Y0162289D02*
X0091367Y0162289D01*
X0091685Y0162687D02*
X0096120Y0162687D01*
X0075468Y0161841D02*
X0075468Y0151211D01*
X0068381Y0151211D01*
X0068381Y0154360D01*
X0069562Y0154360D01*
X0069562Y0161841D01*
X0069641Y0162142D01*
X0069784Y0162419D01*
X0069986Y0162657D01*
X0070235Y0162844D01*
X0070520Y0162971D01*
X0070826Y0163031D01*
X0071137Y0163022D01*
X0074287Y0163022D01*
X0074550Y0162992D01*
X0074799Y0162905D01*
X0075023Y0162764D01*
X0075210Y0162577D01*
X0075351Y0162353D01*
X0075438Y0162103D01*
X0075468Y0161841D01*
X0075462Y0161890D02*
X0069575Y0161890D01*
X0069562Y0161491D02*
X0075468Y0161491D01*
X0075468Y0161093D02*
X0069562Y0161093D01*
X0069562Y0160694D02*
X0075468Y0160694D01*
X0075468Y0160296D02*
X0069562Y0160296D01*
X0069562Y0159897D02*
X0075468Y0159897D01*
X0075468Y0159499D02*
X0069562Y0159499D01*
X0069562Y0159100D02*
X0075468Y0159100D01*
X0075468Y0158702D02*
X0069562Y0158702D01*
X0069562Y0158303D02*
X0075468Y0158303D01*
X0075468Y0157905D02*
X0069562Y0157905D01*
X0069562Y0157506D02*
X0075468Y0157506D01*
X0075468Y0157108D02*
X0069562Y0157108D01*
X0069562Y0156709D02*
X0075468Y0156709D01*
X0075468Y0156311D02*
X0069562Y0156311D01*
X0069562Y0155912D02*
X0075468Y0155912D01*
X0075468Y0155514D02*
X0069562Y0155514D01*
X0069562Y0155115D02*
X0075468Y0155115D01*
X0075468Y0154717D02*
X0069562Y0154717D01*
X0068381Y0154318D02*
X0075468Y0154318D01*
X0075468Y0153920D02*
X0068381Y0153920D01*
X0068381Y0153521D02*
X0075468Y0153521D01*
X0075468Y0153123D02*
X0068381Y0153123D01*
X0068381Y0152724D02*
X0075468Y0152724D01*
X0075468Y0152326D02*
X0068381Y0152326D01*
X0068381Y0151927D02*
X0075468Y0151927D01*
X0075468Y0151529D02*
X0068381Y0151529D01*
X0069716Y0162289D02*
X0075373Y0162289D01*
X0075100Y0162687D02*
X0070026Y0162687D01*
X0068381Y0293211D02*
X0068381Y0296360D01*
X0069562Y0296360D01*
X0069562Y0303841D01*
X0069641Y0304142D01*
X0069784Y0304419D01*
X0069986Y0304657D01*
X0070235Y0304844D01*
X0070520Y0304971D01*
X0070826Y0305031D01*
X0071137Y0305022D01*
X0074287Y0305022D01*
X0074550Y0304992D01*
X0074799Y0304905D01*
X0075023Y0304764D01*
X0075210Y0304577D01*
X0075351Y0304353D01*
X0075438Y0304103D01*
X0075468Y0303841D01*
X0075468Y0293211D01*
X0068381Y0293211D01*
X0068381Y0293399D02*
X0075468Y0293399D01*
X0075468Y0293797D02*
X0068381Y0293797D01*
X0068381Y0294196D02*
X0075468Y0294196D01*
X0075468Y0294594D02*
X0068381Y0294594D01*
X0068381Y0294993D02*
X0075468Y0294993D01*
X0075468Y0295391D02*
X0068381Y0295391D01*
X0068381Y0295790D02*
X0075468Y0295790D01*
X0075468Y0296188D02*
X0068381Y0296188D01*
X0069562Y0296587D02*
X0075468Y0296587D01*
X0075468Y0296985D02*
X0069562Y0296985D01*
X0069562Y0297384D02*
X0075468Y0297384D01*
X0075468Y0297782D02*
X0069562Y0297782D01*
X0069562Y0298181D02*
X0075468Y0298181D01*
X0075468Y0298579D02*
X0069562Y0298579D01*
X0069562Y0298978D02*
X0075468Y0298978D01*
X0075468Y0299376D02*
X0069562Y0299376D01*
X0069562Y0299775D02*
X0075468Y0299775D01*
X0075468Y0300173D02*
X0069562Y0300173D01*
X0069562Y0300572D02*
X0075468Y0300572D01*
X0075468Y0300970D02*
X0069562Y0300970D01*
X0069562Y0301369D02*
X0075468Y0301369D01*
X0075468Y0301767D02*
X0069562Y0301767D01*
X0069562Y0302166D02*
X0075468Y0302166D01*
X0075468Y0302564D02*
X0069562Y0302564D01*
X0069562Y0302963D02*
X0075468Y0302963D01*
X0075468Y0303362D02*
X0069562Y0303362D01*
X0069562Y0303760D02*
X0075468Y0303760D01*
X0075419Y0304159D02*
X0069649Y0304159D01*
X0069901Y0304557D02*
X0075223Y0304557D01*
X0074654Y0304956D02*
X0070486Y0304956D01*
X0091207Y0303758D02*
X0091216Y0303447D01*
X0091216Y0293211D01*
X0098302Y0293211D01*
X0098302Y0296360D01*
X0096728Y0296360D01*
X0096728Y0303447D01*
X0096688Y0303797D01*
X0096572Y0304130D01*
X0096384Y0304429D01*
X0096135Y0304678D01*
X0095836Y0304866D01*
X0095503Y0304982D01*
X0095153Y0305022D01*
X0092397Y0305022D01*
X0092095Y0304943D01*
X0091819Y0304800D01*
X0091581Y0304598D01*
X0091394Y0304349D01*
X0091267Y0304064D01*
X0091207Y0303758D01*
X0091207Y0303760D02*
X0096692Y0303760D01*
X0096728Y0303362D02*
X0091216Y0303362D01*
X0091216Y0302963D02*
X0096728Y0302963D01*
X0096728Y0302564D02*
X0091216Y0302564D01*
X0091216Y0302166D02*
X0096728Y0302166D01*
X0096728Y0301767D02*
X0091216Y0301767D01*
X0091216Y0301369D02*
X0096728Y0301369D01*
X0096728Y0300970D02*
X0091216Y0300970D01*
X0091216Y0300572D02*
X0096728Y0300572D01*
X0096728Y0300173D02*
X0091216Y0300173D01*
X0091216Y0299775D02*
X0096728Y0299775D01*
X0096728Y0299376D02*
X0091216Y0299376D01*
X0091216Y0298978D02*
X0096728Y0298978D01*
X0096728Y0298579D02*
X0091216Y0298579D01*
X0091216Y0298181D02*
X0096728Y0298181D01*
X0096728Y0297782D02*
X0091216Y0297782D01*
X0091216Y0297384D02*
X0096728Y0297384D01*
X0096728Y0296985D02*
X0091216Y0296985D01*
X0091216Y0296587D02*
X0096728Y0296587D01*
X0098302Y0296188D02*
X0091216Y0296188D01*
X0091216Y0295790D02*
X0098302Y0295790D01*
X0098302Y0295391D02*
X0091216Y0295391D01*
X0091216Y0294993D02*
X0098302Y0294993D01*
X0098302Y0294594D02*
X0091216Y0294594D01*
X0091216Y0294196D02*
X0098302Y0294196D01*
X0098302Y0293797D02*
X0091216Y0293797D01*
X0091216Y0293399D02*
X0098302Y0293399D01*
X0096554Y0304159D02*
X0091309Y0304159D01*
X0091550Y0304557D02*
X0096256Y0304557D01*
X0095579Y0304956D02*
X0092142Y0304956D01*
X0230381Y0296360D02*
X0230381Y0293211D01*
X0237468Y0293211D01*
X0237468Y0303841D01*
X0237438Y0304103D01*
X0237351Y0304353D01*
X0237210Y0304577D01*
X0237023Y0304764D01*
X0236799Y0304905D01*
X0236550Y0304992D01*
X0236287Y0305022D01*
X0233137Y0305022D01*
X0232826Y0305031D01*
X0232520Y0304971D01*
X0232235Y0304844D01*
X0231986Y0304657D01*
X0231784Y0304419D01*
X0231641Y0304142D01*
X0231562Y0303841D01*
X0231562Y0296360D01*
X0230381Y0296360D01*
X0230381Y0296188D02*
X0237468Y0296188D01*
X0237468Y0295790D02*
X0230381Y0295790D01*
X0230381Y0295391D02*
X0237468Y0295391D01*
X0237468Y0294993D02*
X0230381Y0294993D01*
X0230381Y0294594D02*
X0237468Y0294594D01*
X0237468Y0294196D02*
X0230381Y0294196D01*
X0230381Y0293797D02*
X0237468Y0293797D01*
X0237468Y0293399D02*
X0230381Y0293399D01*
X0231562Y0296587D02*
X0237468Y0296587D01*
X0237468Y0296985D02*
X0231562Y0296985D01*
X0231562Y0297384D02*
X0237468Y0297384D01*
X0237468Y0297782D02*
X0231562Y0297782D01*
X0231562Y0298181D02*
X0237468Y0298181D01*
X0237468Y0298579D02*
X0231562Y0298579D01*
X0231562Y0298978D02*
X0237468Y0298978D01*
X0237468Y0299376D02*
X0231562Y0299376D01*
X0231562Y0299775D02*
X0237468Y0299775D01*
X0237468Y0300173D02*
X0231562Y0300173D01*
X0231562Y0300572D02*
X0237468Y0300572D01*
X0237468Y0300970D02*
X0231562Y0300970D01*
X0231562Y0301369D02*
X0237468Y0301369D01*
X0237468Y0301767D02*
X0231562Y0301767D01*
X0231562Y0302166D02*
X0237468Y0302166D01*
X0237468Y0302564D02*
X0231562Y0302564D01*
X0231562Y0302963D02*
X0237468Y0302963D01*
X0237468Y0303362D02*
X0231562Y0303362D01*
X0231562Y0303760D02*
X0237468Y0303760D01*
X0237419Y0304159D02*
X0231649Y0304159D01*
X0231901Y0304557D02*
X0237223Y0304557D01*
X0236654Y0304956D02*
X0232486Y0304956D01*
X0253207Y0303758D02*
X0253216Y0303447D01*
X0253216Y0293211D01*
X0260302Y0293211D01*
X0260302Y0296360D01*
X0258728Y0296360D01*
X0258728Y0303447D01*
X0258688Y0303797D01*
X0258572Y0304130D01*
X0258384Y0304429D01*
X0258135Y0304678D01*
X0257836Y0304866D01*
X0257503Y0304982D01*
X0257153Y0305022D01*
X0254397Y0305022D01*
X0254095Y0304943D01*
X0253819Y0304800D01*
X0253581Y0304598D01*
X0253394Y0304349D01*
X0253267Y0304064D01*
X0253207Y0303758D01*
X0253207Y0303760D02*
X0258692Y0303760D01*
X0258728Y0303362D02*
X0253216Y0303362D01*
X0253216Y0302963D02*
X0258728Y0302963D01*
X0258728Y0302564D02*
X0253216Y0302564D01*
X0253216Y0302166D02*
X0258728Y0302166D01*
X0258728Y0301767D02*
X0253216Y0301767D01*
X0253216Y0301369D02*
X0258728Y0301369D01*
X0258728Y0300970D02*
X0253216Y0300970D01*
X0253216Y0300572D02*
X0258728Y0300572D01*
X0258728Y0300173D02*
X0253216Y0300173D01*
X0253216Y0299775D02*
X0258728Y0299775D01*
X0258728Y0299376D02*
X0253216Y0299376D01*
X0253216Y0298978D02*
X0258728Y0298978D01*
X0258728Y0298579D02*
X0253216Y0298579D01*
X0253216Y0298181D02*
X0258728Y0298181D01*
X0258728Y0297782D02*
X0253216Y0297782D01*
X0253216Y0297384D02*
X0258728Y0297384D01*
X0258728Y0296985D02*
X0253216Y0296985D01*
X0253216Y0296587D02*
X0258728Y0296587D01*
X0260302Y0296188D02*
X0253216Y0296188D01*
X0253216Y0295790D02*
X0260302Y0295790D01*
X0260302Y0295391D02*
X0253216Y0295391D01*
X0253216Y0294993D02*
X0260302Y0294993D01*
X0260302Y0294594D02*
X0253216Y0294594D01*
X0253216Y0294196D02*
X0260302Y0294196D01*
X0260302Y0293797D02*
X0253216Y0293797D01*
X0253216Y0293399D02*
X0260302Y0293399D01*
X0258554Y0304159D02*
X0253309Y0304159D01*
X0253550Y0304557D02*
X0258256Y0304557D01*
X0257579Y0304956D02*
X0254142Y0304956D01*
X0254397Y0163022D02*
X0257153Y0163022D01*
X0257503Y0162982D01*
X0257836Y0162866D01*
X0258135Y0162678D01*
X0258384Y0162429D01*
X0258572Y0162130D01*
X0258688Y0161797D01*
X0258728Y0161447D01*
X0258728Y0154360D01*
X0260302Y0154360D01*
X0260302Y0151211D01*
X0253216Y0151211D01*
X0253216Y0161447D01*
X0253207Y0161758D01*
X0253267Y0162064D01*
X0253394Y0162349D01*
X0253581Y0162598D01*
X0253819Y0162800D01*
X0254095Y0162943D01*
X0254397Y0163022D01*
X0253685Y0162687D02*
X0258120Y0162687D01*
X0258472Y0162289D02*
X0253367Y0162289D01*
X0253233Y0161890D02*
X0258656Y0161890D01*
X0258723Y0161491D02*
X0253215Y0161491D01*
X0253216Y0161093D02*
X0258728Y0161093D01*
X0258728Y0160694D02*
X0253216Y0160694D01*
X0253216Y0160296D02*
X0258728Y0160296D01*
X0258728Y0159897D02*
X0253216Y0159897D01*
X0253216Y0159499D02*
X0258728Y0159499D01*
X0258728Y0159100D02*
X0253216Y0159100D01*
X0253216Y0158702D02*
X0258728Y0158702D01*
X0258728Y0158303D02*
X0253216Y0158303D01*
X0253216Y0157905D02*
X0258728Y0157905D01*
X0258728Y0157506D02*
X0253216Y0157506D01*
X0253216Y0157108D02*
X0258728Y0157108D01*
X0258728Y0156709D02*
X0253216Y0156709D01*
X0253216Y0156311D02*
X0258728Y0156311D01*
X0258728Y0155912D02*
X0253216Y0155912D01*
X0253216Y0155514D02*
X0258728Y0155514D01*
X0258728Y0155115D02*
X0253216Y0155115D01*
X0253216Y0154717D02*
X0258728Y0154717D01*
X0260302Y0154318D02*
X0253216Y0154318D01*
X0253216Y0153920D02*
X0260302Y0153920D01*
X0260302Y0153521D02*
X0253216Y0153521D01*
X0253216Y0153123D02*
X0260302Y0153123D01*
X0260302Y0152724D02*
X0253216Y0152724D01*
X0253216Y0152326D02*
X0260302Y0152326D01*
X0260302Y0151927D02*
X0253216Y0151927D01*
X0253216Y0151529D02*
X0260302Y0151529D01*
X0237468Y0151529D02*
X0230381Y0151529D01*
X0230381Y0151211D02*
X0230381Y0154360D01*
X0231562Y0154360D01*
X0231562Y0161841D01*
X0231641Y0162142D01*
X0231784Y0162419D01*
X0231986Y0162657D01*
X0232235Y0162844D01*
X0232520Y0162971D01*
X0232826Y0163031D01*
X0233137Y0163022D01*
X0236287Y0163022D01*
X0236550Y0162992D01*
X0236799Y0162905D01*
X0237023Y0162764D01*
X0237210Y0162577D01*
X0237351Y0162353D01*
X0237438Y0162103D01*
X0237468Y0161841D01*
X0237468Y0151211D01*
X0230381Y0151211D01*
X0230381Y0151927D02*
X0237468Y0151927D01*
X0237468Y0152326D02*
X0230381Y0152326D01*
X0230381Y0152724D02*
X0237468Y0152724D01*
X0237468Y0153123D02*
X0230381Y0153123D01*
X0230381Y0153521D02*
X0237468Y0153521D01*
X0237468Y0153920D02*
X0230381Y0153920D01*
X0230381Y0154318D02*
X0237468Y0154318D01*
X0237468Y0154717D02*
X0231562Y0154717D01*
X0231562Y0155115D02*
X0237468Y0155115D01*
X0237468Y0155514D02*
X0231562Y0155514D01*
X0231562Y0155912D02*
X0237468Y0155912D01*
X0237468Y0156311D02*
X0231562Y0156311D01*
X0231562Y0156709D02*
X0237468Y0156709D01*
X0237468Y0157108D02*
X0231562Y0157108D01*
X0231562Y0157506D02*
X0237468Y0157506D01*
X0237468Y0157905D02*
X0231562Y0157905D01*
X0231562Y0158303D02*
X0237468Y0158303D01*
X0237468Y0158702D02*
X0231562Y0158702D01*
X0231562Y0159100D02*
X0237468Y0159100D01*
X0237468Y0159499D02*
X0231562Y0159499D01*
X0231562Y0159897D02*
X0237468Y0159897D01*
X0237468Y0160296D02*
X0231562Y0160296D01*
X0231562Y0160694D02*
X0237468Y0160694D01*
X0237468Y0161093D02*
X0231562Y0161093D01*
X0231562Y0161491D02*
X0237468Y0161491D01*
X0237462Y0161890D02*
X0231575Y0161890D01*
X0231716Y0162289D02*
X0237373Y0162289D01*
X0237100Y0162687D02*
X0232026Y0162687D01*
D27*
X0166842Y0132163D03*
X0166842Y0121337D03*
X0166842Y0263337D03*
X0166842Y0274163D03*
X0328842Y0274163D03*
X0328842Y0263337D03*
X0328842Y0132163D03*
X0328842Y0121337D03*
D28*
X0334846Y0126750D03*
X0322838Y0126750D03*
X0322838Y0268750D03*
X0334846Y0268750D03*
X0172846Y0268750D03*
X0160838Y0268750D03*
X0160838Y0126750D03*
X0172846Y0126750D03*
D29*
X0170460Y0105990D03*
X0170460Y0102250D03*
X0170460Y0098510D03*
X0160223Y0098510D03*
X0160223Y0105990D03*
X0160223Y0240510D03*
X0160223Y0247990D03*
X0170460Y0247990D03*
X0170460Y0244250D03*
X0170460Y0240510D03*
X0322223Y0240510D03*
X0322223Y0247990D03*
X0332460Y0247990D03*
X0332460Y0244250D03*
X0332460Y0240510D03*
X0332460Y0105990D03*
X0332460Y0102250D03*
X0332460Y0098510D03*
X0322223Y0098510D03*
X0322223Y0105990D03*
D30*
X0247310Y0139344D03*
X0247310Y0281344D03*
X0085310Y0281344D03*
X0085310Y0139344D03*
D31*
X0083342Y0139443D03*
X0081373Y0139443D03*
X0081373Y0136057D03*
X0083342Y0136057D03*
X0085310Y0136057D03*
X0085310Y0278057D03*
X0083342Y0278057D03*
X0081373Y0278057D03*
X0081373Y0281443D03*
X0083342Y0281443D03*
X0243373Y0281443D03*
X0245342Y0281443D03*
X0245342Y0278057D03*
X0247310Y0278057D03*
X0243373Y0278057D03*
X0243373Y0139443D03*
X0245342Y0139443D03*
X0245342Y0136057D03*
X0247310Y0136057D03*
X0243373Y0136057D03*
D32*
X0338342Y0329000D03*
X0070342Y0329000D03*
D33*
X0066777Y0020500D02*
X0066779Y0020619D01*
X0066785Y0020738D01*
X0066795Y0020857D01*
X0066809Y0020975D01*
X0066827Y0021093D01*
X0066848Y0021210D01*
X0066874Y0021326D01*
X0066904Y0021442D01*
X0066937Y0021556D01*
X0066974Y0021669D01*
X0067015Y0021781D01*
X0067060Y0021892D01*
X0067108Y0022001D01*
X0067160Y0022108D01*
X0067216Y0022213D01*
X0067275Y0022317D01*
X0067337Y0022418D01*
X0067403Y0022518D01*
X0067472Y0022615D01*
X0067544Y0022709D01*
X0067620Y0022802D01*
X0067698Y0022891D01*
X0067779Y0022978D01*
X0067864Y0023063D01*
X0067951Y0023144D01*
X0068040Y0023222D01*
X0068133Y0023298D01*
X0068227Y0023370D01*
X0068324Y0023439D01*
X0068424Y0023505D01*
X0068525Y0023567D01*
X0068629Y0023626D01*
X0068734Y0023682D01*
X0068841Y0023734D01*
X0068950Y0023782D01*
X0069061Y0023827D01*
X0069173Y0023868D01*
X0069286Y0023905D01*
X0069400Y0023938D01*
X0069516Y0023968D01*
X0069632Y0023994D01*
X0069749Y0024015D01*
X0069867Y0024033D01*
X0069985Y0024047D01*
X0070104Y0024057D01*
X0070223Y0024063D01*
X0070342Y0024065D01*
X0070461Y0024063D01*
X0070580Y0024057D01*
X0070699Y0024047D01*
X0070817Y0024033D01*
X0070935Y0024015D01*
X0071052Y0023994D01*
X0071168Y0023968D01*
X0071284Y0023938D01*
X0071398Y0023905D01*
X0071511Y0023868D01*
X0071623Y0023827D01*
X0071734Y0023782D01*
X0071843Y0023734D01*
X0071950Y0023682D01*
X0072055Y0023626D01*
X0072159Y0023567D01*
X0072260Y0023505D01*
X0072360Y0023439D01*
X0072457Y0023370D01*
X0072551Y0023298D01*
X0072644Y0023222D01*
X0072733Y0023144D01*
X0072820Y0023063D01*
X0072905Y0022978D01*
X0072986Y0022891D01*
X0073064Y0022802D01*
X0073140Y0022709D01*
X0073212Y0022615D01*
X0073281Y0022518D01*
X0073347Y0022418D01*
X0073409Y0022317D01*
X0073468Y0022213D01*
X0073524Y0022108D01*
X0073576Y0022001D01*
X0073624Y0021892D01*
X0073669Y0021781D01*
X0073710Y0021669D01*
X0073747Y0021556D01*
X0073780Y0021442D01*
X0073810Y0021326D01*
X0073836Y0021210D01*
X0073857Y0021093D01*
X0073875Y0020975D01*
X0073889Y0020857D01*
X0073899Y0020738D01*
X0073905Y0020619D01*
X0073907Y0020500D01*
X0073905Y0020381D01*
X0073899Y0020262D01*
X0073889Y0020143D01*
X0073875Y0020025D01*
X0073857Y0019907D01*
X0073836Y0019790D01*
X0073810Y0019674D01*
X0073780Y0019558D01*
X0073747Y0019444D01*
X0073710Y0019331D01*
X0073669Y0019219D01*
X0073624Y0019108D01*
X0073576Y0018999D01*
X0073524Y0018892D01*
X0073468Y0018787D01*
X0073409Y0018683D01*
X0073347Y0018582D01*
X0073281Y0018482D01*
X0073212Y0018385D01*
X0073140Y0018291D01*
X0073064Y0018198D01*
X0072986Y0018109D01*
X0072905Y0018022D01*
X0072820Y0017937D01*
X0072733Y0017856D01*
X0072644Y0017778D01*
X0072551Y0017702D01*
X0072457Y0017630D01*
X0072360Y0017561D01*
X0072260Y0017495D01*
X0072159Y0017433D01*
X0072055Y0017374D01*
X0071950Y0017318D01*
X0071843Y0017266D01*
X0071734Y0017218D01*
X0071623Y0017173D01*
X0071511Y0017132D01*
X0071398Y0017095D01*
X0071284Y0017062D01*
X0071168Y0017032D01*
X0071052Y0017006D01*
X0070935Y0016985D01*
X0070817Y0016967D01*
X0070699Y0016953D01*
X0070580Y0016943D01*
X0070461Y0016937D01*
X0070342Y0016935D01*
X0070223Y0016937D01*
X0070104Y0016943D01*
X0069985Y0016953D01*
X0069867Y0016967D01*
X0069749Y0016985D01*
X0069632Y0017006D01*
X0069516Y0017032D01*
X0069400Y0017062D01*
X0069286Y0017095D01*
X0069173Y0017132D01*
X0069061Y0017173D01*
X0068950Y0017218D01*
X0068841Y0017266D01*
X0068734Y0017318D01*
X0068629Y0017374D01*
X0068525Y0017433D01*
X0068424Y0017495D01*
X0068324Y0017561D01*
X0068227Y0017630D01*
X0068133Y0017702D01*
X0068040Y0017778D01*
X0067951Y0017856D01*
X0067864Y0017937D01*
X0067779Y0018022D01*
X0067698Y0018109D01*
X0067620Y0018198D01*
X0067544Y0018291D01*
X0067472Y0018385D01*
X0067403Y0018482D01*
X0067337Y0018582D01*
X0067275Y0018683D01*
X0067216Y0018787D01*
X0067160Y0018892D01*
X0067108Y0018999D01*
X0067060Y0019108D01*
X0067015Y0019219D01*
X0066974Y0019331D01*
X0066937Y0019444D01*
X0066904Y0019558D01*
X0066874Y0019674D01*
X0066848Y0019790D01*
X0066827Y0019907D01*
X0066809Y0020025D01*
X0066795Y0020143D01*
X0066785Y0020262D01*
X0066779Y0020381D01*
X0066777Y0020500D01*
D34*
X0070342Y0020500D03*
M02*
