G75*
%MOIN*%
%OFA0B0*%
%FSLAX25Y25*%
%IPPOS*%
%LPD*%
%AMOC8*
5,1,8,0,0,1.08239X$1,22.5*
%
%ADD10R,0.07874X0.04724*%
%ADD11R,0.05315X0.02362*%
%ADD12R,0.04331X0.03937*%
%ADD13R,0.08858X0.03346*%
%ADD14R,0.03937X0.04331*%
%ADD15C,0.01181*%
%ADD16R,0.02480X0.03268*%
%ADD17R,0.04724X0.03150*%
%ADD18R,0.03543X0.02362*%
%ADD19R,0.07874X0.05748*%
%ADD20R,0.05610X0.09843*%
%ADD21C,0.00400*%
%ADD22C,0.00197*%
%ADD23R,0.08661X0.03346*%
%ADD24R,0.04134X0.03937*%
%ADD25R,0.02165X0.04724*%
%ADD26R,0.00984X0.02402*%
%ADD27R,0.00984X0.02205*%
D10*
X0034031Y0092726D03*
X0034031Y0114774D03*
X0034031Y0234726D03*
X0034031Y0256774D03*
X0182969Y0256774D03*
X0196031Y0256774D03*
X0196031Y0234726D03*
X0182969Y0234726D03*
X0182969Y0114774D03*
X0196031Y0114774D03*
X0196031Y0092726D03*
X0182969Y0092726D03*
X0344969Y0092726D03*
X0344969Y0114774D03*
X0344969Y0234726D03*
X0344969Y0256774D03*
D11*
X0330500Y0251656D03*
X0330500Y0247719D03*
X0330500Y0243781D03*
X0330500Y0239844D03*
X0210500Y0239844D03*
X0210500Y0243781D03*
X0210500Y0247719D03*
X0210500Y0251656D03*
X0168500Y0251656D03*
X0168500Y0247719D03*
X0168500Y0243781D03*
X0168500Y0239844D03*
X0048500Y0239844D03*
X0048500Y0243781D03*
X0048500Y0247719D03*
X0048500Y0251656D03*
X0048500Y0109656D03*
X0048500Y0105719D03*
X0048500Y0101781D03*
X0048500Y0097844D03*
X0168500Y0097844D03*
X0168500Y0101781D03*
X0168500Y0105719D03*
X0168500Y0109656D03*
X0210500Y0109656D03*
X0210500Y0105719D03*
X0210500Y0101781D03*
X0210500Y0097844D03*
X0330500Y0097844D03*
X0330500Y0101781D03*
X0330500Y0105719D03*
X0330500Y0109656D03*
D12*
X0313846Y0098750D03*
X0307154Y0098750D03*
X0337154Y0087250D03*
X0337154Y0081250D03*
X0343846Y0081250D03*
X0343846Y0087250D03*
X0343846Y0073750D03*
X0343846Y0066250D03*
X0337154Y0066250D03*
X0337154Y0073750D03*
X0278846Y0140750D03*
X0272154Y0140750D03*
X0263846Y0140750D03*
X0257154Y0140750D03*
X0257154Y0163750D03*
X0263846Y0163750D03*
X0233846Y0220750D03*
X0233846Y0226750D03*
X0233846Y0232750D03*
X0233846Y0238750D03*
X0233846Y0244750D03*
X0233846Y0250750D03*
X0227154Y0250750D03*
X0227154Y0244750D03*
X0227154Y0238750D03*
X0227154Y0232750D03*
X0227154Y0226750D03*
X0227154Y0220750D03*
X0181846Y0223250D03*
X0181846Y0229250D03*
X0175154Y0229250D03*
X0175154Y0223250D03*
X0175154Y0215750D03*
X0181846Y0215750D03*
X0181846Y0208250D03*
X0175154Y0208250D03*
X0151846Y0240750D03*
X0145154Y0240750D03*
X0116846Y0282750D03*
X0110154Y0282750D03*
X0101846Y0282750D03*
X0095154Y0282750D03*
X0095154Y0305750D03*
X0101846Y0305750D03*
X0071846Y0250750D03*
X0065154Y0250750D03*
X0065154Y0244750D03*
X0065154Y0238750D03*
X0071846Y0238750D03*
X0071846Y0244750D03*
X0071846Y0232750D03*
X0071846Y0226750D03*
X0065154Y0226750D03*
X0065154Y0232750D03*
X0065154Y0220750D03*
X0071846Y0220750D03*
X0095154Y0163750D03*
X0101846Y0163750D03*
X0101846Y0140750D03*
X0095154Y0140750D03*
X0110154Y0140750D03*
X0116846Y0140750D03*
X0145154Y0098750D03*
X0151846Y0098750D03*
X0175154Y0087250D03*
X0181846Y0087250D03*
X0181846Y0081250D03*
X0175154Y0081250D03*
X0175154Y0073750D03*
X0181846Y0073750D03*
X0181846Y0066250D03*
X0175154Y0066250D03*
X0227154Y0078750D03*
X0227154Y0084750D03*
X0227154Y0090750D03*
X0227154Y0096750D03*
X0227154Y0102750D03*
X0227154Y0108750D03*
X0233846Y0108750D03*
X0233846Y0102750D03*
X0233846Y0096750D03*
X0233846Y0090750D03*
X0233846Y0084750D03*
X0233846Y0078750D03*
X0337154Y0208250D03*
X0343846Y0208250D03*
X0343846Y0215750D03*
X0337154Y0215750D03*
X0337154Y0223250D03*
X0337154Y0229250D03*
X0343846Y0229250D03*
X0343846Y0223250D03*
X0313846Y0240750D03*
X0307154Y0240750D03*
X0278846Y0282750D03*
X0272154Y0282750D03*
X0263846Y0282750D03*
X0257154Y0282750D03*
X0257154Y0305750D03*
X0263846Y0305750D03*
X0071846Y0108750D03*
X0071846Y0102750D03*
X0065154Y0102750D03*
X0065154Y0108750D03*
X0065154Y0096750D03*
X0065154Y0090750D03*
X0071846Y0090750D03*
X0071846Y0096750D03*
X0071846Y0084750D03*
X0071846Y0078750D03*
X0065154Y0078750D03*
X0065154Y0084750D03*
D13*
G36*
X0050910Y0060938D02*
X0055989Y0053683D01*
X0053248Y0051764D01*
X0048169Y0059019D01*
X0050910Y0060938D01*
G37*
G36*
X0055747Y0064325D02*
X0060826Y0057070D01*
X0058085Y0055151D01*
X0053006Y0062406D01*
X0055747Y0064325D01*
G37*
G36*
X0050910Y0202938D02*
X0055989Y0195683D01*
X0053248Y0193764D01*
X0048169Y0201019D01*
X0050910Y0202938D01*
G37*
G36*
X0055747Y0206325D02*
X0060826Y0199070D01*
X0058085Y0197151D01*
X0053006Y0204406D01*
X0055747Y0206325D01*
G37*
G36*
X0212910Y0202938D02*
X0217989Y0195683D01*
X0215248Y0193764D01*
X0210169Y0201019D01*
X0212910Y0202938D01*
G37*
G36*
X0217747Y0206325D02*
X0222826Y0199070D01*
X0220085Y0197151D01*
X0215006Y0204406D01*
X0217747Y0206325D01*
G37*
G36*
X0217747Y0064325D02*
X0222826Y0057070D01*
X0220085Y0055151D01*
X0215006Y0062406D01*
X0217747Y0064325D01*
G37*
G36*
X0212910Y0060938D02*
X0217989Y0053683D01*
X0215248Y0051764D01*
X0210169Y0059019D01*
X0212910Y0060938D01*
G37*
D14*
X0220500Y0125404D03*
X0220500Y0132096D03*
X0228000Y0132096D03*
X0228000Y0125404D03*
X0235500Y0125404D03*
X0235500Y0132096D03*
X0200500Y0132096D03*
X0200500Y0125404D03*
X0146000Y0125596D03*
X0146000Y0118904D03*
X0140000Y0118596D03*
X0140000Y0111904D03*
X0146000Y0112096D03*
X0146000Y0105404D03*
X0073500Y0125404D03*
X0073500Y0132096D03*
X0066000Y0132096D03*
X0066000Y0125404D03*
X0058500Y0125404D03*
X0058500Y0132096D03*
X0038500Y0132096D03*
X0038500Y0125404D03*
X0146000Y0247404D03*
X0146000Y0254096D03*
X0140000Y0253904D03*
X0140000Y0260596D03*
X0146000Y0260904D03*
X0146000Y0267596D03*
X0200500Y0267404D03*
X0200500Y0274096D03*
X0220500Y0274096D03*
X0220500Y0267404D03*
X0228000Y0267404D03*
X0228000Y0274096D03*
X0235500Y0274096D03*
X0235500Y0267404D03*
X0302000Y0260596D03*
X0302000Y0253904D03*
X0308000Y0254096D03*
X0308000Y0247404D03*
X0308000Y0260904D03*
X0308000Y0267596D03*
X0308000Y0125596D03*
X0308000Y0118904D03*
X0302000Y0118596D03*
X0302000Y0111904D03*
X0308000Y0112096D03*
X0308000Y0105404D03*
X0073500Y0267404D03*
X0073500Y0274096D03*
X0066000Y0274096D03*
X0066000Y0267404D03*
X0058500Y0267404D03*
X0058500Y0274096D03*
X0038500Y0274096D03*
X0038500Y0267404D03*
D15*
X0161425Y0232128D02*
X0161425Y0229372D01*
X0158669Y0229372D01*
X0158669Y0232128D01*
X0161425Y0232128D01*
X0161425Y0230494D02*
X0158669Y0230494D01*
X0158669Y0231616D02*
X0161425Y0231616D01*
X0168331Y0232128D02*
X0168331Y0229372D01*
X0165575Y0229372D01*
X0165575Y0232128D01*
X0168331Y0232128D01*
X0168331Y0230494D02*
X0165575Y0230494D01*
X0165575Y0231616D02*
X0168331Y0231616D01*
X0168331Y0224628D02*
X0168331Y0221872D01*
X0165575Y0221872D01*
X0165575Y0224628D01*
X0168331Y0224628D01*
X0168331Y0222994D02*
X0165575Y0222994D01*
X0165575Y0224116D02*
X0168331Y0224116D01*
X0161425Y0224628D02*
X0161425Y0221872D01*
X0158669Y0221872D01*
X0158669Y0224628D01*
X0161425Y0224628D01*
X0161425Y0222994D02*
X0158669Y0222994D01*
X0158669Y0224116D02*
X0161425Y0224116D01*
X0161425Y0217128D02*
X0161425Y0214372D01*
X0158669Y0214372D01*
X0158669Y0217128D01*
X0161425Y0217128D01*
X0161425Y0215494D02*
X0158669Y0215494D01*
X0158669Y0216616D02*
X0161425Y0216616D01*
X0168331Y0217128D02*
X0168331Y0214372D01*
X0165575Y0214372D01*
X0165575Y0217128D01*
X0168331Y0217128D01*
X0168331Y0215494D02*
X0165575Y0215494D01*
X0165575Y0216616D02*
X0168331Y0216616D01*
X0168331Y0209628D02*
X0168331Y0206872D01*
X0165575Y0206872D01*
X0165575Y0209628D01*
X0168331Y0209628D01*
X0168331Y0207994D02*
X0165575Y0207994D01*
X0165575Y0209116D02*
X0168331Y0209116D01*
X0161425Y0209628D02*
X0161425Y0206872D01*
X0158669Y0206872D01*
X0158669Y0209628D01*
X0161425Y0209628D01*
X0161425Y0207994D02*
X0158669Y0207994D01*
X0158669Y0209116D02*
X0161425Y0209116D01*
X0161425Y0090128D02*
X0161425Y0087372D01*
X0158669Y0087372D01*
X0158669Y0090128D01*
X0161425Y0090128D01*
X0161425Y0088494D02*
X0158669Y0088494D01*
X0158669Y0089616D02*
X0161425Y0089616D01*
X0168331Y0090128D02*
X0168331Y0087372D01*
X0165575Y0087372D01*
X0165575Y0090128D01*
X0168331Y0090128D01*
X0168331Y0088494D02*
X0165575Y0088494D01*
X0165575Y0089616D02*
X0168331Y0089616D01*
X0168331Y0082628D02*
X0168331Y0079872D01*
X0165575Y0079872D01*
X0165575Y0082628D01*
X0168331Y0082628D01*
X0168331Y0080994D02*
X0165575Y0080994D01*
X0165575Y0082116D02*
X0168331Y0082116D01*
X0161425Y0082628D02*
X0161425Y0079872D01*
X0158669Y0079872D01*
X0158669Y0082628D01*
X0161425Y0082628D01*
X0161425Y0080994D02*
X0158669Y0080994D01*
X0158669Y0082116D02*
X0161425Y0082116D01*
X0161425Y0075128D02*
X0161425Y0072372D01*
X0158669Y0072372D01*
X0158669Y0075128D01*
X0161425Y0075128D01*
X0161425Y0073494D02*
X0158669Y0073494D01*
X0158669Y0074616D02*
X0161425Y0074616D01*
X0168331Y0075128D02*
X0168331Y0072372D01*
X0165575Y0072372D01*
X0165575Y0075128D01*
X0168331Y0075128D01*
X0168331Y0073494D02*
X0165575Y0073494D01*
X0165575Y0074616D02*
X0168331Y0074616D01*
X0168331Y0067628D02*
X0168331Y0064872D01*
X0165575Y0064872D01*
X0165575Y0067628D01*
X0168331Y0067628D01*
X0168331Y0065994D02*
X0165575Y0065994D01*
X0165575Y0067116D02*
X0168331Y0067116D01*
X0161425Y0067628D02*
X0161425Y0064872D01*
X0158669Y0064872D01*
X0158669Y0067628D01*
X0161425Y0067628D01*
X0161425Y0065994D02*
X0158669Y0065994D01*
X0158669Y0067116D02*
X0161425Y0067116D01*
X0323425Y0067628D02*
X0323425Y0064872D01*
X0320669Y0064872D01*
X0320669Y0067628D01*
X0323425Y0067628D01*
X0323425Y0065994D02*
X0320669Y0065994D01*
X0320669Y0067116D02*
X0323425Y0067116D01*
X0330331Y0067628D02*
X0330331Y0064872D01*
X0327575Y0064872D01*
X0327575Y0067628D01*
X0330331Y0067628D01*
X0330331Y0065994D02*
X0327575Y0065994D01*
X0327575Y0067116D02*
X0330331Y0067116D01*
X0330331Y0072372D02*
X0330331Y0075128D01*
X0330331Y0072372D02*
X0327575Y0072372D01*
X0327575Y0075128D01*
X0330331Y0075128D01*
X0330331Y0073494D02*
X0327575Y0073494D01*
X0327575Y0074616D02*
X0330331Y0074616D01*
X0330331Y0079872D02*
X0330331Y0082628D01*
X0330331Y0079872D02*
X0327575Y0079872D01*
X0327575Y0082628D01*
X0330331Y0082628D01*
X0330331Y0080994D02*
X0327575Y0080994D01*
X0327575Y0082116D02*
X0330331Y0082116D01*
X0330331Y0087372D02*
X0330331Y0090128D01*
X0330331Y0087372D02*
X0327575Y0087372D01*
X0327575Y0090128D01*
X0330331Y0090128D01*
X0330331Y0088494D02*
X0327575Y0088494D01*
X0327575Y0089616D02*
X0330331Y0089616D01*
X0323425Y0090128D02*
X0323425Y0087372D01*
X0320669Y0087372D01*
X0320669Y0090128D01*
X0323425Y0090128D01*
X0323425Y0088494D02*
X0320669Y0088494D01*
X0320669Y0089616D02*
X0323425Y0089616D01*
X0323425Y0082628D02*
X0323425Y0079872D01*
X0320669Y0079872D01*
X0320669Y0082628D01*
X0323425Y0082628D01*
X0323425Y0080994D02*
X0320669Y0080994D01*
X0320669Y0082116D02*
X0323425Y0082116D01*
X0323425Y0075128D02*
X0323425Y0072372D01*
X0320669Y0072372D01*
X0320669Y0075128D01*
X0323425Y0075128D01*
X0323425Y0073494D02*
X0320669Y0073494D01*
X0320669Y0074616D02*
X0323425Y0074616D01*
X0323425Y0206872D02*
X0323425Y0209628D01*
X0323425Y0206872D02*
X0320669Y0206872D01*
X0320669Y0209628D01*
X0323425Y0209628D01*
X0323425Y0207994D02*
X0320669Y0207994D01*
X0320669Y0209116D02*
X0323425Y0209116D01*
X0330331Y0209628D02*
X0330331Y0206872D01*
X0327575Y0206872D01*
X0327575Y0209628D01*
X0330331Y0209628D01*
X0330331Y0207994D02*
X0327575Y0207994D01*
X0327575Y0209116D02*
X0330331Y0209116D01*
X0330331Y0214372D02*
X0330331Y0217128D01*
X0330331Y0214372D02*
X0327575Y0214372D01*
X0327575Y0217128D01*
X0330331Y0217128D01*
X0330331Y0215494D02*
X0327575Y0215494D01*
X0327575Y0216616D02*
X0330331Y0216616D01*
X0330331Y0221872D02*
X0330331Y0224628D01*
X0330331Y0221872D02*
X0327575Y0221872D01*
X0327575Y0224628D01*
X0330331Y0224628D01*
X0330331Y0222994D02*
X0327575Y0222994D01*
X0327575Y0224116D02*
X0330331Y0224116D01*
X0330331Y0229372D02*
X0330331Y0232128D01*
X0330331Y0229372D02*
X0327575Y0229372D01*
X0327575Y0232128D01*
X0330331Y0232128D01*
X0330331Y0230494D02*
X0327575Y0230494D01*
X0327575Y0231616D02*
X0330331Y0231616D01*
X0323425Y0232128D02*
X0323425Y0229372D01*
X0320669Y0229372D01*
X0320669Y0232128D01*
X0323425Y0232128D01*
X0323425Y0230494D02*
X0320669Y0230494D01*
X0320669Y0231616D02*
X0323425Y0231616D01*
X0323425Y0224628D02*
X0323425Y0221872D01*
X0320669Y0221872D01*
X0320669Y0224628D01*
X0323425Y0224628D01*
X0323425Y0222994D02*
X0320669Y0222994D01*
X0320669Y0224116D02*
X0323425Y0224116D01*
X0323425Y0217128D02*
X0323425Y0214372D01*
X0320669Y0214372D01*
X0320669Y0217128D01*
X0323425Y0217128D01*
X0323425Y0215494D02*
X0320669Y0215494D01*
X0320669Y0216616D02*
X0323425Y0216616D01*
D16*
X0235028Y0213750D03*
X0225972Y0213750D03*
X0225972Y0071750D03*
X0235028Y0071750D03*
X0073028Y0071750D03*
X0063972Y0071750D03*
X0063972Y0213750D03*
X0073028Y0213750D03*
D17*
X0082122Y0218191D03*
X0082122Y0222522D03*
X0082122Y0226852D03*
X0082122Y0231183D03*
X0082122Y0235514D03*
X0082122Y0239844D03*
X0082122Y0244175D03*
X0082122Y0255986D03*
X0082122Y0260317D03*
X0082122Y0264648D03*
X0082122Y0268978D03*
X0082122Y0273309D03*
X0134878Y0273309D03*
X0134878Y0268978D03*
X0134878Y0264648D03*
X0134878Y0260317D03*
X0134878Y0255986D03*
X0134878Y0244175D03*
X0134878Y0239844D03*
X0134878Y0235514D03*
X0134878Y0231183D03*
X0134878Y0226852D03*
X0134878Y0222522D03*
X0134878Y0218191D03*
X0134878Y0131309D03*
X0134878Y0126978D03*
X0134878Y0122648D03*
X0134878Y0118317D03*
X0134878Y0113986D03*
X0134878Y0102175D03*
X0134878Y0097844D03*
X0134878Y0093514D03*
X0134878Y0089183D03*
X0134878Y0084852D03*
X0134878Y0080522D03*
X0134878Y0076191D03*
X0082122Y0076191D03*
X0082122Y0080522D03*
X0082122Y0084852D03*
X0082122Y0089183D03*
X0082122Y0093514D03*
X0082122Y0097844D03*
X0082122Y0102175D03*
X0082122Y0113986D03*
X0082122Y0118317D03*
X0082122Y0122648D03*
X0082122Y0126978D03*
X0082122Y0131309D03*
X0244122Y0131309D03*
X0244122Y0126978D03*
X0244122Y0122648D03*
X0244122Y0118317D03*
X0244122Y0113986D03*
X0244122Y0102175D03*
X0244122Y0097844D03*
X0244122Y0093514D03*
X0244122Y0089183D03*
X0244122Y0084852D03*
X0244122Y0080522D03*
X0244122Y0076191D03*
X0296878Y0076191D03*
X0296878Y0080522D03*
X0296878Y0084852D03*
X0296878Y0089183D03*
X0296878Y0093514D03*
X0296878Y0097844D03*
X0296878Y0102175D03*
X0296878Y0113986D03*
X0296878Y0118317D03*
X0296878Y0122648D03*
X0296878Y0126978D03*
X0296878Y0131309D03*
X0296878Y0218191D03*
X0296878Y0222522D03*
X0296878Y0226852D03*
X0296878Y0231183D03*
X0296878Y0235514D03*
X0296878Y0239844D03*
X0296878Y0244175D03*
X0296878Y0255986D03*
X0296878Y0260317D03*
X0296878Y0264648D03*
X0296878Y0268978D03*
X0296878Y0273309D03*
X0244122Y0273309D03*
X0244122Y0268978D03*
X0244122Y0264648D03*
X0244122Y0260317D03*
X0244122Y0255986D03*
X0244122Y0244175D03*
X0244122Y0239844D03*
X0244122Y0235514D03*
X0244122Y0231183D03*
X0244122Y0226852D03*
X0244122Y0222522D03*
X0244122Y0218191D03*
D18*
X0248256Y0218191D03*
X0248256Y0222522D03*
X0248256Y0226852D03*
X0248256Y0231183D03*
X0248256Y0235514D03*
X0248256Y0239844D03*
X0248256Y0244175D03*
X0248256Y0255986D03*
X0248256Y0260317D03*
X0248256Y0264648D03*
X0248256Y0268978D03*
X0248256Y0273309D03*
X0292744Y0273309D03*
X0292744Y0268978D03*
X0292744Y0264648D03*
X0292744Y0260317D03*
X0292744Y0255986D03*
X0292744Y0244175D03*
X0292744Y0239844D03*
X0292744Y0235514D03*
X0292744Y0231183D03*
X0292744Y0226852D03*
X0292744Y0222522D03*
X0292744Y0218191D03*
X0292744Y0131309D03*
X0292744Y0126978D03*
X0292744Y0122648D03*
X0292744Y0118317D03*
X0292744Y0113986D03*
X0292744Y0102175D03*
X0292744Y0097844D03*
X0292744Y0093514D03*
X0292744Y0089183D03*
X0292744Y0084852D03*
X0292744Y0080522D03*
X0292744Y0076191D03*
X0248256Y0076191D03*
X0248256Y0080522D03*
X0248256Y0084852D03*
X0248256Y0089183D03*
X0248256Y0093514D03*
X0248256Y0097844D03*
X0248256Y0102175D03*
X0248256Y0113986D03*
X0248256Y0118317D03*
X0248256Y0122648D03*
X0248256Y0126978D03*
X0248256Y0131309D03*
X0130744Y0131309D03*
X0130744Y0126978D03*
X0130744Y0122648D03*
X0130744Y0118317D03*
X0130744Y0113986D03*
X0130744Y0102175D03*
X0130744Y0097844D03*
X0130744Y0093514D03*
X0130744Y0089183D03*
X0130744Y0084852D03*
X0130744Y0080522D03*
X0130744Y0076191D03*
X0086256Y0076191D03*
X0086256Y0080522D03*
X0086256Y0084852D03*
X0086256Y0089183D03*
X0086256Y0093514D03*
X0086256Y0097844D03*
X0086256Y0102175D03*
X0086256Y0113986D03*
X0086256Y0118317D03*
X0086256Y0122648D03*
X0086256Y0126978D03*
X0086256Y0131309D03*
X0086256Y0218191D03*
X0086256Y0222522D03*
X0086256Y0226852D03*
X0086256Y0231183D03*
X0086256Y0235514D03*
X0086256Y0239844D03*
X0086256Y0244175D03*
X0086256Y0255986D03*
X0086256Y0260317D03*
X0086256Y0264648D03*
X0086256Y0268978D03*
X0086256Y0273309D03*
X0130744Y0273309D03*
X0130744Y0268978D03*
X0130744Y0264648D03*
X0130744Y0260317D03*
X0130744Y0255986D03*
X0130744Y0244175D03*
X0130744Y0239844D03*
X0130744Y0235514D03*
X0130744Y0231183D03*
X0130744Y0226852D03*
X0130744Y0222522D03*
X0130744Y0218191D03*
D19*
X0079917Y0289667D03*
X0057083Y0289667D03*
X0057083Y0147667D03*
X0079917Y0147667D03*
X0219083Y0147667D03*
X0241917Y0147667D03*
X0241917Y0289667D03*
X0219083Y0289667D03*
D20*
X0226711Y0301281D03*
X0234289Y0301281D03*
X0234289Y0159281D03*
X0226711Y0159281D03*
X0072289Y0159281D03*
X0064711Y0159281D03*
X0064711Y0301281D03*
X0072289Y0301281D03*
D21*
X0076357Y0301369D02*
X0081757Y0301369D01*
X0081757Y0301767D02*
X0076357Y0301767D01*
X0076357Y0302166D02*
X0081757Y0302166D01*
X0081757Y0302564D02*
X0076357Y0302564D01*
X0076357Y0302963D02*
X0081757Y0302963D01*
X0081757Y0303362D02*
X0076363Y0303362D01*
X0076357Y0303310D02*
X0076389Y0303599D01*
X0076486Y0303874D01*
X0076640Y0304120D01*
X0076846Y0304326D01*
X0077093Y0304481D01*
X0077368Y0304577D01*
X0077657Y0304610D01*
X0080557Y0304610D01*
X0080824Y0304580D01*
X0081077Y0304491D01*
X0081305Y0304348D01*
X0081495Y0304158D01*
X0081638Y0303930D01*
X0081727Y0303677D01*
X0081757Y0303410D01*
X0081757Y0296510D01*
X0081764Y0296472D01*
X0081786Y0296439D01*
X0081819Y0296417D01*
X0081857Y0296410D01*
X0083757Y0296410D01*
X0083757Y0293310D01*
X0076357Y0293310D01*
X0076357Y0303310D01*
X0076446Y0303760D02*
X0081698Y0303760D01*
X0081495Y0304159D02*
X0076679Y0304159D01*
X0077310Y0304557D02*
X0080889Y0304557D01*
X0081757Y0300970D02*
X0076357Y0300970D01*
X0076357Y0300572D02*
X0081757Y0300572D01*
X0081757Y0300173D02*
X0076357Y0300173D01*
X0076357Y0299775D02*
X0081757Y0299775D01*
X0081757Y0299376D02*
X0076357Y0299376D01*
X0076357Y0298978D02*
X0081757Y0298978D01*
X0081757Y0298579D02*
X0076357Y0298579D01*
X0076357Y0298181D02*
X0081757Y0298181D01*
X0081757Y0297782D02*
X0076357Y0297782D01*
X0076357Y0297384D02*
X0081757Y0297384D01*
X0081757Y0296985D02*
X0076357Y0296985D01*
X0076357Y0296587D02*
X0081757Y0296587D01*
X0083757Y0296188D02*
X0076357Y0296188D01*
X0076357Y0295790D02*
X0083757Y0295790D01*
X0083757Y0295391D02*
X0076357Y0295391D01*
X0076357Y0294993D02*
X0083757Y0294993D01*
X0083757Y0294594D02*
X0076357Y0294594D01*
X0076357Y0294196D02*
X0083757Y0294196D01*
X0083757Y0293797D02*
X0076357Y0293797D01*
X0076357Y0293399D02*
X0083757Y0293399D01*
X0060694Y0293399D02*
X0053294Y0293399D01*
X0053294Y0293310D02*
X0060694Y0293310D01*
X0060694Y0303310D01*
X0060661Y0303599D01*
X0060565Y0303874D01*
X0060410Y0304120D01*
X0060204Y0304326D01*
X0059958Y0304481D01*
X0059683Y0304577D01*
X0059394Y0304610D01*
X0056494Y0304610D01*
X0056227Y0304580D01*
X0055973Y0304491D01*
X0055746Y0304348D01*
X0055555Y0304158D01*
X0055413Y0303930D01*
X0055324Y0303677D01*
X0055294Y0303410D01*
X0055294Y0296510D01*
X0055286Y0296472D01*
X0055264Y0296439D01*
X0055232Y0296417D01*
X0055194Y0296410D01*
X0053294Y0296410D01*
X0053294Y0293310D01*
X0053294Y0293797D02*
X0060694Y0293797D01*
X0060694Y0294196D02*
X0053294Y0294196D01*
X0053294Y0294594D02*
X0060694Y0294594D01*
X0060694Y0294993D02*
X0053294Y0294993D01*
X0053294Y0295391D02*
X0060694Y0295391D01*
X0060694Y0295790D02*
X0053294Y0295790D01*
X0053294Y0296188D02*
X0060694Y0296188D01*
X0060694Y0296587D02*
X0055294Y0296587D01*
X0055294Y0296985D02*
X0060694Y0296985D01*
X0060694Y0297384D02*
X0055294Y0297384D01*
X0055294Y0297782D02*
X0060694Y0297782D01*
X0060694Y0298181D02*
X0055294Y0298181D01*
X0055294Y0298579D02*
X0060694Y0298579D01*
X0060694Y0298978D02*
X0055294Y0298978D01*
X0055294Y0299376D02*
X0060694Y0299376D01*
X0060694Y0299775D02*
X0055294Y0299775D01*
X0055294Y0300173D02*
X0060694Y0300173D01*
X0060694Y0300572D02*
X0055294Y0300572D01*
X0055294Y0300970D02*
X0060694Y0300970D01*
X0060694Y0301369D02*
X0055294Y0301369D01*
X0055294Y0301767D02*
X0060694Y0301767D01*
X0060694Y0302166D02*
X0055294Y0302166D01*
X0055294Y0302564D02*
X0060694Y0302564D01*
X0060694Y0302963D02*
X0055294Y0302963D01*
X0055294Y0303362D02*
X0060688Y0303362D01*
X0060605Y0303760D02*
X0055353Y0303760D01*
X0055556Y0304159D02*
X0060372Y0304159D01*
X0059741Y0304557D02*
X0056162Y0304557D01*
X0056494Y0162610D02*
X0056227Y0162580D01*
X0055973Y0162491D01*
X0055746Y0162348D01*
X0055555Y0162158D01*
X0055413Y0161930D01*
X0055324Y0161677D01*
X0055294Y0161410D01*
X0055294Y0154510D01*
X0055286Y0154472D01*
X0055264Y0154439D01*
X0055232Y0154417D01*
X0055194Y0154410D01*
X0053294Y0154410D01*
X0053294Y0151310D01*
X0060694Y0151310D01*
X0060694Y0161310D01*
X0060661Y0161599D01*
X0060565Y0161874D01*
X0060410Y0162120D01*
X0060204Y0162326D01*
X0059958Y0162481D01*
X0059683Y0162577D01*
X0059394Y0162610D01*
X0056494Y0162610D01*
X0055686Y0162289D02*
X0060242Y0162289D01*
X0060555Y0161890D02*
X0055398Y0161890D01*
X0055303Y0161491D02*
X0060673Y0161491D01*
X0060694Y0161093D02*
X0055294Y0161093D01*
X0055294Y0160694D02*
X0060694Y0160694D01*
X0060694Y0160296D02*
X0055294Y0160296D01*
X0055294Y0159897D02*
X0060694Y0159897D01*
X0060694Y0159499D02*
X0055294Y0159499D01*
X0055294Y0159100D02*
X0060694Y0159100D01*
X0060694Y0158702D02*
X0055294Y0158702D01*
X0055294Y0158303D02*
X0060694Y0158303D01*
X0060694Y0157905D02*
X0055294Y0157905D01*
X0055294Y0157506D02*
X0060694Y0157506D01*
X0060694Y0157108D02*
X0055294Y0157108D01*
X0055294Y0156709D02*
X0060694Y0156709D01*
X0060694Y0156311D02*
X0055294Y0156311D01*
X0055294Y0155912D02*
X0060694Y0155912D01*
X0060694Y0155514D02*
X0055294Y0155514D01*
X0055294Y0155115D02*
X0060694Y0155115D01*
X0060694Y0154717D02*
X0055294Y0154717D01*
X0053294Y0154318D02*
X0060694Y0154318D01*
X0060694Y0153920D02*
X0053294Y0153920D01*
X0053294Y0153521D02*
X0060694Y0153521D01*
X0060694Y0153123D02*
X0053294Y0153123D01*
X0053294Y0152724D02*
X0060694Y0152724D01*
X0060694Y0152326D02*
X0053294Y0152326D01*
X0053294Y0151927D02*
X0060694Y0151927D01*
X0060694Y0151529D02*
X0053294Y0151529D01*
X0076357Y0151529D02*
X0083757Y0151529D01*
X0083757Y0151310D02*
X0076357Y0151310D01*
X0076357Y0161310D01*
X0076389Y0161599D01*
X0076486Y0161874D01*
X0076640Y0162120D01*
X0076846Y0162326D01*
X0077093Y0162481D01*
X0077368Y0162577D01*
X0077657Y0162610D01*
X0080557Y0162610D01*
X0080824Y0162580D01*
X0081077Y0162491D01*
X0081305Y0162348D01*
X0081495Y0162158D01*
X0081638Y0161930D01*
X0081727Y0161677D01*
X0081757Y0161410D01*
X0081757Y0154510D01*
X0081764Y0154472D01*
X0081786Y0154439D01*
X0081819Y0154417D01*
X0081857Y0154410D01*
X0083757Y0154410D01*
X0083757Y0151310D01*
X0083757Y0151927D02*
X0076357Y0151927D01*
X0076357Y0152326D02*
X0083757Y0152326D01*
X0083757Y0152724D02*
X0076357Y0152724D01*
X0076357Y0153123D02*
X0083757Y0153123D01*
X0083757Y0153521D02*
X0076357Y0153521D01*
X0076357Y0153920D02*
X0083757Y0153920D01*
X0083757Y0154318D02*
X0076357Y0154318D01*
X0076357Y0154717D02*
X0081757Y0154717D01*
X0081757Y0155115D02*
X0076357Y0155115D01*
X0076357Y0155514D02*
X0081757Y0155514D01*
X0081757Y0155912D02*
X0076357Y0155912D01*
X0076357Y0156311D02*
X0081757Y0156311D01*
X0081757Y0156709D02*
X0076357Y0156709D01*
X0076357Y0157108D02*
X0081757Y0157108D01*
X0081757Y0157506D02*
X0076357Y0157506D01*
X0076357Y0157905D02*
X0081757Y0157905D01*
X0081757Y0158303D02*
X0076357Y0158303D01*
X0076357Y0158702D02*
X0081757Y0158702D01*
X0081757Y0159100D02*
X0076357Y0159100D01*
X0076357Y0159499D02*
X0081757Y0159499D01*
X0081757Y0159897D02*
X0076357Y0159897D01*
X0076357Y0160296D02*
X0081757Y0160296D01*
X0081757Y0160694D02*
X0076357Y0160694D01*
X0076357Y0161093D02*
X0081757Y0161093D01*
X0081748Y0161491D02*
X0076377Y0161491D01*
X0076496Y0161890D02*
X0081652Y0161890D01*
X0081365Y0162289D02*
X0076809Y0162289D01*
X0215294Y0154410D02*
X0215294Y0151310D01*
X0222694Y0151310D01*
X0222694Y0161310D01*
X0222661Y0161599D01*
X0222565Y0161874D01*
X0222410Y0162120D01*
X0222204Y0162326D01*
X0221958Y0162481D01*
X0221683Y0162577D01*
X0221394Y0162610D01*
X0218494Y0162610D01*
X0218227Y0162580D01*
X0217973Y0162491D01*
X0217746Y0162348D01*
X0217555Y0162158D01*
X0217413Y0161930D01*
X0217324Y0161677D01*
X0217294Y0161410D01*
X0217294Y0154510D01*
X0217286Y0154472D01*
X0217264Y0154439D01*
X0217232Y0154417D01*
X0217194Y0154410D01*
X0215294Y0154410D01*
X0215294Y0154318D02*
X0222694Y0154318D01*
X0222694Y0153920D02*
X0215294Y0153920D01*
X0215294Y0153521D02*
X0222694Y0153521D01*
X0222694Y0153123D02*
X0215294Y0153123D01*
X0215294Y0152724D02*
X0222694Y0152724D01*
X0222694Y0152326D02*
X0215294Y0152326D01*
X0215294Y0151927D02*
X0222694Y0151927D01*
X0222694Y0151529D02*
X0215294Y0151529D01*
X0217294Y0154717D02*
X0222694Y0154717D01*
X0222694Y0155115D02*
X0217294Y0155115D01*
X0217294Y0155514D02*
X0222694Y0155514D01*
X0222694Y0155912D02*
X0217294Y0155912D01*
X0217294Y0156311D02*
X0222694Y0156311D01*
X0222694Y0156709D02*
X0217294Y0156709D01*
X0217294Y0157108D02*
X0222694Y0157108D01*
X0222694Y0157506D02*
X0217294Y0157506D01*
X0217294Y0157905D02*
X0222694Y0157905D01*
X0222694Y0158303D02*
X0217294Y0158303D01*
X0217294Y0158702D02*
X0222694Y0158702D01*
X0222694Y0159100D02*
X0217294Y0159100D01*
X0217294Y0159499D02*
X0222694Y0159499D01*
X0222694Y0159897D02*
X0217294Y0159897D01*
X0217294Y0160296D02*
X0222694Y0160296D01*
X0222694Y0160694D02*
X0217294Y0160694D01*
X0217294Y0161093D02*
X0222694Y0161093D01*
X0222673Y0161491D02*
X0217303Y0161491D01*
X0217398Y0161890D02*
X0222555Y0161890D01*
X0222242Y0162289D02*
X0217686Y0162289D01*
X0238357Y0161310D02*
X0238357Y0151310D01*
X0245757Y0151310D01*
X0245757Y0154410D01*
X0243857Y0154410D01*
X0243819Y0154417D01*
X0243786Y0154439D01*
X0243764Y0154472D01*
X0243757Y0154510D01*
X0243757Y0161410D01*
X0243727Y0161677D01*
X0243638Y0161930D01*
X0243495Y0162158D01*
X0243305Y0162348D01*
X0243077Y0162491D01*
X0242824Y0162580D01*
X0242557Y0162610D01*
X0239657Y0162610D01*
X0239368Y0162577D01*
X0239093Y0162481D01*
X0238846Y0162326D01*
X0238640Y0162120D01*
X0238486Y0161874D01*
X0238389Y0161599D01*
X0238357Y0161310D01*
X0238377Y0161491D02*
X0243748Y0161491D01*
X0243757Y0161093D02*
X0238357Y0161093D01*
X0238357Y0160694D02*
X0243757Y0160694D01*
X0243757Y0160296D02*
X0238357Y0160296D01*
X0238357Y0159897D02*
X0243757Y0159897D01*
X0243757Y0159499D02*
X0238357Y0159499D01*
X0238357Y0159100D02*
X0243757Y0159100D01*
X0243757Y0158702D02*
X0238357Y0158702D01*
X0238357Y0158303D02*
X0243757Y0158303D01*
X0243757Y0157905D02*
X0238357Y0157905D01*
X0238357Y0157506D02*
X0243757Y0157506D01*
X0243757Y0157108D02*
X0238357Y0157108D01*
X0238357Y0156709D02*
X0243757Y0156709D01*
X0243757Y0156311D02*
X0238357Y0156311D01*
X0238357Y0155912D02*
X0243757Y0155912D01*
X0243757Y0155514D02*
X0238357Y0155514D01*
X0238357Y0155115D02*
X0243757Y0155115D01*
X0243757Y0154717D02*
X0238357Y0154717D01*
X0238357Y0154318D02*
X0245757Y0154318D01*
X0245757Y0153920D02*
X0238357Y0153920D01*
X0238357Y0153521D02*
X0245757Y0153521D01*
X0245757Y0153123D02*
X0238357Y0153123D01*
X0238357Y0152724D02*
X0245757Y0152724D01*
X0245757Y0152326D02*
X0238357Y0152326D01*
X0238357Y0151927D02*
X0245757Y0151927D01*
X0245757Y0151529D02*
X0238357Y0151529D01*
X0238496Y0161890D02*
X0243652Y0161890D01*
X0243365Y0162289D02*
X0238809Y0162289D01*
X0238357Y0293310D02*
X0238357Y0303310D01*
X0238389Y0303599D01*
X0238486Y0303874D01*
X0238640Y0304120D01*
X0238846Y0304326D01*
X0239093Y0304481D01*
X0239368Y0304577D01*
X0239657Y0304610D01*
X0242557Y0304610D01*
X0242824Y0304580D01*
X0243077Y0304491D01*
X0243305Y0304348D01*
X0243495Y0304158D01*
X0243638Y0303930D01*
X0243727Y0303677D01*
X0243757Y0303410D01*
X0243757Y0296510D01*
X0243764Y0296472D01*
X0243786Y0296439D01*
X0243819Y0296417D01*
X0243857Y0296410D01*
X0245757Y0296410D01*
X0245757Y0293310D01*
X0238357Y0293310D01*
X0238357Y0293399D02*
X0245757Y0293399D01*
X0245757Y0293797D02*
X0238357Y0293797D01*
X0238357Y0294196D02*
X0245757Y0294196D01*
X0245757Y0294594D02*
X0238357Y0294594D01*
X0238357Y0294993D02*
X0245757Y0294993D01*
X0245757Y0295391D02*
X0238357Y0295391D01*
X0238357Y0295790D02*
X0245757Y0295790D01*
X0245757Y0296188D02*
X0238357Y0296188D01*
X0238357Y0296587D02*
X0243757Y0296587D01*
X0243757Y0296985D02*
X0238357Y0296985D01*
X0238357Y0297384D02*
X0243757Y0297384D01*
X0243757Y0297782D02*
X0238357Y0297782D01*
X0238357Y0298181D02*
X0243757Y0298181D01*
X0243757Y0298579D02*
X0238357Y0298579D01*
X0238357Y0298978D02*
X0243757Y0298978D01*
X0243757Y0299376D02*
X0238357Y0299376D01*
X0238357Y0299775D02*
X0243757Y0299775D01*
X0243757Y0300173D02*
X0238357Y0300173D01*
X0238357Y0300572D02*
X0243757Y0300572D01*
X0243757Y0300970D02*
X0238357Y0300970D01*
X0238357Y0301369D02*
X0243757Y0301369D01*
X0243757Y0301767D02*
X0238357Y0301767D01*
X0238357Y0302166D02*
X0243757Y0302166D01*
X0243757Y0302564D02*
X0238357Y0302564D01*
X0238357Y0302963D02*
X0243757Y0302963D01*
X0243757Y0303362D02*
X0238363Y0303362D01*
X0238446Y0303760D02*
X0243698Y0303760D01*
X0243495Y0304159D02*
X0238679Y0304159D01*
X0239310Y0304557D02*
X0242889Y0304557D01*
X0222694Y0303310D02*
X0222694Y0293310D01*
X0215294Y0293310D01*
X0215294Y0296410D01*
X0217194Y0296410D01*
X0217232Y0296417D01*
X0217264Y0296439D01*
X0217286Y0296472D01*
X0217294Y0296510D01*
X0217294Y0303410D01*
X0217324Y0303677D01*
X0217413Y0303930D01*
X0217555Y0304158D01*
X0217746Y0304348D01*
X0217973Y0304491D01*
X0218227Y0304580D01*
X0218494Y0304610D01*
X0221394Y0304610D01*
X0221683Y0304577D01*
X0221958Y0304481D01*
X0222204Y0304326D01*
X0222410Y0304120D01*
X0222565Y0303874D01*
X0222661Y0303599D01*
X0222694Y0303310D01*
X0222688Y0303362D02*
X0217294Y0303362D01*
X0217294Y0302963D02*
X0222694Y0302963D01*
X0222694Y0302564D02*
X0217294Y0302564D01*
X0217294Y0302166D02*
X0222694Y0302166D01*
X0222694Y0301767D02*
X0217294Y0301767D01*
X0217294Y0301369D02*
X0222694Y0301369D01*
X0222694Y0300970D02*
X0217294Y0300970D01*
X0217294Y0300572D02*
X0222694Y0300572D01*
X0222694Y0300173D02*
X0217294Y0300173D01*
X0217294Y0299775D02*
X0222694Y0299775D01*
X0222694Y0299376D02*
X0217294Y0299376D01*
X0217294Y0298978D02*
X0222694Y0298978D01*
X0222694Y0298579D02*
X0217294Y0298579D01*
X0217294Y0298181D02*
X0222694Y0298181D01*
X0222694Y0297782D02*
X0217294Y0297782D01*
X0217294Y0297384D02*
X0222694Y0297384D01*
X0222694Y0296985D02*
X0217294Y0296985D01*
X0217294Y0296587D02*
X0222694Y0296587D01*
X0222694Y0296188D02*
X0215294Y0296188D01*
X0215294Y0295790D02*
X0222694Y0295790D01*
X0222694Y0295391D02*
X0215294Y0295391D01*
X0215294Y0294993D02*
X0222694Y0294993D01*
X0222694Y0294594D02*
X0215294Y0294594D01*
X0215294Y0294196D02*
X0222694Y0294196D01*
X0222694Y0293797D02*
X0215294Y0293797D01*
X0215294Y0293399D02*
X0222694Y0293399D01*
X0222605Y0303760D02*
X0217353Y0303760D01*
X0217556Y0304159D02*
X0222372Y0304159D01*
X0221741Y0304557D02*
X0218162Y0304557D01*
D22*
X0224890Y0293923D02*
X0225874Y0293923D01*
X0225874Y0287525D01*
X0224890Y0287525D01*
X0224890Y0293923D01*
X0224890Y0293892D02*
X0225874Y0293892D01*
X0225874Y0293697D02*
X0224890Y0293697D01*
X0224890Y0293502D02*
X0225874Y0293502D01*
X0225874Y0293306D02*
X0224890Y0293306D01*
X0224890Y0293111D02*
X0225874Y0293111D01*
X0225874Y0292916D02*
X0224890Y0292916D01*
X0224890Y0292720D02*
X0225874Y0292720D01*
X0225874Y0292525D02*
X0224890Y0292525D01*
X0224890Y0292330D02*
X0225874Y0292330D01*
X0225874Y0292134D02*
X0224890Y0292134D01*
X0224890Y0291939D02*
X0225874Y0291939D01*
X0225874Y0291743D02*
X0224890Y0291743D01*
X0224890Y0291548D02*
X0225874Y0291548D01*
X0225874Y0291353D02*
X0224890Y0291353D01*
X0224890Y0291157D02*
X0225874Y0291157D01*
X0225874Y0290962D02*
X0224890Y0290962D01*
X0224890Y0290767D02*
X0225874Y0290767D01*
X0225874Y0290571D02*
X0224890Y0290571D01*
X0224890Y0290376D02*
X0225874Y0290376D01*
X0225874Y0290181D02*
X0224890Y0290181D01*
X0224890Y0289985D02*
X0225874Y0289985D01*
X0225874Y0289790D02*
X0224890Y0289790D01*
X0224890Y0289594D02*
X0225874Y0289594D01*
X0225874Y0289399D02*
X0224890Y0289399D01*
X0224890Y0289204D02*
X0225874Y0289204D01*
X0225874Y0289008D02*
X0224890Y0289008D01*
X0224890Y0288813D02*
X0225874Y0288813D01*
X0225874Y0288618D02*
X0224890Y0288618D01*
X0224890Y0288422D02*
X0225874Y0288422D01*
X0225874Y0288227D02*
X0224890Y0288227D01*
X0224890Y0288032D02*
X0225874Y0288032D01*
X0225874Y0287836D02*
X0224890Y0287836D01*
X0224890Y0287641D02*
X0225874Y0287641D01*
X0227449Y0287641D02*
X0228433Y0287641D01*
X0228433Y0287525D02*
X0228433Y0293923D01*
X0227449Y0293923D01*
X0227449Y0287525D01*
X0228433Y0287525D01*
X0228433Y0287836D02*
X0227449Y0287836D01*
X0227449Y0288032D02*
X0228433Y0288032D01*
X0228433Y0288227D02*
X0227449Y0288227D01*
X0227449Y0288422D02*
X0228433Y0288422D01*
X0228433Y0288618D02*
X0227449Y0288618D01*
X0227449Y0288813D02*
X0228433Y0288813D01*
X0228433Y0289008D02*
X0227449Y0289008D01*
X0227449Y0289204D02*
X0228433Y0289204D01*
X0228433Y0289399D02*
X0227449Y0289399D01*
X0227449Y0289594D02*
X0228433Y0289594D01*
X0228433Y0289790D02*
X0227449Y0289790D01*
X0227449Y0289985D02*
X0228433Y0289985D01*
X0228433Y0290181D02*
X0227449Y0290181D01*
X0227449Y0290376D02*
X0228433Y0290376D01*
X0228433Y0290571D02*
X0227449Y0290571D01*
X0227449Y0290767D02*
X0228433Y0290767D01*
X0228433Y0290962D02*
X0227449Y0290962D01*
X0227449Y0291157D02*
X0228433Y0291157D01*
X0228433Y0291353D02*
X0227449Y0291353D01*
X0227449Y0291548D02*
X0228433Y0291548D01*
X0228433Y0291743D02*
X0227449Y0291743D01*
X0227449Y0291939D02*
X0228433Y0291939D01*
X0228433Y0292134D02*
X0227449Y0292134D01*
X0227449Y0292330D02*
X0228433Y0292330D01*
X0228433Y0292525D02*
X0227449Y0292525D01*
X0227449Y0292720D02*
X0228433Y0292720D01*
X0228433Y0292916D02*
X0227449Y0292916D01*
X0227449Y0293111D02*
X0228433Y0293111D01*
X0228433Y0293306D02*
X0227449Y0293306D01*
X0227449Y0293502D02*
X0228433Y0293502D01*
X0228433Y0293697D02*
X0227449Y0293697D01*
X0227449Y0293892D02*
X0228433Y0293892D01*
X0230008Y0293892D02*
X0230992Y0293892D01*
X0230992Y0293923D02*
X0230992Y0287525D01*
X0230008Y0287525D01*
X0230008Y0293923D01*
X0230992Y0293923D01*
X0230992Y0293697D02*
X0230008Y0293697D01*
X0230008Y0293502D02*
X0230992Y0293502D01*
X0230992Y0293306D02*
X0230008Y0293306D01*
X0230008Y0293111D02*
X0230992Y0293111D01*
X0230992Y0292916D02*
X0230008Y0292916D01*
X0230008Y0292720D02*
X0230992Y0292720D01*
X0230992Y0292525D02*
X0230008Y0292525D01*
X0230008Y0292330D02*
X0230992Y0292330D01*
X0230992Y0292134D02*
X0230008Y0292134D01*
X0230008Y0291939D02*
X0230992Y0291939D01*
X0230992Y0291743D02*
X0230008Y0291743D01*
X0230008Y0291548D02*
X0230992Y0291548D01*
X0230992Y0291353D02*
X0230008Y0291353D01*
X0230008Y0291157D02*
X0230992Y0291157D01*
X0230992Y0290962D02*
X0230008Y0290962D01*
X0230008Y0290767D02*
X0230992Y0290767D01*
X0230992Y0290571D02*
X0230008Y0290571D01*
X0230008Y0290376D02*
X0230992Y0290376D01*
X0230992Y0290181D02*
X0230008Y0290181D01*
X0230008Y0289985D02*
X0230992Y0289985D01*
X0230992Y0289790D02*
X0230008Y0289790D01*
X0230008Y0289594D02*
X0230992Y0289594D01*
X0230992Y0289399D02*
X0230008Y0289399D01*
X0230008Y0289204D02*
X0230992Y0289204D01*
X0230992Y0289008D02*
X0230008Y0289008D01*
X0230008Y0288813D02*
X0230992Y0288813D01*
X0230992Y0288618D02*
X0230008Y0288618D01*
X0230008Y0288422D02*
X0230992Y0288422D01*
X0230992Y0288227D02*
X0230008Y0288227D01*
X0230008Y0288032D02*
X0230992Y0288032D01*
X0230992Y0287836D02*
X0230008Y0287836D01*
X0230008Y0287641D02*
X0230992Y0287641D01*
X0232567Y0287641D02*
X0233551Y0287641D01*
X0233551Y0287525D02*
X0233551Y0293923D01*
X0232567Y0293923D01*
X0232567Y0287525D01*
X0233551Y0287525D01*
X0233551Y0287836D02*
X0232567Y0287836D01*
X0232567Y0288032D02*
X0233551Y0288032D01*
X0233551Y0288227D02*
X0232567Y0288227D01*
X0232567Y0288422D02*
X0233551Y0288422D01*
X0233551Y0288618D02*
X0232567Y0288618D01*
X0232567Y0288813D02*
X0233551Y0288813D01*
X0233551Y0289008D02*
X0232567Y0289008D01*
X0232567Y0289204D02*
X0233551Y0289204D01*
X0233551Y0289399D02*
X0232567Y0289399D01*
X0232567Y0289594D02*
X0233551Y0289594D01*
X0233551Y0289790D02*
X0232567Y0289790D01*
X0232567Y0289985D02*
X0233551Y0289985D01*
X0233551Y0290181D02*
X0232567Y0290181D01*
X0232567Y0290376D02*
X0233551Y0290376D01*
X0233551Y0290571D02*
X0232567Y0290571D01*
X0232567Y0290767D02*
X0233551Y0290767D01*
X0233551Y0290962D02*
X0232567Y0290962D01*
X0232567Y0291157D02*
X0233551Y0291157D01*
X0233551Y0291353D02*
X0232567Y0291353D01*
X0232567Y0291548D02*
X0233551Y0291548D01*
X0233551Y0291743D02*
X0232567Y0291743D01*
X0232567Y0291939D02*
X0233551Y0291939D01*
X0233551Y0292134D02*
X0232567Y0292134D01*
X0232567Y0292330D02*
X0233551Y0292330D01*
X0233551Y0292525D02*
X0232567Y0292525D01*
X0232567Y0292720D02*
X0233551Y0292720D01*
X0233551Y0292916D02*
X0232567Y0292916D01*
X0232567Y0293111D02*
X0233551Y0293111D01*
X0233551Y0293306D02*
X0232567Y0293306D01*
X0232567Y0293502D02*
X0233551Y0293502D01*
X0233551Y0293697D02*
X0232567Y0293697D01*
X0232567Y0293892D02*
X0233551Y0293892D01*
X0235126Y0293892D02*
X0236110Y0293892D01*
X0236110Y0293923D02*
X0236110Y0287525D01*
X0235126Y0287525D01*
X0235126Y0293923D01*
X0236110Y0293923D01*
X0236110Y0293697D02*
X0235126Y0293697D01*
X0235126Y0293502D02*
X0236110Y0293502D01*
X0236110Y0293306D02*
X0235126Y0293306D01*
X0235126Y0293111D02*
X0236110Y0293111D01*
X0236110Y0292916D02*
X0235126Y0292916D01*
X0235126Y0292720D02*
X0236110Y0292720D01*
X0236110Y0292525D02*
X0235126Y0292525D01*
X0235126Y0292330D02*
X0236110Y0292330D01*
X0236110Y0292134D02*
X0235126Y0292134D01*
X0235126Y0291939D02*
X0236110Y0291939D01*
X0236110Y0291743D02*
X0235126Y0291743D01*
X0235126Y0291548D02*
X0236110Y0291548D01*
X0236110Y0291353D02*
X0235126Y0291353D01*
X0235126Y0291157D02*
X0236110Y0291157D01*
X0236110Y0290962D02*
X0235126Y0290962D01*
X0235126Y0290767D02*
X0236110Y0290767D01*
X0236110Y0290571D02*
X0235126Y0290571D01*
X0235126Y0290376D02*
X0236110Y0290376D01*
X0236110Y0290181D02*
X0235126Y0290181D01*
X0235126Y0289985D02*
X0236110Y0289985D01*
X0236110Y0289790D02*
X0235126Y0289790D01*
X0235126Y0289594D02*
X0236110Y0289594D01*
X0236110Y0289399D02*
X0235126Y0289399D01*
X0235126Y0289204D02*
X0236110Y0289204D01*
X0236110Y0289008D02*
X0235126Y0289008D01*
X0235126Y0288813D02*
X0236110Y0288813D01*
X0236110Y0288618D02*
X0235126Y0288618D01*
X0235126Y0288422D02*
X0236110Y0288422D01*
X0236110Y0288227D02*
X0235126Y0288227D01*
X0235126Y0288032D02*
X0236110Y0288032D01*
X0236110Y0287836D02*
X0235126Y0287836D01*
X0235126Y0287641D02*
X0236110Y0287641D01*
X0236110Y0151923D02*
X0236110Y0145525D01*
X0235126Y0145525D01*
X0235126Y0151923D01*
X0236110Y0151923D01*
X0236110Y0151864D02*
X0235126Y0151864D01*
X0235126Y0151669D02*
X0236110Y0151669D01*
X0236110Y0151474D02*
X0235126Y0151474D01*
X0235126Y0151278D02*
X0236110Y0151278D01*
X0236110Y0151083D02*
X0235126Y0151083D01*
X0235126Y0150888D02*
X0236110Y0150888D01*
X0236110Y0150692D02*
X0235126Y0150692D01*
X0235126Y0150497D02*
X0236110Y0150497D01*
X0236110Y0150302D02*
X0235126Y0150302D01*
X0235126Y0150106D02*
X0236110Y0150106D01*
X0236110Y0149911D02*
X0235126Y0149911D01*
X0235126Y0149715D02*
X0236110Y0149715D01*
X0236110Y0149520D02*
X0235126Y0149520D01*
X0235126Y0149325D02*
X0236110Y0149325D01*
X0236110Y0149129D02*
X0235126Y0149129D01*
X0235126Y0148934D02*
X0236110Y0148934D01*
X0236110Y0148739D02*
X0235126Y0148739D01*
X0235126Y0148543D02*
X0236110Y0148543D01*
X0236110Y0148348D02*
X0235126Y0148348D01*
X0235126Y0148153D02*
X0236110Y0148153D01*
X0236110Y0147957D02*
X0235126Y0147957D01*
X0235126Y0147762D02*
X0236110Y0147762D01*
X0236110Y0147566D02*
X0235126Y0147566D01*
X0235126Y0147371D02*
X0236110Y0147371D01*
X0236110Y0147176D02*
X0235126Y0147176D01*
X0235126Y0146980D02*
X0236110Y0146980D01*
X0236110Y0146785D02*
X0235126Y0146785D01*
X0235126Y0146590D02*
X0236110Y0146590D01*
X0236110Y0146394D02*
X0235126Y0146394D01*
X0235126Y0146199D02*
X0236110Y0146199D01*
X0236110Y0146004D02*
X0235126Y0146004D01*
X0235126Y0145808D02*
X0236110Y0145808D01*
X0236110Y0145613D02*
X0235126Y0145613D01*
X0233551Y0145613D02*
X0232567Y0145613D01*
X0232567Y0145525D02*
X0232567Y0151923D01*
X0233551Y0151923D01*
X0233551Y0145525D01*
X0232567Y0145525D01*
X0232567Y0145808D02*
X0233551Y0145808D01*
X0233551Y0146004D02*
X0232567Y0146004D01*
X0232567Y0146199D02*
X0233551Y0146199D01*
X0233551Y0146394D02*
X0232567Y0146394D01*
X0232567Y0146590D02*
X0233551Y0146590D01*
X0233551Y0146785D02*
X0232567Y0146785D01*
X0232567Y0146980D02*
X0233551Y0146980D01*
X0233551Y0147176D02*
X0232567Y0147176D01*
X0232567Y0147371D02*
X0233551Y0147371D01*
X0233551Y0147566D02*
X0232567Y0147566D01*
X0232567Y0147762D02*
X0233551Y0147762D01*
X0233551Y0147957D02*
X0232567Y0147957D01*
X0232567Y0148153D02*
X0233551Y0148153D01*
X0233551Y0148348D02*
X0232567Y0148348D01*
X0232567Y0148543D02*
X0233551Y0148543D01*
X0233551Y0148739D02*
X0232567Y0148739D01*
X0232567Y0148934D02*
X0233551Y0148934D01*
X0233551Y0149129D02*
X0232567Y0149129D01*
X0232567Y0149325D02*
X0233551Y0149325D01*
X0233551Y0149520D02*
X0232567Y0149520D01*
X0232567Y0149715D02*
X0233551Y0149715D01*
X0233551Y0149911D02*
X0232567Y0149911D01*
X0232567Y0150106D02*
X0233551Y0150106D01*
X0233551Y0150302D02*
X0232567Y0150302D01*
X0232567Y0150497D02*
X0233551Y0150497D01*
X0233551Y0150692D02*
X0232567Y0150692D01*
X0232567Y0150888D02*
X0233551Y0150888D01*
X0233551Y0151083D02*
X0232567Y0151083D01*
X0232567Y0151278D02*
X0233551Y0151278D01*
X0233551Y0151474D02*
X0232567Y0151474D01*
X0232567Y0151669D02*
X0233551Y0151669D01*
X0233551Y0151864D02*
X0232567Y0151864D01*
X0230992Y0151864D02*
X0230008Y0151864D01*
X0230008Y0151923D02*
X0230992Y0151923D01*
X0230992Y0145525D01*
X0230008Y0145525D01*
X0230008Y0151923D01*
X0230008Y0151669D02*
X0230992Y0151669D01*
X0230992Y0151474D02*
X0230008Y0151474D01*
X0230008Y0151278D02*
X0230992Y0151278D01*
X0230992Y0151083D02*
X0230008Y0151083D01*
X0230008Y0150888D02*
X0230992Y0150888D01*
X0230992Y0150692D02*
X0230008Y0150692D01*
X0230008Y0150497D02*
X0230992Y0150497D01*
X0230992Y0150302D02*
X0230008Y0150302D01*
X0230008Y0150106D02*
X0230992Y0150106D01*
X0230992Y0149911D02*
X0230008Y0149911D01*
X0230008Y0149715D02*
X0230992Y0149715D01*
X0230992Y0149520D02*
X0230008Y0149520D01*
X0230008Y0149325D02*
X0230992Y0149325D01*
X0230992Y0149129D02*
X0230008Y0149129D01*
X0230008Y0148934D02*
X0230992Y0148934D01*
X0230992Y0148739D02*
X0230008Y0148739D01*
X0230008Y0148543D02*
X0230992Y0148543D01*
X0230992Y0148348D02*
X0230008Y0148348D01*
X0230008Y0148153D02*
X0230992Y0148153D01*
X0230992Y0147957D02*
X0230008Y0147957D01*
X0230008Y0147762D02*
X0230992Y0147762D01*
X0230992Y0147566D02*
X0230008Y0147566D01*
X0230008Y0147371D02*
X0230992Y0147371D01*
X0230992Y0147176D02*
X0230008Y0147176D01*
X0230008Y0146980D02*
X0230992Y0146980D01*
X0230992Y0146785D02*
X0230008Y0146785D01*
X0230008Y0146590D02*
X0230992Y0146590D01*
X0230992Y0146394D02*
X0230008Y0146394D01*
X0230008Y0146199D02*
X0230992Y0146199D01*
X0230992Y0146004D02*
X0230008Y0146004D01*
X0230008Y0145808D02*
X0230992Y0145808D01*
X0230992Y0145613D02*
X0230008Y0145613D01*
X0228433Y0145613D02*
X0227449Y0145613D01*
X0227449Y0145525D02*
X0227449Y0151923D01*
X0228433Y0151923D01*
X0228433Y0145525D01*
X0227449Y0145525D01*
X0227449Y0145808D02*
X0228433Y0145808D01*
X0228433Y0146004D02*
X0227449Y0146004D01*
X0227449Y0146199D02*
X0228433Y0146199D01*
X0228433Y0146394D02*
X0227449Y0146394D01*
X0227449Y0146590D02*
X0228433Y0146590D01*
X0228433Y0146785D02*
X0227449Y0146785D01*
X0227449Y0146980D02*
X0228433Y0146980D01*
X0228433Y0147176D02*
X0227449Y0147176D01*
X0227449Y0147371D02*
X0228433Y0147371D01*
X0228433Y0147566D02*
X0227449Y0147566D01*
X0227449Y0147762D02*
X0228433Y0147762D01*
X0228433Y0147957D02*
X0227449Y0147957D01*
X0227449Y0148153D02*
X0228433Y0148153D01*
X0228433Y0148348D02*
X0227449Y0148348D01*
X0227449Y0148543D02*
X0228433Y0148543D01*
X0228433Y0148739D02*
X0227449Y0148739D01*
X0227449Y0148934D02*
X0228433Y0148934D01*
X0228433Y0149129D02*
X0227449Y0149129D01*
X0227449Y0149325D02*
X0228433Y0149325D01*
X0228433Y0149520D02*
X0227449Y0149520D01*
X0227449Y0149715D02*
X0228433Y0149715D01*
X0228433Y0149911D02*
X0227449Y0149911D01*
X0227449Y0150106D02*
X0228433Y0150106D01*
X0228433Y0150302D02*
X0227449Y0150302D01*
X0227449Y0150497D02*
X0228433Y0150497D01*
X0228433Y0150692D02*
X0227449Y0150692D01*
X0227449Y0150888D02*
X0228433Y0150888D01*
X0228433Y0151083D02*
X0227449Y0151083D01*
X0227449Y0151278D02*
X0228433Y0151278D01*
X0228433Y0151474D02*
X0227449Y0151474D01*
X0227449Y0151669D02*
X0228433Y0151669D01*
X0228433Y0151864D02*
X0227449Y0151864D01*
X0225874Y0151864D02*
X0224890Y0151864D01*
X0224890Y0151923D02*
X0225874Y0151923D01*
X0225874Y0145525D01*
X0224890Y0145525D01*
X0224890Y0151923D01*
X0224890Y0151669D02*
X0225874Y0151669D01*
X0225874Y0151474D02*
X0224890Y0151474D01*
X0224890Y0151278D02*
X0225874Y0151278D01*
X0225874Y0151083D02*
X0224890Y0151083D01*
X0224890Y0150888D02*
X0225874Y0150888D01*
X0225874Y0150692D02*
X0224890Y0150692D01*
X0224890Y0150497D02*
X0225874Y0150497D01*
X0225874Y0150302D02*
X0224890Y0150302D01*
X0224890Y0150106D02*
X0225874Y0150106D01*
X0225874Y0149911D02*
X0224890Y0149911D01*
X0224890Y0149715D02*
X0225874Y0149715D01*
X0225874Y0149520D02*
X0224890Y0149520D01*
X0224890Y0149325D02*
X0225874Y0149325D01*
X0225874Y0149129D02*
X0224890Y0149129D01*
X0224890Y0148934D02*
X0225874Y0148934D01*
X0225874Y0148739D02*
X0224890Y0148739D01*
X0224890Y0148543D02*
X0225874Y0148543D01*
X0225874Y0148348D02*
X0224890Y0148348D01*
X0224890Y0148153D02*
X0225874Y0148153D01*
X0225874Y0147957D02*
X0224890Y0147957D01*
X0224890Y0147762D02*
X0225874Y0147762D01*
X0225874Y0147566D02*
X0224890Y0147566D01*
X0224890Y0147371D02*
X0225874Y0147371D01*
X0225874Y0147176D02*
X0224890Y0147176D01*
X0224890Y0146980D02*
X0225874Y0146980D01*
X0225874Y0146785D02*
X0224890Y0146785D01*
X0224890Y0146590D02*
X0225874Y0146590D01*
X0225874Y0146394D02*
X0224890Y0146394D01*
X0224890Y0146199D02*
X0225874Y0146199D01*
X0225874Y0146004D02*
X0224890Y0146004D01*
X0224890Y0145808D02*
X0225874Y0145808D01*
X0225874Y0145613D02*
X0224890Y0145613D01*
X0074110Y0145613D02*
X0073126Y0145613D01*
X0073126Y0145525D02*
X0073126Y0151923D01*
X0074110Y0151923D01*
X0074110Y0145525D01*
X0073126Y0145525D01*
X0073126Y0145808D02*
X0074110Y0145808D01*
X0074110Y0146004D02*
X0073126Y0146004D01*
X0073126Y0146199D02*
X0074110Y0146199D01*
X0074110Y0146394D02*
X0073126Y0146394D01*
X0073126Y0146590D02*
X0074110Y0146590D01*
X0074110Y0146785D02*
X0073126Y0146785D01*
X0073126Y0146980D02*
X0074110Y0146980D01*
X0074110Y0147176D02*
X0073126Y0147176D01*
X0073126Y0147371D02*
X0074110Y0147371D01*
X0074110Y0147566D02*
X0073126Y0147566D01*
X0073126Y0147762D02*
X0074110Y0147762D01*
X0074110Y0147957D02*
X0073126Y0147957D01*
X0073126Y0148153D02*
X0074110Y0148153D01*
X0074110Y0148348D02*
X0073126Y0148348D01*
X0073126Y0148543D02*
X0074110Y0148543D01*
X0074110Y0148739D02*
X0073126Y0148739D01*
X0073126Y0148934D02*
X0074110Y0148934D01*
X0074110Y0149129D02*
X0073126Y0149129D01*
X0073126Y0149325D02*
X0074110Y0149325D01*
X0074110Y0149520D02*
X0073126Y0149520D01*
X0073126Y0149715D02*
X0074110Y0149715D01*
X0074110Y0149911D02*
X0073126Y0149911D01*
X0073126Y0150106D02*
X0074110Y0150106D01*
X0074110Y0150302D02*
X0073126Y0150302D01*
X0073126Y0150497D02*
X0074110Y0150497D01*
X0074110Y0150692D02*
X0073126Y0150692D01*
X0073126Y0150888D02*
X0074110Y0150888D01*
X0074110Y0151083D02*
X0073126Y0151083D01*
X0073126Y0151278D02*
X0074110Y0151278D01*
X0074110Y0151474D02*
X0073126Y0151474D01*
X0073126Y0151669D02*
X0074110Y0151669D01*
X0074110Y0151864D02*
X0073126Y0151864D01*
X0071551Y0151864D02*
X0070567Y0151864D01*
X0070567Y0151923D02*
X0071551Y0151923D01*
X0071551Y0145525D01*
X0070567Y0145525D01*
X0070567Y0151923D01*
X0070567Y0151669D02*
X0071551Y0151669D01*
X0071551Y0151474D02*
X0070567Y0151474D01*
X0070567Y0151278D02*
X0071551Y0151278D01*
X0071551Y0151083D02*
X0070567Y0151083D01*
X0070567Y0150888D02*
X0071551Y0150888D01*
X0071551Y0150692D02*
X0070567Y0150692D01*
X0070567Y0150497D02*
X0071551Y0150497D01*
X0071551Y0150302D02*
X0070567Y0150302D01*
X0070567Y0150106D02*
X0071551Y0150106D01*
X0071551Y0149911D02*
X0070567Y0149911D01*
X0070567Y0149715D02*
X0071551Y0149715D01*
X0071551Y0149520D02*
X0070567Y0149520D01*
X0070567Y0149325D02*
X0071551Y0149325D01*
X0071551Y0149129D02*
X0070567Y0149129D01*
X0070567Y0148934D02*
X0071551Y0148934D01*
X0071551Y0148739D02*
X0070567Y0148739D01*
X0070567Y0148543D02*
X0071551Y0148543D01*
X0071551Y0148348D02*
X0070567Y0148348D01*
X0070567Y0148153D02*
X0071551Y0148153D01*
X0071551Y0147957D02*
X0070567Y0147957D01*
X0070567Y0147762D02*
X0071551Y0147762D01*
X0071551Y0147566D02*
X0070567Y0147566D01*
X0070567Y0147371D02*
X0071551Y0147371D01*
X0071551Y0147176D02*
X0070567Y0147176D01*
X0070567Y0146980D02*
X0071551Y0146980D01*
X0071551Y0146785D02*
X0070567Y0146785D01*
X0070567Y0146590D02*
X0071551Y0146590D01*
X0071551Y0146394D02*
X0070567Y0146394D01*
X0070567Y0146199D02*
X0071551Y0146199D01*
X0071551Y0146004D02*
X0070567Y0146004D01*
X0070567Y0145808D02*
X0071551Y0145808D01*
X0071551Y0145613D02*
X0070567Y0145613D01*
X0068992Y0145613D02*
X0068008Y0145613D01*
X0068008Y0145525D02*
X0068008Y0151923D01*
X0068992Y0151923D01*
X0068992Y0145525D01*
X0068008Y0145525D01*
X0068008Y0145808D02*
X0068992Y0145808D01*
X0068992Y0146004D02*
X0068008Y0146004D01*
X0068008Y0146199D02*
X0068992Y0146199D01*
X0068992Y0146394D02*
X0068008Y0146394D01*
X0068008Y0146590D02*
X0068992Y0146590D01*
X0068992Y0146785D02*
X0068008Y0146785D01*
X0068008Y0146980D02*
X0068992Y0146980D01*
X0068992Y0147176D02*
X0068008Y0147176D01*
X0068008Y0147371D02*
X0068992Y0147371D01*
X0068992Y0147566D02*
X0068008Y0147566D01*
X0068008Y0147762D02*
X0068992Y0147762D01*
X0068992Y0147957D02*
X0068008Y0147957D01*
X0068008Y0148153D02*
X0068992Y0148153D01*
X0068992Y0148348D02*
X0068008Y0148348D01*
X0068008Y0148543D02*
X0068992Y0148543D01*
X0068992Y0148739D02*
X0068008Y0148739D01*
X0068008Y0148934D02*
X0068992Y0148934D01*
X0068992Y0149129D02*
X0068008Y0149129D01*
X0068008Y0149325D02*
X0068992Y0149325D01*
X0068992Y0149520D02*
X0068008Y0149520D01*
X0068008Y0149715D02*
X0068992Y0149715D01*
X0068992Y0149911D02*
X0068008Y0149911D01*
X0068008Y0150106D02*
X0068992Y0150106D01*
X0068992Y0150302D02*
X0068008Y0150302D01*
X0068008Y0150497D02*
X0068992Y0150497D01*
X0068992Y0150692D02*
X0068008Y0150692D01*
X0068008Y0150888D02*
X0068992Y0150888D01*
X0068992Y0151083D02*
X0068008Y0151083D01*
X0068008Y0151278D02*
X0068992Y0151278D01*
X0068992Y0151474D02*
X0068008Y0151474D01*
X0068008Y0151669D02*
X0068992Y0151669D01*
X0068992Y0151864D02*
X0068008Y0151864D01*
X0066433Y0151864D02*
X0065449Y0151864D01*
X0065449Y0151923D02*
X0066433Y0151923D01*
X0066433Y0145525D01*
X0065449Y0145525D01*
X0065449Y0151923D01*
X0065449Y0151669D02*
X0066433Y0151669D01*
X0066433Y0151474D02*
X0065449Y0151474D01*
X0065449Y0151278D02*
X0066433Y0151278D01*
X0066433Y0151083D02*
X0065449Y0151083D01*
X0065449Y0150888D02*
X0066433Y0150888D01*
X0066433Y0150692D02*
X0065449Y0150692D01*
X0065449Y0150497D02*
X0066433Y0150497D01*
X0066433Y0150302D02*
X0065449Y0150302D01*
X0065449Y0150106D02*
X0066433Y0150106D01*
X0066433Y0149911D02*
X0065449Y0149911D01*
X0065449Y0149715D02*
X0066433Y0149715D01*
X0066433Y0149520D02*
X0065449Y0149520D01*
X0065449Y0149325D02*
X0066433Y0149325D01*
X0066433Y0149129D02*
X0065449Y0149129D01*
X0065449Y0148934D02*
X0066433Y0148934D01*
X0066433Y0148739D02*
X0065449Y0148739D01*
X0065449Y0148543D02*
X0066433Y0148543D01*
X0066433Y0148348D02*
X0065449Y0148348D01*
X0065449Y0148153D02*
X0066433Y0148153D01*
X0066433Y0147957D02*
X0065449Y0147957D01*
X0065449Y0147762D02*
X0066433Y0147762D01*
X0066433Y0147566D02*
X0065449Y0147566D01*
X0065449Y0147371D02*
X0066433Y0147371D01*
X0066433Y0147176D02*
X0065449Y0147176D01*
X0065449Y0146980D02*
X0066433Y0146980D01*
X0066433Y0146785D02*
X0065449Y0146785D01*
X0065449Y0146590D02*
X0066433Y0146590D01*
X0066433Y0146394D02*
X0065449Y0146394D01*
X0065449Y0146199D02*
X0066433Y0146199D01*
X0066433Y0146004D02*
X0065449Y0146004D01*
X0065449Y0145808D02*
X0066433Y0145808D01*
X0066433Y0145613D02*
X0065449Y0145613D01*
X0063874Y0145613D02*
X0062890Y0145613D01*
X0062890Y0145525D02*
X0062890Y0151923D01*
X0063874Y0151923D01*
X0063874Y0145525D01*
X0062890Y0145525D01*
X0062890Y0145808D02*
X0063874Y0145808D01*
X0063874Y0146004D02*
X0062890Y0146004D01*
X0062890Y0146199D02*
X0063874Y0146199D01*
X0063874Y0146394D02*
X0062890Y0146394D01*
X0062890Y0146590D02*
X0063874Y0146590D01*
X0063874Y0146785D02*
X0062890Y0146785D01*
X0062890Y0146980D02*
X0063874Y0146980D01*
X0063874Y0147176D02*
X0062890Y0147176D01*
X0062890Y0147371D02*
X0063874Y0147371D01*
X0063874Y0147566D02*
X0062890Y0147566D01*
X0062890Y0147762D02*
X0063874Y0147762D01*
X0063874Y0147957D02*
X0062890Y0147957D01*
X0062890Y0148153D02*
X0063874Y0148153D01*
X0063874Y0148348D02*
X0062890Y0148348D01*
X0062890Y0148543D02*
X0063874Y0148543D01*
X0063874Y0148739D02*
X0062890Y0148739D01*
X0062890Y0148934D02*
X0063874Y0148934D01*
X0063874Y0149129D02*
X0062890Y0149129D01*
X0062890Y0149325D02*
X0063874Y0149325D01*
X0063874Y0149520D02*
X0062890Y0149520D01*
X0062890Y0149715D02*
X0063874Y0149715D01*
X0063874Y0149911D02*
X0062890Y0149911D01*
X0062890Y0150106D02*
X0063874Y0150106D01*
X0063874Y0150302D02*
X0062890Y0150302D01*
X0062890Y0150497D02*
X0063874Y0150497D01*
X0063874Y0150692D02*
X0062890Y0150692D01*
X0062890Y0150888D02*
X0063874Y0150888D01*
X0063874Y0151083D02*
X0062890Y0151083D01*
X0062890Y0151278D02*
X0063874Y0151278D01*
X0063874Y0151474D02*
X0062890Y0151474D01*
X0062890Y0151669D02*
X0063874Y0151669D01*
X0063874Y0151864D02*
X0062890Y0151864D01*
X0062890Y0287525D02*
X0062890Y0293923D01*
X0063874Y0293923D01*
X0063874Y0287525D01*
X0062890Y0287525D01*
X0062890Y0287641D02*
X0063874Y0287641D01*
X0063874Y0287836D02*
X0062890Y0287836D01*
X0062890Y0288032D02*
X0063874Y0288032D01*
X0063874Y0288227D02*
X0062890Y0288227D01*
X0062890Y0288422D02*
X0063874Y0288422D01*
X0063874Y0288618D02*
X0062890Y0288618D01*
X0062890Y0288813D02*
X0063874Y0288813D01*
X0063874Y0289008D02*
X0062890Y0289008D01*
X0062890Y0289204D02*
X0063874Y0289204D01*
X0063874Y0289399D02*
X0062890Y0289399D01*
X0062890Y0289594D02*
X0063874Y0289594D01*
X0063874Y0289790D02*
X0062890Y0289790D01*
X0062890Y0289985D02*
X0063874Y0289985D01*
X0063874Y0290181D02*
X0062890Y0290181D01*
X0062890Y0290376D02*
X0063874Y0290376D01*
X0063874Y0290571D02*
X0062890Y0290571D01*
X0062890Y0290767D02*
X0063874Y0290767D01*
X0063874Y0290962D02*
X0062890Y0290962D01*
X0062890Y0291157D02*
X0063874Y0291157D01*
X0063874Y0291353D02*
X0062890Y0291353D01*
X0062890Y0291548D02*
X0063874Y0291548D01*
X0063874Y0291743D02*
X0062890Y0291743D01*
X0062890Y0291939D02*
X0063874Y0291939D01*
X0063874Y0292134D02*
X0062890Y0292134D01*
X0062890Y0292330D02*
X0063874Y0292330D01*
X0063874Y0292525D02*
X0062890Y0292525D01*
X0062890Y0292720D02*
X0063874Y0292720D01*
X0063874Y0292916D02*
X0062890Y0292916D01*
X0062890Y0293111D02*
X0063874Y0293111D01*
X0063874Y0293306D02*
X0062890Y0293306D01*
X0062890Y0293502D02*
X0063874Y0293502D01*
X0063874Y0293697D02*
X0062890Y0293697D01*
X0062890Y0293892D02*
X0063874Y0293892D01*
X0065449Y0293892D02*
X0066433Y0293892D01*
X0066433Y0293923D02*
X0066433Y0287525D01*
X0065449Y0287525D01*
X0065449Y0293923D01*
X0066433Y0293923D01*
X0066433Y0293697D02*
X0065449Y0293697D01*
X0065449Y0293502D02*
X0066433Y0293502D01*
X0066433Y0293306D02*
X0065449Y0293306D01*
X0065449Y0293111D02*
X0066433Y0293111D01*
X0066433Y0292916D02*
X0065449Y0292916D01*
X0065449Y0292720D02*
X0066433Y0292720D01*
X0066433Y0292525D02*
X0065449Y0292525D01*
X0065449Y0292330D02*
X0066433Y0292330D01*
X0066433Y0292134D02*
X0065449Y0292134D01*
X0065449Y0291939D02*
X0066433Y0291939D01*
X0066433Y0291743D02*
X0065449Y0291743D01*
X0065449Y0291548D02*
X0066433Y0291548D01*
X0066433Y0291353D02*
X0065449Y0291353D01*
X0065449Y0291157D02*
X0066433Y0291157D01*
X0066433Y0290962D02*
X0065449Y0290962D01*
X0065449Y0290767D02*
X0066433Y0290767D01*
X0066433Y0290571D02*
X0065449Y0290571D01*
X0065449Y0290376D02*
X0066433Y0290376D01*
X0066433Y0290181D02*
X0065449Y0290181D01*
X0065449Y0289985D02*
X0066433Y0289985D01*
X0066433Y0289790D02*
X0065449Y0289790D01*
X0065449Y0289594D02*
X0066433Y0289594D01*
X0066433Y0289399D02*
X0065449Y0289399D01*
X0065449Y0289204D02*
X0066433Y0289204D01*
X0066433Y0289008D02*
X0065449Y0289008D01*
X0065449Y0288813D02*
X0066433Y0288813D01*
X0066433Y0288618D02*
X0065449Y0288618D01*
X0065449Y0288422D02*
X0066433Y0288422D01*
X0066433Y0288227D02*
X0065449Y0288227D01*
X0065449Y0288032D02*
X0066433Y0288032D01*
X0066433Y0287836D02*
X0065449Y0287836D01*
X0065449Y0287641D02*
X0066433Y0287641D01*
X0068008Y0287641D02*
X0068992Y0287641D01*
X0068992Y0287525D02*
X0068992Y0293923D01*
X0068008Y0293923D01*
X0068008Y0287525D01*
X0068992Y0287525D01*
X0068992Y0287836D02*
X0068008Y0287836D01*
X0068008Y0288032D02*
X0068992Y0288032D01*
X0068992Y0288227D02*
X0068008Y0288227D01*
X0068008Y0288422D02*
X0068992Y0288422D01*
X0068992Y0288618D02*
X0068008Y0288618D01*
X0068008Y0288813D02*
X0068992Y0288813D01*
X0068992Y0289008D02*
X0068008Y0289008D01*
X0068008Y0289204D02*
X0068992Y0289204D01*
X0068992Y0289399D02*
X0068008Y0289399D01*
X0068008Y0289594D02*
X0068992Y0289594D01*
X0068992Y0289790D02*
X0068008Y0289790D01*
X0068008Y0289985D02*
X0068992Y0289985D01*
X0068992Y0290181D02*
X0068008Y0290181D01*
X0068008Y0290376D02*
X0068992Y0290376D01*
X0068992Y0290571D02*
X0068008Y0290571D01*
X0068008Y0290767D02*
X0068992Y0290767D01*
X0068992Y0290962D02*
X0068008Y0290962D01*
X0068008Y0291157D02*
X0068992Y0291157D01*
X0068992Y0291353D02*
X0068008Y0291353D01*
X0068008Y0291548D02*
X0068992Y0291548D01*
X0068992Y0291743D02*
X0068008Y0291743D01*
X0068008Y0291939D02*
X0068992Y0291939D01*
X0068992Y0292134D02*
X0068008Y0292134D01*
X0068008Y0292330D02*
X0068992Y0292330D01*
X0068992Y0292525D02*
X0068008Y0292525D01*
X0068008Y0292720D02*
X0068992Y0292720D01*
X0068992Y0292916D02*
X0068008Y0292916D01*
X0068008Y0293111D02*
X0068992Y0293111D01*
X0068992Y0293306D02*
X0068008Y0293306D01*
X0068008Y0293502D02*
X0068992Y0293502D01*
X0068992Y0293697D02*
X0068008Y0293697D01*
X0068008Y0293892D02*
X0068992Y0293892D01*
X0070567Y0293892D02*
X0071551Y0293892D01*
X0071551Y0293923D02*
X0071551Y0287525D01*
X0070567Y0287525D01*
X0070567Y0293923D01*
X0071551Y0293923D01*
X0071551Y0293697D02*
X0070567Y0293697D01*
X0070567Y0293502D02*
X0071551Y0293502D01*
X0071551Y0293306D02*
X0070567Y0293306D01*
X0070567Y0293111D02*
X0071551Y0293111D01*
X0071551Y0292916D02*
X0070567Y0292916D01*
X0070567Y0292720D02*
X0071551Y0292720D01*
X0071551Y0292525D02*
X0070567Y0292525D01*
X0070567Y0292330D02*
X0071551Y0292330D01*
X0071551Y0292134D02*
X0070567Y0292134D01*
X0070567Y0291939D02*
X0071551Y0291939D01*
X0071551Y0291743D02*
X0070567Y0291743D01*
X0070567Y0291548D02*
X0071551Y0291548D01*
X0071551Y0291353D02*
X0070567Y0291353D01*
X0070567Y0291157D02*
X0071551Y0291157D01*
X0071551Y0290962D02*
X0070567Y0290962D01*
X0070567Y0290767D02*
X0071551Y0290767D01*
X0071551Y0290571D02*
X0070567Y0290571D01*
X0070567Y0290376D02*
X0071551Y0290376D01*
X0071551Y0290181D02*
X0070567Y0290181D01*
X0070567Y0289985D02*
X0071551Y0289985D01*
X0071551Y0289790D02*
X0070567Y0289790D01*
X0070567Y0289594D02*
X0071551Y0289594D01*
X0071551Y0289399D02*
X0070567Y0289399D01*
X0070567Y0289204D02*
X0071551Y0289204D01*
X0071551Y0289008D02*
X0070567Y0289008D01*
X0070567Y0288813D02*
X0071551Y0288813D01*
X0071551Y0288618D02*
X0070567Y0288618D01*
X0070567Y0288422D02*
X0071551Y0288422D01*
X0071551Y0288227D02*
X0070567Y0288227D01*
X0070567Y0288032D02*
X0071551Y0288032D01*
X0071551Y0287836D02*
X0070567Y0287836D01*
X0070567Y0287641D02*
X0071551Y0287641D01*
X0073126Y0287641D02*
X0074110Y0287641D01*
X0074110Y0287525D02*
X0074110Y0293923D01*
X0073126Y0293923D01*
X0073126Y0287525D01*
X0074110Y0287525D01*
X0074110Y0287836D02*
X0073126Y0287836D01*
X0073126Y0288032D02*
X0074110Y0288032D01*
X0074110Y0288227D02*
X0073126Y0288227D01*
X0073126Y0288422D02*
X0074110Y0288422D01*
X0074110Y0288618D02*
X0073126Y0288618D01*
X0073126Y0288813D02*
X0074110Y0288813D01*
X0074110Y0289008D02*
X0073126Y0289008D01*
X0073126Y0289204D02*
X0074110Y0289204D01*
X0074110Y0289399D02*
X0073126Y0289399D01*
X0073126Y0289594D02*
X0074110Y0289594D01*
X0074110Y0289790D02*
X0073126Y0289790D01*
X0073126Y0289985D02*
X0074110Y0289985D01*
X0074110Y0290181D02*
X0073126Y0290181D01*
X0073126Y0290376D02*
X0074110Y0290376D01*
X0074110Y0290571D02*
X0073126Y0290571D01*
X0073126Y0290767D02*
X0074110Y0290767D01*
X0074110Y0290962D02*
X0073126Y0290962D01*
X0073126Y0291157D02*
X0074110Y0291157D01*
X0074110Y0291353D02*
X0073126Y0291353D01*
X0073126Y0291548D02*
X0074110Y0291548D01*
X0074110Y0291743D02*
X0073126Y0291743D01*
X0073126Y0291939D02*
X0074110Y0291939D01*
X0074110Y0292134D02*
X0073126Y0292134D01*
X0073126Y0292330D02*
X0074110Y0292330D01*
X0074110Y0292525D02*
X0073126Y0292525D01*
X0073126Y0292720D02*
X0074110Y0292720D01*
X0074110Y0292916D02*
X0073126Y0292916D01*
X0073126Y0293111D02*
X0074110Y0293111D01*
X0074110Y0293306D02*
X0073126Y0293306D01*
X0073126Y0293502D02*
X0074110Y0293502D01*
X0074110Y0293697D02*
X0073126Y0293697D01*
X0073126Y0293892D02*
X0074110Y0293892D01*
D23*
X0158500Y0274163D03*
X0158500Y0263337D03*
X0158500Y0132163D03*
X0158500Y0121337D03*
X0320500Y0121337D03*
X0320500Y0132163D03*
X0320500Y0263337D03*
X0320500Y0274163D03*
D24*
X0314496Y0268750D03*
X0326504Y0268750D03*
X0326504Y0126750D03*
X0314496Y0126750D03*
X0164504Y0126750D03*
X0152496Y0126750D03*
X0152496Y0268750D03*
X0164504Y0268750D03*
D25*
X0102240Y0288131D03*
X0094760Y0288131D03*
X0094760Y0298369D03*
X0098500Y0298369D03*
X0102240Y0298369D03*
X0102240Y0156369D03*
X0098500Y0156369D03*
X0094760Y0156369D03*
X0094760Y0146131D03*
X0102240Y0146131D03*
X0256760Y0146131D03*
X0264240Y0146131D03*
X0264240Y0156369D03*
X0260500Y0156369D03*
X0256760Y0156369D03*
X0256760Y0288131D03*
X0264240Y0288131D03*
X0264240Y0298369D03*
X0260500Y0298369D03*
X0256760Y0298369D03*
D26*
X0232469Y0281344D03*
X0232469Y0139344D03*
X0070469Y0139344D03*
X0070469Y0281344D03*
D27*
X0068500Y0281443D03*
X0066531Y0281443D03*
X0066531Y0278057D03*
X0068500Y0278057D03*
X0070469Y0278057D03*
X0068500Y0139443D03*
X0066531Y0139443D03*
X0066531Y0136057D03*
X0068500Y0136057D03*
X0070469Y0136057D03*
X0228531Y0136057D03*
X0230500Y0136057D03*
X0232469Y0136057D03*
X0230500Y0139443D03*
X0228531Y0139443D03*
X0228531Y0278057D03*
X0230500Y0278057D03*
X0232469Y0278057D03*
X0230500Y0281443D03*
X0228531Y0281443D03*
M02*
