G75*
%MOIN*%
%OFA0B0*%
%FSLAX25Y25*%
%IPPOS*%
%LPD*%
%AMOC8*
5,1,8,0,0,1.08239X$1,22.5*
%
%ADD10C,0.13800*%
%ADD11C,0.03300*%
%ADD12R,0.08674X0.05524*%
%ADD13R,0.06115X0.03162*%
%ADD14C,0.08200*%
%ADD15R,0.05131X0.04737*%
%ADD16R,0.09658X0.04146*%
%ADD17R,0.04737X0.05131*%
%ADD18R,0.03300X0.05800*%
%ADD19C,0.00500*%
%ADD20C,0.01990*%
%ADD21R,0.03280X0.04068*%
%ADD22R,0.07887X0.03950*%
%ADD23R,0.02375X0.07690*%
%ADD24R,0.08674X0.06548*%
%ADD25R,0.06410X0.10643*%
%ADD26C,0.00400*%
%ADD27R,0.09461X0.04146*%
%ADD28R,0.04934X0.04737*%
%ADD29R,0.02965X0.05524*%
%ADD30R,0.01784X0.03202*%
%ADD31R,0.01784X0.03005*%
%ADD32C,0.04737*%
%ADD33C,0.05000*%
%ADD34C,0.06706*%
D10*
X0038500Y0048750D03*
X0038500Y0158750D03*
X0038500Y0190750D03*
X0038500Y0300750D03*
X0178500Y0300750D03*
X0200500Y0300750D03*
X0200500Y0190750D03*
X0178500Y0190750D03*
X0178500Y0158750D03*
X0200500Y0158750D03*
X0200500Y0048750D03*
X0178500Y0048750D03*
X0340500Y0048750D03*
X0340500Y0158750D03*
X0340500Y0190750D03*
X0340500Y0300750D03*
D11*
X0348000Y0183250D03*
X0348000Y0041250D03*
X0193000Y0166250D03*
X0186000Y0183250D03*
X0193000Y0308250D03*
X0031000Y0308250D03*
X0031000Y0166250D03*
X0186000Y0041250D03*
D12*
X0182969Y0092726D03*
X0196031Y0092726D03*
X0196031Y0114774D03*
X0182969Y0114774D03*
X0182969Y0234726D03*
X0196031Y0234726D03*
X0196031Y0256774D03*
X0182969Y0256774D03*
X0034031Y0256774D03*
X0034031Y0234726D03*
X0034031Y0114774D03*
X0034031Y0092726D03*
X0344969Y0092726D03*
X0344969Y0114774D03*
X0344969Y0234726D03*
X0344969Y0256774D03*
D13*
X0330500Y0251656D03*
X0330500Y0247719D03*
X0330500Y0243781D03*
X0330500Y0239844D03*
X0210500Y0239844D03*
X0210500Y0243781D03*
X0210500Y0247719D03*
X0210500Y0251656D03*
X0168500Y0251656D03*
X0168500Y0247719D03*
X0168500Y0243781D03*
X0168500Y0239844D03*
X0048500Y0239844D03*
X0048500Y0243781D03*
X0048500Y0247719D03*
X0048500Y0251656D03*
X0048500Y0109656D03*
X0048500Y0105719D03*
X0048500Y0101781D03*
X0048500Y0097844D03*
X0168500Y0097844D03*
X0168500Y0101781D03*
X0168500Y0105719D03*
X0168500Y0109656D03*
X0210500Y0109656D03*
X0210500Y0105719D03*
X0210500Y0101781D03*
X0210500Y0097844D03*
X0330500Y0097844D03*
X0330500Y0101781D03*
X0330500Y0105719D03*
X0330500Y0109656D03*
D14*
X0325500Y0163750D03*
X0315500Y0163750D03*
X0305500Y0163750D03*
X0295500Y0163750D03*
X0285500Y0163750D03*
X0275500Y0163750D03*
X0275500Y0185750D03*
X0265500Y0185750D03*
X0255500Y0185750D03*
X0245500Y0185750D03*
X0235500Y0185750D03*
X0225500Y0185750D03*
X0285500Y0185750D03*
X0295500Y0185750D03*
X0305500Y0185750D03*
X0315500Y0185750D03*
X0315500Y0305750D03*
X0325500Y0305750D03*
X0305500Y0305750D03*
X0295500Y0305750D03*
X0285500Y0305750D03*
X0275500Y0305750D03*
X0163500Y0305750D03*
X0153500Y0305750D03*
X0143500Y0305750D03*
X0133500Y0305750D03*
X0123500Y0305750D03*
X0113500Y0305750D03*
X0113500Y0185750D03*
X0103500Y0185750D03*
X0093500Y0185750D03*
X0083500Y0185750D03*
X0073500Y0185750D03*
X0063500Y0185750D03*
X0113500Y0163750D03*
X0123500Y0163750D03*
X0133500Y0163750D03*
X0143500Y0163750D03*
X0153500Y0163750D03*
X0163500Y0163750D03*
X0153500Y0185750D03*
X0143500Y0185750D03*
X0133500Y0185750D03*
X0123500Y0185750D03*
X0123500Y0043750D03*
X0113500Y0043750D03*
X0103500Y0043750D03*
X0093500Y0043750D03*
X0083500Y0043750D03*
X0073500Y0043750D03*
X0063500Y0043750D03*
X0133500Y0043750D03*
X0143500Y0043750D03*
X0153500Y0043750D03*
X0225500Y0043750D03*
X0235500Y0043750D03*
X0245500Y0043750D03*
X0255500Y0043750D03*
X0265500Y0043750D03*
X0275500Y0043750D03*
X0285500Y0043750D03*
X0295500Y0043750D03*
X0305500Y0043750D03*
X0315500Y0043750D03*
D15*
X0337154Y0066250D03*
X0337154Y0073750D03*
X0343846Y0073750D03*
X0343846Y0066250D03*
X0343846Y0081250D03*
X0343846Y0087250D03*
X0337154Y0087250D03*
X0337154Y0081250D03*
X0313846Y0098750D03*
X0307154Y0098750D03*
X0278846Y0140750D03*
X0272154Y0140750D03*
X0263846Y0140750D03*
X0257154Y0140750D03*
X0257154Y0163750D03*
X0263846Y0163750D03*
X0233846Y0220750D03*
X0233846Y0226750D03*
X0233846Y0232750D03*
X0233846Y0238750D03*
X0233846Y0244750D03*
X0233846Y0250750D03*
X0227154Y0250750D03*
X0227154Y0244750D03*
X0227154Y0238750D03*
X0227154Y0232750D03*
X0227154Y0226750D03*
X0227154Y0220750D03*
X0181846Y0223250D03*
X0181846Y0229250D03*
X0175154Y0229250D03*
X0175154Y0223250D03*
X0175154Y0215750D03*
X0181846Y0215750D03*
X0181846Y0208250D03*
X0175154Y0208250D03*
X0151846Y0240750D03*
X0145154Y0240750D03*
X0116846Y0282750D03*
X0110154Y0282750D03*
X0101846Y0282750D03*
X0095154Y0282750D03*
X0095154Y0305750D03*
X0101846Y0305750D03*
X0071846Y0250750D03*
X0065154Y0250750D03*
X0065154Y0244750D03*
X0065154Y0238750D03*
X0071846Y0238750D03*
X0071846Y0244750D03*
X0071846Y0232750D03*
X0071846Y0226750D03*
X0065154Y0226750D03*
X0065154Y0232750D03*
X0065154Y0220750D03*
X0071846Y0220750D03*
X0095154Y0163750D03*
X0101846Y0163750D03*
X0101846Y0140750D03*
X0095154Y0140750D03*
X0110154Y0140750D03*
X0116846Y0140750D03*
X0145154Y0098750D03*
X0151846Y0098750D03*
X0175154Y0087250D03*
X0181846Y0087250D03*
X0181846Y0081250D03*
X0175154Y0081250D03*
X0175154Y0073750D03*
X0181846Y0073750D03*
X0181846Y0066250D03*
X0175154Y0066250D03*
X0227154Y0078750D03*
X0227154Y0084750D03*
X0227154Y0090750D03*
X0227154Y0096750D03*
X0227154Y0102750D03*
X0227154Y0108750D03*
X0233846Y0108750D03*
X0233846Y0102750D03*
X0233846Y0096750D03*
X0233846Y0090750D03*
X0233846Y0084750D03*
X0233846Y0078750D03*
X0337154Y0208250D03*
X0343846Y0208250D03*
X0343846Y0215750D03*
X0337154Y0215750D03*
X0337154Y0223250D03*
X0337154Y0229250D03*
X0343846Y0229250D03*
X0343846Y0223250D03*
X0313846Y0240750D03*
X0307154Y0240750D03*
X0278846Y0282750D03*
X0272154Y0282750D03*
X0263846Y0282750D03*
X0257154Y0282750D03*
X0257154Y0305750D03*
X0263846Y0305750D03*
X0071846Y0108750D03*
X0071846Y0102750D03*
X0065154Y0102750D03*
X0065154Y0108750D03*
X0065154Y0096750D03*
X0065154Y0090750D03*
X0071846Y0090750D03*
X0071846Y0096750D03*
X0071846Y0084750D03*
X0071846Y0078750D03*
X0065154Y0078750D03*
X0065154Y0084750D03*
D16*
G36*
X0055845Y0064882D02*
X0061383Y0056972D01*
X0057987Y0054594D01*
X0052449Y0062504D01*
X0055845Y0064882D01*
G37*
G36*
X0051008Y0061495D02*
X0056546Y0053585D01*
X0053150Y0051207D01*
X0047612Y0059117D01*
X0051008Y0061495D01*
G37*
G36*
X0051008Y0203495D02*
X0056546Y0195585D01*
X0053150Y0193207D01*
X0047612Y0201117D01*
X0051008Y0203495D01*
G37*
G36*
X0055845Y0206882D02*
X0061383Y0198972D01*
X0057987Y0196594D01*
X0052449Y0204504D01*
X0055845Y0206882D01*
G37*
G36*
X0213008Y0203495D02*
X0218546Y0195585D01*
X0215150Y0193207D01*
X0209612Y0201117D01*
X0213008Y0203495D01*
G37*
G36*
X0217845Y0206882D02*
X0223383Y0198972D01*
X0219987Y0196594D01*
X0214449Y0204504D01*
X0217845Y0206882D01*
G37*
G36*
X0217845Y0064882D02*
X0223383Y0056972D01*
X0219987Y0054594D01*
X0214449Y0062504D01*
X0217845Y0064882D01*
G37*
G36*
X0213008Y0061495D02*
X0218546Y0053585D01*
X0215150Y0051207D01*
X0209612Y0059117D01*
X0213008Y0061495D01*
G37*
D17*
X0220500Y0125404D03*
X0220500Y0132096D03*
X0228000Y0132096D03*
X0228000Y0125404D03*
X0235500Y0125404D03*
X0235500Y0132096D03*
X0200500Y0132096D03*
X0200500Y0125404D03*
X0146000Y0125596D03*
X0146000Y0118904D03*
X0140000Y0118596D03*
X0140000Y0111904D03*
X0146000Y0112096D03*
X0146000Y0105404D03*
X0073500Y0125404D03*
X0073500Y0132096D03*
X0066000Y0132096D03*
X0066000Y0125404D03*
X0058500Y0125404D03*
X0058500Y0132096D03*
X0038500Y0132096D03*
X0038500Y0125404D03*
X0146000Y0247404D03*
X0146000Y0254096D03*
X0140000Y0253904D03*
X0140000Y0260596D03*
X0146000Y0260904D03*
X0146000Y0267596D03*
X0200500Y0267404D03*
X0200500Y0274096D03*
X0220500Y0274096D03*
X0220500Y0267404D03*
X0228000Y0267404D03*
X0228000Y0274096D03*
X0235500Y0274096D03*
X0235500Y0267404D03*
X0302000Y0260596D03*
X0302000Y0253904D03*
X0308000Y0254096D03*
X0308000Y0247404D03*
X0308000Y0260904D03*
X0308000Y0267596D03*
X0308000Y0125596D03*
X0308000Y0118904D03*
X0302000Y0118596D03*
X0302000Y0111904D03*
X0308000Y0112096D03*
X0308000Y0105404D03*
X0073500Y0267404D03*
X0073500Y0274096D03*
X0066000Y0274096D03*
X0066000Y0267404D03*
X0058500Y0267404D03*
X0058500Y0274096D03*
X0038500Y0274096D03*
X0038500Y0267404D03*
D18*
X0044500Y0270750D03*
X0048500Y0270750D03*
X0052500Y0270750D03*
X0052500Y0128750D03*
X0048500Y0128750D03*
X0044500Y0128750D03*
X0206500Y0128750D03*
X0210500Y0128750D03*
X0214500Y0128750D03*
X0214500Y0270750D03*
X0210500Y0270750D03*
X0206500Y0270750D03*
D19*
X0207750Y0270558D02*
X0213250Y0270558D01*
X0213250Y0270250D02*
X0213250Y0271250D01*
X0207750Y0271250D01*
X0207750Y0270250D01*
X0213250Y0270250D01*
X0213250Y0271056D02*
X0207750Y0271056D01*
X0207750Y0129250D02*
X0213250Y0129250D01*
X0213250Y0128250D01*
X0207750Y0128250D01*
X0207750Y0129250D01*
X0207750Y0128981D02*
X0213250Y0128981D01*
X0213250Y0128482D02*
X0207750Y0128482D01*
X0051250Y0128482D02*
X0045750Y0128482D01*
X0045750Y0128250D02*
X0045750Y0129250D01*
X0051250Y0129250D01*
X0051250Y0128250D01*
X0045750Y0128250D01*
X0045750Y0128981D02*
X0051250Y0128981D01*
X0051250Y0270250D02*
X0045750Y0270250D01*
X0045750Y0271250D01*
X0051250Y0271250D01*
X0051250Y0270250D01*
X0051250Y0270558D02*
X0045750Y0270558D01*
X0045750Y0271056D02*
X0051250Y0271056D01*
D20*
X0161420Y0232123D02*
X0161420Y0229377D01*
X0158674Y0229377D01*
X0158674Y0232123D01*
X0161420Y0232123D01*
X0161420Y0231267D02*
X0158674Y0231267D01*
X0161420Y0224623D02*
X0161420Y0221877D01*
X0158674Y0221877D01*
X0158674Y0224623D01*
X0161420Y0224623D01*
X0161420Y0223767D02*
X0158674Y0223767D01*
X0161420Y0217123D02*
X0161420Y0214377D01*
X0158674Y0214377D01*
X0158674Y0217123D01*
X0161420Y0217123D01*
X0161420Y0216267D02*
X0158674Y0216267D01*
X0161420Y0209623D02*
X0161420Y0206877D01*
X0158674Y0206877D01*
X0158674Y0209623D01*
X0161420Y0209623D01*
X0161420Y0208767D02*
X0158674Y0208767D01*
X0168326Y0209623D02*
X0168326Y0206877D01*
X0165580Y0206877D01*
X0165580Y0209623D01*
X0168326Y0209623D01*
X0168326Y0208767D02*
X0165580Y0208767D01*
X0168326Y0214377D02*
X0168326Y0217123D01*
X0168326Y0214377D02*
X0165580Y0214377D01*
X0165580Y0217123D01*
X0168326Y0217123D01*
X0168326Y0216267D02*
X0165580Y0216267D01*
X0168326Y0221877D02*
X0168326Y0224623D01*
X0168326Y0221877D02*
X0165580Y0221877D01*
X0165580Y0224623D01*
X0168326Y0224623D01*
X0168326Y0223767D02*
X0165580Y0223767D01*
X0168326Y0229377D02*
X0168326Y0232123D01*
X0168326Y0229377D02*
X0165580Y0229377D01*
X0165580Y0232123D01*
X0168326Y0232123D01*
X0168326Y0231267D02*
X0165580Y0231267D01*
X0168326Y0090123D02*
X0168326Y0087377D01*
X0165580Y0087377D01*
X0165580Y0090123D01*
X0168326Y0090123D01*
X0168326Y0089267D02*
X0165580Y0089267D01*
X0161420Y0090123D02*
X0161420Y0087377D01*
X0158674Y0087377D01*
X0158674Y0090123D01*
X0161420Y0090123D01*
X0161420Y0089267D02*
X0158674Y0089267D01*
X0161420Y0082623D02*
X0161420Y0079877D01*
X0158674Y0079877D01*
X0158674Y0082623D01*
X0161420Y0082623D01*
X0161420Y0081767D02*
X0158674Y0081767D01*
X0161420Y0075123D02*
X0161420Y0072377D01*
X0158674Y0072377D01*
X0158674Y0075123D01*
X0161420Y0075123D01*
X0161420Y0074267D02*
X0158674Y0074267D01*
X0161420Y0067623D02*
X0161420Y0064877D01*
X0158674Y0064877D01*
X0158674Y0067623D01*
X0161420Y0067623D01*
X0161420Y0066767D02*
X0158674Y0066767D01*
X0168326Y0067623D02*
X0168326Y0064877D01*
X0165580Y0064877D01*
X0165580Y0067623D01*
X0168326Y0067623D01*
X0168326Y0066767D02*
X0165580Y0066767D01*
X0168326Y0072377D02*
X0168326Y0075123D01*
X0168326Y0072377D02*
X0165580Y0072377D01*
X0165580Y0075123D01*
X0168326Y0075123D01*
X0168326Y0074267D02*
X0165580Y0074267D01*
X0168326Y0079877D02*
X0168326Y0082623D01*
X0168326Y0079877D02*
X0165580Y0079877D01*
X0165580Y0082623D01*
X0168326Y0082623D01*
X0168326Y0081767D02*
X0165580Y0081767D01*
X0323420Y0082623D02*
X0323420Y0079877D01*
X0320674Y0079877D01*
X0320674Y0082623D01*
X0323420Y0082623D01*
X0323420Y0081767D02*
X0320674Y0081767D01*
X0323420Y0087377D02*
X0323420Y0090123D01*
X0323420Y0087377D02*
X0320674Y0087377D01*
X0320674Y0090123D01*
X0323420Y0090123D01*
X0323420Y0089267D02*
X0320674Y0089267D01*
X0330326Y0090123D02*
X0330326Y0087377D01*
X0327580Y0087377D01*
X0327580Y0090123D01*
X0330326Y0090123D01*
X0330326Y0089267D02*
X0327580Y0089267D01*
X0330326Y0082623D02*
X0330326Y0079877D01*
X0327580Y0079877D01*
X0327580Y0082623D01*
X0330326Y0082623D01*
X0330326Y0081767D02*
X0327580Y0081767D01*
X0330326Y0075123D02*
X0330326Y0072377D01*
X0327580Y0072377D01*
X0327580Y0075123D01*
X0330326Y0075123D01*
X0330326Y0074267D02*
X0327580Y0074267D01*
X0323420Y0075123D02*
X0323420Y0072377D01*
X0320674Y0072377D01*
X0320674Y0075123D01*
X0323420Y0075123D01*
X0323420Y0074267D02*
X0320674Y0074267D01*
X0323420Y0067623D02*
X0323420Y0064877D01*
X0320674Y0064877D01*
X0320674Y0067623D01*
X0323420Y0067623D01*
X0323420Y0066767D02*
X0320674Y0066767D01*
X0330326Y0067623D02*
X0330326Y0064877D01*
X0327580Y0064877D01*
X0327580Y0067623D01*
X0330326Y0067623D01*
X0330326Y0066767D02*
X0327580Y0066767D01*
X0330326Y0206877D02*
X0330326Y0209623D01*
X0330326Y0206877D02*
X0327580Y0206877D01*
X0327580Y0209623D01*
X0330326Y0209623D01*
X0330326Y0208767D02*
X0327580Y0208767D01*
X0323420Y0209623D02*
X0323420Y0206877D01*
X0320674Y0206877D01*
X0320674Y0209623D01*
X0323420Y0209623D01*
X0323420Y0208767D02*
X0320674Y0208767D01*
X0323420Y0214377D02*
X0323420Y0217123D01*
X0323420Y0214377D02*
X0320674Y0214377D01*
X0320674Y0217123D01*
X0323420Y0217123D01*
X0323420Y0216267D02*
X0320674Y0216267D01*
X0323420Y0221877D02*
X0323420Y0224623D01*
X0323420Y0221877D02*
X0320674Y0221877D01*
X0320674Y0224623D01*
X0323420Y0224623D01*
X0323420Y0223767D02*
X0320674Y0223767D01*
X0323420Y0229377D02*
X0323420Y0232123D01*
X0323420Y0229377D02*
X0320674Y0229377D01*
X0320674Y0232123D01*
X0323420Y0232123D01*
X0323420Y0231267D02*
X0320674Y0231267D01*
X0330326Y0232123D02*
X0330326Y0229377D01*
X0327580Y0229377D01*
X0327580Y0232123D01*
X0330326Y0232123D01*
X0330326Y0231267D02*
X0327580Y0231267D01*
X0330326Y0224623D02*
X0330326Y0221877D01*
X0327580Y0221877D01*
X0327580Y0224623D01*
X0330326Y0224623D01*
X0330326Y0223767D02*
X0327580Y0223767D01*
X0330326Y0217123D02*
X0330326Y0214377D01*
X0327580Y0214377D01*
X0327580Y0217123D01*
X0330326Y0217123D01*
X0330326Y0216267D02*
X0327580Y0216267D01*
D21*
X0235028Y0213750D03*
X0225972Y0213750D03*
X0225972Y0071750D03*
X0235028Y0071750D03*
X0073028Y0071750D03*
X0063972Y0071750D03*
X0063972Y0213750D03*
X0073028Y0213750D03*
D22*
X0084878Y0218191D03*
X0084878Y0222522D03*
X0084878Y0226852D03*
X0084878Y0231183D03*
X0084878Y0235514D03*
X0084878Y0239844D03*
X0084878Y0244175D03*
X0084878Y0255986D03*
X0084878Y0260317D03*
X0084878Y0264648D03*
X0084878Y0268978D03*
X0084878Y0273309D03*
X0132122Y0273309D03*
X0132122Y0268978D03*
X0132122Y0264648D03*
X0132122Y0260317D03*
X0132122Y0255986D03*
X0132122Y0244175D03*
X0132122Y0239844D03*
X0132122Y0235514D03*
X0132122Y0231183D03*
X0132122Y0226852D03*
X0132122Y0222522D03*
X0132122Y0218191D03*
X0132122Y0131309D03*
X0132122Y0126978D03*
X0132122Y0122648D03*
X0132122Y0118317D03*
X0132122Y0113986D03*
X0132122Y0102175D03*
X0132122Y0097844D03*
X0132122Y0093514D03*
X0132122Y0089183D03*
X0132122Y0084852D03*
X0132122Y0080522D03*
X0132122Y0076191D03*
X0084878Y0076191D03*
X0084878Y0080522D03*
X0084878Y0084852D03*
X0084878Y0089183D03*
X0084878Y0093514D03*
X0084878Y0097844D03*
X0084878Y0102175D03*
X0084878Y0113986D03*
X0084878Y0118317D03*
X0084878Y0122648D03*
X0084878Y0126978D03*
X0084878Y0131309D03*
X0246878Y0131309D03*
X0246878Y0126978D03*
X0246878Y0122648D03*
X0246878Y0118317D03*
X0246878Y0113986D03*
X0246878Y0102175D03*
X0246878Y0097844D03*
X0246878Y0093514D03*
X0246878Y0089183D03*
X0246878Y0084852D03*
X0246878Y0080522D03*
X0246878Y0076191D03*
X0294122Y0076191D03*
X0294122Y0080522D03*
X0294122Y0084852D03*
X0294122Y0089183D03*
X0294122Y0093514D03*
X0294122Y0097844D03*
X0294122Y0102175D03*
X0294122Y0113986D03*
X0294122Y0118317D03*
X0294122Y0122648D03*
X0294122Y0126978D03*
X0294122Y0131309D03*
X0294122Y0218191D03*
X0294122Y0222522D03*
X0294122Y0226852D03*
X0294122Y0231183D03*
X0294122Y0235514D03*
X0294122Y0239844D03*
X0294122Y0244175D03*
X0294122Y0255986D03*
X0294122Y0260317D03*
X0294122Y0264648D03*
X0294122Y0268978D03*
X0294122Y0273309D03*
X0246878Y0273309D03*
X0246878Y0268978D03*
X0246878Y0264648D03*
X0246878Y0260317D03*
X0246878Y0255986D03*
X0246878Y0244175D03*
X0246878Y0239844D03*
X0246878Y0235514D03*
X0246878Y0231183D03*
X0246878Y0226852D03*
X0246878Y0222522D03*
X0246878Y0218191D03*
D23*
X0235618Y0148750D03*
X0233059Y0148750D03*
X0230500Y0148750D03*
X0227941Y0148750D03*
X0225382Y0148750D03*
X0225382Y0290750D03*
X0227941Y0290750D03*
X0230500Y0290750D03*
X0233059Y0290750D03*
X0235618Y0290750D03*
X0073618Y0290750D03*
X0071059Y0290750D03*
X0068500Y0290750D03*
X0065941Y0290750D03*
X0063382Y0290750D03*
X0063382Y0148750D03*
X0065941Y0148750D03*
X0068500Y0148750D03*
X0071059Y0148750D03*
X0073618Y0148750D03*
D24*
X0079917Y0147667D03*
X0057083Y0147667D03*
X0057083Y0289667D03*
X0079917Y0289667D03*
X0219083Y0289667D03*
X0241917Y0289667D03*
X0241917Y0147667D03*
X0219083Y0147667D03*
D25*
X0226711Y0159281D03*
X0234289Y0159281D03*
X0234289Y0301281D03*
X0226711Y0301281D03*
X0072289Y0301281D03*
X0064711Y0301281D03*
X0064711Y0159281D03*
X0072289Y0159281D03*
D26*
X0076374Y0159100D02*
X0081886Y0159100D01*
X0081886Y0158702D02*
X0076374Y0158702D01*
X0076374Y0158303D02*
X0081886Y0158303D01*
X0081886Y0157905D02*
X0076374Y0157905D01*
X0076374Y0157506D02*
X0081886Y0157506D01*
X0081886Y0157108D02*
X0076374Y0157108D01*
X0076374Y0156709D02*
X0081886Y0156709D01*
X0081886Y0156311D02*
X0076374Y0156311D01*
X0076374Y0155912D02*
X0081886Y0155912D01*
X0081886Y0155514D02*
X0076374Y0155514D01*
X0076374Y0155115D02*
X0081886Y0155115D01*
X0081886Y0154717D02*
X0076374Y0154717D01*
X0076374Y0154318D02*
X0083461Y0154318D01*
X0083461Y0154360D02*
X0083461Y0151211D01*
X0076374Y0151211D01*
X0076374Y0161447D01*
X0076365Y0161758D01*
X0076425Y0162064D01*
X0076552Y0162349D01*
X0076739Y0162598D01*
X0076977Y0162800D01*
X0077253Y0162943D01*
X0077555Y0163022D01*
X0080311Y0163022D01*
X0080661Y0162982D01*
X0080994Y0162866D01*
X0081293Y0162678D01*
X0081542Y0162429D01*
X0081730Y0162130D01*
X0081846Y0161797D01*
X0081886Y0161447D01*
X0081886Y0154360D01*
X0083461Y0154360D01*
X0083461Y0153920D02*
X0076374Y0153920D01*
X0076374Y0153521D02*
X0083461Y0153521D01*
X0083461Y0153123D02*
X0076374Y0153123D01*
X0076374Y0152724D02*
X0083461Y0152724D01*
X0083461Y0152326D02*
X0076374Y0152326D01*
X0076374Y0151927D02*
X0083461Y0151927D01*
X0083461Y0151529D02*
X0076374Y0151529D01*
X0076374Y0159499D02*
X0081886Y0159499D01*
X0081886Y0159897D02*
X0076374Y0159897D01*
X0076374Y0160296D02*
X0081886Y0160296D01*
X0081886Y0160694D02*
X0076374Y0160694D01*
X0076374Y0161093D02*
X0081886Y0161093D01*
X0081881Y0161491D02*
X0076373Y0161491D01*
X0076391Y0161890D02*
X0081814Y0161890D01*
X0081630Y0162289D02*
X0076525Y0162289D01*
X0076844Y0162687D02*
X0081279Y0162687D01*
X0060626Y0161841D02*
X0060626Y0151211D01*
X0053539Y0151211D01*
X0053539Y0154360D01*
X0054720Y0154360D01*
X0054720Y0161841D01*
X0054799Y0162142D01*
X0054942Y0162419D01*
X0055144Y0162657D01*
X0055393Y0162844D01*
X0055678Y0162971D01*
X0055984Y0163031D01*
X0056295Y0163022D01*
X0059445Y0163022D01*
X0059708Y0162992D01*
X0059957Y0162905D01*
X0060181Y0162764D01*
X0060368Y0162577D01*
X0060509Y0162353D01*
X0060596Y0162103D01*
X0060626Y0161841D01*
X0060620Y0161890D02*
X0054733Y0161890D01*
X0054720Y0161491D02*
X0060626Y0161491D01*
X0060626Y0161093D02*
X0054720Y0161093D01*
X0054720Y0160694D02*
X0060626Y0160694D01*
X0060626Y0160296D02*
X0054720Y0160296D01*
X0054720Y0159897D02*
X0060626Y0159897D01*
X0060626Y0159499D02*
X0054720Y0159499D01*
X0054720Y0159100D02*
X0060626Y0159100D01*
X0060626Y0158702D02*
X0054720Y0158702D01*
X0054720Y0158303D02*
X0060626Y0158303D01*
X0060626Y0157905D02*
X0054720Y0157905D01*
X0054720Y0157506D02*
X0060626Y0157506D01*
X0060626Y0157108D02*
X0054720Y0157108D01*
X0054720Y0156709D02*
X0060626Y0156709D01*
X0060626Y0156311D02*
X0054720Y0156311D01*
X0054720Y0155912D02*
X0060626Y0155912D01*
X0060626Y0155514D02*
X0054720Y0155514D01*
X0054720Y0155115D02*
X0060626Y0155115D01*
X0060626Y0154717D02*
X0054720Y0154717D01*
X0053539Y0154318D02*
X0060626Y0154318D01*
X0060626Y0153920D02*
X0053539Y0153920D01*
X0053539Y0153521D02*
X0060626Y0153521D01*
X0060626Y0153123D02*
X0053539Y0153123D01*
X0053539Y0152724D02*
X0060626Y0152724D01*
X0060626Y0152326D02*
X0053539Y0152326D01*
X0053539Y0151927D02*
X0060626Y0151927D01*
X0060626Y0151529D02*
X0053539Y0151529D01*
X0054875Y0162289D02*
X0060532Y0162289D01*
X0060258Y0162687D02*
X0055184Y0162687D01*
X0053539Y0293211D02*
X0053539Y0296360D01*
X0054720Y0296360D01*
X0054720Y0303841D01*
X0054799Y0304142D01*
X0054942Y0304419D01*
X0055144Y0304657D01*
X0055393Y0304844D01*
X0055678Y0304971D01*
X0055984Y0305031D01*
X0056295Y0305022D01*
X0059445Y0305022D01*
X0059708Y0304992D01*
X0059957Y0304905D01*
X0060181Y0304764D01*
X0060368Y0304577D01*
X0060509Y0304353D01*
X0060596Y0304103D01*
X0060626Y0303841D01*
X0060626Y0293211D01*
X0053539Y0293211D01*
X0053539Y0293399D02*
X0060626Y0293399D01*
X0060626Y0293797D02*
X0053539Y0293797D01*
X0053539Y0294196D02*
X0060626Y0294196D01*
X0060626Y0294594D02*
X0053539Y0294594D01*
X0053539Y0294993D02*
X0060626Y0294993D01*
X0060626Y0295391D02*
X0053539Y0295391D01*
X0053539Y0295790D02*
X0060626Y0295790D01*
X0060626Y0296188D02*
X0053539Y0296188D01*
X0054720Y0296587D02*
X0060626Y0296587D01*
X0060626Y0296985D02*
X0054720Y0296985D01*
X0054720Y0297384D02*
X0060626Y0297384D01*
X0060626Y0297782D02*
X0054720Y0297782D01*
X0054720Y0298181D02*
X0060626Y0298181D01*
X0060626Y0298579D02*
X0054720Y0298579D01*
X0054720Y0298978D02*
X0060626Y0298978D01*
X0060626Y0299376D02*
X0054720Y0299376D01*
X0054720Y0299775D02*
X0060626Y0299775D01*
X0060626Y0300173D02*
X0054720Y0300173D01*
X0054720Y0300572D02*
X0060626Y0300572D01*
X0060626Y0300970D02*
X0054720Y0300970D01*
X0054720Y0301369D02*
X0060626Y0301369D01*
X0060626Y0301767D02*
X0054720Y0301767D01*
X0054720Y0302166D02*
X0060626Y0302166D01*
X0060626Y0302564D02*
X0054720Y0302564D01*
X0054720Y0302963D02*
X0060626Y0302963D01*
X0060626Y0303362D02*
X0054720Y0303362D01*
X0054720Y0303760D02*
X0060626Y0303760D01*
X0060577Y0304159D02*
X0054807Y0304159D01*
X0055059Y0304557D02*
X0060381Y0304557D01*
X0059812Y0304956D02*
X0055644Y0304956D01*
X0076365Y0303758D02*
X0076374Y0303447D01*
X0076374Y0293211D01*
X0083461Y0293211D01*
X0083461Y0296360D01*
X0081886Y0296360D01*
X0081886Y0303447D01*
X0081846Y0303797D01*
X0081730Y0304130D01*
X0081542Y0304429D01*
X0081293Y0304678D01*
X0080994Y0304866D01*
X0080661Y0304982D01*
X0080311Y0305022D01*
X0077555Y0305022D01*
X0077253Y0304943D01*
X0076977Y0304800D01*
X0076739Y0304598D01*
X0076552Y0304349D01*
X0076425Y0304064D01*
X0076365Y0303758D01*
X0076365Y0303760D02*
X0081851Y0303760D01*
X0081886Y0303362D02*
X0076374Y0303362D01*
X0076374Y0302963D02*
X0081886Y0302963D01*
X0081886Y0302564D02*
X0076374Y0302564D01*
X0076374Y0302166D02*
X0081886Y0302166D01*
X0081886Y0301767D02*
X0076374Y0301767D01*
X0076374Y0301369D02*
X0081886Y0301369D01*
X0081886Y0300970D02*
X0076374Y0300970D01*
X0076374Y0300572D02*
X0081886Y0300572D01*
X0081886Y0300173D02*
X0076374Y0300173D01*
X0076374Y0299775D02*
X0081886Y0299775D01*
X0081886Y0299376D02*
X0076374Y0299376D01*
X0076374Y0298978D02*
X0081886Y0298978D01*
X0081886Y0298579D02*
X0076374Y0298579D01*
X0076374Y0298181D02*
X0081886Y0298181D01*
X0081886Y0297782D02*
X0076374Y0297782D01*
X0076374Y0297384D02*
X0081886Y0297384D01*
X0081886Y0296985D02*
X0076374Y0296985D01*
X0076374Y0296587D02*
X0081886Y0296587D01*
X0083461Y0296188D02*
X0076374Y0296188D01*
X0076374Y0295790D02*
X0083461Y0295790D01*
X0083461Y0295391D02*
X0076374Y0295391D01*
X0076374Y0294993D02*
X0083461Y0294993D01*
X0083461Y0294594D02*
X0076374Y0294594D01*
X0076374Y0294196D02*
X0083461Y0294196D01*
X0083461Y0293797D02*
X0076374Y0293797D01*
X0076374Y0293399D02*
X0083461Y0293399D01*
X0081712Y0304159D02*
X0076467Y0304159D01*
X0076708Y0304557D02*
X0081414Y0304557D01*
X0080738Y0304956D02*
X0077301Y0304956D01*
X0215539Y0296360D02*
X0215539Y0293211D01*
X0222626Y0293211D01*
X0222626Y0303841D01*
X0222596Y0304103D01*
X0222509Y0304353D01*
X0222368Y0304577D01*
X0222181Y0304764D01*
X0221957Y0304905D01*
X0221708Y0304992D01*
X0221445Y0305022D01*
X0218295Y0305022D01*
X0217984Y0305031D01*
X0217678Y0304971D01*
X0217393Y0304844D01*
X0217144Y0304657D01*
X0216942Y0304419D01*
X0216799Y0304142D01*
X0216720Y0303841D01*
X0216720Y0296360D01*
X0215539Y0296360D01*
X0215539Y0296188D02*
X0222626Y0296188D01*
X0222626Y0295790D02*
X0215539Y0295790D01*
X0215539Y0295391D02*
X0222626Y0295391D01*
X0222626Y0294993D02*
X0215539Y0294993D01*
X0215539Y0294594D02*
X0222626Y0294594D01*
X0222626Y0294196D02*
X0215539Y0294196D01*
X0215539Y0293797D02*
X0222626Y0293797D01*
X0222626Y0293399D02*
X0215539Y0293399D01*
X0216720Y0296587D02*
X0222626Y0296587D01*
X0222626Y0296985D02*
X0216720Y0296985D01*
X0216720Y0297384D02*
X0222626Y0297384D01*
X0222626Y0297782D02*
X0216720Y0297782D01*
X0216720Y0298181D02*
X0222626Y0298181D01*
X0222626Y0298579D02*
X0216720Y0298579D01*
X0216720Y0298978D02*
X0222626Y0298978D01*
X0222626Y0299376D02*
X0216720Y0299376D01*
X0216720Y0299775D02*
X0222626Y0299775D01*
X0222626Y0300173D02*
X0216720Y0300173D01*
X0216720Y0300572D02*
X0222626Y0300572D01*
X0222626Y0300970D02*
X0216720Y0300970D01*
X0216720Y0301369D02*
X0222626Y0301369D01*
X0222626Y0301767D02*
X0216720Y0301767D01*
X0216720Y0302166D02*
X0222626Y0302166D01*
X0222626Y0302564D02*
X0216720Y0302564D01*
X0216720Y0302963D02*
X0222626Y0302963D01*
X0222626Y0303362D02*
X0216720Y0303362D01*
X0216720Y0303760D02*
X0222626Y0303760D01*
X0222577Y0304159D02*
X0216807Y0304159D01*
X0217059Y0304557D02*
X0222381Y0304557D01*
X0221812Y0304956D02*
X0217644Y0304956D01*
X0238365Y0303758D02*
X0238374Y0303447D01*
X0238374Y0293211D01*
X0245461Y0293211D01*
X0245461Y0296360D01*
X0243886Y0296360D01*
X0243886Y0303447D01*
X0243846Y0303797D01*
X0243730Y0304130D01*
X0243542Y0304429D01*
X0243293Y0304678D01*
X0242994Y0304866D01*
X0242661Y0304982D01*
X0242311Y0305022D01*
X0239555Y0305022D01*
X0239253Y0304943D01*
X0238977Y0304800D01*
X0238739Y0304598D01*
X0238552Y0304349D01*
X0238425Y0304064D01*
X0238365Y0303758D01*
X0238365Y0303760D02*
X0243851Y0303760D01*
X0243886Y0303362D02*
X0238374Y0303362D01*
X0238374Y0302963D02*
X0243886Y0302963D01*
X0243886Y0302564D02*
X0238374Y0302564D01*
X0238374Y0302166D02*
X0243886Y0302166D01*
X0243886Y0301767D02*
X0238374Y0301767D01*
X0238374Y0301369D02*
X0243886Y0301369D01*
X0243886Y0300970D02*
X0238374Y0300970D01*
X0238374Y0300572D02*
X0243886Y0300572D01*
X0243886Y0300173D02*
X0238374Y0300173D01*
X0238374Y0299775D02*
X0243886Y0299775D01*
X0243886Y0299376D02*
X0238374Y0299376D01*
X0238374Y0298978D02*
X0243886Y0298978D01*
X0243886Y0298579D02*
X0238374Y0298579D01*
X0238374Y0298181D02*
X0243886Y0298181D01*
X0243886Y0297782D02*
X0238374Y0297782D01*
X0238374Y0297384D02*
X0243886Y0297384D01*
X0243886Y0296985D02*
X0238374Y0296985D01*
X0238374Y0296587D02*
X0243886Y0296587D01*
X0245461Y0296188D02*
X0238374Y0296188D01*
X0238374Y0295790D02*
X0245461Y0295790D01*
X0245461Y0295391D02*
X0238374Y0295391D01*
X0238374Y0294993D02*
X0245461Y0294993D01*
X0245461Y0294594D02*
X0238374Y0294594D01*
X0238374Y0294196D02*
X0245461Y0294196D01*
X0245461Y0293797D02*
X0238374Y0293797D01*
X0238374Y0293399D02*
X0245461Y0293399D01*
X0243712Y0304159D02*
X0238467Y0304159D01*
X0238708Y0304557D02*
X0243414Y0304557D01*
X0242737Y0304956D02*
X0239301Y0304956D01*
X0239555Y0163022D02*
X0242311Y0163022D01*
X0242661Y0162982D01*
X0242994Y0162866D01*
X0243293Y0162678D01*
X0243542Y0162429D01*
X0243730Y0162130D01*
X0243846Y0161797D01*
X0243886Y0161447D01*
X0243886Y0154360D01*
X0245461Y0154360D01*
X0245461Y0151211D01*
X0238374Y0151211D01*
X0238374Y0161447D01*
X0238365Y0161758D01*
X0238425Y0162064D01*
X0238552Y0162349D01*
X0238739Y0162598D01*
X0238977Y0162800D01*
X0239253Y0162943D01*
X0239555Y0163022D01*
X0238844Y0162687D02*
X0243279Y0162687D01*
X0243630Y0162289D02*
X0238525Y0162289D01*
X0238391Y0161890D02*
X0243814Y0161890D01*
X0243881Y0161491D02*
X0238373Y0161491D01*
X0238374Y0161093D02*
X0243886Y0161093D01*
X0243886Y0160694D02*
X0238374Y0160694D01*
X0238374Y0160296D02*
X0243886Y0160296D01*
X0243886Y0159897D02*
X0238374Y0159897D01*
X0238374Y0159499D02*
X0243886Y0159499D01*
X0243886Y0159100D02*
X0238374Y0159100D01*
X0238374Y0158702D02*
X0243886Y0158702D01*
X0243886Y0158303D02*
X0238374Y0158303D01*
X0238374Y0157905D02*
X0243886Y0157905D01*
X0243886Y0157506D02*
X0238374Y0157506D01*
X0238374Y0157108D02*
X0243886Y0157108D01*
X0243886Y0156709D02*
X0238374Y0156709D01*
X0238374Y0156311D02*
X0243886Y0156311D01*
X0243886Y0155912D02*
X0238374Y0155912D01*
X0238374Y0155514D02*
X0243886Y0155514D01*
X0243886Y0155115D02*
X0238374Y0155115D01*
X0238374Y0154717D02*
X0243886Y0154717D01*
X0245461Y0154318D02*
X0238374Y0154318D01*
X0238374Y0153920D02*
X0245461Y0153920D01*
X0245461Y0153521D02*
X0238374Y0153521D01*
X0238374Y0153123D02*
X0245461Y0153123D01*
X0245461Y0152724D02*
X0238374Y0152724D01*
X0238374Y0152326D02*
X0245461Y0152326D01*
X0245461Y0151927D02*
X0238374Y0151927D01*
X0238374Y0151529D02*
X0245461Y0151529D01*
X0222626Y0151529D02*
X0215539Y0151529D01*
X0215539Y0151211D02*
X0215539Y0154360D01*
X0216720Y0154360D01*
X0216720Y0161841D01*
X0216799Y0162142D01*
X0216942Y0162419D01*
X0217144Y0162657D01*
X0217393Y0162844D01*
X0217678Y0162971D01*
X0217984Y0163031D01*
X0218295Y0163022D01*
X0221445Y0163022D01*
X0221708Y0162992D01*
X0221957Y0162905D01*
X0222181Y0162764D01*
X0222368Y0162577D01*
X0222509Y0162353D01*
X0222596Y0162103D01*
X0222626Y0161841D01*
X0222626Y0151211D01*
X0215539Y0151211D01*
X0215539Y0151927D02*
X0222626Y0151927D01*
X0222626Y0152326D02*
X0215539Y0152326D01*
X0215539Y0152724D02*
X0222626Y0152724D01*
X0222626Y0153123D02*
X0215539Y0153123D01*
X0215539Y0153521D02*
X0222626Y0153521D01*
X0222626Y0153920D02*
X0215539Y0153920D01*
X0215539Y0154318D02*
X0222626Y0154318D01*
X0222626Y0154717D02*
X0216720Y0154717D01*
X0216720Y0155115D02*
X0222626Y0155115D01*
X0222626Y0155514D02*
X0216720Y0155514D01*
X0216720Y0155912D02*
X0222626Y0155912D01*
X0222626Y0156311D02*
X0216720Y0156311D01*
X0216720Y0156709D02*
X0222626Y0156709D01*
X0222626Y0157108D02*
X0216720Y0157108D01*
X0216720Y0157506D02*
X0222626Y0157506D01*
X0222626Y0157905D02*
X0216720Y0157905D01*
X0216720Y0158303D02*
X0222626Y0158303D01*
X0222626Y0158702D02*
X0216720Y0158702D01*
X0216720Y0159100D02*
X0222626Y0159100D01*
X0222626Y0159499D02*
X0216720Y0159499D01*
X0216720Y0159897D02*
X0222626Y0159897D01*
X0222626Y0160296D02*
X0216720Y0160296D01*
X0216720Y0160694D02*
X0222626Y0160694D01*
X0222626Y0161093D02*
X0216720Y0161093D01*
X0216720Y0161491D02*
X0222626Y0161491D01*
X0222620Y0161890D02*
X0216733Y0161890D01*
X0216875Y0162289D02*
X0222532Y0162289D01*
X0222258Y0162687D02*
X0217184Y0162687D01*
D27*
X0158500Y0132163D03*
X0158500Y0121337D03*
X0158500Y0263337D03*
X0158500Y0274163D03*
X0320500Y0274163D03*
X0320500Y0263337D03*
X0320500Y0132163D03*
X0320500Y0121337D03*
D28*
X0314496Y0126750D03*
X0326504Y0126750D03*
X0326504Y0268750D03*
X0314496Y0268750D03*
X0164504Y0268750D03*
X0152496Y0268750D03*
X0152496Y0126750D03*
X0164504Y0126750D03*
D29*
X0102240Y0146131D03*
X0094760Y0146131D03*
X0094760Y0156369D03*
X0098500Y0156369D03*
X0102240Y0156369D03*
X0102240Y0288131D03*
X0094760Y0288131D03*
X0094760Y0298369D03*
X0098500Y0298369D03*
X0102240Y0298369D03*
X0256760Y0298369D03*
X0260500Y0298369D03*
X0264240Y0298369D03*
X0264240Y0288131D03*
X0256760Y0288131D03*
X0256760Y0156369D03*
X0260500Y0156369D03*
X0264240Y0156369D03*
X0264240Y0146131D03*
X0256760Y0146131D03*
D30*
X0232469Y0139344D03*
X0232469Y0281344D03*
X0070469Y0281344D03*
X0070469Y0139344D03*
D31*
X0068500Y0139443D03*
X0066531Y0139443D03*
X0066531Y0136057D03*
X0068500Y0136057D03*
X0070469Y0136057D03*
X0070469Y0278057D03*
X0068500Y0278057D03*
X0066531Y0278057D03*
X0066531Y0281443D03*
X0068500Y0281443D03*
X0228531Y0281443D03*
X0230500Y0281443D03*
X0230500Y0278057D03*
X0228531Y0278057D03*
X0232469Y0278057D03*
X0230500Y0139443D03*
X0228531Y0139443D03*
X0228531Y0136057D03*
X0230500Y0136057D03*
X0232469Y0136057D03*
D32*
X0323500Y0329000D03*
X0055500Y0329000D03*
D33*
X0051935Y0020500D02*
X0051937Y0020619D01*
X0051943Y0020738D01*
X0051953Y0020857D01*
X0051967Y0020975D01*
X0051985Y0021093D01*
X0052006Y0021210D01*
X0052032Y0021326D01*
X0052062Y0021442D01*
X0052095Y0021556D01*
X0052132Y0021669D01*
X0052173Y0021781D01*
X0052218Y0021892D01*
X0052266Y0022001D01*
X0052318Y0022108D01*
X0052374Y0022213D01*
X0052433Y0022317D01*
X0052495Y0022418D01*
X0052561Y0022518D01*
X0052630Y0022615D01*
X0052702Y0022709D01*
X0052778Y0022802D01*
X0052856Y0022891D01*
X0052937Y0022978D01*
X0053022Y0023063D01*
X0053109Y0023144D01*
X0053198Y0023222D01*
X0053291Y0023298D01*
X0053385Y0023370D01*
X0053482Y0023439D01*
X0053582Y0023505D01*
X0053683Y0023567D01*
X0053787Y0023626D01*
X0053892Y0023682D01*
X0053999Y0023734D01*
X0054108Y0023782D01*
X0054219Y0023827D01*
X0054331Y0023868D01*
X0054444Y0023905D01*
X0054558Y0023938D01*
X0054674Y0023968D01*
X0054790Y0023994D01*
X0054907Y0024015D01*
X0055025Y0024033D01*
X0055143Y0024047D01*
X0055262Y0024057D01*
X0055381Y0024063D01*
X0055500Y0024065D01*
X0055619Y0024063D01*
X0055738Y0024057D01*
X0055857Y0024047D01*
X0055975Y0024033D01*
X0056093Y0024015D01*
X0056210Y0023994D01*
X0056326Y0023968D01*
X0056442Y0023938D01*
X0056556Y0023905D01*
X0056669Y0023868D01*
X0056781Y0023827D01*
X0056892Y0023782D01*
X0057001Y0023734D01*
X0057108Y0023682D01*
X0057213Y0023626D01*
X0057317Y0023567D01*
X0057418Y0023505D01*
X0057518Y0023439D01*
X0057615Y0023370D01*
X0057709Y0023298D01*
X0057802Y0023222D01*
X0057891Y0023144D01*
X0057978Y0023063D01*
X0058063Y0022978D01*
X0058144Y0022891D01*
X0058222Y0022802D01*
X0058298Y0022709D01*
X0058370Y0022615D01*
X0058439Y0022518D01*
X0058505Y0022418D01*
X0058567Y0022317D01*
X0058626Y0022213D01*
X0058682Y0022108D01*
X0058734Y0022001D01*
X0058782Y0021892D01*
X0058827Y0021781D01*
X0058868Y0021669D01*
X0058905Y0021556D01*
X0058938Y0021442D01*
X0058968Y0021326D01*
X0058994Y0021210D01*
X0059015Y0021093D01*
X0059033Y0020975D01*
X0059047Y0020857D01*
X0059057Y0020738D01*
X0059063Y0020619D01*
X0059065Y0020500D01*
X0059063Y0020381D01*
X0059057Y0020262D01*
X0059047Y0020143D01*
X0059033Y0020025D01*
X0059015Y0019907D01*
X0058994Y0019790D01*
X0058968Y0019674D01*
X0058938Y0019558D01*
X0058905Y0019444D01*
X0058868Y0019331D01*
X0058827Y0019219D01*
X0058782Y0019108D01*
X0058734Y0018999D01*
X0058682Y0018892D01*
X0058626Y0018787D01*
X0058567Y0018683D01*
X0058505Y0018582D01*
X0058439Y0018482D01*
X0058370Y0018385D01*
X0058298Y0018291D01*
X0058222Y0018198D01*
X0058144Y0018109D01*
X0058063Y0018022D01*
X0057978Y0017937D01*
X0057891Y0017856D01*
X0057802Y0017778D01*
X0057709Y0017702D01*
X0057615Y0017630D01*
X0057518Y0017561D01*
X0057418Y0017495D01*
X0057317Y0017433D01*
X0057213Y0017374D01*
X0057108Y0017318D01*
X0057001Y0017266D01*
X0056892Y0017218D01*
X0056781Y0017173D01*
X0056669Y0017132D01*
X0056556Y0017095D01*
X0056442Y0017062D01*
X0056326Y0017032D01*
X0056210Y0017006D01*
X0056093Y0016985D01*
X0055975Y0016967D01*
X0055857Y0016953D01*
X0055738Y0016943D01*
X0055619Y0016937D01*
X0055500Y0016935D01*
X0055381Y0016937D01*
X0055262Y0016943D01*
X0055143Y0016953D01*
X0055025Y0016967D01*
X0054907Y0016985D01*
X0054790Y0017006D01*
X0054674Y0017032D01*
X0054558Y0017062D01*
X0054444Y0017095D01*
X0054331Y0017132D01*
X0054219Y0017173D01*
X0054108Y0017218D01*
X0053999Y0017266D01*
X0053892Y0017318D01*
X0053787Y0017374D01*
X0053683Y0017433D01*
X0053582Y0017495D01*
X0053482Y0017561D01*
X0053385Y0017630D01*
X0053291Y0017702D01*
X0053198Y0017778D01*
X0053109Y0017856D01*
X0053022Y0017937D01*
X0052937Y0018022D01*
X0052856Y0018109D01*
X0052778Y0018198D01*
X0052702Y0018291D01*
X0052630Y0018385D01*
X0052561Y0018482D01*
X0052495Y0018582D01*
X0052433Y0018683D01*
X0052374Y0018787D01*
X0052318Y0018892D01*
X0052266Y0018999D01*
X0052218Y0019108D01*
X0052173Y0019219D01*
X0052132Y0019331D01*
X0052095Y0019444D01*
X0052062Y0019558D01*
X0052032Y0019674D01*
X0052006Y0019790D01*
X0051985Y0019907D01*
X0051967Y0020025D01*
X0051953Y0020143D01*
X0051943Y0020262D01*
X0051937Y0020381D01*
X0051935Y0020500D01*
D34*
X0055500Y0020500D03*
M02*
