G75*
%MOIN*%
%OFA0B0*%
%FSLAX25Y25*%
%IPPOS*%
%LPD*%
%AMOC8*
5,1,8,0,0,1.08239X$1,22.5*
%
%ADD10R,0.07874X0.04724*%
%ADD11R,0.05315X0.02362*%
%ADD12R,0.04331X0.03937*%
%ADD13R,0.03937X0.04331*%
%ADD14C,0.01181*%
%ADD15R,0.02480X0.03268*%
%ADD16R,0.04724X0.03150*%
%ADD17R,0.03543X0.02362*%
%ADD18R,0.07874X0.05748*%
%ADD19R,0.05610X0.09843*%
%ADD20C,0.00400*%
%ADD21C,0.00197*%
%ADD22R,0.08661X0.03346*%
%ADD23R,0.04134X0.03937*%
%ADD24R,0.04724X0.02165*%
%ADD25R,0.16535X0.06693*%
%ADD26R,0.00984X0.02402*%
%ADD27R,0.00984X0.02205*%
D10*
X0048873Y0092726D03*
X0048873Y0114774D03*
X0048873Y0234726D03*
X0048873Y0256774D03*
X0048873Y0376726D03*
X0048873Y0398774D03*
X0197810Y0398774D03*
X0210873Y0398774D03*
X0210873Y0376726D03*
X0197810Y0376726D03*
X0197810Y0256774D03*
X0210873Y0256774D03*
X0210873Y0234726D03*
X0197810Y0234726D03*
X0197810Y0114774D03*
X0210873Y0114774D03*
X0210873Y0092726D03*
X0197810Y0092726D03*
X0359810Y0092726D03*
X0359810Y0114774D03*
X0359810Y0234726D03*
X0359810Y0256774D03*
X0359810Y0376726D03*
X0359810Y0398774D03*
D11*
X0345342Y0393656D03*
X0345342Y0389719D03*
X0345342Y0385781D03*
X0345342Y0381844D03*
X0345342Y0251656D03*
X0345342Y0247719D03*
X0345342Y0243781D03*
X0345342Y0239844D03*
X0345342Y0109656D03*
X0345342Y0105719D03*
X0345342Y0101781D03*
X0345342Y0097844D03*
X0225342Y0097844D03*
X0225342Y0101781D03*
X0225342Y0105719D03*
X0225342Y0109656D03*
X0183342Y0109656D03*
X0183342Y0105719D03*
X0183342Y0101781D03*
X0183342Y0097844D03*
X0183342Y0239844D03*
X0183342Y0243781D03*
X0183342Y0247719D03*
X0183342Y0251656D03*
X0225342Y0251656D03*
X0225342Y0247719D03*
X0225342Y0243781D03*
X0225342Y0239844D03*
X0225342Y0381844D03*
X0225342Y0385781D03*
X0225342Y0389719D03*
X0225342Y0393656D03*
X0183342Y0393656D03*
X0183342Y0389719D03*
X0183342Y0385781D03*
X0183342Y0381844D03*
X0063342Y0381844D03*
X0063342Y0385781D03*
X0063342Y0389719D03*
X0063342Y0393656D03*
X0063342Y0251656D03*
X0063342Y0247719D03*
X0063342Y0243781D03*
X0063342Y0239844D03*
X0063342Y0109656D03*
X0063342Y0105719D03*
X0063342Y0101781D03*
X0063342Y0097844D03*
D12*
X0079995Y0096750D03*
X0079995Y0090750D03*
X0079995Y0084750D03*
X0079995Y0078750D03*
X0086688Y0078750D03*
X0086688Y0084750D03*
X0086688Y0090750D03*
X0086688Y0096750D03*
X0086688Y0102750D03*
X0086688Y0108750D03*
X0079995Y0108750D03*
X0079995Y0102750D03*
X0099995Y0066250D03*
X0106688Y0066250D03*
X0155995Y0112250D03*
X0162688Y0112250D03*
X0168995Y0112250D03*
X0175688Y0112250D03*
X0189995Y0087250D03*
X0189995Y0081250D03*
X0196688Y0081250D03*
X0196688Y0087250D03*
X0196688Y0073750D03*
X0189995Y0073750D03*
X0189995Y0066250D03*
X0196688Y0066250D03*
X0241995Y0078750D03*
X0241995Y0084750D03*
X0241995Y0090750D03*
X0241995Y0096750D03*
X0241995Y0102750D03*
X0241995Y0108750D03*
X0248688Y0108750D03*
X0248688Y0102750D03*
X0248688Y0096750D03*
X0248688Y0090750D03*
X0248688Y0084750D03*
X0248688Y0078750D03*
X0261995Y0066250D03*
X0268688Y0066250D03*
X0317995Y0112250D03*
X0324688Y0112250D03*
X0330995Y0112250D03*
X0337688Y0112250D03*
X0351995Y0087250D03*
X0351995Y0081250D03*
X0358688Y0081250D03*
X0358688Y0087250D03*
X0358688Y0073750D03*
X0358688Y0066250D03*
X0351995Y0066250D03*
X0351995Y0073750D03*
X0351995Y0208250D03*
X0351995Y0215750D03*
X0358688Y0215750D03*
X0358688Y0208250D03*
X0358688Y0223250D03*
X0358688Y0229250D03*
X0351995Y0229250D03*
X0351995Y0223250D03*
X0337688Y0254250D03*
X0330995Y0254250D03*
X0324688Y0254250D03*
X0317995Y0254250D03*
X0268688Y0208250D03*
X0261995Y0208250D03*
X0248688Y0220750D03*
X0248688Y0226750D03*
X0248688Y0232750D03*
X0248688Y0238750D03*
X0248688Y0244750D03*
X0248688Y0250750D03*
X0241995Y0250750D03*
X0241995Y0244750D03*
X0241995Y0238750D03*
X0241995Y0232750D03*
X0241995Y0226750D03*
X0241995Y0220750D03*
X0196688Y0223250D03*
X0196688Y0229250D03*
X0189995Y0229250D03*
X0189995Y0223250D03*
X0189995Y0215750D03*
X0196688Y0215750D03*
X0196688Y0208250D03*
X0189995Y0208250D03*
X0175688Y0254250D03*
X0168995Y0254250D03*
X0162688Y0254250D03*
X0155995Y0254250D03*
X0106688Y0208250D03*
X0099995Y0208250D03*
X0086688Y0220750D03*
X0086688Y0226750D03*
X0086688Y0232750D03*
X0086688Y0238750D03*
X0086688Y0244750D03*
X0086688Y0250750D03*
X0079995Y0250750D03*
X0079995Y0244750D03*
X0079995Y0238750D03*
X0079995Y0232750D03*
X0079995Y0226750D03*
X0079995Y0220750D03*
X0099995Y0350250D03*
X0106688Y0350250D03*
X0086688Y0362750D03*
X0086688Y0368750D03*
X0086688Y0374750D03*
X0086688Y0380750D03*
X0086688Y0386750D03*
X0086688Y0392750D03*
X0079995Y0392750D03*
X0079995Y0386750D03*
X0079995Y0380750D03*
X0079995Y0374750D03*
X0079995Y0368750D03*
X0079995Y0362750D03*
X0155995Y0396250D03*
X0162688Y0396250D03*
X0168995Y0396250D03*
X0175688Y0396250D03*
X0189995Y0371250D03*
X0189995Y0365250D03*
X0196688Y0365250D03*
X0196688Y0371250D03*
X0196688Y0357750D03*
X0189995Y0357750D03*
X0189995Y0350250D03*
X0196688Y0350250D03*
X0241995Y0362750D03*
X0241995Y0368750D03*
X0241995Y0374750D03*
X0241995Y0380750D03*
X0241995Y0386750D03*
X0241995Y0392750D03*
X0248688Y0392750D03*
X0248688Y0386750D03*
X0248688Y0380750D03*
X0248688Y0374750D03*
X0248688Y0368750D03*
X0248688Y0362750D03*
X0261995Y0350250D03*
X0268688Y0350250D03*
X0317995Y0396250D03*
X0324688Y0396250D03*
X0330995Y0396250D03*
X0337688Y0396250D03*
X0351995Y0371250D03*
X0351995Y0365250D03*
X0351995Y0357750D03*
X0358688Y0357750D03*
X0358688Y0365250D03*
X0358688Y0371250D03*
X0358688Y0350250D03*
X0351995Y0350250D03*
D13*
X0337842Y0382904D03*
X0337842Y0389596D03*
X0316842Y0389596D03*
X0316842Y0382904D03*
X0317842Y0402404D03*
X0317842Y0409096D03*
X0270342Y0434404D03*
X0270342Y0441096D03*
X0250342Y0416096D03*
X0250342Y0409404D03*
X0242842Y0409404D03*
X0242842Y0416096D03*
X0235342Y0416096D03*
X0235342Y0409404D03*
X0215342Y0409404D03*
X0215342Y0416096D03*
X0175842Y0389596D03*
X0175842Y0382904D03*
X0154842Y0382904D03*
X0154842Y0389596D03*
X0155842Y0402404D03*
X0155842Y0409096D03*
X0108342Y0434404D03*
X0108342Y0441096D03*
X0088342Y0416096D03*
X0088342Y0409404D03*
X0080842Y0409404D03*
X0080842Y0416096D03*
X0073342Y0416096D03*
X0073342Y0409404D03*
X0053342Y0409404D03*
X0053342Y0416096D03*
X0108342Y0299096D03*
X0108342Y0292404D03*
X0088342Y0274096D03*
X0088342Y0267404D03*
X0080842Y0267404D03*
X0080842Y0274096D03*
X0073342Y0274096D03*
X0073342Y0267404D03*
X0053342Y0267404D03*
X0053342Y0274096D03*
X0108342Y0157096D03*
X0108342Y0150404D03*
X0088342Y0132096D03*
X0088342Y0125404D03*
X0080842Y0125404D03*
X0080842Y0132096D03*
X0073342Y0132096D03*
X0073342Y0125404D03*
X0053342Y0125404D03*
X0053342Y0132096D03*
X0155842Y0125096D03*
X0155842Y0118404D03*
X0154842Y0105596D03*
X0154842Y0098904D03*
X0175842Y0098904D03*
X0175842Y0105596D03*
X0215342Y0125404D03*
X0215342Y0132096D03*
X0235342Y0132096D03*
X0235342Y0125404D03*
X0242842Y0125404D03*
X0242842Y0132096D03*
X0250342Y0132096D03*
X0250342Y0125404D03*
X0270342Y0150404D03*
X0270342Y0157096D03*
X0317842Y0125096D03*
X0317842Y0118404D03*
X0316842Y0105596D03*
X0316842Y0098904D03*
X0337842Y0098904D03*
X0337842Y0105596D03*
X0337842Y0240904D03*
X0337842Y0247596D03*
X0316842Y0247596D03*
X0316842Y0240904D03*
X0317842Y0260404D03*
X0317842Y0267096D03*
X0270342Y0292404D03*
X0270342Y0299096D03*
X0250342Y0274096D03*
X0250342Y0267404D03*
X0242842Y0267404D03*
X0242842Y0274096D03*
X0235342Y0274096D03*
X0235342Y0267404D03*
X0215342Y0267404D03*
X0215342Y0274096D03*
X0175842Y0247596D03*
X0175842Y0240904D03*
X0154842Y0240904D03*
X0154842Y0247596D03*
X0155842Y0260404D03*
X0155842Y0267096D03*
D14*
X0176267Y0232128D02*
X0176267Y0229372D01*
X0173511Y0229372D01*
X0173511Y0232128D01*
X0176267Y0232128D01*
X0176267Y0230494D02*
X0173511Y0230494D01*
X0173511Y0231616D02*
X0176267Y0231616D01*
X0176267Y0224628D02*
X0176267Y0221872D01*
X0173511Y0221872D01*
X0173511Y0224628D01*
X0176267Y0224628D01*
X0176267Y0222994D02*
X0173511Y0222994D01*
X0173511Y0224116D02*
X0176267Y0224116D01*
X0183173Y0224628D02*
X0183173Y0221872D01*
X0180417Y0221872D01*
X0180417Y0224628D01*
X0183173Y0224628D01*
X0183173Y0222994D02*
X0180417Y0222994D01*
X0180417Y0224116D02*
X0183173Y0224116D01*
X0183173Y0229372D02*
X0183173Y0232128D01*
X0183173Y0229372D02*
X0180417Y0229372D01*
X0180417Y0232128D01*
X0183173Y0232128D01*
X0183173Y0230494D02*
X0180417Y0230494D01*
X0180417Y0231616D02*
X0183173Y0231616D01*
X0183173Y0217128D02*
X0183173Y0214372D01*
X0180417Y0214372D01*
X0180417Y0217128D01*
X0183173Y0217128D01*
X0183173Y0215494D02*
X0180417Y0215494D01*
X0180417Y0216616D02*
X0183173Y0216616D01*
X0183173Y0209628D02*
X0183173Y0206872D01*
X0180417Y0206872D01*
X0180417Y0209628D01*
X0183173Y0209628D01*
X0183173Y0207994D02*
X0180417Y0207994D01*
X0180417Y0209116D02*
X0183173Y0209116D01*
X0176267Y0209628D02*
X0176267Y0206872D01*
X0173511Y0206872D01*
X0173511Y0209628D01*
X0176267Y0209628D01*
X0176267Y0207994D02*
X0173511Y0207994D01*
X0173511Y0209116D02*
X0176267Y0209116D01*
X0176267Y0214372D02*
X0176267Y0217128D01*
X0176267Y0214372D02*
X0173511Y0214372D01*
X0173511Y0217128D01*
X0176267Y0217128D01*
X0176267Y0215494D02*
X0173511Y0215494D01*
X0173511Y0216616D02*
X0176267Y0216616D01*
X0176267Y0090128D02*
X0176267Y0087372D01*
X0173511Y0087372D01*
X0173511Y0090128D01*
X0176267Y0090128D01*
X0176267Y0088494D02*
X0173511Y0088494D01*
X0173511Y0089616D02*
X0176267Y0089616D01*
X0176267Y0082628D02*
X0176267Y0079872D01*
X0173511Y0079872D01*
X0173511Y0082628D01*
X0176267Y0082628D01*
X0176267Y0080994D02*
X0173511Y0080994D01*
X0173511Y0082116D02*
X0176267Y0082116D01*
X0183173Y0082628D02*
X0183173Y0079872D01*
X0180417Y0079872D01*
X0180417Y0082628D01*
X0183173Y0082628D01*
X0183173Y0080994D02*
X0180417Y0080994D01*
X0180417Y0082116D02*
X0183173Y0082116D01*
X0183173Y0087372D02*
X0183173Y0090128D01*
X0183173Y0087372D02*
X0180417Y0087372D01*
X0180417Y0090128D01*
X0183173Y0090128D01*
X0183173Y0088494D02*
X0180417Y0088494D01*
X0180417Y0089616D02*
X0183173Y0089616D01*
X0183173Y0075128D02*
X0183173Y0072372D01*
X0180417Y0072372D01*
X0180417Y0075128D01*
X0183173Y0075128D01*
X0183173Y0073494D02*
X0180417Y0073494D01*
X0180417Y0074616D02*
X0183173Y0074616D01*
X0176267Y0075128D02*
X0176267Y0072372D01*
X0173511Y0072372D01*
X0173511Y0075128D01*
X0176267Y0075128D01*
X0176267Y0073494D02*
X0173511Y0073494D01*
X0173511Y0074616D02*
X0176267Y0074616D01*
X0176267Y0067628D02*
X0176267Y0064872D01*
X0173511Y0064872D01*
X0173511Y0067628D01*
X0176267Y0067628D01*
X0176267Y0065994D02*
X0173511Y0065994D01*
X0173511Y0067116D02*
X0176267Y0067116D01*
X0183173Y0067628D02*
X0183173Y0064872D01*
X0180417Y0064872D01*
X0180417Y0067628D01*
X0183173Y0067628D01*
X0183173Y0065994D02*
X0180417Y0065994D01*
X0180417Y0067116D02*
X0183173Y0067116D01*
X0338267Y0067628D02*
X0338267Y0064872D01*
X0335511Y0064872D01*
X0335511Y0067628D01*
X0338267Y0067628D01*
X0338267Y0065994D02*
X0335511Y0065994D01*
X0335511Y0067116D02*
X0338267Y0067116D01*
X0338267Y0072372D02*
X0338267Y0075128D01*
X0338267Y0072372D02*
X0335511Y0072372D01*
X0335511Y0075128D01*
X0338267Y0075128D01*
X0338267Y0073494D02*
X0335511Y0073494D01*
X0335511Y0074616D02*
X0338267Y0074616D01*
X0338267Y0079872D02*
X0338267Y0082628D01*
X0338267Y0079872D02*
X0335511Y0079872D01*
X0335511Y0082628D01*
X0338267Y0082628D01*
X0338267Y0080994D02*
X0335511Y0080994D01*
X0335511Y0082116D02*
X0338267Y0082116D01*
X0338267Y0087372D02*
X0338267Y0090128D01*
X0338267Y0087372D02*
X0335511Y0087372D01*
X0335511Y0090128D01*
X0338267Y0090128D01*
X0338267Y0088494D02*
X0335511Y0088494D01*
X0335511Y0089616D02*
X0338267Y0089616D01*
X0345173Y0090128D02*
X0345173Y0087372D01*
X0342417Y0087372D01*
X0342417Y0090128D01*
X0345173Y0090128D01*
X0345173Y0088494D02*
X0342417Y0088494D01*
X0342417Y0089616D02*
X0345173Y0089616D01*
X0345173Y0082628D02*
X0345173Y0079872D01*
X0342417Y0079872D01*
X0342417Y0082628D01*
X0345173Y0082628D01*
X0345173Y0080994D02*
X0342417Y0080994D01*
X0342417Y0082116D02*
X0345173Y0082116D01*
X0345173Y0075128D02*
X0345173Y0072372D01*
X0342417Y0072372D01*
X0342417Y0075128D01*
X0345173Y0075128D01*
X0345173Y0073494D02*
X0342417Y0073494D01*
X0342417Y0074616D02*
X0345173Y0074616D01*
X0345173Y0067628D02*
X0345173Y0064872D01*
X0342417Y0064872D01*
X0342417Y0067628D01*
X0345173Y0067628D01*
X0345173Y0065994D02*
X0342417Y0065994D01*
X0342417Y0067116D02*
X0345173Y0067116D01*
X0345173Y0206872D02*
X0345173Y0209628D01*
X0345173Y0206872D02*
X0342417Y0206872D01*
X0342417Y0209628D01*
X0345173Y0209628D01*
X0345173Y0207994D02*
X0342417Y0207994D01*
X0342417Y0209116D02*
X0345173Y0209116D01*
X0345173Y0214372D02*
X0345173Y0217128D01*
X0345173Y0214372D02*
X0342417Y0214372D01*
X0342417Y0217128D01*
X0345173Y0217128D01*
X0345173Y0215494D02*
X0342417Y0215494D01*
X0342417Y0216616D02*
X0345173Y0216616D01*
X0345173Y0221872D02*
X0345173Y0224628D01*
X0345173Y0221872D02*
X0342417Y0221872D01*
X0342417Y0224628D01*
X0345173Y0224628D01*
X0345173Y0222994D02*
X0342417Y0222994D01*
X0342417Y0224116D02*
X0345173Y0224116D01*
X0345173Y0229372D02*
X0345173Y0232128D01*
X0345173Y0229372D02*
X0342417Y0229372D01*
X0342417Y0232128D01*
X0345173Y0232128D01*
X0345173Y0230494D02*
X0342417Y0230494D01*
X0342417Y0231616D02*
X0345173Y0231616D01*
X0338267Y0232128D02*
X0338267Y0229372D01*
X0335511Y0229372D01*
X0335511Y0232128D01*
X0338267Y0232128D01*
X0338267Y0230494D02*
X0335511Y0230494D01*
X0335511Y0231616D02*
X0338267Y0231616D01*
X0338267Y0224628D02*
X0338267Y0221872D01*
X0335511Y0221872D01*
X0335511Y0224628D01*
X0338267Y0224628D01*
X0338267Y0222994D02*
X0335511Y0222994D01*
X0335511Y0224116D02*
X0338267Y0224116D01*
X0338267Y0217128D02*
X0338267Y0214372D01*
X0335511Y0214372D01*
X0335511Y0217128D01*
X0338267Y0217128D01*
X0338267Y0215494D02*
X0335511Y0215494D01*
X0335511Y0216616D02*
X0338267Y0216616D01*
X0338267Y0209628D02*
X0338267Y0206872D01*
X0335511Y0206872D01*
X0335511Y0209628D01*
X0338267Y0209628D01*
X0338267Y0207994D02*
X0335511Y0207994D01*
X0335511Y0209116D02*
X0338267Y0209116D01*
X0338267Y0348872D02*
X0338267Y0351628D01*
X0338267Y0348872D02*
X0335511Y0348872D01*
X0335511Y0351628D01*
X0338267Y0351628D01*
X0338267Y0349994D02*
X0335511Y0349994D01*
X0335511Y0351116D02*
X0338267Y0351116D01*
X0338267Y0356372D02*
X0338267Y0359128D01*
X0338267Y0356372D02*
X0335511Y0356372D01*
X0335511Y0359128D01*
X0338267Y0359128D01*
X0338267Y0357494D02*
X0335511Y0357494D01*
X0335511Y0358616D02*
X0338267Y0358616D01*
X0338267Y0363872D02*
X0338267Y0366628D01*
X0338267Y0363872D02*
X0335511Y0363872D01*
X0335511Y0366628D01*
X0338267Y0366628D01*
X0338267Y0364994D02*
X0335511Y0364994D01*
X0335511Y0366116D02*
X0338267Y0366116D01*
X0345173Y0366628D02*
X0345173Y0363872D01*
X0342417Y0363872D01*
X0342417Y0366628D01*
X0345173Y0366628D01*
X0345173Y0364994D02*
X0342417Y0364994D01*
X0342417Y0366116D02*
X0345173Y0366116D01*
X0345173Y0359128D02*
X0345173Y0356372D01*
X0342417Y0356372D01*
X0342417Y0359128D01*
X0345173Y0359128D01*
X0345173Y0357494D02*
X0342417Y0357494D01*
X0342417Y0358616D02*
X0345173Y0358616D01*
X0345173Y0351628D02*
X0345173Y0348872D01*
X0342417Y0348872D01*
X0342417Y0351628D01*
X0345173Y0351628D01*
X0345173Y0349994D02*
X0342417Y0349994D01*
X0342417Y0351116D02*
X0345173Y0351116D01*
X0345173Y0371372D02*
X0345173Y0374128D01*
X0345173Y0371372D02*
X0342417Y0371372D01*
X0342417Y0374128D01*
X0345173Y0374128D01*
X0345173Y0372494D02*
X0342417Y0372494D01*
X0342417Y0373616D02*
X0345173Y0373616D01*
X0338267Y0374128D02*
X0338267Y0371372D01*
X0335511Y0371372D01*
X0335511Y0374128D01*
X0338267Y0374128D01*
X0338267Y0372494D02*
X0335511Y0372494D01*
X0335511Y0373616D02*
X0338267Y0373616D01*
X0183173Y0374128D02*
X0183173Y0371372D01*
X0180417Y0371372D01*
X0180417Y0374128D01*
X0183173Y0374128D01*
X0183173Y0372494D02*
X0180417Y0372494D01*
X0180417Y0373616D02*
X0183173Y0373616D01*
X0176267Y0374128D02*
X0176267Y0371372D01*
X0173511Y0371372D01*
X0173511Y0374128D01*
X0176267Y0374128D01*
X0176267Y0372494D02*
X0173511Y0372494D01*
X0173511Y0373616D02*
X0176267Y0373616D01*
X0176267Y0366628D02*
X0176267Y0363872D01*
X0173511Y0363872D01*
X0173511Y0366628D01*
X0176267Y0366628D01*
X0176267Y0364994D02*
X0173511Y0364994D01*
X0173511Y0366116D02*
X0176267Y0366116D01*
X0176267Y0359128D02*
X0176267Y0356372D01*
X0173511Y0356372D01*
X0173511Y0359128D01*
X0176267Y0359128D01*
X0176267Y0357494D02*
X0173511Y0357494D01*
X0173511Y0358616D02*
X0176267Y0358616D01*
X0183173Y0359128D02*
X0183173Y0356372D01*
X0180417Y0356372D01*
X0180417Y0359128D01*
X0183173Y0359128D01*
X0183173Y0357494D02*
X0180417Y0357494D01*
X0180417Y0358616D02*
X0183173Y0358616D01*
X0183173Y0363872D02*
X0183173Y0366628D01*
X0183173Y0363872D02*
X0180417Y0363872D01*
X0180417Y0366628D01*
X0183173Y0366628D01*
X0183173Y0364994D02*
X0180417Y0364994D01*
X0180417Y0366116D02*
X0183173Y0366116D01*
X0183173Y0351628D02*
X0183173Y0348872D01*
X0180417Y0348872D01*
X0180417Y0351628D01*
X0183173Y0351628D01*
X0183173Y0349994D02*
X0180417Y0349994D01*
X0180417Y0351116D02*
X0183173Y0351116D01*
X0176267Y0351628D02*
X0176267Y0348872D01*
X0173511Y0348872D01*
X0173511Y0351628D01*
X0176267Y0351628D01*
X0176267Y0349994D02*
X0173511Y0349994D01*
X0173511Y0351116D02*
X0176267Y0351116D01*
D15*
X0240814Y0355750D03*
X0249869Y0355750D03*
X0249869Y0213750D03*
X0240814Y0213750D03*
X0240814Y0071750D03*
X0249869Y0071750D03*
X0087869Y0071750D03*
X0078814Y0071750D03*
X0078814Y0213750D03*
X0087869Y0213750D03*
X0087869Y0355750D03*
X0078814Y0355750D03*
D16*
X0096964Y0360191D03*
X0096964Y0364522D03*
X0096964Y0368852D03*
X0096964Y0373183D03*
X0096964Y0377514D03*
X0096964Y0381844D03*
X0096964Y0386175D03*
X0096964Y0397986D03*
X0096964Y0402317D03*
X0096964Y0406648D03*
X0096964Y0410978D03*
X0096964Y0415309D03*
X0149720Y0415309D03*
X0149720Y0410978D03*
X0149720Y0406648D03*
X0149720Y0402317D03*
X0149720Y0397986D03*
X0149720Y0386175D03*
X0149720Y0381844D03*
X0149720Y0377514D03*
X0149720Y0373183D03*
X0149720Y0368852D03*
X0149720Y0364522D03*
X0149720Y0360191D03*
X0149720Y0273309D03*
X0149720Y0268978D03*
X0149720Y0264648D03*
X0149720Y0260317D03*
X0149720Y0255986D03*
X0149720Y0244175D03*
X0149720Y0239844D03*
X0149720Y0235514D03*
X0149720Y0231183D03*
X0149720Y0226852D03*
X0149720Y0222522D03*
X0149720Y0218191D03*
X0096964Y0218191D03*
X0096964Y0222522D03*
X0096964Y0226852D03*
X0096964Y0231183D03*
X0096964Y0235514D03*
X0096964Y0239844D03*
X0096964Y0244175D03*
X0096964Y0255986D03*
X0096964Y0260317D03*
X0096964Y0264648D03*
X0096964Y0268978D03*
X0096964Y0273309D03*
X0096964Y0131309D03*
X0096964Y0126978D03*
X0096964Y0122648D03*
X0096964Y0118317D03*
X0096964Y0113986D03*
X0096964Y0102175D03*
X0096964Y0097844D03*
X0096964Y0093514D03*
X0096964Y0089183D03*
X0096964Y0084852D03*
X0096964Y0080522D03*
X0096964Y0076191D03*
X0149720Y0076191D03*
X0149720Y0080522D03*
X0149720Y0084852D03*
X0149720Y0089183D03*
X0149720Y0093514D03*
X0149720Y0097844D03*
X0149720Y0102175D03*
X0149720Y0113986D03*
X0149720Y0118317D03*
X0149720Y0122648D03*
X0149720Y0126978D03*
X0149720Y0131309D03*
X0258964Y0131309D03*
X0258964Y0126978D03*
X0258964Y0122648D03*
X0258964Y0118317D03*
X0258964Y0113986D03*
X0258964Y0102175D03*
X0258964Y0097844D03*
X0258964Y0093514D03*
X0258964Y0089183D03*
X0258964Y0084852D03*
X0258964Y0080522D03*
X0258964Y0076191D03*
X0311720Y0076191D03*
X0311720Y0080522D03*
X0311720Y0084852D03*
X0311720Y0089183D03*
X0311720Y0093514D03*
X0311720Y0097844D03*
X0311720Y0102175D03*
X0311720Y0113986D03*
X0311720Y0118317D03*
X0311720Y0122648D03*
X0311720Y0126978D03*
X0311720Y0131309D03*
X0311720Y0218191D03*
X0311720Y0222522D03*
X0311720Y0226852D03*
X0311720Y0231183D03*
X0311720Y0235514D03*
X0311720Y0239844D03*
X0311720Y0244175D03*
X0311720Y0255986D03*
X0311720Y0260317D03*
X0311720Y0264648D03*
X0311720Y0268978D03*
X0311720Y0273309D03*
X0258964Y0273309D03*
X0258964Y0268978D03*
X0258964Y0264648D03*
X0258964Y0260317D03*
X0258964Y0255986D03*
X0258964Y0244175D03*
X0258964Y0239844D03*
X0258964Y0235514D03*
X0258964Y0231183D03*
X0258964Y0226852D03*
X0258964Y0222522D03*
X0258964Y0218191D03*
X0258964Y0360191D03*
X0258964Y0364522D03*
X0258964Y0368852D03*
X0258964Y0373183D03*
X0258964Y0377514D03*
X0258964Y0381844D03*
X0258964Y0386175D03*
X0258964Y0397986D03*
X0258964Y0402317D03*
X0258964Y0406648D03*
X0258964Y0410978D03*
X0258964Y0415309D03*
X0311720Y0415309D03*
X0311720Y0410978D03*
X0311720Y0406648D03*
X0311720Y0402317D03*
X0311720Y0397986D03*
X0311720Y0386175D03*
X0311720Y0381844D03*
X0311720Y0377514D03*
X0311720Y0373183D03*
X0311720Y0368852D03*
X0311720Y0364522D03*
X0311720Y0360191D03*
D17*
X0307586Y0360191D03*
X0307586Y0364522D03*
X0307586Y0368852D03*
X0307586Y0373183D03*
X0307586Y0377514D03*
X0307586Y0381844D03*
X0307586Y0386175D03*
X0307586Y0397986D03*
X0307586Y0402317D03*
X0307586Y0406648D03*
X0307586Y0410978D03*
X0307586Y0415309D03*
X0263098Y0415309D03*
X0263098Y0410978D03*
X0263098Y0406648D03*
X0263098Y0402317D03*
X0263098Y0397986D03*
X0263098Y0386175D03*
X0263098Y0381844D03*
X0263098Y0377514D03*
X0263098Y0373183D03*
X0263098Y0368852D03*
X0263098Y0364522D03*
X0263098Y0360191D03*
X0263098Y0273309D03*
X0263098Y0268978D03*
X0263098Y0264648D03*
X0263098Y0260317D03*
X0263098Y0255986D03*
X0263098Y0244175D03*
X0263098Y0239844D03*
X0263098Y0235514D03*
X0263098Y0231183D03*
X0263098Y0226852D03*
X0263098Y0222522D03*
X0263098Y0218191D03*
X0307586Y0218191D03*
X0307586Y0222522D03*
X0307586Y0226852D03*
X0307586Y0231183D03*
X0307586Y0235514D03*
X0307586Y0239844D03*
X0307586Y0244175D03*
X0307586Y0255986D03*
X0307586Y0260317D03*
X0307586Y0264648D03*
X0307586Y0268978D03*
X0307586Y0273309D03*
X0307586Y0131309D03*
X0307586Y0126978D03*
X0307586Y0122648D03*
X0307586Y0118317D03*
X0307586Y0113986D03*
X0307586Y0102175D03*
X0307586Y0097844D03*
X0307586Y0093514D03*
X0307586Y0089183D03*
X0307586Y0084852D03*
X0307586Y0080522D03*
X0307586Y0076191D03*
X0263098Y0076191D03*
X0263098Y0080522D03*
X0263098Y0084852D03*
X0263098Y0089183D03*
X0263098Y0093514D03*
X0263098Y0097844D03*
X0263098Y0102175D03*
X0263098Y0113986D03*
X0263098Y0118317D03*
X0263098Y0122648D03*
X0263098Y0126978D03*
X0263098Y0131309D03*
X0145586Y0131309D03*
X0145586Y0126978D03*
X0145586Y0122648D03*
X0145586Y0118317D03*
X0145586Y0113986D03*
X0145586Y0102175D03*
X0145586Y0097844D03*
X0145586Y0093514D03*
X0145586Y0089183D03*
X0145586Y0084852D03*
X0145586Y0080522D03*
X0145586Y0076191D03*
X0101098Y0076191D03*
X0101098Y0080522D03*
X0101098Y0084852D03*
X0101098Y0089183D03*
X0101098Y0093514D03*
X0101098Y0097844D03*
X0101098Y0102175D03*
X0101098Y0113986D03*
X0101098Y0118317D03*
X0101098Y0122648D03*
X0101098Y0126978D03*
X0101098Y0131309D03*
X0101098Y0218191D03*
X0101098Y0222522D03*
X0101098Y0226852D03*
X0101098Y0231183D03*
X0101098Y0235514D03*
X0101098Y0239844D03*
X0101098Y0244175D03*
X0101098Y0255986D03*
X0101098Y0260317D03*
X0101098Y0264648D03*
X0101098Y0268978D03*
X0101098Y0273309D03*
X0145586Y0273309D03*
X0145586Y0268978D03*
X0145586Y0264648D03*
X0145586Y0260317D03*
X0145586Y0255986D03*
X0145586Y0244175D03*
X0145586Y0239844D03*
X0145586Y0235514D03*
X0145586Y0231183D03*
X0145586Y0226852D03*
X0145586Y0222522D03*
X0145586Y0218191D03*
X0145586Y0360191D03*
X0145586Y0364522D03*
X0145586Y0368852D03*
X0145586Y0373183D03*
X0145586Y0377514D03*
X0145586Y0381844D03*
X0145586Y0386175D03*
X0145586Y0397986D03*
X0145586Y0402317D03*
X0145586Y0406648D03*
X0145586Y0410978D03*
X0145586Y0415309D03*
X0101098Y0415309D03*
X0101098Y0410978D03*
X0101098Y0406648D03*
X0101098Y0402317D03*
X0101098Y0397986D03*
X0101098Y0386175D03*
X0101098Y0381844D03*
X0101098Y0377514D03*
X0101098Y0373183D03*
X0101098Y0368852D03*
X0101098Y0364522D03*
X0101098Y0360191D03*
D18*
X0094759Y0289667D03*
X0071924Y0289667D03*
X0071924Y0147667D03*
X0094759Y0147667D03*
X0233924Y0147667D03*
X0256759Y0147667D03*
X0256759Y0289667D03*
X0233924Y0289667D03*
X0233924Y0431667D03*
X0256759Y0431667D03*
X0094759Y0431667D03*
X0071924Y0431667D03*
D19*
X0079552Y0443281D03*
X0087131Y0443281D03*
X0087131Y0301281D03*
X0079552Y0301281D03*
X0079552Y0159281D03*
X0087131Y0159281D03*
X0241552Y0159281D03*
X0249131Y0159281D03*
X0249131Y0301281D03*
X0241552Y0301281D03*
X0241552Y0443281D03*
X0249131Y0443281D03*
D20*
X0253199Y0443239D02*
X0258599Y0443239D01*
X0258599Y0443637D02*
X0253199Y0443637D01*
X0253199Y0444036D02*
X0258599Y0444036D01*
X0258599Y0444435D02*
X0253199Y0444435D01*
X0253199Y0444833D02*
X0258599Y0444833D01*
X0258599Y0445232D02*
X0253199Y0445232D01*
X0253199Y0445310D02*
X0253231Y0445599D01*
X0253327Y0445874D01*
X0253482Y0446120D01*
X0253688Y0446326D01*
X0253935Y0446481D01*
X0254209Y0446577D01*
X0254499Y0446610D01*
X0257399Y0446610D01*
X0257666Y0446580D01*
X0257919Y0446491D01*
X0258147Y0446348D01*
X0258337Y0446158D01*
X0258480Y0445930D01*
X0258569Y0445677D01*
X0258599Y0445410D01*
X0258599Y0438510D01*
X0258606Y0438472D01*
X0258628Y0438439D01*
X0258660Y0438417D01*
X0258699Y0438410D01*
X0260599Y0438410D01*
X0260599Y0435310D01*
X0253199Y0435310D01*
X0253199Y0445310D01*
X0253242Y0445630D02*
X0258574Y0445630D01*
X0258418Y0446029D02*
X0253425Y0446029D01*
X0253849Y0446427D02*
X0258021Y0446427D01*
X0258599Y0442840D02*
X0253199Y0442840D01*
X0253199Y0442442D02*
X0258599Y0442442D01*
X0258599Y0442043D02*
X0253199Y0442043D01*
X0253199Y0441645D02*
X0258599Y0441645D01*
X0258599Y0441246D02*
X0253199Y0441246D01*
X0253199Y0440848D02*
X0258599Y0440848D01*
X0258599Y0440449D02*
X0253199Y0440449D01*
X0253199Y0440051D02*
X0258599Y0440051D01*
X0258599Y0439652D02*
X0253199Y0439652D01*
X0253199Y0439254D02*
X0258599Y0439254D01*
X0258599Y0438855D02*
X0253199Y0438855D01*
X0253199Y0438457D02*
X0258616Y0438457D01*
X0260599Y0438058D02*
X0253199Y0438058D01*
X0253199Y0437660D02*
X0260599Y0437660D01*
X0260599Y0437261D02*
X0253199Y0437261D01*
X0253199Y0436863D02*
X0260599Y0436863D01*
X0260599Y0436464D02*
X0253199Y0436464D01*
X0253199Y0436066D02*
X0260599Y0436066D01*
X0260599Y0435667D02*
X0253199Y0435667D01*
X0237536Y0435667D02*
X0230136Y0435667D01*
X0230136Y0435310D02*
X0237536Y0435310D01*
X0237536Y0445310D01*
X0237503Y0445599D01*
X0237407Y0445874D01*
X0237252Y0446120D01*
X0237046Y0446326D01*
X0236800Y0446481D01*
X0236525Y0446577D01*
X0236236Y0446610D01*
X0233336Y0446610D01*
X0233068Y0446580D01*
X0232815Y0446491D01*
X0232587Y0446348D01*
X0232397Y0446158D01*
X0232254Y0445930D01*
X0232166Y0445677D01*
X0232136Y0445410D01*
X0232136Y0438510D01*
X0232128Y0438472D01*
X0232106Y0438439D01*
X0232074Y0438417D01*
X0232036Y0438410D01*
X0230136Y0438410D01*
X0230136Y0435310D01*
X0230136Y0436066D02*
X0237536Y0436066D01*
X0237536Y0436464D02*
X0230136Y0436464D01*
X0230136Y0436863D02*
X0237536Y0436863D01*
X0237536Y0437261D02*
X0230136Y0437261D01*
X0230136Y0437660D02*
X0237536Y0437660D01*
X0237536Y0438058D02*
X0230136Y0438058D01*
X0232118Y0438457D02*
X0237536Y0438457D01*
X0237536Y0438855D02*
X0232136Y0438855D01*
X0232136Y0439254D02*
X0237536Y0439254D01*
X0237536Y0439652D02*
X0232136Y0439652D01*
X0232136Y0440051D02*
X0237536Y0440051D01*
X0237536Y0440449D02*
X0232136Y0440449D01*
X0232136Y0440848D02*
X0237536Y0440848D01*
X0237536Y0441246D02*
X0232136Y0441246D01*
X0232136Y0441645D02*
X0237536Y0441645D01*
X0237536Y0442043D02*
X0232136Y0442043D01*
X0232136Y0442442D02*
X0237536Y0442442D01*
X0237536Y0442840D02*
X0232136Y0442840D01*
X0232136Y0443239D02*
X0237536Y0443239D01*
X0237536Y0443637D02*
X0232136Y0443637D01*
X0232136Y0444036D02*
X0237536Y0444036D01*
X0237536Y0444435D02*
X0232136Y0444435D01*
X0232136Y0444833D02*
X0237536Y0444833D01*
X0237536Y0445232D02*
X0232136Y0445232D01*
X0232160Y0445630D02*
X0237492Y0445630D01*
X0237310Y0446029D02*
X0232316Y0446029D01*
X0232713Y0446427D02*
X0236886Y0446427D01*
X0236236Y0304610D02*
X0233336Y0304610D01*
X0233068Y0304580D01*
X0232815Y0304491D01*
X0232587Y0304348D01*
X0232397Y0304158D01*
X0232254Y0303930D01*
X0232166Y0303677D01*
X0232136Y0303410D01*
X0232136Y0296510D01*
X0232128Y0296472D01*
X0232106Y0296439D01*
X0232074Y0296417D01*
X0232036Y0296410D01*
X0230136Y0296410D01*
X0230136Y0293310D01*
X0237536Y0293310D01*
X0237536Y0303310D01*
X0237503Y0303599D01*
X0237407Y0303874D01*
X0237252Y0304120D01*
X0237046Y0304326D01*
X0236800Y0304481D01*
X0236525Y0304577D01*
X0236236Y0304610D01*
X0236583Y0304557D02*
X0233004Y0304557D01*
X0232398Y0304159D02*
X0237214Y0304159D01*
X0237447Y0303760D02*
X0232195Y0303760D01*
X0232136Y0303362D02*
X0237530Y0303362D01*
X0237536Y0302963D02*
X0232136Y0302963D01*
X0232136Y0302564D02*
X0237536Y0302564D01*
X0237536Y0302166D02*
X0232136Y0302166D01*
X0232136Y0301767D02*
X0237536Y0301767D01*
X0237536Y0301369D02*
X0232136Y0301369D01*
X0232136Y0300970D02*
X0237536Y0300970D01*
X0237536Y0300572D02*
X0232136Y0300572D01*
X0232136Y0300173D02*
X0237536Y0300173D01*
X0237536Y0299775D02*
X0232136Y0299775D01*
X0232136Y0299376D02*
X0237536Y0299376D01*
X0237536Y0298978D02*
X0232136Y0298978D01*
X0232136Y0298579D02*
X0237536Y0298579D01*
X0237536Y0298181D02*
X0232136Y0298181D01*
X0232136Y0297782D02*
X0237536Y0297782D01*
X0237536Y0297384D02*
X0232136Y0297384D01*
X0232136Y0296985D02*
X0237536Y0296985D01*
X0237536Y0296587D02*
X0232136Y0296587D01*
X0230136Y0296188D02*
X0237536Y0296188D01*
X0237536Y0295790D02*
X0230136Y0295790D01*
X0230136Y0295391D02*
X0237536Y0295391D01*
X0237536Y0294993D02*
X0230136Y0294993D01*
X0230136Y0294594D02*
X0237536Y0294594D01*
X0237536Y0294196D02*
X0230136Y0294196D01*
X0230136Y0293797D02*
X0237536Y0293797D01*
X0237536Y0293399D02*
X0230136Y0293399D01*
X0253199Y0293399D02*
X0260599Y0293399D01*
X0260599Y0293310D02*
X0253199Y0293310D01*
X0253199Y0303310D01*
X0253231Y0303599D01*
X0253327Y0303874D01*
X0253482Y0304120D01*
X0253688Y0304326D01*
X0253935Y0304481D01*
X0254209Y0304577D01*
X0254499Y0304610D01*
X0257399Y0304610D01*
X0257666Y0304580D01*
X0257919Y0304491D01*
X0258147Y0304348D01*
X0258337Y0304158D01*
X0258480Y0303930D01*
X0258569Y0303677D01*
X0258599Y0303410D01*
X0258599Y0296510D01*
X0258606Y0296472D01*
X0258628Y0296439D01*
X0258660Y0296417D01*
X0258699Y0296410D01*
X0260599Y0296410D01*
X0260599Y0293310D01*
X0260599Y0293797D02*
X0253199Y0293797D01*
X0253199Y0294196D02*
X0260599Y0294196D01*
X0260599Y0294594D02*
X0253199Y0294594D01*
X0253199Y0294993D02*
X0260599Y0294993D01*
X0260599Y0295391D02*
X0253199Y0295391D01*
X0253199Y0295790D02*
X0260599Y0295790D01*
X0260599Y0296188D02*
X0253199Y0296188D01*
X0253199Y0296587D02*
X0258599Y0296587D01*
X0258599Y0296985D02*
X0253199Y0296985D01*
X0253199Y0297384D02*
X0258599Y0297384D01*
X0258599Y0297782D02*
X0253199Y0297782D01*
X0253199Y0298181D02*
X0258599Y0298181D01*
X0258599Y0298579D02*
X0253199Y0298579D01*
X0253199Y0298978D02*
X0258599Y0298978D01*
X0258599Y0299376D02*
X0253199Y0299376D01*
X0253199Y0299775D02*
X0258599Y0299775D01*
X0258599Y0300173D02*
X0253199Y0300173D01*
X0253199Y0300572D02*
X0258599Y0300572D01*
X0258599Y0300970D02*
X0253199Y0300970D01*
X0253199Y0301369D02*
X0258599Y0301369D01*
X0258599Y0301767D02*
X0253199Y0301767D01*
X0253199Y0302166D02*
X0258599Y0302166D01*
X0258599Y0302564D02*
X0253199Y0302564D01*
X0253199Y0302963D02*
X0258599Y0302963D01*
X0258599Y0303362D02*
X0253204Y0303362D01*
X0253288Y0303760D02*
X0258539Y0303760D01*
X0258336Y0304159D02*
X0253520Y0304159D01*
X0254152Y0304557D02*
X0257731Y0304557D01*
X0257399Y0162610D02*
X0254499Y0162610D01*
X0254209Y0162577D01*
X0253935Y0162481D01*
X0253688Y0162326D01*
X0253482Y0162120D01*
X0253327Y0161874D01*
X0253231Y0161599D01*
X0253199Y0161310D01*
X0253199Y0151310D01*
X0260599Y0151310D01*
X0260599Y0154410D01*
X0258699Y0154410D01*
X0258660Y0154417D01*
X0258628Y0154439D01*
X0258606Y0154472D01*
X0258599Y0154510D01*
X0258599Y0161410D01*
X0258569Y0161677D01*
X0258480Y0161930D01*
X0258337Y0162158D01*
X0258147Y0162348D01*
X0257919Y0162491D01*
X0257666Y0162580D01*
X0257399Y0162610D01*
X0258206Y0162289D02*
X0253650Y0162289D01*
X0253337Y0161890D02*
X0258494Y0161890D01*
X0258589Y0161491D02*
X0253219Y0161491D01*
X0253199Y0161093D02*
X0258599Y0161093D01*
X0258599Y0160694D02*
X0253199Y0160694D01*
X0253199Y0160296D02*
X0258599Y0160296D01*
X0258599Y0159897D02*
X0253199Y0159897D01*
X0253199Y0159499D02*
X0258599Y0159499D01*
X0258599Y0159100D02*
X0253199Y0159100D01*
X0253199Y0158702D02*
X0258599Y0158702D01*
X0258599Y0158303D02*
X0253199Y0158303D01*
X0253199Y0157905D02*
X0258599Y0157905D01*
X0258599Y0157506D02*
X0253199Y0157506D01*
X0253199Y0157108D02*
X0258599Y0157108D01*
X0258599Y0156709D02*
X0253199Y0156709D01*
X0253199Y0156311D02*
X0258599Y0156311D01*
X0258599Y0155912D02*
X0253199Y0155912D01*
X0253199Y0155514D02*
X0258599Y0155514D01*
X0258599Y0155115D02*
X0253199Y0155115D01*
X0253199Y0154717D02*
X0258599Y0154717D01*
X0260599Y0154318D02*
X0253199Y0154318D01*
X0253199Y0153920D02*
X0260599Y0153920D01*
X0260599Y0153521D02*
X0253199Y0153521D01*
X0253199Y0153123D02*
X0260599Y0153123D01*
X0260599Y0152724D02*
X0253199Y0152724D01*
X0253199Y0152326D02*
X0260599Y0152326D01*
X0260599Y0151927D02*
X0253199Y0151927D01*
X0253199Y0151529D02*
X0260599Y0151529D01*
X0237536Y0151529D02*
X0230136Y0151529D01*
X0230136Y0151310D02*
X0237536Y0151310D01*
X0237536Y0161310D01*
X0237503Y0161599D01*
X0237407Y0161874D01*
X0237252Y0162120D01*
X0237046Y0162326D01*
X0236800Y0162481D01*
X0236525Y0162577D01*
X0236236Y0162610D01*
X0233336Y0162610D01*
X0233068Y0162580D01*
X0232815Y0162491D01*
X0232587Y0162348D01*
X0232397Y0162158D01*
X0232254Y0161930D01*
X0232166Y0161677D01*
X0232136Y0161410D01*
X0232136Y0154510D01*
X0232128Y0154472D01*
X0232106Y0154439D01*
X0232074Y0154417D01*
X0232036Y0154410D01*
X0230136Y0154410D01*
X0230136Y0151310D01*
X0230136Y0151927D02*
X0237536Y0151927D01*
X0237536Y0152326D02*
X0230136Y0152326D01*
X0230136Y0152724D02*
X0237536Y0152724D01*
X0237536Y0153123D02*
X0230136Y0153123D01*
X0230136Y0153521D02*
X0237536Y0153521D01*
X0237536Y0153920D02*
X0230136Y0153920D01*
X0230136Y0154318D02*
X0237536Y0154318D01*
X0237536Y0154717D02*
X0232136Y0154717D01*
X0232136Y0155115D02*
X0237536Y0155115D01*
X0237536Y0155514D02*
X0232136Y0155514D01*
X0232136Y0155912D02*
X0237536Y0155912D01*
X0237536Y0156311D02*
X0232136Y0156311D01*
X0232136Y0156709D02*
X0237536Y0156709D01*
X0237536Y0157108D02*
X0232136Y0157108D01*
X0232136Y0157506D02*
X0237536Y0157506D01*
X0237536Y0157905D02*
X0232136Y0157905D01*
X0232136Y0158303D02*
X0237536Y0158303D01*
X0237536Y0158702D02*
X0232136Y0158702D01*
X0232136Y0159100D02*
X0237536Y0159100D01*
X0237536Y0159499D02*
X0232136Y0159499D01*
X0232136Y0159897D02*
X0237536Y0159897D01*
X0237536Y0160296D02*
X0232136Y0160296D01*
X0232136Y0160694D02*
X0237536Y0160694D01*
X0237536Y0161093D02*
X0232136Y0161093D01*
X0232145Y0161491D02*
X0237515Y0161491D01*
X0237397Y0161890D02*
X0232240Y0161890D01*
X0232528Y0162289D02*
X0237084Y0162289D01*
X0098599Y0154410D02*
X0098599Y0151310D01*
X0091199Y0151310D01*
X0091199Y0161310D01*
X0091231Y0161599D01*
X0091327Y0161874D01*
X0091482Y0162120D01*
X0091688Y0162326D01*
X0091935Y0162481D01*
X0092209Y0162577D01*
X0092499Y0162610D01*
X0095399Y0162610D01*
X0095666Y0162580D01*
X0095919Y0162491D01*
X0096147Y0162348D01*
X0096337Y0162158D01*
X0096480Y0161930D01*
X0096569Y0161677D01*
X0096599Y0161410D01*
X0096599Y0154510D01*
X0096606Y0154472D01*
X0096628Y0154439D01*
X0096660Y0154417D01*
X0096699Y0154410D01*
X0098599Y0154410D01*
X0098599Y0154318D02*
X0091199Y0154318D01*
X0091199Y0153920D02*
X0098599Y0153920D01*
X0098599Y0153521D02*
X0091199Y0153521D01*
X0091199Y0153123D02*
X0098599Y0153123D01*
X0098599Y0152724D02*
X0091199Y0152724D01*
X0091199Y0152326D02*
X0098599Y0152326D01*
X0098599Y0151927D02*
X0091199Y0151927D01*
X0091199Y0151529D02*
X0098599Y0151529D01*
X0096599Y0154717D02*
X0091199Y0154717D01*
X0091199Y0155115D02*
X0096599Y0155115D01*
X0096599Y0155514D02*
X0091199Y0155514D01*
X0091199Y0155912D02*
X0096599Y0155912D01*
X0096599Y0156311D02*
X0091199Y0156311D01*
X0091199Y0156709D02*
X0096599Y0156709D01*
X0096599Y0157108D02*
X0091199Y0157108D01*
X0091199Y0157506D02*
X0096599Y0157506D01*
X0096599Y0157905D02*
X0091199Y0157905D01*
X0091199Y0158303D02*
X0096599Y0158303D01*
X0096599Y0158702D02*
X0091199Y0158702D01*
X0091199Y0159100D02*
X0096599Y0159100D01*
X0096599Y0159499D02*
X0091199Y0159499D01*
X0091199Y0159897D02*
X0096599Y0159897D01*
X0096599Y0160296D02*
X0091199Y0160296D01*
X0091199Y0160694D02*
X0096599Y0160694D01*
X0096599Y0161093D02*
X0091199Y0161093D01*
X0091219Y0161491D02*
X0096589Y0161491D01*
X0096494Y0161890D02*
X0091337Y0161890D01*
X0091650Y0162289D02*
X0096206Y0162289D01*
X0075536Y0161310D02*
X0075536Y0151310D01*
X0068136Y0151310D01*
X0068136Y0154410D01*
X0070036Y0154410D01*
X0070074Y0154417D01*
X0070106Y0154439D01*
X0070128Y0154472D01*
X0070136Y0154510D01*
X0070136Y0161410D01*
X0070166Y0161677D01*
X0070254Y0161930D01*
X0070397Y0162158D01*
X0070587Y0162348D01*
X0070815Y0162491D01*
X0071068Y0162580D01*
X0071336Y0162610D01*
X0074236Y0162610D01*
X0074525Y0162577D01*
X0074800Y0162481D01*
X0075046Y0162326D01*
X0075252Y0162120D01*
X0075407Y0161874D01*
X0075503Y0161599D01*
X0075536Y0161310D01*
X0075515Y0161491D02*
X0070145Y0161491D01*
X0070136Y0161093D02*
X0075536Y0161093D01*
X0075536Y0160694D02*
X0070136Y0160694D01*
X0070136Y0160296D02*
X0075536Y0160296D01*
X0075536Y0159897D02*
X0070136Y0159897D01*
X0070136Y0159499D02*
X0075536Y0159499D01*
X0075536Y0159100D02*
X0070136Y0159100D01*
X0070136Y0158702D02*
X0075536Y0158702D01*
X0075536Y0158303D02*
X0070136Y0158303D01*
X0070136Y0157905D02*
X0075536Y0157905D01*
X0075536Y0157506D02*
X0070136Y0157506D01*
X0070136Y0157108D02*
X0075536Y0157108D01*
X0075536Y0156709D02*
X0070136Y0156709D01*
X0070136Y0156311D02*
X0075536Y0156311D01*
X0075536Y0155912D02*
X0070136Y0155912D01*
X0070136Y0155514D02*
X0075536Y0155514D01*
X0075536Y0155115D02*
X0070136Y0155115D01*
X0070136Y0154717D02*
X0075536Y0154717D01*
X0075536Y0154318D02*
X0068136Y0154318D01*
X0068136Y0153920D02*
X0075536Y0153920D01*
X0075536Y0153521D02*
X0068136Y0153521D01*
X0068136Y0153123D02*
X0075536Y0153123D01*
X0075536Y0152724D02*
X0068136Y0152724D01*
X0068136Y0152326D02*
X0075536Y0152326D01*
X0075536Y0151927D02*
X0068136Y0151927D01*
X0068136Y0151529D02*
X0075536Y0151529D01*
X0075397Y0161890D02*
X0070240Y0161890D01*
X0070528Y0162289D02*
X0075084Y0162289D01*
X0075536Y0293310D02*
X0068136Y0293310D01*
X0068136Y0296410D01*
X0070036Y0296410D01*
X0070074Y0296417D01*
X0070106Y0296439D01*
X0070128Y0296472D01*
X0070136Y0296510D01*
X0070136Y0303410D01*
X0070166Y0303677D01*
X0070254Y0303930D01*
X0070397Y0304158D01*
X0070587Y0304348D01*
X0070815Y0304491D01*
X0071068Y0304580D01*
X0071336Y0304610D01*
X0074236Y0304610D01*
X0074525Y0304577D01*
X0074800Y0304481D01*
X0075046Y0304326D01*
X0075252Y0304120D01*
X0075407Y0303874D01*
X0075503Y0303599D01*
X0075536Y0303310D01*
X0075536Y0293310D01*
X0075536Y0293399D02*
X0068136Y0293399D01*
X0068136Y0293797D02*
X0075536Y0293797D01*
X0075536Y0294196D02*
X0068136Y0294196D01*
X0068136Y0294594D02*
X0075536Y0294594D01*
X0075536Y0294993D02*
X0068136Y0294993D01*
X0068136Y0295391D02*
X0075536Y0295391D01*
X0075536Y0295790D02*
X0068136Y0295790D01*
X0068136Y0296188D02*
X0075536Y0296188D01*
X0075536Y0296587D02*
X0070136Y0296587D01*
X0070136Y0296985D02*
X0075536Y0296985D01*
X0075536Y0297384D02*
X0070136Y0297384D01*
X0070136Y0297782D02*
X0075536Y0297782D01*
X0075536Y0298181D02*
X0070136Y0298181D01*
X0070136Y0298579D02*
X0075536Y0298579D01*
X0075536Y0298978D02*
X0070136Y0298978D01*
X0070136Y0299376D02*
X0075536Y0299376D01*
X0075536Y0299775D02*
X0070136Y0299775D01*
X0070136Y0300173D02*
X0075536Y0300173D01*
X0075536Y0300572D02*
X0070136Y0300572D01*
X0070136Y0300970D02*
X0075536Y0300970D01*
X0075536Y0301369D02*
X0070136Y0301369D01*
X0070136Y0301767D02*
X0075536Y0301767D01*
X0075536Y0302166D02*
X0070136Y0302166D01*
X0070136Y0302564D02*
X0075536Y0302564D01*
X0075536Y0302963D02*
X0070136Y0302963D01*
X0070136Y0303362D02*
X0075530Y0303362D01*
X0075447Y0303760D02*
X0070195Y0303760D01*
X0070398Y0304159D02*
X0075214Y0304159D01*
X0074583Y0304557D02*
X0071004Y0304557D01*
X0091199Y0303310D02*
X0091199Y0293310D01*
X0098599Y0293310D01*
X0098599Y0296410D01*
X0096699Y0296410D01*
X0096660Y0296417D01*
X0096628Y0296439D01*
X0096606Y0296472D01*
X0096599Y0296510D01*
X0096599Y0303410D01*
X0096569Y0303677D01*
X0096480Y0303930D01*
X0096337Y0304158D01*
X0096147Y0304348D01*
X0095919Y0304491D01*
X0095666Y0304580D01*
X0095399Y0304610D01*
X0092499Y0304610D01*
X0092209Y0304577D01*
X0091935Y0304481D01*
X0091688Y0304326D01*
X0091482Y0304120D01*
X0091327Y0303874D01*
X0091231Y0303599D01*
X0091199Y0303310D01*
X0091204Y0303362D02*
X0096599Y0303362D01*
X0096599Y0302963D02*
X0091199Y0302963D01*
X0091199Y0302564D02*
X0096599Y0302564D01*
X0096599Y0302166D02*
X0091199Y0302166D01*
X0091199Y0301767D02*
X0096599Y0301767D01*
X0096599Y0301369D02*
X0091199Y0301369D01*
X0091199Y0300970D02*
X0096599Y0300970D01*
X0096599Y0300572D02*
X0091199Y0300572D01*
X0091199Y0300173D02*
X0096599Y0300173D01*
X0096599Y0299775D02*
X0091199Y0299775D01*
X0091199Y0299376D02*
X0096599Y0299376D01*
X0096599Y0298978D02*
X0091199Y0298978D01*
X0091199Y0298579D02*
X0096599Y0298579D01*
X0096599Y0298181D02*
X0091199Y0298181D01*
X0091199Y0297782D02*
X0096599Y0297782D01*
X0096599Y0297384D02*
X0091199Y0297384D01*
X0091199Y0296985D02*
X0096599Y0296985D01*
X0096599Y0296587D02*
X0091199Y0296587D01*
X0091199Y0296188D02*
X0098599Y0296188D01*
X0098599Y0295790D02*
X0091199Y0295790D01*
X0091199Y0295391D02*
X0098599Y0295391D01*
X0098599Y0294993D02*
X0091199Y0294993D01*
X0091199Y0294594D02*
X0098599Y0294594D01*
X0098599Y0294196D02*
X0091199Y0294196D01*
X0091199Y0293797D02*
X0098599Y0293797D01*
X0098599Y0293399D02*
X0091199Y0293399D01*
X0091288Y0303760D02*
X0096539Y0303760D01*
X0096336Y0304159D02*
X0091520Y0304159D01*
X0092152Y0304557D02*
X0095731Y0304557D01*
X0098599Y0435310D02*
X0091199Y0435310D01*
X0091199Y0445310D01*
X0091231Y0445599D01*
X0091327Y0445874D01*
X0091482Y0446120D01*
X0091688Y0446326D01*
X0091935Y0446481D01*
X0092209Y0446577D01*
X0092499Y0446610D01*
X0095399Y0446610D01*
X0095666Y0446580D01*
X0095919Y0446491D01*
X0096147Y0446348D01*
X0096337Y0446158D01*
X0096480Y0445930D01*
X0096569Y0445677D01*
X0096599Y0445410D01*
X0096599Y0438510D01*
X0096606Y0438472D01*
X0096628Y0438439D01*
X0096660Y0438417D01*
X0096699Y0438410D01*
X0098599Y0438410D01*
X0098599Y0435310D01*
X0098599Y0435667D02*
X0091199Y0435667D01*
X0091199Y0436066D02*
X0098599Y0436066D01*
X0098599Y0436464D02*
X0091199Y0436464D01*
X0091199Y0436863D02*
X0098599Y0436863D01*
X0098599Y0437261D02*
X0091199Y0437261D01*
X0091199Y0437660D02*
X0098599Y0437660D01*
X0098599Y0438058D02*
X0091199Y0438058D01*
X0091199Y0438457D02*
X0096616Y0438457D01*
X0096599Y0438855D02*
X0091199Y0438855D01*
X0091199Y0439254D02*
X0096599Y0439254D01*
X0096599Y0439652D02*
X0091199Y0439652D01*
X0091199Y0440051D02*
X0096599Y0440051D01*
X0096599Y0440449D02*
X0091199Y0440449D01*
X0091199Y0440848D02*
X0096599Y0440848D01*
X0096599Y0441246D02*
X0091199Y0441246D01*
X0091199Y0441645D02*
X0096599Y0441645D01*
X0096599Y0442043D02*
X0091199Y0442043D01*
X0091199Y0442442D02*
X0096599Y0442442D01*
X0096599Y0442840D02*
X0091199Y0442840D01*
X0091199Y0443239D02*
X0096599Y0443239D01*
X0096599Y0443637D02*
X0091199Y0443637D01*
X0091199Y0444036D02*
X0096599Y0444036D01*
X0096599Y0444435D02*
X0091199Y0444435D01*
X0091199Y0444833D02*
X0096599Y0444833D01*
X0096599Y0445232D02*
X0091199Y0445232D01*
X0091242Y0445630D02*
X0096574Y0445630D01*
X0096418Y0446029D02*
X0091425Y0446029D01*
X0091849Y0446427D02*
X0096021Y0446427D01*
X0075536Y0445310D02*
X0075536Y0435310D01*
X0068136Y0435310D01*
X0068136Y0438410D01*
X0070036Y0438410D01*
X0070074Y0438417D01*
X0070106Y0438439D01*
X0070128Y0438472D01*
X0070136Y0438510D01*
X0070136Y0445410D01*
X0070166Y0445677D01*
X0070254Y0445930D01*
X0070397Y0446158D01*
X0070587Y0446348D01*
X0070815Y0446491D01*
X0071068Y0446580D01*
X0071336Y0446610D01*
X0074236Y0446610D01*
X0074525Y0446577D01*
X0074800Y0446481D01*
X0075046Y0446326D01*
X0075252Y0446120D01*
X0075407Y0445874D01*
X0075503Y0445599D01*
X0075536Y0445310D01*
X0075536Y0445232D02*
X0070136Y0445232D01*
X0070160Y0445630D02*
X0075492Y0445630D01*
X0075310Y0446029D02*
X0070316Y0446029D01*
X0070713Y0446427D02*
X0074886Y0446427D01*
X0075536Y0444833D02*
X0070136Y0444833D01*
X0070136Y0444435D02*
X0075536Y0444435D01*
X0075536Y0444036D02*
X0070136Y0444036D01*
X0070136Y0443637D02*
X0075536Y0443637D01*
X0075536Y0443239D02*
X0070136Y0443239D01*
X0070136Y0442840D02*
X0075536Y0442840D01*
X0075536Y0442442D02*
X0070136Y0442442D01*
X0070136Y0442043D02*
X0075536Y0442043D01*
X0075536Y0441645D02*
X0070136Y0441645D01*
X0070136Y0441246D02*
X0075536Y0441246D01*
X0075536Y0440848D02*
X0070136Y0440848D01*
X0070136Y0440449D02*
X0075536Y0440449D01*
X0075536Y0440051D02*
X0070136Y0440051D01*
X0070136Y0439652D02*
X0075536Y0439652D01*
X0075536Y0439254D02*
X0070136Y0439254D01*
X0070136Y0438855D02*
X0075536Y0438855D01*
X0075536Y0438457D02*
X0070118Y0438457D01*
X0068136Y0438058D02*
X0075536Y0438058D01*
X0075536Y0437660D02*
X0068136Y0437660D01*
X0068136Y0437261D02*
X0075536Y0437261D01*
X0075536Y0436863D02*
X0068136Y0436863D01*
X0068136Y0436464D02*
X0075536Y0436464D01*
X0075536Y0436066D02*
X0068136Y0436066D01*
X0068136Y0435667D02*
X0075536Y0435667D01*
D21*
X0077732Y0435725D02*
X0078716Y0435725D01*
X0078716Y0435920D02*
X0077732Y0435920D01*
X0077732Y0435923D02*
X0078716Y0435923D01*
X0078716Y0429525D01*
X0077732Y0429525D01*
X0077732Y0435923D01*
X0077732Y0435530D02*
X0078716Y0435530D01*
X0078716Y0435334D02*
X0077732Y0435334D01*
X0077732Y0435139D02*
X0078716Y0435139D01*
X0078716Y0434944D02*
X0077732Y0434944D01*
X0077732Y0434748D02*
X0078716Y0434748D01*
X0078716Y0434553D02*
X0077732Y0434553D01*
X0077732Y0434357D02*
X0078716Y0434357D01*
X0078716Y0434162D02*
X0077732Y0434162D01*
X0077732Y0433967D02*
X0078716Y0433967D01*
X0078716Y0433771D02*
X0077732Y0433771D01*
X0077732Y0433576D02*
X0078716Y0433576D01*
X0078716Y0433381D02*
X0077732Y0433381D01*
X0077732Y0433185D02*
X0078716Y0433185D01*
X0078716Y0432990D02*
X0077732Y0432990D01*
X0077732Y0432795D02*
X0078716Y0432795D01*
X0078716Y0432599D02*
X0077732Y0432599D01*
X0077732Y0432404D02*
X0078716Y0432404D01*
X0078716Y0432208D02*
X0077732Y0432208D01*
X0077732Y0432013D02*
X0078716Y0432013D01*
X0078716Y0431818D02*
X0077732Y0431818D01*
X0077732Y0431622D02*
X0078716Y0431622D01*
X0078716Y0431427D02*
X0077732Y0431427D01*
X0077732Y0431232D02*
X0078716Y0431232D01*
X0078716Y0431036D02*
X0077732Y0431036D01*
X0077732Y0430841D02*
X0078716Y0430841D01*
X0078716Y0430646D02*
X0077732Y0430646D01*
X0077732Y0430450D02*
X0078716Y0430450D01*
X0078716Y0430255D02*
X0077732Y0430255D01*
X0077732Y0430060D02*
X0078716Y0430060D01*
X0078716Y0429864D02*
X0077732Y0429864D01*
X0077732Y0429669D02*
X0078716Y0429669D01*
X0080291Y0429669D02*
X0081275Y0429669D01*
X0081275Y0429525D02*
X0081275Y0435923D01*
X0080291Y0435923D01*
X0080291Y0429525D01*
X0081275Y0429525D01*
X0081275Y0429864D02*
X0080291Y0429864D01*
X0080291Y0430060D02*
X0081275Y0430060D01*
X0081275Y0430255D02*
X0080291Y0430255D01*
X0080291Y0430450D02*
X0081275Y0430450D01*
X0081275Y0430646D02*
X0080291Y0430646D01*
X0080291Y0430841D02*
X0081275Y0430841D01*
X0081275Y0431036D02*
X0080291Y0431036D01*
X0080291Y0431232D02*
X0081275Y0431232D01*
X0081275Y0431427D02*
X0080291Y0431427D01*
X0080291Y0431622D02*
X0081275Y0431622D01*
X0081275Y0431818D02*
X0080291Y0431818D01*
X0080291Y0432013D02*
X0081275Y0432013D01*
X0081275Y0432208D02*
X0080291Y0432208D01*
X0080291Y0432404D02*
X0081275Y0432404D01*
X0081275Y0432599D02*
X0080291Y0432599D01*
X0080291Y0432795D02*
X0081275Y0432795D01*
X0081275Y0432990D02*
X0080291Y0432990D01*
X0080291Y0433185D02*
X0081275Y0433185D01*
X0081275Y0433381D02*
X0080291Y0433381D01*
X0080291Y0433576D02*
X0081275Y0433576D01*
X0081275Y0433771D02*
X0080291Y0433771D01*
X0080291Y0433967D02*
X0081275Y0433967D01*
X0081275Y0434162D02*
X0080291Y0434162D01*
X0080291Y0434357D02*
X0081275Y0434357D01*
X0081275Y0434553D02*
X0080291Y0434553D01*
X0080291Y0434748D02*
X0081275Y0434748D01*
X0081275Y0434944D02*
X0080291Y0434944D01*
X0080291Y0435139D02*
X0081275Y0435139D01*
X0081275Y0435334D02*
X0080291Y0435334D01*
X0080291Y0435530D02*
X0081275Y0435530D01*
X0081275Y0435725D02*
X0080291Y0435725D01*
X0080291Y0435920D02*
X0081275Y0435920D01*
X0082850Y0435920D02*
X0083834Y0435920D01*
X0083834Y0435923D02*
X0083834Y0429525D01*
X0082850Y0429525D01*
X0082850Y0435923D01*
X0083834Y0435923D01*
X0083834Y0435725D02*
X0082850Y0435725D01*
X0082850Y0435530D02*
X0083834Y0435530D01*
X0083834Y0435334D02*
X0082850Y0435334D01*
X0082850Y0435139D02*
X0083834Y0435139D01*
X0083834Y0434944D02*
X0082850Y0434944D01*
X0082850Y0434748D02*
X0083834Y0434748D01*
X0083834Y0434553D02*
X0082850Y0434553D01*
X0082850Y0434357D02*
X0083834Y0434357D01*
X0083834Y0434162D02*
X0082850Y0434162D01*
X0082850Y0433967D02*
X0083834Y0433967D01*
X0083834Y0433771D02*
X0082850Y0433771D01*
X0082850Y0433576D02*
X0083834Y0433576D01*
X0083834Y0433381D02*
X0082850Y0433381D01*
X0082850Y0433185D02*
X0083834Y0433185D01*
X0083834Y0432990D02*
X0082850Y0432990D01*
X0082850Y0432795D02*
X0083834Y0432795D01*
X0083834Y0432599D02*
X0082850Y0432599D01*
X0082850Y0432404D02*
X0083834Y0432404D01*
X0083834Y0432208D02*
X0082850Y0432208D01*
X0082850Y0432013D02*
X0083834Y0432013D01*
X0083834Y0431818D02*
X0082850Y0431818D01*
X0082850Y0431622D02*
X0083834Y0431622D01*
X0083834Y0431427D02*
X0082850Y0431427D01*
X0082850Y0431232D02*
X0083834Y0431232D01*
X0083834Y0431036D02*
X0082850Y0431036D01*
X0082850Y0430841D02*
X0083834Y0430841D01*
X0083834Y0430646D02*
X0082850Y0430646D01*
X0082850Y0430450D02*
X0083834Y0430450D01*
X0083834Y0430255D02*
X0082850Y0430255D01*
X0082850Y0430060D02*
X0083834Y0430060D01*
X0083834Y0429864D02*
X0082850Y0429864D01*
X0082850Y0429669D02*
X0083834Y0429669D01*
X0085409Y0429669D02*
X0086393Y0429669D01*
X0086393Y0429525D02*
X0086393Y0435923D01*
X0085409Y0435923D01*
X0085409Y0429525D01*
X0086393Y0429525D01*
X0086393Y0429864D02*
X0085409Y0429864D01*
X0085409Y0430060D02*
X0086393Y0430060D01*
X0086393Y0430255D02*
X0085409Y0430255D01*
X0085409Y0430450D02*
X0086393Y0430450D01*
X0086393Y0430646D02*
X0085409Y0430646D01*
X0085409Y0430841D02*
X0086393Y0430841D01*
X0086393Y0431036D02*
X0085409Y0431036D01*
X0085409Y0431232D02*
X0086393Y0431232D01*
X0086393Y0431427D02*
X0085409Y0431427D01*
X0085409Y0431622D02*
X0086393Y0431622D01*
X0086393Y0431818D02*
X0085409Y0431818D01*
X0085409Y0432013D02*
X0086393Y0432013D01*
X0086393Y0432208D02*
X0085409Y0432208D01*
X0085409Y0432404D02*
X0086393Y0432404D01*
X0086393Y0432599D02*
X0085409Y0432599D01*
X0085409Y0432795D02*
X0086393Y0432795D01*
X0086393Y0432990D02*
X0085409Y0432990D01*
X0085409Y0433185D02*
X0086393Y0433185D01*
X0086393Y0433381D02*
X0085409Y0433381D01*
X0085409Y0433576D02*
X0086393Y0433576D01*
X0086393Y0433771D02*
X0085409Y0433771D01*
X0085409Y0433967D02*
X0086393Y0433967D01*
X0086393Y0434162D02*
X0085409Y0434162D01*
X0085409Y0434357D02*
X0086393Y0434357D01*
X0086393Y0434553D02*
X0085409Y0434553D01*
X0085409Y0434748D02*
X0086393Y0434748D01*
X0086393Y0434944D02*
X0085409Y0434944D01*
X0085409Y0435139D02*
X0086393Y0435139D01*
X0086393Y0435334D02*
X0085409Y0435334D01*
X0085409Y0435530D02*
X0086393Y0435530D01*
X0086393Y0435725D02*
X0085409Y0435725D01*
X0085409Y0435920D02*
X0086393Y0435920D01*
X0087968Y0435920D02*
X0088952Y0435920D01*
X0088952Y0435923D02*
X0088952Y0429525D01*
X0087968Y0429525D01*
X0087968Y0435923D01*
X0088952Y0435923D01*
X0088952Y0435725D02*
X0087968Y0435725D01*
X0087968Y0435530D02*
X0088952Y0435530D01*
X0088952Y0435334D02*
X0087968Y0435334D01*
X0087968Y0435139D02*
X0088952Y0435139D01*
X0088952Y0434944D02*
X0087968Y0434944D01*
X0087968Y0434748D02*
X0088952Y0434748D01*
X0088952Y0434553D02*
X0087968Y0434553D01*
X0087968Y0434357D02*
X0088952Y0434357D01*
X0088952Y0434162D02*
X0087968Y0434162D01*
X0087968Y0433967D02*
X0088952Y0433967D01*
X0088952Y0433771D02*
X0087968Y0433771D01*
X0087968Y0433576D02*
X0088952Y0433576D01*
X0088952Y0433381D02*
X0087968Y0433381D01*
X0087968Y0433185D02*
X0088952Y0433185D01*
X0088952Y0432990D02*
X0087968Y0432990D01*
X0087968Y0432795D02*
X0088952Y0432795D01*
X0088952Y0432599D02*
X0087968Y0432599D01*
X0087968Y0432404D02*
X0088952Y0432404D01*
X0088952Y0432208D02*
X0087968Y0432208D01*
X0087968Y0432013D02*
X0088952Y0432013D01*
X0088952Y0431818D02*
X0087968Y0431818D01*
X0087968Y0431622D02*
X0088952Y0431622D01*
X0088952Y0431427D02*
X0087968Y0431427D01*
X0087968Y0431232D02*
X0088952Y0431232D01*
X0088952Y0431036D02*
X0087968Y0431036D01*
X0087968Y0430841D02*
X0088952Y0430841D01*
X0088952Y0430646D02*
X0087968Y0430646D01*
X0087968Y0430450D02*
X0088952Y0430450D01*
X0088952Y0430255D02*
X0087968Y0430255D01*
X0087968Y0430060D02*
X0088952Y0430060D01*
X0088952Y0429864D02*
X0087968Y0429864D01*
X0087968Y0429669D02*
X0088952Y0429669D01*
X0070893Y0368301D02*
X0061444Y0368301D01*
X0070893Y0358852D01*
X0070893Y0368301D01*
X0070893Y0368130D02*
X0061616Y0368130D01*
X0061811Y0367934D02*
X0070893Y0367934D01*
X0070893Y0367739D02*
X0062006Y0367739D01*
X0062202Y0367544D02*
X0070893Y0367544D01*
X0070893Y0367348D02*
X0062397Y0367348D01*
X0062592Y0367153D02*
X0070893Y0367153D01*
X0070893Y0366958D02*
X0062788Y0366958D01*
X0062983Y0366762D02*
X0070893Y0366762D01*
X0070893Y0366567D02*
X0063178Y0366567D01*
X0063374Y0366372D02*
X0070893Y0366372D01*
X0070893Y0366176D02*
X0063569Y0366176D01*
X0063764Y0365981D02*
X0070893Y0365981D01*
X0070893Y0365786D02*
X0063960Y0365786D01*
X0064155Y0365590D02*
X0070893Y0365590D01*
X0070893Y0365395D02*
X0064351Y0365395D01*
X0064546Y0365199D02*
X0070893Y0365199D01*
X0070893Y0365004D02*
X0064741Y0365004D01*
X0064937Y0364809D02*
X0070893Y0364809D01*
X0070893Y0364613D02*
X0065132Y0364613D01*
X0065327Y0364418D02*
X0070893Y0364418D01*
X0070893Y0364223D02*
X0065523Y0364223D01*
X0065718Y0364027D02*
X0070893Y0364027D01*
X0070893Y0363832D02*
X0065913Y0363832D01*
X0066109Y0363637D02*
X0070893Y0363637D01*
X0070893Y0363441D02*
X0066304Y0363441D01*
X0066500Y0363246D02*
X0070893Y0363246D01*
X0070893Y0363050D02*
X0066695Y0363050D01*
X0066890Y0362855D02*
X0070893Y0362855D01*
X0070893Y0362660D02*
X0067086Y0362660D01*
X0067281Y0362464D02*
X0070893Y0362464D01*
X0070893Y0362269D02*
X0067476Y0362269D01*
X0067672Y0362074D02*
X0070893Y0362074D01*
X0070893Y0361878D02*
X0067867Y0361878D01*
X0068062Y0361683D02*
X0070893Y0361683D01*
X0070893Y0361488D02*
X0068258Y0361488D01*
X0068453Y0361292D02*
X0070893Y0361292D01*
X0070893Y0361097D02*
X0068649Y0361097D01*
X0068844Y0360901D02*
X0070893Y0360901D01*
X0070893Y0360706D02*
X0069039Y0360706D01*
X0069235Y0360511D02*
X0070893Y0360511D01*
X0070893Y0360315D02*
X0069430Y0360315D01*
X0069625Y0360120D02*
X0070893Y0360120D01*
X0070893Y0359925D02*
X0069821Y0359925D01*
X0070016Y0359729D02*
X0070893Y0359729D01*
X0070893Y0359534D02*
X0070211Y0359534D01*
X0070407Y0359339D02*
X0070893Y0359339D01*
X0070893Y0359143D02*
X0070602Y0359143D01*
X0070798Y0358948D02*
X0070893Y0358948D01*
X0077732Y0293923D02*
X0078716Y0293923D01*
X0078716Y0287525D01*
X0077732Y0287525D01*
X0077732Y0293923D01*
X0077732Y0293892D02*
X0078716Y0293892D01*
X0078716Y0293697D02*
X0077732Y0293697D01*
X0077732Y0293502D02*
X0078716Y0293502D01*
X0078716Y0293306D02*
X0077732Y0293306D01*
X0077732Y0293111D02*
X0078716Y0293111D01*
X0078716Y0292916D02*
X0077732Y0292916D01*
X0077732Y0292720D02*
X0078716Y0292720D01*
X0078716Y0292525D02*
X0077732Y0292525D01*
X0077732Y0292330D02*
X0078716Y0292330D01*
X0078716Y0292134D02*
X0077732Y0292134D01*
X0077732Y0291939D02*
X0078716Y0291939D01*
X0078716Y0291743D02*
X0077732Y0291743D01*
X0077732Y0291548D02*
X0078716Y0291548D01*
X0078716Y0291353D02*
X0077732Y0291353D01*
X0077732Y0291157D02*
X0078716Y0291157D01*
X0078716Y0290962D02*
X0077732Y0290962D01*
X0077732Y0290767D02*
X0078716Y0290767D01*
X0078716Y0290571D02*
X0077732Y0290571D01*
X0077732Y0290376D02*
X0078716Y0290376D01*
X0078716Y0290181D02*
X0077732Y0290181D01*
X0077732Y0289985D02*
X0078716Y0289985D01*
X0078716Y0289790D02*
X0077732Y0289790D01*
X0077732Y0289594D02*
X0078716Y0289594D01*
X0078716Y0289399D02*
X0077732Y0289399D01*
X0077732Y0289204D02*
X0078716Y0289204D01*
X0078716Y0289008D02*
X0077732Y0289008D01*
X0077732Y0288813D02*
X0078716Y0288813D01*
X0078716Y0288618D02*
X0077732Y0288618D01*
X0077732Y0288422D02*
X0078716Y0288422D01*
X0078716Y0288227D02*
X0077732Y0288227D01*
X0077732Y0288032D02*
X0078716Y0288032D01*
X0078716Y0287836D02*
X0077732Y0287836D01*
X0077732Y0287641D02*
X0078716Y0287641D01*
X0080291Y0287641D02*
X0081275Y0287641D01*
X0081275Y0287525D02*
X0081275Y0293923D01*
X0080291Y0293923D01*
X0080291Y0287525D01*
X0081275Y0287525D01*
X0081275Y0287836D02*
X0080291Y0287836D01*
X0080291Y0288032D02*
X0081275Y0288032D01*
X0081275Y0288227D02*
X0080291Y0288227D01*
X0080291Y0288422D02*
X0081275Y0288422D01*
X0081275Y0288618D02*
X0080291Y0288618D01*
X0080291Y0288813D02*
X0081275Y0288813D01*
X0081275Y0289008D02*
X0080291Y0289008D01*
X0080291Y0289204D02*
X0081275Y0289204D01*
X0081275Y0289399D02*
X0080291Y0289399D01*
X0080291Y0289594D02*
X0081275Y0289594D01*
X0081275Y0289790D02*
X0080291Y0289790D01*
X0080291Y0289985D02*
X0081275Y0289985D01*
X0081275Y0290181D02*
X0080291Y0290181D01*
X0080291Y0290376D02*
X0081275Y0290376D01*
X0081275Y0290571D02*
X0080291Y0290571D01*
X0080291Y0290767D02*
X0081275Y0290767D01*
X0081275Y0290962D02*
X0080291Y0290962D01*
X0080291Y0291157D02*
X0081275Y0291157D01*
X0081275Y0291353D02*
X0080291Y0291353D01*
X0080291Y0291548D02*
X0081275Y0291548D01*
X0081275Y0291743D02*
X0080291Y0291743D01*
X0080291Y0291939D02*
X0081275Y0291939D01*
X0081275Y0292134D02*
X0080291Y0292134D01*
X0080291Y0292330D02*
X0081275Y0292330D01*
X0081275Y0292525D02*
X0080291Y0292525D01*
X0080291Y0292720D02*
X0081275Y0292720D01*
X0081275Y0292916D02*
X0080291Y0292916D01*
X0080291Y0293111D02*
X0081275Y0293111D01*
X0081275Y0293306D02*
X0080291Y0293306D01*
X0080291Y0293502D02*
X0081275Y0293502D01*
X0081275Y0293697D02*
X0080291Y0293697D01*
X0080291Y0293892D02*
X0081275Y0293892D01*
X0082850Y0293892D02*
X0083834Y0293892D01*
X0083834Y0293923D02*
X0083834Y0287525D01*
X0082850Y0287525D01*
X0082850Y0293923D01*
X0083834Y0293923D01*
X0083834Y0293697D02*
X0082850Y0293697D01*
X0082850Y0293502D02*
X0083834Y0293502D01*
X0083834Y0293306D02*
X0082850Y0293306D01*
X0082850Y0293111D02*
X0083834Y0293111D01*
X0083834Y0292916D02*
X0082850Y0292916D01*
X0082850Y0292720D02*
X0083834Y0292720D01*
X0083834Y0292525D02*
X0082850Y0292525D01*
X0082850Y0292330D02*
X0083834Y0292330D01*
X0083834Y0292134D02*
X0082850Y0292134D01*
X0082850Y0291939D02*
X0083834Y0291939D01*
X0083834Y0291743D02*
X0082850Y0291743D01*
X0082850Y0291548D02*
X0083834Y0291548D01*
X0083834Y0291353D02*
X0082850Y0291353D01*
X0082850Y0291157D02*
X0083834Y0291157D01*
X0083834Y0290962D02*
X0082850Y0290962D01*
X0082850Y0290767D02*
X0083834Y0290767D01*
X0083834Y0290571D02*
X0082850Y0290571D01*
X0082850Y0290376D02*
X0083834Y0290376D01*
X0083834Y0290181D02*
X0082850Y0290181D01*
X0082850Y0289985D02*
X0083834Y0289985D01*
X0083834Y0289790D02*
X0082850Y0289790D01*
X0082850Y0289594D02*
X0083834Y0289594D01*
X0083834Y0289399D02*
X0082850Y0289399D01*
X0082850Y0289204D02*
X0083834Y0289204D01*
X0083834Y0289008D02*
X0082850Y0289008D01*
X0082850Y0288813D02*
X0083834Y0288813D01*
X0083834Y0288618D02*
X0082850Y0288618D01*
X0082850Y0288422D02*
X0083834Y0288422D01*
X0083834Y0288227D02*
X0082850Y0288227D01*
X0082850Y0288032D02*
X0083834Y0288032D01*
X0083834Y0287836D02*
X0082850Y0287836D01*
X0082850Y0287641D02*
X0083834Y0287641D01*
X0085409Y0287641D02*
X0086393Y0287641D01*
X0086393Y0287525D02*
X0086393Y0293923D01*
X0085409Y0293923D01*
X0085409Y0287525D01*
X0086393Y0287525D01*
X0086393Y0287836D02*
X0085409Y0287836D01*
X0085409Y0288032D02*
X0086393Y0288032D01*
X0086393Y0288227D02*
X0085409Y0288227D01*
X0085409Y0288422D02*
X0086393Y0288422D01*
X0086393Y0288618D02*
X0085409Y0288618D01*
X0085409Y0288813D02*
X0086393Y0288813D01*
X0086393Y0289008D02*
X0085409Y0289008D01*
X0085409Y0289204D02*
X0086393Y0289204D01*
X0086393Y0289399D02*
X0085409Y0289399D01*
X0085409Y0289594D02*
X0086393Y0289594D01*
X0086393Y0289790D02*
X0085409Y0289790D01*
X0085409Y0289985D02*
X0086393Y0289985D01*
X0086393Y0290181D02*
X0085409Y0290181D01*
X0085409Y0290376D02*
X0086393Y0290376D01*
X0086393Y0290571D02*
X0085409Y0290571D01*
X0085409Y0290767D02*
X0086393Y0290767D01*
X0086393Y0290962D02*
X0085409Y0290962D01*
X0085409Y0291157D02*
X0086393Y0291157D01*
X0086393Y0291353D02*
X0085409Y0291353D01*
X0085409Y0291548D02*
X0086393Y0291548D01*
X0086393Y0291743D02*
X0085409Y0291743D01*
X0085409Y0291939D02*
X0086393Y0291939D01*
X0086393Y0292134D02*
X0085409Y0292134D01*
X0085409Y0292330D02*
X0086393Y0292330D01*
X0086393Y0292525D02*
X0085409Y0292525D01*
X0085409Y0292720D02*
X0086393Y0292720D01*
X0086393Y0292916D02*
X0085409Y0292916D01*
X0085409Y0293111D02*
X0086393Y0293111D01*
X0086393Y0293306D02*
X0085409Y0293306D01*
X0085409Y0293502D02*
X0086393Y0293502D01*
X0086393Y0293697D02*
X0085409Y0293697D01*
X0085409Y0293892D02*
X0086393Y0293892D01*
X0087968Y0293892D02*
X0088952Y0293892D01*
X0088952Y0293923D02*
X0088952Y0287525D01*
X0087968Y0287525D01*
X0087968Y0293923D01*
X0088952Y0293923D01*
X0088952Y0293697D02*
X0087968Y0293697D01*
X0087968Y0293502D02*
X0088952Y0293502D01*
X0088952Y0293306D02*
X0087968Y0293306D01*
X0087968Y0293111D02*
X0088952Y0293111D01*
X0088952Y0292916D02*
X0087968Y0292916D01*
X0087968Y0292720D02*
X0088952Y0292720D01*
X0088952Y0292525D02*
X0087968Y0292525D01*
X0087968Y0292330D02*
X0088952Y0292330D01*
X0088952Y0292134D02*
X0087968Y0292134D01*
X0087968Y0291939D02*
X0088952Y0291939D01*
X0088952Y0291743D02*
X0087968Y0291743D01*
X0087968Y0291548D02*
X0088952Y0291548D01*
X0088952Y0291353D02*
X0087968Y0291353D01*
X0087968Y0291157D02*
X0088952Y0291157D01*
X0088952Y0290962D02*
X0087968Y0290962D01*
X0087968Y0290767D02*
X0088952Y0290767D01*
X0088952Y0290571D02*
X0087968Y0290571D01*
X0087968Y0290376D02*
X0088952Y0290376D01*
X0088952Y0290181D02*
X0087968Y0290181D01*
X0087968Y0289985D02*
X0088952Y0289985D01*
X0088952Y0289790D02*
X0087968Y0289790D01*
X0087968Y0289594D02*
X0088952Y0289594D01*
X0088952Y0289399D02*
X0087968Y0289399D01*
X0087968Y0289204D02*
X0088952Y0289204D01*
X0088952Y0289008D02*
X0087968Y0289008D01*
X0087968Y0288813D02*
X0088952Y0288813D01*
X0088952Y0288618D02*
X0087968Y0288618D01*
X0087968Y0288422D02*
X0088952Y0288422D01*
X0088952Y0288227D02*
X0087968Y0288227D01*
X0087968Y0288032D02*
X0088952Y0288032D01*
X0088952Y0287836D02*
X0087968Y0287836D01*
X0087968Y0287641D02*
X0088952Y0287641D01*
X0070893Y0226301D02*
X0061444Y0226301D01*
X0070893Y0216852D01*
X0070893Y0226301D01*
X0070893Y0226297D02*
X0061448Y0226297D01*
X0061643Y0226102D02*
X0070893Y0226102D01*
X0070893Y0225907D02*
X0061839Y0225907D01*
X0062034Y0225711D02*
X0070893Y0225711D01*
X0070893Y0225516D02*
X0062230Y0225516D01*
X0062425Y0225320D02*
X0070893Y0225320D01*
X0070893Y0225125D02*
X0062620Y0225125D01*
X0062816Y0224930D02*
X0070893Y0224930D01*
X0070893Y0224734D02*
X0063011Y0224734D01*
X0063206Y0224539D02*
X0070893Y0224539D01*
X0070893Y0224344D02*
X0063402Y0224344D01*
X0063597Y0224148D02*
X0070893Y0224148D01*
X0070893Y0223953D02*
X0063792Y0223953D01*
X0063988Y0223758D02*
X0070893Y0223758D01*
X0070893Y0223562D02*
X0064183Y0223562D01*
X0064379Y0223367D02*
X0070893Y0223367D01*
X0070893Y0223171D02*
X0064574Y0223171D01*
X0064769Y0222976D02*
X0070893Y0222976D01*
X0070893Y0222781D02*
X0064965Y0222781D01*
X0065160Y0222585D02*
X0070893Y0222585D01*
X0070893Y0222390D02*
X0065355Y0222390D01*
X0065551Y0222195D02*
X0070893Y0222195D01*
X0070893Y0221999D02*
X0065746Y0221999D01*
X0065941Y0221804D02*
X0070893Y0221804D01*
X0070893Y0221609D02*
X0066137Y0221609D01*
X0066332Y0221413D02*
X0070893Y0221413D01*
X0070893Y0221218D02*
X0066528Y0221218D01*
X0066723Y0221022D02*
X0070893Y0221022D01*
X0070893Y0220827D02*
X0066918Y0220827D01*
X0067114Y0220632D02*
X0070893Y0220632D01*
X0070893Y0220436D02*
X0067309Y0220436D01*
X0067504Y0220241D02*
X0070893Y0220241D01*
X0070893Y0220046D02*
X0067700Y0220046D01*
X0067895Y0219850D02*
X0070893Y0219850D01*
X0070893Y0219655D02*
X0068090Y0219655D01*
X0068286Y0219460D02*
X0070893Y0219460D01*
X0070893Y0219264D02*
X0068481Y0219264D01*
X0068676Y0219069D02*
X0070893Y0219069D01*
X0070893Y0218873D02*
X0068872Y0218873D01*
X0069067Y0218678D02*
X0070893Y0218678D01*
X0070893Y0218483D02*
X0069263Y0218483D01*
X0069458Y0218287D02*
X0070893Y0218287D01*
X0070893Y0218092D02*
X0069653Y0218092D01*
X0069849Y0217897D02*
X0070893Y0217897D01*
X0070893Y0217701D02*
X0070044Y0217701D01*
X0070239Y0217506D02*
X0070893Y0217506D01*
X0070893Y0217311D02*
X0070435Y0217311D01*
X0070630Y0217115D02*
X0070893Y0217115D01*
X0070893Y0216920D02*
X0070825Y0216920D01*
X0077732Y0151923D02*
X0078716Y0151923D01*
X0078716Y0145525D01*
X0077732Y0145525D01*
X0077732Y0151923D01*
X0077732Y0151864D02*
X0078716Y0151864D01*
X0078716Y0151669D02*
X0077732Y0151669D01*
X0077732Y0151474D02*
X0078716Y0151474D01*
X0078716Y0151278D02*
X0077732Y0151278D01*
X0077732Y0151083D02*
X0078716Y0151083D01*
X0078716Y0150888D02*
X0077732Y0150888D01*
X0077732Y0150692D02*
X0078716Y0150692D01*
X0078716Y0150497D02*
X0077732Y0150497D01*
X0077732Y0150302D02*
X0078716Y0150302D01*
X0078716Y0150106D02*
X0077732Y0150106D01*
X0077732Y0149911D02*
X0078716Y0149911D01*
X0078716Y0149715D02*
X0077732Y0149715D01*
X0077732Y0149520D02*
X0078716Y0149520D01*
X0078716Y0149325D02*
X0077732Y0149325D01*
X0077732Y0149129D02*
X0078716Y0149129D01*
X0078716Y0148934D02*
X0077732Y0148934D01*
X0077732Y0148739D02*
X0078716Y0148739D01*
X0078716Y0148543D02*
X0077732Y0148543D01*
X0077732Y0148348D02*
X0078716Y0148348D01*
X0078716Y0148153D02*
X0077732Y0148153D01*
X0077732Y0147957D02*
X0078716Y0147957D01*
X0078716Y0147762D02*
X0077732Y0147762D01*
X0077732Y0147566D02*
X0078716Y0147566D01*
X0078716Y0147371D02*
X0077732Y0147371D01*
X0077732Y0147176D02*
X0078716Y0147176D01*
X0078716Y0146980D02*
X0077732Y0146980D01*
X0077732Y0146785D02*
X0078716Y0146785D01*
X0078716Y0146590D02*
X0077732Y0146590D01*
X0077732Y0146394D02*
X0078716Y0146394D01*
X0078716Y0146199D02*
X0077732Y0146199D01*
X0077732Y0146004D02*
X0078716Y0146004D01*
X0078716Y0145808D02*
X0077732Y0145808D01*
X0077732Y0145613D02*
X0078716Y0145613D01*
X0080291Y0145613D02*
X0081275Y0145613D01*
X0081275Y0145525D02*
X0081275Y0151923D01*
X0080291Y0151923D01*
X0080291Y0145525D01*
X0081275Y0145525D01*
X0081275Y0145808D02*
X0080291Y0145808D01*
X0080291Y0146004D02*
X0081275Y0146004D01*
X0081275Y0146199D02*
X0080291Y0146199D01*
X0080291Y0146394D02*
X0081275Y0146394D01*
X0081275Y0146590D02*
X0080291Y0146590D01*
X0080291Y0146785D02*
X0081275Y0146785D01*
X0081275Y0146980D02*
X0080291Y0146980D01*
X0080291Y0147176D02*
X0081275Y0147176D01*
X0081275Y0147371D02*
X0080291Y0147371D01*
X0080291Y0147566D02*
X0081275Y0147566D01*
X0081275Y0147762D02*
X0080291Y0147762D01*
X0080291Y0147957D02*
X0081275Y0147957D01*
X0081275Y0148153D02*
X0080291Y0148153D01*
X0080291Y0148348D02*
X0081275Y0148348D01*
X0081275Y0148543D02*
X0080291Y0148543D01*
X0080291Y0148739D02*
X0081275Y0148739D01*
X0081275Y0148934D02*
X0080291Y0148934D01*
X0080291Y0149129D02*
X0081275Y0149129D01*
X0081275Y0149325D02*
X0080291Y0149325D01*
X0080291Y0149520D02*
X0081275Y0149520D01*
X0081275Y0149715D02*
X0080291Y0149715D01*
X0080291Y0149911D02*
X0081275Y0149911D01*
X0081275Y0150106D02*
X0080291Y0150106D01*
X0080291Y0150302D02*
X0081275Y0150302D01*
X0081275Y0150497D02*
X0080291Y0150497D01*
X0080291Y0150692D02*
X0081275Y0150692D01*
X0081275Y0150888D02*
X0080291Y0150888D01*
X0080291Y0151083D02*
X0081275Y0151083D01*
X0081275Y0151278D02*
X0080291Y0151278D01*
X0080291Y0151474D02*
X0081275Y0151474D01*
X0081275Y0151669D02*
X0080291Y0151669D01*
X0080291Y0151864D02*
X0081275Y0151864D01*
X0082850Y0151864D02*
X0083834Y0151864D01*
X0083834Y0151923D02*
X0083834Y0145525D01*
X0082850Y0145525D01*
X0082850Y0151923D01*
X0083834Y0151923D01*
X0083834Y0151669D02*
X0082850Y0151669D01*
X0082850Y0151474D02*
X0083834Y0151474D01*
X0083834Y0151278D02*
X0082850Y0151278D01*
X0082850Y0151083D02*
X0083834Y0151083D01*
X0083834Y0150888D02*
X0082850Y0150888D01*
X0082850Y0150692D02*
X0083834Y0150692D01*
X0083834Y0150497D02*
X0082850Y0150497D01*
X0082850Y0150302D02*
X0083834Y0150302D01*
X0083834Y0150106D02*
X0082850Y0150106D01*
X0082850Y0149911D02*
X0083834Y0149911D01*
X0083834Y0149715D02*
X0082850Y0149715D01*
X0082850Y0149520D02*
X0083834Y0149520D01*
X0083834Y0149325D02*
X0082850Y0149325D01*
X0082850Y0149129D02*
X0083834Y0149129D01*
X0083834Y0148934D02*
X0082850Y0148934D01*
X0082850Y0148739D02*
X0083834Y0148739D01*
X0083834Y0148543D02*
X0082850Y0148543D01*
X0082850Y0148348D02*
X0083834Y0148348D01*
X0083834Y0148153D02*
X0082850Y0148153D01*
X0082850Y0147957D02*
X0083834Y0147957D01*
X0083834Y0147762D02*
X0082850Y0147762D01*
X0082850Y0147566D02*
X0083834Y0147566D01*
X0083834Y0147371D02*
X0082850Y0147371D01*
X0082850Y0147176D02*
X0083834Y0147176D01*
X0083834Y0146980D02*
X0082850Y0146980D01*
X0082850Y0146785D02*
X0083834Y0146785D01*
X0083834Y0146590D02*
X0082850Y0146590D01*
X0082850Y0146394D02*
X0083834Y0146394D01*
X0083834Y0146199D02*
X0082850Y0146199D01*
X0082850Y0146004D02*
X0083834Y0146004D01*
X0083834Y0145808D02*
X0082850Y0145808D01*
X0082850Y0145613D02*
X0083834Y0145613D01*
X0085409Y0145613D02*
X0086393Y0145613D01*
X0086393Y0145525D02*
X0086393Y0151923D01*
X0085409Y0151923D01*
X0085409Y0145525D01*
X0086393Y0145525D01*
X0086393Y0145808D02*
X0085409Y0145808D01*
X0085409Y0146004D02*
X0086393Y0146004D01*
X0086393Y0146199D02*
X0085409Y0146199D01*
X0085409Y0146394D02*
X0086393Y0146394D01*
X0086393Y0146590D02*
X0085409Y0146590D01*
X0085409Y0146785D02*
X0086393Y0146785D01*
X0086393Y0146980D02*
X0085409Y0146980D01*
X0085409Y0147176D02*
X0086393Y0147176D01*
X0086393Y0147371D02*
X0085409Y0147371D01*
X0085409Y0147566D02*
X0086393Y0147566D01*
X0086393Y0147762D02*
X0085409Y0147762D01*
X0085409Y0147957D02*
X0086393Y0147957D01*
X0086393Y0148153D02*
X0085409Y0148153D01*
X0085409Y0148348D02*
X0086393Y0148348D01*
X0086393Y0148543D02*
X0085409Y0148543D01*
X0085409Y0148739D02*
X0086393Y0148739D01*
X0086393Y0148934D02*
X0085409Y0148934D01*
X0085409Y0149129D02*
X0086393Y0149129D01*
X0086393Y0149325D02*
X0085409Y0149325D01*
X0085409Y0149520D02*
X0086393Y0149520D01*
X0086393Y0149715D02*
X0085409Y0149715D01*
X0085409Y0149911D02*
X0086393Y0149911D01*
X0086393Y0150106D02*
X0085409Y0150106D01*
X0085409Y0150302D02*
X0086393Y0150302D01*
X0086393Y0150497D02*
X0085409Y0150497D01*
X0085409Y0150692D02*
X0086393Y0150692D01*
X0086393Y0150888D02*
X0085409Y0150888D01*
X0085409Y0151083D02*
X0086393Y0151083D01*
X0086393Y0151278D02*
X0085409Y0151278D01*
X0085409Y0151474D02*
X0086393Y0151474D01*
X0086393Y0151669D02*
X0085409Y0151669D01*
X0085409Y0151864D02*
X0086393Y0151864D01*
X0087968Y0151864D02*
X0088952Y0151864D01*
X0088952Y0151923D02*
X0088952Y0145525D01*
X0087968Y0145525D01*
X0087968Y0151923D01*
X0088952Y0151923D01*
X0088952Y0151669D02*
X0087968Y0151669D01*
X0087968Y0151474D02*
X0088952Y0151474D01*
X0088952Y0151278D02*
X0087968Y0151278D01*
X0087968Y0151083D02*
X0088952Y0151083D01*
X0088952Y0150888D02*
X0087968Y0150888D01*
X0087968Y0150692D02*
X0088952Y0150692D01*
X0088952Y0150497D02*
X0087968Y0150497D01*
X0087968Y0150302D02*
X0088952Y0150302D01*
X0088952Y0150106D02*
X0087968Y0150106D01*
X0087968Y0149911D02*
X0088952Y0149911D01*
X0088952Y0149715D02*
X0087968Y0149715D01*
X0087968Y0149520D02*
X0088952Y0149520D01*
X0088952Y0149325D02*
X0087968Y0149325D01*
X0087968Y0149129D02*
X0088952Y0149129D01*
X0088952Y0148934D02*
X0087968Y0148934D01*
X0087968Y0148739D02*
X0088952Y0148739D01*
X0088952Y0148543D02*
X0087968Y0148543D01*
X0087968Y0148348D02*
X0088952Y0148348D01*
X0088952Y0148153D02*
X0087968Y0148153D01*
X0087968Y0147957D02*
X0088952Y0147957D01*
X0088952Y0147762D02*
X0087968Y0147762D01*
X0087968Y0147566D02*
X0088952Y0147566D01*
X0088952Y0147371D02*
X0087968Y0147371D01*
X0087968Y0147176D02*
X0088952Y0147176D01*
X0088952Y0146980D02*
X0087968Y0146980D01*
X0087968Y0146785D02*
X0088952Y0146785D01*
X0088952Y0146590D02*
X0087968Y0146590D01*
X0087968Y0146394D02*
X0088952Y0146394D01*
X0088952Y0146199D02*
X0087968Y0146199D01*
X0087968Y0146004D02*
X0088952Y0146004D01*
X0088952Y0145808D02*
X0087968Y0145808D01*
X0087968Y0145613D02*
X0088952Y0145613D01*
X0070893Y0084301D02*
X0061444Y0084301D01*
X0070893Y0074852D01*
X0070893Y0084301D01*
X0070893Y0084269D02*
X0061476Y0084269D01*
X0061671Y0084074D02*
X0070893Y0084074D01*
X0070893Y0083879D02*
X0061867Y0083879D01*
X0062062Y0083683D02*
X0070893Y0083683D01*
X0070893Y0083488D02*
X0062258Y0083488D01*
X0062453Y0083292D02*
X0070893Y0083292D01*
X0070893Y0083097D02*
X0062648Y0083097D01*
X0062844Y0082902D02*
X0070893Y0082902D01*
X0070893Y0082706D02*
X0063039Y0082706D01*
X0063234Y0082511D02*
X0070893Y0082511D01*
X0070893Y0082316D02*
X0063430Y0082316D01*
X0063625Y0082120D02*
X0070893Y0082120D01*
X0070893Y0081925D02*
X0063820Y0081925D01*
X0064016Y0081730D02*
X0070893Y0081730D01*
X0070893Y0081534D02*
X0064211Y0081534D01*
X0064406Y0081339D02*
X0070893Y0081339D01*
X0070893Y0081143D02*
X0064602Y0081143D01*
X0064797Y0080948D02*
X0070893Y0080948D01*
X0070893Y0080753D02*
X0064993Y0080753D01*
X0065188Y0080557D02*
X0070893Y0080557D01*
X0070893Y0080362D02*
X0065383Y0080362D01*
X0065579Y0080167D02*
X0070893Y0080167D01*
X0070893Y0079971D02*
X0065774Y0079971D01*
X0065969Y0079776D02*
X0070893Y0079776D01*
X0070893Y0079581D02*
X0066165Y0079581D01*
X0066360Y0079385D02*
X0070893Y0079385D01*
X0070893Y0079190D02*
X0066555Y0079190D01*
X0066751Y0078995D02*
X0070893Y0078995D01*
X0070893Y0078799D02*
X0066946Y0078799D01*
X0067142Y0078604D02*
X0070893Y0078604D01*
X0070893Y0078408D02*
X0067337Y0078408D01*
X0067532Y0078213D02*
X0070893Y0078213D01*
X0070893Y0078018D02*
X0067728Y0078018D01*
X0067923Y0077822D02*
X0070893Y0077822D01*
X0070893Y0077627D02*
X0068118Y0077627D01*
X0068314Y0077432D02*
X0070893Y0077432D01*
X0070893Y0077236D02*
X0068509Y0077236D01*
X0068704Y0077041D02*
X0070893Y0077041D01*
X0070893Y0076846D02*
X0068900Y0076846D01*
X0069095Y0076650D02*
X0070893Y0076650D01*
X0070893Y0076455D02*
X0069291Y0076455D01*
X0069486Y0076259D02*
X0070893Y0076259D01*
X0070893Y0076064D02*
X0069681Y0076064D01*
X0069877Y0075869D02*
X0070893Y0075869D01*
X0070893Y0075673D02*
X0070072Y0075673D01*
X0070267Y0075478D02*
X0070893Y0075478D01*
X0070893Y0075283D02*
X0070463Y0075283D01*
X0070658Y0075087D02*
X0070893Y0075087D01*
X0070893Y0074892D02*
X0070853Y0074892D01*
X0223444Y0084301D02*
X0232893Y0074852D01*
X0232893Y0084301D01*
X0223444Y0084301D01*
X0223476Y0084269D02*
X0232893Y0084269D01*
X0232893Y0084074D02*
X0223671Y0084074D01*
X0223867Y0083879D02*
X0232893Y0083879D01*
X0232893Y0083683D02*
X0224062Y0083683D01*
X0224258Y0083488D02*
X0232893Y0083488D01*
X0232893Y0083292D02*
X0224453Y0083292D01*
X0224648Y0083097D02*
X0232893Y0083097D01*
X0232893Y0082902D02*
X0224844Y0082902D01*
X0225039Y0082706D02*
X0232893Y0082706D01*
X0232893Y0082511D02*
X0225234Y0082511D01*
X0225430Y0082316D02*
X0232893Y0082316D01*
X0232893Y0082120D02*
X0225625Y0082120D01*
X0225820Y0081925D02*
X0232893Y0081925D01*
X0232893Y0081730D02*
X0226016Y0081730D01*
X0226211Y0081534D02*
X0232893Y0081534D01*
X0232893Y0081339D02*
X0226406Y0081339D01*
X0226602Y0081143D02*
X0232893Y0081143D01*
X0232893Y0080948D02*
X0226797Y0080948D01*
X0226993Y0080753D02*
X0232893Y0080753D01*
X0232893Y0080557D02*
X0227188Y0080557D01*
X0227383Y0080362D02*
X0232893Y0080362D01*
X0232893Y0080167D02*
X0227579Y0080167D01*
X0227774Y0079971D02*
X0232893Y0079971D01*
X0232893Y0079776D02*
X0227969Y0079776D01*
X0228165Y0079581D02*
X0232893Y0079581D01*
X0232893Y0079385D02*
X0228360Y0079385D01*
X0228555Y0079190D02*
X0232893Y0079190D01*
X0232893Y0078995D02*
X0228751Y0078995D01*
X0228946Y0078799D02*
X0232893Y0078799D01*
X0232893Y0078604D02*
X0229142Y0078604D01*
X0229337Y0078408D02*
X0232893Y0078408D01*
X0232893Y0078213D02*
X0229532Y0078213D01*
X0229728Y0078018D02*
X0232893Y0078018D01*
X0232893Y0077822D02*
X0229923Y0077822D01*
X0230118Y0077627D02*
X0232893Y0077627D01*
X0232893Y0077432D02*
X0230314Y0077432D01*
X0230509Y0077236D02*
X0232893Y0077236D01*
X0232893Y0077041D02*
X0230704Y0077041D01*
X0230900Y0076846D02*
X0232893Y0076846D01*
X0232893Y0076650D02*
X0231095Y0076650D01*
X0231291Y0076455D02*
X0232893Y0076455D01*
X0232893Y0076259D02*
X0231486Y0076259D01*
X0231681Y0076064D02*
X0232893Y0076064D01*
X0232893Y0075869D02*
X0231877Y0075869D01*
X0232072Y0075673D02*
X0232893Y0075673D01*
X0232893Y0075478D02*
X0232267Y0075478D01*
X0232463Y0075283D02*
X0232893Y0075283D01*
X0232893Y0075087D02*
X0232658Y0075087D01*
X0232853Y0074892D02*
X0232893Y0074892D01*
X0239732Y0145525D02*
X0239732Y0151923D01*
X0240716Y0151923D01*
X0240716Y0145525D01*
X0239732Y0145525D01*
X0239732Y0145613D02*
X0240716Y0145613D01*
X0240716Y0145808D02*
X0239732Y0145808D01*
X0239732Y0146004D02*
X0240716Y0146004D01*
X0240716Y0146199D02*
X0239732Y0146199D01*
X0239732Y0146394D02*
X0240716Y0146394D01*
X0240716Y0146590D02*
X0239732Y0146590D01*
X0239732Y0146785D02*
X0240716Y0146785D01*
X0240716Y0146980D02*
X0239732Y0146980D01*
X0239732Y0147176D02*
X0240716Y0147176D01*
X0240716Y0147371D02*
X0239732Y0147371D01*
X0239732Y0147566D02*
X0240716Y0147566D01*
X0240716Y0147762D02*
X0239732Y0147762D01*
X0239732Y0147957D02*
X0240716Y0147957D01*
X0240716Y0148153D02*
X0239732Y0148153D01*
X0239732Y0148348D02*
X0240716Y0148348D01*
X0240716Y0148543D02*
X0239732Y0148543D01*
X0239732Y0148739D02*
X0240716Y0148739D01*
X0240716Y0148934D02*
X0239732Y0148934D01*
X0239732Y0149129D02*
X0240716Y0149129D01*
X0240716Y0149325D02*
X0239732Y0149325D01*
X0239732Y0149520D02*
X0240716Y0149520D01*
X0240716Y0149715D02*
X0239732Y0149715D01*
X0239732Y0149911D02*
X0240716Y0149911D01*
X0240716Y0150106D02*
X0239732Y0150106D01*
X0239732Y0150302D02*
X0240716Y0150302D01*
X0240716Y0150497D02*
X0239732Y0150497D01*
X0239732Y0150692D02*
X0240716Y0150692D01*
X0240716Y0150888D02*
X0239732Y0150888D01*
X0239732Y0151083D02*
X0240716Y0151083D01*
X0240716Y0151278D02*
X0239732Y0151278D01*
X0239732Y0151474D02*
X0240716Y0151474D01*
X0240716Y0151669D02*
X0239732Y0151669D01*
X0239732Y0151864D02*
X0240716Y0151864D01*
X0242291Y0151864D02*
X0243275Y0151864D01*
X0243275Y0151923D02*
X0243275Y0145525D01*
X0242291Y0145525D01*
X0242291Y0151923D01*
X0243275Y0151923D01*
X0243275Y0151669D02*
X0242291Y0151669D01*
X0242291Y0151474D02*
X0243275Y0151474D01*
X0243275Y0151278D02*
X0242291Y0151278D01*
X0242291Y0151083D02*
X0243275Y0151083D01*
X0243275Y0150888D02*
X0242291Y0150888D01*
X0242291Y0150692D02*
X0243275Y0150692D01*
X0243275Y0150497D02*
X0242291Y0150497D01*
X0242291Y0150302D02*
X0243275Y0150302D01*
X0243275Y0150106D02*
X0242291Y0150106D01*
X0242291Y0149911D02*
X0243275Y0149911D01*
X0243275Y0149715D02*
X0242291Y0149715D01*
X0242291Y0149520D02*
X0243275Y0149520D01*
X0243275Y0149325D02*
X0242291Y0149325D01*
X0242291Y0149129D02*
X0243275Y0149129D01*
X0243275Y0148934D02*
X0242291Y0148934D01*
X0242291Y0148739D02*
X0243275Y0148739D01*
X0243275Y0148543D02*
X0242291Y0148543D01*
X0242291Y0148348D02*
X0243275Y0148348D01*
X0243275Y0148153D02*
X0242291Y0148153D01*
X0242291Y0147957D02*
X0243275Y0147957D01*
X0243275Y0147762D02*
X0242291Y0147762D01*
X0242291Y0147566D02*
X0243275Y0147566D01*
X0243275Y0147371D02*
X0242291Y0147371D01*
X0242291Y0147176D02*
X0243275Y0147176D01*
X0243275Y0146980D02*
X0242291Y0146980D01*
X0242291Y0146785D02*
X0243275Y0146785D01*
X0243275Y0146590D02*
X0242291Y0146590D01*
X0242291Y0146394D02*
X0243275Y0146394D01*
X0243275Y0146199D02*
X0242291Y0146199D01*
X0242291Y0146004D02*
X0243275Y0146004D01*
X0243275Y0145808D02*
X0242291Y0145808D01*
X0242291Y0145613D02*
X0243275Y0145613D01*
X0244850Y0145613D02*
X0245834Y0145613D01*
X0245834Y0145525D02*
X0245834Y0151923D01*
X0244850Y0151923D01*
X0244850Y0145525D01*
X0245834Y0145525D01*
X0245834Y0145808D02*
X0244850Y0145808D01*
X0244850Y0146004D02*
X0245834Y0146004D01*
X0245834Y0146199D02*
X0244850Y0146199D01*
X0244850Y0146394D02*
X0245834Y0146394D01*
X0245834Y0146590D02*
X0244850Y0146590D01*
X0244850Y0146785D02*
X0245834Y0146785D01*
X0245834Y0146980D02*
X0244850Y0146980D01*
X0244850Y0147176D02*
X0245834Y0147176D01*
X0245834Y0147371D02*
X0244850Y0147371D01*
X0244850Y0147566D02*
X0245834Y0147566D01*
X0245834Y0147762D02*
X0244850Y0147762D01*
X0244850Y0147957D02*
X0245834Y0147957D01*
X0245834Y0148153D02*
X0244850Y0148153D01*
X0244850Y0148348D02*
X0245834Y0148348D01*
X0245834Y0148543D02*
X0244850Y0148543D01*
X0244850Y0148739D02*
X0245834Y0148739D01*
X0245834Y0148934D02*
X0244850Y0148934D01*
X0244850Y0149129D02*
X0245834Y0149129D01*
X0245834Y0149325D02*
X0244850Y0149325D01*
X0244850Y0149520D02*
X0245834Y0149520D01*
X0245834Y0149715D02*
X0244850Y0149715D01*
X0244850Y0149911D02*
X0245834Y0149911D01*
X0245834Y0150106D02*
X0244850Y0150106D01*
X0244850Y0150302D02*
X0245834Y0150302D01*
X0245834Y0150497D02*
X0244850Y0150497D01*
X0244850Y0150692D02*
X0245834Y0150692D01*
X0245834Y0150888D02*
X0244850Y0150888D01*
X0244850Y0151083D02*
X0245834Y0151083D01*
X0245834Y0151278D02*
X0244850Y0151278D01*
X0244850Y0151474D02*
X0245834Y0151474D01*
X0245834Y0151669D02*
X0244850Y0151669D01*
X0244850Y0151864D02*
X0245834Y0151864D01*
X0247409Y0151864D02*
X0248393Y0151864D01*
X0248393Y0151923D02*
X0248393Y0145525D01*
X0247409Y0145525D01*
X0247409Y0151923D01*
X0248393Y0151923D01*
X0248393Y0151669D02*
X0247409Y0151669D01*
X0247409Y0151474D02*
X0248393Y0151474D01*
X0248393Y0151278D02*
X0247409Y0151278D01*
X0247409Y0151083D02*
X0248393Y0151083D01*
X0248393Y0150888D02*
X0247409Y0150888D01*
X0247409Y0150692D02*
X0248393Y0150692D01*
X0248393Y0150497D02*
X0247409Y0150497D01*
X0247409Y0150302D02*
X0248393Y0150302D01*
X0248393Y0150106D02*
X0247409Y0150106D01*
X0247409Y0149911D02*
X0248393Y0149911D01*
X0248393Y0149715D02*
X0247409Y0149715D01*
X0247409Y0149520D02*
X0248393Y0149520D01*
X0248393Y0149325D02*
X0247409Y0149325D01*
X0247409Y0149129D02*
X0248393Y0149129D01*
X0248393Y0148934D02*
X0247409Y0148934D01*
X0247409Y0148739D02*
X0248393Y0148739D01*
X0248393Y0148543D02*
X0247409Y0148543D01*
X0247409Y0148348D02*
X0248393Y0148348D01*
X0248393Y0148153D02*
X0247409Y0148153D01*
X0247409Y0147957D02*
X0248393Y0147957D01*
X0248393Y0147762D02*
X0247409Y0147762D01*
X0247409Y0147566D02*
X0248393Y0147566D01*
X0248393Y0147371D02*
X0247409Y0147371D01*
X0247409Y0147176D02*
X0248393Y0147176D01*
X0248393Y0146980D02*
X0247409Y0146980D01*
X0247409Y0146785D02*
X0248393Y0146785D01*
X0248393Y0146590D02*
X0247409Y0146590D01*
X0247409Y0146394D02*
X0248393Y0146394D01*
X0248393Y0146199D02*
X0247409Y0146199D01*
X0247409Y0146004D02*
X0248393Y0146004D01*
X0248393Y0145808D02*
X0247409Y0145808D01*
X0247409Y0145613D02*
X0248393Y0145613D01*
X0249968Y0145613D02*
X0250952Y0145613D01*
X0250952Y0145525D02*
X0250952Y0151923D01*
X0249968Y0151923D01*
X0249968Y0145525D01*
X0250952Y0145525D01*
X0250952Y0145808D02*
X0249968Y0145808D01*
X0249968Y0146004D02*
X0250952Y0146004D01*
X0250952Y0146199D02*
X0249968Y0146199D01*
X0249968Y0146394D02*
X0250952Y0146394D01*
X0250952Y0146590D02*
X0249968Y0146590D01*
X0249968Y0146785D02*
X0250952Y0146785D01*
X0250952Y0146980D02*
X0249968Y0146980D01*
X0249968Y0147176D02*
X0250952Y0147176D01*
X0250952Y0147371D02*
X0249968Y0147371D01*
X0249968Y0147566D02*
X0250952Y0147566D01*
X0250952Y0147762D02*
X0249968Y0147762D01*
X0249968Y0147957D02*
X0250952Y0147957D01*
X0250952Y0148153D02*
X0249968Y0148153D01*
X0249968Y0148348D02*
X0250952Y0148348D01*
X0250952Y0148543D02*
X0249968Y0148543D01*
X0249968Y0148739D02*
X0250952Y0148739D01*
X0250952Y0148934D02*
X0249968Y0148934D01*
X0249968Y0149129D02*
X0250952Y0149129D01*
X0250952Y0149325D02*
X0249968Y0149325D01*
X0249968Y0149520D02*
X0250952Y0149520D01*
X0250952Y0149715D02*
X0249968Y0149715D01*
X0249968Y0149911D02*
X0250952Y0149911D01*
X0250952Y0150106D02*
X0249968Y0150106D01*
X0249968Y0150302D02*
X0250952Y0150302D01*
X0250952Y0150497D02*
X0249968Y0150497D01*
X0249968Y0150692D02*
X0250952Y0150692D01*
X0250952Y0150888D02*
X0249968Y0150888D01*
X0249968Y0151083D02*
X0250952Y0151083D01*
X0250952Y0151278D02*
X0249968Y0151278D01*
X0249968Y0151474D02*
X0250952Y0151474D01*
X0250952Y0151669D02*
X0249968Y0151669D01*
X0249968Y0151864D02*
X0250952Y0151864D01*
X0232893Y0216852D02*
X0223444Y0226301D01*
X0232893Y0226301D01*
X0232893Y0216852D01*
X0232893Y0216920D02*
X0232825Y0216920D01*
X0232893Y0217115D02*
X0232630Y0217115D01*
X0232435Y0217311D02*
X0232893Y0217311D01*
X0232893Y0217506D02*
X0232239Y0217506D01*
X0232044Y0217701D02*
X0232893Y0217701D01*
X0232893Y0217897D02*
X0231849Y0217897D01*
X0231653Y0218092D02*
X0232893Y0218092D01*
X0232893Y0218287D02*
X0231458Y0218287D01*
X0231263Y0218483D02*
X0232893Y0218483D01*
X0232893Y0218678D02*
X0231067Y0218678D01*
X0230872Y0218873D02*
X0232893Y0218873D01*
X0232893Y0219069D02*
X0230676Y0219069D01*
X0230481Y0219264D02*
X0232893Y0219264D01*
X0232893Y0219460D02*
X0230286Y0219460D01*
X0230090Y0219655D02*
X0232893Y0219655D01*
X0232893Y0219850D02*
X0229895Y0219850D01*
X0229700Y0220046D02*
X0232893Y0220046D01*
X0232893Y0220241D02*
X0229504Y0220241D01*
X0229309Y0220436D02*
X0232893Y0220436D01*
X0232893Y0220632D02*
X0229114Y0220632D01*
X0228918Y0220827D02*
X0232893Y0220827D01*
X0232893Y0221022D02*
X0228723Y0221022D01*
X0228528Y0221218D02*
X0232893Y0221218D01*
X0232893Y0221413D02*
X0228332Y0221413D01*
X0228137Y0221609D02*
X0232893Y0221609D01*
X0232893Y0221804D02*
X0227941Y0221804D01*
X0227746Y0221999D02*
X0232893Y0221999D01*
X0232893Y0222195D02*
X0227551Y0222195D01*
X0227355Y0222390D02*
X0232893Y0222390D01*
X0232893Y0222585D02*
X0227160Y0222585D01*
X0226965Y0222781D02*
X0232893Y0222781D01*
X0232893Y0222976D02*
X0226769Y0222976D01*
X0226574Y0223171D02*
X0232893Y0223171D01*
X0232893Y0223367D02*
X0226379Y0223367D01*
X0226183Y0223562D02*
X0232893Y0223562D01*
X0232893Y0223758D02*
X0225988Y0223758D01*
X0225792Y0223953D02*
X0232893Y0223953D01*
X0232893Y0224148D02*
X0225597Y0224148D01*
X0225402Y0224344D02*
X0232893Y0224344D01*
X0232893Y0224539D02*
X0225206Y0224539D01*
X0225011Y0224734D02*
X0232893Y0224734D01*
X0232893Y0224930D02*
X0224816Y0224930D01*
X0224620Y0225125D02*
X0232893Y0225125D01*
X0232893Y0225320D02*
X0224425Y0225320D01*
X0224230Y0225516D02*
X0232893Y0225516D01*
X0232893Y0225711D02*
X0224034Y0225711D01*
X0223839Y0225907D02*
X0232893Y0225907D01*
X0232893Y0226102D02*
X0223643Y0226102D01*
X0223448Y0226297D02*
X0232893Y0226297D01*
X0239732Y0287525D02*
X0239732Y0293923D01*
X0240716Y0293923D01*
X0240716Y0287525D01*
X0239732Y0287525D01*
X0239732Y0287641D02*
X0240716Y0287641D01*
X0240716Y0287836D02*
X0239732Y0287836D01*
X0239732Y0288032D02*
X0240716Y0288032D01*
X0240716Y0288227D02*
X0239732Y0288227D01*
X0239732Y0288422D02*
X0240716Y0288422D01*
X0240716Y0288618D02*
X0239732Y0288618D01*
X0239732Y0288813D02*
X0240716Y0288813D01*
X0240716Y0289008D02*
X0239732Y0289008D01*
X0239732Y0289204D02*
X0240716Y0289204D01*
X0240716Y0289399D02*
X0239732Y0289399D01*
X0239732Y0289594D02*
X0240716Y0289594D01*
X0240716Y0289790D02*
X0239732Y0289790D01*
X0239732Y0289985D02*
X0240716Y0289985D01*
X0240716Y0290181D02*
X0239732Y0290181D01*
X0239732Y0290376D02*
X0240716Y0290376D01*
X0240716Y0290571D02*
X0239732Y0290571D01*
X0239732Y0290767D02*
X0240716Y0290767D01*
X0240716Y0290962D02*
X0239732Y0290962D01*
X0239732Y0291157D02*
X0240716Y0291157D01*
X0240716Y0291353D02*
X0239732Y0291353D01*
X0239732Y0291548D02*
X0240716Y0291548D01*
X0240716Y0291743D02*
X0239732Y0291743D01*
X0239732Y0291939D02*
X0240716Y0291939D01*
X0240716Y0292134D02*
X0239732Y0292134D01*
X0239732Y0292330D02*
X0240716Y0292330D01*
X0240716Y0292525D02*
X0239732Y0292525D01*
X0239732Y0292720D02*
X0240716Y0292720D01*
X0240716Y0292916D02*
X0239732Y0292916D01*
X0239732Y0293111D02*
X0240716Y0293111D01*
X0240716Y0293306D02*
X0239732Y0293306D01*
X0239732Y0293502D02*
X0240716Y0293502D01*
X0240716Y0293697D02*
X0239732Y0293697D01*
X0239732Y0293892D02*
X0240716Y0293892D01*
X0242291Y0293892D02*
X0243275Y0293892D01*
X0243275Y0293923D02*
X0243275Y0287525D01*
X0242291Y0287525D01*
X0242291Y0293923D01*
X0243275Y0293923D01*
X0243275Y0293697D02*
X0242291Y0293697D01*
X0242291Y0293502D02*
X0243275Y0293502D01*
X0243275Y0293306D02*
X0242291Y0293306D01*
X0242291Y0293111D02*
X0243275Y0293111D01*
X0243275Y0292916D02*
X0242291Y0292916D01*
X0242291Y0292720D02*
X0243275Y0292720D01*
X0243275Y0292525D02*
X0242291Y0292525D01*
X0242291Y0292330D02*
X0243275Y0292330D01*
X0243275Y0292134D02*
X0242291Y0292134D01*
X0242291Y0291939D02*
X0243275Y0291939D01*
X0243275Y0291743D02*
X0242291Y0291743D01*
X0242291Y0291548D02*
X0243275Y0291548D01*
X0243275Y0291353D02*
X0242291Y0291353D01*
X0242291Y0291157D02*
X0243275Y0291157D01*
X0243275Y0290962D02*
X0242291Y0290962D01*
X0242291Y0290767D02*
X0243275Y0290767D01*
X0243275Y0290571D02*
X0242291Y0290571D01*
X0242291Y0290376D02*
X0243275Y0290376D01*
X0243275Y0290181D02*
X0242291Y0290181D01*
X0242291Y0289985D02*
X0243275Y0289985D01*
X0243275Y0289790D02*
X0242291Y0289790D01*
X0242291Y0289594D02*
X0243275Y0289594D01*
X0243275Y0289399D02*
X0242291Y0289399D01*
X0242291Y0289204D02*
X0243275Y0289204D01*
X0243275Y0289008D02*
X0242291Y0289008D01*
X0242291Y0288813D02*
X0243275Y0288813D01*
X0243275Y0288618D02*
X0242291Y0288618D01*
X0242291Y0288422D02*
X0243275Y0288422D01*
X0243275Y0288227D02*
X0242291Y0288227D01*
X0242291Y0288032D02*
X0243275Y0288032D01*
X0243275Y0287836D02*
X0242291Y0287836D01*
X0242291Y0287641D02*
X0243275Y0287641D01*
X0244850Y0287641D02*
X0245834Y0287641D01*
X0245834Y0287525D02*
X0245834Y0293923D01*
X0244850Y0293923D01*
X0244850Y0287525D01*
X0245834Y0287525D01*
X0245834Y0287836D02*
X0244850Y0287836D01*
X0244850Y0288032D02*
X0245834Y0288032D01*
X0245834Y0288227D02*
X0244850Y0288227D01*
X0244850Y0288422D02*
X0245834Y0288422D01*
X0245834Y0288618D02*
X0244850Y0288618D01*
X0244850Y0288813D02*
X0245834Y0288813D01*
X0245834Y0289008D02*
X0244850Y0289008D01*
X0244850Y0289204D02*
X0245834Y0289204D01*
X0245834Y0289399D02*
X0244850Y0289399D01*
X0244850Y0289594D02*
X0245834Y0289594D01*
X0245834Y0289790D02*
X0244850Y0289790D01*
X0244850Y0289985D02*
X0245834Y0289985D01*
X0245834Y0290181D02*
X0244850Y0290181D01*
X0244850Y0290376D02*
X0245834Y0290376D01*
X0245834Y0290571D02*
X0244850Y0290571D01*
X0244850Y0290767D02*
X0245834Y0290767D01*
X0245834Y0290962D02*
X0244850Y0290962D01*
X0244850Y0291157D02*
X0245834Y0291157D01*
X0245834Y0291353D02*
X0244850Y0291353D01*
X0244850Y0291548D02*
X0245834Y0291548D01*
X0245834Y0291743D02*
X0244850Y0291743D01*
X0244850Y0291939D02*
X0245834Y0291939D01*
X0245834Y0292134D02*
X0244850Y0292134D01*
X0244850Y0292330D02*
X0245834Y0292330D01*
X0245834Y0292525D02*
X0244850Y0292525D01*
X0244850Y0292720D02*
X0245834Y0292720D01*
X0245834Y0292916D02*
X0244850Y0292916D01*
X0244850Y0293111D02*
X0245834Y0293111D01*
X0245834Y0293306D02*
X0244850Y0293306D01*
X0244850Y0293502D02*
X0245834Y0293502D01*
X0245834Y0293697D02*
X0244850Y0293697D01*
X0244850Y0293892D02*
X0245834Y0293892D01*
X0247409Y0293892D02*
X0248393Y0293892D01*
X0248393Y0293923D02*
X0248393Y0287525D01*
X0247409Y0287525D01*
X0247409Y0293923D01*
X0248393Y0293923D01*
X0248393Y0293697D02*
X0247409Y0293697D01*
X0247409Y0293502D02*
X0248393Y0293502D01*
X0248393Y0293306D02*
X0247409Y0293306D01*
X0247409Y0293111D02*
X0248393Y0293111D01*
X0248393Y0292916D02*
X0247409Y0292916D01*
X0247409Y0292720D02*
X0248393Y0292720D01*
X0248393Y0292525D02*
X0247409Y0292525D01*
X0247409Y0292330D02*
X0248393Y0292330D01*
X0248393Y0292134D02*
X0247409Y0292134D01*
X0247409Y0291939D02*
X0248393Y0291939D01*
X0248393Y0291743D02*
X0247409Y0291743D01*
X0247409Y0291548D02*
X0248393Y0291548D01*
X0248393Y0291353D02*
X0247409Y0291353D01*
X0247409Y0291157D02*
X0248393Y0291157D01*
X0248393Y0290962D02*
X0247409Y0290962D01*
X0247409Y0290767D02*
X0248393Y0290767D01*
X0248393Y0290571D02*
X0247409Y0290571D01*
X0247409Y0290376D02*
X0248393Y0290376D01*
X0248393Y0290181D02*
X0247409Y0290181D01*
X0247409Y0289985D02*
X0248393Y0289985D01*
X0248393Y0289790D02*
X0247409Y0289790D01*
X0247409Y0289594D02*
X0248393Y0289594D01*
X0248393Y0289399D02*
X0247409Y0289399D01*
X0247409Y0289204D02*
X0248393Y0289204D01*
X0248393Y0289008D02*
X0247409Y0289008D01*
X0247409Y0288813D02*
X0248393Y0288813D01*
X0248393Y0288618D02*
X0247409Y0288618D01*
X0247409Y0288422D02*
X0248393Y0288422D01*
X0248393Y0288227D02*
X0247409Y0288227D01*
X0247409Y0288032D02*
X0248393Y0288032D01*
X0248393Y0287836D02*
X0247409Y0287836D01*
X0247409Y0287641D02*
X0248393Y0287641D01*
X0249968Y0287641D02*
X0250952Y0287641D01*
X0250952Y0287525D02*
X0250952Y0293923D01*
X0249968Y0293923D01*
X0249968Y0287525D01*
X0250952Y0287525D01*
X0250952Y0287836D02*
X0249968Y0287836D01*
X0249968Y0288032D02*
X0250952Y0288032D01*
X0250952Y0288227D02*
X0249968Y0288227D01*
X0249968Y0288422D02*
X0250952Y0288422D01*
X0250952Y0288618D02*
X0249968Y0288618D01*
X0249968Y0288813D02*
X0250952Y0288813D01*
X0250952Y0289008D02*
X0249968Y0289008D01*
X0249968Y0289204D02*
X0250952Y0289204D01*
X0250952Y0289399D02*
X0249968Y0289399D01*
X0249968Y0289594D02*
X0250952Y0289594D01*
X0250952Y0289790D02*
X0249968Y0289790D01*
X0249968Y0289985D02*
X0250952Y0289985D01*
X0250952Y0290181D02*
X0249968Y0290181D01*
X0249968Y0290376D02*
X0250952Y0290376D01*
X0250952Y0290571D02*
X0249968Y0290571D01*
X0249968Y0290767D02*
X0250952Y0290767D01*
X0250952Y0290962D02*
X0249968Y0290962D01*
X0249968Y0291157D02*
X0250952Y0291157D01*
X0250952Y0291353D02*
X0249968Y0291353D01*
X0249968Y0291548D02*
X0250952Y0291548D01*
X0250952Y0291743D02*
X0249968Y0291743D01*
X0249968Y0291939D02*
X0250952Y0291939D01*
X0250952Y0292134D02*
X0249968Y0292134D01*
X0249968Y0292330D02*
X0250952Y0292330D01*
X0250952Y0292525D02*
X0249968Y0292525D01*
X0249968Y0292720D02*
X0250952Y0292720D01*
X0250952Y0292916D02*
X0249968Y0292916D01*
X0249968Y0293111D02*
X0250952Y0293111D01*
X0250952Y0293306D02*
X0249968Y0293306D01*
X0249968Y0293502D02*
X0250952Y0293502D01*
X0250952Y0293697D02*
X0249968Y0293697D01*
X0249968Y0293892D02*
X0250952Y0293892D01*
X0232893Y0358852D02*
X0223444Y0368301D01*
X0232893Y0368301D01*
X0232893Y0358852D01*
X0232893Y0358948D02*
X0232798Y0358948D01*
X0232893Y0359143D02*
X0232602Y0359143D01*
X0232407Y0359339D02*
X0232893Y0359339D01*
X0232893Y0359534D02*
X0232211Y0359534D01*
X0232016Y0359729D02*
X0232893Y0359729D01*
X0232893Y0359925D02*
X0231821Y0359925D01*
X0231625Y0360120D02*
X0232893Y0360120D01*
X0232893Y0360315D02*
X0231430Y0360315D01*
X0231235Y0360511D02*
X0232893Y0360511D01*
X0232893Y0360706D02*
X0231039Y0360706D01*
X0230844Y0360901D02*
X0232893Y0360901D01*
X0232893Y0361097D02*
X0230649Y0361097D01*
X0230453Y0361292D02*
X0232893Y0361292D01*
X0232893Y0361488D02*
X0230258Y0361488D01*
X0230062Y0361683D02*
X0232893Y0361683D01*
X0232893Y0361878D02*
X0229867Y0361878D01*
X0229672Y0362074D02*
X0232893Y0362074D01*
X0232893Y0362269D02*
X0229476Y0362269D01*
X0229281Y0362464D02*
X0232893Y0362464D01*
X0232893Y0362660D02*
X0229086Y0362660D01*
X0228890Y0362855D02*
X0232893Y0362855D01*
X0232893Y0363050D02*
X0228695Y0363050D01*
X0228500Y0363246D02*
X0232893Y0363246D01*
X0232893Y0363441D02*
X0228304Y0363441D01*
X0228109Y0363637D02*
X0232893Y0363637D01*
X0232893Y0363832D02*
X0227913Y0363832D01*
X0227718Y0364027D02*
X0232893Y0364027D01*
X0232893Y0364223D02*
X0227523Y0364223D01*
X0227327Y0364418D02*
X0232893Y0364418D01*
X0232893Y0364613D02*
X0227132Y0364613D01*
X0226937Y0364809D02*
X0232893Y0364809D01*
X0232893Y0365004D02*
X0226741Y0365004D01*
X0226546Y0365199D02*
X0232893Y0365199D01*
X0232893Y0365395D02*
X0226351Y0365395D01*
X0226155Y0365590D02*
X0232893Y0365590D01*
X0232893Y0365786D02*
X0225960Y0365786D01*
X0225764Y0365981D02*
X0232893Y0365981D01*
X0232893Y0366176D02*
X0225569Y0366176D01*
X0225374Y0366372D02*
X0232893Y0366372D01*
X0232893Y0366567D02*
X0225178Y0366567D01*
X0224983Y0366762D02*
X0232893Y0366762D01*
X0232893Y0366958D02*
X0224788Y0366958D01*
X0224592Y0367153D02*
X0232893Y0367153D01*
X0232893Y0367348D02*
X0224397Y0367348D01*
X0224202Y0367544D02*
X0232893Y0367544D01*
X0232893Y0367739D02*
X0224006Y0367739D01*
X0223811Y0367934D02*
X0232893Y0367934D01*
X0232893Y0368130D02*
X0223616Y0368130D01*
X0239732Y0429525D02*
X0239732Y0435923D01*
X0240716Y0435923D01*
X0240716Y0429525D01*
X0239732Y0429525D01*
X0239732Y0429669D02*
X0240716Y0429669D01*
X0240716Y0429864D02*
X0239732Y0429864D01*
X0239732Y0430060D02*
X0240716Y0430060D01*
X0240716Y0430255D02*
X0239732Y0430255D01*
X0239732Y0430450D02*
X0240716Y0430450D01*
X0240716Y0430646D02*
X0239732Y0430646D01*
X0239732Y0430841D02*
X0240716Y0430841D01*
X0240716Y0431036D02*
X0239732Y0431036D01*
X0239732Y0431232D02*
X0240716Y0431232D01*
X0240716Y0431427D02*
X0239732Y0431427D01*
X0239732Y0431622D02*
X0240716Y0431622D01*
X0240716Y0431818D02*
X0239732Y0431818D01*
X0239732Y0432013D02*
X0240716Y0432013D01*
X0240716Y0432208D02*
X0239732Y0432208D01*
X0239732Y0432404D02*
X0240716Y0432404D01*
X0240716Y0432599D02*
X0239732Y0432599D01*
X0239732Y0432795D02*
X0240716Y0432795D01*
X0240716Y0432990D02*
X0239732Y0432990D01*
X0239732Y0433185D02*
X0240716Y0433185D01*
X0240716Y0433381D02*
X0239732Y0433381D01*
X0239732Y0433576D02*
X0240716Y0433576D01*
X0240716Y0433771D02*
X0239732Y0433771D01*
X0239732Y0433967D02*
X0240716Y0433967D01*
X0240716Y0434162D02*
X0239732Y0434162D01*
X0239732Y0434357D02*
X0240716Y0434357D01*
X0240716Y0434553D02*
X0239732Y0434553D01*
X0239732Y0434748D02*
X0240716Y0434748D01*
X0240716Y0434944D02*
X0239732Y0434944D01*
X0239732Y0435139D02*
X0240716Y0435139D01*
X0240716Y0435334D02*
X0239732Y0435334D01*
X0239732Y0435530D02*
X0240716Y0435530D01*
X0240716Y0435725D02*
X0239732Y0435725D01*
X0239732Y0435920D02*
X0240716Y0435920D01*
X0242291Y0435920D02*
X0243275Y0435920D01*
X0243275Y0435923D02*
X0243275Y0429525D01*
X0242291Y0429525D01*
X0242291Y0435923D01*
X0243275Y0435923D01*
X0243275Y0435725D02*
X0242291Y0435725D01*
X0242291Y0435530D02*
X0243275Y0435530D01*
X0243275Y0435334D02*
X0242291Y0435334D01*
X0242291Y0435139D02*
X0243275Y0435139D01*
X0243275Y0434944D02*
X0242291Y0434944D01*
X0242291Y0434748D02*
X0243275Y0434748D01*
X0243275Y0434553D02*
X0242291Y0434553D01*
X0242291Y0434357D02*
X0243275Y0434357D01*
X0243275Y0434162D02*
X0242291Y0434162D01*
X0242291Y0433967D02*
X0243275Y0433967D01*
X0243275Y0433771D02*
X0242291Y0433771D01*
X0242291Y0433576D02*
X0243275Y0433576D01*
X0243275Y0433381D02*
X0242291Y0433381D01*
X0242291Y0433185D02*
X0243275Y0433185D01*
X0243275Y0432990D02*
X0242291Y0432990D01*
X0242291Y0432795D02*
X0243275Y0432795D01*
X0243275Y0432599D02*
X0242291Y0432599D01*
X0242291Y0432404D02*
X0243275Y0432404D01*
X0243275Y0432208D02*
X0242291Y0432208D01*
X0242291Y0432013D02*
X0243275Y0432013D01*
X0243275Y0431818D02*
X0242291Y0431818D01*
X0242291Y0431622D02*
X0243275Y0431622D01*
X0243275Y0431427D02*
X0242291Y0431427D01*
X0242291Y0431232D02*
X0243275Y0431232D01*
X0243275Y0431036D02*
X0242291Y0431036D01*
X0242291Y0430841D02*
X0243275Y0430841D01*
X0243275Y0430646D02*
X0242291Y0430646D01*
X0242291Y0430450D02*
X0243275Y0430450D01*
X0243275Y0430255D02*
X0242291Y0430255D01*
X0242291Y0430060D02*
X0243275Y0430060D01*
X0243275Y0429864D02*
X0242291Y0429864D01*
X0242291Y0429669D02*
X0243275Y0429669D01*
X0244850Y0429669D02*
X0245834Y0429669D01*
X0245834Y0429525D02*
X0245834Y0435923D01*
X0244850Y0435923D01*
X0244850Y0429525D01*
X0245834Y0429525D01*
X0245834Y0429864D02*
X0244850Y0429864D01*
X0244850Y0430060D02*
X0245834Y0430060D01*
X0245834Y0430255D02*
X0244850Y0430255D01*
X0244850Y0430450D02*
X0245834Y0430450D01*
X0245834Y0430646D02*
X0244850Y0430646D01*
X0244850Y0430841D02*
X0245834Y0430841D01*
X0245834Y0431036D02*
X0244850Y0431036D01*
X0244850Y0431232D02*
X0245834Y0431232D01*
X0245834Y0431427D02*
X0244850Y0431427D01*
X0244850Y0431622D02*
X0245834Y0431622D01*
X0245834Y0431818D02*
X0244850Y0431818D01*
X0244850Y0432013D02*
X0245834Y0432013D01*
X0245834Y0432208D02*
X0244850Y0432208D01*
X0244850Y0432404D02*
X0245834Y0432404D01*
X0245834Y0432599D02*
X0244850Y0432599D01*
X0244850Y0432795D02*
X0245834Y0432795D01*
X0245834Y0432990D02*
X0244850Y0432990D01*
X0244850Y0433185D02*
X0245834Y0433185D01*
X0245834Y0433381D02*
X0244850Y0433381D01*
X0244850Y0433576D02*
X0245834Y0433576D01*
X0245834Y0433771D02*
X0244850Y0433771D01*
X0244850Y0433967D02*
X0245834Y0433967D01*
X0245834Y0434162D02*
X0244850Y0434162D01*
X0244850Y0434357D02*
X0245834Y0434357D01*
X0245834Y0434553D02*
X0244850Y0434553D01*
X0244850Y0434748D02*
X0245834Y0434748D01*
X0245834Y0434944D02*
X0244850Y0434944D01*
X0244850Y0435139D02*
X0245834Y0435139D01*
X0245834Y0435334D02*
X0244850Y0435334D01*
X0244850Y0435530D02*
X0245834Y0435530D01*
X0245834Y0435725D02*
X0244850Y0435725D01*
X0244850Y0435920D02*
X0245834Y0435920D01*
X0247409Y0435920D02*
X0248393Y0435920D01*
X0248393Y0435923D02*
X0248393Y0429525D01*
X0247409Y0429525D01*
X0247409Y0435923D01*
X0248393Y0435923D01*
X0248393Y0435725D02*
X0247409Y0435725D01*
X0247409Y0435530D02*
X0248393Y0435530D01*
X0248393Y0435334D02*
X0247409Y0435334D01*
X0247409Y0435139D02*
X0248393Y0435139D01*
X0248393Y0434944D02*
X0247409Y0434944D01*
X0247409Y0434748D02*
X0248393Y0434748D01*
X0248393Y0434553D02*
X0247409Y0434553D01*
X0247409Y0434357D02*
X0248393Y0434357D01*
X0248393Y0434162D02*
X0247409Y0434162D01*
X0247409Y0433967D02*
X0248393Y0433967D01*
X0248393Y0433771D02*
X0247409Y0433771D01*
X0247409Y0433576D02*
X0248393Y0433576D01*
X0248393Y0433381D02*
X0247409Y0433381D01*
X0247409Y0433185D02*
X0248393Y0433185D01*
X0248393Y0432990D02*
X0247409Y0432990D01*
X0247409Y0432795D02*
X0248393Y0432795D01*
X0248393Y0432599D02*
X0247409Y0432599D01*
X0247409Y0432404D02*
X0248393Y0432404D01*
X0248393Y0432208D02*
X0247409Y0432208D01*
X0247409Y0432013D02*
X0248393Y0432013D01*
X0248393Y0431818D02*
X0247409Y0431818D01*
X0247409Y0431622D02*
X0248393Y0431622D01*
X0248393Y0431427D02*
X0247409Y0431427D01*
X0247409Y0431232D02*
X0248393Y0431232D01*
X0248393Y0431036D02*
X0247409Y0431036D01*
X0247409Y0430841D02*
X0248393Y0430841D01*
X0248393Y0430646D02*
X0247409Y0430646D01*
X0247409Y0430450D02*
X0248393Y0430450D01*
X0248393Y0430255D02*
X0247409Y0430255D01*
X0247409Y0430060D02*
X0248393Y0430060D01*
X0248393Y0429864D02*
X0247409Y0429864D01*
X0247409Y0429669D02*
X0248393Y0429669D01*
X0249968Y0429669D02*
X0250952Y0429669D01*
X0250952Y0429525D02*
X0250952Y0435923D01*
X0249968Y0435923D01*
X0249968Y0429525D01*
X0250952Y0429525D01*
X0250952Y0429864D02*
X0249968Y0429864D01*
X0249968Y0430060D02*
X0250952Y0430060D01*
X0250952Y0430255D02*
X0249968Y0430255D01*
X0249968Y0430450D02*
X0250952Y0430450D01*
X0250952Y0430646D02*
X0249968Y0430646D01*
X0249968Y0430841D02*
X0250952Y0430841D01*
X0250952Y0431036D02*
X0249968Y0431036D01*
X0249968Y0431232D02*
X0250952Y0431232D01*
X0250952Y0431427D02*
X0249968Y0431427D01*
X0249968Y0431622D02*
X0250952Y0431622D01*
X0250952Y0431818D02*
X0249968Y0431818D01*
X0249968Y0432013D02*
X0250952Y0432013D01*
X0250952Y0432208D02*
X0249968Y0432208D01*
X0249968Y0432404D02*
X0250952Y0432404D01*
X0250952Y0432599D02*
X0249968Y0432599D01*
X0249968Y0432795D02*
X0250952Y0432795D01*
X0250952Y0432990D02*
X0249968Y0432990D01*
X0249968Y0433185D02*
X0250952Y0433185D01*
X0250952Y0433381D02*
X0249968Y0433381D01*
X0249968Y0433576D02*
X0250952Y0433576D01*
X0250952Y0433771D02*
X0249968Y0433771D01*
X0249968Y0433967D02*
X0250952Y0433967D01*
X0250952Y0434162D02*
X0249968Y0434162D01*
X0249968Y0434357D02*
X0250952Y0434357D01*
X0250952Y0434553D02*
X0249968Y0434553D01*
X0249968Y0434748D02*
X0250952Y0434748D01*
X0250952Y0434944D02*
X0249968Y0434944D01*
X0249968Y0435139D02*
X0250952Y0435139D01*
X0250952Y0435334D02*
X0249968Y0435334D01*
X0249968Y0435530D02*
X0250952Y0435530D01*
X0250952Y0435725D02*
X0249968Y0435725D01*
X0249968Y0435920D02*
X0250952Y0435920D01*
D22*
X0328842Y0416163D03*
X0328842Y0405337D03*
X0328842Y0274163D03*
X0328842Y0263337D03*
X0328842Y0132163D03*
X0328842Y0121337D03*
X0166842Y0121337D03*
X0166842Y0132163D03*
X0166842Y0263337D03*
X0166842Y0274163D03*
X0166842Y0405337D03*
X0166842Y0416163D03*
D23*
X0172846Y0410750D03*
X0160838Y0410750D03*
X0160838Y0268750D03*
X0172846Y0268750D03*
X0172846Y0126750D03*
X0160838Y0126750D03*
X0322838Y0126750D03*
X0334846Y0126750D03*
X0334846Y0268750D03*
X0322838Y0268750D03*
X0322838Y0410750D03*
X0334846Y0410750D03*
D24*
X0332460Y0389990D03*
X0332460Y0386250D03*
X0332460Y0382510D03*
X0322223Y0382510D03*
X0322223Y0389990D03*
X0322223Y0247990D03*
X0322223Y0240510D03*
X0332460Y0240510D03*
X0332460Y0244250D03*
X0332460Y0247990D03*
X0332460Y0105990D03*
X0332460Y0102250D03*
X0332460Y0098510D03*
X0322223Y0098510D03*
X0322223Y0105990D03*
X0170460Y0105990D03*
X0170460Y0102250D03*
X0170460Y0098510D03*
X0160223Y0098510D03*
X0160223Y0105990D03*
X0160223Y0240510D03*
X0160223Y0247990D03*
X0170460Y0247990D03*
X0170460Y0244250D03*
X0170460Y0240510D03*
X0170460Y0382510D03*
X0170460Y0386250D03*
X0170460Y0389990D03*
X0160223Y0389990D03*
X0160223Y0382510D03*
D25*
X0062704Y0066467D03*
X0062704Y0208467D03*
X0062704Y0350467D03*
X0224704Y0350467D03*
X0224704Y0208467D03*
X0224704Y0066467D03*
D26*
X0247310Y0139344D03*
X0247310Y0281344D03*
X0247310Y0423344D03*
X0085310Y0423344D03*
X0085310Y0281344D03*
X0085310Y0139344D03*
D27*
X0083342Y0139443D03*
X0081373Y0139443D03*
X0081373Y0136057D03*
X0083342Y0136057D03*
X0085310Y0136057D03*
X0085310Y0278057D03*
X0083342Y0278057D03*
X0081373Y0278057D03*
X0081373Y0281443D03*
X0083342Y0281443D03*
X0083342Y0420057D03*
X0085310Y0420057D03*
X0083342Y0423443D03*
X0081373Y0423443D03*
X0081373Y0420057D03*
X0243373Y0420057D03*
X0245342Y0420057D03*
X0247310Y0420057D03*
X0245342Y0423443D03*
X0243373Y0423443D03*
X0243373Y0281443D03*
X0245342Y0281443D03*
X0245342Y0278057D03*
X0247310Y0278057D03*
X0243373Y0278057D03*
X0243373Y0139443D03*
X0245342Y0139443D03*
X0245342Y0136057D03*
X0247310Y0136057D03*
X0243373Y0136057D03*
M02*
