%
M48
M72
T01C0.0120
T02C0.0400
T03C0.1300
%
T01
X5350Y4875
X7650Y8475
X9100Y7625
X9850Y7625
X10600Y6375
X10850Y5875
X12350Y5875
X12350Y6375
X12327Y7352
X11350Y7875
X12350Y9375
X11850Y9875
X11350Y11375
X10600Y11575
X10735Y12125
X9150Y13125
X7900Y13125
X7350Y12085
X6850Y11875
X5350Y11375
X5350Y10975
X6050Y9675
X6050Y9075
X4050Y11875
X4850Y13875
X6000Y14125
X6932Y14243
X8600Y15875
X9850Y15125
X11700Y14575
X12850Y15375
X13350Y14875
X13850Y13375
X12600Y13125
X12650Y12275
X15850Y10178
X15850Y9875
X15600Y8775
X15600Y8125
X15600Y6625
X15850Y5875
X14350Y5375
X13850Y5875
X13850Y7875
X13850Y8375
X18600Y8125
X18600Y8725
X18600Y7375
X18600Y6625
X21550Y4875
X23850Y8475
X25300Y7625
X26050Y7625
X26800Y6375
X27050Y5875
X28550Y5875
X28550Y6375
X28527Y7352
X27550Y7875
X28550Y9375
X28050Y9875
X27550Y11375
X26800Y11575
X26935Y12125
X28800Y13125
X28850Y12275
X30050Y13375
X29550Y14875
X29050Y15375
X27900Y14575
X26050Y15125
X24800Y15875
X23132Y14243
X22200Y14125
X21050Y13875
X21350Y15875
X24100Y13125
X23550Y12085
X23050Y11875
X21550Y11375
X21550Y10975
X20250Y11875
X22250Y9675
X22250Y9075
X25350Y13125
X30050Y8375
X30050Y7875
X31800Y8125
X31800Y8775
X32050Y9875
X32050Y10178
X34800Y8725
X34800Y8125
X34800Y7375
X34800Y6625
X32050Y5875
X31800Y6625
X30550Y5375
X30050Y5875
X21550Y19075
X18600Y20825
X18600Y21575
X18600Y22325
X18600Y22925
X21550Y25175
X21550Y25575
X20250Y26075
X22250Y23875
X22250Y23275
X23850Y22675
X25300Y21825
X26050Y21825
X26800Y20575
X27050Y20075
X28550Y20075
X28550Y20575
X28527Y21552
X27550Y22075
X28550Y23575
X28050Y24075
X27550Y25575
X26800Y25775
X26935Y26325
X28800Y27325
X28850Y26475
X30050Y27575
X29550Y29075
X29050Y29575
X27900Y28775
X26050Y29325
X24800Y30075
X23132Y28443
X22200Y28325
X21050Y28075
X21350Y30075
X24100Y27325
X23550Y26285
X23050Y26075
X25350Y27325
X30050Y22575
X30050Y22075
X31800Y22325
X31800Y22975
X32050Y24075
X32050Y24378
X34800Y22925
X34800Y22325
X34800Y21575
X34800Y20825
X32050Y20075
X31800Y20825
X30550Y19575
X30050Y20075
X15850Y20075
X15600Y20825
X15600Y22325
X15600Y22975
X15850Y24075
X15850Y24378
X13850Y22575
X13850Y22075
X12327Y21552
X12350Y20575
X12350Y20075
X10850Y20075
X10600Y20575
X9850Y21825
X9100Y21825
X7650Y22675
X6050Y23275
X6050Y23875
X5350Y25175
X5350Y25575
X4050Y26075
X4850Y28075
X6000Y28325
X6932Y28443
X7900Y27325
X7350Y26285
X6850Y26075
X9150Y27325
X10735Y26325
X10600Y25775
X11350Y25575
X11850Y24075
X12350Y23575
X11350Y22075
X13850Y20075
X14350Y19575
X12650Y26475
X12600Y27325
X13850Y27575
X13350Y29075
X12850Y29575
X11700Y28775
X9850Y29325
X8600Y30075
X5150Y30075
X5350Y19075
X5150Y15875
T02
X6350Y18575
X7350Y18575
X8350Y18575
X9350Y18575
X10350Y18575
X11350Y18575
X12350Y18575
X13350Y18575
X14350Y18575
X15350Y18575
X15350Y16375
X14350Y16375
X13350Y16375
X12350Y16375
X11350Y16375
X16350Y16375
X22550Y18575
X23550Y18575
X24550Y18575
X25550Y18575
X26550Y18575
X27550Y18575
X28550Y18575
X29550Y18575
X30550Y18575
X31550Y18575
X31550Y16375
X32550Y16375
X30550Y16375
X29550Y16375
X28550Y16375
X27550Y16375
X27550Y4375
X26550Y4375
X25550Y4375
X24550Y4375
X23550Y4375
X22550Y4375
X28550Y4375
X29550Y4375
X30550Y4375
X31550Y4375
X15350Y4375
X14350Y4375
X13350Y4375
X12350Y4375
X11350Y4375
X10350Y4375
X9350Y4375
X8350Y4375
X7350Y4375
X6350Y4375
X11350Y30575
X12350Y30575
X13350Y30575
X14350Y30575
X15350Y30575
X16350Y30575
X27550Y30575
X28550Y30575
X29550Y30575
X30550Y30575
X31550Y30575
X32550Y30575
T03
X3850Y4875
X3850Y15875
X3850Y19075
X3850Y30075
X17850Y30075
X20050Y30075
X20050Y19075
X17850Y19075
X17850Y15875
X20050Y15875
X20050Y4875
X17850Y4875
X34050Y4875
X34050Y15875
X34050Y19075
X34050Y30075
M30
